<?xml version="1.0" encoding="utf-8"?>
<!-- Generator: Adobe Illustrator 21.0.0, SVG Export Plug-In . SVG Version: 6.00 Build 0)  -->
<svg version="1.1" id="Layer_1" xmlns="http://www.w3.org/2000/svg" xmlns:xlink="http://www.w3.org/1999/xlink" x="0px" y="0px"
	 viewBox="0 0 350 350" style="enable-background:new 0 0 350 350;" xml:space="preserve">
<style type="text/css">
	.st0{fill:#0959B5;}
	.st1{enable-background:new    ;}
	.st2{clip-path:url(#SVGID_1_);}
	.st3{clip-path:url(#SVGID_2_);enable-background:new    ;}
	.st4{clip-path:url(#SVGID_3_);fill:#3C96D3;}
	.st5{opacity:0.2;clip-path:url(#SVGID_3_);enable-background:new    ;}
	.st6{clip-path:url(#SVGID_4_);}
	.st7{clip-path:url(#SVGID_5_);enable-background:new    ;}
	.st8{clip-path:url(#SVGID_6_);}
	.st9{clip-path:url(#SVGID_7_);}
	.st10{clip-path:url(#SVGID_8_);enable-background:new    ;}
	.st11{clip-path:url(#SVGID_9_);}
	.st12{clip-path:url(#SVGID_3_);fill:#3682C1;}
	.st13{clip-path:url(#SVGID_3_);fill:#287FAF;}
	.st14{clip-path:url(#SVGID_3_);fill:#26779B;}
	.st15{clip-path:url(#SVGID_3_);fill:#87BFFF;}
	.st16{clip-path:url(#SVGID_10_);}
	.st17{clip-path:url(#SVGID_11_);enable-background:new    ;}
	.st18{clip-path:url(#SVGID_12_);}
	.st19{clip-path:url(#SVGID_3_);fill:#65A8EA;}
	.st20{clip-path:url(#SVGID_3_);fill:#603526;}
	.st21{clip-path:url(#SVGID_13_);}
	.st22{clip-path:url(#SVGID_14_);enable-background:new    ;}
	.st23{clip-path:url(#SVGID_15_);}
	.st24{clip-path:url(#SVGID_16_);}
	.st25{clip-path:url(#SVGID_17_);enable-background:new    ;}
	.st26{clip-path:url(#SVGID_18_);}
	.st27{clip-path:url(#SVGID_19_);}
	.st28{clip-path:url(#SVGID_20_);enable-background:new    ;}
	.st29{clip-path:url(#SVGID_21_);}
	.st30{clip-path:url(#SVGID_22_);}
	.st31{clip-path:url(#SVGID_23_);enable-background:new    ;}
	.st32{clip-path:url(#SVGID_24_);}
	.st33{clip-path:url(#SVGID_3_);fill:#B3D9FF;}
	.st34{clip-path:url(#SVGID_25_);}
	.st35{clip-path:url(#SVGID_26_);enable-background:new    ;}
	.st36{clip-path:url(#SVGID_27_);}
	.st37{clip-path:url(#SVGID_28_);}
	.st38{clip-path:url(#SVGID_29_);enable-background:new    ;}
	.st39{clip-path:url(#SVGID_30_);}
	.st40{clip-path:url(#SVGID_31_);}
	.st41{clip-path:url(#SVGID_32_);enable-background:new    ;}
	.st42{clip-path:url(#SVGID_33_);}
	.st43{clip-path:url(#SVGID_3_);fill:#E5D100;}
	.st44{clip-path:url(#SVGID_34_);}
	.st45{clip-path:url(#SVGID_35_);enable-background:new    ;}
	.st46{clip-path:url(#SVGID_36_);}
	.st47{clip-path:url(#SVGID_37_);}
	.st48{clip-path:url(#SVGID_38_);enable-background:new    ;}
	.st49{clip-path:url(#SVGID_39_);}
	.st50{fill-rule:evenodd;clip-rule:evenodd;fill:none;}
</style>
<g>
	<path class="st0" d="M175.1,31.3c2.4,0,4.7,0.1,7.1,0.2c2.4,0.1,4.7,0.3,7,0.5c2.3,0.2,4.7,0.5,7,0.9c2.3,0.3,4.7,0.7,7,1.2
		c2.3,0.5,4.6,1,6.9,1.5c2.3,0.6,4.6,1.2,6.8,1.9s4.5,1.4,6.7,2.2s4.4,1.6,6.6,2.5c2.2,0.9,4.3,1.9,6.5,2.9c2.1,1,4.2,2.1,6.3,3.2
		c2.1,1.1,4.1,2.3,6.1,3.5c2,1.2,4,2.5,6,3.8c2,1.3,3.9,2.7,5.8,4.1c1.9,1.4,3.7,2.9,5.6,4.3c1.8,1.5,3.6,3,5.4,4.6s3.5,3.2,5.1,4.9
		c1.7,1.7,3.3,3.4,4.9,5.1c1.6,1.7,3.1,3.5,4.6,5.4c1.5,1.8,2.9,3.7,4.3,5.6c1.4,1.9,2.8,3.8,4.1,5.8c1.3,2,2.6,3.9,3.8,6
		c1.2,2,2.4,4.1,3.5,6.1c1.1,2.1,2.2,4.2,3.2,6.3c1,2.1,2,4.3,2.9,6.5c0.9,2.2,1.7,4.4,2.5,6.6c0.8,2.2,1.5,4.5,2.2,6.7
		c0.7,2.3,1.3,4.5,1.9,6.8c0.6,2.3,1.1,4.6,1.5,6.9c0.5,2.3,0.9,4.6,1.2,7c0.3,2.3,0.6,4.7,0.9,7c0.2,2.3,0.4,4.7,0.5,7
		c0.1,2.4,0.2,4.7,0.2,7.1c0,2.4-0.1,4.7-0.2,7.1c-0.1,2.4-0.3,4.7-0.5,7c-0.2,2.3-0.5,4.7-0.9,7c-0.3,2.3-0.7,4.7-1.2,7
		c-0.5,2.3-1,4.6-1.5,6.9c-0.6,2.3-1.2,4.6-1.9,6.8c-0.7,2.3-1.4,4.5-2.2,6.7c-0.8,2.2-1.6,4.4-2.5,6.6c-0.9,2.2-1.9,4.3-2.9,6.5
		c-1,2.1-2.1,4.2-3.2,6.3c-1.1,2.1-2.3,4.1-3.5,6.1c-1.2,2-2.5,4-3.8,6c-1.3,2-2.7,3.9-4.1,5.8c-1.4,1.9-2.9,3.7-4.3,5.6
		c-1.5,1.8-3,3.6-4.6,5.4c-1.6,1.7-3.2,3.5-4.9,5.1c-1.7,1.7-3.4,3.3-5.1,4.9c-1.7,1.6-3.5,3.1-5.4,4.6c-1.8,1.5-3.7,2.9-5.6,4.3
		c-1.9,1.4-3.8,2.8-5.8,4.1c-2,1.3-3.9,2.6-6,3.8c-2,1.2-4.1,2.4-6.1,3.5c-2.1,1.1-4.2,2.2-6.3,3.2c-2.1,1-4.3,2-6.5,2.9
		c-2.2,0.9-4.4,1.7-6.6,2.5c-2.2,0.8-4.5,1.5-6.7,2.2c-2.3,0.7-4.5,1.3-6.8,1.9c-2.3,0.6-4.6,1.1-6.9,1.5c-2.3,0.5-4.6,0.9-7,1.2
		c-2.3,0.3-4.7,0.6-7,0.9c-2.3,0.2-4.7,0.4-7,0.5c-2.4,0.1-4.7,0.2-7.1,0.2c-2.4,0-4.7-0.1-7.1-0.2c-2.4-0.1-4.7-0.3-7-0.5
		s-4.7-0.5-7-0.9c-2.3-0.3-4.7-0.7-7-1.2c-2.3-0.5-4.6-1-6.9-1.5c-2.3-0.6-4.6-1.2-6.8-1.9c-2.3-0.7-4.5-1.4-6.7-2.2
		c-2.2-0.8-4.4-1.6-6.6-2.5c-2.2-0.9-4.3-1.9-6.5-2.9s-4.2-2.1-6.3-3.2c-2.1-1.1-4.1-2.3-6.1-3.5c-2-1.2-4-2.5-6-3.8
		c-2-1.3-3.9-2.7-5.8-4.1c-1.9-1.4-3.7-2.9-5.6-4.3c-1.8-1.5-3.6-3-5.4-4.6c-1.7-1.6-3.5-3.2-5.1-4.9c-1.7-1.7-3.3-3.4-4.9-5.1
		c-1.6-1.7-3.1-3.5-4.6-5.4c-1.5-1.8-2.9-3.7-4.3-5.6c-1.4-1.9-2.8-3.8-4.1-5.8c-1.3-2-2.6-3.9-3.8-6c-1.2-2-2.4-4.1-3.5-6.1
		c-1.1-2.1-2.2-4.2-3.2-6.3c-1-2.1-2-4.3-2.9-6.5c-0.9-2.2-1.7-4.4-2.5-6.6c-0.8-2.2-1.5-4.5-2.2-6.7c-0.7-2.3-1.3-4.5-1.9-6.8
		c-0.6-2.3-1.1-4.6-1.5-6.9c-0.5-2.3-0.9-4.6-1.2-7c-0.3-2.3-0.6-4.7-0.9-7s-0.4-4.7-0.5-7c-0.1-2.4-0.2-4.7-0.2-7.1
		c0-2.4,0.1-4.7,0.2-7.1c0.1-2.4,0.3-4.7,0.5-7s0.5-4.7,0.9-7c0.3-2.3,0.7-4.7,1.2-7s1-4.6,1.5-6.9c0.6-2.3,1.2-4.6,1.9-6.8
		c0.7-2.3,1.4-4.5,2.2-6.7c0.8-2.2,1.6-4.4,2.5-6.6c0.9-2.2,1.9-4.3,2.9-6.5c1-2.1,2.1-4.2,3.2-6.3c1.1-2.1,2.3-4.1,3.5-6.1
		c1.2-2,2.5-4,3.8-6c1.3-2,2.7-3.9,4.1-5.8c1.4-1.9,2.9-3.7,4.3-5.6c1.5-1.8,3-3.6,4.6-5.4c1.6-1.7,3.2-3.5,4.9-5.1
		c1.7-1.7,3.4-3.3,5.1-4.9c1.7-1.6,3.5-3.1,5.4-4.6c1.8-1.5,3.7-2.9,5.6-4.3c1.9-1.4,3.8-2.8,5.8-4.1c2-1.3,3.9-2.6,6-3.8
		c2-1.2,4.1-2.4,6.1-3.5c2.1-1.1,4.2-2.2,6.3-3.2s4.3-2,6.5-2.9c2.2-0.9,4.4-1.7,6.6-2.5s4.5-1.5,6.7-2.2s4.5-1.3,6.8-1.9
		c2.3-0.6,4.6-1.1,6.9-1.5c2.3-0.5,4.6-0.9,7-1.2c2.3-0.3,4.7-0.6,7-0.9s4.7-0.4,7-0.5S172.8,31.3,175.1,31.3z"/>
	<g class="st1">
		<g>
			<defs>
				<rect id="SVGID_79_" x="2.5" y="30.8" width="345" height="251.2"/>
			</defs>
			<clipPath id="SVGID_1_">
				<use xlink:href="#SVGID_79_"  style="overflow:visible;"/>
			</clipPath>
			<g class="st2">
				<defs>
					<rect id="SVGID_81_" x="2.7" y="30.8" width="344.8" height="251"/>
				</defs>
				<clipPath id="SVGID_2_">
					<use xlink:href="#SVGID_81_"  style="overflow:visible;"/>
				</clipPath>
				<g class="st3">
					<g>
						<defs>
							<rect id="SVGID_83_" x="2.5" y="30.8" width="345" height="251.2"/>
						</defs>
						<clipPath id="SVGID_3_">
							<use xlink:href="#SVGID_83_"  style="overflow:visible;"/>
						</clipPath>
						<path class="st4" d="M248.4,196.1c-1.3-4.8-5.9-8.3-10.8-9.2c-4.9-0.9-10,0.6-14.3,3.1c-0.2,0.1-0.3,0.2-0.5,0.3
							c1.9-9.6-0.8-20.5-8.5-26.5c-8.2-6.4-22.1-5.1-27.4,3.9c-1.5-5.3-4.7-10.7-9.9-12.6c-5.2-2-12.3,1.3-12.5,6.9
							c-0.4-8-10.1-13.9-17.3-10.5c0.9-4.7-4.1-8.8-8.9-8.8c-4.8,0.1-7.3,4-11,7c-3.3-9.3-7.1-19.3-15.5-24.4
							c-7.6-4.6-17.9-3.9-25,1.4c-7.1,5.3-10.6,14.8-9.1,23.6c-5.6-2.5-13.1,1.8-13.7,7.9c-1.1-3.7-4.8-6.4-8.7-6.3
							c-3.8,0.1-7.4,3.1-8.2,6.8c-0.4,2,0.1,4.8,0.4,6.8c-10.2,0.1-20,6.7-23.8,16.1c-3.8,9.4-1.5,21,5.7,28.2
							c0.5,0.5,1.2,1.1,1.9,1.3c-4.6,0.2-8.9,3.8-9.7,8.3c-3.2-1-6.9-0.8-9.5,1.4c-2.5,2.2-2.2,6,0.1,8.5c-3-1.3-6.8,0.2-8.4,3
							c-1.7,2.8-1.3,6.5,0.4,9.3c0.7,1.1,1.6,2.1,2.7,2.7c2.3,1.2,5.2,0.7,7.4-0.6c2.2-1.4,3.9-3.4,5.5-5.4
							c0.5,7.4,7.1,13.7,14.5,14.7c7.1,0.9,14.5-2.7,18.8-8.4c1.2,2.8,3.9,4.9,6.9,5.2c3.4,0.3,6.8-1.5,8.4-4.6
							c5.2,5.8,13.3,8.8,21,7.7c7.7-1.1,14.7-6.2,18.1-13.2c6.9-14.3,29.4-16.6,45.2-17.7c15.8-1.1,31.8-0.1,47.4-2.7
							c15.1-2.5,29.4-8.1,43.6-13.8c1.6-0.6,3.3-1.3,4.4-2.6C250.1,201.1,249.2,198.8,248.4,196.1"/>
						<g class="st5">
							<g>
								<defs>
									<rect id="SVGID_85_" x="2.5" y="30.8" width="345" height="251.2"/>
								</defs>
								<clipPath id="SVGID_4_">
									<use xlink:href="#SVGID_85_"  style="overflow:visible;"/>
								</clipPath>
								<g class="st6">
									<defs>
										<rect id="SVGID_87_" x="2.7" y="166.5" width="113.1" height="86.7"/>
									</defs>
									<clipPath id="SVGID_5_">
										<use xlink:href="#SVGID_87_"  style="overflow:visible;"/>
									</clipPath>
									<g class="st7">
										<g>
											<defs>
												<rect id="SVGID_89_" x="2.5" y="166.2" width="113.4" height="87.1"/>
											</defs>
											<clipPath id="SVGID_6_">
												<use xlink:href="#SVGID_89_"  style="overflow:visible;"/>
											</clipPath>
											<path class="st8" d="M107.6,239.8c1.8-3.7,4.7-6.6,8.2-8.9c-0.3-0.1-0.6-0.2-0.9-0.4c-3.9,4.7-10.7,6.7-16.4,4.8
												c-1.8-0.6-3.5-1.4-5.4-1.3c-1.8,0.1-3.8,1.9-3.1,3.6c-5.9,1.2-12.5-1.9-15.1-7.4c-1.5,3.4-6.8,4.2-9.3,1.4
												c-1.5-1.7-2-4.3-3.9-5.5c-1.8-1.2-4.2-0.6-6.3-0.7c-5.7-0.3-10-5.9-10.8-11.6c-0.7-5.7,1.3-11.3,3.6-16.6
												c-7.4,2.2-14.6-6.1-14.2-13.9c0.3-7.1,4.7-11,7.5-16.8c-7.8,2.1-14.6,7.8-17.7,15.3c-3.8,9.4-1.5,21,5.7,28.2
												c0.5,0.5,1.2,1.1,1.9,1.3c-4.6,0.2-8.9,3.8-9.7,8.3c-3.2-1-6.9-0.8-9.5,1.4c-2.5,2.2-2.2,6,0.1,8.5c-3-1.3-6.8,0.2-8.4,3
												c-1.7,2.8-1.3,6.5,0.4,9.3c0.7,1.1,1.6,2.1,2.7,2.7c2.3,1.2,5.2,0.7,7.4-0.6c2.2-1.4,3.9-3.4,5.5-5.4
												c0.6,7.4,7.1,13.7,14.5,14.7c7.1,0.9,14.5-2.7,18.8-8.4c1.2,2.8,3.9,4.9,6.9,5.2c3.4,0.3,6.8-1.5,8.4-4.6
												c5.2,5.8,13.3,8.8,21,7.7C97.2,251.9,104.2,246.8,107.6,239.8"/>
										</g>
									</g>
								</g>
							</g>
						</g>
						<g class="st5">
							<g>
								<defs>
									<rect id="SVGID_91_" x="2.5" y="30.8" width="345" height="251.2"/>
								</defs>
								<clipPath id="SVGID_7_">
									<use xlink:href="#SVGID_91_"  style="overflow:visible;"/>
								</clipPath>
								<g class="st9">
									<defs>
										<rect id="SVGID_93_" x="177" y="163.1" width="72.3" height="58.2"/>
									</defs>
									<clipPath id="SVGID_8_">
										<use xlink:href="#SVGID_93_"  style="overflow:visible;"/>
									</clipPath>
									<g class="st10">
										<g>
											<defs>
												<rect id="SVGID_95_" x="176.8" y="162.9" width="72.7" height="58.5"/>
											</defs>
											<clipPath id="SVGID_9_">
												<use xlink:href="#SVGID_95_"  style="overflow:visible;"/>
											</clipPath>
											<path class="st11" d="M248.2,203c1.9-2,0.9-4.3,0.2-6.9c-1.3-4.8-5.9-8.3-10.8-9.2c-4.9-0.9-10,0.6-14.3,3.1
												c-0.2,0.1-0.3,0.2-0.5,0.3c1.9-9.6-0.8-20.5-8.5-26.5c-0.4-0.3-0.8-0.5-1.2-0.8c1.5,6.1-1.5,13.5-7.5,15.8
												c4.9,5.9,7.7,14.1,5.3,21.4c-2.4,7.3-11.1,12.5-18.1,9.5c-4.1,5.2-9.7,9.1-15.9,11.5c7.8-0.2,15.5-0.6,23.2-1.9
												c15.1-2.5,29.4-8.1,43.6-13.8C245.4,204.9,247,204.3,248.2,203"/>
										</g>
									</g>
								</g>
							</g>
						</g>
						<path class="st12" d="M237.7,187c-4.9-0.9-10,0.6-14.3,3.1c-0.2,0.1-0.3,0.2-0.5,0.3c1.9-9.6-0.8-20.5-8.5-26.5
							c-5.6-4.4-13.7-5.1-20.1-2.4c4.7,8.3,2.8,20.5-5.4,25.9c3.8,4.6,2,12-2.3,16.2c-4.3,4.2-10.3,5.9-16.1,7.5
							c-15.1,4-32.1,7.3-45.8-0.3c-3.5,5.2-10.3,8-16.5,6.7c-2.8-0.6-5.6-2-8.4-1.3c-2.1,0.5-3.7,2.1-5.5,3.2
							c-4.6,2.6-11.1,1.4-14.4-2.7c-0.1,5-5.5,8.8-10.5,8.4c-5-0.5-9.2-4.2-11.5-8.7c-2.3-4.4-3.2-9.5-3.9-14.4
							c-8.4,2.9-17.7-4.3-20.2-12.9c-2-6.8,0.9-13.7,1.8-20.2c-5.3,2.8-9.7,7.4-11.9,13c-3.8,9.4-1.5,21,5.7,28.2
							c0.5,0.5,1.2,1.1,1.9,1.3c-4.6,0.2-8.9,3.8-9.7,8.3c-3.2-1-6.9-0.8-9.5,1.4c-2.5,2.2-2.2,6,0.1,8.5c-3-1.3-6.8,0.2-8.4,3
							c-1.7,2.8-1.3,6.5,0.4,9.3c0.7,1.1,1.6,2.1,2.7,2.7c2.3,1.2,5.2,0.7,7.4-0.6c2.2-1.4,3.9-3.4,5.5-5.4
							c0.5,7.4,7.1,13.7,14.5,14.7c7.1,0.9,14.5-2.7,18.8-8.4c1.2,2.8,3.9,4.9,6.9,5.2c3.4,0.3,6.8-1.5,8.4-4.6
							c5.2,5.8,13.3,8.8,21,7.7c7.7-1.1,14.7-6.2,18.1-13.2c6.9-14.3,29.4-16.6,45.2-17.7c15.8-1.1,31.8-0.1,47.4-2.7
							c15.1-2.5,29.4-8.1,43.6-13.8c1.6-0.6,3.3-1.3,4.4-2.6c1.9-2,0.9-4.3,0.2-6.9C247.1,191.3,242.6,187.8,237.7,187"/>
						<path class="st13" d="M101.3,186.6c-3.3-4.1-2.2-10.2,0.5-14.6c4.2-7,12.5-11.7,20.7-10.6c8.1,1.2,15.1,8.9,14.4,17
							c2.4-3.7,7.2-5.7,11.5-4.8c4.3,0.8,8,4.4,8.9,8.7c2.2-3.1,7.5-2.8,9.8,0.2c2.3,3,1.4,7.8-1.6,10.2c-2.9,2.4-7.3,2.6-10.7,0.8
							c-5.9,5.1-15.6,5-21.3-0.3c-1.4,4.8-5.5,8.5-10.1,10.4c-4.6,1.9-9.8,2.2-14.8,2c-2.9-0.1-6-0.5-8.6-1.9
							c-2.6-1.4-4.3-3.9-4.6-6.8c-4.3,9.1-9.7-0.9-9.2-6.4C87.2,181.7,96.1,180.2,101.3,186.6"/>
						<path class="st14" d="M325.2,239.1c0.9-6.3,1.7-13.3-1.1-18.7c-1.8-3.5-5-5.8-8.3-6c-3.3-0.2-6.7,2.7-8.8,5.9
							c0.4-5.4-1.5-11-4.9-14.4c-3.4-3.4-8.2-4.5-12.5-2.9c-3.1,1.2-5.2,5.1-5.7,9.1c-0.5-3.6-1.2-7.3-2.7-10.4
							c-1.5-3.1-4.1-5.7-7.1-6c-3-0.3-6.9,2.2-7.5,5.8c-2.4-2.9-5-5.9-8.2-6.6c-3.3-0.7-7.4,5.3-7.3,9.4c-2-3.7-4-7.5-6.7-10.5
							c-2.7-3-6.1-5.2-9.7-5.2c-2.9,0-6.6,1.5-6.8,5c-2.8-3.4-5.8-7-9.7-8.2c-3.9-1.1-8.5,2.3-9.2,7.1c-2.7-3.4-6.8-5-10.7-4.2
							c-3.8,0.8-7.3,4.1-9,8.4c0.9,0.1,0,1.7,0.4,0.8c-2.4-4.1-7.1-5.7-10.9-3.7c-3.7,2-5.7,7.4-4.9,12.3c-1.8-4.1-3.7-8.2-6.5-11.2
							c-2.8-3-6.8-4.8-10.4-3.4c-1.5,0.6-3.4,0.9-2.3,2.2c-2.1-1.9-4.7-3-7.3-3.3c-1.8-0.2-3.6,0-5.2,1.2c-1.5,1.1-2.8,2.8-2.5,5
							c-5.6-1.3-11.7,0.5-16.3,4.8c-4.6,4.3-7.7,11-8.3,18c-0.2,2.1-0.7,5.6,0.8,4.6c-3.5-1.2-7.5-0.6-10,2.7
							c-2.5,3.2-2.4,9.3,0.7,11.5L325.2,239.1z"/>
						<path class="st13" d="M324.2,220.3c-1.8-3.5-5-5.8-8.3-6c-3.3-0.2-6.7,2.7-8.8,5.9c0.4-5.4-1.5-11-4.9-14.4
							c-1.6-1.6-3.4-2.6-5.4-3.2c-0.1,0.1-0.1,0.3-0.2,0.4c-2.3,4.3-6.6,7.3-11.1,9.1c-3.6,1.4-7.6,2.2-11.3,1.3
							c-3.8-0.9-7.2-3.7-8.1-7.4c-4.3,6-14.3,6.7-19.3,1.3c-4.6,3-10.4,3.2-15.9,3.4c-3.7,0.1-7.3,0.2-11,0.3
							c-5.2,0.1-11.7-0.6-13.2-5.6c-4.3,5.5-14.1,4.9-17.7-1c-5.1,7.9-18.5,8.4-24.1,0.8c-1.2,3.7-5.5,5.9-9.4,5.4
							c-3.9-0.5-7.3-3.1-9.6-6.2c-4.3-5.7-2.2-9.6-0.9-14c-0.9,0.2-1.8,0.5-2.6,1.1c-1.5,1.1-2.8,2.8-2.5,5
							c-5.6-1.3-11.7,0.5-16.3,4.8c-4.6,4.3-7.7,11-8.3,18c-0.1,1.4-0.4,3.5-0.1,4.4c-3.2-0.8-6.9-0.1-9.1,2.9
							c-2.5,3.2-2.4,9.3,0.7,11.5l218.7,0.9C326.1,232.7,326.9,225.7,324.2,220.3"/>
						<path class="st4" d="M145.2,214.3c-7.6-0.8-14.2-7.4-15-15c-0.1-0.7-0.1-1.4-0.1-2c-2.4,0.9-4.7,2.2-6.7,4.1
							c-4.6,4.3-7.7,11-8.3,18c-0.1,1.4-0.4,3.5-0.1,4.4c-3.2-0.8-6.9-0.1-9.1,2.9c-2.5,3.2-2.4,9.3,0.7,11.5l44.2,0.2
							C160.6,230.7,143.9,224.8,145.2,214.3"/>
						<path class="st13" d="M157.7,231.7c2.5-6.1,10.6-9.1,16.4-6.1c2.8-5.9,10.9-8.6,16.7-5.6c1,0.5,2,1.2,3.2,1.4
							c1.9,0.2,3.6-1.2,5.1-2.4c5.5-4.1,14.6-5.2,18.4,0.6c2.8-5.3,11.6-6,15.1-1.1c2.5-5.3,11.1-6.1,14.5-1.4
							c4.6-4.5,13.7-2.8,16.3,3.1c4.6-3.1,12.1,0.5,12.5,6.1c4.6-2.8,11-0.1,13.8,4.4c2.8,4.6,3,10.3,2.6,15.6
							c-3.5-1.9-7.8-1.4-11.7-0.7c-21.9,3.5-43.5,8.8-65.5,10.8c-22,2-45,0.4-64.9-9.2c-5-2.4-12.9-5.4-8-11.6
							C144.2,232.9,158,230.8,157.7,231.7"/>
						<path class="st4" d="M289.6,230.6c-2.8-4.6-9.2-7.3-13.8-4.4c-0.4-5.6-7.8-9.2-12.5-6.1c-0.5-1-1.1-1.9-1.9-2.6
							c-0.7,0.5-1.4,1-2.3,1.3c3.1,3.9,1.1,10.3-3.2,12.9c-4.2,2.6-9.8,2.3-14.5,0.6c-4.4,3.2-11.3,2-14.4-2.4
							c-4.7,3.8-12.3,3.6-16.7-0.6c-1.1,3-4.8,4.2-7.9,3.5c-3.1-0.7-5.6-2.8-8-4.8c-0.1,3.8-4.5,6.4-8.2,5.5
							c-3.7-0.9-6.2-4.3-7.3-7.9c-0.6-2-0.3-3.6,0-5.1c-2.1,1.2-4,2.9-5,5.2c-5.9-2.9-13.9,0-16.4,6.1c0.4-0.9-13.5,1.2-15.5,3.8
							c-4.9,6.2,3,9.2,8,11.6c19.9,9.6,42.9,11.2,64.9,9.2c9.1-0.8,18-2.2,27-3.8c12.7-3,25.3-6.3,37.9-9.8
							c4.3-1.2,8.8-2.6,12.1-5.5C291.6,234.9,290.9,232.7,289.6,230.6"/>
						<path class="st15" d="M336.9,239.5c-0.6-1.3-0.6-3-0.9-4.4c-0.3-1.5-1-3-2.1-3.5c-1.1-0.6-2.3,0-2.1,1.5
							c-1.5-3.1-3.3-6.6-6.2-7.4c-2.8-0.8-5.7,1.2-8,3.4c-1.5,1.6-3,3.3-3.9,5.6c-0.1,0.3-0.2,0.6-0.3,0.9
							c-1.4-5.3-3.6-10.2-7.6-12.3c-4-2.1-8.8-0.6-12.5,2.3c-3.5,2.8-6.5,7.3-6.5,12.5c-1.7-3-3.9-5.8-6.8-6.5
							c-2.9-0.7-6.4,1.7-6.5,5.3c-1.5-4.5-3.9-8.8-7.7-10.2c-3.7-1.4-9.4,1.4-9.2,6.2c-2.7-6.6-9.6-9.4-15.5-7.9
							c-5.9,1.5-10.9,6.5-14.9,12.1c-1.2,1.7-2.4,3.6-2.9,5.8c-0.2,0.8-0.2,1.6-0.2,2.4c-1.9-3.5-4.9-6-8.3-6.9
							c-4.5-1.3-9.4,0.5-12.7,4.4c-1.1-4.8-6.3-7-10.1-5.1c-3.8,1.9-6.2,6.1-7,11.1c-4.3-5.9-9.8-10.5-15.8-13.3
							c-3.1-1.5-6.3-2.5-9.6-2c-3.3,0.4-6.5,2.6-8.1,6.1c-0.4-2.5-1-5-2.3-7c-1.9-3-5.1-4.4-8.1-4.8c-3.1-0.3-5.9,1.6-8.9,2.3
							c-1.8-2.5-3.7-5.1-5.9-7s-5-3.2-7.7-2.8c-2.7,0.4-5.2,2.3-7.3,4.6c-1.5,1.6-2.9,3.4-3.8,5.7c-2.1,0.6-5-0.5-7.1-0.6
							c-4-0.1-8,3.8-8.4,8.7c-0.4,4.9,3.3,9.8,7.3,9.2c5.1,10.5,17.1,16,26.7,12.6c2.6-0.9,5.5-3.2,5.6-6.4
							c0.2,7.5,5.7,13.6,11.7,15.2c6.2,1.7,12.6-0.1,18.8-1.9c0.6,4.4,3.9,7.6,7.2,9.2c3.3,1.7,7.3,1.1,10.2-1.5
							c0.5-0.4,1-0.9,1.6-1.1c1-0.2,2,0.7,2.8,1.4c5.8,5.4,13.6,7,20.9,6.2c7.3-0.8,14.3-3.8,21.3-6.7c4.2,5,11.1,7.4,16.8,5.6
							c5.7-1.8,10.6-5.9,15.5-9.9c2.5-2.1,5.2-4.5,6.2-8.1c7,7.1,18,7.5,25.4,0.8c4.7,6.8,12.8,9.1,19.9,7.3
							c7.1-1.9,13.4-7.4,18.4-14c1.1,0.8,2.8-0.6,3.9-1.4c1.1-0.8,1.8-2.1,2.4-3.5C336.1,248,337,243.7,336.9,239.5"/>
						<g class="st5">
							<g>
								<defs>
									<rect id="SVGID_97_" x="2.5" y="30.8" width="345" height="251.2"/>
								</defs>
								<clipPath id="SVGID_10_">
									<use xlink:href="#SVGID_97_"  style="overflow:visible;"/>
								</clipPath>
								<g class="st16">
									<defs>
										<rect id="SVGID_99_" x="92" y="229.9" width="245" height="52"/>
									</defs>
									<clipPath id="SVGID_11_">
										<use xlink:href="#SVGID_99_"  style="overflow:visible;"/>
									</clipPath>
									<g class="st17">
										<g>
											<defs>
												<rect id="SVGID_101_" x="91.8" y="229.7" width="245.3" height="52.3"/>
											</defs>
											<clipPath id="SVGID_12_">
												<use xlink:href="#SVGID_101_"  style="overflow:visible;"/>
											</clipPath>
											<path class="st18" d="M332,255.1c1.1-0.8,1.8-2.1,2.4-3.5c1.7-3.7,2.6-8,2.5-12.2c-0.6-1.3-0.6-3-0.9-4.4
												c0-0.2-0.1-0.3-0.2-0.5c-1.6,3.3-3.9,6.2-6.7,8.6c-3.2,2.7-7.3,4.8-11.4,4c-1.3-0.3-2.5-0.8-3.8-0.5
												c-1.6,0.3-2.7,1.6-3.8,2.8c-7.2,7.4-20.5,7.7-28.1,0.7c-4.6,7-16.9,6.4-20.8-1c-0.6,4.4-1.8,8.9-4.9,12
												c-3.1,3.1-8.7,4-11.8,0.9c-4.3,6.6-16.2,5.6-19.3-1.7c-1.9,5.1-7,8.8-12.4,9.1c-5.4,0.2-10.8-3.1-13.2-8
												c-4.8,4.4-11.8,6.4-18.2,5.2c-6.4-1.2-12.2-5.6-15.1-11.5c-3,3.8-8.1,5.8-12.9,5c-4.8-0.8-8.9-4.4-10.5-9
												c-6.1,3.4-14.7,1-18.2-5c-5.7,2.7-13,0.9-16.9-4c-2-2.5-1.9-7.2-1.7-11.5c-1.9,0.1-4.2-0.7-6-0.7c-4-0.1-8,3.8-8.4,8.7
												c-0.4,4.9,3.3,9.8,7.3,9.2c5.1,10.5,17.1,16,26.7,12.6c2.6-0.9,5.5-3.2,5.6-6.4c0.2,7.5,5.7,13.6,11.7,15.2
												c6.2,1.7,12.6-0.1,18.8-1.9c0.6,4.4,3.9,7.6,7.2,9.2c3.3,1.7,7.3,1.1,10.2-1.5c0.5-0.4,1-0.9,1.6-1.1
												c1-0.2,2,0.7,2.8,1.4c5.8,5.4,13.6,7,20.9,6.2c7.3-0.8,14.3-3.8,21.3-6.7c4.2,5,11.1,7.4,16.8,5.6
												c5.7-1.8,10.6-5.9,15.5-9.9c2.5-2.1,5.2-4.5,6.2-8.1c7,7.1,18,7.5,25.4,0.8c4.7,6.8,12.8,9.1,19.9,7.2
												c7.1-1.9,13.4-7.4,18.4-14C329.2,257.3,330.9,255.9,332,255.1"/>
										</g>
									</g>
								</g>
							</g>
						</g>
						<path class="st19" d="M234.6,235.4c0,0-0.1,0.1-0.1,0.1c-3.5,3.9-5.2,10.3-2,14.8c7,10.1,29.3-5.7,21.5-15.8
							C249.2,228.4,239.3,230.3,234.6,235.4"/>
						<path class="st20" d="M246,250.4c0.1-0.1,0.2-0.2,0.3-0.2c0,0-0.1,0-0.1,0.1C246.2,250.2,246.1,250.3,246,250.4"/>
						<path class="st19" d="M261.2,236.4c-1.9,2.2-1.9,5.1-0.3,7.5c1.8,2.8,5.4,3.9,8.3,1.9c3.1-2.2,3.5-7.1,0.8-9.8
							C267.5,233.6,263.4,233.8,261.2,236.4"/>
						<path class="st19" d="M308.1,232.8c-3.6-5.1-13.8-5.9-16,3c-2.4,9.3,8.9,14.2,14.8,7.1C310.1,238.9,309.9,235.3,308.1,232.8"
							/>
						<path class="st19" d="M193.5,243.3c-3.8-0.2-7,3.4-6.6,7.1c0.3,3,2.6,5.3,5.6,5.5c3.2,0.3,5.9-1.9,6.8-4.9
							C200.4,247.1,197.4,243.5,193.5,243.3"/>
						<path class="st19" d="M163.2,236c-5-1.6-10.6,1.6-11.3,6.9c-0.3,2.1,0.3,4.4,1.9,5.9c2.4,2.1,5.5,1.3,8.3,0.9l-0.4,0.1
							c3.2-0.6,6.1-2.4,6.6-5.9C168.8,240.4,166.5,237,163.2,236"/>
						<path class="st19" d="M174.1,247.9c-5.4,1.7-3.6,10.2,2.1,9.3C182.4,256.2,179.9,246,174.1,247.9"/>
						<path class="st19" d="M215.3,253.9c-2.5-1.3-5.2-0.8-6.4,1.9c-1.1,2.3-0.2,4.9,2,6.2C216.2,264.9,220.4,256.6,215.3,253.9"/>
						<path class="st19" d="M209.9,267.3c-4.5-2.7-8.7,4-4,6.4C210,275.8,214,269.8,209.9,267.3"/>
						<path class="st19" d="M241,261.4c-4.8-2.8-9.8,4-5,7.2C240.6,271.6,246.4,264.6,241,261.4"/>
						<path class="st12" d="M292.5,59.9c0,0,10.7-26.7,13-28.8c2.3-2.1,33.3,12.6,42.1,33.4c0,0-10.7,12-28.6,23.5L292.5,59.9z"/>
						<g class="st5">
							<g>
								<defs>
									<rect id="SVGID_103_" x="2.5" y="30.8" width="345" height="251.2"/>
								</defs>
								<clipPath id="SVGID_13_">
									<use xlink:href="#SVGID_103_"  style="overflow:visible;"/>
								</clipPath>
								<g class="st21">
									<defs>
										<rect id="SVGID_105_" x="292.5" y="30.8" width="55" height="57.1"/>
									</defs>
									<clipPath id="SVGID_14_">
										<use xlink:href="#SVGID_105_"  style="overflow:visible;"/>
									</clipPath>
									<g class="st22">
										<g>
											<defs>
												<rect id="SVGID_107_" x="292.3" y="30.8" width="55.2" height="57.3"/>
											</defs>
											<clipPath id="SVGID_15_">
												<use xlink:href="#SVGID_107_"  style="overflow:visible;"/>
											</clipPath>
											<path class="st23" d="M347.5,64.4c-8.8-20.8-39.8-35.5-42.1-33.4c-0.4,0.4-1.1,1.6-2,3.3c0.5,0.2,1,0.4,1.5,0.7
												c6.3,3,12,7,17.7,10.9c4.3,2.9,8.9,6.3,10.2,11.3c1,3.9-0.3,8.3-3.4,10.9c-3,2.6-7.5,3.4-11.3,1.9
												c-2.8-1.1-5-3.3-7.3-5.3c-4.9-4.1-10.8-7-17.1-8.5c-0.9,2.2-1.5,3.6-1.5,3.6l26.4,28C336.8,76.4,347.5,64.4,347.5,64.4"
												/>
										</g>
									</g>
								</g>
							</g>
						</g>
						<path class="st14" d="M219,185.6c2,0.2,4.1,0.1,5.7-1.1c1.6-1.2,2.3-3.7,1.1-5.2c8.1-5.9,14.5-14,18.5-23.3
							c-5.4,0.9-10.9,0.2-16.2-1.4c-8.5-2.6-6.1-7.7-4.9-15.4c-4,2.2-14.5,8.9-17.6,12.3c-3.2,3.3-5.5,7.6-5.7,12.2
							c-0.2,4.5,0.4,13,4.5,15.8C208.4,182.3,214,185.1,219,185.6"/>
						<g class="st5">
							<g>
								<defs>
									<rect id="SVGID_109_" x="2.5" y="30.8" width="345" height="251.2"/>
								</defs>
								<clipPath id="SVGID_16_">
									<use xlink:href="#SVGID_109_"  style="overflow:visible;"/>
								</clipPath>
								<g class="st24">
									<defs>
										<rect id="SVGID_111_" x="199.8" y="139.6" width="24.1" height="45.6"/>
									</defs>
									<clipPath id="SVGID_17_">
										<use xlink:href="#SVGID_111_"  style="overflow:visible;"/>
									</clipPath>
									<g class="st25">
										<g>
											<defs>
												<rect id="SVGID_113_" x="199.7" y="139.5" width="24.4" height="45.7"/>
											</defs>
											<clipPath id="SVGID_18_">
												<use xlink:href="#SVGID_113_"  style="overflow:visible;"/>
											</clipPath>
											<path class="st26" d="M223.1,139.7c-0.2-0.1-0.3-0.1-0.5-0.2c-4.4,2.5-14,8.7-17,11.9c-3.2,3.3-5.5,7.6-5.7,12.2
												c-0.2,4.5,0.4,13,4.5,15.8c3.4,2.3,7.9,4.6,12.1,5.7c-1.4-3-2.3-6.1-2.8-9.3c-0.4-2.4-0.4-5,0.4-7.3
												c0.9-2.3,2.8-4.3,5.3-4.7c-0.7-5.1,1.7-8,4.5-11.3C220.7,149.7,222.2,145.5,223.1,139.7"/>
										</g>
									</g>
								</g>
							</g>
						</g>
						<g class="st5">
							<g>
								<defs>
									<rect id="SVGID_115_" x="2.5" y="30.8" width="345" height="251.2"/>
								</defs>
								<clipPath id="SVGID_19_">
									<use xlink:href="#SVGID_115_"  style="overflow:visible;"/>
								</clipPath>
								<g class="st27">
									<defs>
										<rect id="SVGID_117_" x="200.8" y="145.3" width="39.1" height="32.9"/>
									</defs>
									<clipPath id="SVGID_20_">
										<use xlink:href="#SVGID_117_"  style="overflow:visible;"/>
									</clipPath>
									<g class="st28">
										<g>
											<defs>
												<rect id="SVGID_119_" x="200.7" y="145.2" width="39.3" height="33.2"/>
											</defs>
											<clipPath id="SVGID_21_">
												<use xlink:href="#SVGID_119_"  style="overflow:visible;"/>
											</clipPath>
											<path class="st29" d="M227.6,163.4c-2.5-0.2-5.1-0.4-7-2c-1.1-0.9-1.8-2.1-2.4-3.4c-0.9-1.8-2.6-12.2-3.6-12.6
												c-0.3-0.1-0.7-0.1-1.1-0.1c-3.3,2.2-6.4,4.5-7.9,6.1c-2,2.1-3.7,4.7-4.7,7.4l0,0c0,1.6,1,2.9,2,4.1
												c3.4,4.2,6.8,8.5,10.2,12.7c0.5,0.7,1.1,1.3,1.8,1.8c0.9,0.5,1.9,0.6,2.9,0.7c3.4,0.2,6.8,0,10.1-0.5
												c0.7-0.5,1.3-1.1,2-1.7c-4.5-0.6-8.9-1.5-13.2-2.8c-1.3-0.4-2.7-0.8-3.7-1.7c-0.8-0.6-1.4-1.5-2-2.3
												c-2.4-3.5-4.5-7.2-6.3-11.1c-0.2-0.5-0.4-1-0.3-1.6c0.2-0.7,0.8-1.1,1.3-1.4c1.5-1,2.8-2.4,3.7-4c2,3.8,4.1,7.6,6.1,11.4
												c0.8,1.5,1.7,3.2,3.3,3.9c0.8,0.4,1.8,0.5,2.7,0.6c5.8,0.5,11.7,0.2,17.4-0.9c0.4-0.6,0.8-1.2,1.2-1.8
												C235.8,163.9,231.7,163.6,227.6,163.4"/>
										</g>
									</g>
								</g>
							</g>
						</g>
						<path class="st19" d="M285.4,75.5c0,0-39.7,26.4-72.9,34.9c0,0-13.6,11.3-25.2,46.1L283,89.9L285.4,75.5z"/>
						<path class="st15" d="M305.4,95.2c-0.8,1.2-28.4,26-29.2,32.9c-0.8,6.8-0.4,14.8-19.6,45.7c0,0-28,22.4-34.9,22.4
							c-6.8,0-7.2-10.4,6.4-20.8c0,0,8.4-11.2,12-11.6c0,0,2-13.2,0.8-14.8c-1.2-1.6-10.4-8-12.4-7.2c-2,0.8-12.4,11.6-16.8,12.8
							c0,0-7.2,12-8.8,12.4c0,0,9.6,22.8,9.6,31.2c0,8.4-8.8,5.2-14.8-5.2c-6-10.4-16.8-26.4-12.8-32.5c4-6,24-42.9,28.8-44.9
							c4.8-2,19.6-6.4,19.6-6.4s45.7-23.2,52.1-33.7l18.6,1.7L305.4,95.2z"/>
						<g class="st5">
							<g>
								<defs>
									<rect id="SVGID_121_" x="2.5" y="30.8" width="345" height="251.2"/>
								</defs>
								<clipPath id="SVGID_22_">
									<use xlink:href="#SVGID_121_"  style="overflow:visible;"/>
								</clipPath>
								<g class="st30">
									<defs>
										<rect id="SVGID_123_" x="194.7" y="186.4" width="17.7" height="16.6"/>
									</defs>
									<clipPath id="SVGID_23_">
										<use xlink:href="#SVGID_123_"  style="overflow:visible;"/>
									</clipPath>
									<g class="st31">
										<g>
											<defs>
												<rect id="SVGID_125_" x="194.5" y="186.1" width="18" height="16.8"/>
											</defs>
											<clipPath id="SVGID_24_">
												<use xlink:href="#SVGID_125_"  style="overflow:visible;"/>
											</clipPath>
											<path class="st32" d="M212.3,199.7c-0.2-0.6-0.3-1.3-0.5-1.9c-0.9-3.6-2-7.4-4.9-9.6c-2-1.5-4.7-2-7.2-1.9
												c-2.3,0.1-3.9,0.7-5,1.5c1.1,1.8,2.1,3.5,3,5.1C203.2,202.6,211.2,206,212.3,199.7"/>
										</g>
									</g>
								</g>
							</g>
						</g>
						<path class="st33" d="M212.4,199.5c-1.1-2-2.2-3.9-3.8-5.6c-2.5-2.7-8.3-5.3-11.3-1.8c0.1,0.2,0.3,0.5,0.4,0.7
							C203.3,202.7,211.4,206.1,212.4,199.5"/>
						<g class="st5">
							<g>
								<defs>
									<rect id="SVGID_127_" x="2.5" y="30.8" width="345" height="251.2"/>
								</defs>
								<clipPath id="SVGID_25_">
									<use xlink:href="#SVGID_127_"  style="overflow:visible;"/>
								</clipPath>
								<g class="st34">
									<defs>
										<rect id="SVGID_129_" x="219.4" y="184" width="18.3" height="12"/>
									</defs>
									<clipPath id="SVGID_26_">
										<use xlink:href="#SVGID_129_"  style="overflow:visible;"/>
									</clipPath>
									<g class="st35">
										<g>
											<defs>
												<rect id="SVGID_131_" x="219.2" y="184" width="18.7" height="12.1"/>
											</defs>
											<clipPath id="SVGID_27_">
												<use xlink:href="#SVGID_131_"  style="overflow:visible;"/>
											</clipPath>
											<path class="st36" d="M237.7,187.7c-0.2-0.3-0.3-0.6-0.5-0.9c-1.2-1.5-3.1-2.3-5-2.6c-4.8-0.9-16.1,3.5-11.9,10.3
												c0.6,0.9,1.3,1.4,2.3,1.6C225.8,195.4,231.7,191.8,237.7,187.7"/>
										</g>
									</g>
								</g>
							</g>
						</g>
						<g class="st5">
							<g>
								<defs>
									<rect id="SVGID_133_" x="2.5" y="30.8" width="345" height="251.2"/>
								</defs>
								<clipPath id="SVGID_28_">
									<use xlink:href="#SVGID_133_"  style="overflow:visible;"/>
								</clipPath>
								<g class="st37">
									<defs>
										<rect id="SVGID_135_" x="191.2" y="132.9" width="58.1" height="69.8"/>
									</defs>
									<clipPath id="SVGID_29_">
										<use xlink:href="#SVGID_135_"  style="overflow:visible;"/>
									</clipPath>
									<g class="st38">
										<g>
											<defs>
												<rect id="SVGID_137_" x="191" y="132.9" width="58.5" height="69.9"/>
											</defs>
											<clipPath id="SVGID_30_">
												<use xlink:href="#SVGID_137_"  style="overflow:visible;"/>
											</clipPath>
											<path class="st39" d="M222.3,132.9c-0.8,4.2-2.3,8.5-5.2,11.6c-2.9,3.1-7.6,4.9-11.7,3.5c1.3,3.8-0.5,8.2-3.4,10.9
												c-3,2.8-6.9,4.2-10.8,5.1c11,6.9,22,24.5,19.2,38.6c0.3-0.1,0.5-0.2,0.7-0.4c0.4-0.7,0.8-1.4,1.1-2.1
												c0.1-0.4,0.2-0.8,0.3-1.2c0-0.3,0.1-0.5,0.1-0.8c0-8.4-9.6-31.2-9.6-31.2c1.6-0.4,8.8-12.4,8.8-12.4
												c4.4-1.2,14.8-12,16.8-12.8c2-0.8,11.2,5.6,12.4,7.2c1.2,1.6-0.8,14.8-0.8,14.8c-3.6,0.4-12,11.6-12,11.6
												c-0.2,0.2-0.4,0.3-0.6,0.4c1.2,0.5,2.2,1.3,2.8,2.5c1.2-7.8,7.8-14.5,15.6-15.9c-0.7-6,0.5-12.2,3.4-17.5
												C239.7,142.4,230.5,138.4,222.3,132.9"/>
										</g>
									</g>
								</g>
							</g>
						</g>
						<g class="st5">
							<g>
								<defs>
									<rect id="SVGID_139_" x="2.5" y="30.8" width="345" height="251.2"/>
								</defs>
								<clipPath id="SVGID_31_">
									<use xlink:href="#SVGID_139_"  style="overflow:visible;"/>
								</clipPath>
								<g class="st40">
									<defs>
										<rect id="SVGID_141_" x="217.1" y="88.6" width="88.3" height="107.5"/>
									</defs>
									<clipPath id="SVGID_32_">
										<use xlink:href="#SVGID_141_"  style="overflow:visible;"/>
									</clipPath>
									<g class="st41">
										<g>
											<defs>
												<rect id="SVGID_143_" x="217" y="88.6" width="88.6" height="107.7"/>
											</defs>
											<clipPath id="SVGID_33_">
												<use xlink:href="#SVGID_143_"  style="overflow:visible;"/>
											</clipPath>
											<path class="st42" d="M221.7,196.1c6.8,0,34.9-22.4,34.9-22.4c19.2-30.8,18.8-38.9,19.6-45.7
												c0.8-6.8,28.4-31.7,29.2-32.9l-0.5-6.5c-4.1,2.7-7.9,7.1-9.7,9.1c-7.6,8.6-15.6,17-23.8,25.1c-1.7,1.6-3.4,3.3-4.5,5.4
												c-1.1,2.2-1.5,4.7-1.8,7.2c-1.4,9.5-3.2,19.4-8.7,27.3c-5.6,8.1-14.4,13.4-22.8,18.3c-2.8,1.6-5.6,3.3-8.4,4.9
												c-2.3,1.4-5.2,2.7-7.8,2.8C216.3,193.1,218.1,196.1,221.7,196.1"/>
										</g>
									</g>
								</g>
							</g>
						</g>
						<path class="st43" d="M221.7,196.1c-5.7,0-6.9-7.3,0.9-15.8c-2.4-7.3-7.8-9.9-12.1-4.5c-8.8,11,5.6,37.9,5.6,37.9
							c3.8-6.4,6-12.4,7.1-17.9C222.6,196,222.1,196.1,221.7,196.1"/>
						<path class="st14" d="M285.4,75.5c0,0,13.8,6,20,19.6c0,0,8.4-1.9,13.5-7.2c5.1-5.3-22.4-29.9-26.4-28
							C288.5,61.8,285.4,75.5,285.4,75.5"/>
						<g class="st5">
							<g>
								<defs>
									<rect id="SVGID_145_" x="2.5" y="30.8" width="345" height="251.2"/>
								</defs>
								<clipPath id="SVGID_34_">
									<use xlink:href="#SVGID_145_"  style="overflow:visible;"/>
								</clipPath>
								<g class="st44">
									<defs>
										<rect id="SVGID_147_" x="285.4" y="59.8" width="34.1" height="35.4"/>
									</defs>
									<clipPath id="SVGID_35_">
										<use xlink:href="#SVGID_147_"  style="overflow:visible;"/>
									</clipPath>
									<g class="st45">
										<g>
											<defs>
												<rect id="SVGID_149_" x="285.2" y="59.7" width="34.3" height="35.5"/>
											</defs>
											<clipPath id="SVGID_36_">
												<use xlink:href="#SVGID_149_"  style="overflow:visible;"/>
											</clipPath>
											<path class="st46" d="M305.4,95.2c0,0,8.4-1.9,13.5-7.2c5.1-5.3-22.4-29.9-26.4-28c-1.1,0.5-2.1,1.9-3,3.6
												c2.5,1.5,5.6,2.7,7.2,3.9c5.3,3.9,10,8.8,13.6,14.3c0.8,1.3,1.6,2.7,1.6,4.2c-0.1,1.5-1.4,3.1-2.9,2.8
												c-0.9-0.2-1.6-1-2.3-1.7c-5.4-6.2-13.1-10.4-21.2-11.8c0,0.2-0.1,0.3-0.1,0.3S299.2,81.5,305.4,95.2"/>
										</g>
									</g>
								</g>
							</g>
						</g>
						<g class="st5">
							<g>
								<defs>
									<rect id="SVGID_151_" x="2.5" y="30.8" width="345" height="251.2"/>
								</defs>
								<clipPath id="SVGID_37_">
									<use xlink:href="#SVGID_151_"  style="overflow:visible;"/>
								</clipPath>
								<g class="st47">
									<defs>
										<rect id="SVGID_153_" x="220.1" y="129.4" width="28" height="26.5"/>
									</defs>
									<clipPath id="SVGID_38_">
										<use xlink:href="#SVGID_153_"  style="overflow:visible;"/>
									</clipPath>
									<g class="st48">
										<g>
											<defs>
												<rect id="SVGID_155_" x="219.9" y="129.3" width="28.4" height="26.8"/>
											</defs>
											<clipPath id="SVGID_39_">
												<use xlink:href="#SVGID_155_"  style="overflow:visible;"/>
											</clipPath>
											<path class="st49" d="M240.4,129.5c-7.9-1.2-16.5,10-19.4,16.3c-0.5,1-0.8,2-1,2.9c3.8-3.2,7.4-6.6,8.5-7.1
												c2-0.8,11.2,5.6,12.4,7.2c0.5,0.7,0.4,3.8,0.1,7c1.4-1.8,2.7-3.6,3.8-5.6c2.1-3.6,3.6-7.8,3.2-11.9
												C247.5,134.2,244.6,130.1,240.4,129.5"/>
										</g>
									</g>
								</g>
							</g>
						</g>
						<path class="st33" d="M213.8,123.7c2.8-0.8,4.8-3.5,5.2-6.3c0.2-1.2,0.2-2.5-0.1-3.7c-2.1,0.7-4,1.4-5.3,1.9
							c-1.2,0.5-3.2,3.1-5.8,6.7C209.4,123.7,211.8,124.3,213.8,123.7"/>
						<path class="st33" d="M234.9,189.6c-0.9-2.3-3.5-4.1-7.1-4.3c-3-0.1-6.1,1.7-7.4,4.5c-0.9,1.8-1,3.8-1,5.9
							c0.6,0.3,1.4,0.5,2.3,0.5C224.1,196.1,229.3,193.2,234.9,189.6"/>
					</g>
				</g>
			</g>
		</g>
	</g>
	<rect x="2.7" y="30.8" class="st50" width="344.8" height="251"/>
</g>
</svg>
