<?xml version="1.0" encoding="utf-8"?>
<!-- Generator: Adobe Illustrator 21.0.0, SVG Export Plug-In . SVG Version: 6.00 Build 0)  -->
<svg version="1.1" id="Layer_1" xmlns="http://www.w3.org/2000/svg" xmlns:xlink="http://www.w3.org/1999/xlink" x="0px" y="0px"
	 viewBox="0 0 350 350" style="enable-background:new 0 0 350 350;" xml:space="preserve">
<style type="text/css">
	.st0{fill:#0959B5;}
	.st1{clip-path:url(#SVGID_1_);enable-background:new    ;}
	.st2{clip-path:url(#SVGID_2_);}
	.st3{clip-path:url(#SVGID_3_);enable-background:new    ;}
	.st4{clip-path:url(#SVGID_4_);fill:#3C96D3;}
	.st5{opacity:0.2;clip-path:url(#SVGID_4_);enable-background:new    ;}
	.st6{clip-path:url(#SVGID_5_);}
	.st7{clip-path:url(#SVGID_6_);enable-background:new    ;}
	.st8{clip-path:url(#SVGID_7_);}
	.st9{clip-path:url(#SVGID_8_);}
	.st10{clip-path:url(#SVGID_9_);enable-background:new    ;}
	.st11{clip-path:url(#SVGID_10_);}
	.st12{clip-path:url(#SVGID_4_);fill:#3682C1;}
	.st13{clip-path:url(#SVGID_4_);fill:#287FAF;}
	.st14{clip-path:url(#SVGID_4_);fill:#26779B;}
	.st15{clip-path:url(#SVGID_4_);fill:#87BFFF;}
	.st16{clip-path:url(#SVGID_11_);}
	.st17{clip-path:url(#SVGID_12_);enable-background:new    ;}
	.st18{clip-path:url(#SVGID_13_);}
	.st19{clip-path:url(#SVGID_4_);fill:#65A8EA;}
	.st20{clip-path:url(#SVGID_4_);fill:#603526;}
	.st21{opacity:0.4;clip-path:url(#SVGID_4_);enable-background:new    ;}
	.st22{clip-path:url(#SVGID_14_);}
	.st23{clip-path:url(#SVGID_15_);enable-background:new    ;}
	.st24{clip-path:url(#SVGID_16_);fill:#FFF650;}
	.st25{clip-path:url(#SVGID_4_);fill:#BFA800;}
	.st26{clip-path:url(#SVGID_4_);fill:#E5D100;}
	.st27{clip-path:url(#SVGID_4_);fill:#FFE422;}
	.st28{clip-path:url(#SVGID_17_);}
	.st29{clip-path:url(#SVGID_18_);enable-background:new    ;}
	.st30{clip-path:url(#SVGID_19_);}
	.st31{clip-path:url(#SVGID_20_);}
	.st32{clip-path:url(#SVGID_21_);enable-background:new    ;}
	.st33{clip-path:url(#SVGID_22_);}
	.st34{clip-path:url(#SVGID_23_);}
	.st35{clip-path:url(#SVGID_24_);enable-background:new    ;}
	.st36{clip-path:url(#SVGID_25_);}
	.st37{clip-path:url(#SVGID_26_);}
	.st38{clip-path:url(#SVGID_27_);enable-background:new    ;}
	.st39{clip-path:url(#SVGID_28_);}
	.st40{clip-path:url(#SVGID_29_);}
	.st41{clip-path:url(#SVGID_30_);enable-background:new    ;}
	.st42{clip-path:url(#SVGID_31_);}
	.st43{clip-path:url(#SVGID_32_);}
	.st44{clip-path:url(#SVGID_33_);enable-background:new    ;}
	.st45{clip-path:url(#SVGID_34_);}
	.st46{clip-path:url(#SVGID_35_);}
	.st47{clip-path:url(#SVGID_36_);enable-background:new    ;}
	.st48{clip-path:url(#SVGID_37_);fill:#FFFFFF;}
	.st49{clip-path:url(#SVGID_38_);}
	.st50{clip-path:url(#SVGID_39_);enable-background:new    ;}
	.st51{clip-path:url(#SVGID_40_);}
</style>
<g>
	<path class="st0" d="M194,87.3c1.9,0,3.7,0,5.6,0.1s3.7,0.2,5.6,0.4c1.9,0.2,3.7,0.4,5.5,0.7c1.8,0.3,3.7,0.6,5.5,1
		c1.8,0.4,3.6,0.8,5.4,1.2c1.8,0.5,3.6,0.9,5.4,1.5s3.5,1.1,5.3,1.8c1.8,0.6,3.5,1.3,5.2,2c1.7,0.7,3.4,1.5,5.1,2.3s3.3,1.6,5,2.5
		c1.6,0.9,3.3,1.8,4.9,2.8c1.6,1,3.2,2,4.7,3c1.5,1,3.1,2.1,4.6,3.2c1.5,1.1,3,2.3,4.4,3.4c1.4,1.2,2.8,2.4,4.2,3.6
		c1.4,1.3,2.7,2.5,4,3.8c1.3,1.3,2.6,2.7,3.9,4c1.3,1.4,2.5,2.8,3.6,4.2c1.2,1.4,2.3,2.9,3.4,4.4c1.1,1.5,2.2,3,3.2,4.6
		c1,1.5,2,3.1,3,4.7c1,1.6,1.9,3.2,2.8,4.9c0.9,1.6,1.7,3.3,2.5,5c0.8,1.7,1.6,3.4,2.3,5.1c0.7,1.7,1.4,3.5,2,5.2
		c0.6,1.8,1.2,3.5,1.8,5.3c0.5,1.8,1,3.6,1.5,5.4c0.5,1.8,0.9,3.6,1.2,5.4c0.4,1.8,0.7,3.7,1,5.5c0.3,1.8,0.5,3.7,0.7,5.5
		c0.2,1.9,0.3,3.7,0.4,5.6c0.1,1.9,0.1,3.7,0.1,5.6c0,1.9,0,3.7-0.1,5.6c-0.1,1.9-0.2,3.7-0.4,5.6c-0.2,1.9-0.4,3.7-0.7,5.5
		c-0.3,1.8-0.6,3.7-1,5.5c-0.4,1.8-0.8,3.6-1.2,5.4c-0.5,1.8-0.9,3.6-1.5,5.4c-0.5,1.8-1.1,3.5-1.8,5.3c-0.6,1.8-1.3,3.5-2,5.2
		c-0.7,1.7-1.5,3.4-2.3,5.1c-0.8,1.7-1.6,3.3-2.5,5c-0.9,1.6-1.8,3.3-2.8,4.9c-1,1.6-2,3.2-3,4.7c-1,1.5-2.1,3.1-3.2,4.6
		c-1.1,1.5-2.3,3-3.4,4.4c-1.2,1.4-2.4,2.8-3.6,4.2c-1.3,1.4-2.5,2.7-3.9,4c-1.3,1.3-2.7,2.6-4,3.9c-1.4,1.3-2.8,2.5-4.2,3.6
		c-1.4,1.2-2.9,2.3-4.4,3.4c-1.5,1.1-3,2.2-4.6,3.2c-1.5,1-3.1,2-4.7,3c-1.6,1-3.2,1.9-4.9,2.8c-1.6,0.9-3.3,1.7-5,2.5
		c-1.7,0.8-3.4,1.6-5.1,2.3c-1.7,0.7-3.5,1.4-5.2,2c-1.8,0.6-3.5,1.2-5.3,1.8c-1.8,0.5-3.6,1-5.4,1.5c-1.8,0.5-3.6,0.9-5.4,1.2
		c-1.8,0.4-3.7,0.7-5.5,1c-1.8,0.3-3.7,0.5-5.5,0.7c-1.9,0.2-3.7,0.3-5.6,0.4s-3.7,0.1-5.6,0.1c-1.9,0-3.7,0-5.6-0.1
		c-1.9-0.1-3.7-0.2-5.6-0.4c-1.9-0.2-3.7-0.4-5.5-0.7c-1.8-0.3-3.7-0.6-5.5-1c-1.8-0.4-3.6-0.8-5.4-1.2c-1.8-0.5-3.6-0.9-5.4-1.5
		c-1.8-0.5-3.5-1.1-5.3-1.8c-1.8-0.6-3.5-1.3-5.2-2c-1.7-0.7-3.4-1.5-5.1-2.3c-1.7-0.8-3.3-1.6-5-2.5c-1.6-0.9-3.3-1.8-4.9-2.8
		c-1.6-1-3.2-2-4.7-3c-1.5-1-3.1-2.1-4.6-3.2c-1.5-1.1-3-2.3-4.4-3.4c-1.4-1.2-2.8-2.4-4.2-3.6c-1.4-1.3-2.7-2.5-4-3.9
		c-1.3-1.3-2.6-2.7-3.9-4c-1.3-1.4-2.5-2.8-3.6-4.2c-1.2-1.4-2.3-2.9-3.4-4.4c-1.1-1.5-2.2-3-3.2-4.6c-1-1.5-2-3.1-3-4.7
		c-1-1.6-1.9-3.2-2.8-4.9s-1.7-3.3-2.5-5c-0.8-1.7-1.6-3.4-2.3-5.1c-0.7-1.7-1.4-3.5-2-5.2c-0.6-1.8-1.2-3.5-1.8-5.3
		c-0.5-1.8-1-3.6-1.5-5.4c-0.5-1.8-0.9-3.6-1.2-5.4c-0.4-1.8-0.7-3.7-1-5.5c-0.3-1.8-0.5-3.7-0.7-5.5c-0.2-1.9-0.3-3.7-0.4-5.6
		c-0.1-1.9-0.1-3.7-0.1-5.6c0-1.9,0-3.7,0.1-5.6c0.1-1.9,0.2-3.7,0.4-5.6c0.2-1.9,0.4-3.7,0.7-5.5c0.3-1.8,0.6-3.7,1-5.5
		c0.4-1.8,0.8-3.6,1.2-5.4c0.5-1.8,0.9-3.6,1.5-5.4c0.5-1.8,1.1-3.5,1.8-5.3c0.6-1.8,1.3-3.5,2-5.2c0.7-1.7,1.5-3.4,2.3-5.1
		c0.8-1.7,1.6-3.3,2.5-5s1.8-3.3,2.8-4.9c1-1.6,2-3.2,3-4.7c1-1.5,2.1-3.1,3.2-4.6c1.1-1.5,2.3-3,3.4-4.4s2.4-2.8,3.6-4.2
		c1.3-1.4,2.5-2.7,3.9-4c1.3-1.3,2.7-2.6,4-3.8s2.8-2.5,4.2-3.6c1.4-1.2,2.9-2.3,4.4-3.4c1.5-1.1,3-2.2,4.6-3.2c1.5-1,3.1-2,4.7-3
		c1.6-1,3.2-1.9,4.9-2.8c1.6-0.9,3.3-1.7,5-2.5c1.7-0.8,3.4-1.6,5.1-2.3c1.7-0.7,3.5-1.4,5.2-2c1.8-0.6,3.5-1.2,5.3-1.8
		c1.8-0.5,3.6-1,5.4-1.5c1.8-0.5,3.6-0.9,5.4-1.2c1.8-0.4,3.7-0.7,5.5-1c1.8-0.3,3.7-0.5,5.5-0.7c1.9-0.2,3.7-0.3,5.6-0.4
		C190.3,87.4,192.1,87.3,194,87.3z"/>
	<g>
		<defs>
			<rect id="SVGID_81_" x="2.5" y="35.2" width="345" height="254.2"/>
		</defs>
		<clipPath id="SVGID_1_">
			<use xlink:href="#SVGID_81_"  style="overflow:visible;"/>
		</clipPath>
		<g class="st1">
			<g>
				<defs>
					<rect id="SVGID_83_" x="2.3" y="35.1" width="345.2" height="254.5"/>
				</defs>
				<clipPath id="SVGID_2_">
					<use xlink:href="#SVGID_83_"  style="overflow:visible;"/>
				</clipPath>
				<g class="st2">
					<defs>
						<rect id="SVGID_85_" x="2.5" y="35.2" width="345" height="254.2"/>
					</defs>
					<clipPath id="SVGID_3_">
						<use xlink:href="#SVGID_85_"  style="overflow:visible;"/>
					</clipPath>
					<g class="st3">
						<g>
							<defs>
								<rect id="SVGID_87_" x="2.3" y="35.1" width="345.2" height="254.5"/>
							</defs>
							<clipPath id="SVGID_4_">
								<use xlink:href="#SVGID_87_"  style="overflow:visible;"/>
							</clipPath>
							<path class="st4" d="M221,246.6c-0.7-2.4-2.9-4.1-5.4-4.6c-2.4-0.4-5,0.3-7.1,1.5c-0.1,0-0.2,0.1-0.2,0.2
								c1-4.8-0.4-10.2-4.2-13.2c-4.1-3.2-11-2.6-13.7,1.9c-0.8-2.7-2.3-5.3-4.9-6.3c-2.6-1-6.1,0.7-6.2,3.4c-0.2-4-5-6.9-8.6-5.3
								c0.5-2.3-2.1-4.4-4.4-4.4c-2.4,0-3.6,2-5.5,3.5c-1.6-4.6-3.6-9.6-7.8-12.2c-3.8-2.3-8.9-2-12.5,0.7
								c-3.5,2.7-5.3,7.4-4.5,11.8c-2.8-1.3-6.5,0.9-6.8,3.9c-0.5-1.8-2.4-3.2-4.3-3.1c-1.9,0.1-3.7,1.5-4.1,3.4
								c-0.2,1,0.1,2.4,0.2,3.4c-5.1,0-10,3.4-11.9,8.1c-1.9,4.7-0.7,10.5,2.9,14.1c0.3,0.3,0.6,0.5,1,0.7c-2.3,0.1-4.4,1.9-4.9,4.1
								c-1.6-0.5-3.5-0.4-4.7,0.7c-1.3,1.1-1.1,3,0,4.3c-1.5-0.7-3.4,0.1-4.2,1.5c-0.8,1.4-0.7,3.3,0.2,4.6c0.3,0.5,0.8,1,1.4,1.3
								c1.1,0.6,2.6,0.4,3.7-0.3c1.1-0.7,1.9-1.7,2.8-2.7c0.3,3.7,3.6,6.8,7.3,7.3c3.6,0.5,7.2-1.3,9.4-4.2c0.6,1.4,2,2.4,3.5,2.6
								c1.7,0.2,3.4-0.8,4.2-2.3c2.6,2.9,6.6,4.4,10.5,3.9c3.8-0.5,7.3-3.1,9-6.6c3.4-7.1,14.7-8.3,22.6-8.8
								c7.9-0.5,15.9-0.1,23.7-1.4c7.5-1.2,14.7-4.1,21.7-6.9c0.8-0.3,1.6-0.7,2.2-1.3C221.8,249.1,221.4,247.9,221,246.6"/>
							<g class="st5">
								<g>
									<defs>
										<rect id="SVGID_89_" x="2.3" y="35.1" width="345.2" height="254.5"/>
									</defs>
									<clipPath id="SVGID_5_">
										<use xlink:href="#SVGID_89_"  style="overflow:visible;"/>
									</clipPath>
									<g class="st6">
										<defs>
											<rect id="SVGID_91_" x="98.3" y="231.8" width="56.5" height="43.3"/>
										</defs>
										<clipPath id="SVGID_6_">
											<use xlink:href="#SVGID_91_"  style="overflow:visible;"/>
										</clipPath>
										<g class="st7">
											<g>
												<defs>
													<rect id="SVGID_93_" x="98.3" y="231.8" width="56.5" height="43.4"/>
												</defs>
												<clipPath id="SVGID_7_">
													<use xlink:href="#SVGID_93_"  style="overflow:visible;"/>
												</clipPath>
												<path class="st8" d="M150.7,268.4c0.9-1.9,2.3-3.3,4.1-4.5c-0.2-0.1-0.3-0.1-0.5-0.2c-1.9,2.3-5.3,3.3-8.2,2.4
													c-0.9-0.3-1.8-0.7-2.7-0.7c-0.9,0.1-1.9,0.9-1.6,1.8c-2.9,0.6-6.2-1-7.6-3.7c-0.8,1.7-3.4,2.1-4.6,0.7
													c-0.8-0.9-1-2.2-1.9-2.8c-0.9-0.6-2.1-0.3-3.2-0.4c-2.9-0.2-5-3-5.4-5.8c-0.4-2.8,0.6-5.7,1.8-8.3
													c-3.7,1.1-7.3-3.1-7.1-6.9c0.1-3.5,2.3-5.5,3.7-8.4c-3.9,1-7.3,3.9-8.8,7.6c-1.9,4.7-0.7,10.5,2.9,14.1
													c0.3,0.3,0.6,0.5,1,0.7c-2.3,0.1-4.4,1.9-4.9,4.1c-1.6-0.5-3.5-0.4-4.7,0.7c-1.3,1.1-1.1,3,0,4.3
													c-1.5-0.7-3.4,0.1-4.2,1.5c-0.8,1.4-0.7,3.3,0.2,4.6c0.3,0.5,0.8,1,1.4,1.3c1.1,0.6,2.6,0.4,3.7-0.3
													c1.1-0.7,1.9-1.7,2.8-2.7c0.3,3.7,3.6,6.8,7.3,7.3c3.6,0.5,7.2-1.3,9.4-4.2c0.6,1.4,1.9,2.4,3.5,2.6
													c1.7,0.2,3.4-0.8,4.2-2.3c2.6,2.9,6.6,4.4,10.5,3.9C145.5,274.5,149,271.9,150.7,268.4"/>
											</g>
										</g>
									</g>
								</g>
							</g>
							<g class="st5">
								<g>
									<defs>
										<rect id="SVGID_95_" x="2.3" y="35.1" width="345.2" height="254.5"/>
									</defs>
									<clipPath id="SVGID_8_">
										<use xlink:href="#SVGID_95_"  style="overflow:visible;"/>
									</clipPath>
									<g class="st9">
										<defs>
											<rect id="SVGID_97_" x="185.4" y="230.1" width="36.1" height="29.1"/>
										</defs>
										<clipPath id="SVGID_9_">
											<use xlink:href="#SVGID_97_"  style="overflow:visible;"/>
										</clipPath>
										<g class="st10">
											<g>
												<defs>
													<rect id="SVGID_99_" x="185.3" y="230.1" width="36.3" height="29.2"/>
												</defs>
												<clipPath id="SVGID_10_">
													<use xlink:href="#SVGID_99_"  style="overflow:visible;"/>
												</clipPath>
												<path class="st11" d="M220.9,250.1c0.9-1,0.5-2.1,0.1-3.4c-0.7-2.4-2.9-4.1-5.4-4.6c-2.4-0.4-5,0.3-7.1,1.5
													c-0.1,0-0.2,0.1-0.2,0.2c1-4.8-0.4-10.2-4.2-13.2c-0.2-0.1-0.4-0.3-0.6-0.4c0.7,3.1-0.7,6.8-3.7,7.9
													c2.5,2.9,3.9,7,2.7,10.7c-1.2,3.6-5.5,6.2-9.1,4.7c-2.1,2.6-4.9,4.6-8,5.7c3.9-0.1,7.8-0.3,11.6-0.9
													c7.5-1.2,14.7-4.1,21.7-6.9C219.5,251,220.3,250.7,220.9,250.1"/>
											</g>
										</g>
									</g>
								</g>
							</g>
							<path class="st12" d="M215.6,242c-2.4-0.4-5,0.3-7.1,1.5c-0.1,0-0.2,0.1-0.2,0.2c1-4.8-0.4-10.2-4.2-13.2
								c-2.8-2.2-6.9-2.6-10-1.2c2.4,4.2,1.4,10.2-2.7,13c1.9,2.3,1,6-1.2,8.1c-2.1,2.1-5.1,3-8,3.7c-7.6,2-16,3.7-22.9-0.2
								c-1.7,2.6-5.1,4-8.2,3.3c-1.4-0.3-2.8-1-4.2-0.6c-1,0.3-1.8,1.1-2.8,1.6c-2.3,1.3-5.5,0.7-7.2-1.4c0,2.5-2.7,4.4-5.2,4.2
								c-2.5-0.2-4.6-2.1-5.8-4.3c-1.2-2.2-1.6-4.7-2-7.2c-4.2,1.4-8.8-2.2-10.1-6.4c-1-3.4,0.5-6.9,0.9-10.1
								c-2.6,1.4-4.8,3.7-6,6.5c-1.9,4.7-0.7,10.5,2.9,14.1c0.3,0.3,0.6,0.5,1,0.7c-2.3,0.1-4.4,1.9-4.9,4.1
								c-1.6-0.5-3.5-0.4-4.7,0.7c-1.3,1.1-1.1,3,0,4.3c-1.5-0.7-3.4,0.1-4.2,1.5c-0.8,1.4-0.7,3.3,0.2,4.6c0.3,0.5,0.8,1,1.4,1.3
								c1.1,0.6,2.6,0.4,3.7-0.3c1.1-0.7,2-1.7,2.8-2.7c0.3,3.7,3.6,6.8,7.3,7.3c3.6,0.5,7.2-1.3,9.4-4.2c0.6,1.4,2,2.4,3.5,2.6
								c1.7,0.2,3.4-0.8,4.2-2.3c2.6,2.9,6.6,4.4,10.5,3.9c3.8-0.5,7.3-3.1,9-6.6c3.4-7.1,14.7-8.3,22.6-8.8
								c7.9-0.5,15.9-0.1,23.7-1.4c7.5-1.2,14.7-4.1,21.7-6.9c0.8-0.3,1.6-0.7,2.2-1.3c0.9-1,0.5-2.1,0.1-3.4
								C220.4,244.2,218.1,242.5,215.6,242"/>
							<path class="st13" d="M147.6,241.9c-1.6-2-1.1-5.1,0.2-7.3c2.1-3.5,6.3-5.9,10.3-5.3c4.1,0.6,7.5,4.4,7.2,8.5
								c1.2-1.8,3.6-2.8,5.7-2.4c2.2,0.4,4,2.2,4.5,4.3c1.1-1.5,3.7-1.4,4.9,0.1c1.1,1.5,0.7,3.9-0.8,5.1c-1.5,1.2-3.7,1.3-5.3,0.4
								c-2.9,2.5-7.8,2.5-10.6-0.2c-0.7,2.4-2.7,4.3-5,5.2c-2.3,1-4.9,1.1-7.4,1c-1.5-0.1-3-0.2-4.3-0.9c-1.3-0.7-2.1-1.9-2.3-3.4
								c-2.1,4.5-4.9-0.5-4.6-3.2C140.5,239.4,145,238.6,147.6,241.9"/>
							<path class="st14" d="M259.4,268c0.5-3.2,0.9-6.7-0.5-9.3c-0.9-1.7-2.5-2.9-4.1-3c-1.7-0.1-3.4,1.4-4.4,3
								c0.2-2.7-0.7-5.5-2.4-7.2c-1.7-1.7-4.1-2.3-6.2-1.5c-1.5,0.6-2.6,2.6-2.9,4.5c-0.3-1.8-0.6-3.6-1.4-5.2c-0.8-1.6-2-2.8-3.5-3
								c-1.5-0.2-3.5,1.1-3.7,2.9c-1.2-1.4-2.5-2.9-4.1-3.3c-1.6-0.4-3.7,2.6-3.7,4.7c-1-1.9-2-3.7-3.3-5.2c-1.3-1.5-3-2.6-4.9-2.6
								c-1.4,0-3.3,0.7-3.4,2.5c-1.4-1.7-2.9-3.5-4.8-4.1c-1.9-0.6-4.2,1.1-4.6,3.6c-1.4-1.7-3.4-2.5-5.3-2.1
								c-1.9,0.4-3.7,2-4.5,4.2c0.4,0,0,0.9,0.2,0.4c-1.2-2-3.6-2.8-5.4-1.8c-1.9,1-2.8,3.7-2.4,6.1c-0.9-2-1.8-4.1-3.3-5.6
								c-1.4-1.5-3.4-2.4-5.2-1.7c-0.7,0.3-1.7,0.4-1.2,1.1c-1.1-0.9-2.3-1.5-3.6-1.7c-0.9-0.1-1.8,0-2.6,0.6
								c-0.8,0.6-1.4,1.4-1.3,2.5c-2.8-0.6-5.8,0.3-8.2,2.4c-2.3,2.1-3.8,5.5-4.2,9c-0.1,1-0.4,2.8,0.4,2.3c-1.7-0.6-3.8-0.3-5,1.3
								c-1.2,1.6-1.2,4.6,0.3,5.7L259.4,268z"/>
							<path class="st13" d="M258.8,258.7c-0.9-1.7-2.5-2.9-4.1-3c-1.7-0.1-3.4,1.4-4.4,3c0.2-2.7-0.7-5.5-2.4-7.2
								c-0.8-0.8-1.7-1.3-2.7-1.6c0,0.1-0.1,0.1-0.1,0.2c-1.2,2.1-3.3,3.7-5.5,4.6c-1.8,0.7-3.8,1.1-5.7,0.7
								c-1.9-0.4-3.6-1.8-4.1-3.7c-2.1,3-7.1,3.3-9.6,0.7c-2.3,1.5-5.2,1.6-7.9,1.7c-1.8,0.1-3.7,0.1-5.5,0.2
								c-2.6,0.1-5.8-0.3-6.6-2.8c-2.1,2.7-7.1,2.4-8.9-0.5c-2.5,4-9.2,4.2-12,0.4c-0.6,1.9-2.8,2.9-4.7,2.7
								c-1.9-0.2-3.6-1.5-4.8-3.1c-2.1-2.8-1.1-4.8-0.4-7c-0.5,0.1-0.9,0.2-1.3,0.5c-0.8,0.6-1.4,1.4-1.3,2.5
								c-2.8-0.6-5.8,0.3-8.2,2.4c-2.3,2.1-3.8,5.5-4.2,9c-0.1,0.7-0.2,1.8,0,2.2c-1.6-0.4-3.4,0-4.6,1.4c-1.2,1.6-1.2,4.6,0.3,5.7
								l109.2,0.5C259.8,264.9,260.2,261.4,258.8,258.7"/>
							<path class="st4" d="M169.5,255.7c-3.8-0.4-7.1-3.7-7.5-7.5c0-0.3,0-0.7,0-1c-1.2,0.4-2.3,1.1-3.3,2c-2.3,2.1-3.8,5.5-4.2,9
								c-0.1,0.7-0.2,1.8,0,2.2c-1.6-0.4-3.4,0-4.6,1.4c-1.2,1.6-1.2,4.6,0.3,5.7l22.1,0.1C177.2,263.9,168.9,260.9,169.5,255.7"/>
							<path class="st13" d="M175.7,264.4c1.3-3,5.3-4.5,8.2-3c1.4-2.9,5.4-4.3,8.3-2.8c0.5,0.3,1,0.6,1.6,0.7
								c1,0.1,1.8-0.6,2.6-1.2c2.7-2.1,7.3-2.6,9.2,0.3c1.4-2.7,5.8-3,7.6-0.6c1.2-2.7,5.5-3.1,7.2-0.7c2.3-2.3,6.8-1.4,8.1,1.5
								c2.3-1.6,6,0.3,6.2,3c2.3-1.4,5.5-0.1,6.9,2.2c1.4,2.3,1.5,5.1,1.3,7.8c-1.7-0.9-3.9-0.7-5.8-0.4
								c-10.9,1.8-21.7,4.4-32.7,5.4c-11,1-22.5,0.2-32.4-4.6c-2.5-1.2-6.5-2.7-4-5.8C169,265,175.9,263.9,175.7,264.4"/>
							<path class="st4" d="M241.6,263.8c-1.4-2.3-4.6-3.6-6.9-2.2c-0.2-2.8-3.9-4.6-6.2-3c-0.2-0.5-0.6-0.9-0.9-1.3
								c-0.3,0.3-0.7,0.5-1.1,0.6c1.5,2,0.5,5.1-1.6,6.4c-2.1,1.3-4.9,1.1-7.2,0.3c-2.2,1.6-5.6,1-7.2-1.2c-2.4,1.9-6.1,1.8-8.4-0.3
								c-0.5,1.5-2.4,2.1-3.9,1.8c-1.5-0.3-2.8-1.4-4-2.4c0,1.9-2.3,3.2-4.1,2.7s-3.1-2.2-3.7-4c-0.3-1-0.2-1.8,0-2.5
								c-1.1,0.6-2,1.5-2.5,2.6c-2.9-1.5-6.9,0-8.2,3c0.2-0.4-6.7,0.6-7.8,1.9c-2.5,3.1,1.5,4.6,4,5.8c10,4.8,21.4,5.6,32.4,4.6
								c4.5-0.4,9-1.1,13.5-1.9c6.3-1.5,12.6-3.1,18.9-4.9c2.1-0.6,4.4-1.3,6-2.7C242.6,266,242.2,264.9,241.6,263.8"/>
							<path class="st15" d="M265.2,268.3c-0.3-0.6-0.3-1.5-0.5-2.2c-0.2-0.7-0.5-1.5-1.1-1.8c-0.6-0.3-1.1,0-1.1,0.7
								c-0.7-1.6-1.6-3.3-3.1-3.7c-1.4-0.4-2.9,0.6-4,1.7c-0.8,0.8-1.5,1.7-1.9,2.8c-0.1,0.1-0.1,0.3-0.2,0.5
								c-0.7-2.6-1.8-5.1-3.8-6.1c-2-1.1-4.4-0.3-6.2,1.1c-1.8,1.4-3.3,3.7-3.2,6.2c-0.8-1.5-2-2.9-3.4-3.3
								c-1.4-0.4-3.2,0.8-3.3,2.7c-0.7-2.2-2-4.4-3.8-5.1c-1.9-0.7-4.7,0.7-4.6,3.1c-1.4-3.3-4.8-4.7-7.8-4c-3,0.7-5.4,3.2-7.4,6
								c-0.6,0.9-1.2,1.8-1.4,2.9c-0.1,0.4-0.1,0.8-0.1,1.2c-1-1.7-2.5-3-4.1-3.5c-2.2-0.6-4.7,0.2-6.4,2.2c-0.6-2.4-3.1-3.5-5-2.5
								c-1.9,1-3.1,3.1-3.5,5.5c-2.2-2.9-4.9-5.2-7.9-6.7c-1.5-0.7-3.2-1.2-4.8-1c-1.6,0.2-3.3,1.3-4,3.1c-0.2-1.3-0.5-2.5-1.2-3.5
								c-1-1.5-2.5-2.2-4.1-2.4c-1.5-0.2-2.9,0.8-4.5,1.2c-0.9-1.3-1.8-2.6-2.9-3.5c-1.1-1-2.5-1.6-3.9-1.4
								c-1.4,0.2-2.6,1.2-3.6,2.3c-0.8,0.8-1.5,1.7-1.9,2.8c-1,0.3-2.5-0.3-3.6-0.3c-2,0-4,1.9-4.2,4.4c-0.2,2.5,1.6,4.9,3.6,4.6
								c2.5,5.3,8.5,8,13.3,6.3c1.3-0.5,2.7-1.6,2.8-3.2c0.1,3.7,2.9,6.8,5.8,7.6c3.1,0.9,6.3,0,9.4-0.9c0.3,2.2,1.9,3.8,3.6,4.6
								c1.7,0.8,3.6,0.5,5.1-0.8c0.2-0.2,0.5-0.5,0.8-0.5c0.5-0.1,1,0.3,1.4,0.7c2.9,2.7,6.8,3.5,10.4,3.1c3.6-0.4,7.2-1.9,10.6-3.4
								c2.1,2.5,5.6,3.7,8.4,2.8c2.8-0.9,5.3-2.9,7.7-5c1.3-1.1,2.6-2.2,3.1-4c3.5,3.5,9,3.7,12.7,0.4c2.4,3.4,6.4,4.5,10,3.6
								c3.6-0.9,6.7-3.7,9.2-7c0.5,0.4,1.4-0.3,1.9-0.7c0.5-0.4,0.9-1.1,1.2-1.7C264.8,272.5,265.3,270.4,265.2,268.3"/>
							<g class="st5">
								<g>
									<defs>
										<rect id="SVGID_101_" x="2.3" y="35.1" width="345.2" height="254.5"/>
									</defs>
									<clipPath id="SVGID_11_">
										<use xlink:href="#SVGID_101_"  style="overflow:visible;"/>
									</clipPath>
									<g class="st16">
										<defs>
											<rect id="SVGID_103_" x="142.9" y="263.5" width="122.3" height="25.9"/>
										</defs>
										<clipPath id="SVGID_12_">
											<use xlink:href="#SVGID_103_"  style="overflow:visible;"/>
										</clipPath>
										<g class="st17">
											<g>
												<defs>
													<rect id="SVGID_105_" x="142.8" y="263.4" width="122.6" height="26.2"/>
												</defs>
												<clipPath id="SVGID_13_">
													<use xlink:href="#SVGID_105_"  style="overflow:visible;"/>
												</clipPath>
												<path class="st18" d="M262.8,276.1c0.5-0.4,0.9-1.1,1.2-1.7c0.9-1.8,1.3-4,1.3-6.1c-0.3-0.6-0.3-1.5-0.5-2.2
													c0-0.1-0.1-0.2-0.1-0.3c-0.8,1.6-1.9,3.1-3.3,4.3c-1.6,1.4-3.6,2.4-5.7,2c-0.6-0.1-1.3-0.4-1.9-0.3
													c-0.8,0.1-1.3,0.8-1.9,1.4c-3.6,3.7-10.2,3.9-14,0.3c-2.3,3.5-8.4,3.2-10.4-0.5c-0.3,2.2-0.9,4.4-2.4,6
													c-1.6,1.5-4.4,2-5.9,0.4c-2.2,3.3-8.1,2.8-9.6-0.8c-0.9,2.5-3.5,4.4-6.2,4.5c-2.7,0.1-5.4-1.5-6.6-4
													c-2.4,2.2-5.9,3.2-9.1,2.6c-3.2-0.6-6.1-2.8-7.5-5.7c-1.5,1.9-4.1,2.9-6.4,2.5c-2.4-0.4-4.5-2.2-5.2-4.5
													c-3,1.7-7.4,0.5-9.1-2.5c-2.8,1.3-6.5,0.5-8.4-2c-1-1.3-0.9-3.6-0.9-5.7c-1,0-2.1-0.3-3-0.4c-2,0-4,1.9-4.2,4.4
													c-0.2,2.5,1.6,4.9,3.6,4.6c2.5,5.3,8.5,8,13.3,6.3c1.3-0.5,2.7-1.6,2.8-3.2c0.1,3.7,2.9,6.8,5.9,7.6
													c3.1,0.9,6.3,0,9.4-0.9c0.3,2.2,1.9,3.8,3.6,4.6c1.7,0.8,3.6,0.5,5.1-0.8c0.2-0.2,0.5-0.5,0.8-0.5
													c0.5-0.1,1,0.3,1.4,0.7c2.9,2.7,6.8,3.5,10.4,3.1c3.6-0.4,7.2-1.9,10.6-3.4c2.1,2.5,5.6,3.7,8.4,2.8
													c2.8-0.9,5.3-2.9,7.7-5c1.3-1.1,2.6-2.2,3.1-4c3.5,3.5,9,3.7,12.7,0.4c2.4,3.4,6.4,4.5,10,3.6c3.6-0.9,6.7-3.7,9.2-7
													C261.4,277.2,262.2,276.5,262.8,276.1"/>
											</g>
										</g>
									</g>
								</g>
							</g>
							<path class="st19" d="M214.1,266.2C214.1,266.3,214.1,266.3,214.1,266.2c-1.8,2-2.6,5.2-1.1,7.4c3.5,5.1,14.6-2.8,10.7-7.9
								C221.4,262.7,216.5,263.7,214.1,266.2"/>
							<path class="st20" d="M219.8,273.7c0,0,0.1-0.1,0.2-0.1C220,273.6,219.9,273.6,219.8,273.7
								C219.9,273.6,219.9,273.7,219.8,273.7"/>
							<path class="st19" d="M227.4,266.7c-1,1.1-1,2.6-0.2,3.7c0.9,1.4,2.7,2,4.1,1c1.5-1.1,1.7-3.6,0.4-4.9
								C230.6,265.3,228.5,265.4,227.4,266.7"/>
							<path class="st19" d="M250.8,264.9c-1.8-2.5-6.9-3-8,1.5c-1.2,4.7,4.4,7.1,7.4,3.5C251.8,268,251.7,266.2,250.8,264.9"/>
							<path class="st19" d="M193.6,270.2c-1.9-0.1-3.5,1.7-3.3,3.5c0.2,1.5,1.3,2.6,2.8,2.8c1.6,0.1,3-0.9,3.4-2.4
								C197,272.1,195.6,270.3,193.6,270.2"/>
							<path class="st19" d="M178.5,266.5c-2.5-0.8-5.3,0.8-5.7,3.4c-0.1,1.1,0.1,2.2,1,2.9c1.2,1,2.7,0.7,4.1,0.5l-0.2,0
								c1.6-0.3,3-1.2,3.3-3C181.3,268.7,180.1,267,178.5,266.5"/>
							<path class="st19" d="M183.9,272.5c-2.7,0.9-1.8,5.1,1.1,4.6C188.1,276.6,186.8,271.5,183.9,272.5"/>
							<path class="st19" d="M204.5,275.5c-1.2-0.7-2.6-0.4-3.2,0.9c-0.5,1.2-0.1,2.5,1,3.1C204.9,281,207,276.8,204.5,275.5"/>
							<path class="st19" d="M201.8,282.2c-2.2-1.3-4.3,2-2,3.2C201.8,286.4,203.8,283.4,201.8,282.2"/>
							<path class="st19" d="M217.3,279.2c-2.4-1.4-4.9,2-2.5,3.6C217.1,284.3,220,280.8,217.3,279.2"/>
							<g class="st21">
								<g>
									<defs>
										<rect id="SVGID_107_" x="2.3" y="35.1" width="345.2" height="254.5"/>
									</defs>
									<clipPath id="SVGID_14_">
										<use xlink:href="#SVGID_107_"  style="overflow:visible;"/>
									</clipPath>
									<g class="st22">
										<defs>
											<rect id="SVGID_109_" x="56.7" y="94.4" width="97" height="97"/>
										</defs>
										<clipPath id="SVGID_15_">
											<use xlink:href="#SVGID_109_"  style="overflow:visible;"/>
										</clipPath>
										<g class="st23">
											<g>
												<defs>
													<rect id="SVGID_111_" x="56.6" y="94.4" width="97.3" height="97.1"/>
												</defs>
												<clipPath id="SVGID_16_">
													<use xlink:href="#SVGID_111_"  style="overflow:visible;"/>
												</clipPath>
												<path class="st24" d="M153.7,143c0,26.8-21.7,48.5-48.5,48.5c-26.8,0-48.5-21.7-48.5-48.5c0-26.8,21.7-48.5,48.5-48.5
													C132,94.4,153.7,116.2,153.7,143"/>
											</g>
										</g>
									</g>
								</g>
							</g>
							<path class="st25" d="M199.7,214.5c0,0-5.6,6-2.4,10.2c3.3,4.3,10.4,3.8,10.4,3.8L199.7,214.5z"/>
							<path class="st26" d="M187.8,217c-2.4,3.3-2.8,7.3-2.2,11.2c0.4,2.7,1.5,5.2,2.2,7.8c1.3,4.7,1.4,9.2,1.5,14
								c0,0.6,0.9,0.7,1,0.1c1.6-5.6,1.6-11.5,0.9-17.2c-0.4-3.1-1.1-6.3-1.1-9.4c0.1-6.7,5.2-10,10.6-5.9c0.2,0.1,0.3-0.1,0.3-0.2
								C199.9,210.4,190.8,212.9,187.8,217"/>
							<path class="st27" d="M199.7,214.5c0,0-3.6,9.1,4.7,11.8c8.3,2.7,9.6-2.5,9.6-2.5s-6.4,0.4-7.5-3.1
								C205.3,217.3,205.7,215.6,199.7,214.5"/>
							<path class="st27" d="M191.4,216c-2.6-0.1-4,2-4.7,4.3c-1,3.2,0.4,6.3,1,9.4c0,0.1,0.1,0.1,0.1,0c-0.1-2.7,0.4-5.3,1.2-7.9
								c0.6-2,1.8-3.7,2.5-5.7C191.6,216,191.5,216,191.4,216"/>
							<path class="st27" d="M188.6,231.4c-0.1-0.1-0.3,0-0.4,0.1c-0.7,1.1-0.1,2.4,0.6,3.3c0.2,0.2,0.5,0.1,0.6-0.1
								C189.7,233.6,189.7,232.1,188.6,231.4"/>
							<g class="st5">
								<g>
									<defs>
										<rect id="SVGID_113_" x="2.3" y="35.1" width="345.2" height="254.5"/>
									</defs>
									<clipPath id="SVGID_17_">
										<use xlink:href="#SVGID_113_"  style="overflow:visible;"/>
									</clipPath>
									<g class="st28">
										<defs>
											<rect id="SVGID_115_" x="2.5" y="35.2" width="247.8" height="214.4"/>
										</defs>
										<clipPath id="SVGID_18_">
											<use xlink:href="#SVGID_115_"  style="overflow:visible;"/>
										</clipPath>
										<g class="st29">
											<g>
												<defs>
													<rect id="SVGID_117_" x="2.3" y="35.1" width="248.1" height="214.6"/>
												</defs>
												<clipPath id="SVGID_19_">
													<use xlink:href="#SVGID_117_"  style="overflow:visible;"/>
												</clipPath>
												<path class="st30" d="M249.6,214.8l-133.7-69.9l84.8,25.2c0.1,0,0.3,0.1,0.4,0.1c0.6,0,1.1-0.4,1.3-1
													c0.2-0.7-0.2-1.5-0.9-1.7l-77-22.9c35.3,0.6,72.2,1.3,99.6,1.9h0c0.7,0,1.3-0.6,1.3-1.3c0-0.7-0.6-1.4-1.3-1.4
													c-27-0.5-69.4-1.4-109.3-2.1l-2.8-0.8c-0.1-0.1-0.1-0.2-0.2-0.4l89.6-28.9c0.7-0.2,1.1-1,0.9-1.7
													c-0.2-0.7-1-1.1-1.7-0.9l-89.8,28.9c-0.3-0.8-0.6-1.5-1-2.3l108.5-74.9c0.6-0.4,0.8-1.3,0.3-1.9
													c-0.4-0.6-1.3-0.8-1.9-0.3l-106,73.2l42-67.9c0.4-0.6,0.2-1.5-0.4-1.8c-0.6-0.4-1.5-0.2-1.8,0.4l-41.1,66.3l23.2-92
													c0.2-0.7-0.3-1.4-1-1.6c-0.7-0.2-1.5,0.3-1.6,1l-22.3,88.5l-1.3-55.4c0-0.7-0.6-1.3-1.3-1.3l0,0c-0.7,0-1.3,0.6-1.3,1.4
													l1.3,55.2C87.2,82,72.2,46,71.6,43.8c-0.1-0.7-0.8-1.2-1.6-1.1c-0.7,0.1-1.2,0.8-1.1,1.6c0.3,1.8,17.8,43.7,36.3,87.6
													l0,1.8c-23.9-26-43-46.7-44-48c-0.4-0.6-1.3-0.8-1.9-0.3c-0.6,0.4-0.8,1.3-0.3,1.9c0.9,1.2,21.3,23.5,45,49.2l-1.9,1.3
													l-63.5-33.2c-0.7-0.3-1.5-0.1-1.8,0.6c-0.3,0.7-0.1,1.5,0.6,1.8L90,134.4l-58.9-17.5c-0.7-0.2-1.5,0.2-1.7,0.9
													c-0.2,0.7,0.2,1.5,0.9,1.7l68.8,20.5l-2.2,1.6c-45.6-0.8-83.8-1.3-84.8-0.9c-0.7,0.3-1,1-0.8,1.7c0.2,0.6,0.9,1,1.6,0.8
													c2.4-0.3,36.6,0.2,79.3,1L3.4,172.6c-0.7,0.2-1.1,1-0.9,1.7c0.2,0.6,0.7,0.9,1.3,0.9c0.1,0,0.3,0,0.4-0.1l82-26.4
													l-74.5,51.4c-0.6,0.4-0.8,1.3-0.3,1.9c0.3,0.4,0.7,0.6,1.1,0.6c0.3,0,0.5-0.1,0.8-0.2l81.8-56.5l4.7-1.5l-48.2,77.8
													c-0.4,0.6-0.2,1.5,0.4,1.8c0.2,0.1,0.5,0.2,0.7,0.2c0.4,0,0.9-0.2,1.1-0.6l48.7-78.5l-19.6,77.5c-0.2,0.7,0.3,1.4,1,1.6
													c0.1,0,0.2,0,0.3,0c0.6,0,1.1-0.4,1.3-1l19.8-78.7l2.4,103.8c0,0.7,0.6,1.3,1.3,1.3h0c0.7,0,1.3-0.6,1.3-1.4l-2.4-103.9
													l0.8,0l1.9,1c16.8,40,33.1,78.5,36.7,87c0.2,0.5,0.7,0.8,1.2,0.8c0.2,0,0.4,0,0.5-0.1c0.7-0.3,1-1.1,0.7-1.8
													c-9.7-22.9-22.5-53.3-35-83c29.8,32.3,61,66,63.4,68.6c0.3,0.3,0.6,0.4,1,0.4c0.3,0,0.7-0.1,0.9-0.4
													c0.5-0.5,0.6-1.4,0.1-1.9c-16.4-17.7-38.8-41.9-59.7-64.6l127.5,66.7c0.2,0.1,0.4,0.2,0.6,0.2c0.5,0,1-0.3,1.2-0.7
													C250.5,215.9,250.2,215.1,249.6,214.8"/>
											</g>
										</g>
									</g>
								</g>
							</g>
							<path class="st26" d="M144.8,143c0,21.9-17.7,39.6-39.6,39.6c-21.9,0-39.6-17.7-39.6-39.6c0-21.9,17.7-39.6,39.6-39.6
								C127.1,103.3,144.8,121.1,144.8,143"/>
							<path class="st27" d="M93.3,110.7c-3.8,2.3-4.7,9.2,0,11.3c6.3,2.8,13.3,2.4,19.6,5.3c6,2.7,7,7.3,9.4,12.9
								c2.9,6.7,14.9,5.1,16.1-2.1C141.8,116.3,111.1,100,93.3,110.7"/>
							<path class="st27" d="M134.7,154.5c-1.9-3.2-7-5.2-10.3-2.7c-2.4,1.8-4.1,4.1-5.7,6.6c-0.5,0.8-1.1,1.5-1.6,2.3
								c-1.2,1.8-1.4,3.6-1.6,5.7c-0.3,3.2,2.5,6.3,5.4,7.1C130.7,176.3,139.8,163.1,134.7,154.5"/>
							<g class="st5">
								<g>
									<defs>
										<rect id="SVGID_119_" x="2.3" y="35.1" width="345.2" height="254.5"/>
									</defs>
									<clipPath id="SVGID_20_">
										<use xlink:href="#SVGID_119_"  style="overflow:visible;"/>
									</clipPath>
									<g class="st31">
										<defs>
											<rect id="SVGID_121_" x="65.6" y="104.4" width="68.7" height="78.2"/>
										</defs>
										<clipPath id="SVGID_21_">
											<use xlink:href="#SVGID_121_"  style="overflow:visible;"/>
										</clipPath>
										<g class="st32">
											<g>
												<defs>
													<rect id="SVGID_123_" x="65.6" y="104.3" width="68.9" height="78.4"/>
												</defs>
												<clipPath id="SVGID_22_">
													<use xlink:href="#SVGID_123_"  style="overflow:visible;"/>
												</clipPath>
												<path class="st33" d="M134.3,169.9c-0.5,0.2-1,0.4-1.5,0.5c-15,4.5-32.5-1.3-41.8-13.8c-9.4-12.5-9.9-31-1.3-44
													c1.9-3,5-5.4,6.5-8.2c-17.5,4.1-30.5,19.8-30.5,38.5c0,21.9,17.7,39.6,39.6,39.6C116.7,182.6,127,177.7,134.3,169.9"/>
											</g>
										</g>
									</g>
								</g>
							</g>
							<path class="st12" d="M206.3,201c0,0,0.4,4.7,4.7,4.7l0.8-3.7l-1.8-1.1L206.3,201z"/>
							<path class="st12" d="M307.5,158.7c0,0-17.4,1.6-33,23.4s23.8,8.3,23.8,8.3L307.5,158.7z"/>
							<g class="st5">
								<g>
									<defs>
										<rect id="SVGID_125_" x="2.3" y="35.1" width="345.2" height="254.5"/>
									</defs>
									<clipPath id="SVGID_23_">
										<use xlink:href="#SVGID_125_"  style="overflow:visible;"/>
									</clipPath>
									<g class="st34">
										<defs>
											<rect id="SVGID_127_" x="272.3" y="160.5" width="36.6" height="35.8"/>
										</defs>
										<clipPath id="SVGID_24_">
											<use xlink:href="#SVGID_127_"  style="overflow:visible;"/>
										</clipPath>
										<g class="st35">
											<g>
												<defs>
													<rect id="SVGID_129_" x="272.3" y="160.5" width="36.7" height="35.9"/>
												</defs>
												<clipPath id="SVGID_25_">
													<use xlink:href="#SVGID_129_"  style="overflow:visible;"/>
												</clipPath>
												<path class="st36" d="M308.9,160.5c0,0-17.4,1.6-33,23.4c-15.6,21.8,23.8,8.3,23.8,8.3L308.9,160.5z"/>
											</g>
										</g>
									</g>
								</g>
							</g>
							<path class="st15" d="M274.6,182.1c0,0-13.5-27.9-1.5-37.3c11-8.6,34.4,13.9,34.4,13.9C295.4,181.2,274.6,182.1,274.6,182.1
								 M267.1,141.8c-18.6,23.2,18.7,86.8,18.7,86.8s37.6-9.7,61.7-48.3C347.5,180.3,285.7,118.6,267.1,141.8"/>
							<g class="st5">
								<g>
									<defs>
										<rect id="SVGID_131_" x="2.3" y="35.1" width="345.2" height="254.5"/>
									</defs>
									<clipPath id="SVGID_26_">
										<use xlink:href="#SVGID_131_"  style="overflow:visible;"/>
									</clipPath>
									<g class="st37">
										<defs>
											<rect id="SVGID_133_" x="267.1" y="136.6" width="80.4" height="68.1"/>
										</defs>
										<clipPath id="SVGID_27_">
											<use xlink:href="#SVGID_133_"  style="overflow:visible;"/>
										</clipPath>
										<g class="st38">
											<g>
												<defs>
													<rect id="SVGID_135_" x="267.1" y="136.5" width="80.5" height="68.3"/>
												</defs>
												<clipPath id="SVGID_28_">
													<use xlink:href="#SVGID_135_"  style="overflow:visible;"/>
												</clipPath>
												<path class="st39" d="M267.1,141.8c0,0,14.9-8.7,33.9,6.4c15.7,12.5,32.8,37.1,26,56.5c7.1-6.4,14.2-14.4,20.4-24.4
													C347.5,180.3,285.7,118.6,267.1,141.8"/>
											</g>
										</g>
									</g>
								</g>
							</g>
							<g class="st5">
								<g>
									<defs>
										<rect id="SVGID_137_" x="2.3" y="35.1" width="345.2" height="254.5"/>
									</defs>
									<clipPath id="SVGID_29_">
										<use xlink:href="#SVGID_137_"  style="overflow:visible;"/>
									</clipPath>
									<g class="st40">
										<defs>
											<rect id="SVGID_139_" x="261.9" y="157.3" width="85.6" height="71.2"/>
										</defs>
										<clipPath id="SVGID_30_">
											<use xlink:href="#SVGID_139_"  style="overflow:visible;"/>
										</clipPath>
										<g class="st41">
											<g>
												<defs>
													<rect id="SVGID_141_" x="261.8" y="157.3" width="85.7" height="71.3"/>
												</defs>
												<clipPath id="SVGID_31_">
													<use xlink:href="#SVGID_141_"  style="overflow:visible;"/>
												</clipPath>
												<path class="st42" d="M336.4,170c-3.5,25.5-26.6,56-43.1,50.1c-23.4-8.3-31.3-61.8-31.3-62.8
													c-1.4,28.2,23.8,71.2,23.8,71.2s37.6-9.7,61.7-48.3C347.5,180.3,343.2,176,336.4,170"/>
											</g>
										</g>
									</g>
								</g>
							</g>
							<path class="st15" d="M271.4,200c-33.9-18.2-65.1,1-65.1,1s3.1,0.5,4.7,4.7c36-13.7,74.8,22.9,74.8,22.9
								C283.9,203.1,271.4,200,271.4,200"/>
							<g class="st5">
								<g>
									<defs>
										<rect id="SVGID_143_" x="2.3" y="35.1" width="345.2" height="254.5"/>
									</defs>
									<clipPath id="SVGID_32_">
										<use xlink:href="#SVGID_143_"  style="overflow:visible;"/>
									</clipPath>
									<g class="st43">
										<defs>
											<rect id="SVGID_145_" x="206.3" y="192.2" width="79.5" height="36.4"/>
										</defs>
										<clipPath id="SVGID_33_">
											<use xlink:href="#SVGID_145_"  style="overflow:visible;"/>
										</clipPath>
										<g class="st44">
											<g>
												<defs>
													<rect id="SVGID_147_" x="206.1" y="192.1" width="79.9" height="36.5"/>
												</defs>
												<clipPath id="SVGID_34_">
													<use xlink:href="#SVGID_147_"  style="overflow:visible;"/>
												</clipPath>
												<path class="st45" d="M271.4,200c-33.9-18.2-65.1,1-65.1,1s0.4,0.1,0.9,0.3c14-6.9,32.3-10.6,46-6.1
													c20.3,6.6,21.2,16.9,21.2,16.9c-45.7-20.7-63.4-6.4-63.4-6.4c36-13.7,74.8,22.9,74.8,22.9
													C283.9,203.1,271.4,200,271.4,200"/>
											</g>
										</g>
									</g>
								</g>
							</g>
							<g class="st5">
								<g>
									<defs>
										<rect id="SVGID_149_" x="2.3" y="35.1" width="345.2" height="254.5"/>
									</defs>
									<clipPath id="SVGID_35_">
										<use xlink:href="#SVGID_149_"  style="overflow:visible;"/>
									</clipPath>
									<g class="st46">
										<defs>
											<rect id="SVGID_151_" x="286.3" y="174.8" width="31.1" height="44"/>
										</defs>
										<clipPath id="SVGID_36_">
											<use xlink:href="#SVGID_151_"  style="overflow:visible;"/>
										</clipPath>
										<g class="st47">
											<g>
												<defs>
													<rect id="SVGID_153_" x="286.2" y="174.7" width="31.4" height="44.2"/>
												</defs>
												<clipPath id="SVGID_37_">
													<use xlink:href="#SVGID_153_"  style="overflow:visible;"/>
												</clipPath>
												<path class="st48" d="M293.5,174.8c-2.5,1.7-4.9,3.1-7.2,4.1c1.3,5.8,6.5,25.4,21.4,39.9c3.1-1.8,6.3-3.9,9.6-6.3
													C308.5,203.5,298.3,190.4,293.5,174.8"/>
											</g>
										</g>
									</g>
								</g>
							</g>
							<g class="st5">
								<g>
									<defs>
										<rect id="SVGID_155_" x="2.3" y="35.1" width="345.2" height="254.5"/>
									</defs>
									<clipPath id="SVGID_38_">
										<use xlink:href="#SVGID_155_"  style="overflow:visible;"/>
									</clipPath>
									<g class="st49">
										<defs>
											<rect id="SVGID_157_" x="266" y="144.8" width="8.6" height="37.3"/>
										</defs>
										<clipPath id="SVGID_39_">
											<use xlink:href="#SVGID_157_"  style="overflow:visible;"/>
										</clipPath>
										<g class="st50">
											<g>
												<defs>
													<rect id="SVGID_159_" x="266" y="144.8" width="8.8" height="37.4"/>
												</defs>
												<clipPath id="SVGID_40_">
													<use xlink:href="#SVGID_159_"  style="overflow:visible;"/>
												</clipPath>
												<path class="st51" d="M273.1,144.8c-9,3.4-7.9,15.9-4.9,27.2c3,11.2,6.4,10.1,6.4,10.1S261,154.2,273.1,144.8"/>
											</g>
										</g>
									</g>
								</g>
							</g>
							<path class="st15" d="M203.6,205.7c0,0-15.5,4.6-11.4,7.4C196.2,215.8,203.6,205.7,203.6,205.7"/>
							<path class="st15" d="M202,229.7c0,0-1.2,12.1-4.7,11.7C193.9,240.9,202,229.7,202,229.7"/>
							<path class="st15" d="M179.5,231.4c0,0-11.3,7.4-7.6,13.1C175.6,250.2,179.5,231.4,179.5,231.4"/>
						</g>
					</g>
				</g>
			</g>
		</g>
	</g>
</g>
</svg>
