<?xml version="1.0" encoding="utf-8"?>
<!-- Generator: Adobe Illustrator 21.0.0, SVG Export Plug-In . SVG Version: 6.00 Build 0)  -->
<svg version="1.1" id="Layer_1" xmlns="http://www.w3.org/2000/svg" xmlns:xlink="http://www.w3.org/1999/xlink" x="0px" y="0px"
	 viewBox="0 0 350 350" style="enable-background:new 0 0 350 350;" xml:space="preserve">
<style type="text/css">
	.st0{fill:#0959B5;}
	.st1{clip-path:url(#SVGID_1_);enable-background:new    ;}
	.st2{clip-path:url(#SVGID_2_);}
	.st3{clip-path:url(#SVGID_3_);enable-background:new    ;}
	.st4{clip-path:url(#SVGID_4_);fill:#3C96D3;}
	.st5{opacity:0.2;clip-path:url(#SVGID_4_);enable-background:new    ;}
	.st6{clip-path:url(#SVGID_5_);}
	.st7{clip-path:url(#SVGID_6_);enable-background:new    ;}
	.st8{clip-path:url(#SVGID_7_);}
	.st9{clip-path:url(#SVGID_8_);}
	.st10{clip-path:url(#SVGID_9_);enable-background:new    ;}
	.st11{clip-path:url(#SVGID_10_);}
	.st12{clip-path:url(#SVGID_4_);fill:#3682C1;}
	.st13{clip-path:url(#SVGID_4_);fill:#287FAF;}
	.st14{clip-path:url(#SVGID_4_);fill:#26779B;}
	.st15{clip-path:url(#SVGID_4_);fill:#87BFFF;}
	.st16{clip-path:url(#SVGID_11_);}
	.st17{clip-path:url(#SVGID_12_);enable-background:new    ;}
	.st18{clip-path:url(#SVGID_13_);}
	.st19{clip-path:url(#SVGID_4_);fill:#65A8EA;}
	.st20{clip-path:url(#SVGID_4_);fill:#603526;}
	.st21{clip-path:url(#SVGID_4_);fill:#E5D100;}
	.st22{clip-path:url(#SVGID_14_);}
	.st23{clip-path:url(#SVGID_15_);enable-background:new    ;}
	.st24{clip-path:url(#SVGID_16_);}
	.st25{clip-path:url(#SVGID_4_);fill:#BFA800;}
	.st26{clip-path:url(#SVGID_4_);fill:#FFE422;}
</style>
<g>
	<path class="st0" d="M175,2.5c2.8,0,5.6,0.1,8.5,0.2c2.8,0.1,5.6,0.3,8.4,0.6c2.8,0.3,5.6,0.6,8.4,1c2.8,0.4,5.6,0.9,8.3,1.4
		c2.8,0.6,5.5,1.2,8.3,1.9s5.5,1.4,8.2,2.3c2.7,0.8,5.4,1.7,8,2.7c2.7,1,5.3,2,7.9,3c2.6,1.1,5.2,2.2,7.7,3.4
		c2.6,1.2,5.1,2.5,7.6,3.8c2.5,1.3,4.9,2.7,7.4,4.2c2.4,1.5,4.8,3,7.2,4.5c2.3,1.6,4.7,3.2,6.9,4.9c2.3,1.7,4.5,3.4,6.7,5.2
		s4.3,3.6,6.4,5.5c2.1,1.9,4.1,3.8,6.1,5.8c2,2,3.9,4,5.8,6.1c1.9,2.1,3.7,4.2,5.5,6.4c1.8,2.2,3.5,4.4,5.2,6.7
		c1.7,2.3,3.3,4.6,4.9,6.9c1.6,2.3,3.1,4.7,4.5,7.2c1.5,2.4,2.8,4.9,4.2,7.4c1.3,2.5,2.6,5,3.8,7.6c1.2,2.6,2.4,5.1,3.4,7.7
		s2.1,5.2,3,7.9c1,2.7,1.8,5.3,2.7,8c0.8,2.7,1.6,5.4,2.3,8.2c0.7,2.7,1.3,5.5,1.9,8.3c0.6,2.8,1,5.5,1.4,8.3c0.4,2.8,0.8,5.6,1,8.4
		c0.3,2.8,0.5,5.6,0.6,8.4c0.1,2.8,0.2,5.6,0.2,8.5c0,2.8-0.1,5.6-0.2,8.5c-0.1,2.8-0.3,5.6-0.6,8.4c-0.3,2.8-0.6,5.6-1,8.4
		c-0.4,2.8-0.9,5.6-1.4,8.3c-0.6,2.8-1.2,5.5-1.9,8.3c-0.7,2.7-1.4,5.5-2.3,8.2c-0.8,2.7-1.7,5.4-2.7,8c-1,2.7-2,5.3-3,7.9
		c-1.1,2.6-2.2,5.2-3.4,7.7c-1.2,2.6-2.5,5.1-3.8,7.6c-1.3,2.5-2.7,4.9-4.2,7.4c-1.5,2.4-3,4.8-4.5,7.2c-1.6,2.3-3.2,4.7-4.9,6.9
		c-1.7,2.3-3.4,4.5-5.2,6.7c-1.8,2.2-3.6,4.3-5.5,6.4c-1.9,2.1-3.8,4.1-5.8,6.1c-2,2-4,3.9-6.1,5.8c-2.1,1.9-4.2,3.7-6.4,5.5
		c-2.2,1.8-4.4,3.5-6.7,5.2c-2.3,1.7-4.6,3.3-6.9,4.9c-2.3,1.6-4.7,3.1-7.2,4.5c-2.4,1.5-4.9,2.8-7.4,4.2c-2.5,1.3-5,2.6-7.6,3.8
		c-2.6,1.2-5.1,2.4-7.7,3.4c-2.6,1.1-5.2,2.1-7.9,3c-2.7,1-5.3,1.8-8,2.7c-2.7,0.8-5.4,1.6-8.2,2.3c-2.7,0.7-5.5,1.3-8.3,1.9
		c-2.8,0.6-5.5,1-8.3,1.4c-2.8,0.4-5.6,0.8-8.4,1c-2.8,0.3-5.6,0.5-8.4,0.6c-2.8,0.1-5.6,0.2-8.5,0.2c-2.8,0-5.6-0.1-8.5-0.2
		c-2.8-0.1-5.6-0.3-8.4-0.6c-2.8-0.3-5.6-0.6-8.4-1c-2.8-0.4-5.6-0.9-8.3-1.4c-2.8-0.6-5.5-1.2-8.3-1.9c-2.7-0.7-5.5-1.4-8.2-2.3
		c-2.7-0.8-5.4-1.7-8-2.7c-2.7-1-5.3-2-7.9-3c-2.6-1.1-5.2-2.2-7.7-3.4c-2.6-1.2-5.1-2.5-7.6-3.8c-2.5-1.3-4.9-2.7-7.4-4.2
		c-2.4-1.5-4.8-3-7.2-4.5c-2.3-1.6-4.7-3.2-6.9-4.9c-2.3-1.7-4.5-3.4-6.7-5.2c-2.2-1.8-4.3-3.6-6.4-5.5c-2.1-1.9-4.1-3.8-6.1-5.8
		c-2-2-3.9-4-5.8-6.1c-1.9-2.1-3.7-4.2-5.5-6.4c-1.8-2.2-3.5-4.4-5.2-6.7c-1.7-2.3-3.3-4.6-4.9-6.9c-1.6-2.3-3.1-4.7-4.5-7.2
		c-1.5-2.4-2.8-4.9-4.2-7.4c-1.3-2.5-2.6-5-3.8-7.6c-1.2-2.6-2.4-5.1-3.4-7.7c-1.1-2.6-2.1-5.2-3-7.9c-1-2.7-1.8-5.3-2.7-8
		c-0.8-2.7-1.6-5.4-2.3-8.2c-0.7-2.7-1.3-5.5-1.9-8.3s-1-5.5-1.4-8.3c-0.4-2.8-0.8-5.6-1-8.4s-0.5-5.6-0.6-8.4
		c-0.1-2.8-0.2-5.6-0.2-8.5c0-2.8,0.1-5.6,0.2-8.5c0.1-2.8,0.3-5.6,0.6-8.4c0.3-2.8,0.6-5.6,1-8.4c0.4-2.8,0.9-5.6,1.4-8.3
		c0.6-2.8,1.2-5.5,1.9-8.3s1.4-5.5,2.3-8.2c0.8-2.7,1.7-5.4,2.7-8c1-2.7,2-5.3,3-7.9c1.1-2.6,2.2-5.2,3.4-7.7
		c1.2-2.6,2.5-5.1,3.8-7.6c1.3-2.5,2.7-4.9,4.2-7.4c1.5-2.4,3-4.8,4.5-7.2c1.6-2.3,3.2-4.7,4.9-6.9c1.7-2.3,3.4-4.5,5.2-6.7
		c1.8-2.2,3.6-4.3,5.5-6.4C49.1,57.1,51,55,53,53c2-2,4-3.9,6.1-5.8c2.1-1.9,4.2-3.7,6.4-5.5c2.2-1.8,4.4-3.5,6.7-5.2
		c2.3-1.7,4.6-3.3,6.9-4.9c2.3-1.6,4.7-3.1,7.2-4.5c2.4-1.5,4.9-2.8,7.4-4.2c2.5-1.3,5-2.6,7.6-3.8c2.6-1.2,5.1-2.4,7.7-3.4
		c2.6-1.1,5.2-2.1,7.9-3c2.7-1,5.3-1.8,8-2.7c2.7-0.8,5.4-1.6,8.2-2.3c2.7-0.7,5.5-1.3,8.3-1.9c2.8-0.6,5.5-1,8.3-1.4
		c2.8-0.4,5.6-0.8,8.4-1c2.8-0.3,5.6-0.5,8.4-0.6S172.2,2.5,175,2.5z"/>
	<g>
		<defs>
			<rect id="SVGID_33_" x="13.7" y="83.8" width="313.4" height="241.4"/>
		</defs>
		<clipPath id="SVGID_1_">
			<use xlink:href="#SVGID_33_"  style="overflow:visible;"/>
		</clipPath>
		<g class="st1">
			<g>
				<defs>
					<rect id="SVGID_35_" x="13.5" y="83.6" width="313.8" height="241.7"/>
				</defs>
				<clipPath id="SVGID_2_">
					<use xlink:href="#SVGID_35_"  style="overflow:visible;"/>
				</clipPath>
				<g class="st2">
					<defs>
						<rect id="SVGID_37_" x="13.7" y="83.8" width="313.4" height="241.4"/>
					</defs>
					<clipPath id="SVGID_3_">
						<use xlink:href="#SVGID_37_"  style="overflow:visible;"/>
					</clipPath>
					<g class="st3">
						<g>
							<defs>
								<rect id="SVGID_39_" x="13.5" y="83.6" width="313.8" height="241.7"/>
							</defs>
							<clipPath id="SVGID_4_">
								<use xlink:href="#SVGID_39_"  style="overflow:visible;"/>
							</clipPath>
							<path class="st4" d="M244.1,244.9c-1.2-4.5-5.5-7.8-10.1-8.6c-4.6-0.8-9.4,0.5-13.4,2.9c-0.2,0.1-0.3,0.2-0.4,0.3
								c1.8-9-0.7-19.2-8-24.8c-7.7-6-20.7-4.8-25.7,3.6c-1.4-5-4.4-10-9.3-11.8c-4.9-1.8-11.5,1.2-11.7,6.4
								c-0.3-7.5-9.4-13-16.2-9.9c0.9-4.4-3.9-8.3-8.4-8.2c-4.5,0.1-6.8,3.8-10.3,6.6c-3.1-8.7-6.7-18.1-14.6-22.9
								c-7.1-4.3-16.8-3.7-23.4,1.3c-6.6,5-10,13.9-8.5,22.1c-5.2-2.4-12.2,1.6-12.8,7.4c-1-3.5-4.5-6-8.1-5.9
								c-3.6,0.1-6.9,2.9-7.7,6.4c-0.4,1.9,0.1,4.5,0.4,6.4c-9.5,0.1-18.7,6.3-22.3,15.1c-3.6,8.8-1.4,19.7,5.4,26.4
								c0.5,0.5,1.1,1,1.8,1.3c-4.3,0.2-8.3,3.5-9.1,7.8c-3-1-6.5-0.7-8.9,1.3c-2.4,2-2,5.7,0.1,8c-2.8-1.2-6.3,0.2-7.9,2.8
								c-1.6,2.6-1.2,6.1,0.4,8.7c0.6,1,1.5,1.9,2.5,2.5c2.2,1.1,4.9,0.7,7-0.6c2.1-1.3,3.7-3.2,5.2-5.1c0.5,7,6.7,12.8,13.6,13.7
								c6.7,0.9,13.6-2.5,17.6-7.9c1.1,2.6,3.7,4.6,6.5,4.9c3.2,0.3,6.4-1.5,7.9-4.3c4.8,5.4,12.5,8.3,19.7,7.2
								c7.2-1,13.8-5.8,16.9-12.4c6.4-13.4,27.6-15.6,42.4-16.6c14.8-1,29.8-0.1,44.5-2.5c14.1-2.3,27.5-7.6,40.8-12.9
								c1.5-0.6,3.1-1.2,4.2-2.4C245.7,249.5,244.8,247.3,244.1,244.9"/>
							<g class="st5">
								<g>
									<defs>
										<rect id="SVGID_41_" x="13.5" y="83.6" width="313.8" height="241.7"/>
									</defs>
									<clipPath id="SVGID_5_">
										<use xlink:href="#SVGID_41_"  style="overflow:visible;"/>
									</clipPath>
									<g class="st6">
										<defs>
											<rect id="SVGID_43_" x="13.7" y="217.1" width="106" height="81.3"/>
										</defs>
										<clipPath id="SVGID_6_">
											<use xlink:href="#SVGID_43_"  style="overflow:visible;"/>
										</clipPath>
										<g class="st7">
											<g>
												<defs>
													<rect id="SVGID_45_" x="13.5" y="217" width="106.4" height="81.4"/>
												</defs>
												<clipPath id="SVGID_7_">
													<use xlink:href="#SVGID_45_"  style="overflow:visible;"/>
												</clipPath>
												<path class="st8" d="M112.1,285.8c1.7-3.5,4.4-6.2,7.7-8.4c-0.3-0.1-0.6-0.2-0.9-0.4c-3.6,4.4-10,6.2-15.4,4.5
													c-1.7-0.5-3.3-1.4-5-1.2c-1.7,0.1-3.5,1.8-2.9,3.4c-5.5,1.2-11.7-1.8-14.2-6.9c-1.4,3.2-6.4,3.9-8.7,1.3
													c-1.4-1.6-1.8-4.1-3.6-5.2c-1.7-1.1-3.9-0.6-5.9-0.7c-5.4-0.3-9.4-5.6-10.1-10.9c-0.7-5.3,1.2-10.6,3.4-15.5
													c-7,2.1-13.6-5.7-13.3-13c0.3-6.6,4.4-10.3,7-15.8c-7.3,1.9-13.7,7.3-16.6,14.3c-3.6,8.8-1.4,19.7,5.4,26.4
													c0.5,0.5,1.1,1,1.8,1.3c-4.3,0.2-8.3,3.5-9.1,7.8c-3-1-6.5-0.7-8.9,1.3c-2.4,2-2,5.7,0.1,8c-2.8-1.2-6.3,0.2-7.9,2.8
													c-1.6,2.6-1.2,6.1,0.4,8.7c0.6,1,1.5,1.9,2.5,2.5c2.2,1.1,4.9,0.7,7-0.6c2.1-1.3,3.7-3.2,5.2-5.1
													c0.5,7,6.7,12.8,13.6,13.7c6.7,0.9,13.6-2.5,17.6-7.9c1.1,2.6,3.7,4.6,6.5,4.9c3.2,0.3,6.4-1.5,7.9-4.3
													c4.8,5.4,12.5,8.3,19.7,7.2C102.3,297.2,108.9,292.4,112.1,285.8"/>
											</g>
										</g>
									</g>
								</g>
							</g>
							<g class="st5">
								<g>
									<defs>
										<rect id="SVGID_47_" x="13.5" y="83.6" width="313.8" height="241.7"/>
									</defs>
									<clipPath id="SVGID_8_">
										<use xlink:href="#SVGID_47_"  style="overflow:visible;"/>
									</clipPath>
									<g class="st9">
										<defs>
											<rect id="SVGID_49_" x="177.1" y="213.9" width="67.8" height="54.6"/>
										</defs>
										<clipPath id="SVGID_9_">
											<use xlink:href="#SVGID_49_"  style="overflow:visible;"/>
										</clipPath>
										<g class="st10">
											<g>
												<defs>
													<rect id="SVGID_51_" x="176.9" y="213.9" width="68.1" height="54.8"/>
												</defs>
												<clipPath id="SVGID_10_">
													<use xlink:href="#SVGID_51_"  style="overflow:visible;"/>
												</clipPath>
												<path class="st11" d="M243.9,251.3c1.8-1.9,0.9-4,0.2-6.5c-1.2-4.5-5.5-7.8-10.1-8.6c-4.6-0.8-9.4,0.5-13.4,2.9
													c-0.2,0.1-0.3,0.2-0.4,0.3c1.8-9-0.7-19.2-8-24.8c-0.3-0.3-0.7-0.5-1.1-0.8c1.4,5.7-1.4,12.7-7,14.8
													c4.6,5.5,7.2,13.2,5,20c-2.2,6.8-10.4,11.7-17,8.9c-3.9,4.9-9.1,8.5-14.9,10.8c7.3-0.2,14.6-0.6,21.8-1.8
													c14.1-2.3,27.5-7.6,40.8-12.9C241.2,253.1,242.8,252.5,243.9,251.3"/>
											</g>
										</g>
									</g>
								</g>
							</g>
							<path class="st12" d="M234,236.3c-4.6-0.8-9.4,0.5-13.4,2.9c-0.2,0.1-0.3,0.2-0.4,0.3c1.8-9-0.7-19.2-8-24.8
								c-5.2-4.1-12.9-4.8-18.8-2.3c4.4,7.8,2.6,19.2-5,24.3c3.5,4.3,1.8,11.2-2.2,15.1c-4,3.9-9.6,5.6-15.1,7
								c-14.2,3.8-30.1,6.9-42.9-0.3c-3.3,4.9-9.7,7.5-15.4,6.3c-2.6-0.6-5.2-1.8-7.8-1.2c-1.9,0.5-3.4,2-5.2,3
								c-4.4,2.4-10.4,1.3-13.5-2.6c-0.1,4.7-5.1,8.3-9.8,7.8c-4.7-0.4-8.6-4-10.8-8.1c-2.2-4.2-3-8.9-3.7-13.5
								c-7.9,2.7-16.6-4-18.9-12.1c-1.9-6.3,0.9-12.9,1.7-18.9c-5,2.7-9.1,7-11.2,12.2c-3.6,8.8-1.4,19.7,5.4,26.4
								c0.5,0.5,1.1,1,1.8,1.3c-4.3,0.2-8.3,3.5-9.1,7.8c-3-1-6.5-0.7-8.9,1.3c-2.4,2-2,5.7,0.1,8c-2.8-1.2-6.3,0.2-7.9,2.8
								c-1.6,2.6-1.2,6.1,0.4,8.7c0.6,1,1.5,1.9,2.5,2.5c2.2,1.1,4.9,0.7,7-0.6c2.1-1.3,3.7-3.2,5.2-5.1c0.5,7,6.7,12.8,13.6,13.7
								c6.7,0.9,13.6-2.5,17.6-7.9c1.1,2.6,3.7,4.6,6.5,4.9c3.2,0.3,6.4-1.5,7.9-4.3c4.8,5.4,12.5,8.3,19.7,7.2
								c7.2-1,13.8-5.8,16.9-12.4c6.4-13.4,27.6-15.6,42.4-16.6c14.8-1,29.8-0.1,44.5-2.5c14.1-2.3,27.5-7.6,40.8-12.9
								c1.5-0.6,3-1.2,4.2-2.4c1.8-1.8,0.9-4,0.2-6.5C242.9,240.4,238.6,237.1,234,236.3"/>
							<path class="st13" d="M106.2,236c-3.1-3.8-2.1-9.5,0.4-13.7c4-6.6,11.8-11,19.4-9.9c7.6,1.1,14.2,8.3,13.5,16
								c2.3-3.4,6.7-5.3,10.8-4.5c4.1,0.8,7.5,4.1,8.4,8.1c2.1-2.9,7-2.6,9.1,0.2c2.1,2.9,1.3,7.3-1.5,9.5c-2.7,2.3-6.9,2.4-10,0.8
								c-5.5,4.8-14.6,4.6-20-0.3c-1.3,4.5-5.1,8-9.5,9.8c-4.3,1.8-9.2,2.1-13.9,1.9c-2.8-0.1-5.6-0.4-8-1.8c-2.4-1.3-4-3.6-4.3-6.3
								c-4,8.5-9.1-0.9-8.6-6C92.9,231.4,101.3,229.9,106.2,236"/>
							<path class="st14" d="M316.1,285.1c0.9-5.9,1.6-12.5-1-17.5c-1.7-3.3-4.7-5.4-7.8-5.6c-3.1-0.2-6.3,2.5-8.3,5.6
								c0.4-5.1-1.4-10.3-4.6-13.5c-3.2-3.2-7.7-4.3-11.7-2.7c-2.9,1.1-4.9,4.8-5.4,8.5c-0.5-3.4-1.1-6.8-2.5-9.8
								c-1.4-2.9-3.8-5.3-6.6-5.7c-2.8-0.3-6.5,2-7,5.4c-2.2-2.7-4.6-5.5-7.7-6.2c-3.1-0.7-7,5-6.9,8.8c-1.9-3.5-3.8-7-6.3-9.8
								c-2.5-2.8-5.7-4.9-9.1-4.9c-2.7,0-6.1,1.4-6.4,4.7c-2.6-3.2-5.5-6.6-9.1-7.6c-3.6-1.1-8,2.2-8.6,6.7c-2.6-3.2-6.4-4.7-10-4
								c-3.6,0.8-6.9,3.8-8.4,7.9c0.8,0.1,0,1.6,0.4,0.7c-2.2-3.8-6.7-5.3-10.2-3.4c-3.5,1.9-5.3,6.9-4.6,11.5
								c-1.7-3.8-3.5-7.7-6.1-10.5c-2.7-2.8-6.4-4.5-9.8-3.2c-1.4,0.5-3.2,0.8-2.2,2.1c-2-1.8-4.4-2.9-6.9-3.1
								c-1.7-0.2-3.4,0-4.8,1.1c-1.4,1.1-2.6,2.7-2.4,4.7c-5.3-1.2-11,0.5-15.3,4.5c-4.3,4-7.2,10.3-7.8,16.9
								c-0.2,1.9-0.7,5.2,0.7,4.3c-3.2-1.1-7.1-0.5-9.4,2.5c-2.3,3-2.3,8.7,0.6,10.8L316.1,285.1z"/>
							<path class="st13" d="M315.1,267.6c-1.7-3.3-4.7-5.4-7.8-5.6c-3.1-0.2-6.3,2.5-8.3,5.6c0.4-5.1-1.4-10.3-4.6-13.5
								c-1.5-1.5-3.2-2.4-5-3c-0.1,0.1-0.1,0.3-0.2,0.4c-2.2,4-6.1,6.9-10.4,8.6c-3.4,1.4-7.1,2.1-10.6,1.2c-3.5-0.8-6.8-3.4-7.6-7
								c-4,5.6-13.4,6.3-18.1,1.2c-4.3,2.8-9.8,3-14.9,3.1c-3.4,0.1-6.9,0.2-10.3,0.3c-4.8,0.1-11-0.6-12.4-5.2
								c-4,5.1-13.2,4.6-16.6-1c-4.8,7.4-17.3,7.9-22.6,0.8c-1.1,3.5-5.2,5.5-8.8,5c-3.6-0.5-6.8-2.9-9-5.8c-4-5.3-2.1-9-0.8-13.1
								c-0.9,0.2-1.7,0.5-2.4,1c-1.4,1.1-2.6,2.7-2.4,4.7c-5.3-1.2-11,0.5-15.3,4.5c-4.3,4-7.2,10.3-7.8,16.9
								c-0.1,1.3-0.4,3.3-0.1,4.1c-3-0.7-6.4-0.1-8.6,2.7c-2.3,3-2.3,8.7,0.6,10.8l205,0.9C317,279.2,317.7,272.6,315.1,267.6"/>
							<path class="st4" d="M147.3,261.9c-7.1-0.8-13.3-6.9-14.1-14c-0.1-0.6-0.1-1.3-0.1-1.9c-2.2,0.8-4.4,2.1-6.3,3.8
								c-4.3,4-7.2,10.3-7.8,16.9c-0.1,1.3-0.4,3.3-0.1,4.1c-3-0.7-6.4-0.1-8.6,2.7c-2.3,3-2.3,8.7,0.6,10.8l41.5,0.2
								C161.8,277.3,146.1,271.8,147.3,261.9"/>
							<path class="st13" d="M159,278.2c2.4-5.7,9.9-8.5,15.4-5.7c2.7-5.5,10.2-8,15.6-5.2c1,0.5,1.9,1.2,3,1.3
								c1.8,0.2,3.3-1.2,4.8-2.2c5.2-3.9,13.7-4.9,17.2,0.6c2.6-5,10.8-5.6,14.2-1.1c2.3-5,10.4-5.8,13.6-1.3
								c4.4-4.3,12.8-2.7,15.3,2.9c4.4-2.9,11.3,0.5,11.7,5.7c4.3-2.7,10.3-0.1,12.9,4.1c2.7,4.3,2.8,9.6,2.4,14.6
								c-3.3-1.8-7.3-1.3-11-0.7c-20.5,3.3-40.7,8.3-61.4,10.1c-20.7,1.8-42.2,0.3-60.9-8.7c-4.7-2.3-12.1-5.1-7.5-10.9
								C146.4,279.3,159.3,277.4,159,278.2"/>
							<path class="st4" d="M282.7,277.2c-2.7-4.3-8.7-6.8-12.9-4.1c-0.4-5.2-7.3-8.7-11.7-5.7c-0.4-1-1-1.8-1.8-2.5
								c-0.6,0.5-1.3,0.9-2.1,1.2c2.9,3.7,1,9.6-3,12.1c-4,2.5-9.2,2.1-13.6,0.5c-4.1,3-10.5,1.9-13.5-2.2
								c-4.4,3.6-11.5,3.3-15.7-0.6c-1,2.8-4.5,4-7.4,3.3c-2.9-0.6-5.3-2.6-7.5-4.5c0,3.5-4.2,6-7.7,5.1c-3.4-0.9-5.8-4.1-6.9-7.5
								c-0.6-1.8-0.3-3.4,0-4.7c-2,1.1-3.7,2.8-4.7,4.8c-5.5-2.8-13,0-15.4,5.7c0.3-0.8-12.6,1.1-14.6,3.5
								c-4.6,5.8,2.8,8.6,7.5,10.9c18.7,9,40.2,10.5,60.9,8.7c8.5-0.8,16.9-2,25.3-3.5c11.9-2.8,23.7-5.9,35.5-9.2
								c4-1.1,8.3-2.4,11.3-5.1C284.6,281.3,283.9,279.1,282.7,277.2"/>
							<path class="st15" d="M327.1,285.5c-0.6-1.2-0.6-2.8-0.9-4.1c-0.3-1.4-0.9-2.8-2-3.3c-1.1-0.5-2.1,0-2,1.4
								c-1.4-3-3.1-6.2-5.8-7c-2.7-0.8-5.4,1.1-7.5,3.2c-1.5,1.5-2.8,3.1-3.6,5.2c-0.1,0.3-0.2,0.6-0.3,0.9
								c-1.3-4.9-3.4-9.5-7.1-11.5c-3.8-2-8.3-0.6-11.7,2.2c-3.3,2.6-6.1,6.9-6.1,11.7c-1.6-2.8-3.7-5.4-6.4-6.1
								c-2.7-0.7-6,1.6-6.1,5c-1.4-4.2-3.7-8.3-7.2-9.6c-3.5-1.3-8.8,1.3-8.6,5.8c-2.6-6.2-9-8.8-14.6-7.4
								c-5.5,1.4-10.2,6.1-14,11.3c-1.2,1.6-2.3,3.4-2.7,5.5c-0.2,0.7-0.2,1.5-0.1,2.3c-1.8-3.2-4.6-5.6-7.8-6.5
								c-4.2-1.2-8.8,0.4-11.9,4.1c-1.1-4.5-5.9-6.5-9.5-4.7c-3.6,1.8-5.8,5.7-6.6,10.4c-4.1-5.5-9.2-9.8-14.8-12.5
								c-2.9-1.4-5.9-2.3-9-1.9c-3.1,0.4-6.1,2.4-7.6,5.8c-0.3-2.4-1-4.7-2.2-6.5c-1.8-2.8-4.7-4.2-7.6-4.5
								c-2.9-0.3-5.5,1.5-8.4,2.2c-1.7-2.4-3.4-4.8-5.5-6.6c-2.1-1.8-4.7-3-7.3-2.7c-2.6,0.4-4.9,2.2-6.8,4.3
								c-1.4,1.5-2.8,3.2-3.5,5.3c-1.9,0.5-4.7-0.5-6.7-0.5c-3.7-0.1-7.5,3.6-7.8,8.2c-0.4,4.6,3.1,9.2,6.8,8.6
								c4.8,9.9,16,15,25,11.8c2.4-0.8,5.1-3,5.3-6c0.2,7,5.4,12.7,11,14.3c5.8,1.6,11.8-0.1,17.6-1.8c0.6,4.1,3.6,7.1,6.7,8.6
								c3.1,1.6,6.8,1,9.6-1.4c0.5-0.4,0.9-0.9,1.5-1c1-0.2,1.8,0.6,2.6,1.3c5.5,5.1,12.7,6.6,19.6,5.8c6.8-0.8,13.4-3.6,19.9-6.3
								c3.9,4.7,10.4,6.9,15.7,5.2c5.3-1.7,10-5.5,14.5-9.3c2.4-2,4.9-4.2,5.8-7.6c6.6,6.7,16.9,7,23.8,0.8c4.4,6.4,12,8.5,18.7,6.8
								c6.7-1.7,12.6-6.9,17.2-13.1c1,0.7,2.6-0.6,3.6-1.3c1-0.8,1.7-2,2.3-3.2C326.3,293.5,327.2,289.5,327.1,285.5"/>
							<g class="st5">
								<g>
									<defs>
										<rect id="SVGID_53_" x="13.5" y="83.6" width="313.8" height="241.7"/>
									</defs>
									<clipPath id="SVGID_11_">
										<use xlink:href="#SVGID_53_"  style="overflow:visible;"/>
									</clipPath>
									<g class="st16">
										<defs>
											<rect id="SVGID_55_" x="97.4" y="276.5" width="229.7" height="48.7"/>
										</defs>
										<clipPath id="SVGID_12_">
											<use xlink:href="#SVGID_55_"  style="overflow:visible;"/>
										</clipPath>
										<g class="st17">
											<g>
												<defs>
													<rect id="SVGID_57_" x="97.2" y="276.3" width="230.1" height="49.1"/>
												</defs>
												<clipPath id="SVGID_13_">
													<use xlink:href="#SVGID_57_"  style="overflow:visible;"/>
												</clipPath>
												<path class="st18" d="M322.5,300.2c1-0.8,1.7-2,2.3-3.2c1.6-3.5,2.4-7.5,2.4-11.4c-0.6-1.2-0.6-2.8-0.9-4.1
													c0-0.2-0.1-0.3-0.1-0.5c-1.5,3.1-3.6,5.8-6.2,8.1c-3,2.5-6.9,4.5-10.7,3.7c-1.2-0.2-2.4-0.7-3.5-0.5
													c-1.5,0.3-2.5,1.5-3.5,2.6c-6.8,7-19.2,7.3-26.3,0.6c-4.3,6.6-15.8,6-19.5-0.9c-0.5,4.1-1.7,8.3-4.6,11.2
													c-2.9,2.9-8.2,3.7-11.1,0.8c-4,6.2-15.1,5.2-18.1-1.6c-1.8,4.8-6.6,8.3-11.6,8.5c-5.1,0.2-10.2-2.9-12.3-7.5
													c-4.5,4.1-11.1,6-17.1,4.9c-6-1.1-11.4-5.2-14.1-10.7c-2.8,3.6-7.6,5.4-12.1,4.7c-4.5-0.8-8.4-4.1-9.8-8.4
													c-5.7,3.2-13.8,1-17.1-4.7c-5.3,2.5-12.2,0.9-15.8-3.7c-1.9-2.4-1.7-6.8-1.6-10.7c-1.8,0-4-0.6-5.6-0.7
													c-3.7-0.1-7.5,3.6-7.8,8.2c-0.4,4.6,3.1,9.2,6.8,8.6c4.8,9.9,16,15,25,11.8c2.4-0.8,5.1-3,5.3-6c0.2,7,5.4,12.7,11,14.3
													c5.8,1.6,11.8-0.1,17.6-1.8c0.6,4.1,3.6,7.1,6.7,8.6c3.1,1.6,6.8,1,9.6-1.4c0.5-0.4,0.9-0.9,1.5-1
													c1-0.2,1.8,0.6,2.6,1.3c5.5,5.1,12.7,6.6,19.6,5.8c6.8-0.8,13.4-3.6,19.9-6.3c3.9,4.7,10.4,6.9,15.7,5.2
													c5.3-1.7,10-5.5,14.5-9.3c2.4-2,4.9-4.2,5.8-7.6c6.6,6.7,16.9,7,23.8,0.8c4.4,6.4,12,8.5,18.7,6.8
													c6.7-1.7,12.6-6.9,17.2-13.1C319.9,302.3,321.5,301,322.5,300.2"/>
											</g>
										</g>
									</g>
								</g>
							</g>
							<path class="st19" d="M231.1,281.7c0,0-0.1,0.1-0.1,0.1c-3.3,3.6-4.8,9.6-1.9,13.9c6.5,9.5,27.4-5.3,20.2-14.8
								C244.8,275.1,235.5,276.9,231.1,281.7"/>
							<path class="st20" d="M241.9,295.7c0.1-0.1,0.2-0.1,0.3-0.2c0,0-0.1,0-0.1,0.1C242,295.6,241.9,295.7,241.9,295.7"/>
							<path class="st19" d="M256.1,282.6c-1.8,2.1-1.8,4.8-0.3,7c1.7,2.6,5.1,3.7,7.8,1.8c2.9-2,3.3-6.7,0.8-9.2
								C262,280,258.2,280.2,256.1,282.6"/>
							<path class="st19" d="M300,279.2c-3.4-4.7-12.9-5.6-15,2.8c-2.2,8.7,8.4,13.3,13.9,6.7C301.9,285,301.7,281.6,300,279.2"/>
							<path class="st19" d="M192.6,289.1c-3.6-0.2-6.6,3.2-6.2,6.7c0.3,2.8,2.4,4.9,5.3,5.2c3,0.3,5.6-1.7,6.4-4.6
								C199,292.7,196.3,289.3,192.6,289.1"/>
							<path class="st19" d="M164.2,282.3c-4.7-1.5-10,1.5-10.6,6.5c-0.3,2,0.3,4.1,1.8,5.5c2.2,2,5.1,1.3,7.8,0.9l-0.4,0.1
								c3-0.6,5.7-2.3,6.2-5.6C169.4,286.4,167.3,283.2,164.2,282.3"/>
							<path class="st19" d="M174.4,293.4c-5.1,1.6-3.4,9.6,2,8.7C182.2,301.2,179.9,291.6,174.4,293.4"/>
							<path class="st19" d="M213.1,299c-2.3-1.2-4.9-0.7-6,1.8c-1,2.2-0.2,4.6,1.9,5.8C213.9,309.4,217.8,301.6,213.1,299"/>
							<path class="st19" d="M208,311.6c-4.2-2.5-8.1,3.7-3.7,6C208.1,319.6,211.8,313.9,208,311.6"/>
							<path class="st19" d="M237.1,306.1c-4.5-2.7-9.2,3.8-4.7,6.7C236.8,315.7,242.2,309.1,237.1,306.1"/>
							<path class="st21" d="M198.8,105.9c-15.3,23.3-18.3,48.3-18.1,65.6l-6.6,2.3c14.4,46-7,80.4-7,80.4c15.3,7.9,26,0,26,0
								c-22.4-47.6,5.6-88,6.5-89.2c9-12.8,21-26.6,34.4-33.1c28.8-13.9,38.1-37.2,38.1-37.2S220.6,72.8,198.8,105.9"/>
							<g class="st5">
								<g>
									<defs>
										<rect id="SVGID_59_" x="13.5" y="83.6" width="313.8" height="241.7"/>
									</defs>
									<clipPath id="SVGID_14_">
										<use xlink:href="#SVGID_59_"  style="overflow:visible;"/>
									</clipPath>
									<g class="st22">
										<defs>
											<rect id="SVGID_61_" x="179.8" y="102.7" width="88.1" height="153.6"/>
										</defs>
										<clipPath id="SVGID_15_">
											<use xlink:href="#SVGID_61_"  style="overflow:visible;"/>
										</clipPath>
										<g class="st23">
											<g>
												<defs>
													<rect id="SVGID_63_" x="179.7" y="102.7" width="88.2" height="153.8"/>
												</defs>
												<clipPath id="SVGID_16_">
													<use xlink:href="#SVGID_63_"  style="overflow:visible;"/>
												</clipPath>
												<path class="st24" d="M234.1,131.9c18.2-8.8,28.6-21.3,33.8-29.3c-2.4,2.8-5,5.5-7.8,8c-14.3,12.9-32.6,20.8-47.2,33.3
													c-16.7,14.3-28.2,34.6-31.8,56.2c-3.2,18.9-0.3,38.8,7.9,56.1c2.7-1,4.2-2.1,4.2-2.1c-22.4-47.6,5.6-88,6.5-89.2
													C208.7,152.2,220.7,138.4,234.1,131.9"/>
											</g>
										</g>
									</g>
								</g>
							</g>
							<path class="st25" d="M248.7,100.5c-13.2-2.2-27.3,1.1-38.2,8.8c-13.2,9.4-21.4,24.6-25.3,40.3c-4,15.7-3.2,27.8-3.4,44
								c3-24.4,13.6-48.1,29.2-67.1C220.9,114.5,233.6,104,248.7,100.5"/>
							<path class="st21" d="M181.8,193.6c0,0-28.9-49.3-61.6-61.6c-32.7-12.3-45.1-36.6-45.1-36.6s53.9-29,80.9,4.9
								C189.3,142,181.8,193.6,181.8,193.6"/>
							<path class="st25" d="M169.6,143.6c-3.7-8-8.1-15.9-14.4-22.1c-13.7-13.5-33.7-16.5-52.7-19.8c23,3.8,43.1,19,56.5,38
								c11.2,16,18.1,34.5,22.7,53.6c0.1,0.1,0.1,0.2,0.1,0.2s0.4-2.8,0.6-7.6C180,171.4,175.8,157.1,169.6,143.6"/>
							<path class="st26" d="M120.8,87.9c-3.9,0.8-3.9,6-1,7.9c5,3.4,10.9,5.1,16.1,8.4c4.5,2.8,8.4,6.5,13.9,6.5
								c0.8,0,1.7-0.6,1.8-1.4C154.4,95.7,131.7,85.7,120.8,87.9"/>
							<path class="st26" d="M160.3,113.4c-0.6-0.4-1.4-0.7-2.1-0.8c-0.7-0.1-1.1,0.1-1.7,0.3c-0.4,0.1-0.3,0.4-0.9,0.3
								c-0.3-0.1-0.4,0.2-0.3,0.4c0.4,0.4-0.2,1-0.2,1.6c0,0.6,0.2,1.3,0.3,1.9c0.5,1.6,1.3,2.6,2.7,3.5c1.5,0.9,3.8,0.1,4.2-1.7
								C162.9,116.7,162.2,114.6,160.3,113.4"/>
							<path class="st26" d="M155.4,142.6c-5.2-7.1-9.2-11.2-17.9-12.6c-0.4-0.1-0.7,0.5-0.3,0.7c6.5,3.2,11.3,14.2,15.8,19.8
								c5.1,6.3,9.5,13.7,16,18.5c0.7,0.5,1.6-0.3,1.4-1.1C167.9,159.1,160.8,150.1,155.4,142.6"/>
							<path class="st26" d="M251.5,105.5c-6.2-0.4-12.1,3.8-17.4,6.9c-5.4,3.1-11.6,6.5-14,12.5c-0.9,2.4,1.4,4.3,3.5,4.5
								c6.4,0.8,12.8-4.2,17.5-8c4.7-3.8,10.4-8.2,11.5-14.5C252.7,106.2,252.3,105.6,251.5,105.5"/>
							<path class="st26" d="M263.6,99.1c-1.7-3-6,0.3-6.8,2.4c-0.3,0.8,0.3,1.8,1.1,2C260,104.1,265.3,102.2,263.6,99.1"/>
							<path class="st26" d="M181.3,240.3c-0.8-1.8-3.3-1.7-4.5-0.6c-1.7,1.5-2.5,3.8-2.4,6c0,1.8,1.2,4.5,3.3,4.7
								c1.8,0.2,3.4-1.8,3.9-3.2C182.4,244.9,182.3,242.5,181.3,240.3"/>
						</g>
					</g>
				</g>
			</g>
		</g>
	</g>
</g>
</svg>
