<?xml version="1.0" encoding="utf-8"?>
<!-- Generator: Adobe Illustrator 21.0.0, SVG Export Plug-In . SVG Version: 6.00 Build 0)  -->
<svg version="1.1" id="Layer_1" xmlns="http://www.w3.org/2000/svg" xmlns:xlink="http://www.w3.org/1999/xlink" x="0px" y="0px"
	 viewBox="0 0 350 350" style="enable-background:new 0 0 350 350;" xml:space="preserve">
<style type="text/css">
	.st0{fill:#0959B5;}
	.st1{clip-path:url(#SVGID_1_);enable-background:new    ;}
	.st2{clip-path:url(#SVGID_2_);}
	.st3{clip-path:url(#SVGID_3_);enable-background:new    ;}
	.st4{clip-path:url(#SVGID_4_);fill:#3C96D3;}
	.st5{opacity:0.2;clip-path:url(#SVGID_4_);enable-background:new    ;}
	.st6{clip-path:url(#SVGID_5_);}
	.st7{clip-path:url(#SVGID_6_);enable-background:new    ;}
	.st8{clip-path:url(#SVGID_7_);}
	.st9{clip-path:url(#SVGID_8_);}
	.st10{clip-path:url(#SVGID_9_);enable-background:new    ;}
	.st11{clip-path:url(#SVGID_10_);}
	.st12{clip-path:url(#SVGID_4_);fill:#3682C1;}
	.st13{clip-path:url(#SVGID_4_);fill:#287FAF;}
	.st14{clip-path:url(#SVGID_4_);fill:#26779B;}
	.st15{clip-path:url(#SVGID_4_);fill:#87BFFF;}
	.st16{clip-path:url(#SVGID_11_);}
	.st17{clip-path:url(#SVGID_12_);enable-background:new    ;}
	.st18{clip-path:url(#SVGID_13_);}
	.st19{clip-path:url(#SVGID_4_);fill:#65A8EA;}
	.st20{clip-path:url(#SVGID_4_);fill:#603526;}
	.st21{clip-path:url(#SVGID_4_);fill:#BFA800;}
	.st22{clip-path:url(#SVGID_14_);}
	.st23{clip-path:url(#SVGID_15_);enable-background:new    ;}
	.st24{clip-path:url(#SVGID_16_);}
	.st25{clip-path:url(#SVGID_4_);fill:#E5D100;}
	.st26{clip-path:url(#SVGID_4_);fill:#FFE422;}
	.st27{clip-path:url(#SVGID_17_);}
	.st28{clip-path:url(#SVGID_18_);enable-background:new    ;}
	.st29{clip-path:url(#SVGID_19_);}
	.st30{clip-path:url(#SVGID_20_);}
	.st31{clip-path:url(#SVGID_21_);enable-background:new    ;}
	.st32{clip-path:url(#SVGID_22_);}
	.st33{clip-path:url(#SVGID_23_);}
	.st34{clip-path:url(#SVGID_24_);enable-background:new    ;}
	.st35{clip-path:url(#SVGID_25_);}
</style>
<g>
	<path class="st0" d="M175,53.7c2.3,0,4.7,0.1,7,0.2c2.3,0.1,4.7,0.3,7,0.5c2.3,0.2,4.7,0.5,7,0.9c2.3,0.3,4.6,0.7,6.9,1.2
		c2.3,0.5,4.6,1,6.9,1.5c2.3,0.6,4.5,1.2,6.8,1.9c2.2,0.7,4.5,1.4,6.7,2.2c2.2,0.8,4.4,1.6,6.6,2.5c2.2,0.9,4.3,1.8,6.4,2.9
		c2.1,1,4.2,2.1,6.3,3.2c2.1,1.1,4.1,2.3,6.1,3.5c2,1.2,4,2.5,5.9,3.8c2,1.3,3.9,2.7,5.8,4.1c1.9,1.4,3.7,2.8,5.5,4.3
		c1.8,1.5,3.6,3,5.3,4.6c1.7,1.6,3.4,3.2,5.1,4.9c1.7,1.7,3.3,3.4,4.9,5.1c1.6,1.7,3.1,3.5,4.6,5.3c1.5,1.8,2.9,3.7,4.3,5.5
		c1.4,1.9,2.7,3.8,4.1,5.8s2.6,3.9,3.8,5.9c1.2,2,2.4,4.1,3.5,6.1c1.1,2.1,2.2,4.2,3.2,6.3c1,2.1,2,4.3,2.9,6.4
		c0.9,2.2,1.7,4.4,2.5,6.6c0.8,2.2,1.5,4.4,2.2,6.7c0.7,2.2,1.3,4.5,1.9,6.8c0.6,2.3,1.1,4.6,1.5,6.9c0.5,2.3,0.9,4.6,1.2,6.9
		c0.3,2.3,0.6,4.6,0.9,7c0.2,2.3,0.4,4.7,0.5,7c0.1,2.3,0.2,4.7,0.2,7c0,2.3-0.1,4.7-0.2,7c-0.1,2.3-0.3,4.7-0.5,7
		c-0.2,2.3-0.5,4.7-0.9,7c-0.3,2.3-0.7,4.6-1.2,6.9c-0.5,2.3-1,4.6-1.5,6.9c-0.6,2.3-1.2,4.5-1.9,6.8c-0.7,2.2-1.4,4.5-2.2,6.7
		c-0.8,2.2-1.6,4.4-2.5,6.6c-0.9,2.2-1.8,4.3-2.9,6.4c-1,2.1-2.1,4.2-3.2,6.3c-1.1,2.1-2.3,4.1-3.5,6.1c-1.2,2-2.5,4-3.8,5.9
		c-1.3,2-2.7,3.9-4.1,5.8c-1.4,1.9-2.8,3.7-4.3,5.5c-1.5,1.8-3,3.6-4.6,5.3c-1.6,1.7-3.2,3.4-4.9,5.1c-1.7,1.7-3.4,3.3-5.1,4.9
		c-1.7,1.6-3.5,3.1-5.3,4.6c-1.8,1.5-3.7,2.9-5.5,4.3c-1.9,1.4-3.8,2.7-5.8,4.1c-2,1.3-3.9,2.6-5.9,3.8c-2,1.2-4.1,2.4-6.1,3.5
		c-2.1,1.1-4.2,2.2-6.3,3.2c-2.1,1-4.3,2-6.4,2.9c-2.2,0.9-4.4,1.7-6.6,2.5c-2.2,0.8-4.4,1.5-6.7,2.2c-2.2,0.7-4.5,1.3-6.8,1.9
		c-2.3,0.6-4.6,1.1-6.9,1.5c-2.3,0.5-4.6,0.9-6.9,1.2c-2.3,0.3-4.6,0.6-7,0.9c-2.3,0.2-4.7,0.4-7,0.5c-2.3,0.1-4.7,0.2-7,0.2
		c-2.3,0-4.7-0.1-7-0.2c-2.3-0.1-4.7-0.3-7-0.5c-2.3-0.2-4.7-0.5-7-0.9c-2.3-0.3-4.6-0.7-6.9-1.2c-2.3-0.5-4.6-1-6.9-1.5
		c-2.3-0.6-4.5-1.2-6.8-1.9c-2.2-0.7-4.5-1.4-6.7-2.2c-2.2-0.8-4.4-1.6-6.6-2.5c-2.2-0.9-4.3-1.8-6.4-2.9c-2.1-1-4.2-2.1-6.3-3.2
		c-2.1-1.1-4.1-2.3-6.1-3.5c-2-1.2-4-2.5-5.9-3.8c-2-1.3-3.9-2.7-5.8-4.1c-1.9-1.4-3.7-2.8-5.5-4.3c-1.8-1.5-3.6-3-5.3-4.6
		c-1.7-1.6-3.4-3.2-5.1-4.9c-1.7-1.7-3.3-3.4-4.9-5.1c-1.6-1.7-3.1-3.5-4.6-5.3c-1.5-1.8-2.9-3.7-4.3-5.5c-1.4-1.9-2.7-3.8-4.1-5.8
		c-1.3-2-2.6-3.9-3.8-5.9c-1.2-2-2.4-4.1-3.5-6.1c-1.1-2.1-2.2-4.2-3.2-6.3c-1-2.1-2-4.3-2.9-6.4c-0.9-2.2-1.7-4.4-2.5-6.6
		c-0.8-2.2-1.5-4.4-2.2-6.7c-0.7-2.2-1.3-4.5-1.9-6.8c-0.6-2.3-1.1-4.6-1.5-6.9c-0.5-2.3-0.9-4.6-1.2-6.9c-0.3-2.3-0.6-4.6-0.9-7
		c-0.2-2.3-0.4-4.7-0.5-7c-0.1-2.3-0.2-4.7-0.2-7c0-2.3,0.1-4.7,0.2-7c0.1-2.3,0.3-4.7,0.5-7c0.2-2.3,0.5-4.7,0.9-7
		c0.3-2.3,0.7-4.6,1.2-6.9c0.5-2.3,1-4.6,1.5-6.9s1.2-4.5,1.9-6.8c0.7-2.2,1.4-4.5,2.2-6.7c0.8-2.2,1.6-4.4,2.5-6.6
		c0.9-2.2,1.8-4.3,2.9-6.4c1-2.1,2.1-4.2,3.2-6.3s2.3-4.1,3.5-6.1c1.2-2,2.5-4,3.8-5.9s2.7-3.9,4.1-5.8c1.4-1.9,2.8-3.7,4.3-5.5
		c1.5-1.8,3-3.6,4.6-5.3c1.6-1.7,3.2-3.4,4.9-5.1c1.7-1.7,3.4-3.3,5.1-4.9c1.7-1.6,3.5-3.1,5.3-4.6s3.7-2.9,5.5-4.3
		c1.9-1.4,3.8-2.7,5.8-4.1s3.9-2.6,5.9-3.8c2-1.2,4.1-2.4,6.1-3.5c2.1-1.1,4.2-2.2,6.3-3.2s4.3-2,6.4-2.9c2.2-0.9,4.4-1.7,6.6-2.5
		c2.2-0.8,4.4-1.5,6.7-2.2c2.2-0.7,4.5-1.3,6.8-1.9c2.3-0.6,4.6-1.1,6.9-1.5c2.3-0.5,4.6-0.9,6.9-1.2c2.3-0.3,4.6-0.6,7-0.9
		c2.3-0.2,4.7-0.4,7-0.5C170.3,53.8,172.7,53.7,175,53.7z"/>
	<g>
		<defs>
			<rect id="SVGID_51_" x="62.8" y="2.5" width="200.3" height="345"/>
		</defs>
		<clipPath id="SVGID_1_">
			<use xlink:href="#SVGID_51_"  style="overflow:visible;"/>
		</clipPath>
		<g class="st1">
			<g>
				<defs>
					<rect id="SVGID_53_" x="62.7" y="2.3" width="200.6" height="345.3"/>
				</defs>
				<clipPath id="SVGID_2_">
					<use xlink:href="#SVGID_53_"  style="overflow:visible;"/>
				</clipPath>
				<g class="st2">
					<defs>
						<rect id="SVGID_55_" x="62.8" y="2.5" width="200.3" height="345"/>
					</defs>
					<clipPath id="SVGID_3_">
						<use xlink:href="#SVGID_55_"  style="overflow:visible;"/>
					</clipPath>
					<g class="st3">
						<g>
							<defs>
								<rect id="SVGID_57_" x="62.7" y="2.3" width="200.6" height="345.3"/>
							</defs>
							<clipPath id="SVGID_4_">
								<use xlink:href="#SVGID_57_"  style="overflow:visible;"/>
							</clipPath>
							<path class="st4" d="M210.1,296.1c-0.8-2.9-3.5-5-6.5-5.5c-2.9-0.5-6,0.3-8.6,1.8c-0.1,0.1-0.2,0.1-0.3,0.2
								c1.2-5.8-0.5-12.3-5.1-15.9c-4.9-3.9-13.2-3.1-16.4,2.3c-0.9-3.2-2.8-6.4-5.9-7.6c-3.1-1.2-7.4,0.8-7.5,4.1
								c-0.2-4.8-6-8.3-10.4-6.3c0.5-2.8-2.5-5.3-5.3-5.2c-2.9,0-4.4,2.4-6.6,4.2c-2-5.6-4.3-11.5-9.3-14.6
								c-4.5-2.8-10.7-2.3-15,0.8c-4.2,3.2-6.4,8.9-5.5,14.1c-3.4-1.5-7.8,1.1-8.2,4.7c-0.6-2.2-2.9-3.8-5.2-3.8
								c-2.3,0.1-4.4,1.9-4.9,4.1c-0.3,1.2,0.1,2.9,0.2,4.1c-6.1,0-12,4-14.3,9.7c-2.3,5.6-0.9,12.6,3.4,16.9
								c0.3,0.3,0.7,0.6,1.1,0.8c-2.7,0.1-5.3,2.2-5.8,5c-1.9-0.6-4.2-0.5-5.7,0.8c-1.5,1.3-1.3,3.6,0,5.1c-1.8-0.8-4.1,0.1-5,1.8
								c-1,1.7-0.8,3.9,0.2,5.6c0.4,0.6,0.9,1.2,1.6,1.6c1.4,0.7,3.1,0.4,4.5-0.4c1.3-0.8,2.3-2,3.3-3.3c0.3,4.5,4.3,8.2,8.7,8.8
								c4.3,0.6,8.7-1.6,11.3-5c0.7,1.7,2.3,2.9,4.2,3.1c2,0.2,4.1-0.9,5-2.7c3.1,3.5,8,5.3,12.6,4.6c4.6-0.6,8.8-3.7,10.8-7.9
								c4.1-8.6,17.6-9.9,27.1-10.6c9.5-0.7,19-0.1,28.4-1.6c9-1.5,17.6-4.9,26.1-8.3c1-0.4,1.9-0.8,2.7-1.5
								C211,299.1,210.5,297.7,210.1,296.1"/>
							<g class="st5">
								<g>
									<defs>
										<rect id="SVGID_59_" x="62.7" y="2.3" width="200.6" height="345.3"/>
									</defs>
									<clipPath id="SVGID_5_">
										<use xlink:href="#SVGID_59_"  style="overflow:visible;"/>
									</clipPath>
									<g class="st6">
										<defs>
											<rect id="SVGID_61_" x="62.8" y="278.4" width="67.8" height="52"/>
										</defs>
										<clipPath id="SVGID_6_">
											<use xlink:href="#SVGID_61_"  style="overflow:visible;"/>
										</clipPath>
										<g class="st7">
											<g>
												<defs>
													<rect id="SVGID_63_" x="62.7" y="278.1" width="67.9" height="52.3"/>
												</defs>
												<clipPath id="SVGID_7_">
													<use xlink:href="#SVGID_63_"  style="overflow:visible;"/>
												</clipPath>
												<path class="st8" d="M125.6,322.3c1.1-2.2,2.8-4,4.9-5.4c-0.2-0.1-0.4-0.1-0.5-0.2c-2.3,2.8-6.4,4-9.9,2.9
													c-1.1-0.3-2.1-0.9-3.2-0.8c-1.1,0.1-2.2,1.1-1.9,2.2c-3.5,0.7-7.5-1.2-9.1-4.4c-0.9,2-4.1,2.5-5.6,0.8
													c-0.9-1-1.2-2.6-2.3-3.3c-1.1-0.7-2.5-0.4-3.8-0.4c-3.4-0.2-6-3.6-6.5-7c-0.4-3.4,0.8-6.8,2.1-9.9
													c-4.4,1.3-8.7-3.7-8.5-8.3c0.2-4.2,2.8-6.6,4.5-10.1c-4.7,1.2-8.8,4.7-10.6,9.2c-2.3,5.6-0.9,12.6,3.4,16.9
													c0.3,0.3,0.7,0.6,1.1,0.8c-2.7,0.1-5.3,2.2-5.8,5c-1.9-0.6-4.2-0.5-5.7,0.8c-1.5,1.3-1.3,3.6,0,5.1
													c-1.8-0.8-4.1,0.1-5,1.8c-1,1.7-0.8,3.9,0.2,5.6c0.4,0.6,0.9,1.2,1.6,1.6c1.4,0.7,3.1,0.4,4.5-0.4
													c1.3-0.8,2.3-2,3.3-3.3c0.3,4.5,4.3,8.2,8.7,8.8c4.3,0.6,8.7-1.6,11.3-5c0.7,1.7,2.3,2.9,4.2,3.1c2,0.2,4.1-0.9,5-2.7
													c3.1,3.5,8,5.3,12.6,4.6C119.4,329.6,123.6,326.5,125.6,322.3"/>
											</g>
										</g>
									</g>
								</g>
							</g>
							<g class="st5">
								<g>
									<defs>
										<rect id="SVGID_65_" x="62.7" y="2.3" width="200.6" height="345.3"/>
									</defs>
									<clipPath id="SVGID_8_">
										<use xlink:href="#SVGID_65_"  style="overflow:visible;"/>
									</clipPath>
									<g class="st9">
										<defs>
											<rect id="SVGID_67_" x="167.2" y="276.3" width="43.3" height="34.9"/>
										</defs>
										<clipPath id="SVGID_9_">
											<use xlink:href="#SVGID_67_"  style="overflow:visible;"/>
										</clipPath>
										<g class="st10">
											<g>
												<defs>
													<rect id="SVGID_69_" x="167.1" y="276.3" width="43.6" height="35.1"/>
												</defs>
												<clipPath id="SVGID_10_">
													<use xlink:href="#SVGID_69_"  style="overflow:visible;"/>
												</clipPath>
												<path class="st11" d="M209.9,300.3c1.1-1.2,0.6-2.6,0.1-4.1c-0.8-2.9-3.5-5-6.5-5.5c-2.9-0.5-6,0.3-8.6,1.8
													c-0.1,0.1-0.2,0.1-0.3,0.2c1.2-5.8-0.5-12.3-5.1-15.9c-0.2-0.2-0.5-0.3-0.7-0.5c0.9,3.7-0.9,8.1-4.5,9.5
													c2.9,3.5,4.6,8.4,3.2,12.8c-1.4,4.4-6.6,7.5-10.9,5.7c-2.5,3.1-5.8,5.5-9.5,6.9c4.7-0.1,9.3-0.4,13.9-1.1
													c9-1.5,17.6-4.9,26.1-8.3C208.2,301.4,209.2,301,209.9,300.3"/>
											</g>
										</g>
									</g>
								</g>
							</g>
							<path class="st12" d="M203.6,290.6c-2.9-0.5-6,0.3-8.6,1.8c-0.1,0.1-0.2,0.1-0.3,0.2c1.2-5.8-0.5-12.3-5.1-15.9
								c-3.3-2.6-8.2-3.1-12-1.4c2.8,5,1.7,12.3-3.2,15.6c2.3,2.8,1.2,7.2-1.4,9.7c-2.6,2.5-6.2,3.6-9.6,4.5
								c-9.1,2.4-19.2,4.4-27.4-0.2c-2.1,3.1-6.2,4.8-9.9,4c-1.7-0.4-3.4-1.2-5-0.8c-1.2,0.3-2.2,1.3-3.3,1.9
								c-2.8,1.6-6.6,0.8-8.7-1.6c0,3-3.3,5.3-6.3,5c-3-0.3-5.5-2.5-6.9-5.2c-1.4-2.7-1.9-5.7-2.4-8.7c-5.1,1.7-10.6-2.6-12.1-7.7
								c-1.2-4,0.5-8.2,1.1-12.1c-3.2,1.7-5.8,4.5-7.2,7.8c-2.3,5.6-0.9,12.6,3.4,16.9c0.3,0.3,0.7,0.6,1.1,0.8
								c-2.7,0.1-5.3,2.2-5.8,5c-1.9-0.6-4.2-0.5-5.7,0.8c-1.5,1.3-1.3,3.6,0,5.1c-1.8-0.8-4.1,0.1-5,1.8c-1,1.7-0.8,3.9,0.2,5.6
								c0.4,0.6,0.9,1.2,1.6,1.6c1.4,0.7,3.1,0.4,4.5-0.4c1.3-0.8,2.3-2,3.3-3.3c0.3,4.5,4.3,8.2,8.7,8.8c4.3,0.6,8.7-1.6,11.3-5
								c0.7,1.7,2.3,2.9,4.2,3.1c2,0.2,4.1-0.9,5-2.7c3.1,3.5,8,5.3,12.6,4.6c4.6-0.6,8.8-3.7,10.8-7.9c4.1-8.6,17.6-9.9,27.1-10.6
								c9.5-0.7,19-0.1,28.4-1.6c9-1.5,17.6-4.9,26.1-8.3c1-0.4,1.9-0.8,2.7-1.5c1.1-1.2,0.6-2.6,0.1-4.1
								C209.3,293.3,206.5,291.2,203.6,290.6"/>
							<path class="st13" d="M121.9,290.5c-2-2.4-1.3-6.1,0.3-8.8c2.5-4.2,7.5-7,12.4-6.3c4.9,0.7,9,5.3,8.6,10.2
								c1.5-2.2,4.3-3.4,6.9-2.9c2.6,0.5,4.8,2.6,5.4,5.2c1.3-1.8,4.5-1.7,5.8,0.1c1.4,1.8,0.8,4.7-0.9,6.1
								c-1.7,1.4-4.4,1.5-6.4,0.5c-3.5,3.1-9.3,3-12.8-0.2c-0.8,2.9-3.3,5.1-6.1,6.3c-2.8,1.1-5.9,1.3-8.9,1.2
								c-1.8-0.1-3.6-0.3-5.1-1.1c-1.5-0.8-2.6-2.3-2.8-4c-2.6,5.4-5.8-0.6-5.5-3.8C113.4,287.5,118.8,286.6,121.9,290.5"/>
							<path class="st14" d="M256.1,321.9c0.5-3.8,1-8-0.6-11.2c-1.1-2.1-3-3.5-5-3.6c-2-0.1-4,1.6-5.3,3.6c0.2-3.2-0.9-6.6-2.9-8.6
								c-2-2-4.9-2.7-7.5-1.7c-1.9,0.7-3.1,3.1-3.4,5.5c-0.3-2.2-0.7-4.4-1.6-6.3c-0.9-1.9-2.5-3.4-4.2-3.6
								c-1.8-0.2-4.2,1.3-4.5,3.5c-1.4-1.7-3-3.5-4.9-3.9c-2-0.4-4.5,3.2-4.4,5.6c-1.2-2.2-2.4-4.5-4-6.3c-1.6-1.8-3.7-3.1-5.8-3.1
								c-1.7,0-3.9,0.9-4.1,3c-1.7-2.1-3.5-4.2-5.8-4.9c-2.3-0.7-5.1,1.4-5.5,4.3c-1.6-2-4.1-3-6.4-2.5c-2.3,0.5-4.4,2.4-5.4,5
								c0.5,0,0,1,0.3,0.5c-1.4-2.4-4.3-3.4-6.5-2.2c-2.2,1.2-3.4,4.4-2.9,7.4c-1.1-2.4-2.2-4.9-3.9-6.7c-1.7-1.8-4.1-2.9-6.3-2
								c-0.9,0.3-2,0.5-1.4,1.3c-1.3-1.1-2.8-1.8-4.4-2c-1.1-0.1-2.2,0-3.1,0.7c-0.9,0.7-1.7,1.7-1.5,3c-3.4-0.8-7,0.3-9.8,2.9
								c-2.8,2.6-4.6,6.6-5,10.8c-0.1,1.2-0.4,3.3,0.5,2.8c-2.1-0.7-4.5-0.3-6,1.6c-1.5,1.9-1.4,5.6,0.4,6.9L256.1,321.9z"/>
							<path class="st13" d="M255.4,310.6c-1.1-2.1-3-3.5-5-3.6c-2-0.1-4,1.6-5.3,3.6c0.2-3.2-0.9-6.6-2.9-8.6
								c-0.9-0.9-2-1.6-3.2-1.9c0,0.1-0.1,0.2-0.1,0.2c-1.4,2.6-3.9,4.4-6.6,5.5c-2.2,0.9-4.5,1.3-6.8,0.8c-2.3-0.5-4.3-2.2-4.9-4.5
								c-2.6,3.6-8.6,4-11.6,0.8c-2.8,1.8-6.2,1.9-9.5,2c-2.2,0.1-4.4,0.1-6.6,0.2c-3.1,0.1-7-0.4-7.9-3.3
								c-2.6,3.3-8.5,2.9-10.6-0.6c-3.1,4.8-11.1,5-14.4,0.5c-0.7,2.2-3.3,3.5-5.7,3.2c-2.3-0.3-4.3-1.8-5.8-3.7
								c-2.5-3.4-1.3-5.7-0.5-8.4c-0.5,0.1-1.1,0.3-1.5,0.6c-0.9,0.7-1.7,1.7-1.5,3c-3.4-0.8-7,0.3-9.8,2.9c-2.8,2.6-4.6,6.6-5,10.8
								c-0.1,0.9-0.2,2.1,0,2.6c-1.9-0.5-4.1,0-5.5,1.7c-1.5,1.9-1.4,5.6,0.4,6.9l131.1,0.5C256.6,318.1,257.1,313.9,255.4,310.6"/>
							<path class="st4" d="M148.2,307c-4.6-0.5-8.5-4.4-9-9c0-0.4-0.1-0.8,0-1.2c-1.4,0.5-2.8,1.3-4,2.4c-2.8,2.6-4.6,6.6-5,10.8
								c-0.1,0.9-0.3,2.1,0,2.6c-1.9-0.5-4.1,0-5.5,1.7c-1.5,1.9-1.4,5.6,0.4,6.9l26.5,0.1C157.4,316.9,147.4,313.3,148.2,307"/>
							<path class="st13" d="M155.6,317.4c1.5-3.6,6.3-5.4,9.8-3.7c1.7-3.5,6.5-5.1,10-3.3c0.6,0.3,1.2,0.7,1.9,0.8
								c1.2,0.1,2.1-0.7,3.1-1.4c3.3-2.5,8.8-3.1,11,0.4c1.7-3.2,6.9-3.6,9.1-0.7c1.5-3.2,6.6-3.7,8.7-0.8c2.8-2.7,8.2-1.7,9.8,1.8
								c2.8-1.9,7.2,0.3,7.5,3.7c2.7-1.7,6.6-0.1,8.3,2.6c1.7,2.7,1.8,6.1,1.6,9.4c-2.1-1.1-4.7-0.8-7-0.4
								c-13.1,2.1-26,5.3-39.3,6.5c-13.2,1.2-27,0.2-38.9-5.5c-3-1.4-7.8-3.2-4.8-6.9C147.6,318.2,155.9,316.9,155.6,317.4"/>
							<path class="st4" d="M234.7,316.8c-1.7-2.7-5.5-4.4-8.3-2.6c-0.2-3.3-4.7-5.5-7.5-3.7c-0.3-0.6-0.7-1.1-1.1-1.6
								c-0.4,0.3-0.9,0.6-1.4,0.8c1.8,2.4,0.6,6.1-1.9,7.7c-2.5,1.6-5.9,1.4-8.7,0.3c-2.6,1.9-6.7,1.2-8.6-1.4
								c-2.8,2.3-7.4,2.1-10-0.4c-0.6,1.8-2.9,2.5-4.7,2.1c-1.8-0.4-3.4-1.7-4.8-2.9c0,2.3-2.7,3.8-4.9,3.3
								c-2.2-0.5-3.7-2.6-4.4-4.8c-0.4-1.2-0.2-2.2,0-3c-1.3,0.7-2.4,1.8-3,3.1c-3.5-1.8-8.3,0-9.8,3.7c0.2-0.5-8.1,0.7-9.3,2.3
								c-3,3.7,1.8,5.5,4.8,6.9c12,5.8,25.7,6.7,38.9,5.5c5.4-0.5,10.8-1.3,16.2-2.3c7.6-1.8,15.2-3.8,22.7-5.9
								c2.6-0.7,5.3-1.5,7.2-3.3C235.9,319.4,235.5,318,234.7,316.8"/>
							<path class="st15" d="M263.1,322.1c-0.4-0.8-0.4-1.8-0.6-2.6c-0.2-0.9-0.6-1.8-1.3-2.1c-0.7-0.3-1.4,0-1.3,0.9
								c-0.9-1.9-2-3.9-3.7-4.5c-1.7-0.5-3.4,0.7-4.8,2.1c-0.9,0.9-1.8,2-2.3,3.3c-0.1,0.2-0.1,0.4-0.2,0.6
								c-0.9-3.2-2.2-6.1-4.6-7.4c-2.4-1.3-5.3-0.4-7.5,1.4c-2.1,1.7-3.9,4.4-3.9,7.5c-1-1.8-2.4-3.5-4.1-3.9
								c-1.7-0.4-3.8,1-3.9,3.2c-0.9-2.7-2.4-5.3-4.6-6.1c-2.2-0.8-5.6,0.8-5.5,3.7c-1.6-4-5.8-5.7-9.3-4.8
								c-3.5,0.9-6.5,3.9-8.9,7.2c-0.7,1-1.4,2.2-1.7,3.5c-0.1,0.5-0.1,1-0.1,1.5c-1.2-2.1-3-3.6-5-4.2c-2.7-0.7-5.6,0.3-7.6,2.6
								c-0.7-2.9-3.8-4.2-6-3c-2.3,1.2-3.7,3.7-4.2,6.6c-2.6-3.5-5.9-6.3-9.5-8c-1.8-0.9-3.8-1.5-5.7-1.2c-2,0.3-3.9,1.5-4.8,3.7
								c-0.2-1.5-0.6-3-1.4-4.2c-1.2-1.8-3-2.7-4.9-2.9c-1.8-0.2-3.5,1-5.4,1.4c-1.1-1.5-2.2-3.1-3.5-4.2c-1.4-1.2-3-1.9-4.6-1.7
								c-1.6,0.2-3.1,1.4-4.4,2.7c-0.9,1-1.8,2.1-2.3,3.4c-1.2,0.3-3-0.3-4.3-0.3c-2.4,0-4.8,2.3-5,5.2c-0.2,2.9,2,5.9,4.3,5.5
								c3.1,6.3,10.2,9.6,16,7.6c1.6-0.5,3.3-1.9,3.4-3.8c0.1,4.5,3.4,8.1,7,9.1c3.7,1,7.6,0,11.3-1.1c0.4,2.6,2.3,4.5,4.3,5.5
								c2,1,4.4,0.6,6.1-0.9c0.3-0.3,0.6-0.6,0.9-0.6c0.6-0.1,1.2,0.4,1.7,0.9c3.5,3.3,8.1,4.2,12.5,3.7c4.4-0.5,8.6-2.3,12.7-4
								c2.5,3,6.7,4.4,10.1,3.3c3.4-1.1,6.4-3.5,9.3-6c1.5-1.3,3.1-2.7,3.7-4.8c4.2,4.3,10.8,4.5,15.2,0.5c2.8,4.1,7.7,5.5,12,4.3
								c4.3-1.1,8-4.4,11-8.4c0.6,0.5,1.7-0.4,2.3-0.9c0.6-0.5,1.1-1.3,1.5-2.1C262.6,327.2,263.1,324.7,263.1,322.1"/>
							<g class="st5">
								<g>
									<defs>
										<rect id="SVGID_71_" x="62.7" y="2.3" width="200.6" height="345.3"/>
									</defs>
									<clipPath id="SVGID_11_">
										<use xlink:href="#SVGID_71_"  style="overflow:visible;"/>
									</clipPath>
									<g class="st16">
										<defs>
											<rect id="SVGID_73_" x="116.3" y="316.4" width="146.8" height="31.1"/>
										</defs>
										<clipPath id="SVGID_12_">
											<use xlink:href="#SVGID_73_"  style="overflow:visible;"/>
										</clipPath>
										<g class="st17">
											<g>
												<defs>
													<rect id="SVGID_75_" x="116.2" y="316.3" width="147.1" height="31.4"/>
												</defs>
												<clipPath id="SVGID_13_">
													<use xlink:href="#SVGID_75_"  style="overflow:visible;"/>
												</clipPath>
												<path class="st18" d="M260.1,331.5c0.6-0.5,1.1-1.3,1.5-2.1c1-2.2,1.5-4.8,1.5-7.3c-0.4-0.8-0.4-1.8-0.6-2.6
													c0-0.1-0.1-0.2-0.1-0.3c-1,2-2.3,3.7-4,5.2c-1.9,1.6-4.4,2.9-6.8,2.4c-0.8-0.2-1.5-0.5-2.3-0.3c-0.9,0.2-1.6,1-2.3,1.7
													c-4.3,4.5-12.3,4.6-16.8,0.4c-2.7,4.2-10.1,3.9-12.5-0.6c-0.3,2.6-1.1,5.3-2.9,7.2s-5.2,2.4-7.1,0.5
													c-2.6,4-9.7,3.3-11.6-1c-1.1,3.1-4.2,5.3-7.4,5.4c-3.3,0.1-6.5-1.8-7.9-4.8c-2.9,2.7-7.1,3.8-10.9,3.1
													c-3.9-0.7-7.3-3.3-9-6.9c-1.8,2.3-4.9,3.5-7.7,3c-2.9-0.5-5.4-2.6-6.3-5.4c-3.6,2.1-8.8,0.6-10.9-3
													c-3.4,1.6-7.8,0.6-10.1-2.4c-1.2-1.5-1.1-4.3-1-6.9c-1.1,0-2.5-0.4-3.6-0.4c-2.4,0-4.8,2.3-5,5.2s2,5.9,4.3,5.5
													c3.1,6.3,10.2,9.6,16,7.6c1.6-0.5,3.3-1.9,3.4-3.8c0.1,4.5,3.4,8.1,7,9.1c3.7,1,7.6,0,11.3-1.1c0.4,2.6,2.3,4.5,4.3,5.5
													c2,1,4.4,0.6,6.1-0.9c0.3-0.3,0.6-0.6,0.9-0.6c0.6-0.1,1.2,0.4,1.7,0.9c3.5,3.3,8.1,4.2,12.5,3.7
													c4.4-0.5,8.6-2.3,12.7-4c2.5,3,6.7,4.4,10.1,3.3c3.4-1.1,6.4-3.5,9.3-6c1.5-1.3,3.1-2.7,3.7-4.8
													c4.2,4.3,10.8,4.5,15.2,0.5c2.8,4.1,7.7,5.5,12,4.3c4.3-1.1,8-4.4,11-8.4C258.5,332.8,259.5,332,260.1,331.5"/>
											</g>
										</g>
									</g>
								</g>
							</g>
							<path class="st19" d="M201.7,319.7C201.7,319.7,201.7,319.7,201.7,319.7c-2.2,2.4-3.2,6.2-1.3,8.9c4.2,6.1,17.5-3.4,12.9-9.5
								C210.5,315.5,204.6,316.6,201.7,319.7"/>
							<path class="st20" d="M208.6,328.6c0.1,0,0.1-0.1,0.2-0.1c0,0,0,0-0.1,0C208.7,328.6,208.7,328.6,208.6,328.6"/>
							<path class="st19" d="M217.7,320.3c-1.2,1.3-1.1,3.1-0.2,4.5c1.1,1.7,3.2,2.4,5,1.1c1.8-1.3,2.1-4.3,0.5-5.9
								C221.5,318.6,219.1,318.7,217.7,320.3"/>
							<path class="st19" d="M245.8,318.1c-2.2-3-8.3-3.6-9.6,1.8c-1.4,5.6,5.3,8.5,8.9,4.3C247,321.8,246.9,319.6,245.8,318.1"/>
							<path class="st19" d="M177.1,324.4c-2.3-0.1-4.2,2-4,4.3c0.2,1.8,1.6,3.2,3.4,3.3c1.9,0.2,3.6-1.1,4.1-2.9
								C181.2,326.7,179.5,324.5,177.1,324.4"/>
							<path class="st19" d="M159,320c-3-0.9-6.4,1-6.8,4.1c-0.2,1.3,0.2,2.6,1.2,3.5c1.4,1.2,3.3,0.8,5,0.6l-0.3,0
								c1.9-0.4,3.6-1.5,4-3.6C162.3,322.7,160.9,320.6,159,320"/>
							<path class="st19" d="M165.5,327.2c-3.2,1-2.1,6.1,1.3,5.6C170.5,332.1,169,326,165.5,327.2"/>
							<path class="st19" d="M190.2,330.8c-1.5-0.8-3.1-0.5-3.9,1.1c-0.6,1.4-0.1,2.9,1.2,3.7C190.7,337.4,193.2,332.4,190.2,330.8"
								/>
							<path class="st19" d="M187,338.8c-2.7-1.6-5.2,2.4-2.4,3.8C187,343.9,189.4,340.3,187,338.8"/>
							<path class="st19" d="M205.6,335.3c-2.9-1.7-5.9,2.4-3,4.3C205.4,341.4,208.8,337.2,205.6,335.3"/>
							<path class="st21" d="M148.9,266.1c0,0-4.2-52-33.3-70.9c0,0,29.4,9.1,35.5,58.4L148.9,266.1z"/>
							<g class="st5">
								<g>
									<defs>
										<rect id="SVGID_77_" x="62.7" y="2.3" width="200.6" height="345.3"/>
									</defs>
									<clipPath id="SVGID_14_">
										<use xlink:href="#SVGID_77_"  style="overflow:visible;"/>
									</clipPath>
									<g class="st22">
										<defs>
											<rect id="SVGID_79_" x="122.5" y="200.8" width="28.5" height="65.3"/>
										</defs>
										<clipPath id="SVGID_15_">
											<use xlink:href="#SVGID_79_"  style="overflow:visible;"/>
										</clipPath>
										<g class="st23">
											<g>
												<defs>
													<rect id="SVGID_81_" x="122.3" y="200.6" width="28.8" height="65.5"/>
												</defs>
												<clipPath id="SVGID_16_">
													<use xlink:href="#SVGID_81_"  style="overflow:visible;"/>
												</clipPath>
												<path class="st24" d="M148.9,266.1l2.2-12.5c-0.6-5.2-1.6-9.9-2.7-14.3c-4.7-12.1-11.5-23.4-20.1-33.2
													c-1.7-2-3.6-4-5.8-5.4C145.3,222.7,148.9,266.1,148.9,266.1"/>
											</g>
										</g>
									</g>
								</g>
							</g>
							<path class="st25" d="M169.2,183.9c0,0,3.8-15.1-1.6-23c-5.4-7.9-22-2.9-42.3-23.7C105,116.3,112,120.7,112,120.7l41.4,18.7
								l16.1,16.1C169.5,155.5,176.2,169.9,169.2,183.9"/>
							<path class="st25" d="M172.9,166.4c0,0,2.2-16.9-12.3-30.7C146,121.8,112,120.7,112,120.7s22.8,21.4,45.7,30.1
								c22.9,8.7,11.4,33.1,11.4,33.1S173.8,177.3,172.9,166.4"/>
							<path class="st26" d="M140.7,128.1c5.2-2.4,11.8,3.6,15.4,6.8c0.7,0.6,9.5,9.2,6,10.5c-3.4,1.3-7.6-5-9.7-6.8
								c-3.6-3-10.3-5-12-9.5C140.2,128.7,140.3,128.3,140.7,128.1"/>
							<path class="st26" d="M130.6,126.7c1-0.9,2.2-0.7,3.5-0.5c0.5,0.1,1.2,0.2,1.7,0.4c0.6,0.2,0.9,0.7,1.4,1.1
								c0.1,0.1,0.2,0.3,0.1,0.5c-0.4,0.5-0.7,1-1.3,1.3c-0.6,0.3-1.4,0.4-2.1,0.4c-1.3,0-3-0.3-3.5-1.7
								C130.1,127.6,130.2,127.1,130.6,126.7"/>
							<path class="st25" d="M181,16.6c-9.8,14.9-11.7,30.9-11.6,41.9l-0.6,3.8c-5.8,33-1.5,52.3,0.7,59.2c1,3.1,1.8,6.3,2.2,9.6
								c1.9,13.3,4.1,43.7-11.3,66.8c0,0-29.8,45.1,0.5,104.1l24.9-1.9c0,0-25.9-48.9-6.1-100.1h0c7.6-11.5,13.2-55.3-2.4-88.7
								c-14.3-30.4,3.6-56.2,4.1-57c5.8-8.2,13.4-17,22-21.1C222,24.4,228,9.5,228,9.5S195-4.5,181,16.6"/>
							<g class="st5">
								<g>
									<defs>
										<rect id="SVGID_83_" x="62.7" y="2.3" width="200.6" height="345.3"/>
									</defs>
									<clipPath id="SVGID_17_">
										<use xlink:href="#SVGID_83_"  style="overflow:visible;"/>
									</clipPath>
									<g class="st27">
										<defs>
											<rect id="SVGID_85_" x="152.7" y="14.6" width="72.5" height="286.8"/>
										</defs>
										<clipPath id="SVGID_18_">
											<use xlink:href="#SVGID_85_"  style="overflow:visible;"/>
										</clipPath>
										<g class="st28">
											<g>
												<defs>
													<rect id="SVGID_87_" x="152.5" y="14.4" width="72.8" height="287.1"/>
												</defs>
												<clipPath id="SVGID_19_">
													<use xlink:href="#SVGID_87_"  style="overflow:visible;"/>
												</clipPath>
												<path class="st29" d="M220.2,19.7c-9.1,8.3-20.8,13.3-30.2,21.3c-10.7,9.1-18,22.1-20.3,36c-2,12.1-0.2,24.8,5.1,35.9
													c0,0,10.5,26.2,7,61.1c-0.6,6.2-2.2,12.3-4.9,17.9c-3.9,8.3-9.8,23.6-10.1,39.6c-0.4,23.6,4,45-3.8,49
													c-3,1.6-6.8,1.9-10.2,1.7c0.7,2.1,1.4,4.3,2.3,6.5c6.9,19.8,16,10.1,21.1,12.4l5.1-0.4c0.6-1.3,1.4-3.3,2.2-5.8
													c0.3-0.9-1.7-4.3-2.1-5.2c-0.9-2.3-1.7-4.7-2.4-7.1c-1.9-6-3.4-12.1-4.5-18.3c-2.8-15.8-2.9-32.2,0.6-47.9
													c1.1-4.9,2.3-9.8,4.3-14.4c5.3-12.8,7.9-25.1,8.1-39c0.2-14.9-1.8-30.1-6.9-44.2c-0.9-2.5-1.9-4.9-3-7.3l-0.1,0.1
													l0.1-0.1c-14.3-30.4,3.6-56.2,4.1-57c5.8-8.2,13.4-17,22-21.1c11.6-5.6,18.3-13.6,21.6-18.7
													C223.6,16.3,222,18.1,220.2,19.7"/>
											</g>
										</g>
									</g>
								</g>
							</g>
							<path class="st21" d="M213,13.2c-8.5-1.4-17.4,0.7-24.4,5.6c-8.4,6-13.7,15.7-16.2,25.7c-2.5,10-2,17.8-2.2,28.1
								c1.9-15.6,8.7-30.7,18.7-42.9C195.2,22.2,203.3,15.4,213,13.2"/>
							<path class="st25" d="M170.1,72.7c0,0-18.5-31.5-39.4-39.4C109.9,25.4,102,9.9,102,9.9s34.4-18.5,51.7,3.1
								C175,39.7,170.1,72.7,170.1,72.7"/>
							<path class="st21" d="M162.4,40.7c-2.4-5.1-5.2-10.1-9.2-14.1c-8.8-8.7-21.6-10.5-33.7-12.6c14.7,2.4,27.5,12.1,36.1,24.3
								c7.2,10.2,11.6,22.1,14.5,34.2c0.1,0.1,0.1,0.1,0.1,0.1s0.3-1.8,0.4-4.9C169.1,58.5,166.3,49.3,162.4,40.7"/>
							<path class="st25" d="M185.7,141.6c0,0-2.8-14.4,2.8-21.6c5.6-7.2,20.9-1.6,41.2-20.1c20.3-18.5,13.4-14.7,13.4-14.7
								l-40.1,15.4l-16,14.3C186.9,114.9,179.8,128,185.7,141.6"/>
							<path class="st25" d="M183.1,124.9c0,0-1.2-16,13.3-28.3c14.5-12.3,46.6-11.4,46.6-11.4s-22.7,18.9-44.8,25.8
								c-22.1,6.9-12.6,30.5-12.6,30.5S181.7,135.1,183.1,124.9"/>
							<path class="st26" d="M215.6,90.6c-4.8-2.6-11.3,2.7-14.9,5.6c-0.7,0.5-9.5,8.1-6.3,9.5c3.2,1.4,7.5-4.3,9.6-5.9
								c3.6-2.6,10-4.1,11.9-8.3C216,91.2,216,90.8,215.6,90.6"/>
							<path class="st26" d="M225.2,89.8c-0.9-0.9-2.1-0.8-3.3-0.6c-0.5,0.1-1.1,0.1-1.6,0.3c-0.6,0.2-0.9,0.6-1.4,1
								c-0.1,0.1-0.2,0.3-0.1,0.5c0.4,0.5,0.6,1,1.1,1.3c0.6,0.3,1.3,0.4,2,0.5c1.3,0.1,2.9-0.2,3.4-1.4
								C225.6,90.8,225.6,90.2,225.2,89.8"/>
							<path class="st26" d="M178.5,136.1c-1.4-8-3.3-18-8.2-24.6c0,0-0.1,0-0.1,0c0.4,3.8,1.7,7.4,2.6,11.1c1.1,4.6,1.9,9.3,2.5,14
								c1.1,8.1,0.5,16.4,2.2,24.4c0.1,0.6,1,0.5,1.1,0C181.2,153.1,179.9,144.1,178.5,136.1"/>
							<path class="st26" d="M177.4,167c-0.2-0.3-0.7-0.7-1.1-0.4c-0.9,0.6-0.8,1.9-0.9,2.9c-0.1,1.2-0.4,2.5-0.2,3.7
								c0.1,0.4,0.6,0.6,0.9,0.4c1.3-0.9,1.9-2.7,1.9-4.3C178,168.5,177.9,167.6,177.4,167"/>
							<path class="st25" d="M123.9,199.8c0,0-39.1-27-56.6,3c0,0,7.5-3.9,19.7,3C99.2,212.6,120.7,211.6,123.9,199.8"/>
							<path class="st25" d="M143.9,231.5c0,0-15.9-18.7-44.6-4.2C99.3,227.3,120.9,248.4,143.9,231.5"/>
							<g class="st5">
								<g>
									<defs>
										<rect id="SVGID_89_" x="62.7" y="2.3" width="200.6" height="345.3"/>
									</defs>
									<clipPath id="SVGID_20_">
										<use xlink:href="#SVGID_89_"  style="overflow:visible;"/>
									</clipPath>
									<g class="st30">
										<defs>
											<rect id="SVGID_91_" x="110.5" y="225.9" width="33.4" height="7"/>
										</defs>
										<clipPath id="SVGID_21_">
											<use xlink:href="#SVGID_91_"  style="overflow:visible;"/>
										</clipPath>
										<g class="st31">
											<g>
												<defs>
													<rect id="SVGID_93_" x="110.3" y="225.8" width="33.7" height="7.3"/>
												</defs>
												<clipPath id="SVGID_22_">
													<use xlink:href="#SVGID_93_"  style="overflow:visible;"/>
												</clipPath>
												<path class="st32" d="M143.7,231.4c-0.8-0.6-2-1.2-3.6-1.7c-9.4-3.5-19.7-4.6-29.7-3.1c8.5,0.4,17,1.8,25.2,4.1
													c2.1,0.6,4.2,1.3,6.1,2.3c0.7-0.4,1.4-0.9,2-1.4C143.9,231.5,143.8,231.4,143.7,231.4"/>
											</g>
										</g>
									</g>
								</g>
							</g>
							<path class="st21" d="M79.1,194.2c9.2-0.4,17.8,1.1,26.9,2.8c5.8,1.1,11.9,2.3,16.7,5.5c0.5-0.8,0.9-1.7,1.2-2.7
								c0,0-0.6-0.4-1.6-1C109,192.4,93.5,190.6,79.1,194.2"/>
							<path class="st25" d="M174.3,256.7c0,0,4.8-19.7,31.2-23.2C205.6,233.5,203.4,261.3,174.3,256.7"/>
							<path class="st21" d="M182.7,249.2c-2.5,1.7-5.7,3.7-7.9,6.2c-0.3,0.9-0.4,1.4-0.4,1.4c0.6,0.1,1.2,0.2,1.8,0.2
								c0.7-0.6,1.3-1.2,2.1-1.7c1.7-1.1,3.6-1.8,5.3-2.8c5.6-3.2,9.4-8.7,12-14.6C191.7,242.1,187.4,245.9,182.7,249.2"/>
							<path class="st25" d="M191.1,218.3c0,0-9.7-14.4,7.5-36.1C198.5,182.1,211.1,204.9,191.1,218.3"/>
							<path class="st21" d="M197.1,189.4c-0.4,5-2.8,9.5-4.4,14.2c-0.8,2.4-3.2,11.6,0.1,13.4c0.6-0.5,1.2-1,1.7-1.4
								c0-1.2-0.3-2.8-0.4-3.4c-0.1-2.7,0.2-5.5,0.8-8.1C196.2,199.2,198.7,194.1,197.1,189.4"/>
							<path class="st25" d="M171.4,270.8c-1-3.9-1.5-42.4,28.9-60.1c30.5-17.7,35.2-49.3,35.2-49.3s-1.8,31.2-35.2,56.7
								c-33.4,25.4-24.8,69.5-24.8,69.5L171.4,270.8z"/>
							<g class="st5">
								<g>
									<defs>
										<rect id="SVGID_95_" x="62.7" y="2.3" width="200.6" height="345.3"/>
									</defs>
									<clipPath id="SVGID_23_">
										<use xlink:href="#SVGID_95_"  style="overflow:visible;"/>
									</clipPath>
									<g class="st33">
										<defs>
											<rect id="SVGID_97_" x="172.9" y="172.4" width="60.1" height="107.5"/>
										</defs>
										<clipPath id="SVGID_24_">
											<use xlink:href="#SVGID_97_"  style="overflow:visible;"/>
										</clipPath>
										<g class="st34">
											<g>
												<defs>
													<rect id="SVGID_99_" x="172.8" y="172.3" width="60.3" height="107.7"/>
												</defs>
												<clipPath id="SVGID_25_">
													<use xlink:href="#SVGID_99_"  style="overflow:visible;"/>
												</clipPath>
												<path class="st35" d="M232.9,172.4c-3.8,15.4-14.4,28.4-26.6,38.6c-5.8,4.8-12,9.1-17.2,14.6c-3.7,3.8-6.9,8.2-9.3,13
													c-4.3,8.3-6.7,17.6-6.8,27c0,2.3,0.3,4.5,0.2,6.8c-0.1,1.8-0.6,3.4,0,5.2c0.3,1.1,0.9,1.9,1.5,2.5
													c-0.8-13.7,0.8-42.9,25.6-61.8c20.6-15.6,29.2-33.5,32.7-44.9C233,172.9,233,172.6,232.9,172.4"/>
											</g>
										</g>
									</g>
								</g>
							</g>
							<path class="st25" d="M230.2,180.8c0,0-4.2-19.9,6.8-44.2c11-24.4,8.6-27.3,8.6-27.3S271.8,164.7,230.2,180.8"/>
							<path class="st21" d="M229.6,174.9c0.2,3.7,0.7,5.9,0.7,5.9c0.8-0.3,1.5-0.6,2.2-1c0.6-2.6,1.4-5.2,2.3-7.7
								c2.1-5.7,4.7-11.3,6.2-17.3c1.8-7.3,1.9-14.8,1.2-22.3C239.9,147.1,232.2,160.5,229.6,174.9"/>
							<path class="st26" d="M247.8,126.7c-0.5-1-2.1-0.5-2.1,0.6c0.1,6.5,1.9,12.8,1.7,19.5c-0.2,6.6-2.5,12.6-3.2,19.1
								c0,0.4,0.5,0.4,0.7,0.2c3.7-5.4,4.5-12.9,5-19.3C250.4,140.4,250.6,132.6,247.8,126.7"/>
							<path class="st26" d="M193.5,249.6c-1.6,0.7-2.8,2.2-4.3,3.1c-1.6,0.9-3.4,1.3-5.1,2.1c0,0,0,0,0,0
								c3.1,2.1,10.2-0.6,10.2-4.7C194.3,249.9,193.9,249.5,193.5,249.6"/>
							<path class="st26" d="M198.9,244.2c-1.4,0.7-2.3,1.9-3.3,3c-0.4,0.4,0.1,1.2,0.7,0.8c1.3-0.9,2.6-1.9,3.2-3.5
								C199.5,244.3,199.2,244.1,198.9,244.2"/>
							<path class="st26" d="M127.5,233.5c-7.3-1.3-15.5-1.8-22.1-5.6c0,0-0.1,0,0,0.1c4.7,5.6,15.2,8.3,22.2,6.6
								C128,234.4,128.1,233.6,127.5,233.5"/>
							<path class="st26" d="M112.1,204.8c-2.8-1.1-5.9-0.8-8.8-1.3c-3.1-0.5-6-1.5-9-2.3c-5.3-1.4-10.4-2.4-15.8-1.5
								c0,0,0,0.1,0,0.1c6.4,1.1,12.2,3.8,18.4,5.7c4.5,1.4,11.2,3.6,15.4,0.5C112.8,205.7,112.7,205.1,112.1,204.8"/>
							<path class="st26" d="M118.5,202.8c-1.2-0.9-3,0.5-3.7,1.5c-0.2,0.3,0,0.8,0.4,0.9c1.3,0.2,3.4-0.3,3.6-1.9
								C118.8,203.1,118.7,202.9,118.5,202.8"/>
							<path class="st26" d="M165,198.7c0-0.1-0.1-0.1-0.1,0c-6.7,6-9.1,18-11.1,26.4c-2,8.4-4.2,17.9-0.7,26.1c0.3,0.8,1.7,0.8,2,0
								c3.9-8.4,3.9-18.6,5.9-27.6C162.9,215.8,166.8,206.7,165,198.7"/>
							<path class="st26" d="M158.3,261.1c-0.3-1.1-0.9-2.3-1.8-3c-0.7-0.5-1.7-0.4-2,0.5c-0.6,2.2,0.4,4.9,2.4,5.9
								c0.3,0.2,0.7,0.1,0.9-0.2C158.5,263.2,158.7,262.3,158.3,261.1"/>
						</g>
					</g>
				</g>
			</g>
		</g>
	</g>
</g>
</svg>
