<svg id="Group_1044" data-name="Group 1044" xmlns="http://www.w3.org/2000/svg" xmlns:xlink="http://www.w3.org/1999/xlink" width="32.954" height="24.827" viewBox="0 0 32.954 24.827">
  <defs>
    <clipPath id="clip-path">
      <rect id="Rectangle_341" data-name="Rectangle 341" width="32.954" height="24.827" fill="#fff"/>
    </clipPath>
  </defs>
  <g id="Group_1043" data-name="Group 1043" clip-path="url(#clip-path)">
    <path id="Path_884" data-name="Path 884" d="M.509,5.654A5.976,5.976,0,0,0,.894,4.98h0l.029-.038L.938,4.9a3.668,3.668,0,0,0,.343-.594l0,0,.033-.046a.018.018,0,0,0,.012-.026A.25.25,0,0,0,1.4,4.1v0a.22.22,0,0,0,.077-.131.086.086,0,0,0,.047-.083L1.575,3.8v0c.043-.053.1-.1.08-.179l0,0c.065-.01.073-.065.087-.114l0,0a.209.209,0,0,0,.079-.132.083.083,0,0,0,.046-.083l.047-.082,0,0a.206.206,0,0,0,.08-.133h0l.871-1.451.1-.149L3.511.925,3.554.883A5.134,5.134,0,0,1,4.99.157,8.6,8.6,0,0,1,5.962,0h.253l.8.115A5.713,5.713,0,0,1,8.326.674c.454.286.917.556,1.393.8l.077.043.05.032.087.048a1.966,1.966,0,0,0,.457.261l0,0,.051.034.631.368.04.016a4.685,4.685,0,0,0,.636.37.022.022,0,0,0,.029.013.236.236,0,0,0,.14.082h0l.041.029.038.015.048.032a.021.021,0,0,0,.029.012.24.24,0,0,0,.142.083l0,0,.042.03a.03.03,0,0,0,.036.014.508.508,0,0,0,.219.128l0,0a.215.215,0,0,0,.132.078.085.085,0,0,0,.083.047l.082.048,0,0a.218.218,0,0,0,.133.078.08.08,0,0,0,.081.046l.041.028.042.021c.442.278.895.537,1.354.784l.013.013h.019l.054.035a.089.089,0,0,0,.084.047l.5.319.09.061.122.1a.124.124,0,0,0,.087.073l.044.039,0,0,.04.037.005,0,.037.035.007.006.245.257a.424.424,0,0,0,.138.167l.032.038.037.049a.237.237,0,0,0,.089.126h0a4.893,4.893,0,0,1,.6,1.392,5.985,5.985,0,0,1,.086,1.141l-.013.21-.151.678c-.063.163-.113.333-.192.488-.16.318-.335.629-.5.943h0a.207.207,0,0,0-.079.132.08.08,0,0,0-.045.08.077.077,0,0,0-.041.085,12.088,12.088,0,0,0,1.388.825.936.936,0,0,0,.279.154,1.6,1.6,0,0,0,.406.241c.432.29.432.29.678-.164.01-.018.016-.038.024-.057l.423-.7.054-.081.037-.047a.413.413,0,0,0,.132-.167l.357-.377a.071.071,0,0,0,.064-.054l.039-.035,0,0,.044-.038h0l.05-.042.081-.061.031-.027.006,0a4.843,4.843,0,0,1,1.542-.7l.065-.013a5.112,5.112,0,0,1,1.6,0l.013.011.017,0a6.065,6.065,0,0,1,1.079.421c.132.077.27.143.4.214v0l.047.033.01.012h.015a.251.251,0,0,0,.145.084l0,0a.22.22,0,0,0,.132.078.085.085,0,0,0,.083.046l.082.048h0l.175.107a.036.036,0,0,0,.035.01l.044.034a4.206,4.206,0,0,0,.6.344c.443.27.888.535,1.348.775.439.284.895.538,1.354.786a.03.03,0,0,0,.031.013,4.047,4.047,0,0,0,.645.373l1.346.781a5.477,5.477,0,0,1,1.232.932,4.562,4.562,0,0,1,.828,1.35l.148.528a.085.085,0,0,0,.025.093v0l.062.708-.015.454-.2.855-.018.064-.027.062a.043.043,0,0,0-.009.039l-.246.512-.353.617c-.423.683-.82,1.381-1.207,2.085l-.8,1.324-.1.147-.548.553-.04.032a4.613,4.613,0,0,1-1.432.739,8.531,8.531,0,0,1-.972.158h-.253l-.8-.115a5.7,5.7,0,0,1-1.307-.56q-.681-.43-1.394-.8a.466.466,0,0,0-.248-.126.916.916,0,0,0-.295-.17,2.029,2.029,0,0,0-.558-.333.09.09,0,0,0-.082-.044,6.569,6.569,0,0,0-.843-.5.022.022,0,0,0-.029-.013.235.235,0,0,0-.14-.082h0L21,22.053l-.038-.015-.047-.032a.021.021,0,0,0-.028-.013.241.241,0,0,0-.142-.083l0,0-.042-.03a.03.03,0,0,0-.035-.014.5.5,0,0,0-.219-.128l0,0a.214.214,0,0,0-.132-.078.085.085,0,0,0-.083-.046l-.082-.048,0,0a.221.221,0,0,0-.133-.078.084.084,0,0,0-.083-.047c-.5-.312-1-.6-1.522-.88a.087.087,0,0,0-.084-.047l-.5-.319-.09-.061-.122-.1a.124.124,0,0,0-.087-.073l-.044-.039,0,0-.039-.037-.005,0-.037-.035-.007-.006-.245-.257a.422.422,0,0,0-.138-.167l-.032-.038-.037-.049a.235.235,0,0,0-.089-.126h0a4.788,4.788,0,0,1-.451-.914c-.084-.263-.149-.532-.222-.8a.1.1,0,0,0-.018-.105l.02-.926.151-.676a7.943,7.943,0,0,1,.635-1.329v0a.13.13,0,0,0,.061-.1l0,0,.032-.045a.294.294,0,0,0,.094-.168.077.077,0,0,0,.041-.085c0-.034-.022-.048-.045-.061l-1.343-.763a.9.9,0,0,0-.279-.156,1.6,1.6,0,0,0-.406-.241c-.1-.062-.208-.118-.3-.186s-.146-.054-.206.053c-.2.356-.408.7-.614,1.056l-.054.081-.037.047,0,0-.093.119-.036.043-.357.377a.07.07,0,0,0-.064.055l-.038.035,0,0-.044.038h0l-.048.042,0,0a.217.217,0,0,0-.119.092l0,0a4.885,4.885,0,0,1-1.541.705l-.066.013-.375.048-.085.008-.636.005-.677-.106a6.827,6.827,0,0,1-1.392-.63l-.008-.012-.015,0a.251.251,0,0,0-.145-.084l0,0a.221.221,0,0,0-.132-.078.085.085,0,0,0-.083-.046l-.082-.048h0c-.053-.043-.1-.1-.179-.08l0,0c-.01-.068-.066-.07-.116-.082h0c-.006-.02-.013-.038-.04-.031-.058-.03-.1-.1-.171-.1-.023-.122-.127-.108-.212-.126h0c-.481-.3-.973-.585-1.475-.853-.438-.284-.895-.538-1.354-.786a.03.03,0,0,0-.031-.013,4.132,4.132,0,0,0-.645-.373l-1.346-.781a5.637,5.637,0,0,1-1.217-.917A4.768,4.768,0,0,1,.233,8.971L.084,8.443A.085.085,0,0,0,.059,8.35v0L0,7.64l.015-.455.2-.854.054-.164.246-.512m2.748.334-.032.045a.305.305,0,0,0-.094.17,3.792,3.792,0,0,0-.382.674,1.114,1.114,0,0,0-.2.8,1.332,1.332,0,0,0,.627,1.144c.366.241.76.44,1.142.657l1.295.743c.457.294.932.557,1.408.819l.039.017a4.367,4.367,0,0,0,.636.37l1.265.727L9,12.188l.042.019.8.479a1.294,1.294,0,0,0,.552.226,1.172,1.172,0,0,0,.633-.006c.023.006.041,0,.05-.022h0a1.085,1.085,0,0,0,.545-.257,2.524,2.524,0,0,0,.618-.892c.061-.1.119-.2.185-.3.054-.08.05-.13-.041-.181-.437-.244-.871-.493-1.306-.74a2.08,2.08,0,0,0-.225-.144,1.5,1.5,0,0,1-.783-.725,1.309,1.309,0,0,1-.033-.6,1.1,1.1,0,0,1,1.034-.811,1.569,1.569,0,0,1,.646.23c.141.089.292.161.439.241.421.25.84.5,1.262.747.047.028.107.092.156,0a7.648,7.648,0,0,0,.581-1.087A.208.208,0,0,0,14.2,8.2l.018-.053a1.2,1.2,0,0,0,.009-.466.693.693,0,0,0-.007-.1A1.712,1.712,0,0,0,13.1,6.374l-.079-.045a3.158,3.158,0,0,0-.593-.341c-.425-.271-.863-.52-1.308-.757q-.68-.433-1.4-.806A.571.571,0,0,0,9.511,4.3a2.113,2.113,0,0,0-.46-.266l-.682-.4a.033.033,0,0,0-.036-.014,4.287,4.287,0,0,0-.641-.374.085.085,0,0,0-.083-.046L7.527,3.16l0,0-.045-.032a.311.311,0,0,0-.171-.094.1.1,0,0,0-.084-.046,2.193,2.193,0,0,0-.736-.372,1.063,1.063,0,0,0-.827,0,1.032,1.032,0,0,0-.59.336h0L5.034,3l-.042.045a1.95,1.95,0,0,0-.378.589c-.271.44-.534.885-.773,1.344l0,0a.218.218,0,0,0-.08.135h0l-.029.041-.014.038-.032.048a.02.02,0,0,0-.013.028,2.048,2.048,0,0,0-.253.437l0,0L3.4,5.738a.026.026,0,0,0-.013.033l-.035.055a.085.085,0,0,0-.046.084l-.048.082,0,0M25.423,21.661l.045.032a.3.3,0,0,0,.17.094l.04.029a2.2,2.2,0,0,0,.933.434,1.027,1.027,0,0,0,.675-.042,1.039,1.039,0,0,0,.592-.335.148.148,0,0,0,.084-.086,1.97,1.97,0,0,0,.377-.591l.778-1.346c.278-.442.538-.895.783-1.356l.092-.163a2.151,2.151,0,0,0,.289-.513,1.122,1.122,0,0,0,.125-.674A1.267,1.267,0,0,0,30,16.186a6.688,6.688,0,0,0-1.351-.836l-1.3-.751c-.454-.291-.924-.555-1.4-.811l-.049-.024a4.407,4.407,0,0,0-.636-.37l-1.265-.727-.042-.028-.042-.019c-.243-.146-.485-.294-.73-.437a1.556,1.556,0,0,0-.624-.27,1.17,1.17,0,0,0-.68.025,1.065,1.065,0,0,0-.472.207,2.391,2.391,0,0,0-.7.947c-.061.1-.119.2-.185.3-.054.08-.051.13.041.181.437.244.871.493,1.307.74.076.049.148.1.227.145a1.524,1.524,0,0,1,.781.723,1.306,1.306,0,0,1,.033.6,1.1,1.1,0,0,1-1.034.811,1.641,1.641,0,0,1-.679-.25c-.2-.124-.411-.231-.617-.346q-.533-.316-1.065-.631c-.046-.027-.1-.072-.139.009a8.18,8.18,0,0,0-.585,1.089,1.1,1.1,0,0,0-.07.677.509.509,0,0,0,0,.083,1.7,1.7,0,0,0,1.13,1.227l.079.045a3.187,3.187,0,0,0,.593.341c.425.271.863.52,1.308.757.45.3.931.538,1.4.806l.229.135c.124.075.245.157.373.224a5.312,5.312,0,0,0,.8.435,3.078,3.078,0,0,0,.625.377l.007.012.013,0a.254.254,0,0,0,.147.086Z" transform="translate(0.001 0.001)" fill="#fff"/>
  </g>
</svg>
