<svg xmlns="http://www.w3.org/2000/svg" width="11.105" height="21.274" viewBox="0 0 11.105 21.274">
  <path id="Path_37" data-name="Path 37" d="M7.261,16.812c0,1.439-.008,2.879.005,4.318,0,.348-.09.482-.467.472-.98-.026-1.962-.007-2.943-.007-.6,0-.607-.009-.607-.622q0-4.2,0-8.4c0-.582,0-.583-.591-.585-.746,0-1.492-.011-2.237,0-.318.006-.432-.1-.425-.431C.022,10.552.02,9.544,0,8.537c-.006-.365.14-.486.486-.48.772.012,1.544-.008,2.316.007.341.007.454-.123.456-.461a27.75,27.75,0,0,1,.107-3.409A4.282,4.282,0,0,1,5.082,1.228,4.321,4.321,0,0,1,7.6.341a24.738,24.738,0,0,1,3.019.075c.339.033.493.162.489.511q-.016,1.315,0,2.63c0,.322-.136.438-.451.432q-1.02-.018-2.041.005A1.293,1.293,0,0,0,7.276,5.338c-.016.8,0,1.6-.015,2.394-.005.3.117.384.4.381.929-.01,1.858.011,2.787,0,.344-.006.47.112.445.456-.078,1.044-.241,2.077-.393,3.112-.041.28-.218.319-.449.318-.785,0-1.57.008-2.355-.009-.322-.007-.437.1-.434.43.012,1.465.005,2.931.005,4.4Z" transform="translate(0 -0.328)" fill="#0959b5"/>
</svg>
