<svg xmlns="http://www.w3.org/2000/svg" xmlns:xlink="http://www.w3.org/1999/xlink" width="240.14" height="353.828" viewBox="0 0 240.14 353.828">
  <defs>
    <clipPath id="clip-path">
      <rect id="Rectangle_67" data-name="Rectangle 67" width="59.777" height="45.839" transform="translate(26.884 292.848)" fill="none"/>
    </clipPath>
    <clipPath id="clip-path-2">
      <rect id="Rectangle_68" data-name="Rectangle 68" width="38.224" height="30.763" transform="translate(119.012 291.048)" fill="none"/>
    </clipPath>
    <clipPath id="clip-path-3">
      <rect id="Rectangle_69" data-name="Rectangle 69" width="129.5" height="27.469" transform="translate(74.06 326.359)" fill="none"/>
    </clipPath>
    <clipPath id="clip-path-4">
      <rect id="Rectangle_70" data-name="Rectangle 70" width="231.698" height="160.065" transform="translate(7.187 89.333)" fill="none"/>
    </clipPath>
    <clipPath id="clip-path-5">
      <rect id="Rectangle_71" data-name="Rectangle 71" width="142.201" height="172.67" transform="translate(54.793 46.052)" fill="none"/>
    </clipPath>
    <clipPath id="clip-path-6">
      <rect id="Rectangle_72" data-name="Rectangle 72" width="17.74" height="13.035" transform="translate(89.186 33.875)" fill="none"/>
    </clipPath>
    <clipPath id="clip-path-7">
      <rect id="Rectangle_73" data-name="Rectangle 73" width="5.423" height="2.92" transform="translate(81.498 33.105)" fill="none"/>
    </clipPath>
    <clipPath id="clip-path-8">
      <rect id="Rectangle_74" data-name="Rectangle 74" width="10.916" height="13.718" transform="translate(160.844 94.095)" fill="none"/>
    </clipPath>
    <clipPath id="clip-path-9">
      <rect id="Rectangle_75" data-name="Rectangle 75" width="2.36" height="4.316" transform="translate(170.327 87.991)" fill="none"/>
    </clipPath>
    <clipPath id="clip-path-10">
      <rect id="Rectangle_76" data-name="Rectangle 76" width="16.595" height="5.006" transform="translate(178.311 187.415)" fill="none"/>
    </clipPath>
    <clipPath id="clip-path-11">
      <rect id="Rectangle_77" data-name="Rectangle 77" width="3.524" height="3.341" transform="translate(196.123 183.518)" fill="none"/>
    </clipPath>
    <clipPath id="clip-path-12">
      <rect id="Rectangle_78" data-name="Rectangle 78" width="72.182" height="121.297" transform="translate(25.679 161.514)" fill="none"/>
    </clipPath>
    <clipPath id="clip-path-13">
      <rect id="Rectangle_79" data-name="Rectangle 79" width="97.295" height="113.226" transform="translate(110.738 141.537)" fill="none"/>
    </clipPath>
    <clipPath id="clip-path-14">
      <rect id="Rectangle_80" data-name="Rectangle 80" width="42.779" height="106.344" transform="translate(73.009 89.8)" fill="none"/>
    </clipPath>
    <clipPath id="clip-path-15">
      <rect id="Rectangle_81" data-name="Rectangle 81" width="30.52" height="77.782" transform="translate(126.74 54.266)" fill="none"/>
    </clipPath>
    <clipPath id="clip-path-16">
      <rect id="Rectangle_82" data-name="Rectangle 82" width="44.493" height="294.411" transform="translate(97.797 23.142)" fill="none"/>
    </clipPath>
    <clipPath id="clip-path-17">
      <rect id="Rectangle_83" data-name="Rectangle 83" width="26.09" height="29.975" transform="translate(95.567 128.456)" fill="none"/>
    </clipPath>
    <clipPath id="clip-path-18">
      <rect id="Rectangle_84" data-name="Rectangle 84" width="11.131" height="7.55" transform="translate(100.564 123.834)" fill="none"/>
    </clipPath>
    <clipPath id="clip-path-19">
      <rect id="Rectangle_85" data-name="Rectangle 85" width="2.428" height="2.736" transform="translate(112.757 131.977)" fill="none"/>
    </clipPath>
    <clipPath id="clip-path-20">
      <rect id="Rectangle_86" data-name="Rectangle 86" width="10.92" height="12.789" transform="translate(106.836 137.696)" fill="none"/>
    </clipPath>
    <clipPath id="clip-path-21">
      <rect id="Rectangle_87" data-name="Rectangle 87" width="11.506" height="29.993" transform="translate(63.451 44.604)" fill="none"/>
    </clipPath>
    <clipPath id="clip-path-22">
      <rect id="Rectangle_88" data-name="Rectangle 88" width="6.837" height="8.482" transform="translate(67.995 43.227)" fill="none"/>
    </clipPath>
    <clipPath id="clip-path-23">
      <rect id="Rectangle_89" data-name="Rectangle 89" width="1.768" height="2.337" transform="translate(74.361 52.832)" fill="none"/>
    </clipPath>
    <clipPath id="clip-path-24">
      <rect id="Rectangle_90" data-name="Rectangle 90" width="4.081" height="12.636" transform="translate(68.604 54.939)" fill="none"/>
    </clipPath>
    <clipPath id="clip-path-25">
      <rect id="Rectangle_91" data-name="Rectangle 91" width="11.506" height="29.993" transform="translate(87.805 193.035)" fill="none"/>
    </clipPath>
    <clipPath id="clip-path-26">
      <rect id="Rectangle_92" data-name="Rectangle 92" width="6.837" height="8.482" transform="translate(92.35 191.657)" fill="none"/>
    </clipPath>
    <clipPath id="clip-path-27">
      <rect id="Rectangle_93" data-name="Rectangle 93" width="1.768" height="2.337" transform="translate(98.716 201.263)" fill="none"/>
    </clipPath>
    <clipPath id="clip-path-28">
      <rect id="Rectangle_94" data-name="Rectangle 94" width="4.081" height="12.636" transform="translate(92.959 203.369)" fill="none"/>
    </clipPath>
    <clipPath id="clip-path-29">
      <rect id="Rectangle_95" data-name="Rectangle 95" width="11.131" height="56.003" transform="translate(117.39 104.409)" fill="none"/>
    </clipPath>
    <clipPath id="clip-path-30">
      <rect id="Rectangle_96" data-name="Rectangle 96" width="3.239" height="8.007" transform="translate(122.922 166.144)" fill="none"/>
    </clipPath>
    <clipPath id="clip-path-31">
      <rect id="Rectangle_97" data-name="Rectangle 97" width="20.147" height="24.484" transform="translate(119.154 53.569)" fill="none"/>
    </clipPath>
    <clipPath id="clip-path-32">
      <rect id="Rectangle_98" data-name="Rectangle 98" width="12.892" height="22.453" transform="translate(131.238 51.137)" fill="none"/>
    </clipPath>
    <clipPath id="clip-path-33">
      <rect id="Rectangle_99" data-name="Rectangle 99" width="22.934" height="16.875" transform="translate(207.086 126.322)" fill="none"/>
    </clipPath>
    <clipPath id="clip-path-34">
      <rect id="Rectangle_100" data-name="Rectangle 100" width="16.061" height="16.674" transform="translate(218.553 125.14)" fill="none"/>
    </clipPath>
    <clipPath id="clip-path-35">
      <rect id="Rectangle_101" data-name="Rectangle 101" width="22.546" height="17.016" transform="translate(52.963 98.891)" fill="none"/>
    </clipPath>
    <clipPath id="clip-path-36">
      <rect id="Rectangle_102" data-name="Rectangle 102" width="20.464" height="10.67" transform="translate(50.638 94.647)" fill="none"/>
    </clipPath>
    <clipPath id="clip-path-37">
      <rect id="Rectangle_103" data-name="Rectangle 103" width="9.772" height="23.977" transform="translate(78.855 85.399)" fill="none"/>
    </clipPath>
    <clipPath id="clip-path-38">
      <rect id="Rectangle_104" data-name="Rectangle 104" width="8.518" height="15.812" transform="translate(79.909 81.324)" fill="none"/>
    </clipPath>
    <clipPath id="clip-path-39">
      <rect id="Rectangle_105" data-name="Rectangle 105" width="24.125" height="9.398" transform="translate(26.783 184.328)" fill="none"/>
    </clipPath>
    <clipPath id="clip-path-40">
      <rect id="Rectangle_106" data-name="Rectangle 106" width="15.944" height="8.266" transform="translate(22.713 184.595)" fill="none"/>
    </clipPath>
    <clipPath id="clip-path-41">
      <rect id="Rectangle_107" data-name="Rectangle 107" width="17.622" height="3.607" transform="translate(55.286 152.736)" fill="none"/>
    </clipPath>
    <clipPath id="clip-path-42">
      <rect id="Rectangle_108" data-name="Rectangle 108" width="11.94" height="3.719" transform="translate(52.559 153.846)" fill="none"/>
    </clipPath>
    <clipPath id="clip-path-43">
      <rect id="Rectangle_109" data-name="Rectangle 109" width="10.338" height="32.834" transform="translate(16.815 127.875)" fill="none"/>
    </clipPath>
    <clipPath id="clip-path-44">
      <rect id="Rectangle_110" data-name="Rectangle 110" width="7.019" height="25.458" transform="translate(12.736 129.162)" fill="none"/>
    </clipPath>
    <clipPath id="clip-path-45">
      <rect id="Rectangle_111" data-name="Rectangle 111" width="2.715" height="2.52" transform="translate(20.452 155.751)" fill="none"/>
    </clipPath>
    <clipPath id="clip-path-46">
      <rect id="Rectangle_112" data-name="Rectangle 112" width="24.232" height="19.939" transform="translate(157.583 120.569)" fill="none"/>
    </clipPath>
    <clipPath id="clip-path-47">
      <rect id="Rectangle_113" data-name="Rectangle 113" width="18.737" height="14.654" transform="translate(160.585 117.669)" fill="none"/>
    </clipPath>
    <clipPath id="clip-path-48">
      <rect id="Rectangle_114" data-name="Rectangle 114" width="1.707" height="2.846" transform="translate(158.663 133.574)" fill="none"/>
    </clipPath>
    <clipPath id="clip-path-49">
      <rect id="Rectangle_115" data-name="Rectangle 115" width="30.155" height="6.726" transform="translate(128.557 222.309)" fill="none"/>
    </clipPath>
    <clipPath id="clip-path-50">
      <rect id="Rectangle_116" data-name="Rectangle 116" width="23.319" height="4.035" transform="translate(134.609 218.549)" fill="none"/>
    </clipPath>
    <clipPath id="clip-path-51">
      <rect id="Rectangle_117" data-name="Rectangle 117" width="2.398" height="2.302" transform="translate(131.054 223.007)" fill="none"/>
    </clipPath>
    <clipPath id="clip-path-52">
      <rect id="Rectangle_118" data-name="Rectangle 118" width="15.938" height="59.601" transform="translate(96.202 202.262)" fill="none"/>
    </clipPath>
    <clipPath id="clip-path-53">
      <rect id="Rectangle_119" data-name="Rectangle 119" width="4.602" height="7.628" transform="translate(99.697 268.617)" fill="none"/>
    </clipPath>
    <clipPath id="clip-path-54">
      <rect id="Rectangle_120" data-name="Rectangle 120" width="4.975" height="21.01" transform="translate(215.411 84.077)" fill="none"/>
    </clipPath>
    <clipPath id="clip-path-55">
      <rect id="Rectangle_121" data-name="Rectangle 121" width="4.975" height="21.01" transform="translate(183.795 141.403)" fill="none"/>
    </clipPath>
    <clipPath id="clip-path-56">
      <rect id="Rectangle_122" data-name="Rectangle 122" width="12.677" height="17.265" transform="translate(41.045 117.15)" fill="none"/>
    </clipPath>
    <clipPath id="clip-path-57">
      <rect id="Rectangle_123" data-name="Rectangle 123" width="4.223" height="21.152" transform="translate(68.466 180.305)" fill="none"/>
    </clipPath>
    <clipPath id="clip-path-58">
      <rect id="Rectangle_124" data-name="Rectangle 124" width="16.257" height="13.879" transform="translate(143.899 3.492)" fill="none"/>
    </clipPath>
    <clipPath id="clip-path-59">
      <rect id="Rectangle_125" data-name="Rectangle 125" width="15.762" height="14.809" transform="translate(95.956 92.904)" fill="none"/>
    </clipPath>
    <clipPath id="clip-path-60">
      <rect id="Rectangle_126" data-name="Rectangle 126" width="15.761" height="14.809" transform="translate(148.419 200.953)" fill="none"/>
    </clipPath>
    <clipPath id="clip-path-61">
      <rect id="Rectangle_127" data-name="Rectangle 127" width="15.761" height="14.809" transform="translate(68.896 193.061)" fill="none"/>
    </clipPath>
    <clipPath id="clip-path-62">
      <rect id="Rectangle_128" data-name="Rectangle 128" width="22.719" height="21.436" transform="translate(4.761 155.636)" fill="none"/>
    </clipPath>
  </defs>
  <g id="Group_583" data-name="Group 583" transform="translate(-689 -3530)">
    <path id="Path_331" data-name="Path 331" d="M156.778,308.531a7.151,7.151,0,0,0-5.7-4.845,11.388,11.388,0,0,0-7.565,1.618,1.565,1.565,0,0,0-.245.181c1.031-5.089-.417-10.827-4.491-14.01-4.348-3.4-11.673-2.7-14.485,2.047-.816-2.815-2.482-5.638-5.225-6.672s-6.5.693-6.6,3.622c-.19-4.2-5.321-7.327-9.141-5.564.482-2.476-2.189-4.665-4.711-4.627s-3.86,2.116-5.812,3.712c-1.736-4.9-3.77-10.185-8.216-12.885a12.116,12.116,0,0,0-13.221.749,13.038,13.038,0,0,0-4.807,12.461,5.4,5.4,0,0,0-7.241,4.154,4.616,4.616,0,0,0-8.938.3,11.619,11.619,0,0,0,.215,3.619,13.718,13.718,0,0,0-9.576,23.439,3.115,3.115,0,0,0,1.006.707,5.612,5.612,0,0,0-5.138,4.378,5.3,5.3,0,0,0-5.016.746,3.143,3.143,0,0,0,.038,4.5,3.684,3.684,0,0,0-4.451,1.583,4.816,4.816,0,0,0,.218,4.907,3.92,3.92,0,0,0,1.432,1.4,4.07,4.07,0,0,0,3.927-.342,12,12,0,0,0,2.93-2.874,8.919,8.919,0,0,0,7.68,7.751,11.037,11.037,0,0,0,9.938-4.451,4.45,4.45,0,0,0,8.092.347A12.525,12.525,0,0,0,82.321,331.6c3.63-7.547,15.546-8.775,23.9-9.355s16.8-.076,25.064-1.434c7.959-1.308,15.527-4.306,23.023-7.284a6.316,6.316,0,0,0,2.345-1.351c.988-1.044.5-2.256.124-3.643" transform="translate(689 3530)" fill="#3c96d3"/>
    <g id="Group_201" data-name="Group 201" transform="translate(689 3530)" opacity="0.2" style="mix-blend-mode: overlay;isolation: isolate">
      <g id="Group_200" data-name="Group 200">
        <g id="Group_199" data-name="Group 199" clip-path="url(#clip-path)">
          <path id="Path_332" data-name="Path 332" d="M82.321,331.6a11.7,11.7,0,0,1,4.34-4.723c-.162-.067-.326-.128-.485-.2a8.336,8.336,0,0,1-8.688,2.559,7.946,7.946,0,0,0-2.833-.694c-.977.067-1.982,1-1.658,1.921A7.463,7.463,0,0,1,65,326.567a3.1,3.1,0,0,1-4.9.739c-.8-.9-1.041-2.285-2.058-2.932-.961-.61-2.206-.318-3.342-.386-3.022-.183-5.3-3.139-5.692-6.141s.675-5.993,1.89-8.766c-3.925,1.182-7.695-3.24-7.526-7.336.153-3.732,2.477-5.8,3.96-8.9a13.682,13.682,0,0,0-6.323,22.987,3.156,3.156,0,0,0,1.006.707,5.609,5.609,0,0,0-5.138,4.377,5.3,5.3,0,0,0-5.016.747,3.144,3.144,0,0,0,.038,4.5,3.683,3.683,0,0,0-4.451,1.583,4.816,4.816,0,0,0,.218,4.906,3.935,3.935,0,0,0,1.432,1.4,4.069,4.069,0,0,0,3.928-.342,12.013,12.013,0,0,0,2.929-2.873,8.917,8.917,0,0,0,7.68,7.75,11.037,11.037,0,0,0,9.938-4.45,4.45,4.45,0,0,0,8.092.347A12.524,12.524,0,0,0,82.321,331.6"/>
        </g>
      </g>
    </g>
    <g id="Group_204" data-name="Group 204" transform="translate(689 3530)" opacity="0.2" style="mix-blend-mode: overlay;isolation: isolate">
      <g id="Group_203" data-name="Group 203">
        <g id="Group_202" data-name="Group 202" clip-path="url(#clip-path-2)">
          <path id="Path_333" data-name="Path 333" d="M156.654,312.174c.988-1.044.5-2.256.124-3.643a7.149,7.149,0,0,0-5.7-4.845,11.388,11.388,0,0,0-7.565,1.618,1.565,1.565,0,0,0-.245.181c1.031-5.089-.416-10.827-4.491-14.01-.2-.154-.407-.29-.615-.427.792,3.232-.774,7.151-3.964,8.367,2.6,3.112,4.084,7.448,2.823,11.3s-5.856,6.605-9.585,5.012a20.008,20.008,0,0,1-8.422,6.081,91.739,91.739,0,0,0,12.275-1c7.959-1.308,15.527-4.306,23.023-7.284a6.3,6.3,0,0,0,2.345-1.351"/>
        </g>
      </g>
    </g>
    <path id="Path_334" data-name="Path 334" d="M151.076,303.686a11.383,11.383,0,0,0-7.565,1.619,1.5,1.5,0,0,0-.245.18c1.03-5.089-.417-10.827-4.491-14.01a10.805,10.805,0,0,0-10.61-1.272c2.5,4.4,1.477,10.848-2.836,13.717,1.99,2.452,1.04,6.336-1.222,8.54s-5.44,3.137-8.491,3.951c-8,2.135-16.973,3.876-24.193-.177a8.562,8.562,0,0,1-8.7,3.527c-1.474-.317-2.958-1.036-4.42-.667a12.805,12.805,0,0,0-2.927,1.666,6.23,6.23,0,0,1-7.632-1.444c-.035,2.651-2.889,4.667-5.528,4.419s-4.858-2.242-6.1-4.585a24.161,24.161,0,0,1-2.083-7.635c-4.464,1.518-9.341-2.279-10.668-6.8-1.047-3.57.484-7.263.938-10.656A13.91,13.91,0,0,0,38,300.925a14.06,14.06,0,0,0,3.02,14.91,3.145,3.145,0,0,0,1.006.707,5.609,5.609,0,0,0-5.138,4.377,5.3,5.3,0,0,0-5.016.747,3.142,3.142,0,0,0,.038,4.5,3.686,3.686,0,0,0-4.452,1.584,4.816,4.816,0,0,0,.219,4.906,3.925,3.925,0,0,0,1.431,1.4,4.069,4.069,0,0,0,3.928-.342,12.017,12.017,0,0,0,2.93-2.873,8.916,8.916,0,0,0,7.68,7.75,11.039,11.039,0,0,0,9.938-4.45,4.45,4.45,0,0,0,8.092.347A12.523,12.523,0,0,0,82.321,331.6c3.63-7.547,15.547-8.775,23.9-9.354s16.8-.076,25.065-1.435c7.959-1.308,15.527-4.306,23.023-7.284a6.318,6.318,0,0,0,2.345-1.351c.988-1.043.5-2.256.124-3.643a7.152,7.152,0,0,0-5.7-4.845" transform="translate(689 3530)" fill="#3682c1"/>
    <path id="Path_335" data-name="Path 335" d="M79.009,303.514c-1.725-2.142-1.174-5.381.244-7.738,2.232-3.713,6.63-6.2,10.919-5.586s7.98,4.679,7.627,9a5.968,5.968,0,0,1,10.8,2.031,3.353,3.353,0,0,1,5.157.13,4.1,4.1,0,0,1-.825,5.379,5.3,5.3,0,0,1-5.655.448,8.735,8.735,0,0,1-11.262-.168,9.026,9.026,0,0,1-5.346,5.518,18.283,18.283,0,0,1-7.81,1.071,10.315,10.315,0,0,1-4.519-.988,4.625,4.625,0,0,1-2.436-3.569c-2.27,4.8-5.142-.5-4.854-3.395.469-4.721,5.194-5.561,7.959-2.129" transform="translate(689 3530)" fill="#287faf"/>
    <path id="Path_336" data-name="Path 336" d="M197.365,331.218c.481-3.341.9-7.042-.562-9.895a5.545,5.545,0,0,0-4.394-3.16c-1.762-.111-3.564,1.433-4.673,3.138a9.979,9.979,0,0,0-2.594-7.618,6.172,6.172,0,0,0-6.583-1.538c-1.639.632-2.755,2.721-3.027,4.813a18.332,18.332,0,0,0-1.43-5.514c-.814-1.659-2.167-3.016-3.735-3.191a3.859,3.859,0,0,0-3.946,3.063c-1.254-1.512-2.618-3.1-4.349-3.47s-3.933,2.795-3.865,4.964a28.46,28.46,0,0,0-3.527-5.551,7.158,7.158,0,0,0-5.144-2.745c-1.531.011-3.466.768-3.616,2.651-1.485-1.819-3.077-3.714-5.115-4.313s-4.494,1.215-4.864,3.769a5.783,5.783,0,0,0-5.654-2.234,6.978,6.978,0,0,0-4.756,4.45c.467.032-.01.92.229.421a4.334,4.334,0,0,0-5.75-1.937c-1.976,1.074-3.012,3.9-2.578,6.5a20.693,20.693,0,0,0-3.454-5.94c-1.5-1.6-3.621-2.531-5.524-1.79-.772.3-1.779.46-1.228,1.183a7.064,7.064,0,0,0-3.864-1.765,3.805,3.805,0,0,0-2.731.609,2.891,2.891,0,0,0-1.331,2.643,9.651,9.651,0,0,0-8.631,2.521,14.917,14.917,0,0,0-4.4,9.527c-.1,1.087-.374,2.937.421,2.452a4.677,4.677,0,0,0-5.292,1.4c-1.312,1.7-1.27,4.908.365,6.071Z" transform="translate(689 3530)" fill="#26779b"/>
    <path id="Path_337" data-name="Path 337" d="M196.8,321.324a5.54,5.54,0,0,0-4.394-3.16c-1.762-.112-3.564,1.432-4.673,3.137a9.981,9.981,0,0,0-2.594-7.617,6.577,6.577,0,0,0-2.833-1.674c-.036.072-.063.149-.1.219a11.368,11.368,0,0,1-5.859,4.828,10.071,10.071,0,0,1-5.994.7,5.7,5.7,0,0,1-4.3-3.929,6.9,6.9,0,0,1-10.205.69c-2.442,1.568-5.506,1.7-8.407,1.776l-5.8.159c-2.728.074-6.183-.336-7-2.939a6,6,0,0,1-9.376-.55c-2.7,4.192-9.755,4.433-12.732.435a4.645,4.645,0,0,1-4.985,2.835,7.849,7.849,0,0,1-5.081-3.288c-2.25-2.992-1.187-5.069-.476-7.4a3.27,3.27,0,0,0-1.358.571,2.893,2.893,0,0,0-1.331,2.644,9.648,9.648,0,0,0-8.631,2.521,14.914,14.914,0,0,0-4.4,9.527,7.555,7.555,0,0,0-.042,2.329,4.59,4.59,0,0,0-4.83,1.527c-1.31,1.7-1.268,4.908.366,6.07l115.6.483c.481-3.342.9-7.042-.562-9.895" transform="translate(689 3530)" fill="#287faf"/>
    <path id="Path_338" data-name="Path 338" d="M102.179,318.133a9.217,9.217,0,0,1-7.941-7.921,8.128,8.128,0,0,1-.036-1.08,10.409,10.409,0,0,0-3.532,2.15,14.925,14.925,0,0,0-4.4,9.528,7.555,7.555,0,0,0-.042,2.329,4.586,4.586,0,0,0-4.829,1.527c-1.311,1.7-1.27,4.908.366,6.07l23.389.1c5.18-4.035-3.625-7.146-2.977-12.7" transform="translate(689 3530)" fill="#3c96d3"/>
    <path id="Path_339" data-name="Path 339" d="M108.783,327.322a6.583,6.583,0,0,1,8.681-3.227,6.738,6.738,0,0,1,8.808-2.946,4.931,4.931,0,0,0,1.7.714c1.015.1,1.885-.649,2.7-1.263,2.906-2.188,7.731-2.735,9.709.319a4.977,4.977,0,0,1,8-.6c1.3-2.806,5.844-3.247,7.661-.743a5.624,5.624,0,0,1,8.627,1.629c2.454-1.653,6.392.273,6.593,3.225,2.407-1.5,5.792-.072,7.293,2.335s1.571,5.423,1.377,8.254c-1.851-1-4.1-.723-6.18-.387-11.552,1.871-22.971,4.671-34.627,5.705s-23.793.194-34.333-4.888c-2.653-1.279-6.837-2.86-4.22-6.13,1.093-1.367,8.408-2.456,8.217-1.994" transform="translate(689 3530)" fill="#287faf"/>
    <path id="Path_340" data-name="Path 340" d="M178.549,326.762c-1.5-2.407-4.886-3.837-7.293-2.335-.2-2.952-4.139-4.879-6.593-3.225a4.583,4.583,0,0,0-1-1.4,4.018,4.018,0,0,1-1.2.664c1.632,2.078.565,5.424-1.677,6.824s-5.165,1.208-7.649.308a5.644,5.644,0,0,1-7.6-1.26,6.947,6.947,0,0,1-8.85-.336c-.557,1.567-2.534,2.232-4.158,1.877a10.421,10.421,0,0,1-4.242-2.523c-.028,1.992-2.39,3.369-4.323,2.888a5.888,5.888,0,0,1-3.868-4.2,4.839,4.839,0,0,1,.017-2.672,6.238,6.238,0,0,0-2.654,2.725,6.582,6.582,0,0,0-8.68,3.227c.191-.463-7.124.626-8.218,1.993-2.616,3.271,1.568,4.852,4.22,6.13,10.541,5.082,22.677,5.922,34.334,4.888,4.787-.424,9.534-1.153,14.266-1.986q10.058-2.4,20.022-5.163c2.27-.631,4.657-1.367,6.391-2.9a9.457,9.457,0,0,0-1.249-3.524" transform="translate(689 3530)" fill="#3c96d3"/>
    <path id="Path_341" data-name="Path 341" d="M203.558,331.444a11.152,11.152,0,0,1-.495-2.333,2.676,2.676,0,0,0-1.119-1.855c-.6-.292-1.205-.013-1.119.781-.792-1.665-1.74-3.478-3.263-3.928-1.5-.443-3.021.613-4.223,1.819a8.609,8.609,0,0,0-2.047,2.935c-.061.158-.114.323-.162.49-.757-2.787-1.9-5.38-4.013-6.5s-4.658-.338-6.615,1.216a8.674,8.674,0,0,0-3.438,6.6c-.9-1.575-2.076-3.07-3.608-3.442A2.945,2.945,0,0,0,170,330.035c-.773-2.356-2.084-4.674-4.06-5.389s-4.946.745-4.851,3.289a7.025,7.025,0,0,0-8.21-4.194c-3.128.792-5.769,3.415-7.876,6.387a8.412,8.412,0,0,0-1.525,3.085,4.561,4.561,0,0,0-.08,1.29,7.567,7.567,0,0,0-4.369-3.674,6.566,6.566,0,0,0-6.724,2.324,3.813,3.813,0,0,0-5.331-2.677c-2.009,1.015-3.281,3.233-3.725,5.854a22.787,22.787,0,0,0-8.347-7.051,9.067,9.067,0,0,0-5.07-1.082,5.483,5.483,0,0,0-4.266,3.249,9.317,9.317,0,0,0-1.231-3.692,5.745,5.745,0,0,0-4.3-2.52c-1.628-.17-3.12.862-4.73,1.233a20.61,20.61,0,0,0-3.121-3.726,5.335,5.335,0,0,0-4.091-1.494,6.992,6.992,0,0,0-3.84,2.415,8.887,8.887,0,0,0-1.988,3c-1.088.307-2.657-.283-3.772-.3-2.111-.04-4.2,2.012-4.417,4.607s1.739,5.2,3.835,4.868c2.692,5.566,9.031,8.435,14.109,6.67,1.378-.479,2.892-1.688,2.96-3.368a8.813,8.813,0,0,0,6.194,8.059c3.259.917,6.661-.042,9.924-1a6.721,6.721,0,0,0,3.8,4.868,4.848,4.848,0,0,0,5.4-.8,2.153,2.153,0,0,1,.837-.573c.543-.126,1.04.348,1.479.757a13.694,13.694,0,0,0,11.027,3.276c3.859-.426,7.572-2,11.24-3.567a8.624,8.624,0,0,0,8.879,2.951c2.992-.95,5.626-3.118,8.194-5.249a8.677,8.677,0,0,0,3.281-4.261,9.647,9.647,0,0,0,13.424.444,9.712,9.712,0,0,0,10.542,3.833c3.776-.984,7.079-3.9,9.709-7.4.563.415,1.477-.32,2.035-.753a4.833,4.833,0,0,0,1.283-1.827,14.967,14.967,0,0,0,1.325-6.446" transform="translate(689 3530)" fill="#87bfff"/>
    <g id="Group_207" data-name="Group 207" transform="translate(689 3530)" opacity="0.2" style="mix-blend-mode: overlay;isolation: isolate">
      <g id="Group_206" data-name="Group 206">
        <g id="Group_205" data-name="Group 205" clip-path="url(#clip-path-3)">
          <path id="Path_342" data-name="Path 342" d="M200.95,339.717a4.831,4.831,0,0,0,1.282-1.827,14.967,14.967,0,0,0,1.326-6.446,11.089,11.089,0,0,1-.495-2.333c-.022-.093-.054-.183-.08-.275a14.6,14.6,0,0,1-3.518,4.551c-1.673,1.431-3.863,2.534-6.022,2.1a5.367,5.367,0,0,0-2-.287,4.127,4.127,0,0,0-1.988,1.462,11.008,11.008,0,0,1-14.83.36c-2.421,3.7-8.921,3.4-10.995-.5-.307,2.3-.93,4.7-2.586,6.321s-4.614,2.1-6.254.458c-2.284,3.493-8.542,2.955-10.2-.877a7.329,7.329,0,0,1-13.519.579,11.195,11.195,0,0,1-17.608-3.315,7.13,7.13,0,0,1-12.36-2.116,7.344,7.344,0,0,1-9.619-2.657,7.6,7.6,0,0,1-8.932-2.108c-1.054-1.338-.979-3.811-.917-6.061-1.011.028-2.23-.366-3.146-.383-2.111-.04-4.2,2.011-4.417,4.607s1.739,5.2,3.835,4.868c2.691,5.566,9.031,8.435,14.109,6.67,1.378-.479,2.892-1.688,2.96-3.368a8.811,8.811,0,0,0,6.193,8.058c3.26.918,6.662-.041,9.925-1a6.721,6.721,0,0,0,3.8,4.868,4.846,4.846,0,0,0,5.4-.8,2.167,2.167,0,0,1,.837-.573c.544-.126,1.04.348,1.48.756a13.69,13.69,0,0,0,11.026,3.277c3.86-.426,7.573-2,11.241-3.567a8.623,8.623,0,0,0,8.879,2.951c2.992-.95,5.626-3.118,8.194-5.249a8.682,8.682,0,0,0,3.281-4.261,9.646,9.646,0,0,0,13.423.444,9.713,9.713,0,0,0,10.543,3.833c3.776-.984,7.079-3.9,9.709-7.4.563.415,1.476-.32,2.035-.753"/>
        </g>
      </g>
    </g>
    <path id="Path_343" data-name="Path 343" d="M149.441,329.3c-.021.022-.041.045-.061.067-1.843,2.048-2.73,5.423-1.082,7.817,3.682,5.348,15.471-3.006,11.374-8.357-2.491-3.252-7.735-2.223-10.231.473" transform="translate(689 3530)" fill="#65a8ea"/>
    <path id="Path_344" data-name="Path 344" d="M155.5,337.2c.049-.037.1-.081.163-.127l-.059.034-.1.093" transform="translate(689 3530)" fill="#603526"/>
    <path id="Path_345" data-name="Path 345" d="M163.519,329.818a3.162,3.162,0,0,0-.173,3.961,3.084,3.084,0,0,0,4.382,1.012,3.522,3.522,0,0,0,.441-5.175,3.218,3.218,0,0,0-4.65.2" transform="translate(689 3530)" fill="#65a8ea"/>
    <path id="Path_346" data-name="Path 346" d="M188.3,327.9c-1.929-2.673-7.287-3.141-8.476,1.568-1.243,4.927,4.709,7.49,7.817,3.753,1.73-2.079,1.627-3.978.659-5.321" transform="translate(689 3530)" fill="#65a8ea"/>
    <path id="Path_347" data-name="Path 347" d="M127.732,333.445a3.464,3.464,0,0,0-3.5,3.755,3.223,3.223,0,0,0,2.964,2.921,3.454,3.454,0,0,0,3.586-2.585,3.258,3.258,0,0,0-3.054-4.091" transform="translate(689 3530)" fill="#65a8ea"/>
    <path id="Path_348" data-name="Path 348" d="M111.721,329.6a4.662,4.662,0,0,0-6,3.652,3.456,3.456,0,0,0,1.027,3.1c1.267,1.1,2.883.706,4.384.49l-.234.031a3.917,3.917,0,0,0,3.484-3.137,3.835,3.835,0,0,0-2.663-4.131" transform="translate(689 3530)" fill="#65a8ea"/>
    <path id="Path_349" data-name="Path 349" d="M117.457,335.891c-2.847.921-1.9,5.418,1.135,4.919,3.271-.538,1.973-5.925-1.135-4.919" transform="translate(689 3530)" fill="#65a8ea"/>
    <path id="Path_350" data-name="Path 350" d="M139.266,339.06a2.324,2.324,0,0,0-3.408.994,2.477,2.477,0,0,0,1.066,3.267c2.794,1.565,5.007-2.816,2.342-4.261" transform="translate(689 3530)" fill="#65a8ea"/>
    <path id="Path_351" data-name="Path 351" d="M136.4,346.162c-2.354-1.406-4.584,2.094-2.107,3.37,2.148,1.106,4.287-2.068,2.107-3.37" transform="translate(689 3530)" fill="#65a8ea"/>
    <path id="Path_352" data-name="Path 352" d="M152.845,343.053c-2.562-1.5-5.191,2.139-2.633,3.8,2.436,1.581,5.472-2.139,2.633-3.8" transform="translate(689 3530)" fill="#65a8ea"/>
    <path id="Path_353" data-name="Path 353" d="M238.478,121.1a20.025,20.025,0,0,0-5.86-18.488,11.942,11.942,0,0,0-23.68-3.085c-4.5-3.428-11.2-2.993-15.923.119a18.5,18.5,0,0,0-3.135,2.561,29.334,29.334,0,0,0,1.862-15.261c-1.5-8.606-9.777-16.446-18.328-14.662a42.768,42.768,0,0,0,7.556-27.523c-.257-3.4-1.009-6.94-3.259-9.5s-6.368-3.723-9.172-1.785a38.059,38.059,0,0,0-4.2-21.579c-1.839-3.471-4.439-6.819-8.137-8.144s-8.586.178-9.823,3.907A10.173,10.173,0,0,0,126.6,11.13c-1.226-5.384-8.559-7.369-13.534-4.971a20.616,20.616,0,0,0-10.648,10.593c.288-4.753-3.606-9.085-8.2-10.351s-9.572.038-13.7,2.406A29.143,29.143,0,0,0,66.876,39.232C63.19,34.757,55.145,37.1,52.534,42.281s-1.21,11.477,1.13,16.781c-4.387-.572-8.6,2.557-10.631,6.488s-2.317,8.508-2.4,12.931A14.22,14.22,0,0,0,26.474,87.42c-2.092,5.619.618,13.906,5.48,17.413a10.855,10.855,0,0,0-2.776,8.7c-3.988,2.153-8.1,4.412-10.841,8.021s-3.717,8.976-1.048,12.638c-6.755-1.058-10.9,7.755-9.974,14.53A27.039,27.039,0,0,0,17.6,166.371c-3.251-1.256-7.087,1.046-8.422,4.266s-.663,6.952.739,10.143c4.509,10.267,16.936,16.331,27.8,13.567-4.474,2.948-3.172,10.445,1.1,13.684s10.036,3.439,15.4,3.5a9.987,9.987,0,1,0,12.2,15.766c-.528,6.8,4.327,11.611,10.883,13.486a15.411,15.411,0,0,0,17.354-7.469c.287,4.878,2.911,7.934,7.795,8.084s7.856-1.1,8.442-5.954c.377,6.963,6.6,12.825,13.507,13.786s13.985-2.425,18.481-7.755c3.064-3.633,4.937-9.369,1.795-12.935,3.1,2.925,8.119,1.062,11.881-.934,3.283-1.742,6.65-3.55,9.059-6.381s3.666-6.965,2.118-10.344c1.1,4.21,7.229,4.333,11.094,2.334,8.765-4.534,16.051-14.255,13.571-23.807,1.458,3.735,6.08,5.437,10.034,4.771s7.344-3.139,10.426-5.7c3.5-2.915,6.951-6.234,8.4-10.554s.234-9.85-3.8-11.969c6.844-1.9,13.419-6.341,15.832-13.02s-.84-15.456-7.688-17.335a20.025,20.025,0,0,0,12.879-14.5" transform="translate(689 3530)" fill="#e5d100"/>
    <g id="Group_210" data-name="Group 210" transform="translate(689 3530)" opacity="0.2" style="mix-blend-mode: overlay;isolation: isolate">
      <g id="Group_209" data-name="Group 209">
        <g id="Group_208" data-name="Group 208" clip-path="url(#clip-path-4)">
          <path id="Path_354" data-name="Path 354" d="M238.478,121.1a20.025,20.025,0,0,0-5.86-18.488,11.879,11.879,0,0,0-22.059-7.386c6.278,8.316,11.87,17.23,13.557,27.4,2.09,12.6-4.044,27.527-16.374,30.866,4.716,14.324-4.449,31.651-18.944,35.813-2.868.824-5.955,1.229-8.406,2.931-2.37,1.644-3.817,4.275-5.313,6.741-3.167,5.224-7.065,10.249-12.427,13.177s-12.455,3.327-17.335-.349a23.282,23.282,0,0,1-43.1,3.083c-8.049,5.284-19.517,1.3-25.64-6.129s-8.243-17.278-10.171-26.711c-7.807.179-14.548-6.207-17.327-13.5s-2.46-15.356-2.1-23.157c-17.03-.5-23.008-12.317-27.184-25.489a17.3,17.3,0,0,0-1.458,1.655c-2.739,3.61-3.717,8.976-1.048,12.638-6.755-1.058-10.9,7.755-9.974,14.53A27.039,27.039,0,0,0,17.6,166.371c-3.251-1.256-7.087,1.046-8.422,4.266s-.663,6.952.739,10.143c4.509,10.267,16.936,16.331,27.8,13.567-4.474,2.948-3.172,10.445,1.1,13.684s10.036,3.439,15.4,3.5a9.987,9.987,0,1,0,12.2,15.766c-.528,6.8,4.327,11.611,10.883,13.486a15.411,15.411,0,0,0,17.354-7.469c.287,4.878,2.911,7.934,7.795,8.084s7.856-1.1,8.442-5.954c.377,6.963,6.6,12.825,13.507,13.786s13.985-2.425,18.481-7.755c3.064-3.633,4.937-9.369,1.795-12.935,3.1,2.925,8.119,1.062,11.881-.934,3.283-1.742,6.65-3.55,9.059-6.381s3.666-6.965,2.118-10.344c1.1,4.21,7.229,4.333,11.094,2.334,8.765-4.534,16.051-14.255,13.571-23.807,1.458,3.735,6.08,5.437,10.034,4.771s7.344-3.139,10.426-5.7c3.5-2.915,6.951-6.234,8.4-10.554s.234-9.85-3.8-11.969c6.844-1.9,13.419-6.341,15.832-13.02s-.84-15.456-7.688-17.335a20.025,20.025,0,0,0,12.879-14.5"/>
        </g>
      </g>
    </g>
    <g id="Group_213" data-name="Group 213" transform="translate(689 3530)" opacity="0.2" style="mix-blend-mode: overlay;isolation: isolate">
      <g id="Group_212" data-name="Group 212">
        <g id="Group_211" data-name="Group 211" clip-path="url(#clip-path-5)">
          <path id="Path_355" data-name="Path 355" d="M72.453,198.451c-3.146-3.2-5.332-7.607-4.909-12.072s3.966-8.726,8.44-9.054c-6.678-.71-9.543-11.074-4.179-15.113-4.551-2.344-9.443-5.045-11.424-9.766s1.267-11.63,6.346-10.988c-5.491-5.644-10.69-12.21-11.776-20.009s3.494-16.847,11.268-18.1A23.049,23.049,0,0,1,86.852,68.6c-1.191-4,.535-8.437,3.452-11.419s6.849-4.742,10.788-6.116c2.284-.8,4.731-1.494,7.095-.982s4.548,2.637,4.3,5.043c1.2-6.726,9.444-10.2,16.121-8.752s12.024,6.28,17.027,10.932c4.3-3.349,10.953-2.39,15.016,1.246s5.814,9.31,5.879,14.763c.02,1.7-.079,3.51.775,4.981.882,1.519,2.577,2.328,4.088,3.227a24.329,24.329,0,0,1,10.433,27.395c9.932,2.549,15.028,16.114,9.23,24.572,2.986,4.056,5.768,8.6,5.933,13.639s-3.223,10.5-8.239,10.942a15.088,15.088,0,0,1-15,22.1c4.4,6.458-.119,15.907-7.07,19.477s-15.22,2.953-23,2.248a22.884,22.884,0,0,1-36.616,11.658c-9.691.97-10.964-2.077-17.86-6.745-5.34-3.615-11.819-3.345-16.75-8.357" fill="#fff"/>
        </g>
      </g>
    </g>
    <path id="Path_356" data-name="Path 356" d="M113.066,75.69s2.359-11.593-2.045-17.411-16.812-1.44-32.938-16.5S67.451,29.833,67.451,29.833L99.558,42.556,112.32,54.17s5.609,10.638.746,21.52" transform="translate(689 3530)" fill="#bfa800"/>
    <path id="Path_357" data-name="Path 357" d="M115.251,62.269a29.209,29.209,0,0,0-10.467-22.882C93.235,29.4,67.45,29.833,67.45,29.833S85.541,45.27,103.2,51.022s9.865,24.668,9.865,24.668,3.244-5.162,2.185-13.421" transform="translate(689 3530)" fill="#ceb500"/>
    <g id="Group_216" data-name="Group 216" transform="translate(689 3530)" opacity="0.2" style="mix-blend-mode: overlay;isolation: isolate">
      <g id="Group_215" data-name="Group 215">
        <g id="Group_214" data-name="Group 214" clip-path="url(#clip-path-6)">
          <path id="Path_358" data-name="Path 358" d="M89.463,34.394c3.883-2.011,9.066,2.312,11.937,4.637.551.446,7.528,6.634,4.961,7.717s-5.954-3.529-7.634-4.791c-2.832-2.128-8-3.423-9.477-6.784a.583.583,0,0,1,.213-.779" fill="#fff"/>
        </g>
      </g>
    </g>
    <g id="Group_219" data-name="Group 219" transform="translate(689 3530)" opacity="0.2" style="mix-blend-mode: overlay;isolation: isolate">
      <g id="Group_218" data-name="Group 218">
        <g id="Group_217" data-name="Group 217" clip-path="url(#clip-path-7)">
          <path id="Path_359" data-name="Path 359" d="M81.772,33.672a2.868,2.868,0,0,1,2.619-.467,6.993,6.993,0,0,1,1.295.243,4.125,4.125,0,0,1,1.1.789.273.273,0,0,1,.092.369,3.315,3.315,0,0,1-.93,1.048,4.014,4.014,0,0,1-1.588.36c-1.011.069-2.305-.15-2.751-1.185a1,1,0,0,1,.162-1.157" fill="#fff"/>
        </g>
      </g>
    </g>
    <path id="Path_360" data-name="Path 360" d="M137.633,111.578s9.147,2.317,13.949-.971,1.782-13.34,14.387-25.618,9.922-8.019,9.922-8.019l-11.35,25.1-9.735,9.729s-8.687,4.066-17.173-.219" transform="translate(689 3530)" fill="#bfa800"/>
    <path id="Path_361" data-name="Path 361" d="M148.243,113.826a23.3,23.3,0,0,0,18.626-7.474c8.392-8.824,9.022-29.382,9.022-29.382S162.909,90.8,157.659,104.651s-20.026,6.927-20.026,6.927a17.231,17.231,0,0,0,10.61,2.248" transform="translate(689 3530)" fill="#ceb500"/>
    <g id="Group_222" data-name="Group 222" transform="translate(689 3530)" opacity="0.2" style="mix-blend-mode: overlay;isolation: isolate">
      <g id="Group_221" data-name="Group 221">
        <g id="Group_220" data-name="Group 220" clip-path="url(#clip-path-8)">
          <path id="Path_362" data-name="Path 362" d="M171.425,94.335c1.455,3.169-2.184,7.135-4.146,9.335-.376.421-5.569,5.746-6.335,3.66s3.036-4.61,4.1-5.9c1.8-2.176,3.03-6.245,5.763-7.294a.465.465,0,0,1,.613.2" fill="#fff"/>
        </g>
      </g>
    </g>
    <g id="Group_225" data-name="Group 225" transform="translate(689 3530)" opacity="0.2" style="mix-blend-mode: overlay;isolation: isolate">
      <g id="Group_224" data-name="Group 224">
        <g id="Group_223" data-name="Group 223" clip-path="url(#clip-path-9)">
          <path id="Path_363" data-name="Path 363" d="M172.291,88.235a2.29,2.29,0,0,1,.273,2.1,5.734,5.734,0,0,1-.242,1.022,3.277,3.277,0,0,1-.671.847.216.216,0,0,1-.3.059,2.645,2.645,0,0,1-.8-.78,3.176,3.176,0,0,1-.226-1.279,2.112,2.112,0,0,1,1.047-2.147.794.794,0,0,1,.916.173" fill="#fff"/>
        </g>
      </g>
    </g>
    <path id="Path_364" data-name="Path 364" d="M197.181,177.7c-17.588.53-22.157,9.978-27.918,9.156a10.16,10.16,0,0,1-3.981-1.611l-.846,1.079a22.474,22.474,0,0,0,6.4,3.589l13.75-.591,25.328-10.827s4.856-1.324-12.732-.795" transform="translate(689 3530)" fill="#bfa800"/>
    <path id="Path_365" data-name="Path 365" d="M177.767,186.571c-5.637,2.838-9.995,1.723-13.146-.486l-.419.534c.142.116.276.234.424.35a23.3,23.3,0,0,0,18.779,7.08c12.149-.831,26.508-15.557,26.508-15.557S191,179.91,177.767,186.571" transform="translate(689 3530)" fill="#ceb500"/>
    <g id="Group_228" data-name="Group 228" transform="translate(689 3530)" opacity="0.2" style="mix-blend-mode: overlay;isolation: isolate">
      <g id="Group_227" data-name="Group 227">
        <g id="Group_226" data-name="Group 226" clip-path="url(#clip-path-10)">
          <path id="Path_366" data-name="Path 366" d="M194.885,188.271c-1.07,3.32-6.432,3.782-9.365,4.078-.562.057-7.988.471-7.143-1.584s5.354-1.346,7.014-1.574c2.8-.386,6.454-2.555,9.177-1.481a.465.465,0,0,1,.317.561" fill="#fff"/>
        </g>
      </g>
    </g>
    <g id="Group_231" data-name="Group 231" transform="translate(689 3530)" opacity="0.2" style="mix-blend-mode: overlay;isolation: isolate">
      <g id="Group_230" data-name="Group 230">
        <g id="Group_229" data-name="Group 229" clip-path="url(#clip-path-11)">
          <path id="Path_367" data-name="Path 367" d="M199.646,184.361c-.021.828-.612,1.279-1.221,1.736a5.542,5.542,0,0,1-.87.589,3.246,3.246,0,0,1-1.066.171.218.218,0,0,1-.26-.157,2.658,2.658,0,0,1-.062-1.115,3.191,3.191,0,0,1,.7-1.1,2.11,2.11,0,0,1,2.223-.874.8.8,0,0,1,.558.746" fill="#fff"/>
        </g>
      </g>
    </g>
    <path id="Path_368" data-name="Path 368" d="M99.7,241.928s-29.278-45.31-78.595-85.66c0,0,68.058,75.257,75.1,130.035Z" transform="translate(689 3530)" fill="#bfa800"/>
    <g id="Group_234" data-name="Group 234" transform="translate(689 3530)" opacity="0.2" style="mix-blend-mode: overlay;isolation: isolate">
      <g id="Group_233" data-name="Group 233">
        <g id="Group_232" data-name="Group 232" clip-path="url(#clip-path-12)">
          <path id="Path_369" data-name="Path 369" d="M95.667,282.811a7.809,7.809,0,0,0,.829-.243l1.365-17.329c-8.711-25.774-25.024-48.413-41.069-70.507A158.126,158.126,0,0,0,43.509,178.07a158.061,158.061,0,0,0-11.944-10.9c-1.568-1.337-3.644-3.573-5.886-5.657,14.995,17.541,62.141,75.639,69.988,121.3"/>
        </g>
      </g>
    </g>
    <path id="Path_370" data-name="Path 370" d="M145.862,190.414s-3.727-23.612,15.494-57c0,0-12,46.112-3.746,51.841Z" transform="translate(689 3530)" fill="#bfa800"/>
    <path id="Path_371" data-name="Path 371" d="M102.528,242.293c-7.583-1.352,28.6-46.1,67.3-68.68,41.479-24.194,46.617-76.336,46.617-76.336s8.386,45.242-44.366,88.492c-60.485,49.589-70.071,88.578-70.071,88.578Z" transform="translate(689 3530)" fill="#bfa800"/>
    <g id="Group_237" data-name="Group 237" transform="translate(689 3530)" opacity="0.2" style="mix-blend-mode: overlay;isolation: isolate">
      <g id="Group_236" data-name="Group 236">
        <g id="Group_235" data-name="Group 235" clip-path="url(#clip-path-13)">
          <path id="Path_372" data-name="Path 372" d="M172.082,185.768c18.516-15.18,29.493-30.6,35.951-44.232a136.311,136.311,0,0,1-32.166,36.308c-11.132,8.777-23.481,15.945-34.39,25-10.025,8.319-20.25,19.878-26.094,31.7a49.021,49.021,0,0,0-4.645,20.225c9.089-16.126,27.012-40.847,61.344-68.995"/>
        </g>
      </g>
    </g>
    <path id="Path_373" data-name="Path 373" d="M115.966,181.412S68.2,118.356,75.792,54.266c0,0-18.488,93.034,39.688,142.652Z" transform="translate(689 3530)" fill="#bfa800"/>
    <g id="Group_240" data-name="Group 240" transform="translate(689 3530)" opacity="0.2" style="mix-blend-mode: overlay;isolation: isolate">
      <g id="Group_239" data-name="Group 239">
        <g id="Group_238" data-name="Group 238" clip-path="url(#clip-path-14)">
          <path id="Path_374" data-name="Path 374" d="M100.593,166.172c-11.276-19.366-22.772-39.341-26.042-61.51a114.25,114.25,0,0,1-1.1-14.843,3.379,3.379,0,0,1-.44-.019c.2,31.3,7.305,76.437,41.593,106.344q.461-.249.917-.508l.268-8.549c-6.273-5.77-10.852-13.457-15.195-20.915"/>
        </g>
      </g>
    </g>
    <path id="Path_375" data-name="Path 375" d="M128.949,112.539s22.744-24.874,28.309-58.273c0,0,.719,62.776-30.518,77.782Z" transform="translate(689 3530)" fill="#bfa800"/>
    <g id="Group_243" data-name="Group 243" transform="translate(689 3530)" opacity="0.2" style="mix-blend-mode: overlay;isolation: isolate">
      <g id="Group_242" data-name="Group 242">
        <g id="Group_241" data-name="Group 241" clip-path="url(#clip-path-15)">
          <path id="Path_376" data-name="Path 376" d="M126.74,132.048c31.237-15.006,30.518-77.782,30.518-77.782a101.918,101.918,0,0,1-3.925,15.582C152.227,83.917,149.3,97.6,141.8,109.395a46,46,0,0,1-7.791,9.436c-1.744,1.583-4.424,2.876-6.293,4.555Z"/>
        </g>
      </g>
    </g>
    <path id="Path_377" data-name="Path 377" d="M83.376,150.235s-17.5-1.787-32.667-18.187c0,0,14.148,27.167,40.552,35.169Z" transform="translate(689 3530)" fill="#bfa800"/>
    <path id="Path_378" data-name="Path 378" d="M125.56,104.355c-16.1-34.167,4.045-63.128,4.653-63.99,1.964-2.8,4.129-5.659,6.458-8.415,3.473-6.367,8.079-12.092,12.45-18.054l.6-.823c-9.5,5.558-15.129,11.954-26.768,26.747-19.709,25.052-8.4,69.129-6.242,76a69.038,69.038,0,0,1,2.513,10.774c2.159,14.936,4.564,49.074-12.708,74.951,0,0-33.476,50.63.564,116.875l28.007-2.131s-29.1-54.908-6.8-112.405h-.006c8.552-12.944,14.765-62.046-2.727-99.53" transform="translate(689 3530)" fill="#bfa800"/>
    <g id="Group_246" data-name="Group 246" transform="translate(689 3530)" opacity="0.2" style="mix-blend-mode: overlay;isolation: isolate">
      <g id="Group_245" data-name="Group 245">
        <g id="Group_244" data-name="Group 244" clip-path="url(#clip-path-16)">
          <path id="Path_379" data-name="Path 379" d="M127.628,205.908a114.069,114.069,0,0,0,9.081-43.728c.273-16.775-1.982-33.84-7.759-49.641q-1.518-4.147-3.38-8.16l-.156.076.146-.1c-16.1-34.168,4.045-63.129,4.653-63.991,1.964-2.8,4.129-5.659,6.458-8.415a85.832,85.832,0,0,1,5.618-8.808c-.875.681-1.761,1.35-2.606,2.071a67.678,67.678,0,0,0-17.147,80.643s11.813,29.374,7.85,68.568a62.506,62.506,0,0,1-5.479,20.108c-4.33,9.291-11.05,26.509-11.365,44.418-.467,26.516,4.44,50.532-4.268,55.034-3.38,1.748-7.588,2.132-11.477,1.956q1.136,3.586,2.535,7.259c7.767,22.21,17.992,11.3,23.718,13.931l5.7-.434a56.944,56.944,0,0,0,2.5-6.564c.316-.955-1.96-4.868-2.339-5.883q-1.462-3.922-2.715-7.92a162.951,162.951,0,0,1-5.009-20.5,139.316,139.316,0,0,1,.648-53.806,92.96,92.96,0,0,1,4.793-16.115"/>
        </g>
      </g>
    </g>
    <path id="Path_380" data-name="Path 380" d="M121.457,158.431s-9.435-16.1-20.1-20.115-14.711-11.962-14.711-11.962,17.587-9.46,26.4,1.6c10.873,13.639,8.411,30.48,8.411,30.48" transform="translate(689 3530)" fill="#ceb500"/>
    <g id="Group_249" data-name="Group 249" transform="translate(689 3530)" opacity="0.2" style="mix-blend-mode: overlay;isolation: isolate">
      <g id="Group_248" data-name="Group 248">
        <g id="Group_247" data-name="Group 247" clip-path="url(#clip-path-17)">
          <path id="Path_381" data-name="Path 381" d="M117.482,142.117a24.107,24.107,0,0,0-4.709-7.2c-4.477-4.422-11.007-5.382-17.206-6.458,7.507,1.246,14.067,6.189,18.444,12.415a50.5,50.5,0,0,1,7.4,17.489c.026.042.042.071.042.071s.132-.918.2-2.485a52.951,52.951,0,0,0-4.175-13.829"/>
        </g>
      </g>
    </g>
    <g id="Group_252" data-name="Group 252" transform="translate(689 3530)" opacity="0.2" style="mix-blend-mode: overlay;isolation: isolate">
      <g id="Group_251" data-name="Group 251">
        <g id="Group_250" data-name="Group 250" clip-path="url(#clip-path-18)">
          <path id="Path_382" data-name="Path 382" d="M101.568,123.938a1.435,1.435,0,0,0-.339,2.592c1.631,1.125,3.56,1.681,5.245,2.737,1.457.912,2.75,2.123,4.548,2.116a.626.626,0,0,0,.6-.454c.9-4.458-6.512-7.729-10.051-6.991" fill="#fff"/>
        </g>
      </g>
    </g>
    <g id="Group_255" data-name="Group 255" transform="translate(689 3530)" opacity="0.2" style="mix-blend-mode: overlay;isolation: isolate">
      <g id="Group_254" data-name="Group 254">
        <g id="Group_253" data-name="Group 253" clip-path="url(#clip-path-19)">
          <path id="Path_383" data-name="Path 383" d="M114.438,132.249a1.792,1.792,0,0,0-.681-.264,1.069,1.069,0,0,0-.563.1c-.116.044-.106.122-.283.085a.086.086,0,0,0-.083.143c.122.142-.071.324-.071.535a2.49,2.49,0,0,0,.108.606,1.781,1.781,0,0,0,.884,1.132.949.949,0,0,0,1.383-.563,1.57,1.57,0,0,0-.694-1.778" fill="#fff"/>
        </g>
      </g>
    </g>
    <g id="Group_258" data-name="Group 258" transform="translate(689 3530)" opacity="0.2" style="mix-blend-mode: overlay;isolation: isolate">
      <g id="Group_257" data-name="Group 257">
        <g id="Group_256" data-name="Group 256" clip-path="url(#clip-path-20)">
          <path id="Path_384" data-name="Path 384" d="M112.851,141.8c-1.7-2.308-3.017-3.648-5.85-4.1-.131-.021-.24.165-.1.234,2.119,1.034,3.7,4.644,5.151,6.448,1.649,2.051,3.111,4.471,5.239,6.054.225.167.52-.109.454-.35-.8-2.913-3.115-5.86-4.9-8.281" fill="#fff"/>
        </g>
      </g>
    </g>
    <path id="Path_385" data-name="Path 385" d="M72.611,74.6s-1.683-14.676-8.123-21a22.237,22.237,0,0,1-6.826-13.371s15.763-1.224,18.61,9.6C79.783,63.188,72.611,74.6,72.611,74.6" transform="translate(689 3530)" fill="#ceb500"/>
    <g id="Group_261" data-name="Group 261" transform="translate(689 3530)" opacity="0.2" style="mix-blend-mode: overlay;isolation: isolate">
      <g id="Group_260" data-name="Group 260">
        <g id="Group_259" data-name="Group 259" clip-path="url(#clip-path-21)">
          <path id="Path_386" data-name="Path 386" d="M74.951,61.51a19.116,19.116,0,0,0-1.1-6.724c-1.828-4.634-6.25-7.419-10.4-10.182,5.039,3.3,8.208,8.984,9.385,14.893A40,40,0,0,1,72.6,74.532l.007.065s.39-.622.94-1.736a41.931,41.931,0,0,0,1.4-11.351"/>
        </g>
      </g>
    </g>
    <g id="Group_264" data-name="Group 264" transform="translate(689 3530)" opacity="0.2" style="mix-blend-mode: overlay;isolation: isolate">
      <g id="Group_263" data-name="Group 263">
        <g id="Group_262" data-name="Group 262" clip-path="url(#clip-path-22)">
          <path id="Path_387" data-name="Path 387" d="M69.242,43.252c-1.018-.217-1.542,1.009-1.075,1.769.822,1.337,2.041,2.357,2.923,3.66.763,1.127,1.312,2.418,2.617,2.988a.5.5,0,0,0,.577-.138c2.083-2.939-2.243-7.681-5.042-8.279" fill="#fff"/>
        </g>
      </g>
    </g>
    <g id="Group_267" data-name="Group 267" transform="translate(689 3530)" opacity="0.2" style="mix-blend-mode: overlay;isolation: isolate">
      <g id="Group_266" data-name="Group 266">
        <g id="Group_265" data-name="Group 265" clip-path="url(#clip-path-23)">
          <path id="Path_388" data-name="Path 388" d="M75.9,53.389a1.411,1.411,0,0,0-.409-.409.841.841,0,0,0-.441-.1c-.1-.005-.115.055-.232-.029a.068.068,0,0,0-.106.077c.043.142-.155.212-.223.365a1.982,1.982,0,0,0-.115.473,1.415,1.415,0,0,0,.277,1.1.753.753,0,0,0,1.183.035,1.245,1.245,0,0,0,.066-1.51" fill="#fff"/>
        </g>
      </g>
    </g>
    <g id="Group_270" data-name="Group 270" transform="translate(689 3530)" opacity="0.2" style="mix-blend-mode: overlay;isolation: isolate">
      <g id="Group_269" data-name="Group 269">
        <g id="Group_268" data-name="Group 268" clip-path="url(#clip-path-24)">
          <path id="Path_389" data-name="Path 389" d="M71.7,59.8c-.491-2.214-1.018-3.607-2.923-4.845-.088-.057-.227.043-.147.138,1.2,1.427,1.194,4.548,1.667,6.318.539,2.013.823,4.234,1.858,6.061.109.193.412.087.441-.108.351-2.366-.381-5.241-.9-7.564" fill="#fff"/>
        </g>
      </g>
    </g>
    <path id="Path_390" data-name="Path 390" d="M96.965,223.028s-1.683-14.676-8.123-21a22.237,22.237,0,0,1-6.826-13.371s15.763-1.224,18.61,9.6c3.511,13.357-3.661,24.766-3.661,24.766" transform="translate(689 3530)" fill="#ceb500"/>
    <g id="Group_273" data-name="Group 273" transform="translate(689 3530)" opacity="0.2" style="mix-blend-mode: overlay;isolation: isolate">
      <g id="Group_272" data-name="Group 272">
        <g id="Group_271" data-name="Group 271" clip-path="url(#clip-path-25)">
          <path id="Path_391" data-name="Path 391" d="M99.306,209.941a19.116,19.116,0,0,0-1.105-6.724c-1.828-4.634-6.25-7.419-10.4-10.182,5.039,3.3,8.208,8.984,9.386,14.893a40,40,0,0,1-.233,15.035l.007.065s.39-.623.94-1.736a41.931,41.931,0,0,0,1.4-11.351"/>
        </g>
      </g>
    </g>
    <g id="Group_276" data-name="Group 276" transform="translate(689 3530)" opacity="0.2" style="mix-blend-mode: overlay;isolation: isolate">
      <g id="Group_275" data-name="Group 275">
        <g id="Group_274" data-name="Group 274" clip-path="url(#clip-path-26)">
          <path id="Path_392" data-name="Path 392" d="M93.6,191.683c-1.018-.217-1.542,1.009-1.075,1.769.822,1.337,2.041,2.356,2.923,3.66.763,1.127,1.312,2.418,2.617,2.988a.5.5,0,0,0,.577-.138c2.083-2.939-2.243-7.681-5.042-8.279" fill="#fff"/>
        </g>
      </g>
    </g>
    <g id="Group_279" data-name="Group 279" transform="translate(689 3530)" opacity="0.2" style="mix-blend-mode: overlay;isolation: isolate">
      <g id="Group_278" data-name="Group 278">
        <g id="Group_277" data-name="Group 277" clip-path="url(#clip-path-27)">
          <path id="Path_393" data-name="Path 393" d="M100.259,201.82a1.411,1.411,0,0,0-.409-.409.841.841,0,0,0-.441-.1c-.1-.005-.115.055-.232-.029a.068.068,0,0,0-.106.077c.043.142-.155.212-.222.365a1.937,1.937,0,0,0-.116.473,1.412,1.412,0,0,0,.278,1.1.752.752,0,0,0,1.182.035,1.245,1.245,0,0,0,.066-1.51" fill="#fff"/>
        </g>
      </g>
    </g>
    <g id="Group_282" data-name="Group 282" transform="translate(689 3530)" opacity="0.2" style="mix-blend-mode: overlay;isolation: isolate">
      <g id="Group_281" data-name="Group 281">
        <g id="Group_280" data-name="Group 280" clip-path="url(#clip-path-28)">
          <path id="Path_394" data-name="Path 394" d="M96.053,208.231c-.491-2.214-1.018-3.607-2.923-4.845-.088-.057-.227.043-.147.138,1.2,1.427,1.194,4.547,1.667,6.318.539,2.013.823,4.233,1.858,6.061.109.193.412.088.441-.108.351-2.367-.381-5.241-.9-7.564" fill="#fff"/>
        </g>
      </g>
    </g>
    <g id="Group_285" data-name="Group 285" transform="translate(689 3530)" opacity="0.2" style="mix-blend-mode: overlay;isolation: isolate">
      <g id="Group_284" data-name="Group 284">
        <g id="Group_283" data-name="Group 283" clip-path="url(#clip-path-29)">
          <path id="Path_395" data-name="Path 395" d="M126.74,132.048c-1.573-8.969-3.739-20.164-9.248-27.615-.029-.039-.108-.033-.1.027.417,4.228,1.927,8.283,2.906,12.406a153.553,153.553,0,0,1,2.861,15.667c1.182,9.083.545,18.46,2.441,27.4.143.677,1.091.586,1.281,0,2.856-8.81,1.437-18.9-.139-27.889" fill="#fff"/>
        </g>
      </g>
    </g>
    <g id="Group_288" data-name="Group 288" transform="translate(689 3530)" opacity="0.2" style="mix-blend-mode: overlay;isolation: isolate">
      <g id="Group_287" data-name="Group 287">
        <g id="Group_286" data-name="Group 286" clip-path="url(#clip-path-30)">
          <path id="Path_396" data-name="Path 396" d="M125.549,166.7c-.253-.3-.8-.75-1.236-.461-1.018.679-.932,2.148-1.061,3.245a16.071,16.071,0,0,0-.265,4.14.723.723,0,0,0,1.057.43,5.894,5.894,0,0,0,2.116-4.8,4.058,4.058,0,0,0-.611-2.557" fill="#fff"/>
        </g>
      </g>
    </g>
    <path id="Path_397" data-name="Path 397" d="M119.154,78s3.081-12.578,16.111-23.553,12.483-13.338,12.483-13.338S147.5,80.217,119.154,78" transform="translate(689 3530)" fill="#ceb500"/>
    <g id="Group_291" data-name="Group 291" transform="translate(689 3530)" opacity="0.2" style="mix-blend-mode: overlay;isolation: isolate">
      <g id="Group_290" data-name="Group 290">
        <g id="Group_289" data-name="Group 289" clip-path="url(#clip-path-31)">
          <path id="Path_398" data-name="Path 398" d="M120.395,74.434A28.348,28.348,0,0,0,119.154,78c.527.041,1.025.04,1.533.053a39.536,39.536,0,0,1,3.459-3.778c2.8-2.721,5.847-5.21,8.336-8.22A42.979,42.979,0,0,0,139.3,53.569c-5.289,7.761-13.419,13.342-18.906,20.865"/>
        </g>
      </g>
    </g>
    <g id="Group_294" data-name="Group 294" transform="translate(689 3530)" opacity="0.2" style="mix-blend-mode: overlay;isolation: isolate">
      <g id="Group_293" data-name="Group 293">
        <g id="Group_292" data-name="Group 292" clip-path="url(#clip-path-32)">
          <path id="Path_399" data-name="Path 399" d="M144.13,51.772a.716.716,0,0,0-1.349-.249c-1.727,3.8-2.444,7.9-4.411,11.644-1.957,3.724-4.924,6.572-7.1,10.109-.128.208.157.386.331.285,3.611-2.085,6.149-6.181,8.207-9.7s4.316-7.922,4.322-12.085" fill="#fff"/>
        </g>
      </g>
    </g>
    <path id="Path_400" data-name="Path 400" d="M207.086,142.8s5.52-10.145,19.254-16.642,13.8-8.659,13.8-8.659-9.115,33.666-33.054,25.3" transform="translate(689 3530)" fill="#ceb500"/>
    <g id="Group_297" data-name="Group 297" transform="translate(689 3530)" opacity="0.2" style="mix-blend-mode: overlay;isolation: isolate">
      <g id="Group_296" data-name="Group 296">
        <g id="Group_295" data-name="Group 295" clip-path="url(#clip-path-33)">
          <path id="Path_401" data-name="Path 401" d="M208.968,140.01a25.461,25.461,0,0,0-1.882,2.792c.445.156.875.268,1.31.4a35.394,35.394,0,0,1,3.842-2.471,95.718,95.718,0,0,0,9.06-5.19,38.293,38.293,0,0,0,8.722-9.214c-6.327,5.488-14.608,8.45-21.052,13.688"/>
        </g>
      </g>
    </g>
    <g id="Group_300" data-name="Group 300" transform="translate(689 3530)" opacity="0.2" style="mix-blend-mode: overlay;isolation: isolate">
      <g id="Group_299" data-name="Group 299">
        <g id="Group_298" data-name="Group 298" clip-path="url(#clip-path-34)">
          <path id="Path_402" data-name="Path 402" d="M234.594,125.872c.164-.619-.725-.988-1.106-.521-2.354,2.882-3.906,6.255-6.455,9.036-2.535,2.765-5.742,4.546-8.423,7.1-.158.15.047.368.22.321,3.589-.976,6.709-3.93,9.286-6.5s5.525-5.849,6.478-9.437" fill="#fff"/>
        </g>
      </g>
    </g>
    <path id="Path_403" data-name="Path 403" d="M75.5,115.907s-11.325-2.264-21.6-13.454S41.539,91.842,41.539,91.842,76.394,90.564,75.5,115.907" transform="translate(689 3530)" fill="#ceb500"/>
    <g id="Group_303" data-name="Group 303" transform="translate(689 3530)" opacity="0.2" style="mix-blend-mode: overlay;isolation: isolate">
      <g id="Group_302" data-name="Group 302">
        <g id="Group_301" data-name="Group 301" clip-path="url(#clip-path-35)">
          <path id="Path_404" data-name="Path 404" d="M72.278,114.937a25.189,25.189,0,0,0,3.225.969c.016-.471,0-.915-.012-1.368a35.18,35.18,0,0,1-3.5-2.937,95.908,95.908,0,0,0-7.643-7.113,38.3,38.3,0,0,0-11.386-5.6c7.118,4.415,12.4,11.445,19.315,16.046"/>
        </g>
      </g>
    </g>
    <g id="Group_306" data-name="Group 306" transform="translate(689 3530)" opacity="0.2" style="mix-blend-mode: overlay;isolation: isolate">
      <g id="Group_305" data-name="Group 305">
        <g id="Group_304" data-name="Group 304" clip-path="url(#clip-path-36)">
          <path id="Path_405" data-name="Path 405" d="M51.177,94.656a.639.639,0,0,0-.17,1.212c3.451,1.394,7.133,1.875,10.544,3.485,3.393,1.6,6.044,4.135,9.278,5.939.191.106.338-.155.242-.306-2-3.138-5.743-5.243-8.961-6.942S54.887,94.5,51.177,94.656" fill="#fff"/>
        </g>
      </g>
    </g>
    <path id="Path_406" data-name="Path 406" d="M79.565,109.376s16.429-8.824,10.249-32.437c0,0-19.122,12.7-10.249,32.437" transform="translate(689 3530)" fill="#ceb500"/>
    <g id="Group_309" data-name="Group 309" transform="translate(689 3530)" opacity="0.2" style="mix-blend-mode: overlay;isolation: isolate">
      <g id="Group_308" data-name="Group 308">
        <g id="Group_307" data-name="Group 307" clip-path="url(#clip-path-37)">
          <path id="Path_407" data-name="Path 407" d="M79.685,109.307a11.415,11.415,0,0,0,1.859-2.358A46.422,46.422,0,0,0,88.627,85.4a87.08,87.08,0,0,1-7.051,18.057,21.361,21.361,0,0,1-2.722,4.19c.215.571.449,1.147.711,1.73l.12-.069"/>
        </g>
      </g>
    </g>
    <g id="Group_312" data-name="Group 312" transform="translate(689 3530)" opacity="0.2" style="mix-blend-mode: overlay;isolation: isolate">
      <g id="Group_311" data-name="Group 311">
        <g id="Group_310" data-name="Group 310" clip-path="url(#clip-path-38)">
          <path id="Path_408" data-name="Path 408" d="M80.731,96.906c2.179-5.24,3.817-11.237,7.689-15.539.021-.023-.008-.053-.034-.04-4.9,2.587-8.622,9.947-8.473,15.4a.437.437,0,0,0,.818.176" fill="#fff"/>
        </g>
      </g>
    </g>
    <path id="Path_409" data-name="Path 409" d="M50.908,192.987s-9.1-16.279-32.6-9.7c0,0,13.018,18.906,32.6,9.7" transform="translate(689 3530)" fill="#ceb500"/>
    <g id="Group_315" data-name="Group 315" transform="translate(689 3530)" opacity="0.2" style="mix-blend-mode: overlay;isolation: isolate">
      <g id="Group_314" data-name="Group 314">
        <g id="Group_313" data-name="Group 313" clip-path="url(#clip-path-39)">
          <path id="Path_410" data-name="Path 410" d="M50.837,192.868a11.393,11.393,0,0,0-2.389-1.819,46.41,46.41,0,0,0-21.666-6.721,87.048,87.048,0,0,1,18.173,6.747,21.428,21.428,0,0,1,4.235,2.651c.567-.224,1.139-.467,1.718-.739,0,0-.028-.048-.071-.119"/>
        </g>
      </g>
    </g>
    <g id="Group_318" data-name="Group 318" transform="translate(689 3530)" opacity="0.2" style="mix-blend-mode: overlay;isolation: isolate">
      <g id="Group_317" data-name="Group 317">
        <g id="Group_316" data-name="Group 316" clip-path="url(#clip-path-40)">
          <path id="Path_411" data-name="Path 411" d="M38.421,192.03c-5.276-2.091-11.3-3.628-15.665-7.427a.027.027,0,0,0-.04.034c2.669,4.851,10.09,8.454,15.542,8.213a.437.437,0,0,0,.163-.82" fill="#fff"/>
        </g>
      </g>
    </g>
    <path id="Path_412" data-name="Path 412" d="M72.908,155.6s-8.472-9.794-23.535-2.024c0,0,11.507,11.031,23.535,2.024" transform="translate(689 3530)" fill="#ceb500"/>
    <g id="Group_321" data-name="Group 321" transform="translate(689 3530)" opacity="0.2" style="mix-blend-mode: overlay;isolation: isolate">
      <g id="Group_320" data-name="Group 320">
        <g id="Group_319" data-name="Group 319" clip-path="url(#clip-path-41)">
          <path id="Path_413" data-name="Path 413" d="M72.843,155.528a7.923,7.923,0,0,0-1.88-.9,32.232,32.232,0,0,0-15.677-1.53,60.492,60.492,0,0,1,13.305,2.038,14.887,14.887,0,0,1,3.253,1.209c.354-.232.708-.478,1.064-.744l-.065-.071"/>
        </g>
      </g>
    </g>
    <g id="Group_324" data-name="Group 324" transform="translate(689 3530)" opacity="0.2" style="mix-blend-mode: overlay;isolation: isolate">
      <g id="Group_323" data-name="Group 323">
        <g id="Group_322" data-name="Group 322" clip-path="url(#clip-path-42)">
          <path id="Path_414" data-name="Path 414" d="M64.282,156.7c-3.882-.682-8.193-.881-11.7-2.853a.018.018,0,0,0-.022.029c2.495,2.925,8.048,4.334,11.723,3.4a.3.3,0,0,0-.005-.581" fill="#fff"/>
        </g>
      </g>
    </g>
    <path id="Path_415" data-name="Path 415" d="M26.933,160.614s6.5-35.467-19.746-38.254c0,0,5.021,4.008,4.085,14.576s6.472,25.132,15.661,23.678" transform="translate(689 3530)" fill="#ceb500"/>
    <g id="Group_327" data-name="Group 327" transform="translate(689 3530)" opacity="0.2" style="mix-blend-mode: overlay;isolation: isolate">
      <g id="Group_326" data-name="Group 326">
        <g id="Group_325" data-name="Group 325" clip-path="url(#clip-path-43)">
          <path id="Path_416" data-name="Path 416" d="M16.815,127.875c3.156,6.255,4.774,12.668,6.449,19.47,1.068,4.338,2.1,8.989,1.437,13.3a8.118,8.118,0,0,0,2.232-.034s.093-.512.21-1.4a49.383,49.383,0,0,0-10.328-31.343"/>
        </g>
      </g>
    </g>
    <g id="Group_330" data-name="Group 330" transform="translate(689 3530)" opacity="0.2" style="mix-blend-mode: overlay;isolation: isolate">
      <g id="Group_329" data-name="Group 329">
        <g id="Group_328" data-name="Group 328" clip-path="url(#clip-path-44)">
          <path id="Path_417" data-name="Path 417" d="M19.754,154.055c-.132-2.255-1.285-4.3-1.833-6.474-.577-2.288-.832-4.646-1.226-6.969-.691-4.07-1.573-7.977-3.911-11.44a.027.027,0,0,0-.047.021c1.223,4.78,1.173,9.671,1.775,14.536.437,3.528,1.01,8.9,4.454,10.812a.511.511,0,0,0,.788-.486" fill="#fff"/>
        </g>
      </g>
    </g>
    <g id="Group_333" data-name="Group 333" transform="translate(689 3530)" opacity="0.2" style="mix-blend-mode: overlay;isolation: isolate">
      <g id="Group_332" data-name="Group 332">
        <g id="Group_331" data-name="Group 331" clip-path="url(#clip-path-45)">
          <path id="Path_418" data-name="Path 418" d="M23.146,157.85c.219-1.1-1.281-1.952-2.172-2.094a.468.468,0,0,0-.509.534c.277.972,1.272,2.284,2.421,1.918a.445.445,0,0,0,.26-.358" fill="#fff"/>
        </g>
      </g>
    </g>
    <path id="Path_419" data-name="Path 419" d="M158.4,140.508s31.55-7.2,24.552-29.832c0,0-1.528,5.561-10.573,8.532s-18.433,14.237-13.979,21.3" transform="translate(689 3530)" fill="#ceb500"/>
    <g id="Group_336" data-name="Group 336" transform="translate(689 3530)" opacity="0.2" style="mix-blend-mode: overlay;isolation: isolate">
      <g id="Group_335" data-name="Group 335">
        <g id="Group_334" data-name="Group 334" clip-path="url(#clip-path-46)">
          <path id="Path_420" data-name="Path 420" d="M181.815,120.569c-4.04,4.818-8.755,8.423-13.771,12.214-3.2,2.417-6.669,4.916-10.461,5.9a7.282,7.282,0,0,0,.819,1.829s.455-.1,1.225-.322a44.322,44.322,0,0,0,22.188-19.617"/>
        </g>
      </g>
    </g>
    <g id="Group_339" data-name="Group 339" transform="translate(689 3530)" opacity="0.2" style="mix-blend-mode: overlay;isolation: isolate">
      <g id="Group_338" data-name="Group 338">
        <g id="Group_337" data-name="Group 337" clip-path="url(#clip-path-47)">
          <path id="Path_421" data-name="Path 421" d="M161.268,132.264c1.813-.907,3.092-2.583,4.689-3.8,1.683-1.286,3.537-2.332,5.313-3.48,3.111-2.011,6.021-4.122,8.048-7.277.013-.019-.015-.045-.033-.031-3.509,2.7-7.56,4.393-11.359,6.613-2.754,1.609-6.979,3.984-7.338,7.5a.458.458,0,0,0,.68.478" fill="#fff"/>
        </g>
      </g>
    </g>
    <g id="Group_342" data-name="Group 342" transform="translate(689 3530)" opacity="0.2" style="mix-blend-mode: overlay;isolation: isolate">
      <g id="Group_341" data-name="Group 341">
        <g id="Group_340" data-name="Group 340" clip-path="url(#clip-path-48)">
          <path id="Path_422" data-name="Path 422" d="M159.34,136.406c.984-.208,1.156-1.748.958-2.532a.42.42,0,0,0-.621-.231c-.7.573-1.433,1.858-.724,2.676a.4.4,0,0,0,.387.087" fill="#fff"/>
        </g>
      </g>
    </g>
    <path id="Path_423" data-name="Path 423" d="M128.568,228.4s31.085,9,35.936-14.19c0,0-4.032,4.123-13.383,2.336S128.1,220.062,128.568,228.4" transform="translate(689 3530)" fill="#ceb500"/>
    <g id="Group_345" data-name="Group 345" transform="translate(689 3530)" opacity="0.2" style="mix-blend-mode: overlay;isolation: isolate">
      <g id="Group_344" data-name="Group 344">
        <g id="Group_343" data-name="Group 343" clip-path="url(#clip-path-49)">
          <path id="Path_424" data-name="Path 424" d="M158.712,222.309c-5.869,2.255-11.741,3.123-17.966,4.006-3.969.564-8.216,1.068-12.008.087a7.262,7.262,0,0,0-.17,2s.449.129,1.228.313a44.322,44.322,0,0,0,28.916-6.4"/>
        </g>
      </g>
    </g>
    <g id="Group_348" data-name="Group 348" transform="translate(689 3530)" opacity="0.2" style="mix-blend-mode: overlay;isolation: isolate">
      <g id="Group_347" data-name="Group 347">
        <g id="Group_346" data-name="Group 346" clip-path="url(#clip-path-50)">
          <path id="Path_425" data-name="Path 425" d="M135.071,222.578c2.025.085,3.957-.761,5.946-1.054,2.1-.309,4.223-.325,6.333-.468,3.7-.251,7.265-.687,10.567-2.463a.024.024,0,0,0-.014-.043c-4.378.662-8.741.177-13.14.277-3.19.072-8.036.1-10.055,3a.459.459,0,0,0,.363.748" fill="#fff"/>
        </g>
      </g>
    </g>
    <g id="Group_351" data-name="Group 351" transform="translate(689 3530)" opacity="0.2" style="mix-blend-mode: overlay;isolation: isolate">
      <g id="Group_350" data-name="Group 350">
        <g id="Group_349" data-name="Group 349" clip-path="url(#clip-path-51)">
          <path id="Path_426" data-name="Path 426" d="M131.377,225.265c.962.295,1.858-.969,2.065-1.75a.419.419,0,0,0-.431-.5c-.892.16-2.154.93-1.93,1.989a.4.4,0,0,0,.3.264" fill="#fff"/>
        </g>
      </g>
    </g>
    <g id="Group_354" data-name="Group 354" transform="translate(689 3530)" opacity="0.2" style="mix-blend-mode: overlay;isolation: isolate">
      <g id="Group_353" data-name="Group 353">
        <g id="Group_352" data-name="Group 352" clip-path="url(#clip-path-52)">
          <path id="Path_427" data-name="Path 427" d="M111.621,202.317a.079.079,0,0,0-.131-.035c-7.527,6.689-10.241,20.209-12.447,29.6-2.217,9.437-4.726,20.136-.733,29.328a1.335,1.335,0,0,0,2.3,0c4.33-9.413,4.342-20.857,6.614-30.944,1.974-8.767,6.433-18.974,4.4-27.949" fill="#fff"/>
        </g>
      </g>
    </g>
    <g id="Group_357" data-name="Group 357" transform="translate(689 3530)" opacity="0.2" style="mix-blend-mode: overlay;isolation: isolate">
      <g id="Group_356" data-name="Group 356">
        <g id="Group_355" data-name="Group 355" clip-path="url(#clip-path-53)">
          <path id="Path_428" data-name="Path 428" d="M104.085,272.386a7.013,7.013,0,0,0-1.982-3.413,1.349,1.349,0,0,0-2.223.587c-.641,2.427.434,5.546,2.74,6.6a.784.784,0,0,0,1.048-.275,4.1,4.1,0,0,0,.417-3.494" fill="#fff"/>
        </g>
      </g>
    </g>
    <path id="Path_429" data-name="Path 429" d="M215.39,106.024s-7.375-10.916,5.673-27.435c0,0,9.581,17.29-5.673,27.435" transform="translate(689 3530)" fill="#ceb500"/>
    <g id="Group_360" data-name="Group 360" transform="translate(689 3530)" opacity="0.2" style="mix-blend-mode: overlay;isolation: isolate">
      <g id="Group_359" data-name="Group 359">
        <g id="Group_358" data-name="Group 358" clip-path="url(#clip-path-54)">
          <path id="Path_430" data-name="Path 430" d="M220.007,84.077c-.3,3.777-2.149,7.227-3.366,10.815-.628,1.851-2.455,8.8.061,10.194.47-.359.91-.726,1.326-1.1,0-.933-.253-2.106-.271-2.609a22.414,22.414,0,0,1,.641-6.148c.917-3.705,2.789-7.523,1.609-11.153"/>
        </g>
      </g>
    </g>
    <path id="Path_431" data-name="Path 431" d="M183.774,163.35s-7.375-10.916,5.673-27.435c0,0,9.581,17.29-5.673,27.435" transform="translate(689 3530)" fill="#ceb500"/>
    <g id="Group_363" data-name="Group 363" transform="translate(689 3530)" opacity="0.2" style="mix-blend-mode: overlay;isolation: isolate">
      <g id="Group_362" data-name="Group 362">
        <g id="Group_361" data-name="Group 361" clip-path="url(#clip-path-55)">
          <path id="Path_432" data-name="Path 432" d="M188.391,141.4c-.3,3.777-2.149,7.227-3.366,10.815-.628,1.851-2.455,8.8.061,10.195.47-.36.91-.727,1.326-1.1,0-.933-.253-2.106-.271-2.608a22.418,22.418,0,0,1,.641-6.149c.917-3.705,2.789-7.523,1.609-11.153"/>
        </g>
      </g>
    </g>
    <path id="Path_433" data-name="Path 433" d="M53.3,135.936s-12.934-2.506-15.385-23.413c0,0,19,5.454,15.385,23.413" transform="translate(689 3530)" fill="#ceb500"/>
    <g id="Group_366" data-name="Group 366" transform="translate(689 3530)" opacity="0.2" style="mix-blend-mode: overlay;isolation: isolate">
      <g id="Group_365" data-name="Group 365">
        <g id="Group_364" data-name="Group 364" clip-path="url(#clip-path-56)">
          <path id="Path_434" data-name="Path 434" d="M41.045,117.15c2.455,2.886,3.59,6.63,5.266,10.028.864,1.753,4.488,7.962,7.251,7.167q.115-.879.16-1.715c-.663-.658-1.669-1.311-2.036-1.654a22.421,22.421,0,0,1-3.894-4.8c-1.971-3.269-3.346-7.292-6.747-9.025"/>
        </g>
      </g>
    </g>
    <path id="Path_435" data-name="Path 435" d="M68.688,202.461s-7.927-10.522,4.254-27.691c0,0,10.458,16.775-4.254,27.691" transform="translate(689 3530)" fill="#ceb500"/>
    <g id="Group_369" data-name="Group 369" transform="translate(689 3530)" opacity="0.2" style="mix-blend-mode: overlay;isolation: isolate">
      <g id="Group_368" data-name="Group 368">
        <g id="Group_367" data-name="Group 367" clip-path="url(#clip-path-57)">
          <path id="Path_436" data-name="Path 436" d="M72.169,180.3c-.11,3.787-1.774,7.328-2.805,10.974-.532,1.88-2,8.918.586,10.178q.675-.574,1.267-1.167c-.052-.931-.361-2.09-.4-2.591a22.384,22.384,0,0,1,.323-6.173c.725-3.748,2.4-7.657,1.033-11.221"/>
        </g>
      </g>
    </g>
    <path id="Path_437" data-name="Path 437" d="M142.408,17.2S143.874,4.112,164.519,0c0,0-3.92,19.375-22.111,17.2" transform="translate(689 3530)" fill="#ceb500"/>
    <g id="Group_372" data-name="Group 372" transform="translate(689 3530)" opacity="0.2" style="mix-blend-mode: overlay;isolation: isolate">
      <g id="Group_371" data-name="Group 371">
        <g id="Group_370" data-name="Group 370" clip-path="url(#clip-path-58)">
          <path id="Path_438" data-name="Path 438" d="M160.156,3.492c-2.681,2.677-6.323,4.108-9.576,6.049-1.679,1-7.578,5.109-6.565,7.8.59.031,1.164.037,1.722.022.6-.712,1.173-1.767,1.486-2.161a22.419,22.419,0,0,1,4.475-4.264c3.1-2.226,7-3.917,8.458-7.446"/>
        </g>
      </g>
    </g>
    <path id="Path_439" data-name="Path 439" d="M105.5,96.966s3.108-9.171,8.269-4.753c4.951,4.239-7.107,7.664-7.107,7.664S114.9,98.443,115,103.8s-7.478,3.829-9.157-1.913c0,0,1.565,6.016-3.034,8.02s-4.044-6.207.924-9.371c0,0-10.195,5.251-10.134.165.071-6.044,9.263-2.348,9.263-2.348s-7.078-6.288-1.783-8.4c4.214-1.681,4.422,7.008,4.422,7.008" transform="translate(689 3530)" fill="#5ac8ff"/>
    <g id="Group_375" data-name="Group 375" transform="translate(689 3530)" opacity="0.2" style="mix-blend-mode: overlay;isolation: isolate">
      <g id="Group_374" data-name="Group 374">
        <g id="Group_373" data-name="Group 373" clip-path="url(#clip-path-59)">
          <path id="Path_440" data-name="Path 440" d="M109.07,93.874c.508-.282,1.2-.488,1.629-.1.6.54.068,1.522-.5,2.1a25.148,25.148,0,0,1-5.279,4.115c2.38.113,5.123.421,6.44,2.408.372.563.549,1.408.039,1.85-.61.528-1.533.006-2.155-.509q-1.907-1.584-3.815-3.166a7.812,7.812,0,0,1-1.662,6.44c-.413.489-1.138.948-1.637.547a1.176,1.176,0,0,1-.354-.713c-.444-2.248.963-4.4,2.3-6.265q-2.7.775-5.456,1.348a3.477,3.477,0,0,1-1.723.057,1.229,1.229,0,0,1-.925-1.293,1.525,1.525,0,0,1,.645-.858c2-1.5,4.786-1.177,7.259-.779a12.274,12.274,0,0,1-2.245-2.414,3.732,3.732,0,0,1-.831-2.117,1.6,1.6,0,0,1,1.336-1.62c1.075-.057,1.658,1.211,1.942,2.248.261.945.376,2.471,1.151,3.072,1.418-1.328,1.874-3.266,3.84-4.352"/>
        </g>
      </g>
    </g>
    <path id="Path_441" data-name="Path 441" d="M108.617,101.558c.738-1.249-.53-2.213-1.632-2.494a2.139,2.139,0,0,0-.018-1.59,1.372,1.372,0,0,0-1.341-.8c-1.136.022-1.69,1.263-1.659,2.227a1.378,1.378,0,0,0,.02.162,3.045,3.045,0,0,0-.3.019,2.308,2.308,0,0,0-1.08.461,2.72,2.72,0,0,0-.613.844,1.341,1.341,0,0,0,1.026,1.842,2.675,2.675,0,0,0,2-.463,1.848,1.848,0,0,0,.488-.49,2.958,2.958,0,0,0,1.249.888,1.529,1.529,0,0,0,1.86-.6" transform="translate(689 3530)" fill="#ead16a"/>
    <path id="Path_442" data-name="Path 442" d="M157.964,205.015s3.107-9.171,8.268-4.753c4.951,4.239-7.107,7.664-7.107,7.664s8.242-1.434,8.337,3.927-7.478,3.829-9.157-1.913c0,0,1.565,6.016-3.034,8.02s-4.044-6.207.924-9.371c0,0-10.2,5.251-10.134.165.071-6.044,9.263-2.348,9.263-2.348s-7.077-6.288-1.783-8.4c4.214-1.681,4.423,7.008,4.423,7.008" transform="translate(689 3530)" fill="#5ac8ff"/>
    <g id="Group_378" data-name="Group 378" transform="translate(689 3530)" opacity="0.2" style="mix-blend-mode: overlay;isolation: isolate">
      <g id="Group_377" data-name="Group 377">
        <g id="Group_376" data-name="Group 376" clip-path="url(#clip-path-60)">
          <path id="Path_443" data-name="Path 443" d="M161.532,201.923c.509-.282,1.2-.488,1.629-.1.6.54.068,1.522-.5,2.1a25.059,25.059,0,0,1-5.279,4.114c2.381.114,5.123.422,6.44,2.409.373.562.55,1.408.04,1.85-.61.528-1.534.006-2.155-.509l-3.816-3.166a7.805,7.805,0,0,1-1.662,6.44c-.412.489-1.138.948-1.637.547a1.169,1.169,0,0,1-.353-.713c-.446-2.249.962-4.4,2.3-6.265q-2.7.775-5.456,1.348a3.477,3.477,0,0,1-1.723.057,1.231,1.231,0,0,1-.926-1.293,1.525,1.525,0,0,1,.645-.858c2-1.5,4.786-1.177,7.259-.779a12.269,12.269,0,0,1-2.244-2.414,3.718,3.718,0,0,1-.831-2.117,1.594,1.594,0,0,1,1.336-1.62c1.074-.057,1.657,1.211,1.942,2.248.26.945.376,2.47,1.151,3.072,1.418-1.328,1.874-3.266,3.839-4.352"/>
        </g>
      </g>
    </g>
    <path id="Path_444" data-name="Path 444" d="M161.08,209.607c.738-1.249-.53-2.213-1.632-2.494a2.139,2.139,0,0,0-.018-1.59,1.372,1.372,0,0,0-1.341-.8c-1.136.022-1.69,1.263-1.659,2.227a1.383,1.383,0,0,0,.02.162,3.045,3.045,0,0,0-.3.019,2.3,2.3,0,0,0-1.079.461,2.688,2.688,0,0,0-.613.844,1.34,1.34,0,0,0,1.025,1.842,2.675,2.675,0,0,0,2-.463,1.815,1.815,0,0,0,.487-.49,2.967,2.967,0,0,0,1.25.888,1.529,1.529,0,0,0,1.86-.6" transform="translate(689 3530)" fill="#ead16a"/>
    <path id="Path_445" data-name="Path 445" d="M78.441,197.123s3.108-9.171,8.269-4.753c4.951,4.239-7.107,7.664-7.107,7.664s8.242-1.434,8.337,3.927-7.478,3.829-9.157-1.913c0,0,1.565,6.016-3.034,8.02s-4.044-6.207.924-9.371c0,0-10.195,5.251-10.134.165.071-6.044,9.263-2.348,9.263-2.348s-7.077-6.288-1.783-8.4c4.214-1.681,4.422,7.008,4.422,7.008" transform="translate(689 3530)" fill="#5ac8ff"/>
    <g id="Group_381" data-name="Group 381" transform="translate(689 3530)" opacity="0.2" style="mix-blend-mode: overlay;isolation: isolate">
      <g id="Group_380" data-name="Group 380">
        <g id="Group_379" data-name="Group 379" clip-path="url(#clip-path-61)">
          <path id="Path_446" data-name="Path 446" d="M82.01,194.031c.509-.282,1.2-.488,1.629-.1.6.54.068,1.522-.5,2.1a25.085,25.085,0,0,1-5.279,4.114c2.381.114,5.123.422,6.44,2.409.373.562.55,1.408.04,1.85-.61.528-1.534.006-2.155-.509l-3.816-3.166a7.8,7.8,0,0,1-1.662,6.44c-.412.489-1.138.948-1.637.547a1.176,1.176,0,0,1-.354-.713c-.445-2.249.963-4.4,2.3-6.265q-2.7.775-5.456,1.348a3.477,3.477,0,0,1-1.723.057,1.231,1.231,0,0,1-.926-1.293,1.52,1.52,0,0,1,.645-.858c2-1.5,4.786-1.177,7.259-.779a12.269,12.269,0,0,1-2.244-2.414,3.718,3.718,0,0,1-.831-2.117,1.594,1.594,0,0,1,1.336-1.62c1.074-.057,1.657,1.211,1.942,2.248.26.945.376,2.47,1.151,3.072,1.418-1.328,1.874-3.266,3.839-4.352"/>
        </g>
      </g>
    </g>
    <path id="Path_447" data-name="Path 447" d="M81.557,201.715c.738-1.249-.53-2.213-1.632-2.494a2.139,2.139,0,0,0-.018-1.59,1.372,1.372,0,0,0-1.341-.8c-1.136.022-1.69,1.263-1.659,2.227a1.379,1.379,0,0,0,.02.162,3.04,3.04,0,0,0-.3.019,2.308,2.308,0,0,0-1.08.461,2.7,2.7,0,0,0-.612.844,1.34,1.34,0,0,0,1.025,1.842,2.675,2.675,0,0,0,2-.463,1.833,1.833,0,0,0,.488-.49,2.958,2.958,0,0,0,1.249.888,1.529,1.529,0,0,0,1.86-.6" transform="translate(689 3530)" fill="#ead16a"/>
    <path id="Path_448" data-name="Path 448" d="M13.324,169.076S.88,175.37.03,165.623c-.815-9.351,15.035-.711,15.035-.711s-9.919-6.837-4.611-12.445,11.549,3.605,7.486,11.2c0,0,4.457-7.763,11.206-5.186s-2.1,10.459-10.4,8.7c0,0,15.776,4.883,10.585,10.051-6.168,6.142-11.891-6.928-11.891-6.928s.934,13.6-6.637,10.434c-6.027-2.522,2.521-11.665,2.521-11.665" transform="translate(689 3530)" fill="#5ac8ff"/>
    <g id="Group_384" data-name="Group 384" transform="translate(689 3530)" opacity="0.2" style="mix-blend-mode: overlay;isolation: isolate">
      <g id="Group_383" data-name="Group 383">
        <g id="Group_382" data-name="Group 382" clip-path="url(#clip-path-62)">
          <path id="Path_449" data-name="Path 449" d="M6.537,168.655c-.807-.223-1.721-.7-1.774-1.54-.074-1.163,1.465-1.635,2.63-1.658a36.136,36.136,0,0,1,9.575,1.094c-2.333-2.518-4.841-5.6-4.192-8.97.185-.955.855-2,1.825-1.942,1.16.072,1.583,1.54,1.7,2.7l.731,7.1a11.239,11.239,0,0,1,8.2-4.945c.918-.087,2.127.174,2.236,1.089a1.694,1.694,0,0,1-.356,1.089c-1.81,2.76-5.43,3.557-8.682,4.121q3.559,1.927,6.969,4.117a5.024,5.024,0,0,1,1.829,1.679,1.774,1.774,0,0,1-.353,2.263,2.193,2.193,0,0,1-1.528.232c-3.576-.473-6.107-3.616-8.248-6.519a17.655,17.655,0,0,1-.128,4.744,5.357,5.357,0,0,1-1.28,3.015,2.3,2.3,0,0,1-3.007.318c-1.162-1.025-.484-2.916.27-4.27.686-1.233,2.1-2.919,1.915-4.32-2.8-.064-5.221,1.469-8.336.6"/>
        </g>
      </g>
    </g>
    <path id="Path_450" data-name="Path 450" d="M14.751,161.212c-2.018.54-1.687,2.809-.837,4.21a3.079,3.079,0,0,0-1.586,1.653,1.978,1.978,0,0,0,.568,2.179c1.191,1.122,3.011.4,3.952-.616a2.222,2.222,0,0,0,.143-.188c.11.1.215.2.331.288a3.326,3.326,0,0,0,1.575.614,3.9,3.9,0,0,0,1.482-.25,1.929,1.929,0,0,0,.8-2.927,3.849,3.849,0,0,0-2.528-1.545,2.636,2.636,0,0,0-.995.012,4.264,4.264,0,0,0-.389-2.173,2.2,2.2,0,0,0-2.519-1.257" transform="translate(689 3530)" fill="#ead16a"/>
  </g>
</svg>
