<svg id="Group_75" data-name="Group 75" xmlns="http://www.w3.org/2000/svg" xmlns:xlink="http://www.w3.org/1999/xlink" width="364" height="264.984" viewBox="0 0 364 264.984">
  <defs>
    <clipPath id="clip-path">
      <rect id="Rectangle_20" data-name="Rectangle 20" width="364" height="264.984" fill="none"/>
    </clipPath>
    <clipPath id="clip-path-3">
      <rect id="Rectangle_7" data-name="Rectangle 7" width="119.385" height="91.548" fill="none"/>
    </clipPath>
    <clipPath id="clip-path-4">
      <rect id="Rectangle_8" data-name="Rectangle 8" width="76.341" height="61.439" fill="none"/>
    </clipPath>
    <clipPath id="clip-path-5">
      <rect id="Rectangle_9" data-name="Rectangle 9" width="258.635" height="54.86" fill="none"/>
    </clipPath>
    <clipPath id="clip-path-6">
      <rect id="Rectangle_10" data-name="Rectangle 10" width="58.092" height="60.284" fill="none"/>
    </clipPath>
    <clipPath id="clip-path-7">
      <rect id="Rectangle_11" data-name="Rectangle 11" width="25.495" height="48.104" fill="none"/>
    </clipPath>
    <clipPath id="clip-path-8">
      <rect id="Rectangle_12" data-name="Rectangle 12" width="41.33" height="34.75" fill="none"/>
    </clipPath>
    <clipPath id="clip-path-9">
      <rect id="Rectangle_13" data-name="Rectangle 13" width="18.669" height="17.482" fill="none"/>
    </clipPath>
    <clipPath id="clip-path-10">
      <rect id="Rectangle_14" data-name="Rectangle 14" width="19.358" height="12.63" fill="none"/>
    </clipPath>
    <clipPath id="clip-path-11">
      <rect id="Rectangle_15" data-name="Rectangle 15" width="61.379" height="73.653" fill="none"/>
    </clipPath>
    <clipPath id="clip-path-12">
      <rect id="Rectangle_16" data-name="Rectangle 16" width="93.262" height="113.471" fill="none"/>
    </clipPath>
    <clipPath id="clip-path-13">
      <rect id="Rectangle_17" data-name="Rectangle 17" width="36.048" height="37.331" fill="none"/>
    </clipPath>
    <clipPath id="clip-path-14">
      <rect id="Rectangle_18" data-name="Rectangle 18" width="29.603" height="27.956" fill="none"/>
    </clipPath>
  </defs>
  <g id="Group_74" data-name="Group 74" clip-path="url(#clip-path)">
    <g id="Group_73" data-name="Group 73">
      <g id="Group_72" data-name="Group 72" clip-path="url(#clip-path)">
        <path id="Path_44" data-name="Path 44" d="M259.422,155.232c-1.376-5.075-6.212-8.759-11.389-9.677s-10.559.6-15.11,3.233a3.1,3.1,0,0,0-.489.361c2.058-10.164-.832-21.625-8.97-27.981-8.684-6.784-23.313-5.392-28.927,4.089-1.631-5.621-4.958-11.26-10.436-13.325s-12.978,1.383-13.181,7.233c-.377-8.4-10.625-14.633-18.256-11.113.962-4.943-4.372-9.316-9.408-9.24s-7.709,4.225-11.609,7.413c-3.466-9.792-7.529-20.34-16.407-25.732-8-4.858-18.92-4.124-26.4,1.5a26.034,26.034,0,0,0-9.6,24.886c-5.906-2.665-13.782,1.853-14.461,8.3a9.22,9.22,0,0,0-17.853.606c-.466,2.119.136,5.08.431,7.229a27.4,27.4,0,0,0-19.125,46.812,6.261,6.261,0,0,0,2.008,1.412,11.2,11.2,0,0,0-10.261,8.744c-3.356-1.086-7.335-.8-10.018,1.491s-2.293,6.376.076,8.988c-3.148-1.386-7.139.2-8.89,3.162a9.618,9.618,0,0,0,.436,9.8,7.844,7.844,0,0,0,2.859,2.8c2.424,1.29,5.5.742,7.844-.684a23.955,23.955,0,0,0,5.851-5.739c.579,7.841,7.544,14.457,15.339,15.479,7.536.99,15.263-2.817,19.848-8.887a8.887,8.887,0,0,0,16.161.694,25.014,25.014,0,0,0,41.237-5.776c7.249-15.073,31.049-17.526,47.734-18.682s33.555-.152,50.058-2.865c15.9-2.612,31.01-8.6,45.982-14.548a12.594,12.594,0,0,0,4.682-2.7c1.973-2.084,1-4.5.247-7.275" transform="translate(0 19.287)" fill="#3c96d3"/>
        <g id="Group_38" data-name="Group 38" transform="translate(0 143.196)" opacity="0.2" style="mix-blend-mode: overlay;isolation: isolate">
          <g id="Group_37" data-name="Group 37">
            <g id="Group_36" data-name="Group 36" clip-path="url(#clip-path-3)">
              <path id="Path_45" data-name="Path 45" d="M110.718,191.982a23.366,23.366,0,0,1,8.666-9.432c-.322-.135-.65-.256-.967-.4a16.652,16.652,0,0,1-17.352,5.111c-1.866-.586-3.706-1.521-5.657-1.387s-3.96,1.991-3.31,3.836a14.906,14.906,0,0,1-15.966-7.773c-1.608,3.568-7.187,4.409-9.777,1.476-1.593-1.8-2.078-4.564-4.11-5.856-1.918-1.218-4.406-.635-6.674-.771-6.037-.364-10.59-6.269-11.368-12.265s1.347-11.969,3.774-17.507c-7.838,2.361-15.368-6.471-15.032-14.648.307-7.455,4.95-11.591,7.91-17.771A27.325,27.325,0,0,0,28.227,160.5a6.255,6.255,0,0,0,2.009,1.411,11.207,11.207,0,0,0-10.262,8.744c-3.356-1.086-7.335-.8-10.019,1.491s-2.293,6.376.077,8.988c-3.149-1.386-7.14.2-8.89,3.162a9.621,9.621,0,0,0,.436,9.8,7.85,7.85,0,0,0,2.858,2.8c2.426,1.29,5.5.742,7.844-.684a23.929,23.929,0,0,0,5.851-5.738c.581,7.84,7.545,14.456,15.339,15.479,7.538.988,15.264-2.818,19.849-8.889a8.888,8.888,0,0,0,16.161.694,25.014,25.014,0,0,0,41.237-5.776" transform="translate(0 -114.592)"/>
            </g>
          </g>
        </g>
        <g id="Group_41" data-name="Group 41" transform="translate(183.996 139.601)" opacity="0.2" style="mix-blend-mode: overlay;isolation: isolate">
          <g id="Group_40" data-name="Group 40">
            <g id="Group_39" data-name="Group 39" clip-path="url(#clip-path-4)">
              <path id="Path_46" data-name="Path 46" d="M222.42,153.907c1.973-2.084,1-4.5.247-7.275-1.375-5.075-6.212-8.759-11.389-9.677s-10.559.6-15.109,3.233a3.042,3.042,0,0,0-.489.361c2.058-10.164-.832-21.625-8.971-27.981-.392-.307-.811-.579-1.228-.854,1.583,6.456-1.546,14.282-7.915,16.711,5.193,6.214,8.155,14.875,5.636,22.573s-11.694,13.193-19.142,10.011a39.95,39.95,0,0,1-16.82,12.145,183.109,183.109,0,0,0,24.515-2c15.9-2.612,31.01-8.6,45.982-14.548a12.584,12.584,0,0,0,4.682-2.7" transform="translate(-147.242 -111.715)"/>
            </g>
          </g>
        </g>
        <path id="Path_47" data-name="Path 47" d="M248.032,137.628c-5.177-.918-10.559.6-15.109,3.233a3.043,3.043,0,0,0-.489.361c2.058-10.164-.832-21.625-8.971-27.981a21.577,21.577,0,0,0-21.188-2.54c4.987,8.784,2.95,21.666-5.664,27.4,3.975,4.9,2.077,12.655-2.441,17.056s-10.864,6.264-16.957,7.891c-15.976,4.264-33.9,7.74-48.318-.355a17.1,17.1,0,0,1-17.378,7.045c-2.943-.634-5.908-2.069-8.827-1.333-2.184.551-3.881,2.224-5.846,3.329A12.448,12.448,0,0,1,81.6,168.845c-.07,5.293-5.769,9.32-11.04,8.825s-9.7-4.479-12.176-9.158-3.335-10.018-4.16-15.248c-8.916,3.033-18.655-4.55-21.306-13.587-2.092-7.13.966-14.5,1.873-21.281a27.779,27.779,0,0,0-12.6,13.719,28.078,28.078,0,0,0,6.031,29.776,6.266,6.266,0,0,0,2.009,1.412,11.2,11.2,0,0,0-10.261,8.744c-3.356-1.086-7.336-.8-10.018,1.491s-2.294,6.376.075,8.988c-3.148-1.386-7.139.2-8.89,3.162a9.621,9.621,0,0,0,.436,9.8,7.844,7.844,0,0,0,2.859,2.8c2.424,1.29,5.5.742,7.844-.684a23.955,23.955,0,0,0,5.851-5.74c.58,7.841,7.544,14.457,15.339,15.479,7.536.99,15.264-2.817,19.848-8.887a8.888,8.888,0,0,0,16.161.694,25.014,25.014,0,0,0,41.237-5.776c7.25-15.073,31.049-17.526,47.734-18.682s33.555-.152,50.058-2.865c15.9-2.612,31.01-8.6,45.982-14.548a12.584,12.584,0,0,0,4.682-2.7c1.973-2.084,1-4.5.247-7.275-1.375-5.075-6.212-8.759-11.389-9.677" transform="translate(0 27.213)" fill="#3682c1"/>
        <path id="Path_48" data-name="Path 48" d="M86.491,136.991c-3.446-4.277-2.346-10.747.486-15.454,4.457-7.415,13.243-12.379,21.807-11.157s15.94,9.345,15.234,17.967a11.916,11.916,0,0,1,21.57,4.056c2.341-3.242,7.92-2.95,10.3.26s1.433,8.2-1.649,10.743-7.73,2.707-11.293.895a17.444,17.444,0,0,1-22.492-.336c-1.482,5.078-5.789,9-10.678,11.022s-10.312,2.369-15.6,2.138c-3.1-.135-6.294-.489-9.027-1.973a9.239,9.239,0,0,1-4.865-7.129c-4.532,9.582-10.268-.993-9.693-6.78.937-9.428,10.374-11.107,15.9-4.251" transform="translate(17.611 27.506)" fill="#287faf"/>
        <path id="Path_49" data-name="Path 49" d="M319.1,187.279c.96-6.673,1.807-14.063-1.122-19.761-1.884-3.664-5.255-6.089-8.775-6.312s-7.119,2.862-9.335,6.267c.434-5.721-1.575-11.616-5.18-15.214a12.329,12.329,0,0,0-13.147-3.072c-3.275,1.262-5.5,5.433-6.047,9.612a36.6,36.6,0,0,0-2.855-11.012c-1.625-3.314-4.327-6.023-7.459-6.374s-7.322,2.291-7.88,6.118c-2.505-3.019-5.23-6.182-8.686-6.93s-7.856,5.582-7.72,9.916c-2.1-3.935-4.226-7.914-7.044-11.088s-6.446-5.51-10.272-5.482c-3.059.021-6.923,1.533-7.223,5.293-2.965-3.633-6.144-7.416-10.216-8.614s-8.975,2.427-9.714,7.528a11.547,11.547,0,0,0-11.292-4.461c-4.061.865-7.721,4.289-9.5,8.887.932.064-.02,1.837.457.841-2.485-4.314-7.539-6.016-11.485-3.87s-6.014,7.789-5.148,12.983c-1.884-4.31-3.893-8.669-6.9-11.863s-7.232-5.055-11.033-3.578c-1.541.6-3.553.92-2.452,2.364a14.108,14.108,0,0,0-7.716-3.525,7.6,7.6,0,0,0-5.456,1.216,5.772,5.772,0,0,0-2.657,5.28,19.267,19.267,0,0,0-17.237,5.035c-4.872,4.5-8.136,11.575-8.784,19.027-.189,2.171-.747,5.866.841,4.9-3.643-1.215-7.951-.581-10.569,2.805s-2.535,9.8.73,12.124Z" transform="translate(21.379 32.549)" fill="#26779b"/>
        <path id="Path_50" data-name="Path 50" d="M317.98,166.4c-1.884-3.665-5.256-6.089-8.775-6.312s-7.119,2.862-9.335,6.267c.434-5.721-1.575-11.618-5.18-15.214a13.141,13.141,0,0,0-5.657-3.341c-.072.142-.126.295-.2.436-2.473,4.522-6.917,7.719-11.7,9.642-3.786,1.522-8,2.333-11.97,1.4s-7.625-3.881-8.592-7.848c-4.5,6.356-15.06,7.069-20.38,1.377-4.876,3.133-11,3.388-16.79,3.546l-11.583.319c-5.448.149-12.35-.67-13.987-5.868-4.527,5.778-14.908,5.168-18.727-1.1-5.387,8.371-19.483,8.854-25.428.868-1.271,3.941-5.847,6.177-9.956,5.663s-7.661-3.256-10.149-6.567c-4.492-5.977-2.368-10.126-.948-14.775a6.493,6.493,0,0,0-2.713,1.141,5.772,5.772,0,0,0-2.657,5.28,19.269,19.269,0,0,0-17.237,5.033c-4.872,4.5-8.135,11.575-8.784,19.028-.131,1.508-.439,3.748-.084,4.652a9.16,9.16,0,0,0-9.645,3.049c-2.619,3.386-2.535,9.8.73,12.124l230.871.963c.96-6.673,1.807-14.063-1.122-19.761" transform="translate(21.379 33.67)" fill="#287faf"/>
        <path id="Path_51" data-name="Path 51" d="M129,158.595a18.409,18.409,0,0,1-15.86-15.82,16.16,16.16,0,0,1-.071-2.157,20.787,20.787,0,0,0-7.054,4.295c-4.871,4.5-8.135,11.575-8.784,19.028-.131,1.507-.439,3.748-.084,4.652a9.161,9.161,0,0,0-9.645,3.048c-2.619,3.388-2.535,9.8.73,12.125l46.713.195c10.344-8.057-7.239-14.272-5.946-25.366" transform="translate(21.379 35.1)" fill="#3c96d3"/>
        <path id="Path_52" data-name="Path 52" d="M134.5,173.437c2.647-6.393,11.157-9.556,17.337-6.444,2.99-6.212,11.465-9.046,17.591-5.884a9.871,9.871,0,0,0,3.39,1.427c2.027.2,3.765-1.3,5.392-2.523,5.8-4.371,15.44-5.463,19.39.637,2.963-5.642,12.2-6.338,15.973-1.2,2.6-5.6,11.67-6.485,15.3-1.485,4.9-4.79,14.414-2.992,17.228,3.254,4.9-3.3,12.766.545,13.168,6.441,4.807-3,11.568-.144,14.565,4.664s3.137,10.832,2.749,16.484c-3.7-2-8.195-1.443-12.344-.771-23.07,3.735-45.875,9.328-69.155,11.393s-47.518.387-68.57-9.762c-5.3-2.554-13.653-5.712-8.427-12.244,2.184-2.729,16.794-4.9,16.411-3.981" transform="translate(29.064 38.609)" fill="#287faf"/>
        <path id="Path_53" data-name="Path 53" d="M273.837,171.572c-3-4.807-9.758-7.663-14.565-4.664-.4-5.9-8.266-9.743-13.167-6.442a9.2,9.2,0,0,0-1.993-2.8A8.016,8.016,0,0,1,241.724,159c3.259,4.151,1.127,10.833-3.349,13.628s-10.316,2.413-15.278.616a11.272,11.272,0,0,1-15.183-2.517,13.873,13.873,0,0,1-17.675-.671c-1.112,3.129-5.061,4.456-8.3,3.748s-5.927-2.908-8.474-5.038c-.056,3.978-4.772,6.729-8.634,5.768s-6.583-4.579-7.725-8.39a9.681,9.681,0,0,1,.034-5.337,12.453,12.453,0,0,0-5.3,5.442c-6.181-3.112-14.69.052-17.337,6.446.382-.923-14.227,1.251-16.411,3.981-5.226,6.532,3.13,9.688,8.427,12.242,21.052,10.149,45.291,11.826,68.57,9.762,9.561-.847,19.04-2.3,28.494-3.968q20.086-4.784,39.986-10.309c4.534-1.261,9.3-2.732,12.762-5.789a18.84,18.84,0,0,0-2.493-7.038" transform="translate(29.064 39.356)" fill="#3c96d3"/>
        <path id="Path_54" data-name="Path 54" d="M334.029,180.36c-.674-1.362-.627-3.125-.988-4.66s-1.031-3.123-2.236-3.705-2.407-.025-2.234,1.561c-1.581-3.325-3.474-6.947-6.515-7.845-2.994-.883-6.036,1.223-8.435,3.633a17.185,17.185,0,0,0-4.089,5.862c-.122.316-.229.644-.322.978-1.512-5.567-3.793-10.744-8.016-12.985-4.245-2.252-9.3-.675-13.211,2.427-3.715,2.95-6.884,7.74-6.867,13.176-1.788-3.144-4.146-6.132-7.205-6.874a5.883,5.883,0,0,0-6.9,5.617c-1.543-4.7-4.161-9.332-8.107-10.762s-9.878,1.488-9.688,6.569a14.03,14.03,0,0,0-16.4-8.376c-6.247,1.581-11.521,6.82-15.731,12.756a16.808,16.808,0,0,0-3.045,6.162,9.059,9.059,0,0,0-.159,2.577,15.107,15.107,0,0,0-8.727-7.338c-4.709-1.32-9.932.485-13.428,4.64a7.616,7.616,0,0,0-10.647-5.346c-4.014,2.028-6.553,6.455-7.44,11.691a45.487,45.487,0,0,0-16.671-14.082c-3.22-1.543-6.68-2.63-10.124-2.162a10.956,10.956,0,0,0-8.521,6.489,18.57,18.57,0,0,0-2.458-7.374,11.479,11.479,0,0,0-8.59-5.033c-3.253-.337-6.233,1.723-9.447,2.464a41.089,41.089,0,0,0-6.234-7.441c-2.379-2.044-5.278-3.385-8.17-2.984s-5.461,2.473-7.67,4.822a17.8,17.8,0,0,0-3.969,6c-2.174.614-5.308-.565-7.534-.607-4.216-.079-8.394,4.019-8.821,9.2s3.473,10.384,7.659,9.723c5.375,11.117,18.037,16.846,28.178,13.321,2.753-.957,5.776-3.37,5.912-6.725a17.6,17.6,0,0,0,12.37,16.094c6.51,1.833,13.3-.082,19.82-1.992.642,4.592,4.1,7.971,7.59,9.722a9.678,9.678,0,0,0,10.793-1.6,4.3,4.3,0,0,1,1.672-1.142c1.085-.254,2.077.694,2.955,1.51,6.159,5.726,14.313,7.4,22.021,6.543s15.124-4,22.451-7.124c4.384,5.307,11.756,7.794,17.732,5.894s11.235-6.227,16.365-10.483c2.683-2.226,5.54-4.725,6.553-8.51a19.267,19.267,0,0,0,26.809.887,19.4,19.4,0,0,0,21.055,7.655c7.541-1.966,14.138-7.8,19.39-14.789,1.125.827,2.949-.64,4.065-1.5a9.636,9.636,0,0,0,2.562-3.649,29.888,29.888,0,0,0,2.647-12.874" transform="translate(18.821 39.919)" fill="#87bfff"/>
        <g id="Group_44" data-name="Group 44" transform="translate(94.219 210.124)" opacity="0.2" style="mix-blend-mode: overlay;isolation: isolate">
          <g id="Group_43" data-name="Group 43">
            <g id="Group_42" data-name="Group 42" clip-path="url(#clip-path-5)">
              <path id="Path_55" data-name="Path 55" d="M328.821,194.829a9.641,9.641,0,0,0,2.562-3.65,29.883,29.883,0,0,0,2.647-12.872c-.674-1.363-.627-3.125-.988-4.661-.044-.184-.106-.365-.16-.549a29.11,29.11,0,0,1-7.025,9.088c-3.341,2.859-7.716,5.062-12.026,4.195-1.33-.269-2.663-.822-4-.575-1.645.3-2.8,1.722-3.97,2.92-7.626,7.84-21.62,8.18-29.618.72-4.834,7.383-17.817,6.79-21.958-1-.614,4.592-1.858,9.38-5.166,12.624s-9.215,4.192-12.49.915c-4.56,6.977-17.06,5.9-20.361-1.751a14.639,14.639,0,0,1-27,1.156,22.359,22.359,0,0,1-35.167-6.62,14.24,14.24,0,0,1-24.685-4.225c-6.423,3.626-15.563,1.1-19.212-5.308a15.181,15.181,0,0,1-17.839-4.21c-2.1-2.672-1.954-7.61-1.831-12.1-2.018.056-4.454-.731-6.283-.766-4.216-.079-8.394,4.018-8.822,9.2s3.474,10.383,7.66,9.722c5.375,11.117,18.037,16.847,28.178,13.321,2.753-.956,5.776-3.37,5.912-6.724a17.6,17.6,0,0,0,12.37,16.093c6.51,1.833,13.3-.081,19.82-1.992.642,4.594,4.1,7.973,7.59,9.723a9.68,9.68,0,0,0,10.793-1.6,4.312,4.312,0,0,1,1.672-1.143c1.085-.252,2.077.694,2.955,1.511,6.159,5.726,14.313,7.394,22.021,6.543s15.124-4,22.449-7.124c4.385,5.306,11.758,7.793,17.733,5.894s11.235-6.228,16.365-10.483c2.683-2.226,5.54-4.725,6.553-8.51a19.267,19.267,0,0,0,26.809.887,19.4,19.4,0,0,0,21.055,7.654c7.541-1.964,14.138-7.8,19.39-14.788,1.125.827,2.949-.641,4.065-1.5" transform="translate(-75.398 -168.151)"/>
            </g>
          </g>
        </g>
        <path id="Path_56" data-name="Path 56" d="M196.677,173.85c-.041.044-.082.089-.122.134-3.679,4.09-5.452,10.83-2.161,15.611,7.353,10.68,30.9-6,22.715-16.69-4.973-6.5-15.448-4.44-20.432.945" transform="translate(48.091 42.148)" fill="#65a8ea"/>
        <path id="Path_57" data-name="Path 57" d="M205.561,185.525c.1-.075.209-.161.326-.255l-.119.07-.207.185" transform="translate(51.311 46.246)" fill="#603526"/>
        <path id="Path_58" data-name="Path 58" d="M218.687,174.118a6.313,6.313,0,0,0-.345,7.91c1.941,2.924,5.7,4.161,8.75,2.021a7.03,7.03,0,0,0,.882-10.333,6.426,6.426,0,0,0-9.287.4" transform="translate(54.196 42.914)" fill="#65a8ea"/>
        <path id="Path_59" data-name="Path 59" d="M261.422,171.414c-3.85-5.337-14.552-6.274-16.927,3.132-2.483,9.841,9.4,14.959,15.613,7.5,3.453-4.151,3.248-7.945,1.315-10.627" transform="translate(60.945 41.79)" fill="#65a8ea"/>
        <path id="Path_60" data-name="Path 60" d="M162.58,179.478a6.918,6.918,0,0,0-6.982,7.5,6.434,6.434,0,0,0,5.918,5.832,6.893,6.893,0,0,0,7.162-5.161,6.505,6.505,0,0,0-6.1-8.171" transform="translate(38.831 44.798)" fill="#65a8ea"/>
        <path id="Path_61" data-name="Path 61" d="M138,173.42c-5.25-1.649-11.234,1.738-11.98,7.294a6.9,6.9,0,0,0,2.053,6.181c2.528,2.2,5.758,1.41,8.755.978l-.469.064c3.348-.636,6.393-2.555,6.959-6.266A7.659,7.659,0,0,0,138,173.42" transform="translate(31.437 43.183)" fill="#65a8ea"/>
        <path id="Path_62" data-name="Path 62" d="M145.438,183.435c-5.686,1.841-3.785,10.822,2.268,9.826,6.53-1.076,3.939-11.834-2.268-9.826" transform="translate(35.454 45.726)" fill="#65a8ea"/>
        <path id="Path_63" data-name="Path 63" d="M181.071,188.6c-2.6-1.406-5.516-.8-6.809,1.986a4.945,4.945,0,0,0,2.131,6.523c5.58,3.128,10-5.623,4.679-8.509" transform="translate(43.376 46.894)" fill="#65a8ea"/>
        <path id="Path_64" data-name="Path 64" d="M176.306,199.931c-4.7-2.808-9.156,4.184-4.209,6.73,4.29,2.208,8.561-4.13,4.209-6.73" transform="translate(42.418 49.742)" fill="#65a8ea"/>
        <path id="Path_65" data-name="Path 65" d="M202.782,194.974c-5.117-2.994-10.368,4.272-5.258,7.589,4.865,3.158,10.928-4.271,5.258-7.589" transform="translate(48.784 48.492)" fill="#65a8ea"/>
        <path id="Path_66" data-name="Path 66" d="M244.8,30.674s11.28-28.2,13.677-30.456,35.109,13.253,44.415,35.249A160.059,160.059,0,0,1,272.72,60.284Z" transform="translate(61.106 0)" fill="#3682c1"/>
        <g id="Group_47" data-name="Group 47" transform="translate(305.908)" opacity="0.2" style="mix-blend-mode: overlay;isolation: isolate">
          <g id="Group_46" data-name="Group 46">
            <g id="Group_45" data-name="Group 45" clip-path="url(#clip-path-6)">
              <path id="Path_67" data-name="Path 67" d="M302.894,35.468c-9.306-22-42.018-37.506-44.415-35.25a16.839,16.839,0,0,0-2.093,3.531c.569.231,1.106.459,1.578.687,6.6,3.187,12.679,7.353,18.717,11.479,4.529,3.094,9.385,6.638,10.767,11.946a11.481,11.481,0,0,1-15.43,13.532c-2.937-1.192-5.228-3.521-7.668-5.546a44.811,44.811,0,0,0-18.009-8.975c-.941,2.311-1.538,3.8-1.538,3.8l27.918,29.61a160.007,160.007,0,0,0,30.174-24.816" transform="translate(-244.802 0)"/>
            </g>
          </g>
        </g>
        <path id="Path_68" data-name="Path 68" d="M186.755,140.533a8.691,8.691,0,0,0,6.054-1.165c1.7-1.242,2.472-3.893,1.137-5.518a59.307,59.307,0,0,0,19.5-24.557,37.084,37.084,0,0,1-17.09-1.44c-8.991-2.745-6.4-8.077-5.213-16.284-4.241,2.366-15.267,9.425-18.618,12.94s-5.828,8.065-6.019,12.917c-.19,4.8.4,13.691,4.717,16.632,4.337,2.954,10.306,5.914,15.53,6.474" transform="translate(41.555 22.857)" fill="#26779b"/>
        <g id="Group_50" data-name="Group 50" transform="translate(208.032 114.783)" opacity="0.2" style="mix-blend-mode: overlay;isolation: isolate">
          <g id="Group_49" data-name="Group 49">
            <g id="Group_48" data-name="Group 48" clip-path="url(#clip-path-7)">
              <path id="Path_69" data-name="Path 69" d="M191.061,92.037c-.179-.069-.361-.125-.544-.181-4.607,2.647-14.79,9.225-17.991,12.581-3.351,3.514-5.827,8.065-6.019,12.917-.189,4.8.4,13.691,4.717,16.632a41.527,41.527,0,0,0,12.815,5.973,36.1,36.1,0,0,1-2.919-9.837,15.656,15.656,0,0,1,.46-7.738,7.451,7.451,0,0,1,5.595-4.938c-.752-5.362,1.743-8.454,4.8-11.883-3.4-2.953-1.848-7.42-.911-13.527" transform="translate(-166.477 -91.855)"/>
            </g>
          </g>
        </g>
        <g id="Group_53" data-name="Group 53" transform="translate(209.107 120.885)" opacity="0.2" style="mix-blend-mode: overlay;isolation: isolate">
          <g id="Group_52" data-name="Group 52">
            <g id="Group_51" data-name="Group 51" clip-path="url(#clip-path-8)">
              <path id="Path_70" data-name="Path 70" d="M195.592,115.782c-2.617-.161-5.431-.4-7.439-2.084a10.793,10.793,0,0,1-2.522-3.55c-.955-1.908-2.753-12.854-3.83-13.283a2.349,2.349,0,0,0-1.175-.095,60.756,60.756,0,0,0-8.314,6.449,22.859,22.859,0,0,0-4.973,7.806l0,.02c0,1.643,1.087,3.063,2.117,4.344l10.782,13.4a7.453,7.453,0,0,0,1.919,1.869,6.909,6.909,0,0,0,3.054.729,47.369,47.369,0,0,0,10.678-.512q1.08-.87,2.114-1.791a93.092,93.092,0,0,1-13.963-2.985,11.343,11.343,0,0,1-3.946-1.784,11.171,11.171,0,0,1-2.121-2.477,76.425,76.425,0,0,1-6.647-11.76,2.628,2.628,0,0,1-.339-1.642c.165-.692.833-1.122,1.417-1.531a13,13,0,0,0,3.86-4.252q3.226,6.038,6.453,12.075c.87,1.628,1.846,3.359,3.513,4.15a8.221,8.221,0,0,0,2.847.609,67.769,67.769,0,0,0,18.347-.975c.436-.626.833-1.277,1.245-1.919l-13.075-.806" transform="translate(-167.337 -96.738)"/>
            </g>
          </g>
        </g>
        <path id="Path_71" data-name="Path 71" d="M259.516,37.748s-41.877,27.918-76.986,36.8c0,0-14.309,11.886-26.613,48.666l101.061-70.24Z" transform="translate(38.919 9.422)" fill="#65a8ea"/>
        <path id="Path_72" data-name="Path 72" d="M281.363,58.475c-.846,1.268-30.033,27.5-30.879,34.686s-.422,15.651-20.726,48.223c0,0-29.611,23.688-36.8,23.688s-7.614-11,6.768-22c0,0,8.882-11.844,12.69-12.267,0,0,2.114-13.959.846-15.651s-11-8.46-13.113-7.614-13.112,12.267-17.766,13.536c0,0-7.614,12.691-9.306,13.113,0,0,10.152,24.111,10.152,32.994s-9.306,5.5-15.65-5.5S149.81,133.77,154.04,127.424,179.421,82.163,184.5,80.049s20.726-6.768,20.726-6.768,48.223-24.535,54.991-35.533l19.624,1.806Z" transform="translate(38.222 9.422)" fill="#87bfff"/>
        <g id="Group_56" data-name="Group 56" transform="translate(202.636 164.188)" opacity="0.2" style="mix-blend-mode: overlay;isolation: isolate">
          <g id="Group_55" data-name="Group 55">
            <g id="Group_54" data-name="Group 54" clip-path="url(#clip-path-9)">
              <path id="Path_73" data-name="Path 73" d="M180.828,145.486q-.255-1-.511-1.994c-.961-3.749-2.112-7.793-5.211-10.112a11.545,11.545,0,0,0-7.619-1.961,10.036,10.036,0,0,0-5.33,1.542c1.121,1.878,2.2,3.688,3.163,5.352,5.9,10.227,14.351,13.854,15.508,7.173" transform="translate(-162.159 -131.391)"/>
            </g>
          </g>
        </g>
        <path id="Path_74" data-name="Path 74" d="M180.323,144.452a28.8,28.8,0,0,0-4.011-5.893c-2.669-2.827-8.73-5.6-11.975-1.871.145.249.3.51.441.752,5.951,10.316,14.507,13.932,15.545,7.012" transform="translate(41.021 33.67)" fill="#b3d9ff"/>
        <g id="Group_59" data-name="Group 59" transform="translate(228.738 161.747)" opacity="0.2" style="mix-blend-mode: overlay;isolation: isolate">
          <g id="Group_58" data-name="Group 58">
            <g id="Group_57" data-name="Group 57" clip-path="url(#clip-path-10)">
              <path id="Path_75" data-name="Path 75" d="M202.4,133.261a6.291,6.291,0,0,0-.56-.9,8.608,8.608,0,0,0-5.227-2.8c-5.08-.975-17.043,3.68-12.6,10.864a3.527,3.527,0,0,0,2.417,1.637c3.348-.669,9.6-4.452,15.97-8.807" transform="translate(-183.047 -129.438)"/>
            </g>
          </g>
        </g>
        <g id="Group_62" data-name="Group 62" transform="translate(198.941 107.79)" opacity="0.2" style="mix-blend-mode: overlay;isolation: isolate">
          <g id="Group_61" data-name="Group 61">
            <g id="Group_60" data-name="Group 60" clip-path="url(#clip-path-11)">
              <path id="Path_76" data-name="Path 76" d="M192.087,86.259c-.839,4.457-2.389,8.94-5.495,12.245s-8.025,5.188-12.321,3.735c1.343,4.048-.5,8.646-3.626,11.55s-7.3,4.392-11.443,5.395c11.586,7.258,23.242,25.818,20.23,40.729a2.836,2.836,0,0,0,.745-.422,12.141,12.141,0,0,0,1.12-2.252c.142-.415.239-.845.352-1.268.024-.292.061-.567.061-.893,0-8.882-10.152-32.994-10.152-32.994,1.692-.424,9.306-13.113,9.306-13.113,4.654-1.268,15.651-12.69,17.767-13.536s11.844,5.922,13.112,7.614S210.9,118.7,210.9,118.7c-3.806.424-12.69,12.267-12.69,12.267-.207.159-.381.316-.582.475a5.752,5.752,0,0,1,2.943,2.614,20.788,20.788,0,0,1,16.465-16.792,32.26,32.26,0,0,1,3.548-18.494,92.418,92.418,0,0,1-28.494-12.51" transform="translate(-159.202 -86.259)"/>
            </g>
          </g>
        </g>
        <g id="Group_65" data-name="Group 65" transform="translate(226.323 61.022)" opacity="0.2" style="mix-blend-mode: overlay;isolation: isolate">
          <g id="Group_64" data-name="Group 64">
            <g id="Group_63" data-name="Group 63" clip-path="url(#clip-path-12)">
              <path id="Path_77" data-name="Path 77" d="M185.97,162.3c7.192,0,36.8-23.688,36.8-23.688,20.3-32.571,19.88-41.031,20.726-48.223s30.033-33.416,30.879-34.686l-.554-6.875c-4.341,2.889-8.31,7.52-10.193,9.645Q251.517,72.15,238.474,84.957a23.512,23.512,0,0,0-4.709,5.689,23.632,23.632,0,0,0-1.946,7.568c-1.452,10.069-3.391,20.442-9.167,28.819-5.9,8.56-15.152,14.1-24.111,19.37q-4.411,2.6-8.82,5.191c-2.459,1.448-5.482,2.843-8.224,2.957-1.247,4.6.631,7.754,4.472,7.754" transform="translate(-181.114 -48.833)"/>
            </g>
          </g>
        </g>
        <path id="Path_78" data-name="Path 78" d="M187.968,144.526c-6.028,0-7.262-7.734.957-16.712-2.518-7.671-8.206-10.428-12.8-4.72-9.306,11.563,5.922,40.044,5.922,40.044a56.894,56.894,0,0,0,7.444-18.86,5.961,5.961,0,0,1-1.522.249" transform="translate(43.211 29.967)" fill="#e5d100"/>
        <path id="Path_79" data-name="Path 79" d="M238.822,41.065s14.523,6.346,21.15,20.727c0,0,8.883-1.974,14.241-7.614s-23.688-31.584-27.918-29.611-7.473,16.5-7.473,16.5" transform="translate(59.613 6.106)" fill="#26779b"/>
        <g id="Group_68" data-name="Group 68" transform="translate(298.435 30.567)" opacity="0.2" style="mix-blend-mode: overlay;isolation: isolate">
          <g id="Group_67" data-name="Group 67">
            <g id="Group_66" data-name="Group 66" clip-path="url(#clip-path-13)">
              <path id="Path_80" data-name="Path 80" d="M259.972,61.792s8.883-1.974,14.241-7.614-23.688-31.584-27.918-29.61c-1.136.53-2.2,1.977-3.147,3.791,2.678,1.577,5.907,2.883,7.583,4.117A58.665,58.665,0,0,1,265.059,47.62a7.817,7.817,0,0,1,1.658,4.459c-.075,1.611-1.493,3.252-3.079,2.957a4.611,4.611,0,0,1-2.392-1.8,38.889,38.889,0,0,0-22.357-12.467c-.04.171-.067.292-.067.292s14.523,6.346,21.15,20.727" transform="translate(-238.822 -24.461)"/>
            </g>
          </g>
        </g>
        <g id="Group_71" data-name="Group 71" transform="translate(229.444 104.04)" opacity="0.2" style="mix-blend-mode: overlay;isolation: isolate">
          <g id="Group_70" data-name="Group 70">
            <g id="Group_69" data-name="Group 69" clip-path="url(#clip-path-14)">
              <path id="Path_81" data-name="Path 81" d="M205.114,83.349c-8.356-1.255-17.451,10.6-20.472,17.211a14.059,14.059,0,0,0-1.028,3.087c3.97-3.393,7.77-7,8.925-7.463,2.114-.847,11.844,5.921,13.112,7.614.575.767.454,4.053.151,7.416a46.435,46.435,0,0,0,3.988-5.9c2.178-3.845,3.833-8.209,3.34-12.6s-3.646-8.7-8.015-9.362" transform="translate(-183.612 -83.258)"/>
            </g>
          </g>
        </g>
        <path id="Path_82" data-name="Path 82" d="M179.554,80.58a8.382,8.382,0,0,0,5.533-6.668A10.755,10.755,0,0,0,184.992,70c-2.247.754-4.245,1.462-5.545,2-1.237.515-3.43,3.223-6.1,7.1a6.6,6.6,0,0,0,6.2,1.48" transform="translate(43.271 17.472)" fill="#b3d9ff"/>
        <path id="Path_83" data-name="Path 83" d="M199.409,135c-1-2.474-3.72-4.374-7.486-4.491a8.642,8.642,0,0,0-7.836,4.709,12.517,12.517,0,0,0-1.006,6.178,5.386,5.386,0,0,0,2.406.521c2.569,0,8-3.029,13.923-6.917" transform="translate(45.693 32.576)" fill="#b3d9ff"/>
      </g>
    </g>
  </g>
</svg>
