<svg id="Group_147" data-name="Group 147" xmlns="http://www.w3.org/2000/svg" xmlns:xlink="http://www.w3.org/1999/xlink" width="252.274" height="308.819" viewBox="0 0 252.274 308.819">
  <defs>
    <clipPath id="clip-path">
      <rect id="Rectangle_46" data-name="Rectangle 46" width="252.274" height="308.819" fill="none"/>
    </clipPath>
    <clipPath id="clip-path-3">
      <rect id="Rectangle_41" data-name="Rectangle 41" width="85.355" height="65.453" fill="none"/>
    </clipPath>
    <clipPath id="clip-path-4">
      <rect id="Rectangle_42" data-name="Rectangle 42" width="54.58" height="43.926" fill="none"/>
    </clipPath>
    <clipPath id="clip-path-5">
      <rect id="Rectangle_43" data-name="Rectangle 43" width="184.912" height="39.223" fill="none"/>
    </clipPath>
    <clipPath id="clip-path-6">
      <rect id="Rectangle_44" data-name="Rectangle 44" width="70.899" height="236.787" fill="none"/>
    </clipPath>
  </defs>
  <g id="Group_146" data-name="Group 146" clip-path="url(#clip-path)">
    <g id="Group_145" data-name="Group 145">
      <g id="Group_144" data-name="Group 144" clip-path="url(#clip-path)">
        <path id="Path_163" data-name="Path 163" d="M185.475,169.356c-.983-3.628-4.442-6.26-8.143-6.916a16.258,16.258,0,0,0-10.8,2.308,2.082,2.082,0,0,0-.35.26c1.471-7.266-.6-15.461-6.412-20.006-6.208-4.85-16.668-3.854-20.683,2.923-1.166-4.02-3.545-8.051-7.46-9.525s-9.279.988-9.424,5.17c-.27-6-7.6-10.463-13.053-7.946.69-3.535-3.126-6.659-6.726-6.606s-5.512,3.023-8.3,5.3c-2.479-7-5.383-14.542-11.73-18.4a17.3,17.3,0,0,0-18.879,1.07,18.616,18.616,0,0,0-6.865,17.793c-4.222-1.907-9.853,1.325-10.339,5.93a6.592,6.592,0,0,0-12.763.436c-.333,1.512.1,3.63.308,5.165a19.59,19.59,0,0,0-13.674,33.471,4.5,4.5,0,0,0,1.436,1.01,8.01,8.01,0,0,0-7.336,6.248,7.571,7.571,0,0,0-7.163,1.068c-1.917,1.637-1.64,4.557.055,6.426A5.261,5.261,0,0,0,.817,196.8a6.877,6.877,0,0,0,.312,7.006,5.593,5.593,0,0,0,2.045,2,5.814,5.814,0,0,0,5.608-.488,17.156,17.156,0,0,0,4.184-4.1c.413,5.606,5.392,10.336,10.966,11.067,5.389.708,10.913-2.015,14.191-6.354a6.354,6.354,0,0,0,11.554.5,17.882,17.882,0,0,0,29.481-4.129c5.184-10.777,22.2-12.531,34.129-13.357s23.989-.109,35.789-2.048c11.365-1.869,22.17-6.149,32.874-10.4a8.977,8.977,0,0,0,3.348-1.93c1.411-1.489.715-3.222.177-5.2" transform="translate(0 74.783)" fill="#3c96d3"/>
        <g id="Group_134" data-name="Group 134" transform="translate(0 221.746)" opacity="0.2" style="mix-blend-mode: overlay;isolation: isolate">
          <g id="Group_133" data-name="Group 133">
            <g id="Group_132" data-name="Group 132" clip-path="url(#clip-path-3)">
              <path id="Path_164" data-name="Path 164" d="M79.158,189.057a16.7,16.7,0,0,1,6.2-6.744c-.23-.1-.464-.182-.691-.289a11.908,11.908,0,0,1-12.407,3.655c-1.333-.42-2.65-1.088-4.044-.992s-2.831,1.423-2.368,2.743a10.658,10.658,0,0,1-11.413-5.557,4.426,4.426,0,0,1-6.991,1.055c-1.139-1.29-1.486-3.263-2.938-4.187-1.371-.871-3.151-.453-4.772-.551-4.315-.26-7.571-4.482-8.127-8.769s.963-8.558,2.7-12.518c-5.6,1.688-10.987-4.626-10.747-10.473.221-5.329,3.539-8.286,5.654-12.705a19.537,19.537,0,0,0-9.027,32.822,4.508,4.508,0,0,0,1.436,1.01,8.011,8.011,0,0,0-7.336,6.251,7.562,7.562,0,0,0-7.162,1.065c-1.919,1.638-1.64,4.558.055,6.427a5.261,5.261,0,0,0-6.356,2.26,6.873,6.873,0,0,0,.312,7.006,5.618,5.618,0,0,0,2.043,2,5.814,5.814,0,0,0,5.608-.489,17.127,17.127,0,0,0,4.184-4.1c.415,5.606,5.394,10.336,10.967,11.067,5.388.708,10.911-2.015,14.189-6.354a6.354,6.354,0,0,0,11.554.5,17.883,17.883,0,0,0,29.483-4.129" transform="translate(0 -133.727)"/>
            </g>
          </g>
        </g>
        <g id="Group_137" data-name="Group 137" transform="translate(131.548 219.175)" opacity="0.2" style="mix-blend-mode: overlay;isolation: isolate">
          <g id="Group_136" data-name="Group 136">
            <g id="Group_135" data-name="Group 135" clip-path="url(#clip-path-4)">
              <path id="Path_165" data-name="Path 165" d="M133.081,162.342c1.411-1.491.715-3.22.177-5.2-.983-3.628-4.442-6.261-8.143-6.918a16.249,16.249,0,0,0-10.8,2.312,2.154,2.154,0,0,0-.35.257c1.471-7.266-.6-15.459-6.414-20-.28-.221-.58-.415-.877-.61,1.131,4.615-1.106,10.211-5.659,11.947,3.713,4.444,5.83,10.636,4.029,16.139s-8.361,9.432-13.685,7.157A28.576,28.576,0,0,1,79.332,176.1a130.951,130.951,0,0,0,17.527-1.429c11.364-1.867,22.17-6.149,32.874-10.4a9,9,0,0,0,3.348-1.929" transform="translate(-79.331 -132.177)"/>
            </g>
          </g>
        </g>
        <path id="Path_166" data-name="Path 166" d="M177.331,151.177a16.265,16.265,0,0,0-10.8,2.312,2.243,2.243,0,0,0-.348.257c1.471-7.266-.6-15.459-6.414-20a15.425,15.425,0,0,0-15.149-1.816c3.567,6.28,2.109,15.489-4.049,19.587,2.842,3.5,1.484,9.047-1.744,12.194s-7.767,4.479-12.125,5.641c-11.422,3.048-24.235,5.533-34.544-.254a12.227,12.227,0,0,1-12.425,5.038c-2.1-.453-4.223-1.481-6.311-.953-1.562.393-2.776,1.589-4.179,2.38a8.9,8.9,0,0,1-10.9-2.063c-.05,3.786-4.124,6.664-7.893,6.309s-6.936-3.2-8.706-6.547-2.384-7.163-2.973-10.9c-6.374,2.169-13.339-3.253-15.234-9.714-1.494-5.1.691-10.37,1.34-15.216a19.859,19.859,0,0,0-9.006,9.81,20.078,20.078,0,0,0,4.311,21.288,4.508,4.508,0,0,0,1.436,1.01,8.011,8.011,0,0,0-7.336,6.251,7.563,7.563,0,0,0-7.162,1.065c-1.919,1.638-1.64,4.558.055,6.427a5.262,5.262,0,0,0-6.356,2.26,6.877,6.877,0,0,0,.312,7.006,5.618,5.618,0,0,0,2.043,2,5.813,5.813,0,0,0,5.61-.489,17.172,17.172,0,0,0,4.182-4.1c.415,5.6,5.394,10.334,10.967,11.065,5.388.708,10.913-2.013,14.189-6.354a6.354,6.354,0,0,0,11.554.5,17.883,17.883,0,0,0,29.483-4.129c5.184-10.777,22.2-12.529,34.127-13.357s23.991-.108,35.791-2.048c11.364-1.867,22.17-6.149,32.874-10.4A9.01,9.01,0,0,0,185.3,163.3c1.411-1.489.713-3.22.177-5.2-.983-3.628-4.442-6.261-8.143-6.918" transform="translate(0 86.043)" fill="#3682c1"/>
        <path id="Path_167" data-name="Path 167" d="M49.408,150.515c-2.464-3.058-1.676-7.684.348-11.049,3.187-5.3,9.468-8.85,15.592-7.976s11.394,6.679,10.889,12.844a8.522,8.522,0,0,1,15.423,2.9c1.671-2.316,5.661-2.109,7.364.186a5.854,5.854,0,0,1-1.179,7.681,7.569,7.569,0,0,1-8.074.64,12.473,12.473,0,0,1-16.081-.24,12.89,12.89,0,0,1-7.634,7.88A26.1,26.1,0,0,1,54.9,164.91a14.729,14.729,0,0,1-6.452-1.411,6.605,6.605,0,0,1-3.479-5.1c-3.24,6.852-7.343-.71-6.931-4.847.67-6.741,7.417-7.941,11.365-3.039" transform="translate(25.021 86.461)" fill="#287faf"/>
        <path id="Path_168" data-name="Path 168" d="M213.054,182.911c.686-4.771,1.292-10.055-.8-14.128a7.916,7.916,0,0,0-6.273-4.514c-2.517-.159-5.089,2.046-6.674,4.48a14.245,14.245,0,0,0-3.7-10.876,8.817,8.817,0,0,0-9.4-2.2c-2.341.9-3.933,3.885-4.323,6.872a26.159,26.159,0,0,0-2.041-7.872c-1.161-2.37-3.094-4.306-5.333-4.558a5.512,5.512,0,0,0-5.635,4.374c-1.791-2.159-3.738-4.419-6.21-4.955s-5.616,3.991-5.519,7.089A40.57,40.57,0,0,0,152.1,148.7c-2.015-2.27-4.606-3.94-7.343-3.92-2.187.017-4.95,1.1-5.165,3.784-2.119-2.6-4.393-5.3-7.3-6.157s-6.417,1.734-6.945,5.381a8.258,8.258,0,0,0-8.074-3.189,9.954,9.954,0,0,0-6.79,6.354c.667.045-.015,1.313.327.6-1.778-3.084-5.391-4.3-8.211-2.766s-4.3,5.568-3.681,9.283c-1.346-3.083-2.782-6.2-4.931-8.482s-5.17-3.615-7.888-2.557c-1.1.428-2.54.657-1.753,1.69a10.09,10.09,0,0,0-5.517-2.52,5.432,5.432,0,0,0-3.9.869,4.125,4.125,0,0,0-1.9,3.774,13.777,13.777,0,0,0-12.324,3.6,21.3,21.3,0,0,0-6.28,13.6c-.134,1.552-.534,4.194.6,3.5a6.682,6.682,0,0,0-7.558,2c-1.872,2.421-1.812,7.009.522,8.669Z" transform="translate(30.373 93.625)" fill="#26779b"/>
        <path id="Path_169" data-name="Path 169" d="M212.252,167.189a7.914,7.914,0,0,0-6.275-4.512c-2.515-.159-5.089,2.045-6.673,4.479a14.247,14.247,0,0,0-3.7-10.876,9.411,9.411,0,0,0-4.046-2.389c-.051.1-.09.212-.144.312a16.227,16.227,0,0,1-8.366,6.893,14.38,14.38,0,0,1-8.558,1,8.14,8.14,0,0,1-6.142-5.61c-3.222,4.543-10.768,5.053-14.572.983-3.486,2.24-7.862,2.423-12,2.535q-4.141.114-8.281.227c-3.9.108-8.83-.478-10-4.2-3.235,4.132-10.657,3.7-13.388-.786-3.85,5.986-13.929,6.331-18.179.622-.909,2.817-4.18,4.416-7.119,4.048a11.224,11.224,0,0,1-7.256-4.694c-3.21-4.273-1.693-7.238-.677-10.563a4.668,4.668,0,0,0-1.942.814,4.13,4.13,0,0,0-1.9,3.776,13.776,13.776,0,0,0-12.324,3.6,21.3,21.3,0,0,0-6.28,13.6,10.79,10.79,0,0,0-.058,3.326,6.55,6.55,0,0,0-6.9,2.181c-1.872,2.421-1.812,7.008.522,8.667l165.063.688c.686-4.771,1.292-10.054-.8-14.128" transform="translate(30.373 95.217)" fill="#287faf"/>
        <path id="Path_170" data-name="Path 170" d="M77.139,160.6A13.161,13.161,0,0,1,65.8,149.291a11.413,11.413,0,0,1-.051-1.542A14.88,14.88,0,0,0,60.7,150.82a21.3,21.3,0,0,0-6.278,13.6,10.8,10.8,0,0,0-.061,3.326,6.548,6.548,0,0,0-6.895,2.179c-1.872,2.421-1.812,7.008.522,8.669l33.4.139c7.4-5.762-5.177-10.2-4.252-18.136" transform="translate(30.374 97.249)" fill="#3c96d3"/>
        <path id="Path_171" data-name="Path 171" d="M75.65,168.736a9.4,9.4,0,0,1,12.4-4.608,9.622,9.622,0,0,1,12.577-4.207,7.088,7.088,0,0,0,2.423,1.021c1.449.143,2.693-.929,3.855-1.8,4.15-3.126,11.039-3.905,13.863.456,2.119-4.034,8.72-4.532,11.42-.862,1.859-4.006,8.344-4.636,10.939-1.061,3.5-3.424,10.306-2.139,12.319,2.326,3.5-2.361,9.127.39,9.414,4.6,3.437-2.144,8.269-.1,10.414,3.335s2.244,7.744,1.965,11.785c-2.642-1.429-5.858-1.031-8.823-.552-16.5,2.671-32.8,6.669-49.444,8.145s-33.972.277-49.023-6.979c-3.787-1.826-9.762-4.082-6.026-8.752,1.562-1.952,12.007-3.507,11.733-2.847" transform="translate(41.292 102.234)" fill="#287faf"/>
        <path id="Path_172" data-name="Path 172" d="M175.269,166.876c-2.146-3.437-6.976-5.479-10.415-3.335-.287-4.215-5.908-6.966-9.414-4.6a6.6,6.6,0,0,0-1.423-2,5.762,5.762,0,0,1-1.708.95c2.33,2.967.806,7.744-2.394,9.744s-7.377,1.725-10.926.439a8.057,8.057,0,0,1-10.853-1.8,9.918,9.918,0,0,1-12.636-.479c-.8,2.237-3.62,3.185-5.938,2.68s-4.237-2.079-6.057-3.6c-.04,2.844-3.413,4.81-6.172,4.124s-4.709-3.273-5.523-6a6.908,6.908,0,0,1,.025-3.816,8.9,8.9,0,0,0-3.791,3.89,9.4,9.4,0,0,0-12.4,4.608c.274-.66-10.17.9-11.732,2.847-3.736,4.67,2.237,6.926,6.024,8.752,15.053,7.256,32.38,8.455,49.025,6.979,6.837-.605,13.612-1.645,20.373-2.836q14.357-3.42,28.587-7.372c3.24-.9,6.649-1.952,9.123-4.139a13.5,13.5,0,0,0-1.781-5.031" transform="translate(41.292 103.295)" fill="#3c96d3"/>
        <path id="Path_173" data-name="Path 173" d="M225.532,172.762a15.856,15.856,0,0,1-.706-3.331,3.828,3.828,0,0,0-1.6-2.65c-.862-.416-1.721-.017-1.6,1.116-1.131-2.376-2.484-4.966-4.66-5.608-2.139-.632-4.315.874-6.029,2.6a12.293,12.293,0,0,0-2.923,4.19c-.088.227-.164.461-.232.7-1.079-3.98-2.711-7.681-5.731-9.283s-6.651-.483-9.443,1.734a12.387,12.387,0,0,0-4.91,9.42c-1.278-2.247-2.965-4.384-5.152-4.915a4.207,4.207,0,0,0-4.933,4.016c-1.1-3.363-2.975-6.673-5.8-7.694s-7.062,1.065-6.928,4.7a10.029,10.029,0,0,0-11.722-5.989c-4.466,1.131-8.238,4.877-11.246,9.12a12.013,12.013,0,0,0-2.179,4.406,6.5,6.5,0,0,0-.113,1.841,10.8,10.8,0,0,0-6.24-5.245,9.376,9.376,0,0,0-9.6,3.316,5.444,5.444,0,0,0-7.611-3.82c-2.869,1.449-4.684,4.615-5.32,8.357a32.523,32.523,0,0,0-11.919-10.067,12.923,12.923,0,0,0-7.238-1.545,7.832,7.832,0,0,0-6.092,4.64,13.269,13.269,0,0,0-1.758-5.273,8.208,8.208,0,0,0-6.142-3.6c-2.325-.242-4.456,1.232-6.754,1.761a29.385,29.385,0,0,0-4.457-5.32,7.617,7.617,0,0,0-5.84-2.134c-2.066.287-3.905,1.769-5.484,3.449a12.7,12.7,0,0,0-2.839,4.286c-1.554.438-3.794-.4-5.386-.434-3.015-.056-6,2.872-6.306,6.578s2.482,7.424,5.475,6.951c3.844,7.948,12.9,12.045,20.146,9.523,1.968-.683,4.129-2.409,4.227-4.807a12.584,12.584,0,0,0,8.843,11.506c4.655,1.31,9.513-.06,14.171-1.424a9.6,9.6,0,0,0,5.427,6.951,6.917,6.917,0,0,0,7.716-1.146,3.073,3.073,0,0,1,1.2-.818c.776-.181,1.486.5,2.113,1.079,4.4,4.094,10.234,5.286,15.745,4.678s10.813-2.859,16.05-5.094c3.136,3.794,8.407,5.573,12.679,4.215s8.032-4.452,11.7-7.5c1.919-1.59,3.96-3.378,4.684-6.084a13.775,13.775,0,0,0,19.167.635,13.869,13.869,0,0,0,15.053,5.472c5.392-1.4,10.108-5.575,13.864-10.574.8.592,2.108-.456,2.907-1.074a6.9,6.9,0,0,0,1.831-2.61,21.354,21.354,0,0,0,1.892-9.2" transform="translate(26.739 104.095)" fill="#87bfff"/>
        <g id="Group_140" data-name="Group 140" transform="translate(67.362 269.596)" opacity="0.2" style="mix-blend-mode: overlay;isolation: isolate">
          <g id="Group_139" data-name="Group 139">
            <g id="Group_138" data-name="Group 138" clip-path="url(#clip-path-5)">
              <path id="Path_174" data-name="Path 174" d="M221.808,181.657a6.883,6.883,0,0,0,1.831-2.61,21.38,21.38,0,0,0,1.894-9.2,15.858,15.858,0,0,1-.708-3.331c-.03-.133-.076-.262-.113-.393a20.837,20.837,0,0,1-5.024,6.5c-2.388,2.043-5.515,3.618-8.6,3a7.714,7.714,0,0,0-2.857-.411c-1.176.219-2,1.232-2.839,2.089-5.452,5.6-15.456,5.848-21.175.514-3.456,5.278-12.738,4.855-15.7-.716-.439,3.283-1.33,6.7-3.694,9.024s-6.588,3-8.929.655c-3.26,4.986-12.2,4.218-14.557-1.252a10.467,10.467,0,0,1-19.3.826,15.986,15.986,0,0,1-25.142-4.733,10.181,10.181,0,0,1-17.648-3.021,10.487,10.487,0,0,1-13.735-3.8,10.854,10.854,0,0,1-12.755-3.01c-1.5-1.91-1.4-5.441-1.308-8.654-1.444.04-3.185-.522-4.492-.547-3.015-.056-6,2.872-6.308,6.578s2.482,7.424,5.475,6.951c3.844,7.948,12.9,12.045,20.147,9.523,1.967-.683,4.129-2.409,4.227-4.807a12.582,12.582,0,0,0,8.843,11.506c4.655,1.31,9.511-.06,14.171-1.424a9.6,9.6,0,0,0,5.426,6.951,6.92,6.92,0,0,0,7.717-1.146,3.061,3.061,0,0,1,1.2-.818c.776-.181,1.484.5,2.113,1.079,4.4,4.094,10.233,5.286,15.745,4.678s10.811-2.859,16.05-5.092c3.134,3.792,8.405,5.572,12.679,4.214s8.032-4.452,11.7-7.5c1.917-1.59,3.96-3.378,4.684-6.084a13.775,13.775,0,0,0,19.167.635,13.868,13.868,0,0,0,15.053,5.472c5.392-1.406,10.108-5.575,13.863-10.574.8.592,2.109-.456,2.907-1.074" transform="translate(-40.624 -162.583)"/>
            </g>
          </g>
        </g>
        <path id="Path_175" data-name="Path 175" d="M106.675,166.534c-.032.031-.06.063-.09.1-2.63,2.923-3.9,7.742-1.544,11.161,5.257,7.636,22.091-4.293,16.24-11.934-3.557-4.643-11.045-3.174-14.607.677" transform="translate(68.323 107.262)" fill="#65a8ea"/>
        <path id="Path_176" data-name="Path 176" d="M110.753,171.989c.07-.053.149-.116.232-.182l-.083.05c-.05.043-.095.085-.149.133" transform="translate(72.898 113.084)" fill="#603526"/>
        <path id="Path_177" data-name="Path 177" d="M118.1,166.185a4.514,4.514,0,0,0-.247,5.654,4.4,4.4,0,0,0,6.256,1.446,5.028,5.028,0,0,0,.63-7.389,4.6,4.6,0,0,0-6.639.289" transform="translate(76.997 108.35)" fill="#65a8ea"/>
        <path id="Path_178" data-name="Path 178" d="M143.891,165.044c-2.753-3.816-10.4-4.485-12.1,2.239-1.776,7.036,6.724,10.7,11.163,5.359,2.467-2.968,2.322-5.681.939-7.6" transform="translate(86.586 106.754)" fill="#65a8ea"/>
        <path id="Path_179" data-name="Path 179" d="M88.832,168.688a4.946,4.946,0,0,0-4.991,5.363,4.6,4.6,0,0,0,4.232,4.169,4.93,4.93,0,0,0,5.121-3.69,4.652,4.652,0,0,0-4.361-5.842" transform="translate(55.169 111.026)" fill="#65a8ea"/>
        <path id="Path_180" data-name="Path 180" d="M76.475,165.5a6.656,6.656,0,0,0-8.565,5.215,4.936,4.936,0,0,0,1.468,4.419c1.807,1.572,4.116,1.008,6.26.7l-.335.045c2.393-.454,4.57-1.827,4.975-4.48a5.476,5.476,0,0,0-3.8-5.9" transform="translate(44.664 108.733)" fill="#65a8ea"/>
        <path id="Path_181" data-name="Path 181" d="M78.959,170.862c-4.066,1.315-2.706,7.737,1.622,7.024,4.67-.768,2.816-8.46-1.622-7.024" transform="translate(50.369 112.345)" fill="#65a8ea"/>
        <path id="Path_182" data-name="Path 182" d="M98.843,173.727a3.318,3.318,0,0,0-4.867,1.421,3.536,3.536,0,0,0,1.522,4.663c3.99,2.235,7.15-4.021,3.345-6.084" transform="translate(61.624 114.004)" fill="#65a8ea"/>
        <path id="Path_183" data-name="Path 183" d="M96.113,179.822c-3.361-2.008-6.545,2.991-3.008,4.812,3.068,1.579,6.12-2.953,3.008-4.812" transform="translate(60.264 118.052)" fill="#65a8ea"/>
        <path id="Path_184" data-name="Path 184" d="M110.549,177.16c-3.658-2.141-7.412,3.054-3.759,5.426,3.477,2.257,7.812-3.053,3.759-5.426" transform="translate(69.308 116.274)" fill="#65a8ea"/>
        <path id="Path_185" data-name="Path 185" d="M109.941,169.516s4.817-19.018-2.02-29-27.735-3.7-53.262-29.909S37.987,89.98,37.987,89.98l52.182,23.595,20.225,20.238s8.455,18.061-.453,35.7" transform="translate(24.025 58.898)" fill="#e5d100"/>
        <path id="Path_186" data-name="Path 186" d="M114.025,147.261s2.806-21.273-15.541-38.722S37.4,89.784,37.4,89.784s28.752,26.989,57.551,37.9,14.4,41.634,14.4,41.634,5.779-8.3,4.673-22.059" transform="translate(24.616 59.096)" fill="#e5d100"/>
        <path id="Path_187" data-name="Path 187" d="M59.367,95.659c6.59-3.026,14.834,4.54,19.408,8.618.877.783,11.947,11.579,7.611,13.171s-9.584-6.311-12.267-8.535c-4.525-3.748-12.984-6.3-15.166-11.981a.967.967,0,0,1,.415-1.273" transform="translate(38.747 62.504)" fill="#ffe422"/>
        <path id="Path_188" data-name="Path 188" d="M51.722,94.624c1.3-1.131,2.821-.861,4.376-.567a11.611,11.611,0,0,1,2.124.5,6.773,6.773,0,0,1,1.761,1.393.451.451,0,0,1,.124.619,5.5,5.5,0,0,1-1.622,1.662,6.623,6.623,0,0,1-2.66.473c-1.68.035-3.806-.429-4.464-2.179a1.654,1.654,0,0,1,.36-1.9" transform="translate(33.711 61.74)" fill="#ffe422"/>
        <path id="Path_189" data-name="Path 189" d="M100.058,16.6C87.717,35.321,85.3,55.488,85.507,69.41l-.72,4.84c-7.288,41.533-1.867,65.905.854,74.581a77.554,77.554,0,0,1,2.821,12.088c2.421,16.756,5.119,55.056-14.259,84.088,0,0,9.127,8.769,20.353,6.2s23.352-67.36,1.012-115.234c-18.061-38.333,4.539-70.824,5.22-71.79,7.246-10.336,16.91-21.4,27.71-26.626,23.2-11.226,30.685-29.936,30.685-29.936S117.653-10.1,100.058,16.6" transform="translate(48.841 1.221)" fill="#e5d100"/>
        <g id="Group_143" data-name="Group 143" transform="translate(133.629 15.196)" opacity="0.2" style="mix-blend-mode: overlay;isolation: isolate">
          <g id="Group_142" data-name="Group 142">
            <g id="Group_141" data-name="Group 141" clip-path="url(#clip-path-6)">
              <path id="Path_190" data-name="Path 190" d="M145.241,15.571c-11.516,10.414-26.221,16.718-38.031,26.8a75.928,75.928,0,0,0-19.237,90.473s17.572,43.654,5.487,97.524c-1.585,7.064-2.177,12.115-2.025,15.585,10.886-6.271,21.548-68.431-.058-114.766l-.176.086.164-.113C73.3,92.825,95.9,60.335,96.586,59.366c7.246-10.334,16.909-21.4,27.71-26.624a67.048,67.048,0,0,0,27.19-23.578,77.443,77.443,0,0,1-6.245,6.407" transform="translate(-80.586 -9.164)"/>
            </g>
          </g>
        </g>
        <path id="Path_191" data-name="Path 191" d="M135.456,8.34a42.047,42.047,0,0,0-30.776,7.1c-10.637,7.538-17.2,19.776-20.4,32.415s-2.57,22.364-2.741,35.4a106.153,106.153,0,0,1,23.527-53.98c7.976-9.659,18.19-18.109,30.393-20.935" transform="translate(53.667 5.137)" fill="#bfa800"/>
        <path id="Path_192" data-name="Path 192" d="M115.611,88.392S92.345,48.7,66.039,38.789s-36.273-29.5-36.273-29.5,43.367-23.326,65.1,3.94c26.815,33.633,20.742,75.161,20.742,75.161" transform="translate(19.592 0)" fill="#e5d100"/>
        <path id="Path_193" data-name="Path 193" d="M97.075,42.418c-2.976-6.46-6.552-12.765-11.612-17.763C74.422,13.753,58.321,11.385,43.034,8.73c18.512,3.073,34.69,15.264,45.48,30.615,9.037,12.856,14.605,27.79,18.26,43.127l.1.174s.325-2.263.492-6.127a130.577,130.577,0,0,0-10.3-34.1" transform="translate(28.325 5.746)" fill="#bfa800"/>
        <path id="Path_194" data-name="Path 194" d="M52.941,2.114c-3.174.662-3.124,4.814-.836,6.392,4.023,2.774,8.78,4.146,12.934,6.747,3.592,2.25,6.78,5.237,11.214,5.222a1.549,1.549,0,0,0,1.472-1.121c2.232-11-16.06-19.059-24.785-17.24" transform="translate(33.216 1.222)" fill="#ffe422"/>
        <path id="Path_195" data-name="Path 195" d="M72.744,14.635a4.468,4.468,0,0,0-1.68-.65,2.644,2.644,0,0,0-1.388.257c-.287.109-.26.3-.7.211a.213.213,0,0,0-.206.352c.3.352-.174.8-.174,1.318a6.125,6.125,0,0,0,.267,1.5,4.405,4.405,0,0,0,2.177,2.792,2.346,2.346,0,0,0,3.414-1.388,3.885,3.885,0,0,0-1.713-4.388" transform="translate(45.151 9.193)" fill="#ffe422"/>
        <path id="Path_196" data-name="Path 196" d="M74.625,32.6C70.439,26.907,67.186,23.6,60.2,22.475c-.323-.051-.594.406-.244.577,5.223,2.552,9.123,11.453,12.7,15.9,4.068,5.059,7.671,11.025,12.919,14.929.555.413,1.283-.269,1.121-.862C84.72,45.835,79.016,38.569,74.625,32.6" transform="translate(39.355 14.79)" fill="#ffe422"/>
        <path id="Path_197" data-name="Path 197" d="M125.474,10.564c-5.031-.305-9.735,3.1-13.977,5.528-4.34,2.489-9.366,5.217-11.244,10.072-.754,1.95,1.128,3.436,2.781,3.65,5.14.662,10.3-3.4,14.065-6.464,3.787-3.079,8.381-6.641,9.238-11.654a.912.912,0,0,0-.862-1.133" transform="translate(65.874 6.94)" fill="#ffe422"/>
        <path id="Path_198" data-name="Path 198" d="M123.461,7.834c-1.395-2.388-4.85.265-5.5,1.948a1.3,1.3,0,0,0,.9,1.594c1.73.436,6.024-1.1,4.6-3.542" transform="translate(77.599 4.53)" fill="#ffe422"/>
        <path id="Path_199" data-name="Path 199" d="M94.5,134s-3.5-18.191,3.505-27.223,26.382-1.965,51.922-25.259S166.8,62.994,166.8,62.994L116.252,82.36,96.045,100.322S87.068,116.881,94.5,134" transform="translate(60.262 41.198)" fill="#e5d100"/>
        <path id="Path_200" data-name="Path 200" d="M91.563,112.8s-1.474-20.207,16.8-35.643,58.692-14.314,58.692-14.314S138.432,86.7,110.647,95.4s-15.891,38.45-15.891,38.45-5-8.138-3.194-21.049" transform="translate(60.009 41.35)" fill="#e5d100"/>
        <path id="Path_201" data-name="Path 201" d="M127.023,67.248c-6.052-3.214-14.252,3.464-18.794,7.056-.871.688-11.916,10.256-7.91,12s9.4-5.422,12.05-7.369c4.477-3.282,12.6-5.22,14.975-10.457a.917.917,0,0,0-.322-1.225" transform="translate(65.456 43.704)" fill="#ffe422"/>
        <path id="Path_202" data-name="Path 202" d="M126.566,66.673c-1.164-1.138-2.615-.967-4.1-.776a11.084,11.084,0,0,0-2.033.358,6.472,6.472,0,0,0-1.739,1.215.429.429,0,0,0-.151.577,5.214,5.214,0,0,0,1.439,1.657,6.285,6.285,0,0,0,2.484.59c1.584.126,3.617-.194,4.333-1.807a1.559,1.559,0,0,0-.234-1.814" transform="translate(77.984 43.283)" fill="#ffe422"/>
        <path id="Path_203" data-name="Path 203" d="M92.049,113.779c-1.764-10.062-4.2-22.623-10.375-30.982-.032-.043-.121-.036-.114.032.468,4.742,2.162,9.293,3.26,13.919a172.565,172.565,0,0,1,3.21,17.575c1.325,10.19.612,20.711,2.738,30.745a.752.752,0,0,0,1.438,0c3.2-9.883,1.612-21.207-.156-31.289" transform="translate(53.682 54.479)" fill="#ffe422"/>
      </g>
    </g>
  </g>
</svg>
