<svg id="Group_169" data-name="Group 169" xmlns="http://www.w3.org/2000/svg" xmlns:xlink="http://www.w3.org/1999/xlink" width="212.44" height="365.891" viewBox="0 0 212.44 365.891">
  <defs>
    <clipPath id="clip-path">
      <rect id="Rectangle_54" data-name="Rectangle 54" width="212.44" height="365.891" fill="none"/>
    </clipPath>
    <clipPath id="clip-path-3">
      <rect id="Rectangle_47" data-name="Rectangle 47" width="71.877" height="55.118" fill="none"/>
    </clipPath>
    <clipPath id="clip-path-4">
      <rect id="Rectangle_48" data-name="Rectangle 48" width="45.962" height="36.99" fill="none"/>
    </clipPath>
    <clipPath id="clip-path-5">
      <rect id="Rectangle_49" data-name="Rectangle 49" width="155.715" height="33.029" fill="none"/>
    </clipPath>
    <clipPath id="clip-path-6">
      <rect id="Rectangle_50" data-name="Rectangle 50" width="30.25" height="69.228" fill="none"/>
    </clipPath>
    <clipPath id="clip-path-7">
      <rect id="Rectangle_51" data-name="Rectangle 51" width="76.856" height="304.152" fill="none"/>
    </clipPath>
    <clipPath id="clip-path-8">
      <rect id="Rectangle_52" data-name="Rectangle 52" width="35.396" height="7.44" fill="none"/>
    </clipPath>
  </defs>
  <g id="Group_168" data-name="Group 168" clip-path="url(#clip-path)">
    <g id="Group_167" data-name="Group 167">
      <g id="Group_166" data-name="Group 166" clip-path="url(#clip-path)">
        <path id="Path_204" data-name="Path 204" d="M156.189,236.347a8.6,8.6,0,0,0-6.858-5.826,13.684,13.684,0,0,0-9.1,1.945,1.824,1.824,0,0,0-.295.218c1.239-6.119-.5-13.018-5.4-16.846-5.228-4.084-14.036-3.247-17.417,2.462-.982-3.385-2.985-6.779-6.282-8.022s-7.814.832-7.936,4.354c-.228-5.055-6.4-8.81-10.992-6.69.581-2.977-2.632-5.609-5.664-5.563s-4.642,2.544-6.989,4.463c-2.088-5.9-4.533-12.246-9.878-15.493a14.568,14.568,0,0,0-15.9.9A15.677,15.677,0,0,0,47.7,207.233,6.5,6.5,0,0,0,39,212.228a5.551,5.551,0,0,0-10.748.366,13.97,13.97,0,0,0,.26,4.351A16.5,16.5,0,0,0,17,245.129a3.765,3.765,0,0,0,1.209.85,6.746,6.746,0,0,0-6.178,5.263,6.375,6.375,0,0,0-6.032.9c-1.614,1.38-1.381,3.839.046,5.412a4.43,4.43,0,0,0-5.352,1.9,5.791,5.791,0,0,0,.263,5.9,4.71,4.71,0,0,0,1.722,1.685,4.9,4.9,0,0,0,4.723-.41,14.447,14.447,0,0,0,3.523-3.456c.348,4.721,4.541,8.7,9.234,9.319a13.27,13.27,0,0,0,11.95-5.351,5.351,5.351,0,0,0,9.73.418,15.058,15.058,0,0,0,24.826-3.477c4.365-9.075,18.695-10.552,28.74-11.248s20.2-.092,30.138-1.725c9.571-1.574,18.67-5.179,27.683-8.759a7.577,7.577,0,0,0,2.819-1.624c1.188-1.255.6-2.713.149-4.38" transform="translate(0 75.077)" fill="#3c96d3"/>
        <g id="Group_150" data-name="Group 150" transform="translate(0 292.567)" opacity="0.2" style="mix-blend-mode: overlay;isolation: isolate">
          <g id="Group_149" data-name="Group 149">
            <g id="Group_148" data-name="Group 148" clip-path="url(#clip-path-3)">
              <path id="Path_205" data-name="Path 205" d="M66.659,256.112a14.065,14.065,0,0,1,5.218-5.679c-.194-.081-.391-.154-.582-.243a10.028,10.028,0,0,1-10.448,3.078,9.522,9.522,0,0,0-3.406-.835c-1.174.081-2.384,1.2-1.994,2.31a8.975,8.975,0,0,1-9.611-4.679,3.727,3.727,0,0,1-5.887.888c-.959-1.086-1.251-2.748-2.474-3.526-1.155-.733-2.653-.381-4.019-.464-3.633-.219-6.376-3.774-6.844-7.384s.811-7.207,2.272-10.541c-4.718,1.422-9.252-3.9-9.05-8.82.186-4.488,2.98-6.978,4.762-10.7a16.452,16.452,0,0,0-7.6,27.64,3.8,3.8,0,0,0,1.209.85,6.746,6.746,0,0,0-6.178,5.264,6.368,6.368,0,0,0-6.031.9c-1.616,1.38-1.381,3.839.046,5.412a4.431,4.431,0,0,0-5.352,1.9,5.788,5.788,0,0,0,.263,5.9,4.732,4.732,0,0,0,1.72,1.687,4.9,4.9,0,0,0,4.723-.412,14.422,14.422,0,0,0,3.523-3.456c.349,4.721,4.542,8.7,9.236,9.319A13.269,13.269,0,0,0,32.1,259.172a5.351,5.351,0,0,0,9.73.418,15.059,15.059,0,0,0,24.828-3.477" transform="translate(0 -209.519)"/>
            </g>
          </g>
        </g>
        <g id="Group_153" data-name="Group 153" transform="translate(110.777 290.402)" opacity="0.2" style="mix-blend-mode: overlay;isolation: isolate">
          <g id="Group_152" data-name="Group 152">
            <g id="Group_151" data-name="Group 151" clip-path="url(#clip-path-4)">
              <path id="Path_206" data-name="Path 206" d="M124.594,233.371c1.188-1.255.6-2.712.149-4.38a8.6,8.6,0,0,0-6.858-5.826,13.683,13.683,0,0,0-9.1,1.947,1.812,1.812,0,0,0-.295.216c1.239-6.119-.5-13.018-5.4-16.846-.236-.186-.489-.349-.739-.514.952,3.886-.931,8.6-4.766,10.061,3.126,3.742,4.91,8.956,3.393,13.591s-7.041,7.943-11.524,6.027a24.064,24.064,0,0,1-10.127,7.311,110.273,110.273,0,0,0,14.76-1.2c9.569-1.572,18.67-5.178,27.683-8.759a7.577,7.577,0,0,0,2.819-1.624" transform="translate(-79.331 -207.969)"/>
            </g>
          </g>
        </g>
        <path id="Path_207" data-name="Path 207" d="M149.331,223.74a13.7,13.7,0,0,0-9.1,1.947,1.888,1.888,0,0,0-.293.216c1.239-6.119-.5-13.018-5.4-16.846a12.989,12.989,0,0,0-12.757-1.529c3,5.288,1.776,13.044-3.41,16.494,2.393,2.948,1.25,7.619-1.469,10.269s-6.541,3.772-10.21,4.75c-9.618,2.567-20.408,4.66-29.089-.214A10.3,10.3,0,0,1,67.14,243.07c-1.772-.381-3.557-1.247-5.315-.8-1.315.331-2.338,1.338-3.519,2a7.494,7.494,0,0,1-9.178-1.737c-.042,3.188-3.473,5.612-6.647,5.313s-5.841-2.7-7.331-5.513-2.008-6.032-2.5-9.181c-5.368,1.826-11.232-2.74-12.828-8.18-1.258-4.292.582-8.733,1.128-12.813a16.723,16.723,0,0,0-7.584,8.261,16.908,16.908,0,0,0,3.631,17.927,3.8,3.8,0,0,0,1.209.85,6.746,6.746,0,0,0-6.178,5.264,6.369,6.369,0,0,0-6.031.9c-1.616,1.38-1.381,3.839.046,5.412a4.431,4.431,0,0,0-5.352,1.9,5.791,5.791,0,0,0,.263,5.9,4.731,4.731,0,0,0,1.72,1.687,4.9,4.9,0,0,0,4.724-.412,14.461,14.461,0,0,0,3.522-3.455c.349,4.72,4.542,8.7,9.236,9.318A13.265,13.265,0,0,0,32.1,260.361a5.351,5.351,0,0,0,9.73.418A15.059,15.059,0,0,0,66.659,257.3c4.365-9.075,18.693-10.551,28.739-11.248s20.2-.091,30.139-1.725c9.569-1.572,18.67-5.178,27.683-8.759a7.588,7.588,0,0,0,2.819-1.624c1.188-1.254.6-2.712.149-4.38a8.6,8.6,0,0,0-6.858-5.826" transform="translate(0 81.858)" fill="#3682c1"/>
        <path id="Path_208" data-name="Path 208" d="M47.609,223.282c-2.075-2.575-1.412-6.471.293-9.3,2.684-4.464,7.973-7.452,13.13-6.717s9.594,5.625,9.17,10.816A7.176,7.176,0,0,1,83.19,220.52c1.408-1.951,4.767-1.776,6.2.156a4.93,4.93,0,0,1-.993,6.468,6.374,6.374,0,0,1-6.8.539,10.5,10.5,0,0,1-13.542-.2,10.855,10.855,0,0,1-6.429,6.636,21.98,21.98,0,0,1-9.391,1.287,12.4,12.4,0,0,1-5.433-1.188,5.562,5.562,0,0,1-2.93-4.292c-2.729,5.77-6.183-.6-5.837-4.082.564-5.676,6.246-6.687,9.571-2.56" transform="translate(15.068 82.109)" fill="#287faf"/>
        <path id="Path_209" data-name="Path 209" d="M186.7,252.281c.578-4.017,1.088-8.468-.676-11.9a6.666,6.666,0,0,0-5.282-3.8c-2.12-.134-4.285,1.723-5.62,3.773A12,12,0,0,0,172,231.2a7.425,7.425,0,0,0-7.916-1.85c-1.972.761-3.312,3.272-3.64,5.787a22.029,22.029,0,0,0-1.719-6.629c-.977-2-2.606-3.626-4.491-3.839a4.642,4.642,0,0,0-4.745,3.684c-1.508-1.818-3.147-3.721-5.229-4.172s-4.73,3.361-4.647,5.969a34.165,34.165,0,0,0-4.242-6.675c-1.7-1.912-3.879-3.318-6.183-3.3-1.842.014-4.168.923-4.35,3.187-1.785-2.187-3.7-4.464-6.15-5.185s-5.4,1.461-5.848,4.531a6.954,6.954,0,0,0-6.8-2.685,8.383,8.383,0,0,0-5.718,5.351c.561.038-.013,1.106.275.505a5.212,5.212,0,0,0-6.915-2.329c-2.375,1.292-3.621,4.689-3.1,7.817a24.825,24.825,0,0,0-4.153-7.142c-1.808-1.923-4.354-3.044-6.643-2.153-.927.36-2.139.553-1.476,1.423a8.5,8.5,0,0,0-4.646-2.123,4.574,4.574,0,0,0-3.284.732,3.474,3.474,0,0,0-1.6,3.178,11.6,11.6,0,0,0-10.378,3.032,17.94,17.94,0,0,0-5.288,11.456c-.113,1.307-.45,3.531.507,2.948A5.627,5.627,0,0,0,47.26,244.4c-1.577,2.039-1.526,5.9.44,7.3Z" transform="translate(18.291 86.424)" fill="#26779b"/>
        <path id="Path_210" data-name="Path 210" d="M186.024,239.424a6.664,6.664,0,0,0-5.284-3.8c-2.118-.134-4.285,1.722-5.619,3.772A12,12,0,0,0,172,230.237a7.925,7.925,0,0,0-3.407-2.012c-.043.087-.075.179-.121.263a13.665,13.665,0,0,1-7.045,5.8,12.109,12.109,0,0,1-7.207.842,6.854,6.854,0,0,1-5.172-4.724,8.3,8.3,0,0,1-12.271.828c-2.935,1.887-6.62,2.04-10.108,2.135l-6.974.191c-3.28.091-7.436-.4-8.422-3.533-2.724,3.48-8.975,3.113-11.274-.662-3.242,5.041-11.73,5.331-15.308.524-.765,2.372-3.52,3.719-5.995,3.409a9.452,9.452,0,0,1-6.111-3.953c-2.7-3.6-1.426-6.1-.57-8.895a3.932,3.932,0,0,0-1.635.686,3.478,3.478,0,0,0-1.6,3.18,11.6,11.6,0,0,0-10.378,3.03,17.94,17.94,0,0,0-5.288,11.456,9.086,9.086,0,0,0-.049,2.8,5.516,5.516,0,0,0-5.809,1.836c-1.577,2.039-1.526,5.9.44,7.3l139,.58c.578-4.017,1.088-8.466-.676-11.9" transform="translate(18.291 87.383)" fill="#287faf"/>
        <path id="Path_211" data-name="Path 211" d="M72.245,234.364A11.083,11.083,0,0,1,62.7,224.84a9.612,9.612,0,0,1-.043-1.3,12.53,12.53,0,0,0-4.248,2.586,17.938,17.938,0,0,0-5.287,11.456,9.1,9.1,0,0,0-.052,2.8,5.514,5.514,0,0,0-5.806,1.835c-1.576,2.039-1.526,5.9.44,7.3l28.124.117c6.228-4.852-4.359-8.593-3.58-15.272" transform="translate(18.291 88.606)" fill="#3c96d3"/>
        <path id="Path_212" data-name="Path 212" d="M73.61,242.41a7.917,7.917,0,0,1,10.438-3.88,8.1,8.1,0,0,1,10.591-3.543,5.968,5.968,0,0,0,2.04.86c1.22.12,2.268-.782,3.247-1.519,3.5-2.632,9.3-3.288,11.674.384,1.785-3.4,7.344-3.816,9.617-.726,1.565-3.374,7.027-3.9,9.212-.894,2.949-2.884,8.678-1.8,10.374,1.959,2.951-1.988,7.686.328,7.927,3.878,2.895-1.806,6.964-.087,8.769,2.808s1.889,6.521,1.655,9.924c-2.224-1.2-4.933-.869-7.43-.465-13.891,2.25-27.62,5.616-41.637,6.859s-28.608.233-41.282-5.877c-3.189-1.537-8.22-3.438-5.074-7.37,1.315-1.644,10.111-2.953,9.881-2.4" transform="translate(24.866 91.608)" fill="#287faf"/>
        <path id="Path_213" data-name="Path 213" d="M157.5,241.1c-1.807-2.895-5.875-4.614-8.771-2.808-.242-3.55-4.975-5.866-7.927-3.878a5.561,5.561,0,0,0-1.2-1.685,4.852,4.852,0,0,1-1.438.8c1.962,2.5.679,6.521-2.016,8.205s-6.212,1.452-9.2.37a6.785,6.785,0,0,1-9.139-1.515,8.352,8.352,0,0,1-10.64-.4c-.67,1.884-3.048,2.682-5,2.257a12.53,12.53,0,0,1-5.1-3.034c-.034,2.395-2.874,4.051-5.2,3.473s-3.966-2.756-4.651-5.051a5.818,5.818,0,0,1,.021-3.213,7.5,7.5,0,0,0-3.192,3.276,7.917,7.917,0,0,0-10.438,3.881c.23-.556-8.564.754-9.879,2.4-3.146,3.932,1.884,5.833,5.073,7.37,12.676,6.111,27.267,7.12,41.284,5.877,5.757-.51,11.463-1.385,17.156-2.388q12.09-2.88,24.074-6.208c2.729-.758,5.6-1.643,7.683-3.485a11.369,11.369,0,0,0-1.5-4.237" transform="translate(24.866 92.247)" fill="#3c96d3"/>
        <path id="Path_214" data-name="Path 214" d="M196.335,246.247a13.351,13.351,0,0,1-.595-2.805,3.224,3.224,0,0,0-1.346-2.231c-.726-.35-1.449-.014-1.345.94-.952-2-2.092-4.182-3.924-4.723-1.8-.532-3.633.736-5.077,2.187a10.352,10.352,0,0,0-2.462,3.529c-.074.191-.138.388-.2.589-.909-3.351-2.283-6.468-4.826-7.817s-5.6-.406-7.952,1.461a10.431,10.431,0,0,0-4.135,7.933c-1.077-1.892-2.5-3.692-4.339-4.139a3.543,3.543,0,0,0-4.154,3.382c-.929-2.832-2.505-5.619-4.88-6.479s-5.947.9-5.834,3.956a8.446,8.446,0,0,0-9.871-5.044c-3.76.952-6.937,4.107-9.47,7.68a10.115,10.115,0,0,0-1.835,3.71,5.476,5.476,0,0,0-.095,1.55,9.094,9.094,0,0,0-5.255-4.417,7.9,7.9,0,0,0-8.085,2.793,4.584,4.584,0,0,0-6.409-3.217c-2.416,1.22-3.945,3.886-4.48,7.038a27.388,27.388,0,0,0-10.037-8.477,10.883,10.883,0,0,0-6.1-1.3,6.6,6.6,0,0,0-5.13,3.907,11.174,11.174,0,0,0-1.48-4.44,6.912,6.912,0,0,0-5.172-3.03c-1.958-.2-3.752,1.038-5.687,1.483a24.746,24.746,0,0,0-3.753-4.48,6.414,6.414,0,0,0-4.918-1.8,8.4,8.4,0,0,0-4.618,2.9,10.692,10.692,0,0,0-2.391,3.61c-1.308.369-3.195-.341-4.535-.366-2.539-.047-5.053,2.419-5.31,5.539s2.09,6.252,4.611,5.854c3.237,6.693,10.86,10.143,16.965,8.019,1.657-.575,3.477-2.029,3.559-4.048a10.6,10.6,0,0,0,7.447,9.689c3.92,1.1,8.011-.05,11.933-1.2a8.085,8.085,0,0,0,4.57,5.854,5.825,5.825,0,0,0,6.5-.965,2.587,2.587,0,0,1,1.007-.688c.654-.152,1.251.417,1.779.909a16.46,16.46,0,0,0,13.259,3.939c4.642-.512,9.106-2.407,13.516-4.29,2.641,3.195,7.08,4.693,10.677,3.55s6.764-3.749,9.853-6.312c1.616-1.339,3.335-2.844,3.945-5.123a11.6,11.6,0,0,0,16.141.535A11.679,11.679,0,0,0,179.077,266c4.541-1.183,8.512-4.695,11.675-8.9.677.5,1.775-.384,2.448-.9a5.812,5.812,0,0,0,1.542-2.2,17.983,17.983,0,0,0,1.593-7.75" transform="translate(16.102 92.729)" fill="#87bfff"/>
        <g id="Group_156" data-name="Group 156" transform="translate(56.726 332.861)" opacity="0.2" style="mix-blend-mode: overlay;isolation: isolate">
          <g id="Group_155" data-name="Group 155">
            <g id="Group_154" data-name="Group 154" clip-path="url(#clip-path-5)">
              <path id="Path_215" data-name="Path 215" d="M193.2,254.437a5.8,5.8,0,0,0,1.542-2.2,18,18,0,0,0,1.595-7.75,13.354,13.354,0,0,1-.6-2.805c-.025-.112-.064-.221-.095-.331a17.548,17.548,0,0,1-4.231,5.472c-2.011,1.72-4.644,3.047-7.24,2.525a6.5,6.5,0,0,0-2.406-.346,4.977,4.977,0,0,0-2.391,1.759,13.237,13.237,0,0,1-17.832.433c-2.91,4.445-10.727,4.089-13.219-.6-.37,2.765-1.12,5.646-3.111,7.6s-5.548,2.525-7.519.552c-2.745,4.2-10.27,3.552-12.259-1.054a8.814,8.814,0,0,1-16.257.7A13.461,13.461,0,0,1,88.008,254.4a8.573,8.573,0,0,1-14.862-2.544,8.831,8.831,0,0,1-11.566-3.2,9.14,9.14,0,0,1-10.741-2.534c-1.267-1.609-1.177-4.582-1.1-7.288-1.216.033-2.682-.44-3.783-.461-2.539-.047-5.055,2.419-5.312,5.539s2.09,6.252,4.611,5.854c3.237,6.693,10.86,10.143,16.966,8.019,1.656-.575,3.477-2.029,3.559-4.048a10.6,10.6,0,0,0,7.447,9.689c3.92,1.1,8.01-.05,11.933-1.2a8.086,8.086,0,0,0,4.569,5.854,5.828,5.828,0,0,0,6.5-.965,2.577,2.577,0,0,1,1.007-.688c.654-.152,1.25.417,1.779.909a16.458,16.458,0,0,0,13.259,3.939c4.64-.512,9.1-2.407,13.516-4.288,2.639,3.193,7.078,4.692,10.677,3.548s6.764-3.749,9.853-6.312c1.614-1.339,3.335-2.844,3.945-5.123a11.6,11.6,0,0,0,16.141.535,11.678,11.678,0,0,0,12.676,4.608c4.541-1.184,8.512-4.695,11.674-8.9.677.5,1.776-.384,2.448-.9" transform="translate(-40.624 -238.375)"/>
            </g>
          </g>
        </g>
        <path id="Path_216" data-name="Path 216" d="M106.222,241.762c-.027.027-.05.053-.075.081-2.215,2.462-3.281,6.52-1.3,9.4,4.427,6.43,18.6-3.615,13.676-10.05-3-3.91-9.3-2.673-12.3.57" transform="translate(41.145 94.636)" fill="#65a8ea"/>
        <path id="Path_217" data-name="Path 217" d="M110.753,247.753c.059-.045.126-.1.2-.154l-.07.042-.126.112" transform="translate(43.9 98.142)" fill="#603526"/>
        <path id="Path_218" data-name="Path 218" d="M117.925,241.729a3.8,3.8,0,0,0-.208,4.762,3.709,3.709,0,0,0,5.269,1.218,4.234,4.234,0,0,0,.531-6.222,3.87,3.87,0,0,0-5.591.243" transform="translate(46.368 95.292)" fill="#65a8ea"/>
        <path id="Path_219" data-name="Path 219" d="M141.942,240.385c-2.318-3.213-8.761-3.777-10.191,1.885-1.5,5.925,5.662,9.007,9.4,4.513,2.078-2.5,1.955-4.784.79-6.4" transform="translate(52.143 94.33)" fill="#65a8ea"/>
        <path id="Path_220" data-name="Path 220" d="M88.04,244.479a4.165,4.165,0,0,0-4.2,4.516,3.872,3.872,0,0,0,3.564,3.51,4.152,4.152,0,0,0,4.312-3.107,3.918,3.918,0,0,0-3.672-4.919" transform="translate(33.223 96.903)" fill="#65a8ea"/>
        <path id="Path_221" data-name="Path 221" d="M75.114,241.24a5.605,5.605,0,0,0-7.212,4.392,4.156,4.156,0,0,0,1.236,3.721c1.522,1.324,3.466.849,5.271.589l-.282.038c2.015-.383,3.848-1.539,4.189-3.773a4.611,4.611,0,0,0-3.2-4.967" transform="translate(26.897 95.522)" fill="#65a8ea"/>
        <path id="Path_222" data-name="Path 222" d="M78.575,246.626c-3.424,1.107-2.279,6.516,1.366,5.915,3.932-.647,2.371-7.124-1.366-5.915" transform="translate(30.333 97.697)" fill="#65a8ea"/>
        <path id="Path_223" data-name="Path 223" d="M98.019,249.437a2.8,2.8,0,0,0-4.1,1.2A2.979,2.979,0,0,0,95.2,254.56c3.36,1.882,6.021-3.386,2.816-5.123" transform="translate(37.111 98.696)" fill="#65a8ea"/>
        <path id="Path_224" data-name="Path 224" d="M95.394,255.54c-2.83-1.691-5.511,2.519-2.533,4.052,2.583,1.329,5.154-2.487,2.533-4.052" transform="translate(36.291 101.134)" fill="#65a8ea"/>
        <path id="Path_225" data-name="Path 225" d="M109.72,252.872c-3.08-1.8-6.242,2.572-3.166,4.569,2.928,1.9,6.578-2.571,3.166-4.569" transform="translate(41.738 100.063)" fill="#65a8ea"/>
        <path id="Path_226" data-name="Path 226" d="M74.308,221.527s-4.461-55.141-35.344-75.149c0,0,31.2,9.613,37.656,61.922Z" transform="translate(15.444 58.021)" fill="#bfa800"/>
        <g id="Group_159" data-name="Group 159" transform="translate(61.814 210.319)" opacity="0.2" style="mix-blend-mode: overlay;isolation: isolate">
          <g id="Group_158" data-name="Group 158">
            <g id="Group_157" data-name="Group 157" clip-path="url(#clip-path-6)">
              <path id="Path_227" data-name="Path 227" d="M72.205,219.846l2.312-13.226A122.935,122.935,0,0,0,71.7,191.477a120.118,120.118,0,0,0-21.274-35.165,30.26,30.26,0,0,0-6.159-5.693c24.2,23.208,27.937,69.227,27.937,69.227" transform="translate(-44.267 -150.618)"/>
            </g>
          </g>
        </g>
        <path id="Path_228" data-name="Path 228" d="M97.259,156.88s4.056-16.015-1.7-24.421S72.2,129.339,50.707,107.272,36.666,89.9,36.666,89.9l43.943,19.869L97.64,126.815s7.12,15.209-.381,30.065" transform="translate(14.038 35.469)" fill="#e5d100"/>
        <path id="Path_229" data-name="Path 229" d="M100.839,138.185s2.363-17.916-13.087-32.608S36.311,89.784,36.311,89.784,60.523,112.511,84.775,121.7,96.9,156.76,96.9,156.76s4.866-6.986,3.935-18.575" transform="translate(14.393 35.588)" fill="#e5d100"/>
        <path id="Path_230" data-name="Path 230" d="M58.2,95.549C63.75,93,70.693,99.372,74.544,102.806c.739.659,10.062,9.751,6.409,11.091s-8.071-5.316-10.329-7.187c-3.812-3.156-10.935-5.3-12.771-10.089a.812.812,0,0,1,.349-1.072" transform="translate(22.903 37.641)" fill="#ffe422"/>
        <path id="Path_231" data-name="Path 231" d="M50.555,94.494c1.095-.952,2.375-.725,3.685-.478a9.778,9.778,0,0,1,1.789.424,5.7,5.7,0,0,1,1.483,1.173.38.38,0,0,1,.1.521,4.629,4.629,0,0,1-1.366,1.4,5.577,5.577,0,0,1-2.24.4c-1.415.029-3.2-.362-3.759-1.835a1.393,1.393,0,0,1,.3-1.6" transform="translate(19.87 37.18)" fill="#ffe422"/>
        <path id="Path_232" data-name="Path 232" d="M98.834,14.27C88.442,30.036,86.406,47.019,86.581,58.743l-.606,4.076c-6.137,34.975-1.572,55.5.719,62.8a65.308,65.308,0,0,1,2.375,10.18c2.039,14.11,4.311,46.362-12.007,70.81,0,0-31.627,47.833.533,110.418l26.46-2.012s-27.495-51.877-6.421-106.2h-.006c8.079-12.229,13.948-58.618-2.576-94.032-15.209-32.28,3.822-59.641,4.4-60.455,6.1-8.7,14.24-18.02,23.335-22.422,19.537-9.453,25.84-25.209,25.84-25.209S113.651-8.21,98.834,14.27" transform="translate(25.036 0.735)" fill="#e5d100"/>
        <g id="Group_162" data-name="Group 162" transform="translate(93.859 12.796)" opacity="0.2" style="mix-blend-mode: overlay;isolation: isolate">
          <g id="Group_161" data-name="Group 161">
            <g id="Group_160" data-name="Group 160" clip-path="url(#clip-path-7)">
              <path id="Path_233" data-name="Path 233" d="M138.815,14.56c-9.7,8.769-22.082,14.078-32.027,22.565a63.934,63.934,0,0,0-16.2,76.188s11.16,27.752,7.415,64.781a59.029,59.029,0,0,1-5.174,19c-4.091,8.779-10.442,25.045-10.74,41.964-.44,25.052,4.195,47.741-4.031,52-3.194,1.651-7.169,2.014-10.843,1.847q1.074,3.387,2.4,6.858c7.338,20.983,17,10.675,22.408,13.162l5.382-.41a53.285,53.285,0,0,0,2.364-6.2c.3-.9-1.85-4.6-2.21-5.559q-1.378-3.705-2.564-7.482A154.074,154.074,0,0,1,90.258,273.9a131.656,131.656,0,0,1,.614-50.834A87.836,87.836,0,0,1,95.4,207.837a107.748,107.748,0,0,0,8.579-41.312c.26-15.847-1.873-31.97-7.331-46.9q-1.435-3.919-3.192-7.709l-.148.073.138-.095c-15.209-32.28,3.82-59.641,4.4-60.456,6.1-8.7,14.239-18.019,23.333-22.42a56.473,56.473,0,0,0,22.9-19.855,65.659,65.659,0,0,1-5.259,5.4" transform="translate(-67.216 -9.164)"/>
            </g>
          </g>
        </g>
        <path id="Path_234" data-name="Path 234" d="M125.855,8.256a35.408,35.408,0,0,0-25.917,5.978c-8.958,6.348-14.482,16.653-17.181,27.3s-2.164,18.833-2.308,29.811a89.39,89.39,0,0,1,19.812-45.458c6.717-8.132,15.318-15.248,25.594-17.628" transform="translate(31.888 3.094)" fill="#bfa800"/>
        <path id="Path_235" data-name="Path 235" d="M100.969,74.436S81.377,41.011,59.225,32.665,28.679,7.825,28.679,7.825,65.2-11.818,83.5,11.143c22.581,28.321,17.467,63.294,17.467,63.294" transform="translate(11.368 0)" fill="#e5d100"/>
        <path id="Path_236" data-name="Path 236" d="M87.455,37.1c-2.507-5.44-5.517-10.749-9.779-14.958C68.379,12.96,54.82,10.966,41.947,8.73c15.589,2.587,29.212,12.854,38.3,25.781,7.61,10.826,12.3,23.4,15.377,36.317l.088.147s.274-1.906.415-5.16A109.959,109.959,0,0,0,87.455,37.1" transform="translate(16.627 3.46)" fill="#bfa800"/>
        <path id="Path_237" data-name="Path 237" d="M71.2,31c-3.524-4.792-6.264-7.574-12.147-8.525-.272-.043-.5.342-.205.486,4.4,2.149,7.683,9.645,10.695,13.39,3.425,4.26,6.46,9.285,10.879,12.572.468.348,1.081-.226.944-.726C79.7,42.147,74.893,36.028,71.2,31" transform="translate(23.269 8.907)" fill="#ffe422"/>
        <path id="Path_238" data-name="Path 238" d="M92.952,122.724S90.007,107.406,95.9,99.8s22.216-1.655,43.723-21.271,14.21-15.6,14.21-15.6l-42.57,16.308L94.25,94.364s-7.56,13.944-1.3,28.36" transform="translate(35.86 24.81)" fill="#e5d100"/>
        <path id="Path_239" data-name="Path 239" d="M90.414,104.907s-1.241-17.016,14.151-30.015,49.425-12.054,49.425-12.054-24.107,20.088-47.5,27.415S93.1,122.633,93.1,122.633s-4.207-6.853-2.689-17.726" transform="translate(35.707 24.902)" fill="#e5d100"/>
        <path id="Path_240" data-name="Path 240" d="M121.583,67.115c-5.1-2.708-12,2.916-15.827,5.94-.733.579-10.036,8.637-6.662,10.1s7.912-4.565,10.147-6.205c3.772-2.763,10.612-4.4,12.611-8.806a.768.768,0,0,0-.27-1.031" transform="translate(38.988 26.319)" fill="#ffe422"/>
        <path id="Path_241" data-name="Path 241" d="M89.307,108.883c-1.486-8.473-3.533-19.051-8.737-26.09-.027-.036-.1-.031-.1.027.394,3.994,1.821,7.825,2.745,11.72a145.419,145.419,0,0,1,2.7,14.8c1.116,8.582.515,17.441,2.305,25.89a.633.633,0,0,0,1.211,0c2.7-8.322,1.357-17.858-.131-26.348" transform="translate(31.897 32.808)" fill="#ffe422"/>
        <path id="Path_242" data-name="Path 242" d="M86.7,125.063c-.239-.288-.758-.708-1.167-.436-.962.642-.881,2.03-1,3.066a15.172,15.172,0,0,0-.25,3.911.683.683,0,0,0,1,.406,5.572,5.572,0,0,0,2-4.533,3.825,3.825,0,0,0-.577-2.416" transform="translate(33.381 49.364)" fill="#ffe422"/>
        <path id="Path_243" data-name="Path 243" d="M62.358,153.179S20.922,124.572,2.331,156.4c0,0,7.982-4.1,20.9,3.152s35.712,6.162,39.126-6.373" transform="translate(0.924 56.035)" fill="#e5d100"/>
        <path id="Path_244" data-name="Path 244" d="M73.909,176.844s-16.882-19.827-47.294-4.438c0,0,22.966,22.362,47.294,4.438" transform="translate(10.55 66.018)" fill="#e5d100"/>
        <g id="Group_165" data-name="Group 165" transform="translate(49.062 236.9)" opacity="0.2" style="mix-blend-mode: overlay;isolation: isolate">
          <g id="Group_164" data-name="Group 164">
            <g id="Group_163" data-name="Group 163" clip-path="url(#clip-path-8)">
              <path id="Path_245" data-name="Path 245" d="M70.4,175.47a15.952,15.952,0,0,0-3.766-1.843,64.824,64.824,0,0,0-31.5-3.322,121.636,121.636,0,0,1,26.724,4.306,29.9,29.9,0,0,1,6.521,2.481c.715-.461,1.433-.95,2.15-1.479,0,0-.05-.059-.128-.144" transform="translate(-35.135 -169.654)"/>
            </g>
          </g>
        </g>
        <path id="Path_246" data-name="Path 246" d="M11.312,146.166c9.773-.434,18.866,1.181,28.489,2.946,6.134,1.125,12.65,2.476,17.762,5.794a11.313,11.313,0,0,0,1.236-2.863s-.6-.411-1.657-1.067a68.963,68.963,0,0,0-45.829-4.811" transform="translate(4.484 57.17)" fill="#bfa800"/>
        <path id="Path_247" data-name="Path 247" d="M54.728,177.094c-7.795-1.431-16.462-1.9-23.473-5.919a.037.037,0,0,0-.046.057c4.972,5.919,16.116,8.84,23.519,7.029a.61.61,0,0,0,0-1.167" transform="translate(12.367 67.847)" fill="#ffe422"/>
        <path id="Path_248" data-name="Path 248" d="M46.527,155.318c-2.946-1.125-6.214-.828-9.294-1.375-3.244-.577-6.393-1.6-9.576-2.432-5.579-1.454-11.059-2.569-16.81-1.577a.037.037,0,0,0,0,.071c6.788,1.183,12.986,4.049,19.528,6.07,4.742,1.466,11.908,3.814,16.319.525a.713.713,0,0,0-.168-1.282" transform="translate(4.289 59.28)" fill="#ffe422"/>
        <path id="Path_249" data-name="Path 249" d="M42.38,152.228c-1.275-.909-3.22.512-3.911,1.565a.653.653,0,0,0,.388.954c1.4.2,3.638-.31,3.83-1.983a.623.623,0,0,0-.307-.536" transform="translate(15.214 60.225)" fill="#ffe422"/>
        <path id="Path_250" data-name="Path 250" d="M80.705,149.028a.075.075,0,0,0-.124-.032c-7.112,6.319-9.675,19.093-11.759,27.964-2.095,8.916-4.466,19.023-.694,27.708a1.263,1.263,0,0,0,2.17,0c4.09-8.894,4.1-19.706,6.247-29.236,1.866-8.282,6.077-17.925,4.16-26.4" transform="translate(26.215 59.05)" fill="#ffe422"/>
        <path id="Path_251" data-name="Path 251" d="M72.647,197.431a6.636,6.636,0,0,0-1.873-3.224,1.274,1.274,0,0,0-2.1.554c-.606,2.293.411,5.239,2.587,6.231a.743.743,0,0,0,.991-.26,3.879,3.879,0,0,0,.394-3.3" transform="translate(27.152 76.845)" fill="#ffe422"/>
      </g>
    </g>
  </g>
</svg>
