<svg id="Group_131" data-name="Group 131" xmlns="http://www.w3.org/2000/svg" xmlns:xlink="http://www.w3.org/1999/xlink" width="276.115" height="212.75" viewBox="0 0 276.115 212.75">
  <defs>
    <clipPath id="clip-path">
      <rect id="Rectangle_40" data-name="Rectangle 40" width="276.115" height="212.749" fill="none"/>
    </clipPath>
    <clipPath id="clip-path-3">
      <rect id="Rectangle_35" data-name="Rectangle 35" width="93.421" height="71.638" fill="none"/>
    </clipPath>
    <clipPath id="clip-path-4">
      <rect id="Rectangle_36" data-name="Rectangle 36" width="59.739" height="48.077" fill="none"/>
    </clipPath>
    <clipPath id="clip-path-5">
      <rect id="Rectangle_37" data-name="Rectangle 37" width="202.387" height="42.929" fill="none"/>
    </clipPath>
    <clipPath id="clip-path-6">
      <rect id="Rectangle_38" data-name="Rectangle 38" width="77.599" height="135.366" fill="none"/>
    </clipPath>
  </defs>
  <g id="Group_130" data-name="Group 130" clip-path="url(#clip-path)">
    <g id="Group_129" data-name="Group 129" transform="translate(0 0)">
      <g id="Group_128" data-name="Group 128" clip-path="url(#clip-path)">
        <path id="Path_130" data-name="Path 130" d="M203,105.612c-1.076-3.971-4.862-6.853-8.913-7.572a17.786,17.786,0,0,0-11.822,2.528,2.37,2.37,0,0,0-.383.283c1.61-7.953-.652-16.92-7.018-21.9-6.8-5.309-18.243-4.22-22.637,3.2-1.276-4.4-3.88-8.811-8.165-10.427s-10.156,1.082-10.314,5.659c-.3-6.57-8.316-11.45-14.287-8.7.755-3.869-3.421-7.29-7.361-7.231s-6.033,3.307-9.084,5.8C100.3,59.6,97.127,51.346,90.179,47.126A18.934,18.934,0,0,0,69.516,48.3,20.376,20.376,0,0,0,62,67.771c-4.621-2.085-10.784,1.45-11.316,6.492a7.214,7.214,0,0,0-13.969.476c-.365,1.657.107,3.975.338,5.655a21.44,21.44,0,0,0-14.966,36.632,4.894,4.894,0,0,0,1.572,1.105,8.769,8.769,0,0,0-8.029,6.84,8.286,8.286,0,0,0-7.84,1.167c-2.1,1.793-1.795,4.989.06,7.035a5.758,5.758,0,0,0-6.957,2.474,7.527,7.527,0,0,0,.341,7.668,6.121,6.121,0,0,0,2.238,2.191,6.363,6.363,0,0,0,6.138-.534,18.777,18.777,0,0,0,4.579-4.492c.452,6.136,5.9,11.312,12,12.113,5.9.775,11.944-2.205,15.532-6.955a6.954,6.954,0,0,0,12.646.543,19.572,19.572,0,0,0,32.267-4.519c5.673-11.8,24.3-13.715,37.355-14.619s26.256-.12,39.171-2.241c12.439-2.045,24.265-6.731,35.981-11.385a9.847,9.847,0,0,0,3.664-2.111c1.544-1.632.782-3.526.194-5.693" transform="translate(0 36.347)" fill="#3c96d3"/>
        <g id="Group_118" data-name="Group 118" transform="translate(0 117.448)" opacity="0.2" style="mix-blend-mode: overlay;isolation: isolate">
          <g id="Group_117" data-name="Group 117">
            <g id="Group_116" data-name="Group 116" clip-path="url(#clip-path-3)">
              <path id="Path_131" data-name="Path 131" d="M86.638,125.272a18.281,18.281,0,0,1,6.782-7.381c-.252-.105-.508-.2-.757-.316a13.033,13.033,0,0,1-13.579,4c-1.459-.459-2.9-1.191-4.427-1.085s-3.1,1.557-2.592,3a11.665,11.665,0,0,1-12.492-6.082,4.844,4.844,0,0,1-7.652,1.154c-1.247-1.412-1.626-3.572-3.216-4.583-1.5-.953-3.448-.5-5.223-.6-4.722-.285-8.287-4.906-8.895-9.6s1.054-9.367,2.953-13.7c-6.133,1.848-12.026-5.064-11.762-11.463.241-5.833,3.873-9.069,6.189-13.906a21.384,21.384,0,0,0-9.88,35.924,4.934,4.934,0,0,0,1.572,1.105,8.768,8.768,0,0,0-8.029,6.842,8.277,8.277,0,0,0-7.839,1.165c-2.1,1.793-1.795,4.989.06,7.035a5.759,5.759,0,0,0-6.957,2.474,7.523,7.523,0,0,0,.341,7.668,6.149,6.149,0,0,0,2.236,2.192,6.363,6.363,0,0,0,6.138-.535,18.745,18.745,0,0,0,4.579-4.492c.454,6.136,5.9,11.312,12,12.113,5.9.775,11.942-2.205,15.53-6.955a6.954,6.954,0,0,0,12.646.543,19.573,19.573,0,0,0,32.269-4.519" transform="translate(0 -64.713)"/>
            </g>
          </g>
        </g>
        <g id="Group_121" data-name="Group 121" transform="translate(143.98 114.634)" opacity="0.2" style="mix-blend-mode: overlay;isolation: isolate">
          <g id="Group_120" data-name="Group 120">
            <g id="Group_119" data-name="Group 119" clip-path="url(#clip-path-4)">
              <path id="Path_132" data-name="Path 132" d="M138.161,96.179c1.545-1.632.782-3.525.194-5.693-1.076-3.971-4.862-6.853-8.913-7.572a17.784,17.784,0,0,0-11.822,2.53,2.358,2.358,0,0,0-.383.281c1.61-7.953-.652-16.92-7.02-21.9-.307-.241-.635-.454-.96-.668,1.238,5.051-1.211,11.176-6.194,13.076,4.064,4.864,6.381,11.641,4.41,17.665s-9.151,10.323-14.978,7.833a31.277,31.277,0,0,1-13.162,9.5,143.322,143.322,0,0,0,19.184-1.564c12.438-2.044,24.265-6.73,35.981-11.385a9.847,9.847,0,0,0,3.664-2.111" transform="translate(-79.331 -63.163)"/>
            </g>
          </g>
        </g>
        <path id="Path_133" data-name="Path 133" d="M194.09,84.1a17.8,17.8,0,0,0-11.824,2.53,2.456,2.456,0,0,0-.381.281c1.61-7.953-.652-16.92-7.02-21.9a16.882,16.882,0,0,0-16.581-1.987c3.9,6.873,2.309,16.953-4.432,21.438,3.111,3.831,1.624,9.9-1.909,13.347s-8.5,4.9-13.271,6.174c-12.5,3.336-26.525,6.056-37.808-.278a13.383,13.383,0,0,1-13.6,5.514c-2.3-.5-4.623-1.621-6.908-1.044-1.71.43-3.038,1.739-4.574,2.6a9.741,9.741,0,0,1-11.929-2.258c-.054,4.143-4.514,7.294-8.639,6.906s-7.592-3.5-9.528-7.165-2.61-7.84-3.254-11.933C35.456,98.7,27.833,92.77,25.759,85.7c-1.635-5.579.757-11.35,1.466-16.654a21.736,21.736,0,0,0-9.857,10.737,21.976,21.976,0,0,0,4.719,23.3,4.934,4.934,0,0,0,1.572,1.105,8.768,8.768,0,0,0-8.029,6.842,8.277,8.277,0,0,0-7.839,1.165c-2.1,1.793-1.795,4.989.06,7.035A5.759,5.759,0,0,0,.895,121.7a7.527,7.527,0,0,0,.341,7.668,6.149,6.149,0,0,0,2.236,2.192,6.362,6.362,0,0,0,6.14-.535,18.794,18.794,0,0,0,4.577-4.49c.454,6.134,5.9,11.311,12,12.111,5.9.775,11.944-2.2,15.53-6.955a6.954,6.954,0,0,0,12.646.543,19.573,19.573,0,0,0,32.269-4.519c5.673-11.8,24.3-13.713,37.353-14.619s26.258-.118,39.173-2.241c12.438-2.044,24.265-6.73,35.981-11.385a9.861,9.861,0,0,0,3.664-2.111c1.544-1.63.78-3.525.194-5.693-1.076-3.971-4.862-6.853-8.913-7.572" transform="translate(0 50.289)" fill="#3682c1"/>
        <path id="Path_134" data-name="Path 134" d="M50.484,83.311c-2.7-3.347-1.835-8.41.381-12.093,3.488-5.8,10.363-9.686,17.066-8.73S80.4,69.8,79.85,76.547A9.327,9.327,0,0,1,96.73,79.722c1.829-2.535,6.2-2.309,8.06.2s1.122,6.416-1.29,8.407a8.284,8.284,0,0,1-8.837.7,13.651,13.651,0,0,1-17.6-.263c-1.16,3.975-4.532,7.04-8.356,8.624A28.567,28.567,0,0,1,56.5,99.067a16.122,16.122,0,0,1-7.062-1.545,7.23,7.23,0,0,1-3.808-5.579c-3.546,7.5-8.036-.777-7.586-5.3.733-7.378,8.118-8.692,12.439-3.327" transform="translate(30.978 50.805)" fill="#287faf"/>
        <path id="Path_135" data-name="Path 135" d="M228.828,117.74c.751-5.222,1.414-11.006-.878-15.463a8.664,8.664,0,0,0-6.866-4.94c-2.755-.174-5.57,2.24-7.305,4.9a15.591,15.591,0,0,0-4.053-11.9,9.65,9.65,0,0,0-10.289-2.4c-2.563.989-4.3,4.252-4.731,7.521a28.632,28.632,0,0,0-2.234-8.615c-1.27-2.594-3.387-4.713-5.837-4.989a6.033,6.033,0,0,0-6.167,4.788c-1.96-2.363-4.091-4.837-6.8-5.423s-6.147,4.369-6.04,7.759a44.4,44.4,0,0,0-5.514-8.675c-2.205-2.485-5.042-4.312-8.036-4.29-2.394.018-5.417,1.2-5.653,4.142-2.319-2.842-4.808-5.8-7.993-6.739s-7.024,1.9-7.6,5.889A9.038,9.038,0,0,0,124,75.808c-3.178.675-6.042,3.356-7.432,6.955.73.049-.016,1.437.358.657-1.946-3.376-5.9-4.708-8.987-3.027s-4.706,6.094-4.029,10.16c-1.474-3.374-3.045-6.784-5.4-9.283s-5.659-3.957-8.634-2.8c-1.205.468-2.78.719-1.918,1.849a11.044,11.044,0,0,0-6.038-2.759,5.945,5.945,0,0,0-4.269.951,4.515,4.515,0,0,0-2.08,4.131,15.079,15.079,0,0,0-13.488,3.94,23.317,23.317,0,0,0-6.873,14.89c-.147,1.7-.584,4.59.659,3.831a7.314,7.314,0,0,0-8.272,2.194c-2.049,2.65-1.984,7.672.572,9.488Z" transform="translate(37.605 59.675)" fill="#26779b"/>
        <path id="Path_136" data-name="Path 136" d="M227.95,100.3a8.661,8.661,0,0,0-6.868-4.938c-2.753-.174-5.57,2.238-7.3,4.9a15.594,15.594,0,0,0-4.053-11.9,10.3,10.3,0,0,0-4.428-2.615c-.056.113-.1.232-.158.341a17.761,17.761,0,0,1-9.156,7.545,15.739,15.739,0,0,1-9.367,1.094,8.909,8.909,0,0,1-6.722-6.14c-3.526,4.973-11.786,5.53-15.949,1.076-3.815,2.452-8.6,2.652-13.138,2.775q-4.533.125-9.064.249c-4.263.118-9.664-.523-10.946-4.592-3.541,4.523-11.664,4.045-14.654-.86-4.214,6.552-15.245,6.929-19.9.681-.995,3.084-4.575,4.833-7.791,4.43s-5.995-2.548-7.942-5.138c-3.514-4.677-1.853-7.922-.74-11.561a5.11,5.11,0,0,0-2.125.891,4.521,4.521,0,0,0-2.078,4.133A15.077,15.077,0,0,0,62.081,84.61,23.317,23.317,0,0,0,55.208,99.5a11.81,11.81,0,0,0-.064,3.641,7.169,7.169,0,0,0-7.55,2.387c-2.049,2.65-1.984,7.67.572,9.487l180.662.753c.751-5.221,1.414-11-.878-15.463" transform="translate(37.605 61.646)" fill="#287faf"/>
        <path id="Path_137" data-name="Path 137" d="M80.068,92.8a14.4,14.4,0,0,1-12.41-12.38,12.493,12.493,0,0,1-.056-1.688A16.286,16.286,0,0,0,62.08,82.1a23.315,23.315,0,0,0-6.871,14.89,11.825,11.825,0,0,0-.067,3.641,7.167,7.167,0,0,0-7.546,2.385c-2.049,2.65-1.984,7.67.572,9.488l36.554.152c8.095-6.307-5.666-11.169-4.653-19.85" transform="translate(37.605 64.162)" fill="#3c96d3"/>
        <path id="Path_138" data-name="Path 138" d="M76.871,100.99a10.289,10.289,0,0,1,13.566-5.044,10.531,10.531,0,0,1,13.766-4.6,7.757,7.757,0,0,0,2.652,1.118c1.586.156,2.947-1.016,4.22-1.975,4.543-3.421,12.082-4.274,15.173.5,2.319-4.416,9.545-4.96,12.5-.944,2.035-4.385,9.133-5.075,11.973-1.162,3.833-3.748,11.28-2.341,13.483,2.546,3.835-2.584,9.989.427,10.3,5.04,3.762-2.347,9.051-.113,11.4,3.65s2.456,8.476,2.151,12.9c-2.891-1.564-6.412-1.129-9.657-.6-18.055,2.924-35.9,7.3-54.117,8.915s-37.182.3-53.656-7.639c-4.145-2-10.684-4.468-6.6-9.579,1.71-2.136,13.142-3.839,12.842-3.116" transform="translate(51.123 70.334)" fill="#287faf"/>
        <path id="Path_139" data-name="Path 139" d="M185.9,98.8c-2.349-3.762-7.635-6-11.4-3.65-.314-4.614-6.467-7.624-10.3-5.04a7.228,7.228,0,0,0-1.557-2.191,6.307,6.307,0,0,1-1.869,1.04c2.55,3.247.882,8.476-2.621,10.664s-8.075,1.888-11.958.481a8.818,8.818,0,0,1-11.879-1.969,10.855,10.855,0,0,1-13.83-.525c-.871,2.448-3.962,3.486-6.5,2.933s-4.637-2.276-6.63-3.944c-.044,3.113-3.735,5.265-6.755,4.514s-5.154-3.583-6.045-6.565a7.561,7.561,0,0,1,.027-4.176,9.743,9.743,0,0,0-4.149,4.258A10.29,10.29,0,0,0,76.87,99.676c.3-.722-11.131.98-12.84,3.116-4.089,5.111,2.448,7.581,6.594,9.579,16.476,7.942,35.44,9.254,53.658,7.639,7.483-.662,14.9-1.8,22.3-3.1q15.713-3.743,31.289-8.069c3.546-.985,7.278-2.136,9.986-4.53A14.776,14.776,0,0,0,185.9,98.8" transform="translate(51.123 71.648)" fill="#3c96d3"/>
        <path id="Path_140" data-name="Path 140" d="M243.007,105.129a17.356,17.356,0,0,1-.773-3.646,4.19,4.19,0,0,0-1.75-2.9c-.944-.456-1.884-.018-1.748,1.221-1.238-2.6-2.719-5.436-5.1-6.138-2.341-.691-4.722.956-6.6,2.842a13.455,13.455,0,0,0-3.2,4.586c-.1.249-.18.5-.254.766-1.182-4.356-2.967-8.407-6.272-10.16-3.321-1.762-7.28-.528-10.336,1.9a13.558,13.558,0,0,0-5.374,10.311c-1.4-2.459-3.245-4.8-5.639-5.379a4.6,4.6,0,0,0-5.4,4.4c-1.207-3.681-3.256-7.3-6.343-8.421s-7.73,1.165-7.583,5.142a10.977,10.977,0,0,0-12.83-6.555c-4.888,1.238-9.016,5.338-12.309,9.982a13.148,13.148,0,0,0-2.385,4.822,7.116,7.116,0,0,0-.123,2.015,11.82,11.82,0,0,0-6.83-5.741,10.262,10.262,0,0,0-10.508,3.63,5.958,5.958,0,0,0-8.33-4.182c-3.14,1.586-5.127,5.051-5.822,9.147a35.6,35.6,0,0,0-13.046-11.018,14.145,14.145,0,0,0-7.922-1.692,8.572,8.572,0,0,0-6.668,5.078,14.523,14.523,0,0,0-1.924-5.771,8.984,8.984,0,0,0-6.722-3.938c-2.545-.265-4.877,1.348-7.392,1.927a32.163,32.163,0,0,0-4.878-5.822,8.337,8.337,0,0,0-6.392-2.336c-2.261.314-4.274,1.937-6,3.775a13.9,13.9,0,0,0-3.107,4.692c-1.7.479-4.153-.443-5.895-.476-3.3-.062-6.568,3.143-6.9,7.2s2.717,8.125,5.993,7.608c4.207,8.7,14.115,13.184,22.049,10.423,2.154-.748,4.519-2.637,4.626-5.261A13.774,13.774,0,0,0,83,129.746c5.094,1.434,10.412-.065,15.51-1.559a10.508,10.508,0,0,0,5.94,7.608,7.571,7.571,0,0,0,8.445-1.254,3.362,3.362,0,0,1,1.309-.895c.849-.2,1.626.543,2.312,1.181,4.82,4.481,11.2,5.786,17.233,5.12s11.835-3.129,17.567-5.575c3.432,4.153,9.2,6.1,13.877,4.614s8.791-4.873,12.806-8.2c2.1-1.74,4.334-3.7,5.127-6.659a15.077,15.077,0,0,0,20.979.7,15.18,15.18,0,0,0,16.476,5.989c5.9-1.537,11.064-6.1,15.174-11.574.88.648,2.307-.5,3.182-1.176a7.553,7.553,0,0,0,2-2.857,23.372,23.372,0,0,0,2.071-10.073" transform="translate(33.105 72.638)" fill="#87bfff"/>
        <g id="Group_124" data-name="Group 124" transform="translate(73.728 169.82)" opacity="0.2" style="mix-blend-mode: overlay;isolation: isolate">
          <g id="Group_123" data-name="Group 123">
            <g id="Group_122" data-name="Group 122" clip-path="url(#clip-path-5)">
              <path id="Path_141" data-name="Path 141" d="M238.931,114.446a7.534,7.534,0,0,0,2-2.857,23.4,23.4,0,0,0,2.073-10.073,17.355,17.355,0,0,1-.775-3.646c-.033-.145-.083-.287-.123-.43a22.806,22.806,0,0,1-5.5,7.113c-2.613,2.236-6.036,3.96-9.41,3.281a8.443,8.443,0,0,0-3.127-.45c-1.287.24-2.194,1.348-3.107,2.287-5.967,6.134-16.917,6.4-23.176.563-3.782,5.777-13.942,5.314-17.182-.784-.481,3.594-1.456,7.338-4.044,9.877s-7.211,3.281-9.773.717c-3.568,5.457-13.349,4.617-15.933-1.37a11.456,11.456,0,0,1-21.129.9,17.5,17.5,0,0,1-27.518-5.18,11.143,11.143,0,0,1-19.316-3.307,11.478,11.478,0,0,1-15.033-4.154,11.88,11.88,0,0,1-13.96-3.294c-1.646-2.091-1.53-5.955-1.432-9.472-1.581.044-3.486-.572-4.917-.6-3.3-.062-6.57,3.143-6.9,7.2s2.717,8.125,5.993,7.608c4.207,8.7,14.115,13.184,22.051,10.423,2.152-.748,4.519-2.637,4.626-5.261A13.771,13.771,0,0,0,83,126.134c5.094,1.434,10.41-.065,15.51-1.559a10.51,10.51,0,0,0,5.938,7.608,7.575,7.575,0,0,0,8.447-1.254,3.349,3.349,0,0,1,1.309-.895c.849-.2,1.624.543,2.312,1.181,4.819,4.481,11.2,5.786,17.233,5.12s11.833-3.129,17.567-5.574c3.43,4.151,9.2,6.1,13.877,4.612s8.791-4.873,12.806-8.2c2.1-1.74,4.334-3.7,5.127-6.659a15.077,15.077,0,0,0,20.979.7,15.179,15.179,0,0,0,16.476,5.989c5.9-1.539,11.064-6.1,15.173-11.574.88.648,2.309-.5,3.182-1.176" transform="translate(-40.624 -93.569)"/>
            </g>
          </g>
        </g>
        <path id="Path_142" data-name="Path 142" d="M106.947,97.858c-.034.034-.065.069-.1.105-2.878,3.2-4.265,8.474-1.69,12.216,5.753,8.358,24.178-4.7,17.775-13.062-3.893-5.082-12.089-3.474-15.988.74" transform="translate(84.59 76.559)" fill="#65a8ea"/>
        <path id="Path_143" data-name="Path 143" d="M110.753,102.993c.076-.058.163-.127.254-.2l-.091.054c-.054.047-.1.093-.163.145" transform="translate(90.254 83.767)" fill="#603526"/>
        <path id="Path_144" data-name="Path 144" d="M118.208,97.319a4.941,4.941,0,0,0-.27,6.189,4.82,4.82,0,0,0,6.848,1.583,5.5,5.5,0,0,0,.69-8.087,5.03,5.03,0,0,0-7.267.316" transform="translate(95.329 77.907)" fill="#65a8ea"/>
        <path id="Path_145" data-name="Path 145" d="M145.057,96.3c-3.013-4.176-11.387-4.909-13.245,2.45-1.944,7.7,7.359,11.706,12.218,5.866,2.7-3.249,2.541-6.218,1.027-8.316" transform="translate(107.201 75.93)" fill="#65a8ea"/>
        <path id="Path_146" data-name="Path 146" d="M89.305,99.674a5.414,5.414,0,0,0-5.463,5.869,5.033,5.033,0,0,0,4.632,4.563,5.4,5.4,0,0,0,5.6-4.038,5.092,5.092,0,0,0-4.773-6.394" transform="translate(68.303 81.22)" fill="#65a8ea"/>
        <path id="Path_147" data-name="Path 147" d="M77.289,96.51a7.285,7.285,0,0,0-9.374,5.708,5.4,5.4,0,0,0,1.606,4.837c1.978,1.721,4.5,1.1,6.851.766l-.367.049c2.619-.5,5-2,5.445-4.9a5.993,5.993,0,0,0-4.162-6.456" transform="translate(55.297 78.38)" fill="#65a8ea"/>
        <path id="Path_148" data-name="Path 148" d="M79.189,101.865c-4.45,1.439-2.962,8.468,1.775,7.688,5.111-.84,3.082-9.26-1.775-7.688" transform="translate(62.361 82.852)" fill="#65a8ea"/>
        <path id="Path_149" data-name="Path 149" d="M99.337,104.763c-2.031-1.1-4.316-.626-5.327,1.554a3.872,3.872,0,0,0,1.666,5.105c4.367,2.447,7.826-4.4,3.661-6.659" transform="translate(76.296 84.908)" fill="#65a8ea"/>
        <path id="Path_150" data-name="Path 150" d="M96.543,110.852c-3.679-2.2-7.163,3.274-3.292,5.267,3.358,1.728,6.7-3.232,3.292-5.267" transform="translate(74.612 89.917)" fill="#65a8ea"/>
        <path id="Path_151" data-name="Path 151" d="M111.046,108.194c-4-2.343-8.113,3.343-4.114,5.938,3.806,2.47,8.55-3.341,4.114-5.938" transform="translate(85.809 87.717)" fill="#65a8ea"/>
        <path id="Path_152" data-name="Path 152" d="M102.337,17.991C88.83,38.483,86.184,60.556,86.411,75.794l-5.78,1.995c12.7,40.547-6.143,70.854-6.143,70.854,13.516,6.964,22.935,0,22.935,0-19.768-41.955,4.967-77.517,5.713-78.575,7.933-11.312,18.508-23.421,30.329-29.142,25.392-12.287,33.585-32.765,33.585-32.765s-45.454-19.389-64.713,9.83" transform="translate(60.7 1.512)" fill="#e5d100"/>
        <g id="Group_127" data-name="Group 127" transform="translate(146.325 16.632)" opacity="0.2" style="mix-blend-mode: overlay;isolation: isolate">
          <g id="Group_126" data-name="Group 126">
            <g id="Group_125" data-name="Group 125" clip-path="url(#clip-path-6)">
              <path id="Path_153" data-name="Path 153" d="M128.464,34.97A73.385,73.385,0,0,0,158.223,9.164a84.722,84.722,0,0,1-6.833,7.013c-12.6,11.4-28.7,18.3-41.625,29.329a83.1,83.1,0,0,0-21.057,99.023,15.788,15.788,0,0,0,3.713-1.842c-19.768-41.955,4.967-77.519,5.715-78.577,7.931-11.311,18.507-23.42,30.327-29.14" transform="translate(-80.624 -9.164)"/>
            </g>
          </g>
        </g>
        <path id="Path_154" data-name="Path 154" d="M140.588,8.391a46.02,46.02,0,0,0-33.685,7.77C95.261,24.411,88.081,37.805,84.573,51.637s-2.813,24.48-3,38.748A116.2,116.2,0,0,1,107.323,31.3c8.73-10.57,19.91-19.819,33.265-22.911" transform="translate(66.475 6.361)" fill="#bfa800"/>
        <path id="Path_155" data-name="Path 155" d="M123.762,96.747S98.3,53.305,69.505,42.456,29.8,10.17,29.8,10.17s47.465-25.53,71.253,4.312c29.349,36.812,22.7,82.265,22.7,82.265" transform="translate(24.288 0.001)" fill="#e5d100"/>
        <path id="Path_156" data-name="Path 156" d="M102.219,45.6c-3.258-7.071-7.171-13.971-12.71-19.441C77.425,14.227,59.8,11.636,43.071,8.73,63.333,12.093,81.039,25.436,92.85,42.239c9.889,14.071,15.984,30.416,19.986,47.2l.113.191s.356-2.477.539-6.706A142.917,142.917,0,0,0,102.219,45.6" transform="translate(35.099 7.114)" fill="#bfa800"/>
        <path id="Path_157" data-name="Path 157" d="M53.212,2.138c-3.474.724-3.419,5.269-.915,7,4.4,3.036,9.61,4.537,14.156,7.385,3.931,2.463,7.421,5.731,12.274,5.713a1.691,1.691,0,0,0,1.612-1.225C82.783,8.973,62.762.147,53.212,2.138" transform="translate(41.154 1.513)" fill="#ffe422"/>
        <path id="Path_158" data-name="Path 158" d="M73.172,14.7a4.864,4.864,0,0,0-1.838-.713,2.877,2.877,0,0,0-1.519.283c-.314.118-.285.327-.764.229a.232.232,0,0,0-.223.385c.33.385-.192.875-.192,1.443a6.705,6.705,0,0,0,.292,1.637,4.82,4.82,0,0,0,2.385,3.056A2.566,2.566,0,0,0,75.047,19.5a4.246,4.246,0,0,0-1.875-4.8" transform="translate(55.931 11.382)" fill="#ffe422"/>
        <path id="Path_159" data-name="Path 159" d="M76.064,33.556c-4.581-6.229-8.142-9.844-15.788-11.08-.354-.056-.648.445-.267.632,5.717,2.793,9.986,12.536,13.9,17.4,4.452,5.537,8.4,12.067,14.14,16.34.608.452,1.4-.294,1.227-.944-2.163-7.862-8.407-15.815-13.213-22.351" transform="translate(48.757 18.312)" fill="#ffe422"/>
        <path id="Path_160" data-name="Path 160" d="M127.911,10.565c-5.506-.334-10.655,3.39-15.3,6.051-4.751,2.724-10.252,5.71-12.309,11.024-.826,2.134,1.234,3.76,3.044,3.993,5.628.726,11.276-3.724,15.394-7.073,4.145-3.37,9.174-7.269,10.111-12.755a1,1,0,0,0-.944-1.24" transform="translate(81.588 8.593)" fill="#ffe422"/>
        <path id="Path_161" data-name="Path 161" d="M124.024,7.925c-1.526-2.613-5.309.29-6.022,2.133a1.428,1.428,0,0,0,.989,1.744c1.893.477,6.594-1.2,5.033-3.877" transform="translate(96.105 5.609)" fill="#ffe422"/>
        <path id="Path_162" data-name="Path 162" d="M84.092,76.541c-.7-1.579-2.882-1.483-3.967-.512a7.025,7.025,0,0,0-2.147,5.289c.024,1.59,1.087,3.935,2.889,4.138,1.579.178,2.984-1.555,3.465-2.858a7.935,7.935,0,0,0-.24-6.056" transform="translate(63.544 61.381)" fill="#ffe422"/>
      </g>
    </g>
  </g>
</svg>
