<svg id="Group_115" data-name="Group 115" xmlns="http://www.w3.org/2000/svg" xmlns:xlink="http://www.w3.org/1999/xlink" width="460.96" height="339.699" viewBox="0 0 460.96 339.699">
  <defs>
    <clipPath id="clip-path">
      <rect id="Rectangle_34" data-name="Rectangle 34" width="460.96" height="339.699" fill="none"/>
    </clipPath>
    <clipPath id="clip-path-3">
      <rect id="Rectangle_21" data-name="Rectangle 21" width="75.44" height="57.85" fill="none"/>
    </clipPath>
    <clipPath id="clip-path-4">
      <rect id="Rectangle_22" data-name="Rectangle 22" width="48.241" height="38.824" fill="none"/>
    </clipPath>
    <clipPath id="clip-path-5">
      <rect id="Rectangle_23" data-name="Rectangle 23" width="163.432" height="34.667" fill="none"/>
    </clipPath>
    <clipPath id="clip-path-6">
      <rect id="Rectangle_24" data-name="Rectangle 24" width="129.646" height="129.646" fill="none"/>
    </clipPath>
    <clipPath id="clip-path-7">
      <rect id="Rectangle_25" data-name="Rectangle 25" width="331.063" height="286.483" fill="none"/>
    </clipPath>
    <clipPath id="clip-path-8">
      <rect id="Rectangle_26" data-name="Rectangle 26" width="91.77" height="104.436" fill="none"/>
    </clipPath>
    <clipPath id="clip-path-9">
      <rect id="Rectangle_27" data-name="Rectangle 27" width="48.898" height="47.828" fill="none"/>
    </clipPath>
    <clipPath id="clip-path-10">
      <rect id="Rectangle_28" data-name="Rectangle 28" width="107.374" height="90.983" fill="none"/>
    </clipPath>
    <clipPath id="clip-path-11">
      <rect id="Rectangle_29" data-name="Rectangle 29" width="114.317" height="95.179" fill="none"/>
    </clipPath>
    <clipPath id="clip-path-12">
      <rect id="Rectangle_30" data-name="Rectangle 30" width="106.278" height="48.656" fill="none"/>
    </clipPath>
    <clipPath id="clip-path-13">
      <rect id="Rectangle_31" data-name="Rectangle 31" width="41.522" height="58.772" fill="none"/>
    </clipPath>
    <clipPath id="clip-path-14">
      <rect id="Rectangle_32" data-name="Rectangle 32" width="11.425" height="49.876" fill="none"/>
    </clipPath>
  </defs>
  <g id="Group_114" data-name="Group 114" clip-path="url(#clip-path)">
    <g id="Group_113" data-name="Group 113">
      <g id="Group_112" data-name="Group 112" clip-path="url(#clip-path)">
        <path id="Path_84" data-name="Path 84" d="M260.559,225.287a9.023,9.023,0,0,0-7.2-6.115,14.373,14.373,0,0,0-9.547,2.042,1.873,1.873,0,0,0-.309.228c1.3-6.422-.526-13.664-5.669-17.681-5.486-4.287-14.731-3.407-18.279,2.584-1.03-3.553-3.134-7.115-6.594-8.42s-8.2.873-8.329,4.571c-.239-5.3-6.714-9.247-11.536-7.022.608-3.124-2.763-5.887-5.945-5.838s-4.872,2.669-7.335,4.683c-2.191-6.187-4.758-12.853-10.369-16.261a15.289,15.289,0,0,0-16.686.945A16.46,16.46,0,0,0,146.7,194.73c-3.731-1.684-8.707,1.17-9.137,5.243a5.825,5.825,0,0,0-11.279.383,14.62,14.62,0,0,0,.27,4.568,17.313,17.313,0,0,0-12.085,29.58,3.941,3.941,0,0,0,1.27.892,7.081,7.081,0,0,0-6.484,5.525,6.687,6.687,0,0,0-6.331.942c-1.695,1.447-1.448,4.029.048,5.68a4.649,4.649,0,0,0-5.618,2,6.079,6.079,0,0,0,.276,6.191,4.974,4.974,0,0,0,1.806,1.771,5.14,5.14,0,0,0,4.958-.432,15.149,15.149,0,0,0,3.7-3.627c.366,4.955,4.767,9.135,9.694,9.782a13.926,13.926,0,0,0,12.541-5.616,5.616,5.616,0,0,0,10.212.437,15.806,15.806,0,0,0,26.059-3.648c4.581-9.524,19.62-11.075,30.163-11.805s21.2-.1,31.632-1.81c10.044-1.651,19.595-5.435,29.056-9.193a7.978,7.978,0,0,0,2.959-1.706c1.247-1.317.631-2.847.156-4.6" transform="translate(31.426 57.246)" fill="#3c96d3"/>
        <g id="Group_78" data-name="Group 78" transform="translate(128.056 262.74)" opacity="0.2" style="mix-blend-mode: overlay;isolation: isolate">
          <g id="Group_77" data-name="Group 77">
            <g id="Group_76" data-name="Group 76" clip-path="url(#clip-path-3)">
              <path id="Path_85" data-name="Path 85" d="M166.593,247.164a14.749,14.749,0,0,1,5.477-5.96c-.2-.086-.411-.163-.612-.256a10.521,10.521,0,0,1-10.964,3.23,10.031,10.031,0,0,0-3.575-.876c-1.234.083-2.5,1.258-2.093,2.424a9.422,9.422,0,0,1-10.089-4.911,3.911,3.911,0,0,1-6.178.932c-1.007-1.14-1.313-2.884-2.6-3.7-1.211-.771-2.784-.4-4.217-.488-3.814-.231-6.692-3.962-7.183-7.751s.851-7.563,2.384-11.063c-4.952,1.492-9.711-4.088-9.5-9.257.193-4.71,3.126-7.323,5-11.229a17.266,17.266,0,0,0-7.979,29.009,3.974,3.974,0,0,0,1.27.893,7.081,7.081,0,0,0-6.484,5.525,6.69,6.69,0,0,0-6.331.941c-1.695,1.448-1.448,4.029.049,5.681a4.651,4.651,0,0,0-5.619,2,6.082,6.082,0,0,0,.276,6.191,4.957,4.957,0,0,0,1.808,1.771,5.134,5.134,0,0,0,4.956-.432,15.172,15.172,0,0,0,3.7-3.626c.366,4.954,4.767,9.135,9.693,9.78a13.925,13.925,0,0,0,12.542-5.616,5.615,5.615,0,0,0,10.212.439,15.806,15.806,0,0,0,26.058-3.65" transform="translate(-96.63 -198.261)"/>
            </g>
          </g>
        </g>
        <g id="Group_81" data-name="Group 81" transform="translate(244.324 260.468)" opacity="0.2" style="mix-blend-mode: overlay;isolation: isolate">
          <g id="Group_80" data-name="Group 80">
            <g id="Group_79" data-name="Group 79" clip-path="url(#clip-path-4)">
              <path id="Path_86" data-name="Path 86" d="M231.869,223.208c1.247-1.317.631-2.847.156-4.6a9.023,9.023,0,0,0-7.2-6.115,14.373,14.373,0,0,0-9.547,2.042,1.873,1.873,0,0,0-.309.228c1.3-6.422-.526-13.664-5.668-17.681-.249-.195-.514-.366-.777-.539,1,4.079-.977,9.025-5,10.559,3.283,3.928,5.154,9.4,3.562,14.265s-7.389,8.337-12.1,6.325a25.245,25.245,0,0,1-10.628,7.674,115.746,115.746,0,0,0,15.491-1.263c10.045-1.651,19.6-5.435,29.056-9.193a7.967,7.967,0,0,0,2.959-1.706" transform="translate(-184.364 -196.547)"/>
            </g>
          </g>
        </g>
        <path id="Path_87" data-name="Path 87" d="M253.363,213.018a14.376,14.376,0,0,0-9.548,2.042,2.182,2.182,0,0,0-.309.228c1.3-6.422-.526-13.663-5.668-17.681a13.634,13.634,0,0,0-13.389-1.6c3.151,5.55,1.863,13.691-3.581,17.311,2.513,3.094,1.313,8-1.541,10.778s-6.865,3.958-10.716,4.986c-10.1,2.7-21.421,4.891-30.532-.224a10.806,10.806,0,0,1-10.981,4.453c-1.861-.4-3.734-1.308-5.578-.843-1.381.347-2.454,1.4-3.695,2.1a7.862,7.862,0,0,1-9.632-1.822c-.044,3.345-3.646,5.889-6.977,5.577s-6.129-2.829-7.694-5.787-2.107-6.331-2.628-9.636c-5.634,1.916-11.788-2.874-13.463-8.585-1.323-4.506.61-9.167,1.183-13.448a17.553,17.553,0,0,0-7.959,8.67,17.742,17.742,0,0,0,3.81,18.816,3.974,3.974,0,0,0,1.27.893,7.08,7.08,0,0,0-6.484,5.524,6.688,6.688,0,0,0-6.329.942c-1.7,1.448-1.45,4.029.048,5.68a4.651,4.651,0,0,0-5.618,2,6.076,6.076,0,0,0,.276,6.191,4.943,4.943,0,0,0,1.806,1.771,5.134,5.134,0,0,0,4.956-.432,15.107,15.107,0,0,0,3.7-3.627c.366,4.955,4.767,9.136,9.693,9.782a13.925,13.925,0,0,0,12.542-5.616,5.616,5.616,0,0,0,10.212.439,15.806,15.806,0,0,0,26.058-3.65c4.581-9.524,19.62-11.075,30.163-11.805s21.2-.1,31.633-1.81c10.044-1.651,19.595-5.435,29.056-9.193a7.978,7.978,0,0,0,2.959-1.706c1.247-1.316.631-2.847.156-4.6a9.024,9.024,0,0,0-7.2-6.115" transform="translate(31.427 63.4)" fill="#3682c1"/>
        <path id="Path_88" data-name="Path 88" d="M148.739,212.573c-2.177-2.7-1.482-6.79.307-9.766,2.817-4.686,8.369-7.821,13.781-7.05s10.07,5.905,9.625,11.355a7.531,7.531,0,0,1,13.631,2.563c1.478-2.049,5-1.865,6.508.163a5.174,5.174,0,0,1-1.042,6.789,6.69,6.69,0,0,1-7.136.566,11.023,11.023,0,0,1-14.213-.213,11.393,11.393,0,0,1-6.747,6.965A23.1,23.1,0,0,1,153.6,225.3a13.034,13.034,0,0,1-5.7-1.247,5.84,5.84,0,0,1-3.075-4.506c-2.864,6.055-6.49-.628-6.127-4.284.592-5.958,6.556-7.018,10.045-2.686" transform="translate(45.099 63.628)" fill="#287faf"/>
        <path id="Path_89" data-name="Path 89" d="M295.184,243.623c.607-4.217,1.142-8.887-.709-12.488a7,7,0,0,0-5.545-3.988c-2.225-.142-4.5,1.808-5.9,3.96a12.6,12.6,0,0,0-3.273-9.615,7.793,7.793,0,0,0-8.308-1.941c-2.069.8-3.477,3.434-3.821,6.075a23.081,23.081,0,0,0-1.8-6.959c-1.026-2.094-2.734-3.806-4.712-4.027a4.87,4.87,0,0,0-4.98,3.866c-1.584-1.908-3.3-3.907-5.488-4.38s-4.966,3.528-4.879,6.266a35.836,35.836,0,0,0-4.451-7.005c-1.781-2.006-4.072-3.481-6.491-3.464-1.932.013-4.375.969-4.564,3.345-1.874-2.3-3.882-4.687-6.455-5.444s-5.671,1.535-6.138,4.758a7.3,7.3,0,0,0-7.135-2.82,8.806,8.806,0,0,0-6,5.618c.59.04-.013,1.16.289.53a5.472,5.472,0,0,0-7.257-2.445c-2.494,1.357-3.8,4.922-3.253,8.2a26.144,26.144,0,0,0-4.359-7.5c-1.9-2.018-4.569-3.194-6.972-2.259-.974.379-2.245.58-1.549,1.494a8.915,8.915,0,0,0-4.877-2.228,4.807,4.807,0,0,0-3.447.769,3.648,3.648,0,0,0-1.679,3.336,12.176,12.176,0,0,0-10.892,3.182,18.827,18.827,0,0,0-5.55,12.024c-.119,1.372-.473,3.705.53,3.093a5.9,5.9,0,0,0-6.678,1.773c-1.655,2.139-1.6,6.194.461,7.661Z" transform="translate(48.024 67.542)" fill="#26779b"/>
        <path id="Path_90" data-name="Path 90" d="M294.475,230.265a7,7,0,0,0-5.545-3.989c-2.225-.14-4.5,1.809-5.9,3.96a12.6,12.6,0,0,0-3.273-9.613,8.3,8.3,0,0,0-3.575-2.111c-.045.09-.08.187-.127.274a14.344,14.344,0,0,1-7.393,6.093,12.7,12.7,0,0,1-7.564.883,7.19,7.19,0,0,1-5.429-4.958c-2.847,4.015-9.516,4.466-12.879.869-3.081,1.98-6.948,2.142-10.61,2.241l-7.319.2c-3.443.094-7.8-.423-8.838-3.708-2.861,3.651-9.421,3.267-11.834-.694-3.4,5.289-12.31,5.594-16.067.549-.8,2.49-3.695,3.9-6.292,3.578a9.916,9.916,0,0,1-6.413-4.149c-2.839-3.777-1.5-6.4-.6-9.336a4.1,4.1,0,0,0-1.715.721,3.646,3.646,0,0,0-1.679,3.336,12.178,12.178,0,0,0-10.892,3.181,18.83,18.83,0,0,0-5.55,12.024,9.517,9.517,0,0,0-.053,2.941,5.787,5.787,0,0,0-6.095,1.926c-1.655,2.14-1.6,6.194.461,7.661l145.889.61c.607-4.217,1.142-8.887-.709-12.488" transform="translate(48.024 68.413)" fill="#287faf"/>
        <path id="Path_91" data-name="Path 91" d="M175.057,225.128a11.631,11.631,0,0,1-10.021-10,9.96,9.96,0,0,1-.045-1.362,13.125,13.125,0,0,0-4.458,2.714,18.83,18.83,0,0,0-5.55,12.024,9.509,9.509,0,0,0-.053,2.939,5.791,5.791,0,0,0-6.095,1.927c-1.655,2.14-1.6,6.194.461,7.661l29.518.123c6.537-5.092-4.575-9.018-3.757-16.029" transform="translate(48.024 69.523)" fill="#3c96d3"/>
        <path id="Path_92" data-name="Path 92" d="M177.424,234a8.308,8.308,0,0,1,10.956-4.072,8.5,8.5,0,0,1,11.116-3.719,6.234,6.234,0,0,0,2.142.9c1.28.126,2.38-.82,3.407-1.594,3.668-2.763,9.758-3.452,12.253.4,1.873-3.565,7.707-4,10.093-.762,1.643-3.541,7.375-4.1,9.669-.938,3.1-3.026,9.108-1.89,10.887,2.057,3.1-2.087,8.067.345,8.321,4.07,3.037-1.9,7.31-.09,9.2,2.947s1.983,6.843,1.737,10.416c-2.335-1.264-5.179-.912-7.8-.488-14.579,2.36-28.989,5.895-43.7,7.2s-30.027.245-43.33-6.169c-3.348-1.613-8.627-3.609-5.325-7.735,1.38-1.725,10.611-3.1,10.37-2.517" transform="translate(53.99 72.247)" fill="#287faf"/>
        <path id="Path_93" data-name="Path 93" d="M265.471,232.714c-1.9-3.037-6.166-4.842-9.2-2.947-.254-3.725-5.224-6.157-8.321-4.07a5.77,5.77,0,0,0-1.259-1.768,5.048,5.048,0,0,1-1.509.838c2.059,2.624.712,6.845-2.116,8.613s-6.519,1.524-9.654.39a7.121,7.121,0,0,1-9.593-1.592,8.767,8.767,0,0,1-11.169-.423c-.7,1.976-3.2,2.815-5.248,2.367s-3.744-1.837-5.354-3.183c-.034,2.514-3.016,4.251-5.456,3.644s-4.159-2.893-4.881-5.3a6.124,6.124,0,0,1,.021-3.373,7.875,7.875,0,0,0-3.349,3.439,8.307,8.307,0,0,0-10.954,4.072c.241-.583-8.99.791-10.371,2.517-3.3,4.127,1.979,6.121,5.326,7.735,13.3,6.414,28.62,7.473,43.33,6.169,6.042-.535,12.032-1.455,18-2.507q12.694-3.021,25.268-6.515c2.865-.8,5.879-1.725,8.065-3.658a11.918,11.918,0,0,0-1.576-4.447" transform="translate(53.99 72.828)" fill="#3c96d3"/>
        <path id="Path_94" data-name="Path 94" d="M304.986,238.185a14.04,14.04,0,0,1-.624-2.945,3.382,3.382,0,0,0-1.413-2.342c-.762-.367-1.521-.016-1.413.986-1-2.1-2.195-4.389-4.117-4.956-1.891-.559-3.813.773-5.329,2.3a10.856,10.856,0,0,0-2.584,3.7c-.077.2-.144.407-.2.618-.955-3.517-2.4-6.788-5.065-8.2s-5.879-.427-8.348,1.533a10.953,10.953,0,0,0-4.34,8.326c-1.13-1.987-2.62-3.875-4.553-4.344a3.718,3.718,0,0,0-4.359,3.55c-.975-2.972-2.629-5.9-5.123-6.8s-6.242.941-6.123,4.152a8.865,8.865,0,0,0-10.361-5.294c-3.948,1-7.281,4.311-9.94,8.061a10.609,10.609,0,0,0-1.924,3.894,5.762,5.762,0,0,0-.1,1.627,9.548,9.548,0,0,0-5.514-4.636,8.283,8.283,0,0,0-8.485,2.931,4.814,4.814,0,0,0-6.728-3.378c-2.536,1.281-4.14,4.08-4.7,7.388a28.747,28.747,0,0,0-10.534-8.9,11.447,11.447,0,0,0-6.4-1.366,6.922,6.922,0,0,0-5.383,4.1,11.755,11.755,0,0,0-1.554-4.66,7.248,7.248,0,0,0-5.428-3.181c-2.055-.213-3.939,1.088-5.969,1.557a26.016,26.016,0,0,0-3.94-4.7,6.736,6.736,0,0,0-5.162-1.886,8.835,8.835,0,0,0-4.848,3.048,11.236,11.236,0,0,0-2.507,3.789c-1.374.387-3.354-.358-4.762-.384-2.664-.05-5.3,2.539-5.574,5.814s2.195,6.563,4.84,6.144c3.4,7.025,11.4,10.647,17.806,8.418,1.739-.6,3.65-2.13,3.736-4.249a11.121,11.121,0,0,0,7.816,10.168c4.115,1.158,8.407-.052,12.525-1.258a8.485,8.485,0,0,0,4.8,6.144,6.118,6.118,0,0,0,6.821-1.014,2.724,2.724,0,0,1,1.056-.722c.685-.159,1.313.439,1.867.954,3.892,3.618,9.045,4.673,13.916,4.135s9.556-2.527,14.185-4.5c2.771,3.354,7.429,4.925,11.206,3.725s7.1-3.936,10.341-6.625c1.695-1.406,3.5-2.986,4.14-5.376a12.178,12.178,0,0,0,16.942.561,12.253,12.253,0,0,0,13.3,4.836c4.766-1.242,8.935-4.926,12.253-9.344.712.522,1.865-.4,2.57-.95a6.1,6.1,0,0,0,1.618-2.307,18.883,18.883,0,0,0,1.672-8.134" transform="translate(46.038 73.264)" fill="#87bfff"/>
        <g id="Group_84" data-name="Group 84" transform="translate(187.594 305.033)" opacity="0.2" style="mix-blend-mode: overlay;isolation: isolate">
          <g id="Group_83" data-name="Group 83">
            <g id="Group_82" data-name="Group 82" clip-path="url(#clip-path-5)">
              <path id="Path_95" data-name="Path 95" d="M301.7,247.032a6.085,6.085,0,0,0,1.618-2.306,18.874,18.874,0,0,0,1.672-8.136,14.022,14.022,0,0,1-.624-2.945c-.027-.115-.068-.231-.1-.346a18.418,18.418,0,0,1-4.44,5.742c-2.111,1.806-4.875,3.2-7.6,2.65a6.8,6.8,0,0,0-2.525-.363,5.21,5.21,0,0,0-2.509,1.846,13.9,13.9,0,0,1-18.716.455c-3.055,4.666-11.259,4.291-13.875-.633-.388,2.9-1.174,5.926-3.264,7.977s-5.823,2.649-7.893.578c-2.881,4.409-10.779,3.729-12.867-1.107a9.251,9.251,0,0,1-17.062.73,14.128,14.128,0,0,1-22.221-4.182,9,9,0,0,1-15.6-2.67,9.271,9.271,0,0,1-12.14-3.354,9.594,9.594,0,0,1-11.272-2.66c-1.331-1.688-1.236-4.809-1.157-7.649-1.276.036-2.815-.462-3.97-.484-2.664-.05-5.3,2.539-5.575,5.814s2.195,6.561,4.84,6.144c3.4,7.025,11.4,10.646,17.807,8.418,1.739-.606,3.65-2.13,3.734-4.25a11.122,11.122,0,0,0,7.818,10.17c4.114,1.158,8.407-.052,12.525-1.259a8.485,8.485,0,0,0,4.8,6.144,6.116,6.116,0,0,0,6.82-1.012,2.719,2.719,0,0,1,1.056-.722c.686-.16,1.313.437,1.869.954,3.891,3.618,9.043,4.673,13.915,4.135s9.556-2.529,14.185-4.5c2.771,3.353,7.431,4.925,11.206,3.725s7.1-3.936,10.341-6.625c1.695-1.407,3.5-2.986,4.141-5.378a12.174,12.174,0,0,0,16.94.561,12.258,12.258,0,0,0,13.305,4.837c4.766-1.242,8.933-4.927,12.253-9.345.71.523,1.863-.4,2.568-.95" transform="translate(-141.556 -230.174)"/>
            </g>
          </g>
        </g>
        <path id="Path_96" data-name="Path 96" d="M213.965,233.75c-.026.028-.052.056-.077.085-2.326,2.584-3.446,6.843-1.365,9.865,4.646,6.749,19.525-3.794,14.354-10.547-3.143-4.1-9.762-2.806-12.912.6" transform="translate(68.762 74.994)" fill="#65a8ea"/>
        <path id="Path_97" data-name="Path 97" d="M219.114,240.535l.205-.16c-.027.015-.05.029-.074.044l-.131.117" transform="translate(71.262 78.176)" fill="#603526"/>
        <path id="Path_98" data-name="Path 98" d="M226.993,233.809a3.985,3.985,0,0,0-.217,5,3.889,3.889,0,0,0,5.529,1.276,4.441,4.441,0,0,0,.555-6.529,4.059,4.059,0,0,0-5.867.254" transform="translate(73.501 75.589)" fill="#65a8ea"/>
        <path id="Path_99" data-name="Path 99" d="M253.021,232.262c-2.433-3.373-9.2-3.965-10.7,1.979-1.569,6.219,5.944,9.453,9.866,4.736,2.181-2.623,2.051-5.02.83-6.715" transform="translate(78.741 74.717)" fill="#65a8ea"/>
        <path id="Path_100" data-name="Path 100" d="M193.756,236.924a4.372,4.372,0,0,0-4.412,4.739,4.065,4.065,0,0,0,3.74,3.685,4.357,4.357,0,0,0,4.526-3.261,4.111,4.111,0,0,0-3.854-5.163" transform="translate(61.573 77.052)" fill="#65a8ea"/>
        <path id="Path_101" data-name="Path 101" d="M179.29,233.328a5.883,5.883,0,0,0-7.57,4.609,4.362,4.362,0,0,0,1.3,3.905c1.6,1.39,3.639.891,5.533.619l-.3.04c2.115-.4,4.039-1.615,4.4-3.96a4.84,4.84,0,0,0-3.361-5.213" transform="translate(55.833 75.798)" fill="#65a8ea"/>
        <path id="Path_102" data-name="Path 102" d="M183.412,239.29c-3.593,1.162-2.392,6.838,1.433,6.209,4.128-.68,2.49-7.478-1.433-6.209" transform="translate(58.951 77.772)" fill="#65a8ea"/>
        <path id="Path_103" data-name="Path 103" d="M204.784,242.383a2.933,2.933,0,0,0-4.3,1.255,3.125,3.125,0,0,0,1.346,4.121c3.525,1.977,6.319-3.553,2.955-5.376" transform="translate(65.101 78.679)" fill="#65a8ea"/>
        <path id="Path_104" data-name="Path 104" d="M201.911,249.133c-2.97-1.774-5.785,2.644-2.658,4.253,2.71,1.4,5.41-2.609,2.658-4.253" transform="translate(64.357 80.89)" fill="#65a8ea"/>
        <path id="Path_105" data-name="Path 105" d="M217.722,246.182c-3.234-1.892-6.552,2.7-3.322,4.8,3.073,1.994,6.9-2.7,3.322-4.8" transform="translate(69.299 79.919)" fill="#65a8ea"/>
        <g id="Group_87" data-name="Group 87" transform="translate(72.405 79.201)" opacity="0.4">
          <g id="Group_86" data-name="Group 86">
            <g id="Group_85" data-name="Group 85" clip-path="url(#clip-path-6)">
              <path id="Path_106" data-name="Path 106" d="M184.283,124.587a64.823,64.823,0,1,1-64.823-64.823,64.823,64.823,0,0,1,64.823,64.823" transform="translate(-54.636 -59.764)" fill="#fff650"/>
            </g>
          </g>
        </g>
        <path id="Path_107" data-name="Path 107" d="M199.956,180.792s-7.538,8.01-3.188,13.692,13.919,5.084,13.919,5.084Z" transform="translate(63.554 58.798)" fill="#bfa800"/>
        <path id="Path_108" data-name="Path 108" d="M187.6,184.68c-3.264,4.352-3.729,9.748-2.874,14.97.587,3.578,1.945,6.922,2.89,10.4,1.69,6.222,1.841,12.346,2,18.729a.7.7,0,0,0,1.377.187c2.173-7.46,2.147-15.308,1.158-22.967-.542-4.2-1.476-8.371-1.421-12.623.115-8.906,6.983-13.423,14.18-7.941.208.159.423-.1.391-.3-1.478-9.3-13.6-5.92-17.7-.459" transform="translate(59.956 58.32)" fill="#e5d100"/>
        <path id="Path_109" data-name="Path 109" d="M199.1,180.792s-4.821,12.2,6.244,15.786,12.86-3.291,12.86-3.291-8.487.5-10.074-4.084-1.027-6.847-9.03-8.411" transform="translate(64.412 58.798)" fill="#ffe422"/>
        <path id="Path_110" data-name="Path 110" d="M192.131,182.287c-3.408-.109-5.337,2.7-6.264,5.741-1.309,4.286.519,8.413,1.356,12.582a.1.1,0,0,0,.192-.027,30.272,30.272,0,0,1,1.6-10.532c.86-2.645,2.364-4.935,3.283-7.551a.169.169,0,0,0-.162-.213" transform="translate(60.3 59.283)" fill="#ffe422"/>
        <path id="Path_111" data-name="Path 111" d="M187.889,197.876a.413.413,0,0,0-.557.146c-.941,1.406-.162,3.222.781,4.381a.452.452,0,0,0,.75-.2c.452-1.447.417-3.379-.974-4.329" transform="translate(60.787 64.336)" fill="#ffe422"/>
        <g id="Group_90" data-name="Group 90" opacity="0.2" style="mix-blend-mode: overlay;isolation: isolate">
          <g id="Group_89" data-name="Group 89">
            <g id="Group_88" data-name="Group 88" clip-path="url(#clip-path-7)">
              <path id="Path_112" data-name="Path 112" d="M330.1,239.976l-178.623-93.4,113.256,33.71a1.795,1.795,0,0,0,1.023-3.44l-102.819-30.6c47.169.844,96.471,1.785,133.049,2.506h.034a1.795,1.795,0,0,0,.036-3.589c-36.107-.712-92.78-1.808-145.98-2.745L146.3,141.29c-.07-.166-.139-.331-.209-.5l119.724-38.571a1.794,1.794,0,1,0-1.1-3.415L144.692,137.474q-.64-1.523-1.279-3.039L288.385,34.35a1.795,1.795,0,0,0-2.04-2.954L144.76,129.146l56.182-90.671a1.794,1.794,0,1,0-3.049-1.89L142.981,125.2,174,2.233a1.795,1.795,0,0,0-3.48-.879L140.7,119.565l-1.679-74.01a1.8,1.8,0,0,0-1.794-1.755h-.04a1.793,1.793,0,0,0-1.755,1.834l1.675,73.8C113.193,62.52,93.133,14.425,92.375,11.5a1.794,1.794,0,0,0-3.522.685c.451,2.444,23.8,58.354,48.478,117.047l.056,2.433c-31.988-34.694-57.48-62.459-58.761-64.2a1.794,1.794,0,0,0-2.937,2.061c1.149,1.645,28.451,31.372,60.164,65.767l-2.566,1.772-84.9-44.4a1.794,1.794,0,0,0-1.662,3.179l70.156,36.684L38.194,109.115a1.795,1.795,0,0,0-1.023,3.44l91.969,27.373-3,2.073c-60.946-1.036-111.944-1.736-113.325-1.2a1.794,1.794,0,0,0,1.043,3.423c3.147-.343,48.963.3,105.953,1.271L1.244,183.687a1.794,1.794,0,0,0,.551,3.5,1.772,1.772,0,0,0,.55-.087l109.617-35.315L12.439,220.5a1.794,1.794,0,1,0,2.04,2.953l109.327-75.478,6.332-2.04L65.766,249.818a1.794,1.794,0,1,0,3.049,1.891L133.84,146.766,107.717,250.325a1.8,1.8,0,0,0,1.3,2.18,1.86,1.86,0,0,0,.44.054A1.8,1.8,0,0,0,111.2,251.2l26.515-105.116,3.146,138.641a1.8,1.8,0,0,0,1.794,1.753h.04a1.794,1.794,0,0,0,1.755-1.834L141.3,145.86l1.1.02,2.479,1.3c22.478,53.4,44.236,104.847,49.056,116.238a1.8,1.8,0,0,0,1.653,1.1,1.814,1.814,0,0,0,.7-.142,1.8,1.8,0,0,0,.953-2.352c-12.945-30.6-30.121-71.268-46.819-110.929,39.88,43.213,81.462,88.134,84.761,91.7a1.794,1.794,0,1,0,2.632-2.438c-21.879-23.635-51.781-55.967-79.767-86.285l170.39,89.095a1.794,1.794,0,0,0,1.662-3.181" transform="translate(0 0)"/>
            </g>
          </g>
        </g>
        <path id="Path_113" data-name="Path 113" d="M169.476,121.67a52.934,52.934,0,1,1-52.934-52.934,52.933,52.933,0,0,1,52.934,52.934" transform="translate(20.687 22.355)" fill="#e5d100"/>
        <path id="Path_114" data-name="Path 114" d="M92.55,77.3c-5.142,3.1-6.239,12.314,0,15.106,8.431,3.773,17.808,3.2,26.185,7.048,7.992,3.67,9.365,9.813,12.611,17.28,3.886,8.941,19.957,6.849,21.471-2.805C157.4,84.74,116.441,62.913,92.55,77.3" transform="translate(28.708 23.662)" fill="#ffe422"/>
        <path id="Path_115" data-name="Path 115" d="M139.536,121.6c-2.548-4.235-9.361-6.932-13.744-3.6a31.31,31.31,0,0,0-7.59,8.872c-.659,1.054-1.475,1.989-2.152,3.028-1.57,2.412-1.85,4.85-2.142,7.619-.445,4.223,3.361,8.369,7.189,9.442,13.215,3.708,25.36-13.854,18.438-25.358" transform="translate(37.035 37.89)" fill="#ffe422"/>
        <g id="Group_93" data-name="Group 93" transform="translate(84.295 92.522)" opacity="0.2" style="mix-blend-mode: overlay;isolation: isolate">
          <g id="Group_92" data-name="Group 92">
            <g id="Group_91" data-name="Group 91" clip-path="url(#clip-path-8)">
              <path id="Path_116" data-name="Path 116" d="M155.377,157.274c-.68.24-1.35.5-2.041.71-20.006,6.031-43.4-1.678-55.9-18.422S84.206,98.2,95.68,80.736c2.6-3.952,6.692-7.18,8.65-10.92a52.931,52.931,0,1,0,51.048,87.458" transform="translate(-63.608 -69.816)"/>
            </g>
          </g>
        </g>
        <path id="Path_117" data-name="Path 117" d="M205.432,167.2s.5,6.219,6.286,6.294l1.126-4.95-2.383-1.507Z" transform="translate(66.812 54.324)" fill="#3682c1"/>
        <path id="Path_118" data-name="Path 118" d="M319.543,124.562s-23.267,2.154-44.044,31.254,31.861,11.027,31.861,11.027Z" transform="translate(88.021 40.511)" fill="#3682c1"/>
        <g id="Group_96" data-name="Group 96" transform="translate(360.536 167.462)" opacity="0.2" style="mix-blend-mode: overlay;isolation: isolate">
          <g id="Group_95" data-name="Group 95">
            <g id="Group_94" data-name="Group 94" clip-path="url(#clip-path-9)">
              <path id="Path_119" data-name="Path 119" d="M320.954,126.365s-23.267,2.153-44.044,31.254,31.861,11.027,31.861,11.027Z" transform="translate(-272.056 -126.365)"/>
            </g>
          </g>
        </g>
        <path id="Path_120" data-name="Path 120" d="M268.519,109.207c-24.857,31.009,24.934,115.975,24.934,115.975s50.213-12.966,82.438-64.509c0,0-82.517-82.474-107.372-51.465m9.933,53.87s-18.088-37.215-1.96-49.835c14.735-11.531,46,18.581,46,18.581-16.278,30.075-44.044,31.254-44.044,31.254" transform="translate(85.068 33.249)" fill="#87bfff"/>
        <g id="Group_99" data-name="Group 99" transform="translate(353.586 135.484)" opacity="0.2" style="mix-blend-mode: overlay;isolation: isolate">
          <g id="Group_98" data-name="Group 98">
            <g id="Group_97" data-name="Group 97" clip-path="url(#clip-path-10)">
              <path id="Path_121" data-name="Path 121" d="M266.813,109.207s19.967-11.613,45.341,8.5c21,16.651,43.862,49.628,34.743,75.506a153.109,153.109,0,0,0,27.288-32.545S291.669,78.2,266.813,109.207" transform="translate(-266.812 -102.235)"/>
            </g>
          </g>
        </g>
        <g id="Group_102" data-name="Group 102" transform="translate(346.643 163.252)" opacity="0.2" style="mix-blend-mode: overlay;isolation: isolate">
          <g id="Group_101" data-name="Group 101">
            <g id="Group_100" data-name="Group 100" clip-path="url(#clip-path-11)">
              <path id="Path_122" data-name="Path 122" d="M361.124,140.139C356.495,174.2,325.609,215,303.507,207.128,272.269,196,261.744,124.5,261.651,123.189c-1.9,37.658,31.8,95.179,31.8,95.179s50.213-12.966,82.438-64.509c0,0-5.791-5.789-14.766-13.72" transform="translate(-261.573 -123.188)"/>
            </g>
          </g>
        </g>
        <path id="Path_123" data-name="Path 123" d="M292.416,168.753c-45.311-24.26-86.984,1.287-86.984,1.287s4.17.705,6.284,6.294c48.108-18.258,99.995,30.617,99.995,30.617-2.519-33.988-19.3-38.2-19.3-38.2" transform="translate(66.812 51.481)" fill="#87bfff"/>
        <g id="Group_105" data-name="Group 105" transform="translate(272.244 209.775)" opacity="0.2" style="mix-blend-mode: overlay;isolation: isolate">
          <g id="Group_104" data-name="Group 104">
            <g id="Group_103" data-name="Group 103" clip-path="url(#clip-path-12)">
              <path id="Path_124" data-name="Path 124" d="M292.416,168.753c-45.311-24.26-86.984,1.287-86.984,1.287a5.7,5.7,0,0,1,1.246.432c18.768-9.282,43.1-14.143,61.4-8.2,27.113,8.8,28.31,22.638,28.31,22.638-61.109-27.628-84.671-8.574-84.671-8.574,48.108-18.258,99.995,30.617,99.995,30.617-2.519-33.988-19.3-38.2-19.3-38.2" transform="translate(-205.432 -158.294)"/>
            </g>
          </g>
        </g>
        <g id="Group_108" data-name="Group 108" transform="translate(379.237 186.596)" opacity="0.2" style="mix-blend-mode: overlay;isolation: isolate">
          <g id="Group_107" data-name="Group 107">
            <g id="Group_106" data-name="Group 106" clip-path="url(#clip-path-13)">
              <path id="Path_125" data-name="Path 125" d="M295.751,140.8a56.778,56.778,0,0,1-9.583,5.469c1.7,7.684,8.708,33.873,28.649,53.3,4.092-2.4,8.424-5.187,12.873-8.418-11.85-12.073-25.525-29.5-31.939-50.355" transform="translate(-286.168 -140.803)" fill="#fff"/>
            </g>
          </g>
        </g>
        <g id="Group_111" data-name="Group 111" transform="translate(352.095 146.492)" opacity="0.2" style="mix-blend-mode: overlay;isolation: isolate">
          <g id="Group_110" data-name="Group 110">
            <g id="Group_109" data-name="Group 109" clip-path="url(#clip-path-14)">
              <path id="Path_126" data-name="Path 126" d="M275.152,110.541c-11.995,4.571-10.615,21.31-6.578,36.315s8.539,13.52,8.539,13.52-18.088-37.215-1.96-49.835" transform="translate(-265.687 -110.541)"/>
            </g>
          </g>
        </g>
        <path id="Path_127" data-name="Path 127" d="M206.737,171.906s-20.7,6.089-15.284,9.828,15.284-9.828,15.284-9.828" transform="translate(61.972 55.908)" fill="#87bfff"/>
        <path id="Path_128" data-name="Path 128" d="M203,196.164s-1.635,16.225-6.284,15.6,6.284-15.6,6.284-15.6" transform="translate(63.603 63.798)" fill="#87bfff"/>
        <path id="Path_129" data-name="Path 129" d="M181.186,197.818s-15.051,9.938-10.115,17.546,10.115-17.546,10.115-17.546" transform="translate(55.314 64.336)" fill="#87bfff"/>
      </g>
    </g>
  </g>
</svg>
