<svg xmlns="http://www.w3.org/2000/svg" xmlns:xlink="http://www.w3.org/1999/xlink" width="240.139" height="353.829" viewBox="0 0 240.139 353.829">
  <defs>
    <clipPath id="clip-path">
      <rect id="Rectangle_129" data-name="Rectangle 129" width="59.777" height="45.839" transform="translate(330.448 292.848)" fill="none"/>
    </clipPath>
    <clipPath id="clip-path-2">
      <rect id="Rectangle_130" data-name="Rectangle 130" width="38.225" height="30.763" transform="translate(422.576 291.048)" fill="none"/>
    </clipPath>
    <clipPath id="clip-path-3">
      <rect id="Rectangle_131" data-name="Rectangle 131" width="129.501" height="27.469" transform="translate(377.624 326.359)" fill="none"/>
    </clipPath>
    <clipPath id="clip-path-4">
      <rect id="Rectangle_132" data-name="Rectangle 132" width="231.698" height="160.065" transform="translate(310.751 89.333)" fill="none"/>
    </clipPath>
    <clipPath id="clip-path-5">
      <rect id="Rectangle_133" data-name="Rectangle 133" width="142.201" height="172.67" transform="translate(358.357 46.052)" fill="none"/>
    </clipPath>
    <clipPath id="clip-path-6">
      <rect id="Rectangle_134" data-name="Rectangle 134" width="17.74" height="13.035" transform="translate(392.75 33.875)" fill="none"/>
    </clipPath>
    <clipPath id="clip-path-7">
      <rect id="Rectangle_135" data-name="Rectangle 135" width="5.422" height="2.92" transform="translate(385.063 33.105)" fill="none"/>
    </clipPath>
    <clipPath id="clip-path-8">
      <rect id="Rectangle_136" data-name="Rectangle 136" width="10.916" height="13.718" transform="translate(464.408 94.095)" fill="none"/>
    </clipPath>
    <clipPath id="clip-path-9">
      <rect id="Rectangle_137" data-name="Rectangle 137" width="2.36" height="4.316" transform="translate(473.891 87.991)" fill="none"/>
    </clipPath>
    <clipPath id="clip-path-10">
      <rect id="Rectangle_138" data-name="Rectangle 138" width="16.595" height="5.006" transform="translate(481.875 187.415)" fill="none"/>
    </clipPath>
    <clipPath id="clip-path-11">
      <rect id="Rectangle_139" data-name="Rectangle 139" width="3.524" height="3.341" transform="translate(499.687 183.518)" fill="none"/>
    </clipPath>
    <clipPath id="clip-path-12">
      <rect id="Rectangle_140" data-name="Rectangle 140" width="72.182" height="121.297" transform="translate(329.244 161.514)" fill="none"/>
    </clipPath>
    <clipPath id="clip-path-13">
      <rect id="Rectangle_141" data-name="Rectangle 141" width="97.295" height="113.226" transform="translate(414.302 141.537)" fill="none"/>
    </clipPath>
    <clipPath id="clip-path-14">
      <rect id="Rectangle_142" data-name="Rectangle 142" width="42.778" height="106.344" transform="translate(376.574 89.8)" fill="none"/>
    </clipPath>
    <clipPath id="clip-path-15">
      <rect id="Rectangle_143" data-name="Rectangle 143" width="30.519" height="77.782" transform="translate(430.305 54.266)" fill="none"/>
    </clipPath>
    <clipPath id="clip-path-16">
      <rect id="Rectangle_144" data-name="Rectangle 144" width="44.493" height="294.411" transform="translate(401.361 23.142)" fill="none"/>
    </clipPath>
    <clipPath id="clip-path-17">
      <rect id="Rectangle_145" data-name="Rectangle 145" width="26.091" height="29.975" transform="translate(399.131 128.456)" fill="none"/>
    </clipPath>
    <clipPath id="clip-path-18">
      <rect id="Rectangle_146" data-name="Rectangle 146" width="11.131" height="7.55" transform="translate(404.128 123.834)" fill="none"/>
    </clipPath>
    <clipPath id="clip-path-19">
      <rect id="Rectangle_147" data-name="Rectangle 147" width="2.427" height="2.736" transform="translate(416.322 131.977)" fill="none"/>
    </clipPath>
    <clipPath id="clip-path-20">
      <rect id="Rectangle_148" data-name="Rectangle 148" width="10.92" height="12.789" transform="translate(410.4 137.696)" fill="none"/>
    </clipPath>
    <clipPath id="clip-path-21">
      <rect id="Rectangle_149" data-name="Rectangle 149" width="11.506" height="29.993" transform="translate(367.015 44.604)" fill="none"/>
    </clipPath>
    <clipPath id="clip-path-22">
      <rect id="Rectangle_150" data-name="Rectangle 150" width="6.837" height="8.482" transform="translate(371.56 43.227)" fill="none"/>
    </clipPath>
    <clipPath id="clip-path-23">
      <rect id="Rectangle_151" data-name="Rectangle 151" width="1.768" height="2.337" transform="translate(377.925 52.832)" fill="none"/>
    </clipPath>
    <clipPath id="clip-path-24">
      <rect id="Rectangle_152" data-name="Rectangle 152" width="4.081" height="12.636" transform="translate(372.169 54.939)" fill="none"/>
    </clipPath>
    <clipPath id="clip-path-25">
      <rect id="Rectangle_153" data-name="Rectangle 153" width="11.505" height="29.993" transform="translate(391.37 193.035)" fill="none"/>
    </clipPath>
    <clipPath id="clip-path-26">
      <rect id="Rectangle_154" data-name="Rectangle 154" width="6.838" height="8.482" transform="translate(395.914 191.657)" fill="none"/>
    </clipPath>
    <clipPath id="clip-path-27">
      <rect id="Rectangle_155" data-name="Rectangle 155" width="1.768" height="2.337" transform="translate(402.28 201.263)" fill="none"/>
    </clipPath>
    <clipPath id="clip-path-28">
      <rect id="Rectangle_156" data-name="Rectangle 156" width="4.082" height="12.636" transform="translate(396.523 203.369)" fill="none"/>
    </clipPath>
    <clipPath id="clip-path-29">
      <rect id="Rectangle_157" data-name="Rectangle 157" width="11.131" height="56.003" transform="translate(420.954 104.409)" fill="none"/>
    </clipPath>
    <clipPath id="clip-path-30">
      <rect id="Rectangle_158" data-name="Rectangle 158" width="3.24" height="8.007" transform="translate(426.486 166.144)" fill="none"/>
    </clipPath>
    <clipPath id="clip-path-31">
      <rect id="Rectangle_159" data-name="Rectangle 159" width="20.147" height="24.484" transform="translate(422.718 53.569)" fill="none"/>
    </clipPath>
    <clipPath id="clip-path-32">
      <rect id="Rectangle_160" data-name="Rectangle 160" width="12.893" height="22.453" transform="translate(434.802 51.137)" fill="none"/>
    </clipPath>
    <clipPath id="clip-path-33">
      <rect id="Rectangle_161" data-name="Rectangle 161" width="22.934" height="16.875" transform="translate(510.65 126.322)" fill="none"/>
    </clipPath>
    <clipPath id="clip-path-34">
      <rect id="Rectangle_162" data-name="Rectangle 162" width="16.061" height="16.674" transform="translate(522.117 125.14)" fill="none"/>
    </clipPath>
    <clipPath id="clip-path-35">
      <rect id="Rectangle_163" data-name="Rectangle 163" width="22.545" height="17.016" transform="translate(356.528 98.891)" fill="none"/>
    </clipPath>
    <clipPath id="clip-path-36">
      <rect id="Rectangle_164" data-name="Rectangle 164" width="20.464" height="10.67" transform="translate(354.202 94.647)" fill="none"/>
    </clipPath>
    <clipPath id="clip-path-37">
      <rect id="Rectangle_165" data-name="Rectangle 165" width="9.772" height="23.977" transform="translate(382.419 85.399)" fill="none"/>
    </clipPath>
    <clipPath id="clip-path-38">
      <rect id="Rectangle_166" data-name="Rectangle 166" width="8.518" height="15.812" transform="translate(383.473 81.324)" fill="none"/>
    </clipPath>
    <clipPath id="clip-path-39">
      <rect id="Rectangle_167" data-name="Rectangle 167" width="24.125" height="9.398" transform="translate(330.347 184.328)" fill="none"/>
    </clipPath>
    <clipPath id="clip-path-40">
      <rect id="Rectangle_168" data-name="Rectangle 168" width="15.944" height="8.266" transform="translate(326.277 184.595)" fill="none"/>
    </clipPath>
    <clipPath id="clip-path-41">
      <rect id="Rectangle_169" data-name="Rectangle 169" width="17.623" height="3.607" transform="translate(358.85 152.736)" fill="none"/>
    </clipPath>
    <clipPath id="clip-path-42">
      <rect id="Rectangle_170" data-name="Rectangle 170" width="11.941" height="3.719" transform="translate(356.123 153.846)" fill="none"/>
    </clipPath>
    <clipPath id="clip-path-43">
      <rect id="Rectangle_171" data-name="Rectangle 171" width="10.339" height="32.834" transform="translate(320.379 127.875)" fill="none"/>
    </clipPath>
    <clipPath id="clip-path-44">
      <rect id="Rectangle_172" data-name="Rectangle 172" width="7.019" height="25.458" transform="translate(316.3 129.162)" fill="none"/>
    </clipPath>
    <clipPath id="clip-path-45">
      <rect id="Rectangle_173" data-name="Rectangle 173" width="2.715" height="2.52" transform="translate(324.017 155.751)" fill="none"/>
    </clipPath>
    <clipPath id="clip-path-46">
      <rect id="Rectangle_174" data-name="Rectangle 174" width="24.232" height="19.939" transform="translate(461.148 120.569)" fill="none"/>
    </clipPath>
    <clipPath id="clip-path-47">
      <rect id="Rectangle_175" data-name="Rectangle 175" width="18.737" height="14.654" transform="translate(464.149 117.669)" fill="none"/>
    </clipPath>
    <clipPath id="clip-path-48">
      <rect id="Rectangle_176" data-name="Rectangle 176" width="1.707" height="2.846" transform="translate(462.228 133.574)" fill="none"/>
    </clipPath>
    <clipPath id="clip-path-49">
      <rect id="Rectangle_177" data-name="Rectangle 177" width="30.155" height="6.726" transform="translate(432.121 222.309)" fill="none"/>
    </clipPath>
    <clipPath id="clip-path-50">
      <rect id="Rectangle_178" data-name="Rectangle 178" width="23.319" height="4.035" transform="translate(438.173 218.549)" fill="none"/>
    </clipPath>
    <clipPath id="clip-path-51">
      <rect id="Rectangle_179" data-name="Rectangle 179" width="2.398" height="2.302" transform="translate(434.619 223.007)" fill="none"/>
    </clipPath>
    <clipPath id="clip-path-52">
      <rect id="Rectangle_180" data-name="Rectangle 180" width="15.938" height="59.601" transform="translate(399.766 202.262)" fill="none"/>
    </clipPath>
    <clipPath id="clip-path-53">
      <rect id="Rectangle_181" data-name="Rectangle 181" width="4.602" height="7.628" transform="translate(403.261 268.617)" fill="none"/>
    </clipPath>
    <clipPath id="clip-path-54">
      <rect id="Rectangle_182" data-name="Rectangle 182" width="4.975" height="21.01" transform="translate(518.975 84.077)" fill="none"/>
    </clipPath>
    <clipPath id="clip-path-55">
      <rect id="Rectangle_183" data-name="Rectangle 183" width="4.975" height="21.01" transform="translate(487.359 141.403)" fill="none"/>
    </clipPath>
    <clipPath id="clip-path-56">
      <rect id="Rectangle_184" data-name="Rectangle 184" width="12.677" height="17.265" transform="translate(344.609 117.15)" fill="none"/>
    </clipPath>
    <clipPath id="clip-path-57">
      <rect id="Rectangle_185" data-name="Rectangle 185" width="4.222" height="21.152" transform="translate(372.031 180.305)" fill="none"/>
    </clipPath>
    <clipPath id="clip-path-58">
      <rect id="Rectangle_186" data-name="Rectangle 186" width="16.257" height="13.879" transform="translate(447.463 3.492)" fill="none"/>
    </clipPath>
    <clipPath id="clip-path-59">
      <rect id="Rectangle_187" data-name="Rectangle 187" width="15.761" height="14.809" transform="translate(399.521 92.904)" fill="none"/>
    </clipPath>
    <clipPath id="clip-path-60">
      <rect id="Rectangle_188" data-name="Rectangle 188" width="15.762" height="14.809" transform="translate(451.983 200.953)" fill="none"/>
    </clipPath>
    <clipPath id="clip-path-61">
      <rect id="Rectangle_189" data-name="Rectangle 189" width="15.761" height="14.809" transform="translate(372.461 193.061)" fill="none"/>
    </clipPath>
    <clipPath id="clip-path-62">
      <rect id="Rectangle_190" data-name="Rectangle 190" width="15.761" height="14.809" transform="translate(473.532 58.733)" fill="none"/>
    </clipPath>
    <clipPath id="clip-path-63">
      <rect id="Rectangle_191" data-name="Rectangle 191" width="20.276" height="23.716" transform="translate(493.057 130.782)" fill="none"/>
    </clipPath>
    <clipPath id="clip-path-64">
      <rect id="Rectangle_192" data-name="Rectangle 192" width="22.432" height="23.294" transform="translate(356.765 122.795)" fill="none"/>
    </clipPath>
    <clipPath id="clip-path-65">
      <rect id="Rectangle_193" data-name="Rectangle 193" width="21.789" height="23.042" transform="translate(405.043 13.719)" fill="none"/>
    </clipPath>
    <clipPath id="clip-path-66">
      <rect id="Rectangle_194" data-name="Rectangle 194" width="22.719" height="21.436" transform="translate(308.325 155.636)" fill="none"/>
    </clipPath>
  </defs>
  <g id="Group_584" data-name="Group 584" transform="translate(-992.565 -3530)">
    <path id="Path_451" data-name="Path 451" d="M460.343,308.531a7.151,7.151,0,0,0-5.7-4.845,11.388,11.388,0,0,0-7.565,1.618,1.567,1.567,0,0,0-.245.181c1.031-5.089-.417-10.827-4.491-14.01-4.348-3.4-11.673-2.7-14.485,2.047-.816-2.815-2.482-5.638-5.225-6.672s-6.5.693-6.6,3.622c-.19-4.2-5.321-7.327-9.141-5.564.482-2.476-2.189-4.665-4.711-4.627s-3.86,2.116-5.812,3.712c-1.736-4.9-3.77-10.185-8.216-12.885a12.116,12.116,0,0,0-13.221.749,13.038,13.038,0,0,0-4.807,12.461,5.4,5.4,0,0,0-7.241,4.154,4.616,4.616,0,0,0-8.938.3,11.619,11.619,0,0,0,.215,3.619,13.718,13.718,0,0,0-9.576,23.439,3.114,3.114,0,0,0,1.006.707,5.612,5.612,0,0,0-5.138,4.378,5.3,5.3,0,0,0-5.016.746,3.143,3.143,0,0,0,.038,4.5,3.684,3.684,0,0,0-4.451,1.583,4.816,4.816,0,0,0,.218,4.907,3.92,3.92,0,0,0,1.432,1.4,4.07,4.07,0,0,0,3.927-.342,12,12,0,0,0,2.93-2.874,8.918,8.918,0,0,0,7.68,7.751,11.037,11.037,0,0,0,9.938-4.451,4.45,4.45,0,0,0,8.092.347,12.525,12.525,0,0,0,20.648-2.891c3.63-7.547,15.546-8.775,23.9-9.355s16.8-.076,25.064-1.434c7.959-1.308,15.527-4.306,23.023-7.284a6.316,6.316,0,0,0,2.345-1.351c.988-1.044.5-2.256.124-3.643" transform="translate(689 3530)" fill="#3c96d3"/>
    <g id="Group_387" data-name="Group 387" transform="translate(689 3530)" opacity="0.2" style="mix-blend-mode: overlay;isolation: isolate">
      <g id="Group_386" data-name="Group 386">
        <g id="Group_385" data-name="Group 385" clip-path="url(#clip-path)">
          <path id="Path_452" data-name="Path 452" d="M385.885,331.6a11.7,11.7,0,0,1,4.34-4.723c-.162-.067-.326-.128-.485-.2a8.336,8.336,0,0,1-8.688,2.559,7.946,7.946,0,0,0-2.833-.694c-.977.067-1.982,1-1.658,1.921a7.465,7.465,0,0,1-7.994-3.892,3.1,3.1,0,0,1-4.895.739c-.8-.9-1.041-2.285-2.058-2.932-.961-.61-2.206-.318-3.342-.386-3.022-.183-5.3-3.139-5.692-6.141s.675-5.993,1.89-8.766c-3.925,1.182-7.7-3.24-7.526-7.336.153-3.732,2.477-5.8,3.96-8.9a13.682,13.682,0,0,0-6.323,22.987,3.157,3.157,0,0,0,1.006.707,5.609,5.609,0,0,0-5.138,4.377,5.3,5.3,0,0,0-5.016.747,3.144,3.144,0,0,0,.038,4.5,3.683,3.683,0,0,0-4.451,1.583,4.816,4.816,0,0,0,.218,4.906,3.935,3.935,0,0,0,1.432,1.4,4.069,4.069,0,0,0,3.928-.342,12.013,12.013,0,0,0,2.929-2.873,8.917,8.917,0,0,0,7.68,7.75,11.037,11.037,0,0,0,9.938-4.45,4.45,4.45,0,0,0,8.092.347,12.524,12.524,0,0,0,20.648-2.892"/>
        </g>
      </g>
    </g>
    <g id="Group_390" data-name="Group 390" transform="translate(689 3530)" opacity="0.2" style="mix-blend-mode: overlay;isolation: isolate">
      <g id="Group_389" data-name="Group 389">
        <g id="Group_388" data-name="Group 388" clip-path="url(#clip-path-2)">
          <path id="Path_453" data-name="Path 453" d="M460.219,312.174c.987-1.044.5-2.256.123-3.643a7.149,7.149,0,0,0-5.7-4.845,11.388,11.388,0,0,0-7.565,1.618,1.565,1.565,0,0,0-.245.181c1.032-5.089-.416-10.827-4.49-14.01-.2-.154-.408-.29-.616-.427.793,3.232-.774,7.151-3.964,8.367,2.6,3.112,4.085,7.448,2.823,11.3s-5.855,6.605-9.585,5.012a20,20,0,0,1-8.421,6.081,91.738,91.738,0,0,0,12.274-1c7.959-1.308,15.528-4.306,23.024-7.284a6.31,6.31,0,0,0,2.345-1.351"/>
        </g>
      </g>
    </g>
    <path id="Path_454" data-name="Path 454" d="M454.64,303.686a11.383,11.383,0,0,0-7.565,1.619,1.5,1.5,0,0,0-.245.18c1.03-5.089-.417-10.827-4.491-14.01a10.805,10.805,0,0,0-10.61-1.272c2.5,4.4,1.477,10.848-2.836,13.717,1.99,2.452,1.04,6.336-1.222,8.54s-5.44,3.137-8.491,3.951c-8,2.135-16.973,3.876-24.193-.177a8.562,8.562,0,0,1-8.7,3.527c-1.474-.317-2.958-1.036-4.42-.667a12.806,12.806,0,0,0-2.927,1.666,6.23,6.23,0,0,1-7.632-1.444c-.035,2.651-2.889,4.667-5.528,4.419s-4.858-2.242-6.1-4.585a24.16,24.16,0,0,1-2.083-7.635c-4.464,1.518-9.341-2.279-10.668-6.8-1.047-3.57.484-7.263.938-10.656a13.91,13.91,0,0,0-6.307,6.869,14.06,14.06,0,0,0,3.02,14.91,3.145,3.145,0,0,0,1.006.707,5.608,5.608,0,0,0-5.138,4.377,5.3,5.3,0,0,0-5.016.747,3.142,3.142,0,0,0,.038,4.5,3.686,3.686,0,0,0-4.452,1.584,4.816,4.816,0,0,0,.219,4.906,3.925,3.925,0,0,0,1.431,1.4,4.069,4.069,0,0,0,3.928-.342,12.017,12.017,0,0,0,2.93-2.873,8.916,8.916,0,0,0,7.68,7.75,11.039,11.039,0,0,0,9.938-4.45,4.45,4.45,0,0,0,8.092.347,12.523,12.523,0,0,0,20.647-2.892c3.63-7.547,15.547-8.775,23.9-9.354s16.8-.076,25.065-1.435c7.959-1.308,15.527-4.306,23.023-7.284a6.318,6.318,0,0,0,2.345-1.351c.988-1.043.5-2.256.124-3.643a7.151,7.151,0,0,0-5.7-4.845" transform="translate(689 3530)" fill="#3682c1"/>
    <path id="Path_455" data-name="Path 455" d="M382.573,303.514c-1.725-2.142-1.174-5.381.243-7.738,2.233-3.713,6.631-6.2,10.92-5.586s7.98,4.679,7.627,9a5.968,5.968,0,0,1,10.8,2.031,3.353,3.353,0,0,1,5.157.13,4.1,4.1,0,0,1-.825,5.379,5.3,5.3,0,0,1-5.655.448,8.735,8.735,0,0,1-11.262-.168,9.026,9.026,0,0,1-5.346,5.518,18.283,18.283,0,0,1-7.81,1.071,10.315,10.315,0,0,1-4.519-.988,4.625,4.625,0,0,1-2.436-3.569c-2.27,4.8-5.142-.5-4.854-3.395.469-4.721,5.194-5.561,7.959-2.129" transform="translate(689 3530)" fill="#287faf"/>
    <path id="Path_456" data-name="Path 456" d="M500.93,331.218c.481-3.341.9-7.042-.562-9.895a5.545,5.545,0,0,0-4.394-3.16c-1.762-.111-3.564,1.433-4.673,3.138a9.979,9.979,0,0,0-2.594-7.618,6.172,6.172,0,0,0-6.583-1.538c-1.639.632-2.755,2.721-3.027,4.813a18.331,18.331,0,0,0-1.43-5.514c-.814-1.659-2.167-3.016-3.735-3.191a3.859,3.859,0,0,0-3.946,3.063c-1.254-1.512-2.618-3.1-4.349-3.47s-3.933,2.795-3.865,4.964a28.46,28.46,0,0,0-3.527-5.551,7.158,7.158,0,0,0-5.144-2.745c-1.531.011-3.466.768-3.616,2.651-1.485-1.819-3.077-3.714-5.115-4.313s-4.494,1.215-4.864,3.769a5.783,5.783,0,0,0-5.654-2.234,6.977,6.977,0,0,0-4.756,4.45c.467.032-.01.92.229.421a4.334,4.334,0,0,0-5.75-1.937c-1.976,1.074-3.012,3.9-2.578,6.5a20.693,20.693,0,0,0-3.454-5.94c-1.5-1.6-3.621-2.531-5.524-1.79-.772.3-1.779.46-1.228,1.183a7.064,7.064,0,0,0-3.864-1.765,3.805,3.805,0,0,0-2.731.609,2.891,2.891,0,0,0-1.331,2.643,9.651,9.651,0,0,0-8.631,2.521,14.917,14.917,0,0,0-4.4,9.527c-.1,1.087-.374,2.937.421,2.452a4.677,4.677,0,0,0-5.292,1.4c-1.312,1.7-1.27,4.908.365,6.071Z" transform="translate(689 3530)" fill="#26779b"/>
    <path id="Path_457" data-name="Path 457" d="M500.368,321.324a5.54,5.54,0,0,0-4.394-3.16c-1.762-.112-3.564,1.432-4.673,3.137a9.981,9.981,0,0,0-2.594-7.617,6.577,6.577,0,0,0-2.833-1.674c-.036.072-.063.149-.1.219a11.368,11.368,0,0,1-5.859,4.828,10.071,10.071,0,0,1-5.994.7,5.7,5.7,0,0,1-4.3-3.929,6.9,6.9,0,0,1-10.2.69c-2.442,1.568-5.506,1.7-8.407,1.776l-5.8.159c-2.728.074-6.183-.336-7-2.939a6,6,0,0,1-9.376-.55c-2.7,4.192-9.755,4.433-12.732.435a4.646,4.646,0,0,1-4.985,2.835,7.853,7.853,0,0,1-5.082-3.288c-2.249-2.992-1.186-5.069-.475-7.4a3.274,3.274,0,0,0-1.359.571,2.892,2.892,0,0,0-1.33,2.644,9.648,9.648,0,0,0-8.631,2.521,14.914,14.914,0,0,0-4.4,9.527,7.554,7.554,0,0,0-.042,2.329,4.59,4.59,0,0,0-4.83,1.527c-1.311,1.7-1.269,4.908.366,6.07l115.6.483c.481-3.342.9-7.042-.562-9.895" transform="translate(689 3530)" fill="#287faf"/>
    <path id="Path_458" data-name="Path 458" d="M405.743,318.133a9.217,9.217,0,0,1-7.941-7.921,8.128,8.128,0,0,1-.036-1.08,10.409,10.409,0,0,0-3.532,2.15,14.925,14.925,0,0,0-4.4,9.528,7.554,7.554,0,0,0-.042,2.329,4.586,4.586,0,0,0-4.829,1.527c-1.311,1.7-1.27,4.908.366,6.07l23.389.1c5.18-4.035-3.625-7.146-2.977-12.7" transform="translate(689 3530)" fill="#3c96d3"/>
    <path id="Path_459" data-name="Path 459" d="M412.347,327.322a6.583,6.583,0,0,1,8.681-3.227,6.738,6.738,0,0,1,8.808-2.946,4.931,4.931,0,0,0,1.7.714c1.015.1,1.885-.649,2.7-1.263,2.906-2.188,7.731-2.735,9.709.319a4.977,4.977,0,0,1,8-.6c1.3-2.806,5.844-3.247,7.661-.743a5.624,5.624,0,0,1,8.627,1.629c2.454-1.653,6.392.273,6.593,3.225,2.407-1.5,5.792-.072,7.293,2.335s1.571,5.423,1.377,8.254c-1.851-1-4.1-.723-6.18-.387-11.552,1.871-22.971,4.671-34.627,5.705s-23.793.194-34.333-4.888c-2.653-1.279-6.837-2.86-4.22-6.13,1.093-1.367,8.408-2.456,8.217-1.994" transform="translate(689 3530)" fill="#287faf"/>
    <path id="Path_460" data-name="Path 460" d="M482.113,326.762c-1.5-2.407-4.886-3.837-7.293-2.335-.2-2.952-4.139-4.879-6.593-3.225a4.583,4.583,0,0,0-1-1.4,4.018,4.018,0,0,1-1.2.664c1.632,2.078.564,5.424-1.677,6.824s-5.165,1.208-7.649.308a5.644,5.644,0,0,1-7.6-1.26,6.947,6.947,0,0,1-8.85-.336c-.557,1.567-2.534,2.232-4.158,1.877a10.421,10.421,0,0,1-4.242-2.523c-.028,1.992-2.39,3.369-4.324,2.888a5.888,5.888,0,0,1-3.867-4.2,4.839,4.839,0,0,1,.017-2.672,6.238,6.238,0,0,0-2.654,2.725,6.582,6.582,0,0,0-8.68,3.227c.191-.463-7.124.626-8.218,1.993-2.616,3.271,1.568,4.852,4.22,6.13,10.541,5.082,22.677,5.922,34.334,4.888,4.787-.424,9.534-1.153,14.266-1.986q10.057-2.4,20.022-5.163c2.27-.631,4.657-1.367,6.391-2.9a9.457,9.457,0,0,0-1.249-3.524" transform="translate(689 3530)" fill="#3c96d3"/>
    <path id="Path_461" data-name="Path 461" d="M507.122,331.444a11.152,11.152,0,0,1-.495-2.333,2.676,2.676,0,0,0-1.119-1.855c-.6-.292-1.2-.013-1.119.781-.792-1.665-1.74-3.478-3.263-3.928-1.5-.443-3.021.613-4.223,1.819a8.609,8.609,0,0,0-2.047,2.935c-.061.158-.114.323-.162.49-.757-2.787-1.9-5.38-4.013-6.5s-4.658-.338-6.615,1.216a8.674,8.674,0,0,0-3.438,6.6c-.9-1.575-2.076-3.07-3.608-3.442a2.945,2.945,0,0,0-3.454,2.813c-.773-2.356-2.084-4.674-4.06-5.389s-4.946.745-4.851,3.289a7.025,7.025,0,0,0-8.21-4.194c-3.128.792-5.769,3.415-7.876,6.387a8.412,8.412,0,0,0-1.525,3.085,4.561,4.561,0,0,0-.08,1.29,7.567,7.567,0,0,0-4.369-3.674,6.566,6.566,0,0,0-6.724,2.324,3.813,3.813,0,0,0-5.331-2.677c-2.009,1.015-3.281,3.233-3.725,5.854a22.787,22.787,0,0,0-8.347-7.051,9.066,9.066,0,0,0-5.07-1.082,5.481,5.481,0,0,0-4.266,3.249,9.316,9.316,0,0,0-1.231-3.692,5.745,5.745,0,0,0-4.3-2.52c-1.628-.17-3.12.862-4.73,1.233a20.609,20.609,0,0,0-3.121-3.726,5.335,5.335,0,0,0-4.091-1.494,6.992,6.992,0,0,0-3.84,2.415,8.887,8.887,0,0,0-1.988,3c-1.088.307-2.657-.283-3.772-.3-2.111-.04-4.2,2.012-4.417,4.607s1.739,5.2,3.835,4.868c2.692,5.566,9.031,8.435,14.109,6.67,1.378-.479,2.892-1.688,2.96-3.368a8.813,8.813,0,0,0,6.194,8.059c3.259.917,6.661-.042,9.924-1a6.721,6.721,0,0,0,3.8,4.868,4.848,4.848,0,0,0,5.4-.8,2.152,2.152,0,0,1,.837-.573c.543-.126,1.04.348,1.479.757a13.694,13.694,0,0,0,11.027,3.276c3.859-.426,7.572-2,11.24-3.567a8.624,8.624,0,0,0,8.879,2.951c2.992-.95,5.626-3.118,8.194-5.249A8.677,8.677,0,0,0,468.8,343.6a9.647,9.647,0,0,0,13.424.444,9.712,9.712,0,0,0,10.542,3.833c3.776-.984,7.079-3.9,9.709-7.4.563.415,1.477-.32,2.035-.753a4.833,4.833,0,0,0,1.283-1.827,14.967,14.967,0,0,0,1.325-6.446" transform="translate(689 3530)" fill="#87bfff"/>
    <g id="Group_393" data-name="Group 393" transform="translate(689 3530)" opacity="0.2" style="mix-blend-mode: overlay;isolation: isolate">
      <g id="Group_392" data-name="Group 392">
        <g id="Group_391" data-name="Group 391" clip-path="url(#clip-path-3)">
          <path id="Path_462" data-name="Path 462" d="M504.515,339.717a4.831,4.831,0,0,0,1.282-1.827,14.967,14.967,0,0,0,1.326-6.446,11.09,11.09,0,0,1-.495-2.333c-.022-.093-.054-.183-.08-.275a14.6,14.6,0,0,1-3.518,4.551c-1.673,1.431-3.863,2.534-6.022,2.1a5.367,5.367,0,0,0-2-.287,4.127,4.127,0,0,0-1.988,1.462,11.008,11.008,0,0,1-14.83.36c-2.421,3.7-8.921,3.4-10.995-.5-.307,2.3-.93,4.7-2.586,6.321s-4.614,2.1-6.254.458c-2.284,3.493-8.542,2.955-10.2-.877A7.329,7.329,0,0,1,434.64,343a11.195,11.195,0,0,1-17.608-3.315,7.13,7.13,0,0,1-12.36-2.116,7.344,7.344,0,0,1-9.619-2.657,7.6,7.6,0,0,1-8.932-2.108c-1.054-1.338-.979-3.811-.917-6.061-1.011.028-2.23-.366-3.146-.383-2.111-.04-4.2,2.011-4.417,4.607s1.739,5.2,3.835,4.868c2.691,5.566,9.031,8.435,14.109,6.67,1.378-.479,2.892-1.688,2.96-3.368a8.811,8.811,0,0,0,6.194,8.058c3.259.918,6.661-.041,9.924-1a6.721,6.721,0,0,0,3.8,4.868,4.846,4.846,0,0,0,5.4-.8,2.167,2.167,0,0,1,.837-.573c.544-.126,1.04.348,1.48.756a13.69,13.69,0,0,0,11.026,3.277c3.86-.426,7.573-2,11.241-3.567a8.623,8.623,0,0,0,8.879,2.951c2.992-.95,5.626-3.118,8.194-5.249A8.682,8.682,0,0,0,468.8,343.6a9.646,9.646,0,0,0,13.423.444,9.713,9.713,0,0,0,10.543,3.833c3.776-.984,7.079-3.9,9.709-7.4.563.415,1.476-.32,2.035-.753"/>
        </g>
      </g>
    </g>
    <path id="Path_463" data-name="Path 463" d="M453.005,329.3c-.021.022-.041.045-.061.067-1.843,2.048-2.73,5.423-1.082,7.817,3.682,5.348,15.471-3.006,11.374-8.357-2.491-3.252-7.735-2.223-10.231.473" transform="translate(689 3530)" fill="#65a8ea"/>
    <path id="Path_464" data-name="Path 464" d="M459.066,337.2c.049-.037.1-.081.163-.127l-.059.034-.1.093" transform="translate(689 3530)" fill="#603526"/>
    <path id="Path_465" data-name="Path 465" d="M467.083,329.818a3.162,3.162,0,0,0-.173,3.961,3.084,3.084,0,0,0,4.382,1.012,3.522,3.522,0,0,0,.441-5.175,3.218,3.218,0,0,0-4.65.2" transform="translate(689 3530)" fill="#65a8ea"/>
    <path id="Path_466" data-name="Path 466" d="M491.86,327.9c-1.928-2.673-7.286-3.141-8.475,1.568-1.243,4.927,4.709,7.49,7.817,3.753,1.729-2.079,1.627-3.978.658-5.321" transform="translate(689 3530)" fill="#65a8ea"/>
    <path id="Path_467" data-name="Path 467" d="M431.3,333.445a3.464,3.464,0,0,0-3.5,3.755,3.223,3.223,0,0,0,2.964,2.921,3.454,3.454,0,0,0,3.586-2.585,3.258,3.258,0,0,0-3.054-4.091" transform="translate(689 3530)" fill="#65a8ea"/>
    <path id="Path_468" data-name="Path 468" d="M415.285,329.6a4.662,4.662,0,0,0-6,3.652,3.456,3.456,0,0,0,1.027,3.1c1.267,1.1,2.883.706,4.384.49l-.234.031a3.917,3.917,0,0,0,3.484-3.137,3.835,3.835,0,0,0-2.663-4.131" transform="translate(689 3530)" fill="#65a8ea"/>
    <path id="Path_469" data-name="Path 469" d="M421.022,335.891c-2.847.921-1.895,5.418,1.135,4.919,3.271-.538,1.973-5.925-1.135-4.919" transform="translate(689 3530)" fill="#65a8ea"/>
    <path id="Path_470" data-name="Path 470" d="M442.83,339.06a2.324,2.324,0,0,0-3.408.994,2.477,2.477,0,0,0,1.066,3.267c2.794,1.565,5.007-2.816,2.342-4.261" transform="translate(689 3530)" fill="#65a8ea"/>
    <path id="Path_471" data-name="Path 471" d="M439.964,346.162c-2.354-1.406-4.584,2.094-2.107,3.37,2.148,1.106,4.287-2.068,2.107-3.37" transform="translate(689 3530)" fill="#65a8ea"/>
    <path id="Path_472" data-name="Path 472" d="M456.409,343.053c-2.562-1.5-5.191,2.139-2.633,3.8,2.436,1.581,5.472-2.139,2.633-3.8" transform="translate(689 3530)" fill="#65a8ea"/>
    <path id="Path_473" data-name="Path 473" d="M542.042,121.1a20.025,20.025,0,0,0-5.86-18.488,11.942,11.942,0,0,0-23.68-3.085c-4.5-3.428-11.2-2.993-15.923.119a18.5,18.5,0,0,0-3.135,2.561,29.334,29.334,0,0,0,1.862-15.261c-1.495-8.606-9.777-16.446-18.328-14.662a42.775,42.775,0,0,0,7.557-27.523c-.258-3.4-1.01-6.94-3.26-9.5s-6.368-3.723-9.171-1.785a38.068,38.068,0,0,0-4.2-21.579c-1.839-3.471-4.439-6.819-8.137-8.144s-8.585.178-9.823,3.907a10.173,10.173,0,0,0-19.781,3.469c-1.226-5.384-8.559-7.369-13.534-4.971a20.616,20.616,0,0,0-10.648,10.593c.288-4.753-3.606-9.085-8.2-10.351s-9.572.038-13.7,2.406A29.143,29.143,0,0,0,370.44,39.232c-3.686-4.475-11.731-2.127-14.342,3.049s-1.21,11.477,1.13,16.781c-4.387-.572-8.6,2.557-10.63,6.488s-2.318,8.508-2.4,12.931a14.22,14.22,0,0,0-14.156,8.939c-2.092,5.619.618,13.906,5.48,17.413a10.855,10.855,0,0,0-2.776,8.7c-3.988,2.153-8.1,4.412-10.84,8.021s-3.718,8.976-1.049,12.638c-6.755-1.058-10.9,7.755-9.974,14.53a27.039,27.039,0,0,0,10.284,17.648c-3.251-1.256-7.087,1.046-8.422,4.266s-.662,6.952.739,10.143c4.509,10.267,16.936,16.331,27.8,13.567-4.474,2.948-3.172,10.445,1.1,13.684s10.036,3.439,15.395,3.5a9.987,9.987,0,1,0,12.2,15.766c-.528,6.8,4.328,11.611,10.883,13.486a15.411,15.411,0,0,0,17.354-7.469c.287,4.878,2.911,7.934,7.8,8.084s7.856-1.1,8.442-5.954c.377,6.963,6.6,12.825,13.507,13.786s13.985-2.425,18.481-7.755c3.064-3.633,4.937-9.369,1.8-12.935,3.1,2.925,8.119,1.062,11.881-.934,3.284-1.742,6.65-3.55,9.059-6.381s3.667-6.965,2.118-10.344c1.1,4.21,7.229,4.333,11.094,2.334,8.766-4.534,16.051-14.255,13.571-23.807,1.458,3.735,6.08,5.437,10.034,4.771s7.344-3.139,10.426-5.7c3.5-2.915,6.951-6.234,8.4-10.554s.234-9.85-3.8-11.969c6.844-1.9,13.419-6.341,15.832-13.02s-.839-15.456-7.687-17.335a20.024,20.024,0,0,0,12.878-14.5" transform="translate(689 3530)" fill="#e5d100"/>
    <g id="Group_396" data-name="Group 396" transform="translate(689 3530)" opacity="0.2" style="mix-blend-mode: overlay;isolation: isolate">
      <g id="Group_395" data-name="Group 395">
        <g id="Group_394" data-name="Group 394" clip-path="url(#clip-path-4)">
          <path id="Path_474" data-name="Path 474" d="M542.042,121.1a20.025,20.025,0,0,0-5.86-18.488,11.879,11.879,0,0,0-22.059-7.386c6.278,8.316,11.871,17.23,13.557,27.4,2.09,12.6-4.044,27.527-16.374,30.866,4.716,14.324-4.449,31.651-18.943,35.813-2.869.824-5.956,1.229-8.407,2.931-2.37,1.644-3.817,4.275-5.313,6.741-3.167,5.224-7.065,10.249-12.427,13.177s-12.455,3.327-17.335-.349a23.282,23.282,0,0,1-43.1,3.083c-8.049,5.284-19.517,1.3-25.64-6.129s-8.243-17.278-10.171-26.711c-7.807.179-14.548-6.207-17.327-13.5s-2.46-15.356-2.1-23.157c-17.031-.5-23.009-12.317-27.185-25.489a17.153,17.153,0,0,0-1.457,1.655c-2.74,3.61-3.718,8.976-1.049,12.638-6.755-1.058-10.9,7.755-9.974,14.53a27.039,27.039,0,0,0,10.284,17.648c-3.251-1.256-7.087,1.046-8.422,4.266s-.662,6.952.739,10.143c4.509,10.267,16.936,16.331,27.8,13.567-4.474,2.948-3.172,10.445,1.1,13.684s10.036,3.439,15.395,3.5a9.987,9.987,0,1,0,12.2,15.766c-.528,6.8,4.328,11.611,10.883,13.486a15.411,15.411,0,0,0,17.354-7.469c.287,4.878,2.911,7.934,7.8,8.084s7.856-1.1,8.442-5.954c.377,6.963,6.6,12.825,13.507,13.786s13.985-2.425,18.481-7.755c3.064-3.633,4.937-9.369,1.8-12.935,3.1,2.925,8.119,1.062,11.881-.934,3.284-1.742,6.65-3.55,9.059-6.381s3.667-6.965,2.118-10.344c1.1,4.21,7.229,4.333,11.094,2.334,8.766-4.534,16.051-14.255,13.571-23.807,1.458,3.735,6.08,5.437,10.034,4.771s7.344-3.139,10.426-5.7c3.5-2.915,6.951-6.234,8.4-10.554s.234-9.85-3.8-11.969c6.844-1.9,13.419-6.341,15.832-13.02s-.839-15.456-7.687-17.335a20.024,20.024,0,0,0,12.878-14.5"/>
        </g>
      </g>
    </g>
    <g id="Group_399" data-name="Group 399" transform="translate(689 3530)" opacity="0.2" style="mix-blend-mode: overlay;isolation: isolate">
      <g id="Group_398" data-name="Group 398">
        <g id="Group_397" data-name="Group 397" clip-path="url(#clip-path-5)">
          <path id="Path_475" data-name="Path 475" d="M376.018,198.451c-3.146-3.2-5.332-7.607-4.909-12.072s3.966-8.726,8.44-9.054c-6.678-.71-9.543-11.074-4.179-15.113-4.551-2.344-9.443-5.045-11.424-9.766s1.267-11.63,6.346-10.988c-5.491-5.644-10.69-12.21-11.776-20.009s3.493-16.847,11.268-18.1A23.049,23.049,0,0,1,390.417,68.6c-1.191-4,.535-8.437,3.452-11.419s6.849-4.742,10.788-6.116c2.284-.8,4.731-1.494,7.1-.982s4.548,2.637,4.3,5.043c1.2-6.726,9.444-10.2,16.121-8.752S444.2,52.656,449.2,57.308c4.3-3.349,10.953-2.39,15.016,1.246s5.814,9.31,5.879,14.763c.02,1.7-.079,3.51.775,4.981.882,1.519,2.577,2.328,4.088,3.227a24.329,24.329,0,0,1,10.433,27.395c9.932,2.549,15.028,16.114,9.23,24.572,2.986,4.056,5.768,8.6,5.933,13.639s-3.223,10.5-8.239,10.942a15.088,15.088,0,0,1-15,22.1c4.4,6.458-.119,15.907-7.07,19.477s-15.22,2.953-23,2.248a22.884,22.884,0,0,1-36.616,11.658c-9.691.97-10.964-2.077-17.86-6.745-5.34-3.615-11.819-3.345-16.75-8.357" fill="#fff"/>
        </g>
      </g>
    </g>
    <path id="Path_476" data-name="Path 476" d="M416.63,75.69s2.359-11.593-2.045-17.411-16.812-1.44-32.938-16.5-10.632-11.949-10.632-11.949l32.107,12.723L415.884,54.17s5.609,10.638.746,21.52" transform="translate(689 3530)" fill="#bfa800"/>
    <path id="Path_477" data-name="Path 477" d="M418.815,62.269a29.209,29.209,0,0,0-10.467-22.882c-11.549-9.987-37.333-9.554-37.333-9.554s18.09,15.437,35.75,21.189S416.63,75.69,416.63,75.69s3.244-5.162,2.185-13.421" transform="translate(689 3530)" fill="#ceb500"/>
    <g id="Group_402" data-name="Group 402" transform="translate(689 3530)" opacity="0.2" style="mix-blend-mode: overlay;isolation: isolate">
      <g id="Group_401" data-name="Group 401">
        <g id="Group_400" data-name="Group 400" clip-path="url(#clip-path-6)">
          <path id="Path_478" data-name="Path 478" d="M393.027,34.394c3.883-2.011,9.066,2.312,11.937,4.637.551.446,7.528,6.634,4.961,7.717s-5.954-3.529-7.634-4.791c-2.832-2.128-8-3.423-9.477-6.784a.583.583,0,0,1,.213-.779" fill="#fff"/>
        </g>
      </g>
    </g>
    <g id="Group_405" data-name="Group 405" transform="translate(689 3530)" opacity="0.2" style="mix-blend-mode: overlay;isolation: isolate">
      <g id="Group_404" data-name="Group 404">
        <g id="Group_403" data-name="Group 403" clip-path="url(#clip-path-7)">
          <path id="Path_479" data-name="Path 479" d="M385.336,33.672a2.868,2.868,0,0,1,2.619-.467,6.993,6.993,0,0,1,1.3.243,4.125,4.125,0,0,1,1.1.789.273.273,0,0,1,.092.369,3.315,3.315,0,0,1-.93,1.048,4.014,4.014,0,0,1-1.588.36c-1.011.069-2.3-.15-2.751-1.185a1,1,0,0,1,.162-1.157" fill="#fff"/>
        </g>
      </g>
    </g>
    <path id="Path_480" data-name="Path 480" d="M441.2,111.578s9.147,2.317,13.949-.971,1.782-13.34,14.387-25.618,9.921-8.019,9.921-8.019l-11.349,25.1-9.735,9.729s-8.688,4.066-17.173-.219" transform="translate(689 3530)" fill="#bfa800"/>
    <path id="Path_481" data-name="Path 481" d="M451.807,113.826a23.3,23.3,0,0,0,18.626-7.474c8.392-8.824,9.022-29.382,9.022-29.382S466.473,90.8,461.223,104.651s-20.026,6.927-20.026,6.927a17.231,17.231,0,0,0,10.61,2.248" transform="translate(689 3530)" fill="#ceb500"/>
    <g id="Group_408" data-name="Group 408" transform="translate(689 3530)" opacity="0.2" style="mix-blend-mode: overlay;isolation: isolate">
      <g id="Group_407" data-name="Group 407">
        <g id="Group_406" data-name="Group 406" clip-path="url(#clip-path-8)">
          <path id="Path_482" data-name="Path 482" d="M474.989,94.335c1.455,3.169-2.184,7.135-4.146,9.335-.376.421-5.569,5.746-6.335,3.66s3.036-4.61,4.106-5.9c1.8-2.176,3.029-6.245,5.762-7.294a.465.465,0,0,1,.613.2" fill="#fff"/>
        </g>
      </g>
    </g>
    <g id="Group_411" data-name="Group 411" transform="translate(689 3530)" opacity="0.2" style="mix-blend-mode: overlay;isolation: isolate">
      <g id="Group_410" data-name="Group 410">
        <g id="Group_409" data-name="Group 409" clip-path="url(#clip-path-9)">
          <path id="Path_483" data-name="Path 483" d="M475.855,88.235a2.29,2.29,0,0,1,.273,2.1,5.565,5.565,0,0,1-.242,1.022,3.276,3.276,0,0,1-.671.847.216.216,0,0,1-.3.059,2.645,2.645,0,0,1-.8-.78,3.176,3.176,0,0,1-.226-1.279,2.112,2.112,0,0,1,1.047-2.147.794.794,0,0,1,.916.173" fill="#fff"/>
        </g>
      </g>
    </g>
    <path id="Path_484" data-name="Path 484" d="M500.745,177.7c-17.588.53-22.157,9.978-27.918,9.156a10.16,10.16,0,0,1-3.981-1.611L468,186.32a22.474,22.474,0,0,0,6.4,3.589l13.75-.591,25.328-10.827s4.856-1.324-12.732-.795" transform="translate(689 3530)" fill="#bfa800"/>
    <path id="Path_485" data-name="Path 485" d="M481.331,186.571c-5.637,2.838-9.995,1.723-13.146-.486l-.419.534c.142.116.276.234.424.35a23.3,23.3,0,0,0,18.779,7.08c12.149-.831,26.508-15.557,26.508-15.557s-18.914,1.418-32.146,8.079" transform="translate(689 3530)" fill="#ceb500"/>
    <g id="Group_414" data-name="Group 414" transform="translate(689 3530)" opacity="0.2" style="mix-blend-mode: overlay;isolation: isolate">
      <g id="Group_413" data-name="Group 413">
        <g id="Group_412" data-name="Group 412" clip-path="url(#clip-path-10)">
          <path id="Path_486" data-name="Path 486" d="M498.45,188.271c-1.069,3.32-6.432,3.782-9.365,4.078-.562.057-7.988.471-7.143-1.584s5.354-1.346,7.014-1.574c2.8-.386,6.454-2.555,9.177-1.481a.465.465,0,0,1,.317.561" fill="#fff"/>
        </g>
      </g>
    </g>
    <g id="Group_417" data-name="Group 417" transform="translate(689 3530)" opacity="0.2" style="mix-blend-mode: overlay;isolation: isolate">
      <g id="Group_416" data-name="Group 416">
        <g id="Group_415" data-name="Group 415" clip-path="url(#clip-path-11)">
          <path id="Path_487" data-name="Path 487" d="M503.211,184.361c-.021.828-.612,1.279-1.221,1.736a5.541,5.541,0,0,1-.87.589,3.246,3.246,0,0,1-1.066.171.218.218,0,0,1-.26-.157,2.642,2.642,0,0,1-.062-1.115,3.191,3.191,0,0,1,.7-1.1,2.11,2.11,0,0,1,2.223-.874.8.8,0,0,1,.558.746" fill="#fff"/>
        </g>
      </g>
    </g>
    <path id="Path_488" data-name="Path 488" d="M403.261,241.928s-29.278-45.31-78.6-85.66c0,0,68.058,75.257,75.1,130.035Z" transform="translate(689 3530)" fill="#bfa800"/>
    <g id="Group_420" data-name="Group 420" transform="translate(689 3530)" opacity="0.2" style="mix-blend-mode: overlay;isolation: isolate">
      <g id="Group_419" data-name="Group 419">
        <g id="Group_418" data-name="Group 418" clip-path="url(#clip-path-12)">
          <path id="Path_489" data-name="Path 489" d="M399.232,282.811a7.808,7.808,0,0,0,.829-.243l1.365-17.329c-8.711-25.774-25.024-48.413-41.069-70.507a158.127,158.127,0,0,0-13.283-16.662,158.068,158.068,0,0,0-11.944-10.9c-1.568-1.337-3.644-3.573-5.886-5.657,15,17.541,62.141,75.639,69.988,121.3"/>
        </g>
      </g>
    </g>
    <path id="Path_490" data-name="Path 490" d="M449.427,190.414s-3.727-23.612,15.494-57c0,0-12,46.112-3.746,51.841Z" transform="translate(689 3530)" fill="#bfa800"/>
    <path id="Path_491" data-name="Path 491" d="M406.092,242.293c-7.583-1.352,28.6-46.1,67.3-68.68,41.479-24.194,46.617-76.336,46.617-76.336s8.386,45.242-44.366,88.492c-60.485,49.589-70.071,88.578-70.071,88.578Z" transform="translate(689 3530)" fill="#bfa800"/>
    <g id="Group_423" data-name="Group 423" transform="translate(689 3530)" opacity="0.2" style="mix-blend-mode: overlay;isolation: isolate">
      <g id="Group_422" data-name="Group 422">
        <g id="Group_421" data-name="Group 421" clip-path="url(#clip-path-13)">
          <path id="Path_492" data-name="Path 492" d="M475.646,185.768c18.516-15.18,29.493-30.6,35.951-44.232a136.31,136.31,0,0,1-32.166,36.308c-11.132,8.777-23.481,15.945-34.39,25-10.025,8.319-20.25,19.878-26.094,31.7a49.022,49.022,0,0,0-4.645,20.225c9.089-16.126,27.012-40.847,61.344-68.995"/>
        </g>
      </g>
    </g>
    <path id="Path_493" data-name="Path 493" d="M419.53,181.412s-47.769-63.056-40.174-127.146c0,0-18.488,93.034,39.688,142.652Z" transform="translate(689 3530)" fill="#bfa800"/>
    <g id="Group_426" data-name="Group 426" transform="translate(689 3530)" opacity="0.2" style="mix-blend-mode: overlay;isolation: isolate">
      <g id="Group_425" data-name="Group 425">
        <g id="Group_424" data-name="Group 424" clip-path="url(#clip-path-14)">
          <path id="Path_494" data-name="Path 494" d="M404.157,166.172c-11.276-19.366-22.772-39.341-26.042-61.51a114.253,114.253,0,0,1-1.1-14.843,3.379,3.379,0,0,1-.44-.019c.2,31.3,7.3,76.437,41.593,106.344q.461-.249.917-.508l.268-8.549c-6.273-5.77-10.852-13.457-15.195-20.915"/>
        </g>
      </g>
    </g>
    <path id="Path_495" data-name="Path 495" d="M432.514,112.539s22.744-24.874,28.309-58.273c0,0,.719,62.776-30.518,77.782Z" transform="translate(689 3530)" fill="#bfa800"/>
    <g id="Group_429" data-name="Group 429" transform="translate(689 3530)" opacity="0.2" style="mix-blend-mode: overlay;isolation: isolate">
      <g id="Group_428" data-name="Group 428">
        <g id="Group_427" data-name="Group 427" clip-path="url(#clip-path-15)">
          <path id="Path_496" data-name="Path 496" d="M430.3,132.048c31.237-15.006,30.518-77.782,30.518-77.782A101.808,101.808,0,0,1,456.9,69.848c-1.106,14.069-4.036,27.755-11.528,39.547a46,46,0,0,1-7.791,9.436c-1.744,1.583-4.424,2.876-6.293,4.555Z"/>
        </g>
      </g>
    </g>
    <path id="Path_497" data-name="Path 497" d="M386.94,150.235s-17.5-1.787-32.667-18.187c0,0,14.148,27.167,40.552,35.169Z" transform="translate(689 3530)" fill="#bfa800"/>
    <path id="Path_498" data-name="Path 498" d="M429.124,104.355c-16.1-34.167,4.045-63.128,4.654-63.99,1.963-2.8,4.128-5.659,6.457-8.415,3.473-6.367,8.079-12.092,12.45-18.054l.6-.823c-9.5,5.558-15.129,11.954-26.768,26.747-19.709,25.052-8.4,69.129-6.242,76A69.042,69.042,0,0,1,422.79,126.6c2.159,14.936,4.564,49.074-12.708,74.951,0,0-33.476,50.63.564,116.875l28.007-2.131s-29.1-54.908-6.8-112.405h-.006c8.552-12.944,14.765-62.046-2.727-99.53" transform="translate(689 3530)" fill="#bfa800"/>
    <g id="Group_432" data-name="Group 432" transform="translate(689 3530)" opacity="0.2" style="mix-blend-mode: overlay;isolation: isolate">
      <g id="Group_431" data-name="Group 431">
        <g id="Group_430" data-name="Group 430" clip-path="url(#clip-path-16)">
          <path id="Path_499" data-name="Path 499" d="M431.192,205.908a114.07,114.07,0,0,0,9.081-43.728c.273-16.775-1.982-33.84-7.759-49.641q-1.518-4.147-3.38-8.16l-.156.076.146-.1c-16.1-34.168,4.045-63.129,4.654-63.991,1.963-2.8,4.128-5.659,6.457-8.415a85.832,85.832,0,0,1,5.618-8.808c-.875.681-1.761,1.35-2.606,2.071A67.678,67.678,0,0,0,426.1,105.856s11.813,29.374,7.85,68.568a62.507,62.507,0,0,1-5.479,20.108c-4.33,9.291-11.05,26.509-11.365,44.418-.467,26.516,4.44,50.532-4.268,55.034-3.38,1.748-7.588,2.132-11.477,1.956q1.136,3.586,2.534,7.259c7.768,22.21,17.993,11.3,23.719,13.931l5.7-.434a56.945,56.945,0,0,0,2.5-6.564c.317-.955-1.96-4.868-2.339-5.883q-1.463-3.922-2.715-7.92a162.775,162.775,0,0,1-5.009-20.5,139.315,139.315,0,0,1,.648-53.806,92.964,92.964,0,0,1,4.793-16.115"/>
        </g>
      </g>
    </g>
    <path id="Path_500" data-name="Path 500" d="M425.022,158.431s-9.435-16.1-20.1-20.115-14.711-11.962-14.711-11.962,17.587-9.46,26.4,1.6c10.873,13.639,8.411,30.48,8.411,30.48" transform="translate(689 3530)" fill="#ceb500"/>
    <g id="Group_435" data-name="Group 435" transform="translate(689 3530)" opacity="0.2" style="mix-blend-mode: overlay;isolation: isolate">
      <g id="Group_434" data-name="Group 434">
        <g id="Group_433" data-name="Group 433" clip-path="url(#clip-path-17)">
          <path id="Path_501" data-name="Path 501" d="M421.046,142.117a24.087,24.087,0,0,0-4.709-7.2c-4.477-4.422-11.007-5.382-17.206-6.458,7.507,1.246,14.067,6.189,18.444,12.415a50.5,50.5,0,0,1,7.4,17.489c.026.042.042.071.042.071s.132-.918.2-2.485a52.951,52.951,0,0,0-4.175-13.829"/>
        </g>
      </g>
    </g>
    <g id="Group_438" data-name="Group 438" transform="translate(689 3530)" opacity="0.2" style="mix-blend-mode: overlay;isolation: isolate">
      <g id="Group_437" data-name="Group 437">
        <g id="Group_436" data-name="Group 436" clip-path="url(#clip-path-18)">
          <path id="Path_502" data-name="Path 502" d="M405.132,123.938a1.435,1.435,0,0,0-.339,2.592c1.631,1.125,3.56,1.681,5.245,2.737,1.457.912,2.75,2.123,4.548,2.116a.626.626,0,0,0,.6-.454c.9-4.458-6.512-7.729-10.051-6.991" fill="#fff"/>
        </g>
      </g>
    </g>
    <g id="Group_441" data-name="Group 441" transform="translate(689 3530)" opacity="0.2" style="mix-blend-mode: overlay;isolation: isolate">
      <g id="Group_440" data-name="Group 440">
        <g id="Group_439" data-name="Group 439" clip-path="url(#clip-path-19)">
          <path id="Path_503" data-name="Path 503" d="M418,132.249a1.792,1.792,0,0,0-.681-.264,1.069,1.069,0,0,0-.563.1c-.116.044-.106.122-.283.085a.086.086,0,0,0-.083.143c.122.142-.071.324-.071.535a2.49,2.49,0,0,0,.108.606,1.784,1.784,0,0,0,.884,1.132.949.949,0,0,0,1.383-.563,1.57,1.57,0,0,0-.694-1.778" fill="#fff"/>
        </g>
      </g>
    </g>
    <g id="Group_444" data-name="Group 444" transform="translate(689 3530)" opacity="0.2" style="mix-blend-mode: overlay;isolation: isolate">
      <g id="Group_443" data-name="Group 443">
        <g id="Group_442" data-name="Group 442" clip-path="url(#clip-path-20)">
          <path id="Path_504" data-name="Path 504" d="M416.415,141.8c-1.7-2.308-3.017-3.648-5.85-4.1-.131-.021-.24.165-.1.234,2.118,1.034,3.7,4.644,5.15,6.448,1.649,2.051,3.111,4.471,5.239,6.054.225.167.52-.109.454-.35-.8-2.913-3.115-5.86-4.895-8.281" fill="#fff"/>
        </g>
      </g>
    </g>
    <path id="Path_505" data-name="Path 505" d="M376.175,74.6s-1.683-14.676-8.123-21a22.237,22.237,0,0,1-6.826-13.371s15.763-1.224,18.61,9.6c3.511,13.357-3.661,24.766-3.661,24.766" transform="translate(689 3530)" fill="#ceb500"/>
    <g id="Group_447" data-name="Group 447" transform="translate(689 3530)" opacity="0.2" style="mix-blend-mode: overlay;isolation: isolate">
      <g id="Group_446" data-name="Group 446">
        <g id="Group_445" data-name="Group 445" clip-path="url(#clip-path-21)">
          <path id="Path_506" data-name="Path 506" d="M378.516,61.51a19.117,19.117,0,0,0-1.1-6.724c-1.828-4.634-6.25-7.419-10.4-10.182,5.039,3.3,8.208,8.984,9.385,14.893a39.976,39.976,0,0,1-.233,15.035l.008.065s.39-.622.94-1.736a41.93,41.93,0,0,0,1.4-11.351"/>
        </g>
      </g>
    </g>
    <g id="Group_450" data-name="Group 450" transform="translate(689 3530)" opacity="0.2" style="mix-blend-mode: overlay;isolation: isolate">
      <g id="Group_449" data-name="Group 449">
        <g id="Group_448" data-name="Group 448" clip-path="url(#clip-path-22)">
          <path id="Path_507" data-name="Path 507" d="M372.807,43.252c-1.018-.217-1.542,1.009-1.075,1.769.822,1.337,2.041,2.357,2.923,3.66.763,1.127,1.312,2.418,2.617,2.988a.5.5,0,0,0,.577-.138c2.082-2.939-2.243-7.681-5.042-8.279" fill="#fff"/>
        </g>
      </g>
    </g>
    <g id="Group_453" data-name="Group 453" transform="translate(689 3530)" opacity="0.2" style="mix-blend-mode: overlay;isolation: isolate">
      <g id="Group_452" data-name="Group 452">
        <g id="Group_451" data-name="Group 451" clip-path="url(#clip-path-23)">
          <path id="Path_508" data-name="Path 508" d="M379.469,53.389a1.41,1.41,0,0,0-.409-.409.843.843,0,0,0-.441-.1c-.1-.005-.115.055-.232-.029a.068.068,0,0,0-.106.077c.043.142-.155.212-.222.365a1.894,1.894,0,0,0-.116.473,1.415,1.415,0,0,0,.277,1.1.753.753,0,0,0,1.183.035,1.245,1.245,0,0,0,.066-1.51" fill="#fff"/>
        </g>
      </g>
    </g>
    <g id="Group_456" data-name="Group 456" transform="translate(689 3530)" opacity="0.2" style="mix-blend-mode: overlay;isolation: isolate">
      <g id="Group_455" data-name="Group 455">
        <g id="Group_454" data-name="Group 454" clip-path="url(#clip-path-24)">
          <path id="Path_509" data-name="Path 509" d="M375.262,59.8c-.491-2.214-1.018-3.607-2.923-4.845-.088-.057-.227.043-.147.138,1.2,1.427,1.194,4.548,1.667,6.318.539,2.013.823,4.234,1.858,6.061.109.193.411.087.441-.108.351-2.366-.381-5.241-.9-7.564" fill="#fff"/>
        </g>
      </g>
    </g>
    <path id="Path_510" data-name="Path 510" d="M400.53,223.028s-1.683-14.676-8.123-21a22.237,22.237,0,0,1-6.826-13.371s15.764-1.224,18.61,9.6c3.511,13.357-3.661,24.766-3.661,24.766" transform="translate(689 3530)" fill="#ceb500"/>
    <g id="Group_459" data-name="Group 459" transform="translate(689 3530)" opacity="0.2" style="mix-blend-mode: overlay;isolation: isolate">
      <g id="Group_458" data-name="Group 458">
        <g id="Group_457" data-name="Group 457" clip-path="url(#clip-path-25)">
          <path id="Path_511" data-name="Path 511" d="M402.87,209.941a19.117,19.117,0,0,0-1.1-6.724c-1.828-4.634-6.25-7.419-10.4-10.182,5.039,3.3,8.208,8.984,9.386,14.893a40,40,0,0,1-.233,15.035l.007.065s.39-.623.94-1.736a41.93,41.93,0,0,0,1.4-11.351"/>
        </g>
      </g>
    </g>
    <g id="Group_462" data-name="Group 462" transform="translate(689 3530)" opacity="0.2" style="mix-blend-mode: overlay;isolation: isolate">
      <g id="Group_461" data-name="Group 461">
        <g id="Group_460" data-name="Group 460" clip-path="url(#clip-path-26)">
          <path id="Path_512" data-name="Path 512" d="M397.161,191.683c-1.018-.217-1.542,1.009-1.075,1.769.822,1.337,2.041,2.356,2.923,3.66.763,1.127,1.312,2.418,2.617,2.988a.494.494,0,0,0,.577-.138c2.083-2.939-2.243-7.681-5.042-8.279" fill="#fff"/>
        </g>
      </g>
    </g>
    <g id="Group_465" data-name="Group 465" transform="translate(689 3530)" opacity="0.2" style="mix-blend-mode: overlay;isolation: isolate">
      <g id="Group_464" data-name="Group 464">
        <g id="Group_463" data-name="Group 463" clip-path="url(#clip-path-27)">
          <path id="Path_513" data-name="Path 513" d="M403.824,201.82a1.411,1.411,0,0,0-.409-.409.844.844,0,0,0-.441-.1c-.1-.005-.115.055-.232-.029a.068.068,0,0,0-.106.077c.043.142-.155.212-.222.365a1.937,1.937,0,0,0-.116.473,1.415,1.415,0,0,0,.277,1.1.753.753,0,0,0,1.183.035,1.245,1.245,0,0,0,.066-1.51" fill="#fff"/>
        </g>
      </g>
    </g>
    <g id="Group_468" data-name="Group 468" transform="translate(689 3530)" opacity="0.2" style="mix-blend-mode: overlay;isolation: isolate">
      <g id="Group_467" data-name="Group 467">
        <g id="Group_466" data-name="Group 466" clip-path="url(#clip-path-28)">
          <path id="Path_514" data-name="Path 514" d="M399.617,208.231c-.491-2.214-1.018-3.607-2.923-4.845-.088-.057-.227.043-.146.138,1.2,1.427,1.193,4.547,1.666,6.318.539,2.013.823,4.233,1.858,6.061.109.193.412.088.441-.108.351-2.367-.381-5.241-.9-7.564" fill="#fff"/>
        </g>
      </g>
    </g>
    <g id="Group_471" data-name="Group 471" transform="translate(689 3530)" opacity="0.2" style="mix-blend-mode: overlay;isolation: isolate">
      <g id="Group_470" data-name="Group 470">
        <g id="Group_469" data-name="Group 469" clip-path="url(#clip-path-29)">
          <path id="Path_515" data-name="Path 515" d="M430.3,132.048c-1.573-8.969-3.739-20.164-9.248-27.615-.029-.039-.108-.033-.1.027.417,4.228,1.927,8.283,2.906,12.406a153.548,153.548,0,0,1,2.861,15.667c1.182,9.083.545,18.46,2.441,27.4.143.677,1.091.586,1.281,0,2.856-8.81,1.437-18.9-.139-27.889" fill="#fff"/>
        </g>
      </g>
    </g>
    <g id="Group_474" data-name="Group 474" transform="translate(689 3530)" opacity="0.2" style="mix-blend-mode: overlay;isolation: isolate">
      <g id="Group_473" data-name="Group 473">
        <g id="Group_472" data-name="Group 472" clip-path="url(#clip-path-30)">
          <path id="Path_516" data-name="Path 516" d="M429.113,166.7c-.253-.3-.8-.75-1.236-.461-1.018.679-.932,2.148-1.061,3.245a16.07,16.07,0,0,0-.265,4.14.722.722,0,0,0,1.056.43,5.892,5.892,0,0,0,2.117-4.8,4.058,4.058,0,0,0-.611-2.557" fill="#fff"/>
        </g>
      </g>
    </g>
    <path id="Path_517" data-name="Path 517" d="M422.718,78s3.081-12.578,16.111-23.553,12.483-13.338,12.483-13.338S451.066,80.217,422.718,78" transform="translate(689 3530)" fill="#ceb500"/>
    <g id="Group_477" data-name="Group 477" transform="translate(689 3530)" opacity="0.2" style="mix-blend-mode: overlay;isolation: isolate">
      <g id="Group_476" data-name="Group 476">
        <g id="Group_475" data-name="Group 475" clip-path="url(#clip-path-31)">
          <path id="Path_518" data-name="Path 518" d="M423.959,74.434A28.35,28.35,0,0,0,422.718,78c.527.041,1.025.04,1.533.053a39.537,39.537,0,0,1,3.459-3.778c2.8-2.721,5.847-5.21,8.336-8.22a42.979,42.979,0,0,0,6.819-12.486c-5.289,7.761-13.419,13.342-18.906,20.865"/>
        </g>
      </g>
    </g>
    <g id="Group_480" data-name="Group 480" transform="translate(689 3530)" opacity="0.2" style="mix-blend-mode: overlay;isolation: isolate">
      <g id="Group_479" data-name="Group 479">
        <g id="Group_478" data-name="Group 478" clip-path="url(#clip-path-32)">
          <path id="Path_519" data-name="Path 519" d="M447.7,51.772a.716.716,0,0,0-1.349-.249c-1.727,3.8-2.444,7.9-4.411,11.644-1.957,3.724-4.924,6.572-7.1,10.109-.128.208.156.386.331.285,3.611-2.085,6.149-6.181,8.207-9.7s4.316-7.922,4.322-12.085" fill="#fff"/>
        </g>
      </g>
    </g>
    <path id="Path_520" data-name="Path 520" d="M510.65,142.8s5.52-10.145,19.254-16.642,13.8-8.659,13.8-8.659-9.115,33.666-33.054,25.3" transform="translate(689 3530)" fill="#ceb500"/>
    <g id="Group_483" data-name="Group 483" transform="translate(689 3530)" opacity="0.2" style="mix-blend-mode: overlay;isolation: isolate">
      <g id="Group_482" data-name="Group 482">
        <g id="Group_481" data-name="Group 481" clip-path="url(#clip-path-33)">
          <path id="Path_521" data-name="Path 521" d="M512.532,140.01a25.462,25.462,0,0,0-1.882,2.792c.445.156.875.268,1.31.4a35.391,35.391,0,0,1,3.842-2.471,95.718,95.718,0,0,0,9.06-5.19,38.292,38.292,0,0,0,8.722-9.214c-6.327,5.488-14.608,8.45-21.052,13.688"/>
        </g>
      </g>
    </g>
    <g id="Group_486" data-name="Group 486" transform="translate(689 3530)" opacity="0.2" style="mix-blend-mode: overlay;isolation: isolate">
      <g id="Group_485" data-name="Group 485">
        <g id="Group_484" data-name="Group 484" clip-path="url(#clip-path-34)">
          <path id="Path_522" data-name="Path 522" d="M538.158,125.872c.164-.619-.725-.988-1.106-.521-2.354,2.882-3.906,6.255-6.455,9.036-2.535,2.765-5.742,4.546-8.423,7.1-.158.15.047.368.22.321,3.589-.976,6.709-3.93,9.286-6.5s5.525-5.849,6.478-9.437" fill="#fff"/>
        </g>
      </g>
    </g>
    <path id="Path_523" data-name="Path 523" d="M379.067,115.907s-11.325-2.264-21.6-13.454S345.1,91.842,345.1,91.842s34.855-1.278,33.964,24.065" transform="translate(689 3530)" fill="#ceb500"/>
    <g id="Group_489" data-name="Group 489" transform="translate(689 3530)" opacity="0.2" style="mix-blend-mode: overlay;isolation: isolate">
      <g id="Group_488" data-name="Group 488">
        <g id="Group_487" data-name="Group 487" clip-path="url(#clip-path-35)">
          <path id="Path_524" data-name="Path 524" d="M375.842,114.937a25.188,25.188,0,0,0,3.225.969c.016-.471,0-.915-.011-1.368a34.952,34.952,0,0,1-3.5-2.937,96.1,96.1,0,0,0-7.644-7.113,38.286,38.286,0,0,0-11.386-5.6c7.118,4.415,12.4,11.445,19.315,16.046"/>
        </g>
      </g>
    </g>
    <g id="Group_492" data-name="Group 492" transform="translate(689 3530)" opacity="0.2" style="mix-blend-mode: overlay;isolation: isolate">
      <g id="Group_491" data-name="Group 491">
        <g id="Group_490" data-name="Group 490" clip-path="url(#clip-path-36)">
          <path id="Path_525" data-name="Path 525" d="M354.741,94.656a.639.639,0,0,0-.17,1.212c3.451,1.394,7.133,1.875,10.544,3.485,3.393,1.6,6.044,4.135,9.278,5.939.191.106.338-.155.242-.306-2-3.138-5.743-5.243-8.961-6.942s-7.224-3.541-10.933-3.388" fill="#fff"/>
        </g>
      </g>
    </g>
    <path id="Path_526" data-name="Path 526" d="M383.129,109.376s16.429-8.824,10.249-32.437c0,0-19.122,12.7-10.249,32.437" transform="translate(689 3530)" fill="#ceb500"/>
    <g id="Group_495" data-name="Group 495" transform="translate(689 3530)" opacity="0.2" style="mix-blend-mode: overlay;isolation: isolate">
      <g id="Group_494" data-name="Group 494">
        <g id="Group_493" data-name="Group 493" clip-path="url(#clip-path-37)">
          <path id="Path_527" data-name="Path 527" d="M383.25,109.307a11.45,11.45,0,0,0,1.858-2.358,46.41,46.41,0,0,0,7.083-21.55,87.077,87.077,0,0,1-7.05,18.057,21.365,21.365,0,0,1-2.723,4.19c.215.571.449,1.147.711,1.73l.121-.069"/>
        </g>
      </g>
    </g>
    <g id="Group_498" data-name="Group 498" transform="translate(689 3530)" opacity="0.2" style="mix-blend-mode: overlay;isolation: isolate">
      <g id="Group_497" data-name="Group 497">
        <g id="Group_496" data-name="Group 496" clip-path="url(#clip-path-38)">
          <path id="Path_528" data-name="Path 528" d="M384.3,96.906c2.179-5.24,3.817-11.237,7.689-15.539.021-.023-.008-.053-.034-.04-4.9,2.587-8.622,9.947-8.473,15.4a.437.437,0,0,0,.818.176" fill="#fff"/>
        </g>
      </g>
    </g>
    <path id="Path_529" data-name="Path 529" d="M354.472,192.987s-9.1-16.279-32.6-9.7c0,0,13.018,18.906,32.6,9.7" transform="translate(689 3530)" fill="#ceb500"/>
    <g id="Group_501" data-name="Group 501" transform="translate(689 3530)" opacity="0.2" style="mix-blend-mode: overlay;isolation: isolate">
      <g id="Group_500" data-name="Group 500">
        <g id="Group_499" data-name="Group 499" clip-path="url(#clip-path-39)">
          <path id="Path_530" data-name="Path 530" d="M354.4,192.868a11.393,11.393,0,0,0-2.389-1.819,46.414,46.414,0,0,0-21.666-6.721,87.047,87.047,0,0,1,18.173,6.747,21.428,21.428,0,0,1,4.235,2.651c.567-.224,1.139-.467,1.717-.739,0,0-.027-.048-.07-.119"/>
        </g>
      </g>
    </g>
    <g id="Group_504" data-name="Group 504" transform="translate(689 3530)" opacity="0.2" style="mix-blend-mode: overlay;isolation: isolate">
      <g id="Group_503" data-name="Group 503">
        <g id="Group_502" data-name="Group 502" clip-path="url(#clip-path-40)">
          <path id="Path_531" data-name="Path 531" d="M341.985,192.03c-5.276-2.091-11.3-3.628-15.665-7.427a.027.027,0,0,0-.04.034c2.669,4.851,10.09,8.454,15.542,8.213a.437.437,0,0,0,.163-.82" fill="#fff"/>
        </g>
      </g>
    </g>
    <path id="Path_532" data-name="Path 532" d="M376.473,155.6s-8.473-9.794-23.535-2.024c0,0,11.506,11.031,23.535,2.024" transform="translate(689 3530)" fill="#ceb500"/>
    <g id="Group_507" data-name="Group 507" transform="translate(689 3530)" opacity="0.2" style="mix-blend-mode: overlay;isolation: isolate">
      <g id="Group_506" data-name="Group 506">
        <g id="Group_505" data-name="Group 505" clip-path="url(#clip-path-41)">
          <path id="Path_533" data-name="Path 533" d="M376.408,155.528a7.924,7.924,0,0,0-1.88-.9,32.233,32.233,0,0,0-15.677-1.53,60.492,60.492,0,0,1,13.3,2.038,14.887,14.887,0,0,1,3.253,1.209c.354-.232.708-.478,1.064-.744l-.065-.071"/>
        </g>
      </g>
    </g>
    <g id="Group_510" data-name="Group 510" transform="translate(689 3530)" opacity="0.2" style="mix-blend-mode: overlay;isolation: isolate">
      <g id="Group_509" data-name="Group 509">
        <g id="Group_508" data-name="Group 508" clip-path="url(#clip-path-42)">
          <path id="Path_534" data-name="Path 534" d="M367.846,156.7c-3.882-.682-8.193-.881-11.7-2.853a.018.018,0,0,0-.022.029c2.495,2.925,8.048,4.334,11.723,3.4a.3.3,0,0,0-.005-.581" fill="#fff"/>
        </g>
      </g>
    </g>
    <path id="Path_535" data-name="Path 535" d="M330.5,160.614s6.5-35.467-19.746-38.254c0,0,5.021,4.008,4.085,14.576s6.472,25.132,15.661,23.678" transform="translate(689 3530)" fill="#ceb500"/>
    <g id="Group_513" data-name="Group 513" transform="translate(689 3530)" opacity="0.2" style="mix-blend-mode: overlay;isolation: isolate">
      <g id="Group_512" data-name="Group 512">
        <g id="Group_511" data-name="Group 511" clip-path="url(#clip-path-43)">
          <path id="Path_536" data-name="Path 536" d="M320.379,127.875c3.156,6.255,4.774,12.668,6.449,19.47,1.068,4.338,2.1,8.989,1.437,13.3a8.117,8.117,0,0,0,2.232-.034s.093-.512.21-1.4a49.383,49.383,0,0,0-10.328-31.343"/>
        </g>
      </g>
    </g>
    <g id="Group_516" data-name="Group 516" transform="translate(689 3530)" opacity="0.2" style="mix-blend-mode: overlay;isolation: isolate">
      <g id="Group_515" data-name="Group 515">
        <g id="Group_514" data-name="Group 514" clip-path="url(#clip-path-44)">
          <path id="Path_537" data-name="Path 537" d="M323.318,154.055c-.132-2.255-1.285-4.3-1.833-6.474-.577-2.288-.832-4.646-1.226-6.969-.691-4.07-1.573-7.977-3.912-11.44a.026.026,0,0,0-.046.021c1.223,4.78,1.173,9.671,1.775,14.536.437,3.528,1.01,8.9,4.454,10.812a.511.511,0,0,0,.788-.486" fill="#fff"/>
        </g>
      </g>
    </g>
    <g id="Group_519" data-name="Group 519" transform="translate(689 3530)" opacity="0.2" style="mix-blend-mode: overlay;isolation: isolate">
      <g id="Group_518" data-name="Group 518">
        <g id="Group_517" data-name="Group 517" clip-path="url(#clip-path-45)">
          <path id="Path_538" data-name="Path 538" d="M326.71,157.85c.219-1.1-1.281-1.952-2.172-2.094a.468.468,0,0,0-.509.534c.277.972,1.272,2.284,2.422,1.918a.445.445,0,0,0,.259-.358" fill="#fff"/>
        </g>
      </g>
    </g>
    <path id="Path_539" data-name="Path 539" d="M461.966,140.508s31.55-7.2,24.552-29.832c0,0-1.527,5.561-10.573,8.532s-18.432,14.237-13.979,21.3" transform="translate(689 3530)" fill="#ceb500"/>
    <g id="Group_522" data-name="Group 522" transform="translate(689 3530)" opacity="0.2" style="mix-blend-mode: overlay;isolation: isolate">
      <g id="Group_521" data-name="Group 521">
        <g id="Group_520" data-name="Group 520" clip-path="url(#clip-path-46)">
          <path id="Path_540" data-name="Path 540" d="M485.38,120.569c-4.04,4.818-8.755,8.423-13.771,12.214-3.2,2.417-6.669,4.916-10.461,5.9a7.28,7.28,0,0,0,.819,1.829s.455-.1,1.225-.322a44.322,44.322,0,0,0,22.188-19.617"/>
        </g>
      </g>
    </g>
    <g id="Group_525" data-name="Group 525" transform="translate(689 3530)" opacity="0.2" style="mix-blend-mode: overlay;isolation: isolate">
      <g id="Group_524" data-name="Group 524">
        <g id="Group_523" data-name="Group 523" clip-path="url(#clip-path-47)">
          <path id="Path_541" data-name="Path 541" d="M464.832,132.264c1.813-.907,3.092-2.583,4.689-3.8,1.683-1.286,3.537-2.332,5.313-3.48,3.111-2.011,6.021-4.122,8.048-7.277.013-.019-.015-.045-.033-.031-3.509,2.7-7.56,4.393-11.359,6.613-2.754,1.609-6.979,3.984-7.338,7.5a.458.458,0,0,0,.68.478" fill="#fff"/>
        </g>
      </g>
    </g>
    <g id="Group_528" data-name="Group 528" transform="translate(689 3530)" opacity="0.2" style="mix-blend-mode: overlay;isolation: isolate">
      <g id="Group_527" data-name="Group 527">
        <g id="Group_526" data-name="Group 526" clip-path="url(#clip-path-48)">
          <path id="Path_542" data-name="Path 542" d="M462.9,136.406c.984-.208,1.156-1.748.958-2.532a.42.42,0,0,0-.621-.231c-.7.573-1.433,1.858-.724,2.676a.4.4,0,0,0,.387.087" fill="#fff"/>
        </g>
      </g>
    </g>
    <path id="Path_543" data-name="Path 543" d="M432.132,228.4s31.085,9,35.936-14.19c0,0-4.032,4.123-13.384,2.336s-23.023,3.518-22.552,11.854" transform="translate(689 3530)" fill="#ceb500"/>
    <g id="Group_531" data-name="Group 531" transform="translate(689 3530)" opacity="0.2" style="mix-blend-mode: overlay;isolation: isolate">
      <g id="Group_530" data-name="Group 530">
        <g id="Group_529" data-name="Group 529" clip-path="url(#clip-path-49)">
          <path id="Path_544" data-name="Path 544" d="M462.276,222.309c-5.869,2.255-11.741,3.123-17.966,4.006-3.969.564-8.216,1.068-12.008.087a7.261,7.261,0,0,0-.17,2s.449.129,1.228.313a44.322,44.322,0,0,0,28.916-6.4"/>
        </g>
      </g>
    </g>
    <g id="Group_534" data-name="Group 534" transform="translate(689 3530)" opacity="0.2" style="mix-blend-mode: overlay;isolation: isolate">
      <g id="Group_533" data-name="Group 533">
        <g id="Group_532" data-name="Group 532" clip-path="url(#clip-path-50)">
          <path id="Path_545" data-name="Path 545" d="M438.635,222.578c2.026.085,3.957-.761,5.946-1.054,2.1-.309,4.223-.325,6.333-.468,3.7-.251,7.265-.687,10.567-2.463a.023.023,0,0,0-.014-.043c-4.379.662-8.741.177-13.14.277-3.19.072-8.036.1-10.055,3a.459.459,0,0,0,.363.748" fill="#fff"/>
        </g>
      </g>
    </g>
    <g id="Group_537" data-name="Group 537" transform="translate(689 3530)" opacity="0.2" style="mix-blend-mode: overlay;isolation: isolate">
      <g id="Group_536" data-name="Group 536">
        <g id="Group_535" data-name="Group 535" clip-path="url(#clip-path-51)">
          <path id="Path_546" data-name="Path 546" d="M434.941,225.265c.962.295,1.858-.969,2.065-1.75a.419.419,0,0,0-.431-.5c-.892.16-2.154.93-1.93,1.989a.4.4,0,0,0,.3.264" fill="#fff"/>
        </g>
      </g>
    </g>
    <g id="Group_540" data-name="Group 540" transform="translate(689 3530)" opacity="0.2" style="mix-blend-mode: overlay;isolation: isolate">
      <g id="Group_539" data-name="Group 539">
        <g id="Group_538" data-name="Group 538" clip-path="url(#clip-path-52)">
          <path id="Path_547" data-name="Path 547" d="M415.186,202.317a.079.079,0,0,0-.131-.035c-7.527,6.689-10.241,20.209-12.447,29.6-2.217,9.437-4.726,20.136-.733,29.328a1.335,1.335,0,0,0,2.3,0c4.33-9.413,4.343-20.857,6.614-30.944,1.974-8.767,6.433-18.974,4.4-27.949" fill="#fff"/>
        </g>
      </g>
    </g>
    <g id="Group_543" data-name="Group 543" transform="translate(689 3530)" opacity="0.2" style="mix-blend-mode: overlay;isolation: isolate">
      <g id="Group_542" data-name="Group 542">
        <g id="Group_541" data-name="Group 541" clip-path="url(#clip-path-53)">
          <path id="Path_548" data-name="Path 548" d="M407.649,272.386a7.013,7.013,0,0,0-1.982-3.413,1.349,1.349,0,0,0-2.223.587c-.641,2.427.434,5.546,2.739,6.6a.785.785,0,0,0,1.049-.275,4.1,4.1,0,0,0,.417-3.494" fill="#fff"/>
        </g>
      </g>
    </g>
    <path id="Path_549" data-name="Path 549" d="M518.955,106.024s-7.375-10.916,5.673-27.435c0,0,9.58,17.29-5.673,27.435" transform="translate(689 3530)" fill="#ceb500"/>
    <g id="Group_546" data-name="Group 546" transform="translate(689 3530)" opacity="0.2" style="mix-blend-mode: overlay;isolation: isolate">
      <g id="Group_545" data-name="Group 545">
        <g id="Group_544" data-name="Group 544" clip-path="url(#clip-path-54)">
          <path id="Path_550" data-name="Path 550" d="M523.571,84.077c-.3,3.777-2.149,7.227-3.366,10.815-.628,1.851-2.455,8.8.061,10.194.47-.359.91-.726,1.326-1.1,0-.933-.253-2.106-.271-2.609a22.417,22.417,0,0,1,.641-6.148c.917-3.705,2.789-7.523,1.609-11.153"/>
        </g>
      </g>
    </g>
    <path id="Path_551" data-name="Path 551" d="M487.339,163.35s-7.375-10.916,5.673-27.435c0,0,9.581,17.29-5.673,27.435" transform="translate(689 3530)" fill="#ceb500"/>
    <g id="Group_549" data-name="Group 549" transform="translate(689 3530)" opacity="0.2" style="mix-blend-mode: overlay;isolation: isolate">
      <g id="Group_548" data-name="Group 548">
        <g id="Group_547" data-name="Group 547" clip-path="url(#clip-path-55)">
          <path id="Path_552" data-name="Path 552" d="M491.955,141.4c-.3,3.777-2.149,7.227-3.366,10.815-.628,1.851-2.455,8.8.061,10.195.47-.36.91-.727,1.326-1.1,0-.933-.253-2.106-.271-2.608a22.418,22.418,0,0,1,.641-6.149c.917-3.705,2.79-7.523,1.609-11.153"/>
        </g>
      </g>
    </g>
    <path id="Path_553" data-name="Path 553" d="M356.861,135.936s-12.934-2.506-15.385-23.413c0,0,19,5.454,15.385,23.413" transform="translate(689 3530)" fill="#ceb500"/>
    <g id="Group_552" data-name="Group 552" transform="translate(689 3530)" opacity="0.2" style="mix-blend-mode: overlay;isolation: isolate">
      <g id="Group_551" data-name="Group 551">
        <g id="Group_550" data-name="Group 550" clip-path="url(#clip-path-56)">
          <path id="Path_554" data-name="Path 554" d="M344.609,117.15c2.455,2.886,3.59,6.63,5.266,10.028.864,1.753,4.488,7.962,7.251,7.167.078-.586.13-1.157.16-1.715-.663-.658-1.669-1.311-2.036-1.654a22.422,22.422,0,0,1-3.894-4.8c-1.971-3.269-3.346-7.292-6.747-9.025"/>
        </g>
      </g>
    </g>
    <path id="Path_555" data-name="Path 555" d="M372.252,202.461s-7.927-10.522,4.254-27.691c0,0,10.458,16.775-4.254,27.691" transform="translate(689 3530)" fill="#ceb500"/>
    <g id="Group_555" data-name="Group 555" transform="translate(689 3530)" opacity="0.2" style="mix-blend-mode: overlay;isolation: isolate">
      <g id="Group_554" data-name="Group 554">
        <g id="Group_553" data-name="Group 553" clip-path="url(#clip-path-57)">
          <path id="Path_556" data-name="Path 556" d="M375.733,180.3c-.109,3.787-1.774,7.328-2.8,10.974-.532,1.88-2,8.918.586,10.178q.675-.574,1.267-1.167c-.052-.931-.361-2.09-.4-2.591a22.384,22.384,0,0,1,.323-6.173c.726-3.748,2.4-7.657,1.033-11.221"/>
        </g>
      </g>
    </g>
    <path id="Path_557" data-name="Path 557" d="M445.973,17.2S447.439,4.112,468.084,0c0,0-3.921,19.375-22.111,17.2" transform="translate(689 3530)" fill="#ceb500"/>
    <g id="Group_558" data-name="Group 558" transform="translate(689 3530)" opacity="0.2" style="mix-blend-mode: overlay;isolation: isolate">
      <g id="Group_557" data-name="Group 557">
        <g id="Group_556" data-name="Group 556" clip-path="url(#clip-path-58)">
          <path id="Path_558" data-name="Path 558" d="M463.72,3.492c-2.681,2.677-6.323,4.108-9.576,6.049-1.679,1-7.578,5.109-6.565,7.8.59.031,1.163.037,1.722.022.6-.712,1.173-1.767,1.486-2.161a22.42,22.42,0,0,1,4.475-4.264c3.1-2.226,7-3.917,8.458-7.446"/>
        </g>
      </g>
    </g>
    <path id="Path_559" data-name="Path 559" d="M409.065,96.966s3.108-9.171,8.269-4.753c4.951,4.239-7.107,7.664-7.107,7.664s8.242-1.434,8.337,3.927-7.478,3.829-9.157-1.913c0,0,1.565,6.016-3.034,8.02s-4.044-6.207.924-9.371c0,0-10.2,5.251-10.134.165.071-6.044,9.263-2.348,9.263-2.348s-7.077-6.288-1.783-8.4c4.214-1.681,4.422,7.008,4.422,7.008" transform="translate(689 3530)" fill="#5ac8ff"/>
    <g id="Group_561" data-name="Group 561" transform="translate(689 3530)" opacity="0.2" style="mix-blend-mode: overlay;isolation: isolate">
      <g id="Group_560" data-name="Group 560">
        <g id="Group_559" data-name="Group 559" clip-path="url(#clip-path-59)">
          <path id="Path_560" data-name="Path 560" d="M412.634,93.874c.509-.282,1.2-.488,1.629-.1.6.54.068,1.522-.5,2.1a25.122,25.122,0,0,1-5.279,4.115c2.381.113,5.123.421,6.44,2.408.373.563.55,1.408.04,1.85-.61.528-1.534.006-2.155-.509l-3.816-3.166a7.805,7.805,0,0,1-1.662,6.44c-.412.489-1.138.948-1.637.547a1.175,1.175,0,0,1-.354-.713c-.445-2.248.963-4.4,2.3-6.265q-2.7.775-5.456,1.348a3.477,3.477,0,0,1-1.723.057,1.231,1.231,0,0,1-.926-1.293,1.52,1.52,0,0,1,.645-.858c2-1.5,4.786-1.177,7.259-.779a12.269,12.269,0,0,1-2.244-2.414,3.718,3.718,0,0,1-.831-2.117,1.594,1.594,0,0,1,1.336-1.62c1.074-.057,1.657,1.211,1.942,2.248.26.945.376,2.471,1.151,3.072,1.418-1.328,1.874-3.266,3.839-4.352"/>
        </g>
      </g>
    </g>
    <path id="Path_561" data-name="Path 561" d="M412.181,101.558c.738-1.249-.53-2.213-1.632-2.494a2.139,2.139,0,0,0-.018-1.59,1.372,1.372,0,0,0-1.341-.8c-1.136.022-1.69,1.263-1.659,2.227a1.376,1.376,0,0,0,.02.162,3.045,3.045,0,0,0-.3.019,2.308,2.308,0,0,0-1.08.461,2.7,2.7,0,0,0-.612.844,1.34,1.34,0,0,0,1.025,1.842,2.675,2.675,0,0,0,2-.463,1.848,1.848,0,0,0,.488-.49,2.958,2.958,0,0,0,1.249.888,1.529,1.529,0,0,0,1.86-.6" transform="translate(689 3530)" fill="#ead16a"/>
    <path id="Path_562" data-name="Path 562" d="M461.528,205.015s3.108-9.171,8.269-4.753c4.951,4.239-7.107,7.664-7.107,7.664s8.242-1.434,8.337,3.927-7.478,3.829-9.157-1.913c0,0,1.565,6.016-3.034,8.02s-4.044-6.207.924-9.371c0,0-10.2,5.251-10.135.165.072-6.044,9.264-2.348,9.264-2.348s-7.078-6.288-1.783-8.4c4.214-1.681,4.422,7.008,4.422,7.008" transform="translate(689 3530)" fill="#5ac8ff"/>
    <g id="Group_564" data-name="Group 564" transform="translate(689 3530)" opacity="0.2" style="mix-blend-mode: overlay;isolation: isolate">
      <g id="Group_563" data-name="Group 563">
        <g id="Group_562" data-name="Group 562" clip-path="url(#clip-path-60)">
          <path id="Path_563" data-name="Path 563" d="M465.1,201.923c.509-.282,1.2-.488,1.629-.1.6.54.068,1.522-.5,2.1a25.06,25.06,0,0,1-5.279,4.114c2.381.114,5.123.422,6.44,2.409.373.562.55,1.408.04,1.85-.61.528-1.534.006-2.155-.509l-3.816-3.166a7.8,7.8,0,0,1-1.662,6.44c-.412.489-1.138.948-1.637.547a1.169,1.169,0,0,1-.353-.713c-.446-2.249.962-4.4,2.3-6.265q-2.7.775-5.456,1.348a3.477,3.477,0,0,1-1.723.057,1.231,1.231,0,0,1-.926-1.293,1.525,1.525,0,0,1,.645-.858c2-1.5,4.786-1.177,7.259-.779a12.27,12.27,0,0,1-2.244-2.414,3.718,3.718,0,0,1-.831-2.117,1.594,1.594,0,0,1,1.336-1.62c1.074-.057,1.657,1.211,1.942,2.248.26.945.376,2.47,1.151,3.072,1.418-1.328,1.874-3.266,3.839-4.352"/>
        </g>
      </g>
    </g>
    <path id="Path_564" data-name="Path 564" d="M464.644,209.607c.738-1.249-.53-2.213-1.632-2.494a2.139,2.139,0,0,0-.018-1.59,1.372,1.372,0,0,0-1.341-.8c-1.136.022-1.69,1.263-1.659,2.227a1.383,1.383,0,0,0,.02.162,3.045,3.045,0,0,0-.3.019,2.3,2.3,0,0,0-1.079.461,2.688,2.688,0,0,0-.613.844,1.34,1.34,0,0,0,1.025,1.842,2.675,2.675,0,0,0,2-.463,1.833,1.833,0,0,0,.488-.49,2.958,2.958,0,0,0,1.249.888,1.529,1.529,0,0,0,1.86-.6" transform="translate(689 3530)" fill="#ead16a"/>
    <path id="Path_565" data-name="Path 565" d="M382.005,197.123s3.108-9.171,8.269-4.753c4.951,4.239-7.107,7.664-7.107,7.664s8.242-1.434,8.337,3.927-7.478,3.829-9.157-1.913c0,0,1.565,6.016-3.034,8.02s-4.044-6.207.924-9.371c0,0-10.2,5.251-10.134.165.071-6.044,9.263-2.348,9.263-2.348s-7.077-6.288-1.783-8.4c4.214-1.681,4.422,7.008,4.422,7.008" transform="translate(689 3530)" fill="#5ac8ff"/>
    <g id="Group_567" data-name="Group 567" transform="translate(689 3530)" opacity="0.2" style="mix-blend-mode: overlay;isolation: isolate">
      <g id="Group_566" data-name="Group 566">
        <g id="Group_565" data-name="Group 565" clip-path="url(#clip-path-61)">
          <path id="Path_566" data-name="Path 566" d="M385.574,194.031c.509-.282,1.2-.488,1.629-.1.6.54.068,1.522-.5,2.1a25.058,25.058,0,0,1-5.279,4.114c2.381.114,5.123.422,6.44,2.409.373.562.55,1.408.04,1.85-.61.528-1.534.006-2.155-.509l-3.816-3.166a7.805,7.805,0,0,1-1.662,6.44c-.412.489-1.138.948-1.637.547a1.176,1.176,0,0,1-.354-.713c-.444-2.249.963-4.4,2.3-6.265q-2.7.775-5.456,1.348a3.477,3.477,0,0,1-1.723.057,1.231,1.231,0,0,1-.926-1.293,1.525,1.525,0,0,1,.645-.858c2-1.5,4.786-1.177,7.259-.779a12.269,12.269,0,0,1-2.244-2.414,3.718,3.718,0,0,1-.831-2.117,1.594,1.594,0,0,1,1.336-1.62c1.074-.057,1.657,1.211,1.942,2.248.26.945.376,2.47,1.151,3.072,1.418-1.328,1.874-3.266,3.839-4.352"/>
        </g>
      </g>
    </g>
    <path id="Path_567" data-name="Path 567" d="M385.121,201.715c.738-1.249-.53-2.213-1.632-2.494a2.139,2.139,0,0,0-.018-1.59,1.372,1.372,0,0,0-1.341-.8c-1.136.022-1.69,1.263-1.659,2.227a1.377,1.377,0,0,0,.02.162,3.04,3.04,0,0,0-.3.019,2.3,2.3,0,0,0-1.079.461,2.688,2.688,0,0,0-.613.844,1.34,1.34,0,0,0,1.025,1.842,2.675,2.675,0,0,0,2-.463,1.833,1.833,0,0,0,.488-.49,2.964,2.964,0,0,0,1.249.888,1.529,1.529,0,0,0,1.86-.6" transform="translate(689 3530)" fill="#ead16a"/>
    <path id="Path_568" data-name="Path 568" d="M483.076,62.795s3.108-9.171,8.269-4.753c4.951,4.239-7.107,7.664-7.107,7.664s8.242-1.434,8.337,3.927-7.478,3.829-9.157-1.913c0,0,1.565,6.015-3.034,8.02s-4.044-6.207.924-9.371c0,0-10.2,5.251-10.134.165.071-6.044,9.263-2.348,9.263-2.348s-7.077-6.289-1.783-8.4c4.214-1.681,4.422,7.008,4.422,7.008" transform="translate(689 3530)" fill="#5ac8ff"/>
    <g id="Group_570" data-name="Group 570" transform="translate(689 3530)" opacity="0.2" style="mix-blend-mode: overlay;isolation: isolate">
      <g id="Group_569" data-name="Group 569">
        <g id="Group_568" data-name="Group 568" clip-path="url(#clip-path-62)">
          <path id="Path_569" data-name="Path 569" d="M486.645,59.7c.509-.282,1.2-.488,1.629-.1.6.54.068,1.522-.5,2.1a25.085,25.085,0,0,1-5.279,4.114c2.381.114,5.123.422,6.44,2.409.373.562.55,1.408.04,1.85-.61.528-1.534.006-2.155-.509L483.006,66.4a7.8,7.8,0,0,1-1.662,6.44c-.412.489-1.138.948-1.637.547a1.176,1.176,0,0,1-.354-.713c-.445-2.248.963-4.4,2.3-6.265q-2.7.775-5.456,1.348a3.477,3.477,0,0,1-1.723.057,1.231,1.231,0,0,1-.926-1.293,1.52,1.52,0,0,1,.645-.858c2-1.5,4.786-1.177,7.259-.779a12.3,12.3,0,0,1-2.244-2.414,3.718,3.718,0,0,1-.831-2.117,1.594,1.594,0,0,1,1.336-1.62c1.074-.057,1.657,1.211,1.942,2.248.26.945.376,2.47,1.151,3.072,1.418-1.328,1.874-3.266,3.839-4.352"/>
        </g>
      </g>
    </g>
    <path id="Path_570" data-name="Path 570" d="M486.193,67.387c.738-1.249-.53-2.213-1.632-2.494a2.139,2.139,0,0,0-.018-1.59,1.372,1.372,0,0,0-1.341-.8c-1.136.022-1.69,1.263-1.659,2.227a1.383,1.383,0,0,0,.02.162,3.043,3.043,0,0,0-.3.019,2.3,2.3,0,0,0-1.079.461,2.7,2.7,0,0,0-.613.844,1.34,1.34,0,0,0,1.025,1.842,2.675,2.675,0,0,0,2-.463,1.848,1.848,0,0,0,.488-.49,2.964,2.964,0,0,0,1.249.888,1.529,1.529,0,0,0,1.86-.6" transform="translate(689 3530)" fill="#ead16a"/>
    <path id="Path_571" data-name="Path 571" d="M500.37,139.559s-10.606-9.054-1.941-13.6c8.312-4.359,6.454,13.6,6.454,13.6s2.483-11.789,9.7-9.054,1.129,12.046-7.447,11.227c0,0,8.881,1.118,9.107,8.339s-10.461,2.1-12.041-6.24c0,0,1.58,16.44-5.19,13.644-8.045-3.323,1.805-13.644,1.805-13.644s-12.189,6.109-12.186-2.1c0-6.533,11.735-2.173,11.735-2.173" transform="translate(689 3530)" fill="#5ac8ff"/>
    <g id="Group_573" data-name="Group 573" transform="translate(689 3530)" opacity="0.2" style="mix-blend-mode: overlay;isolation: isolate">
      <g id="Group_572" data-name="Group 572">
        <g id="Group_571" data-name="Group 571" clip-path="url(#clip-path-63)">
          <path id="Path_572" data-name="Path 572" d="M498.14,133.135c-.105-.831-.014-1.86.737-2.231,1.044-.517,2.073.721,2.544,1.787a36.2,36.2,0,0,1,2.684,9.257c1.423-3.124,3.3-6.627,6.659-7.328.952-.2,2.177.016,2.5.935.38,1.1-.811,2.055-1.832,2.61l-6.271,3.414a11.235,11.235,0,0,1,7.725,5.661c.435.813.661,2.028-.142,2.482a1.7,1.7,0,0,1-1.142.092c-3.245-.606-5.376-3.638-7.151-6.421q-.4,4.027-1.111,8.017a5.006,5.006,0,0,1-.843,2.336,1.775,1.775,0,0,1-2.224.547,2.189,2.189,0,0,1-.8-1.32c-.943-3.482.981-7.03,2.833-10.125a17.674,17.674,0,0,1-4.426,1.713,5.371,5.371,0,0,1-3.276-.019,2.3,2.3,0,0,1-1.453-2.653c.5-1.466,2.5-1.57,4.044-1.4,1.4.158,3.505.817,4.724.1-1.019-2.606-3.368-4.25-3.772-7.458"/>
        </g>
      </g>
    </g>
    <path id="Path_573" data-name="Path 573" d="M508.175,137.842c-1.276-1.654-3.243-.473-4.207.852a3.084,3.084,0,0,0-2.137-.826,1.979,1.979,0,0,0-1.791,1.364c-.576,1.532.787,2.935,2.093,3.409a1.96,1.96,0,0,0,.228.059c-.048.139-.1.277-.138.417a3.327,3.327,0,0,0,.041,1.69,3.886,3.886,0,0,0,.8,1.271,1.93,1.93,0,0,0,3.01-.388,3.849,3.849,0,0,0,.451-2.929,2.644,2.644,0,0,0-.4-.913,4.27,4.27,0,0,0,1.855-1.2,2.2,2.2,0,0,0,.188-2.809" transform="translate(689 3530)" fill="#ead16a"/>
    <path id="Path_574" data-name="Path 574" d="M366.935,130.189s-1.572-13.856,7.862-11.262c9.051,2.488-4.563,14.343-4.563,14.343s9.86-6.922,13.271.006-7.4,9.573-13.105,3.122c0,0,5.727,6.879.963,12.31s-9.075-5.609-4.54-12.778c0,0-10.066,13.092-13.106,6.428-3.612-7.92,10.632-8.738,10.632-8.738s-13.078-3.856-7.473-9.853c4.461-4.773,10.059,6.422,10.059,6.422" transform="translate(689 3530)" fill="#5ac8ff"/>
    <g id="Group_576" data-name="Group 576" transform="translate(689 3530)" opacity="0.2" style="mix-blend-mode: overlay;isolation: isolate">
      <g id="Group_575" data-name="Group 575">
        <g id="Group_574" data-name="Group 574" clip-path="url(#clip-path-64)">
          <path id="Path_575" data-name="Path 575" d="M369.69,123.972c.49-.679,1.259-1.369,2.061-1.128,1.116.335,1.023,1.943.64,3.043a36.166,36.166,0,0,1-4.357,8.6c3.172-1.312,6.934-2.592,9.868-.81.831.505,1.58,1.5,1.186,2.387-.471,1.062-2,.948-3.12.657l-6.914-1.785a11.234,11.234,0,0,1,1.783,9.41c-.237.89-.9,1.933-1.8,1.717a1.7,1.7,0,0,1-.9-.713c-1.958-2.657-1.445-6.328-.843-9.573q-3.045,2.665-6.284,5.1a5.014,5.014,0,0,1-2.211,1.131,1.775,1.775,0,0,1-2-1.118,2.195,2.195,0,0,1,.314-1.513c1.688-3.188,5.515-4.468,8.982-5.465a17.7,17.7,0,0,1-4.4-1.77,5.367,5.367,0,0,1-2.381-2.25,2.3,2.3,0,0,1,.748-2.93c1.365-.732,2.9.562,3.91,1.739.917,1.072,2,2.989,3.383,3.3,1.034-2.6.44-5.4,2.334-8.025"/>
        </g>
      </g>
    </g>
    <path id="Path_576" data-name="Path 576" d="M373.811,134.262c.2-2.08-2.047-2.559-3.656-2.25a3.08,3.08,0,0,0-1-2.061,1.98,1.98,0,0,0-2.24-.226c-1.467.726-1.428,2.683-.8,3.92a1.981,1.981,0,0,0,.126.2c-.13.069-.266.131-.386.211a3.33,3.33,0,0,0-1.123,1.262,3.894,3.894,0,0,0-.281,1.477,1.93,1.93,0,0,0,2.465,1.771,3.85,3.85,0,0,0,2.328-1.833,2.636,2.636,0,0,0,.335-.937,4.264,4.264,0,0,0,2.172.391,2.2,2.2,0,0,0,2.055-1.924" transform="translate(689 3530)" fill="#ead16a"/>
    <path id="Path_577" data-name="Path 577" d="M420.987,26.5s13.724,2.475,8.529,10.766c-4.983,7.954-12.427-8.491-12.427-8.491s3.8,11.433-3.819,12.71-7.046-9.835.773-13.45c0,0-8.233,3.51-12.068-2.613s7.979-7.081,13.545-.679c0,0-9.65-13.4-2.392-14.4,8.622-1.184,5.315,12.694,5.315,12.694s7.45-11.419,11.583-4.328c3.292,5.644-9.039,7.791-9.039,7.791" transform="translate(689 3530)" fill="#5ac8ff"/>
    <g id="Group_579" data-name="Group 579" transform="translate(689 3530)" opacity="0.2" style="mix-blend-mode: overlay;isolation: isolate">
      <g id="Group_578" data-name="Group 578">
        <g id="Group_577" data-name="Group 577" clip-path="url(#clip-path-65)">
          <path id="Path_578" data-name="Path 578" d="M426.15,30.922c.51.665.949,1.6.488,2.3-.641.973-2.154.422-3.1-.261a36.131,36.131,0,0,1-6.983-6.643c.345,3.416.49,7.386-2.059,9.685-.722.651-1.889,1.084-2.627.451-.882-.757-.335-2.184.267-3.178l3.7-6.11a11.233,11.233,0,0,1-9.526-.995c-.784-.483-1.592-1.419-1.128-2.215a1.692,1.692,0,0,1,.941-.655c3.107-1.113,6.476.433,9.412,1.942q-1.68-3.684-3.081-7.485A5.009,5.009,0,0,1,412,15.314a1.775,1.775,0,0,1,1.646-1.594,2.189,2.189,0,0,1,1.358.736c2.569,2.532,2.7,6.566,2.655,10.173a17.677,17.677,0,0,1,2.961-3.71,5.356,5.356,0,0,1,2.838-1.634,2.3,2.3,0,0,1,2.592,1.558c.31,1.518-1.372,2.618-2.788,3.245-1.291.571-3.439,1.061-4.131,2.293,2.193,1.737,5.051,1.974,7.016,4.541"/>
        </g>
      </g>
    </g>
    <path id="Path_579" data-name="Path 579" d="M415.11,31.913c1.936.785,3.039-1.226,3.205-2.856a3.078,3.078,0,0,0,2.261-.364,1.977,1.977,0,0,0,.86-2.08c-.274-1.614-2.159-2.138-3.525-1.89a1.932,1.932,0,0,0-.227.064c-.029-.145-.05-.292-.092-.43a3.331,3.331,0,0,0-.886-1.439,3.908,3.908,0,0,0-1.334-.693,1.929,1.929,0,0,0-2.4,1.852,3.847,3.847,0,0,0,1.086,2.756,2.616,2.616,0,0,0,.8.59,4.273,4.273,0,0,0-1,1.969,2.2,2.2,0,0,0,1.253,2.521" transform="translate(689 3530)" fill="#ead16a"/>
    <path id="Path_580" data-name="Path 580" d="M316.889,169.076s-12.444,6.294-13.294-3.453c-.815-9.351,15.035-.711,15.035-.711s-9.919-6.837-4.611-12.445,11.549,3.605,7.486,11.2c0,0,4.456-7.763,11.206-5.186s-2.1,10.459-10.4,8.7c0,0,15.776,4.883,10.585,10.051-6.168,6.142-11.891-6.928-11.891-6.928s.934,13.6-6.637,10.434c-6.027-2.522,2.521-11.665,2.521-11.665" transform="translate(689 3530)" fill="#5ac8ff"/>
    <g id="Group_582" data-name="Group 582" transform="translate(689 3530)" opacity="0.2" style="mix-blend-mode: overlay;isolation: isolate">
      <g id="Group_581" data-name="Group 581">
        <g id="Group_580" data-name="Group 580" clip-path="url(#clip-path-66)">
          <path id="Path_581" data-name="Path 581" d="M310.1,168.655c-.808-.223-1.721-.7-1.774-1.54-.074-1.163,1.465-1.635,2.63-1.658a36.14,36.14,0,0,1,9.575,1.094c-2.333-2.518-4.841-5.6-4.192-8.97.184-.955.855-2,1.825-1.942,1.16.072,1.583,1.54,1.7,2.7q.366,3.552.731,7.1a11.237,11.237,0,0,1,8.2-4.945c.918-.087,2.127.174,2.236,1.089a1.694,1.694,0,0,1-.356,1.089c-1.81,2.76-5.43,3.557-8.682,4.121q3.56,1.927,6.968,4.117a5.019,5.019,0,0,1,1.83,1.679,1.774,1.774,0,0,1-.353,2.263,2.194,2.194,0,0,1-1.528.232c-3.576-.473-6.107-3.616-8.248-6.519a17.656,17.656,0,0,1-.128,4.744,5.357,5.357,0,0,1-1.28,3.015,2.3,2.3,0,0,1-3.008.318c-1.161-1.025-.483-2.916.271-4.27.686-1.233,2.1-2.919,1.915-4.32-2.8-.064-5.221,1.469-8.336.6"/>
        </g>
      </g>
    </g>
    <path id="Path_582" data-name="Path 582" d="M318.316,161.212c-2.018.54-1.687,2.809-.837,4.21a3.074,3.074,0,0,0-1.585,1.653,1.978,1.978,0,0,0,.567,2.179c1.191,1.122,3.011.4,3.952-.616a2.222,2.222,0,0,0,.143-.188c.11.1.215.2.331.288a3.326,3.326,0,0,0,1.575.614,3.9,3.9,0,0,0,1.482-.25,1.929,1.929,0,0,0,.8-2.927,3.849,3.849,0,0,0-2.528-1.545,2.636,2.636,0,0,0-.995.012,4.264,4.264,0,0,0-.389-2.173,2.2,2.2,0,0,0-2.519-1.257" transform="translate(689 3530)" fill="#ead16a"/>
  </g>
</svg>
