<svg id="Group_780" data-name="Group 780" xmlns="http://www.w3.org/2000/svg" xmlns:xlink="http://www.w3.org/1999/xlink" width="232.953" height="353.828" viewBox="0 0 232.953 353.828">
  <defs>
    <clipPath id="clip-path">
      <rect id="Rectangle_260" data-name="Rectangle 260" width="232.953" height="353.828" fill="none"/>
    </clipPath>
    <clipPath id="clip-path-3">
      <rect id="Rectangle_195" data-name="Rectangle 195" width="59.777" height="45.839" transform="translate(19.697 292.848)" fill="none"/>
    </clipPath>
    <clipPath id="clip-path-4">
      <rect id="Rectangle_196" data-name="Rectangle 196" width="38.225" height="30.763" transform="translate(111.825 291.048)" fill="none"/>
    </clipPath>
    <clipPath id="clip-path-5">
      <rect id="Rectangle_197" data-name="Rectangle 197" width="129.5" height="27.469" transform="translate(66.873 326.359)" fill="none"/>
    </clipPath>
    <clipPath id="clip-path-6">
      <rect id="Rectangle_198" data-name="Rectangle 198" width="231.698" height="160.065" transform="translate(0 89.333)" fill="none"/>
    </clipPath>
    <clipPath id="clip-path-7">
      <rect id="Rectangle_199" data-name="Rectangle 199" width="142.201" height="172.67" transform="translate(47.606 46.052)" fill="none"/>
    </clipPath>
    <clipPath id="clip-path-8">
      <rect id="Rectangle_200" data-name="Rectangle 200" width="17.74" height="13.035" transform="translate(81.999 33.875)" fill="none"/>
    </clipPath>
    <clipPath id="clip-path-9">
      <rect id="Rectangle_201" data-name="Rectangle 201" width="5.423" height="2.92" transform="translate(74.312 33.105)" fill="none"/>
    </clipPath>
    <clipPath id="clip-path-10">
      <rect id="Rectangle_202" data-name="Rectangle 202" width="10.916" height="13.718" transform="translate(153.657 94.095)" fill="none"/>
    </clipPath>
    <clipPath id="clip-path-11">
      <rect id="Rectangle_203" data-name="Rectangle 203" width="2.36" height="4.316" transform="translate(163.14 87.991)" fill="none"/>
    </clipPath>
    <clipPath id="clip-path-12">
      <rect id="Rectangle_204" data-name="Rectangle 204" width="16.595" height="5.006" transform="translate(171.124 187.415)" fill="none"/>
    </clipPath>
    <clipPath id="clip-path-13">
      <rect id="Rectangle_205" data-name="Rectangle 205" width="3.524" height="3.341" transform="translate(188.936 183.518)" fill="none"/>
    </clipPath>
    <clipPath id="clip-path-14">
      <rect id="Rectangle_206" data-name="Rectangle 206" width="72.182" height="121.297" transform="translate(18.493 161.514)" fill="none"/>
    </clipPath>
    <clipPath id="clip-path-15">
      <rect id="Rectangle_207" data-name="Rectangle 207" width="97.295" height="113.226" transform="translate(103.551 141.537)" fill="none"/>
    </clipPath>
    <clipPath id="clip-path-16">
      <rect id="Rectangle_208" data-name="Rectangle 208" width="42.778" height="106.344" transform="translate(65.823 89.8)" fill="none"/>
    </clipPath>
    <clipPath id="clip-path-17">
      <rect id="Rectangle_209" data-name="Rectangle 209" width="30.52" height="77.782" transform="translate(119.553 54.266)" fill="none"/>
    </clipPath>
    <clipPath id="clip-path-18">
      <rect id="Rectangle_210" data-name="Rectangle 210" width="44.493" height="294.411" transform="translate(90.61 23.142)" fill="none"/>
    </clipPath>
    <clipPath id="clip-path-19">
      <rect id="Rectangle_211" data-name="Rectangle 211" width="26.09" height="29.975" transform="translate(88.38 128.456)" fill="none"/>
    </clipPath>
    <clipPath id="clip-path-20">
      <rect id="Rectangle_212" data-name="Rectangle 212" width="11.131" height="7.55" transform="translate(93.377 123.834)" fill="none"/>
    </clipPath>
    <clipPath id="clip-path-21">
      <rect id="Rectangle_213" data-name="Rectangle 213" width="2.428" height="2.736" transform="translate(105.57 131.977)" fill="none"/>
    </clipPath>
    <clipPath id="clip-path-22">
      <rect id="Rectangle_214" data-name="Rectangle 214" width="10.92" height="12.789" transform="translate(99.649 137.696)" fill="none"/>
    </clipPath>
    <clipPath id="clip-path-23">
      <rect id="Rectangle_215" data-name="Rectangle 215" width="11.506" height="29.993" transform="translate(56.264 44.604)" fill="none"/>
    </clipPath>
    <clipPath id="clip-path-24">
      <rect id="Rectangle_216" data-name="Rectangle 216" width="6.837" height="8.482" transform="translate(60.808 43.227)" fill="none"/>
    </clipPath>
    <clipPath id="clip-path-25">
      <rect id="Rectangle_217" data-name="Rectangle 217" width="1.768" height="2.337" transform="translate(67.174 52.832)" fill="none"/>
    </clipPath>
    <clipPath id="clip-path-26">
      <rect id="Rectangle_218" data-name="Rectangle 218" width="4.082" height="12.636" transform="translate(61.417 54.939)" fill="none"/>
    </clipPath>
    <clipPath id="clip-path-27">
      <rect id="Rectangle_219" data-name="Rectangle 219" width="11.506" height="29.993" transform="translate(80.618 193.035)" fill="none"/>
    </clipPath>
    <clipPath id="clip-path-28">
      <rect id="Rectangle_220" data-name="Rectangle 220" width="6.838" height="8.482" transform="translate(85.163 191.657)" fill="none"/>
    </clipPath>
    <clipPath id="clip-path-29">
      <rect id="Rectangle_221" data-name="Rectangle 221" width="1.768" height="2.337" transform="translate(91.529 201.263)" fill="none"/>
    </clipPath>
    <clipPath id="clip-path-30">
      <rect id="Rectangle_222" data-name="Rectangle 222" width="4.081" height="12.636" transform="translate(85.772 203.369)" fill="none"/>
    </clipPath>
    <clipPath id="clip-path-31">
      <rect id="Rectangle_223" data-name="Rectangle 223" width="11.131" height="56.003" transform="translate(110.203 104.409)" fill="none"/>
    </clipPath>
    <clipPath id="clip-path-32">
      <rect id="Rectangle_224" data-name="Rectangle 224" width="3.24" height="8.007" transform="translate(115.735 166.144)" fill="none"/>
    </clipPath>
    <clipPath id="clip-path-33">
      <rect id="Rectangle_225" data-name="Rectangle 225" width="20.147" height="24.484" transform="translate(111.967 53.569)" fill="none"/>
    </clipPath>
    <clipPath id="clip-path-34">
      <rect id="Rectangle_226" data-name="Rectangle 226" width="12.893" height="22.453" transform="translate(124.051 51.137)" fill="none"/>
    </clipPath>
    <clipPath id="clip-path-35">
      <rect id="Rectangle_227" data-name="Rectangle 227" width="22.934" height="16.875" transform="translate(199.899 126.322)" fill="none"/>
    </clipPath>
    <clipPath id="clip-path-36">
      <rect id="Rectangle_228" data-name="Rectangle 228" width="16.061" height="16.674" transform="translate(211.366 125.14)" fill="none"/>
    </clipPath>
    <clipPath id="clip-path-37">
      <rect id="Rectangle_229" data-name="Rectangle 229" width="22.546" height="17.016" transform="translate(45.776 98.891)" fill="none"/>
    </clipPath>
    <clipPath id="clip-path-38">
      <rect id="Rectangle_230" data-name="Rectangle 230" width="20.464" height="10.67" transform="translate(43.451 94.647)" fill="none"/>
    </clipPath>
    <clipPath id="clip-path-39">
      <rect id="Rectangle_231" data-name="Rectangle 231" width="9.772" height="23.977" transform="translate(71.668 85.399)" fill="none"/>
    </clipPath>
    <clipPath id="clip-path-40">
      <rect id="Rectangle_232" data-name="Rectangle 232" width="8.518" height="15.812" transform="translate(72.722 81.324)" fill="none"/>
    </clipPath>
    <clipPath id="clip-path-41">
      <rect id="Rectangle_233" data-name="Rectangle 233" width="24.125" height="9.398" transform="translate(19.596 184.328)" fill="none"/>
    </clipPath>
    <clipPath id="clip-path-42">
      <rect id="Rectangle_234" data-name="Rectangle 234" width="15.944" height="8.266" transform="translate(15.526 184.595)" fill="none"/>
    </clipPath>
    <clipPath id="clip-path-43">
      <rect id="Rectangle_235" data-name="Rectangle 235" width="17.622" height="3.607" transform="translate(48.099 152.736)" fill="none"/>
    </clipPath>
    <clipPath id="clip-path-44">
      <rect id="Rectangle_236" data-name="Rectangle 236" width="11.94" height="3.719" transform="translate(45.372 153.846)" fill="none"/>
    </clipPath>
    <clipPath id="clip-path-45">
      <rect id="Rectangle_237" data-name="Rectangle 237" width="10.338" height="32.834" transform="translate(9.628 127.875)" fill="none"/>
    </clipPath>
    <clipPath id="clip-path-46">
      <rect id="Rectangle_238" data-name="Rectangle 238" width="7.019" height="25.458" transform="translate(5.549 129.162)" fill="none"/>
    </clipPath>
    <clipPath id="clip-path-47">
      <rect id="Rectangle_239" data-name="Rectangle 239" width="2.715" height="2.52" transform="translate(13.266 155.751)" fill="none"/>
    </clipPath>
    <clipPath id="clip-path-48">
      <rect id="Rectangle_240" data-name="Rectangle 240" width="24.232" height="19.939" transform="translate(150.396 120.569)" fill="none"/>
    </clipPath>
    <clipPath id="clip-path-49">
      <rect id="Rectangle_241" data-name="Rectangle 241" width="18.737" height="14.654" transform="translate(153.398 117.669)" fill="none"/>
    </clipPath>
    <clipPath id="clip-path-50">
      <rect id="Rectangle_242" data-name="Rectangle 242" width="1.708" height="2.846" transform="translate(151.476 133.574)" fill="none"/>
    </clipPath>
    <clipPath id="clip-path-51">
      <rect id="Rectangle_243" data-name="Rectangle 243" width="30.155" height="6.726" transform="translate(121.37 222.309)" fill="none"/>
    </clipPath>
    <clipPath id="clip-path-52">
      <rect id="Rectangle_244" data-name="Rectangle 244" width="23.319" height="4.035" transform="translate(127.422 218.549)" fill="none"/>
    </clipPath>
    <clipPath id="clip-path-53">
      <rect id="Rectangle_245" data-name="Rectangle 245" width="2.399" height="2.302" transform="translate(123.867 223.007)" fill="none"/>
    </clipPath>
    <clipPath id="clip-path-54">
      <rect id="Rectangle_246" data-name="Rectangle 246" width="15.938" height="59.601" transform="translate(89.015 202.262)" fill="none"/>
    </clipPath>
    <clipPath id="clip-path-55">
      <rect id="Rectangle_247" data-name="Rectangle 247" width="4.602" height="7.628" transform="translate(92.51 268.617)" fill="none"/>
    </clipPath>
    <clipPath id="clip-path-56">
      <rect id="Rectangle_248" data-name="Rectangle 248" width="4.975" height="21.01" transform="translate(208.224 84.077)" fill="none"/>
    </clipPath>
    <clipPath id="clip-path-57">
      <rect id="Rectangle_249" data-name="Rectangle 249" width="4.975" height="21.01" transform="translate(176.608 141.403)" fill="none"/>
    </clipPath>
    <clipPath id="clip-path-58">
      <rect id="Rectangle_250" data-name="Rectangle 250" width="12.677" height="17.265" transform="translate(33.858 117.15)" fill="none"/>
    </clipPath>
    <clipPath id="clip-path-59">
      <rect id="Rectangle_251" data-name="Rectangle 251" width="4.223" height="21.152" transform="translate(61.279 180.305)" fill="none"/>
    </clipPath>
    <clipPath id="clip-path-60">
      <rect id="Rectangle_252" data-name="Rectangle 252" width="16.257" height="13.879" transform="translate(136.712 3.492)" fill="none"/>
    </clipPath>
    <clipPath id="clip-path-61">
      <rect id="Rectangle_253" data-name="Rectangle 253" width="22.056" height="20.843" transform="translate(8.669 154.325)" fill="none"/>
    </clipPath>
    <clipPath id="clip-path-62">
      <rect id="Rectangle_254" data-name="Rectangle 254" width="6.71" height="7.233" transform="translate(11.857 157.416)" fill="none"/>
    </clipPath>
    <clipPath id="clip-path-63">
      <rect id="Rectangle_255" data-name="Rectangle 255" width="24.074" height="22.75" transform="translate(89.914 85.663)" fill="none"/>
    </clipPath>
    <clipPath id="clip-path-64">
      <rect id="Rectangle_256" data-name="Rectangle 256" width="7.324" height="7.895" transform="translate(93.394 89.037)" fill="none"/>
    </clipPath>
    <clipPath id="clip-path-65">
      <rect id="Rectangle_257" data-name="Rectangle 257" width="19.547" height="18.472" transform="translate(81.232 195.507)" fill="none"/>
    </clipPath>
    <clipPath id="clip-path-66">
      <rect id="Rectangle_258" data-name="Rectangle 258" width="5.947" height="6.41" transform="translate(84.058 198.247)" fill="none"/>
    </clipPath>
  </defs>
  <g id="Group_779" data-name="Group 779" clip-path="url(#clip-path)">
    <g id="Group_778" data-name="Group 778">
      <g id="Group_777" data-name="Group 777" clip-path="url(#clip-path)">
        <path id="Path_583" data-name="Path 583" d="M149.592,308.531a7.154,7.154,0,0,0-5.7-4.845,11.387,11.387,0,0,0-7.565,1.618,1.566,1.566,0,0,0-.245.181c1.03-5.089-.418-10.827-4.492-14.01-4.347-3.4-11.672-2.7-14.484,2.047-.816-2.815-2.482-5.638-5.225-6.672s-6.5.693-6.6,3.622c-.189-4.2-5.321-7.327-9.141-5.564.482-2.476-2.189-4.665-4.711-4.627s-3.86,2.116-5.812,3.712c-1.736-4.9-3.77-10.185-8.216-12.885a12.116,12.116,0,0,0-13.221.749,13.038,13.038,0,0,0-4.807,12.461,5.4,5.4,0,0,0-7.241,4.154,4.616,4.616,0,0,0-8.938.3,11.618,11.618,0,0,0,.215,3.619,13.718,13.718,0,0,0-9.576,23.439,3.115,3.115,0,0,0,1.006.707,5.612,5.612,0,0,0-5.138,4.378,5.3,5.3,0,0,0-5.016.746,3.143,3.143,0,0,0,.038,4.5,3.684,3.684,0,0,0-4.451,1.583,4.816,4.816,0,0,0,.218,4.907,3.92,3.92,0,0,0,1.432,1.4,4.07,4.07,0,0,0,3.927-.342,12,12,0,0,0,2.93-2.874,8.919,8.919,0,0,0,7.68,7.751,11.037,11.037,0,0,0,9.938-4.451,4.45,4.45,0,0,0,8.092.347A12.525,12.525,0,0,0,75.135,331.6c3.63-7.547,15.546-8.775,23.9-9.355s16.8-.076,25.064-1.434c7.959-1.308,15.526-4.306,23.022-7.284a6.308,6.308,0,0,0,2.345-1.351c.989-1.044.5-2.256.125-3.643" fill="#3c96d3"/>
        <g id="Group_587" data-name="Group 587" opacity="0.2" style="mix-blend-mode: overlay;isolation: isolate">
          <g id="Group_586" data-name="Group 586">
            <g id="Group_585" data-name="Group 585" clip-path="url(#clip-path-3)">
              <path id="Path_584" data-name="Path 584" d="M75.134,331.6a11.7,11.7,0,0,1,4.34-4.723c-.162-.067-.326-.128-.485-.2a8.336,8.336,0,0,1-8.688,2.559,7.947,7.947,0,0,0-2.833-.694c-.977.067-1.982,1-1.658,1.921a7.463,7.463,0,0,1-7.993-3.892,3.1,3.1,0,0,1-4.9.739c-.8-.9-1.041-2.285-2.058-2.932-.961-.61-2.206-.318-3.342-.386-3.022-.183-5.3-3.139-5.692-6.141s.675-5.993,1.89-8.766c-3.925,1.182-7.7-3.24-7.526-7.336.153-3.732,2.477-5.8,3.96-8.9a13.682,13.682,0,0,0-6.323,22.987,3.156,3.156,0,0,0,1.006.707,5.609,5.609,0,0,0-5.138,4.377,5.3,5.3,0,0,0-5.016.747,3.144,3.144,0,0,0,.038,4.5,3.683,3.683,0,0,0-4.451,1.583,4.816,4.816,0,0,0,.218,4.906,3.935,3.935,0,0,0,1.432,1.4,4.069,4.069,0,0,0,3.928-.342,12.013,12.013,0,0,0,2.929-2.873,8.917,8.917,0,0,0,7.68,7.75,11.037,11.037,0,0,0,9.938-4.45,4.45,4.45,0,0,0,8.092.347A12.524,12.524,0,0,0,75.134,331.6"/>
            </g>
          </g>
        </g>
        <g id="Group_590" data-name="Group 590" opacity="0.2" style="mix-blend-mode: overlay;isolation: isolate">
          <g id="Group_589" data-name="Group 589">
            <g id="Group_588" data-name="Group 588" clip-path="url(#clip-path-4)">
              <path id="Path_585" data-name="Path 585" d="M149.467,312.174c.988-1.044.5-2.256.124-3.643a7.149,7.149,0,0,0-5.7-4.845,11.388,11.388,0,0,0-7.565,1.618,1.565,1.565,0,0,0-.245.181c1.031-5.089-.416-10.827-4.491-14.01-.2-.154-.407-.29-.615-.427.792,3.232-.774,7.151-3.964,8.367,2.6,3.112,4.084,7.448,2.823,11.3s-5.856,6.605-9.585,5.012a20.008,20.008,0,0,1-8.422,6.081,91.739,91.739,0,0,0,12.275-1c7.959-1.308,15.527-4.306,23.023-7.284a6.3,6.3,0,0,0,2.345-1.351"/>
            </g>
          </g>
        </g>
        <path id="Path_586" data-name="Path 586" d="M143.889,303.686a11.383,11.383,0,0,0-7.565,1.619,1.5,1.5,0,0,0-.245.18c1.03-5.089-.417-10.827-4.491-14.01a10.805,10.805,0,0,0-10.61-1.272c2.5,4.4,1.477,10.848-2.836,13.717,1.99,2.452,1.04,6.336-1.222,8.54s-5.44,3.137-8.491,3.951c-8,2.135-16.973,3.876-24.193-.177a8.562,8.562,0,0,1-8.7,3.527c-1.474-.317-2.958-1.036-4.42-.667a12.805,12.805,0,0,0-2.927,1.666,6.23,6.23,0,0,1-7.632-1.444c-.035,2.651-2.889,4.667-5.528,4.419s-4.858-2.242-6.1-4.585a24.161,24.161,0,0,1-2.083-7.635c-4.464,1.518-9.341-2.279-10.668-6.8-1.047-3.57.484-7.263.938-10.656a13.91,13.91,0,0,0-6.307,6.869,14.06,14.06,0,0,0,3.02,14.91,3.145,3.145,0,0,0,1.006.707,5.609,5.609,0,0,0-5.138,4.377,5.3,5.3,0,0,0-5.016.747,3.142,3.142,0,0,0,.038,4.5,3.686,3.686,0,0,0-4.452,1.584,4.816,4.816,0,0,0,.219,4.906,3.925,3.925,0,0,0,1.431,1.4,4.069,4.069,0,0,0,3.928-.342,12.017,12.017,0,0,0,2.93-2.873,8.916,8.916,0,0,0,7.68,7.75,11.039,11.039,0,0,0,9.938-4.45,4.45,4.45,0,0,0,8.092.347A12.523,12.523,0,0,0,75.134,331.6c3.63-7.547,15.547-8.775,23.9-9.354s16.8-.076,25.065-1.435c7.959-1.308,15.527-4.306,23.023-7.284a6.318,6.318,0,0,0,2.345-1.351c.988-1.043.5-2.256.124-3.643a7.151,7.151,0,0,0-5.7-4.845" fill="#3682c1"/>
        <path id="Path_587" data-name="Path 587" d="M71.822,303.514c-1.725-2.142-1.174-5.381.244-7.738,2.232-3.713,6.63-6.2,10.919-5.586s7.98,4.679,7.627,9a5.968,5.968,0,0,1,10.8,2.031,3.353,3.353,0,0,1,5.157.13,4.1,4.1,0,0,1-.825,5.379,5.3,5.3,0,0,1-5.655.448,8.735,8.735,0,0,1-11.262-.168,9.026,9.026,0,0,1-5.346,5.518,18.283,18.283,0,0,1-7.81,1.071,10.315,10.315,0,0,1-4.519-.988,4.625,4.625,0,0,1-2.436-3.569c-2.27,4.8-5.142-.5-4.854-3.395.469-4.721,5.194-5.561,7.959-2.129" fill="#287faf"/>
        <path id="Path_588" data-name="Path 588" d="M190.179,331.218c.481-3.341.9-7.042-.562-9.895a5.545,5.545,0,0,0-4.394-3.16c-1.762-.111-3.564,1.433-4.673,3.138a9.979,9.979,0,0,0-2.594-7.618,6.172,6.172,0,0,0-6.583-1.538c-1.639.632-2.755,2.721-3.027,4.813a18.332,18.332,0,0,0-1.43-5.514c-.814-1.659-2.167-3.016-3.735-3.191a3.859,3.859,0,0,0-3.946,3.063c-1.254-1.512-2.618-3.1-4.349-3.47s-3.933,2.795-3.865,4.964a28.46,28.46,0,0,0-3.527-5.551,7.158,7.158,0,0,0-5.144-2.745c-1.531.011-3.466.768-3.616,2.651-1.485-1.819-3.077-3.714-5.115-4.313s-4.494,1.215-4.864,3.769a5.783,5.783,0,0,0-5.654-2.234,6.978,6.978,0,0,0-4.756,4.45c.467.032-.01.92.229.421a4.334,4.334,0,0,0-5.75-1.937c-1.976,1.074-3.012,3.9-2.578,6.5a20.693,20.693,0,0,0-3.454-5.94c-1.5-1.6-3.621-2.531-5.524-1.79-.772.3-1.779.46-1.228,1.183a7.064,7.064,0,0,0-3.864-1.765,3.805,3.805,0,0,0-2.731.609,2.891,2.891,0,0,0-1.331,2.643,9.651,9.651,0,0,0-8.631,2.521,14.917,14.917,0,0,0-4.4,9.527c-.1,1.087-.374,2.937.421,2.452a4.677,4.677,0,0,0-5.292,1.4c-1.312,1.7-1.27,4.908.365,6.071Z" fill="#26779b"/>
        <path id="Path_589" data-name="Path 589" d="M189.617,321.324a5.54,5.54,0,0,0-4.394-3.16c-1.762-.112-3.564,1.432-4.673,3.137a9.981,9.981,0,0,0-2.594-7.617,6.577,6.577,0,0,0-2.833-1.674c-.036.072-.063.149-.1.219a11.368,11.368,0,0,1-5.859,4.828,10.071,10.071,0,0,1-5.994.7,5.7,5.7,0,0,1-4.3-3.929,6.9,6.9,0,0,1-10.205.69c-2.442,1.568-5.506,1.7-8.407,1.776l-5.8.159c-2.728.074-6.183-.336-7-2.939a6,6,0,0,1-9.376-.55c-2.7,4.192-9.755,4.433-12.732.435a4.646,4.646,0,0,1-4.985,2.835,7.853,7.853,0,0,1-5.082-3.288c-2.249-2.992-1.186-5.069-.475-7.4a3.274,3.274,0,0,0-1.359.571,2.892,2.892,0,0,0-1.33,2.644,9.648,9.648,0,0,0-8.631,2.521,14.914,14.914,0,0,0-4.4,9.527,7.555,7.555,0,0,0-.042,2.329,4.589,4.589,0,0,0-4.83,1.527c-1.311,1.7-1.269,4.908.366,6.07l115.6.483c.481-3.342.9-7.042-.562-9.895" fill="#287faf"/>
        <path id="Path_590" data-name="Path 590" d="M94.992,318.133a9.217,9.217,0,0,1-7.941-7.921,8.128,8.128,0,0,1-.036-1.08,10.409,10.409,0,0,0-3.532,2.15,14.925,14.925,0,0,0-4.4,9.528,7.555,7.555,0,0,0-.042,2.329,4.586,4.586,0,0,0-4.829,1.527c-1.311,1.7-1.27,4.908.366,6.07l23.389.1c5.18-4.035-3.625-7.146-2.977-12.7" fill="#3c96d3"/>
        <path id="Path_591" data-name="Path 591" d="M101.6,327.322a6.583,6.583,0,0,1,8.681-3.227,6.738,6.738,0,0,1,8.808-2.946,4.931,4.931,0,0,0,1.7.714c1.015.1,1.885-.649,2.7-1.263,2.906-2.188,7.731-2.735,9.709.319a4.977,4.977,0,0,1,8-.6c1.3-2.806,5.844-3.247,7.661-.743a5.624,5.624,0,0,1,8.627,1.629c2.454-1.653,6.392.273,6.593,3.225,2.407-1.5,5.792-.072,7.293,2.335s1.571,5.423,1.377,8.254c-1.851-1-4.1-.723-6.18-.387-11.552,1.871-22.971,4.671-34.627,5.705s-23.793.194-34.333-4.888c-2.653-1.279-6.837-2.86-4.22-6.13,1.093-1.367,8.408-2.456,8.217-1.994" fill="#287faf"/>
        <path id="Path_592" data-name="Path 592" d="M171.362,326.762c-1.5-2.407-4.886-3.837-7.293-2.335-.2-2.952-4.139-4.879-6.593-3.225a4.583,4.583,0,0,0-1-1.4,4.018,4.018,0,0,1-1.2.664c1.632,2.078.565,5.424-1.677,6.824s-5.165,1.208-7.649.308a5.644,5.644,0,0,1-7.6-1.26A6.947,6.947,0,0,1,129.5,326c-.557,1.567-2.534,2.232-4.158,1.877a10.421,10.421,0,0,1-4.242-2.523c-.028,1.992-2.39,3.369-4.323,2.888a5.888,5.888,0,0,1-3.868-4.2,4.838,4.838,0,0,1,.017-2.672,6.238,6.238,0,0,0-2.654,2.725,6.582,6.582,0,0,0-8.68,3.227c.191-.463-7.124.626-8.218,1.993-2.616,3.271,1.568,4.852,4.22,6.13,10.541,5.082,22.677,5.922,34.334,4.888,4.787-.424,9.534-1.153,14.266-1.986q10.058-2.4,20.022-5.163c2.27-.631,4.657-1.367,6.391-2.9a9.457,9.457,0,0,0-1.249-3.524" fill="#3c96d3"/>
        <path id="Path_593" data-name="Path 593" d="M196.371,331.444a11.152,11.152,0,0,1-.495-2.333,2.676,2.676,0,0,0-1.119-1.855c-.6-.292-1.205-.013-1.119.781-.792-1.665-1.74-3.478-3.263-3.928-1.5-.443-3.021.613-4.223,1.819a8.609,8.609,0,0,0-2.047,2.935c-.061.158-.114.323-.162.49-.757-2.787-1.9-5.38-4.013-6.5s-4.658-.338-6.615,1.216a8.674,8.674,0,0,0-3.438,6.6c-.9-1.575-2.076-3.07-3.608-3.442a2.945,2.945,0,0,0-3.454,2.813c-.773-2.356-2.084-4.674-4.06-5.389s-4.946.745-4.851,3.289a7.025,7.025,0,0,0-8.21-4.194c-3.128.792-5.769,3.415-7.876,6.387a8.412,8.412,0,0,0-1.525,3.085,4.561,4.561,0,0,0-.08,1.29,7.567,7.567,0,0,0-4.369-3.674,6.566,6.566,0,0,0-6.724,2.324,3.813,3.813,0,0,0-5.331-2.677c-2.009,1.015-3.281,3.233-3.725,5.854a22.787,22.787,0,0,0-8.347-7.051,9.067,9.067,0,0,0-5.07-1.082,5.483,5.483,0,0,0-4.266,3.249,9.317,9.317,0,0,0-1.231-3.692,5.746,5.746,0,0,0-4.3-2.52c-1.628-.17-3.12.862-4.73,1.233A20.61,20.61,0,0,0,85,322.741a5.335,5.335,0,0,0-4.091-1.494,6.992,6.992,0,0,0-3.84,2.415,8.887,8.887,0,0,0-1.988,3c-1.088.307-2.657-.283-3.772-.3-2.111-.04-4.2,2.012-4.417,4.607s1.739,5.2,3.835,4.868c2.692,5.566,9.031,8.435,14.109,6.67,1.378-.479,2.892-1.688,2.96-3.368a8.813,8.813,0,0,0,6.194,8.059c3.259.917,6.661-.042,9.924-1a6.721,6.721,0,0,0,3.8,4.868,4.848,4.848,0,0,0,5.4-.8,2.153,2.153,0,0,1,.837-.573c.543-.126,1.04.348,1.479.757a13.694,13.694,0,0,0,11.027,3.276c3.859-.426,7.572-2,11.24-3.567a8.624,8.624,0,0,0,8.879,2.951c2.992-.95,5.626-3.118,8.194-5.249a8.676,8.676,0,0,0,3.281-4.261,9.647,9.647,0,0,0,13.424.444,9.712,9.712,0,0,0,10.542,3.833c3.776-.984,7.079-3.9,9.709-7.4.563.415,1.477-.32,2.035-.753a4.833,4.833,0,0,0,1.283-1.827,14.967,14.967,0,0,0,1.325-6.446" fill="#87bfff"/>
        <g id="Group_593" data-name="Group 593" opacity="0.2" style="mix-blend-mode: overlay;isolation: isolate">
          <g id="Group_592" data-name="Group 592">
            <g id="Group_591" data-name="Group 591" clip-path="url(#clip-path-5)">
              <path id="Path_594" data-name="Path 594" d="M193.764,339.717a4.854,4.854,0,0,0,1.282-1.827,14.966,14.966,0,0,0,1.325-6.446,11.089,11.089,0,0,1-.495-2.333c-.022-.093-.054-.183-.08-.275a14.607,14.607,0,0,1-3.517,4.551c-1.674,1.431-3.864,2.534-6.022,2.1a5.373,5.373,0,0,0-2-.287,4.125,4.125,0,0,0-1.989,1.462,11.008,11.008,0,0,1-14.83.36c-2.42,3.7-8.92,3.4-11-.5-.306,2.3-.929,4.7-2.586,6.321s-4.614,2.1-6.253.458c-2.284,3.493-8.543,2.955-10.2-.877a7.329,7.329,0,0,1-13.519.579,11.195,11.195,0,0,1-17.608-3.315,7.13,7.13,0,0,1-12.36-2.116,7.344,7.344,0,0,1-9.619-2.657A7.6,7.6,0,0,1,75.37,332.8c-1.054-1.338-.979-3.811-.917-6.061-1.011.028-2.23-.366-3.146-.383-2.111-.04-4.2,2.011-4.417,4.607s1.739,5.2,3.835,4.868c2.691,5.566,9.031,8.435,14.109,6.67,1.378-.479,2.892-1.688,2.96-3.368a8.811,8.811,0,0,0,6.194,8.058c3.259.918,6.661-.041,9.924-1a6.721,6.721,0,0,0,3.8,4.868,4.846,4.846,0,0,0,5.4-.8,2.167,2.167,0,0,1,.837-.573c.544-.126,1.04.348,1.48.756a13.69,13.69,0,0,0,11.026,3.277c3.859-.426,7.572-2,11.24-3.567a8.624,8.624,0,0,0,8.879,2.951c2.992-.95,5.626-3.118,8.194-5.249a8.676,8.676,0,0,0,3.281-4.261,9.647,9.647,0,0,0,13.424.444,9.712,9.712,0,0,0,10.543,3.833c3.776-.984,7.078-3.9,9.709-7.4.563.415,1.475-.32,2.035-.753"/>
            </g>
          </g>
        </g>
        <path id="Path_595" data-name="Path 595" d="M142.254,329.3c-.021.022-.041.045-.061.067-1.843,2.048-2.73,5.423-1.082,7.817,3.682,5.348,15.471-3.006,11.374-8.357-2.491-3.252-7.735-2.223-10.231.473" fill="#65a8ea"/>
        <path id="Path_596" data-name="Path 596" d="M148.315,337.2c.049-.037.1-.081.163-.127l-.059.034-.1.093" fill="#603526"/>
        <path id="Path_597" data-name="Path 597" d="M156.332,329.818a3.162,3.162,0,0,0-.173,3.961,3.084,3.084,0,0,0,4.382,1.012,3.522,3.522,0,0,0,.441-5.175,3.218,3.218,0,0,0-4.65.2" fill="#65a8ea"/>
        <path id="Path_598" data-name="Path 598" d="M181.109,327.9c-1.928-2.673-7.286-3.141-8.475,1.568-1.243,4.927,4.709,7.49,7.817,3.753,1.729-2.079,1.627-3.978.658-5.321" fill="#65a8ea"/>
        <path id="Path_599" data-name="Path 599" d="M120.545,333.445a3.464,3.464,0,0,0-3.5,3.755,3.223,3.223,0,0,0,2.964,2.921,3.454,3.454,0,0,0,3.586-2.585,3.258,3.258,0,0,0-3.054-4.091" fill="#65a8ea"/>
        <path id="Path_600" data-name="Path 600" d="M104.534,329.6a4.663,4.663,0,0,0-6,3.652,3.459,3.459,0,0,0,1.028,3.1c1.267,1.1,2.883.706,4.384.49l-.234.031a3.917,3.917,0,0,0,3.484-3.137,3.835,3.835,0,0,0-2.663-4.131" fill="#65a8ea"/>
        <path id="Path_601" data-name="Path 601" d="M110.271,335.891c-2.847.921-1.9,5.418,1.135,4.919,3.271-.538,1.973-5.925-1.135-4.919" fill="#65a8ea"/>
        <path id="Path_602" data-name="Path 602" d="M132.079,339.06a2.324,2.324,0,0,0-3.408.994,2.477,2.477,0,0,0,1.066,3.267c2.794,1.565,5.007-2.816,2.342-4.261" fill="#65a8ea"/>
        <path id="Path_603" data-name="Path 603" d="M129.213,346.162c-2.354-1.406-4.584,2.094-2.107,3.37,2.148,1.106,4.287-2.068,2.107-3.37" fill="#65a8ea"/>
        <path id="Path_604" data-name="Path 604" d="M145.658,343.053c-2.562-1.5-5.191,2.139-2.633,3.8,2.436,1.581,5.472-2.139,2.633-3.8" fill="#65a8ea"/>
        <path id="Path_605" data-name="Path 605" d="M231.291,121.1a20.025,20.025,0,0,0-5.86-18.488,11.942,11.942,0,0,0-23.68-3.085c-4.5-3.428-11.2-2.993-15.923.119a18.5,18.5,0,0,0-3.135,2.561,29.334,29.334,0,0,0,1.862-15.261c-1.495-8.606-9.777-16.446-18.328-14.662a42.775,42.775,0,0,0,7.557-27.523c-.258-3.4-1.01-6.94-3.26-9.5s-6.368-3.723-9.171-1.785a38.068,38.068,0,0,0-4.2-21.579c-1.839-3.471-4.439-6.819-8.137-8.144s-8.586.178-9.823,3.907a10.173,10.173,0,0,0-19.781,3.469c-1.226-5.384-8.559-7.369-13.534-4.971A20.616,20.616,0,0,0,95.234,16.752C95.522,12,91.628,7.667,87.038,6.4s-9.572.038-13.7,2.406A29.143,29.143,0,0,0,59.689,39.232C56,34.757,47.958,37.1,45.347,42.281s-1.21,11.477,1.13,16.781c-4.387-.572-8.6,2.557-10.63,6.488s-2.318,8.508-2.4,12.931A14.22,14.22,0,0,0,19.287,87.42c-2.092,5.619.618,13.906,5.48,17.413a10.855,10.855,0,0,0-2.776,8.7c-3.988,2.153-8.1,4.412-10.84,8.021s-3.718,8.976-1.049,12.638c-6.755-1.058-10.9,7.755-9.974,14.53a27.039,27.039,0,0,0,10.284,17.648c-3.251-1.256-7.087,1.046-8.422,4.266s-.663,6.952.739,10.143c4.509,10.267,16.936,16.331,27.8,13.567-4.474,2.948-3.172,10.445,1.1,13.684s10.036,3.439,15.4,3.5a9.987,9.987,0,1,0,12.2,15.766c-.528,6.8,4.328,11.611,10.883,13.486a15.411,15.411,0,0,0,17.354-7.469c.287,4.878,2.911,7.934,7.8,8.084s7.856-1.1,8.442-5.954c.377,6.963,6.6,12.825,13.507,13.786s13.985-2.425,18.481-7.755c3.064-3.633,4.937-9.369,1.795-12.935,3.1,2.925,8.119,1.062,11.881-.934,3.284-1.742,6.65-3.55,9.059-6.381s3.667-6.965,2.118-10.344c1.1,4.21,7.229,4.333,11.094,2.334,8.765-4.534,16.051-14.255,13.571-23.807,1.458,3.735,6.08,5.437,10.034,4.771s7.344-3.139,10.426-5.7c3.5-2.915,6.951-6.234,8.4-10.554s.234-9.85-3.8-11.969c6.844-1.9,13.419-6.341,15.832-13.02s-.84-15.456-7.687-17.335a20.026,20.026,0,0,0,12.878-14.5" fill="#e5d100"/>
        <g id="Group_596" data-name="Group 596" opacity="0.2" style="mix-blend-mode: overlay;isolation: isolate">
          <g id="Group_595" data-name="Group 595">
            <g id="Group_594" data-name="Group 594" clip-path="url(#clip-path-6)">
              <path id="Path_606" data-name="Path 606" d="M231.291,121.1a20.025,20.025,0,0,0-5.86-18.488,11.879,11.879,0,0,0-22.059-7.386c6.278,8.316,11.87,17.23,13.557,27.4,2.09,12.6-4.044,27.527-16.374,30.866,4.716,14.324-4.449,31.651-18.944,35.813-2.868.824-5.955,1.229-8.406,2.931-2.37,1.644-3.817,4.275-5.313,6.741-3.167,5.224-7.065,10.249-12.427,13.177s-12.455,3.327-17.335-.349a23.282,23.282,0,0,1-43.1,3.083c-8.049,5.284-19.517,1.3-25.64-6.129s-8.243-17.278-10.171-26.711c-7.807.179-14.548-6.207-17.327-13.5s-2.46-15.356-2.1-23.157c-17.031-.5-23.009-12.317-27.185-25.489a17.155,17.155,0,0,0-1.457,1.655c-2.74,3.61-3.718,8.976-1.049,12.638-6.755-1.058-10.9,7.755-9.974,14.53a27.039,27.039,0,0,0,10.284,17.648c-3.251-1.256-7.087,1.046-8.422,4.266s-.663,6.952.739,10.143c4.509,10.267,16.936,16.331,27.8,13.567-4.474,2.948-3.172,10.445,1.1,13.684s10.036,3.439,15.4,3.5a9.987,9.987,0,1,0,12.2,15.766c-.528,6.8,4.328,11.611,10.883,13.486a15.411,15.411,0,0,0,17.354-7.469c.287,4.878,2.911,7.934,7.8,8.084s7.856-1.1,8.442-5.954c.377,6.963,6.6,12.825,13.507,13.786s13.985-2.425,18.481-7.755c3.064-3.633,4.937-9.369,1.795-12.935,3.1,2.925,8.119,1.062,11.881-.934,3.284-1.742,6.65-3.55,9.059-6.381s3.667-6.965,2.118-10.344c1.1,4.21,7.229,4.333,11.094,2.334,8.765-4.534,16.051-14.255,13.571-23.807,1.458,3.735,6.08,5.437,10.034,4.771s7.344-3.139,10.426-5.7c3.5-2.915,6.951-6.234,8.4-10.554s.234-9.85-3.8-11.969c6.844-1.9,13.419-6.341,15.832-13.02s-.84-15.456-7.687-17.335a20.026,20.026,0,0,0,12.878-14.5"/>
            </g>
          </g>
        </g>
        <g id="Group_599" data-name="Group 599" opacity="0.2" style="mix-blend-mode: overlay;isolation: isolate">
          <g id="Group_598" data-name="Group 598">
            <g id="Group_597" data-name="Group 597" clip-path="url(#clip-path-7)">
              <path id="Path_607" data-name="Path 607" d="M65.267,198.451c-3.146-3.2-5.332-7.607-4.909-12.072s3.966-8.726,8.44-9.054c-6.678-.71-9.543-11.074-4.178-15.113-4.552-2.344-9.444-5.045-11.425-9.766s1.267-11.63,6.346-10.988c-5.491-5.644-10.69-12.21-11.776-20.009s3.494-16.847,11.268-18.1A23.049,23.049,0,0,1,79.666,68.6c-1.191-4,.536-8.437,3.452-11.419s6.849-4.742,10.788-6.116c2.285-.8,4.731-1.494,7.1-.982s4.548,2.637,4.3,5.043c1.2-6.726,9.444-10.2,16.121-8.752s12.024,6.28,17.027,10.932c4.3-3.349,10.953-2.39,15.016,1.246s5.814,9.31,5.879,14.763c.02,1.7-.079,3.51.775,4.981.882,1.519,2.578,2.328,4.088,3.227a24.329,24.329,0,0,1,10.433,27.395c9.932,2.549,15.028,16.114,9.23,24.572,2.986,4.056,5.768,8.6,5.933,13.639s-3.223,10.5-8.239,10.942a15.088,15.088,0,0,1-15,22.1c4.4,6.458-.119,15.907-7.07,19.477s-15.22,2.953-23,2.248a22.884,22.884,0,0,1-36.616,11.658c-9.691.97-10.964-2.077-17.86-6.745-5.34-3.615-11.819-3.345-16.75-8.357" fill="#fff"/>
            </g>
          </g>
        </g>
        <path id="Path_608" data-name="Path 608" d="M105.879,75.69s2.359-11.593-2.045-17.411-16.812-1.44-32.938-16.5S60.264,29.833,60.264,29.833L92.371,42.556,105.133,54.17s5.609,10.638.746,21.52" fill="#bfa800"/>
        <path id="Path_609" data-name="Path 609" d="M108.064,62.269A29.209,29.209,0,0,0,97.6,39.387C86.048,29.4,60.264,29.833,60.264,29.833s18.09,15.437,35.75,21.189,9.865,24.668,9.865,24.668,3.244-5.162,2.185-13.421" fill="#ceb500"/>
        <g id="Group_602" data-name="Group 602" opacity="0.2" style="mix-blend-mode: overlay;isolation: isolate">
          <g id="Group_601" data-name="Group 601">
            <g id="Group_600" data-name="Group 600" clip-path="url(#clip-path-8)">
              <path id="Path_610" data-name="Path 610" d="M82.276,34.394c3.883-2.011,9.066,2.312,11.937,4.637.55.446,7.528,6.634,4.961,7.717s-5.954-3.529-7.634-4.791c-2.832-2.128-8-3.423-9.477-6.784a.583.583,0,0,1,.213-.779" fill="#fff"/>
            </g>
          </g>
        </g>
        <g id="Group_605" data-name="Group 605" opacity="0.2" style="mix-blend-mode: overlay;isolation: isolate">
          <g id="Group_604" data-name="Group 604">
            <g id="Group_603" data-name="Group 603" clip-path="url(#clip-path-9)">
              <path id="Path_611" data-name="Path 611" d="M74.585,33.672a2.87,2.87,0,0,1,2.62-.467,7,7,0,0,1,1.294.243,4.125,4.125,0,0,1,1.1.789.273.273,0,0,1,.092.369,3.315,3.315,0,0,1-.93,1.048,4.014,4.014,0,0,1-1.588.36c-1.011.069-2.305-.15-2.751-1.185a1,1,0,0,1,.162-1.157" fill="#fff"/>
            </g>
          </g>
        </g>
        <path id="Path_612" data-name="Path 612" d="M130.447,111.578s9.146,2.317,13.948-.971,1.782-13.34,14.388-25.618S168.7,76.97,168.7,76.97l-11.35,25.1-9.735,9.729s-8.687,4.066-17.172-.219" fill="#bfa800"/>
        <path id="Path_613" data-name="Path 613" d="M141.056,113.826a23.3,23.3,0,0,0,18.626-7.474c8.392-8.824,9.022-29.382,9.022-29.382S155.722,90.8,150.472,104.651s-20.026,6.927-20.026,6.927a17.231,17.231,0,0,0,10.61,2.248" fill="#ceb500"/>
        <g id="Group_608" data-name="Group 608" opacity="0.2" style="mix-blend-mode: overlay;isolation: isolate">
          <g id="Group_607" data-name="Group 607">
            <g id="Group_606" data-name="Group 606" clip-path="url(#clip-path-10)">
              <path id="Path_614" data-name="Path 614" d="M164.238,94.335c1.455,3.169-2.184,7.135-4.146,9.335-.376.421-5.569,5.746-6.335,3.66s3.036-4.61,4.106-5.9c1.8-2.176,3.029-6.245,5.762-7.294a.465.465,0,0,1,.613.2" fill="#fff"/>
            </g>
          </g>
        </g>
        <g id="Group_611" data-name="Group 611" opacity="0.2" style="mix-blend-mode: overlay;isolation: isolate">
          <g id="Group_610" data-name="Group 610">
            <g id="Group_609" data-name="Group 609" clip-path="url(#clip-path-11)">
              <path id="Path_615" data-name="Path 615" d="M165.1,88.235a2.29,2.29,0,0,1,.273,2.1,5.566,5.566,0,0,1-.242,1.022,3.276,3.276,0,0,1-.671.847.216.216,0,0,1-.3.059,2.645,2.645,0,0,1-.8-.78,3.176,3.176,0,0,1-.226-1.279,2.112,2.112,0,0,1,1.047-2.147.794.794,0,0,1,.916.173" fill="#fff"/>
            </g>
          </g>
        </g>
        <path id="Path_616" data-name="Path 616" d="M189.994,177.7c-17.588.53-22.157,9.978-27.918,9.156a10.16,10.16,0,0,1-3.981-1.611l-.846,1.079a22.474,22.474,0,0,0,6.4,3.589l13.75-.591,25.328-10.827s4.856-1.324-12.732-.795" fill="#bfa800"/>
        <path id="Path_617" data-name="Path 617" d="M170.58,186.571c-5.637,2.838-9.995,1.723-13.146-.486l-.419.534c.142.116.276.234.424.35a23.3,23.3,0,0,0,18.779,7.08c12.149-.831,26.508-15.557,26.508-15.557s-18.914,1.418-32.146,8.079" fill="#ceb500"/>
        <g id="Group_614" data-name="Group 614" opacity="0.2" style="mix-blend-mode: overlay;isolation: isolate">
          <g id="Group_613" data-name="Group 613">
            <g id="Group_612" data-name="Group 612" clip-path="url(#clip-path-12)">
              <path id="Path_618" data-name="Path 618" d="M187.7,188.271c-1.069,3.32-6.433,3.782-9.366,4.078-.562.057-7.988.471-7.143-1.584s5.354-1.346,7.014-1.574c2.8-.386,6.454-2.555,9.178-1.481a.465.465,0,0,1,.317.561" fill="#fff"/>
            </g>
          </g>
        </g>
        <g id="Group_617" data-name="Group 617" opacity="0.2" style="mix-blend-mode: overlay;isolation: isolate">
          <g id="Group_616" data-name="Group 616">
            <g id="Group_615" data-name="Group 615" clip-path="url(#clip-path-13)">
              <path id="Path_619" data-name="Path 619" d="M192.46,184.361c-.021.828-.612,1.279-1.221,1.736a5.542,5.542,0,0,1-.87.589,3.246,3.246,0,0,1-1.066.171.218.218,0,0,1-.26-.157,2.658,2.658,0,0,1-.062-1.115,3.191,3.191,0,0,1,.7-1.1,2.11,2.11,0,0,1,2.223-.874.8.8,0,0,1,.558.746" fill="#fff"/>
            </g>
          </g>
        </g>
        <path id="Path_620" data-name="Path 620" d="M92.51,241.928s-29.278-45.31-78.594-85.66c0,0,68.057,75.257,75.1,130.035Z" fill="#bfa800"/>
        <g id="Group_620" data-name="Group 620" opacity="0.2" style="mix-blend-mode: overlay;isolation: isolate">
          <g id="Group_619" data-name="Group 619">
            <g id="Group_618" data-name="Group 618" clip-path="url(#clip-path-14)">
              <path id="Path_621" data-name="Path 621" d="M88.48,282.811a7.809,7.809,0,0,0,.829-.243l1.365-17.329C81.963,239.465,65.65,216.826,49.6,194.732A157.869,157.869,0,0,0,36.322,178.07a158.046,158.046,0,0,0-11.943-10.9c-1.568-1.337-3.645-3.573-5.886-5.657,14.994,17.541,62.14,75.639,69.987,121.3"/>
            </g>
          </g>
        </g>
        <path id="Path_622" data-name="Path 622" d="M138.676,190.414s-3.727-23.612,15.493-57c0,0-12,46.112-3.746,51.841Z" fill="#bfa800"/>
        <path id="Path_623" data-name="Path 623" d="M95.341,242.293c-7.583-1.352,28.6-46.1,67.3-68.68,41.479-24.194,46.617-76.336,46.617-76.336s8.386,45.242-44.366,88.492c-60.485,49.589-70.071,88.578-70.071,88.578Z" fill="#bfa800"/>
        <g id="Group_623" data-name="Group 623" opacity="0.2" style="mix-blend-mode: overlay;isolation: isolate">
          <g id="Group_622" data-name="Group 622">
            <g id="Group_621" data-name="Group 621" clip-path="url(#clip-path-15)">
              <path id="Path_624" data-name="Path 624" d="M164.9,185.768c18.516-15.18,29.493-30.6,35.951-44.232a136.311,136.311,0,0,1-32.166,36.308c-11.132,8.777-23.481,15.945-34.39,25-10.025,8.319-20.25,19.878-26.094,31.7a49.021,49.021,0,0,0-4.645,20.225c9.089-16.126,27.012-40.847,61.344-68.995"/>
            </g>
          </g>
        </g>
        <path id="Path_625" data-name="Path 625" d="M108.779,181.412S61.01,118.356,68.605,54.266c0,0-18.488,93.034,39.687,142.652Z" fill="#bfa800"/>
        <g id="Group_626" data-name="Group 626" opacity="0.2" style="mix-blend-mode: overlay;isolation: isolate">
          <g id="Group_625" data-name="Group 625">
            <g id="Group_624" data-name="Group 624" clip-path="url(#clip-path-16)">
              <path id="Path_626" data-name="Path 626" d="M93.406,166.172c-11.276-19.366-22.772-39.341-26.042-61.51a114.428,114.428,0,0,1-1.1-14.843,3.4,3.4,0,0,1-.44-.019c.2,31.3,7.306,76.437,41.593,106.344q.462-.249.918-.508l.268-8.549c-6.273-5.77-10.852-13.457-15.195-20.915"/>
            </g>
          </g>
        </g>
        <path id="Path_627" data-name="Path 627" d="M121.763,112.539s22.744-24.874,28.309-58.273c0,0,.719,62.776-30.518,77.782Z" fill="#bfa800"/>
        <g id="Group_629" data-name="Group 629" opacity="0.2" style="mix-blend-mode: overlay;isolation: isolate">
          <g id="Group_628" data-name="Group 628">
            <g id="Group_627" data-name="Group 627" clip-path="url(#clip-path-17)">
              <path id="Path_628" data-name="Path 628" d="M119.553,132.048c31.237-15.006,30.518-77.782,30.518-77.782a101.8,101.8,0,0,1-3.925,15.582c-1.106,14.069-4.036,27.755-11.528,39.547a46,46,0,0,1-7.791,9.436c-1.744,1.583-4.424,2.876-6.293,4.555Z"/>
            </g>
          </g>
        </g>
        <path id="Path_629" data-name="Path 629" d="M76.189,150.235s-17.5-1.787-32.667-18.187c0,0,14.148,27.167,40.552,35.169Z" fill="#bfa800"/>
        <path id="Path_630" data-name="Path 630" d="M118.373,104.355c-16.1-34.167,4.045-63.128,4.654-63.99,1.963-2.8,4.128-5.659,6.457-8.415,3.473-6.367,8.079-12.092,12.45-18.054l.6-.823c-9.5,5.558-15.129,11.954-26.768,26.747-19.709,25.052-8.4,69.129-6.242,76a68.925,68.925,0,0,1,2.513,10.774c2.159,14.936,4.564,49.074-12.708,74.951,0,0-33.476,50.63.564,116.875L127.9,316.29s-29.1-54.908-6.8-112.405H121.1c8.552-12.944,14.765-62.046-2.727-99.53" fill="#bfa800"/>
        <g id="Group_632" data-name="Group 632" opacity="0.2" style="mix-blend-mode: overlay;isolation: isolate">
          <g id="Group_631" data-name="Group 631">
            <g id="Group_630" data-name="Group 630" clip-path="url(#clip-path-18)">
              <path id="Path_631" data-name="Path 631" d="M120.441,205.908a114.07,114.07,0,0,0,9.081-43.728c.273-16.775-1.982-33.84-7.759-49.641q-1.518-4.147-3.38-8.16l-.156.076.146-.1c-16.1-34.168,4.045-63.129,4.654-63.991,1.963-2.8,4.128-5.659,6.457-8.415a85.832,85.832,0,0,1,5.618-8.808c-.875.681-1.761,1.35-2.606,2.071a67.678,67.678,0,0,0-17.147,80.643s11.813,29.374,7.85,68.568a62.506,62.506,0,0,1-5.479,20.108c-4.33,9.291-11.05,26.509-11.365,44.418-.467,26.516,4.44,50.532-4.268,55.034-3.38,1.748-7.588,2.132-11.477,1.956q1.135,3.586,2.535,7.259c7.767,22.21,17.992,11.3,23.718,13.931l5.7-.434a56.943,56.943,0,0,0,2.5-6.564c.317-.955-1.96-4.868-2.339-5.883q-1.462-3.922-2.715-7.92a162.951,162.951,0,0,1-5.009-20.5,139.316,139.316,0,0,1,.648-53.806,92.96,92.96,0,0,1,4.793-16.115"/>
            </g>
          </g>
        </g>
        <path id="Path_632" data-name="Path 632" d="M114.271,158.431s-9.435-16.1-20.1-20.115-14.711-11.962-14.711-11.962,17.587-9.46,26.4,1.6c10.873,13.639,8.411,30.48,8.411,30.48" fill="#ceb500"/>
        <g id="Group_635" data-name="Group 635" opacity="0.2" style="mix-blend-mode: overlay;isolation: isolate">
          <g id="Group_634" data-name="Group 634">
            <g id="Group_633" data-name="Group 633" clip-path="url(#clip-path-19)">
              <path id="Path_633" data-name="Path 633" d="M110.295,142.117a24.087,24.087,0,0,0-4.709-7.2c-4.477-4.422-11.007-5.382-17.206-6.458,7.507,1.246,14.067,6.189,18.444,12.415a50.5,50.5,0,0,1,7.4,17.489l.043.071s.131-.918.2-2.485a52.951,52.951,0,0,0-4.175-13.829"/>
            </g>
          </g>
        </g>
        <g id="Group_638" data-name="Group 638" opacity="0.2" style="mix-blend-mode: overlay;isolation: isolate">
          <g id="Group_637" data-name="Group 637">
            <g id="Group_636" data-name="Group 636" clip-path="url(#clip-path-20)">
              <path id="Path_634" data-name="Path 634" d="M94.381,123.938a1.435,1.435,0,0,0-.339,2.592c1.631,1.125,3.56,1.681,5.245,2.737,1.457.912,2.75,2.123,4.548,2.116a.626.626,0,0,0,.6-.454c.9-4.458-6.512-7.729-10.051-6.991" fill="#fff"/>
            </g>
          </g>
        </g>
        <g id="Group_641" data-name="Group 641" opacity="0.2" style="mix-blend-mode: overlay;isolation: isolate">
          <g id="Group_640" data-name="Group 640">
            <g id="Group_639" data-name="Group 639" clip-path="url(#clip-path-21)">
              <path id="Path_635" data-name="Path 635" d="M107.252,132.249a1.792,1.792,0,0,0-.681-.264,1.069,1.069,0,0,0-.563.1c-.116.044-.106.122-.283.085a.086.086,0,0,0-.083.143c.122.142-.071.324-.071.535a2.49,2.49,0,0,0,.108.606,1.781,1.781,0,0,0,.884,1.132.949.949,0,0,0,1.383-.563,1.57,1.57,0,0,0-.694-1.778" fill="#fff"/>
            </g>
          </g>
        </g>
        <g id="Group_644" data-name="Group 644" opacity="0.2" style="mix-blend-mode: overlay;isolation: isolate">
          <g id="Group_643" data-name="Group 643">
            <g id="Group_642" data-name="Group 642" clip-path="url(#clip-path-22)">
              <path id="Path_636" data-name="Path 636" d="M105.664,141.8c-1.7-2.308-3.017-3.648-5.85-4.1-.131-.021-.24.165-.1.234,2.119,1.034,3.7,4.644,5.151,6.448,1.649,2.051,3.111,4.471,5.239,6.054.225.167.52-.109.454-.35-.8-2.913-3.115-5.86-4.895-8.281" fill="#fff"/>
            </g>
          </g>
        </g>
        <path id="Path_637" data-name="Path 637" d="M65.424,74.6s-1.683-14.676-8.123-21a22.237,22.237,0,0,1-6.826-13.371s15.763-1.224,18.61,9.6C72.6,63.188,65.424,74.6,65.424,74.6" fill="#ceb500"/>
        <g id="Group_647" data-name="Group 647" opacity="0.2" style="mix-blend-mode: overlay;isolation: isolate">
          <g id="Group_646" data-name="Group 646">
            <g id="Group_645" data-name="Group 645" clip-path="url(#clip-path-23)">
              <path id="Path_638" data-name="Path 638" d="M67.765,61.51a19.139,19.139,0,0,0-1.1-6.724c-1.829-4.634-6.25-7.419-10.4-10.182,5.039,3.3,8.207,8.984,9.385,14.893a40.017,40.017,0,0,1-.233,15.035l.008.065s.389-.622.94-1.736a41.971,41.971,0,0,0,1.4-11.351"/>
            </g>
          </g>
        </g>
        <g id="Group_650" data-name="Group 650" opacity="0.2" style="mix-blend-mode: overlay;isolation: isolate">
          <g id="Group_649" data-name="Group 649">
            <g id="Group_648" data-name="Group 648" clip-path="url(#clip-path-24)">
              <path id="Path_639" data-name="Path 639" d="M62.056,43.252c-1.018-.217-1.542,1.009-1.075,1.769.822,1.337,2.041,2.357,2.923,3.66.763,1.127,1.312,2.418,2.617,2.988a.5.5,0,0,0,.577-.138c2.082-2.939-2.243-7.681-5.042-8.279" fill="#fff"/>
            </g>
          </g>
        </g>
        <g id="Group_653" data-name="Group 653" opacity="0.2" style="mix-blend-mode: overlay;isolation: isolate">
          <g id="Group_652" data-name="Group 652">
            <g id="Group_651" data-name="Group 651" clip-path="url(#clip-path-25)">
              <path id="Path_640" data-name="Path 640" d="M68.718,53.389a1.411,1.411,0,0,0-.409-.409.841.841,0,0,0-.441-.1c-.1-.005-.115.055-.232-.029a.068.068,0,0,0-.106.077c.043.142-.155.212-.222.365a1.937,1.937,0,0,0-.116.473,1.415,1.415,0,0,0,.277,1.1.753.753,0,0,0,1.183.035,1.245,1.245,0,0,0,.066-1.51" fill="#fff"/>
            </g>
          </g>
        </g>
        <g id="Group_656" data-name="Group 656" opacity="0.2" style="mix-blend-mode: overlay;isolation: isolate">
          <g id="Group_655" data-name="Group 655">
            <g id="Group_654" data-name="Group 654" clip-path="url(#clip-path-26)">
              <path id="Path_641" data-name="Path 641" d="M64.511,59.8c-.491-2.214-1.018-3.607-2.923-4.845-.088-.057-.227.043-.147.138,1.2,1.427,1.194,4.548,1.667,6.318.539,2.013.823,4.234,1.858,6.061.109.193.411.087.441-.108.351-2.366-.381-5.241-.9-7.564" fill="#fff"/>
            </g>
          </g>
        </g>
        <path id="Path_642" data-name="Path 642" d="M89.779,223.028s-1.683-14.676-8.123-21a22.237,22.237,0,0,1-6.826-13.371s15.764-1.224,18.61,9.6c3.511,13.357-3.661,24.766-3.661,24.766" fill="#ceb500"/>
        <g id="Group_659" data-name="Group 659" opacity="0.2" style="mix-blend-mode: overlay;isolation: isolate">
          <g id="Group_658" data-name="Group 658">
            <g id="Group_657" data-name="Group 657" clip-path="url(#clip-path-27)">
              <path id="Path_643" data-name="Path 643" d="M92.119,209.941a19.117,19.117,0,0,0-1.105-6.724c-1.828-4.634-6.25-7.419-10.4-10.182,5.039,3.3,8.208,8.984,9.386,14.893a40,40,0,0,1-.233,15.035l.007.065s.39-.623.94-1.736a41.931,41.931,0,0,0,1.4-11.351"/>
            </g>
          </g>
        </g>
        <g id="Group_662" data-name="Group 662" opacity="0.2" style="mix-blend-mode: overlay;isolation: isolate">
          <g id="Group_661" data-name="Group 661">
            <g id="Group_660" data-name="Group 660" clip-path="url(#clip-path-28)">
              <path id="Path_644" data-name="Path 644" d="M86.41,191.683c-1.018-.217-1.542,1.009-1.075,1.769.822,1.337,2.041,2.356,2.923,3.66.763,1.127,1.312,2.418,2.617,2.988a.494.494,0,0,0,.577-.138c2.083-2.939-2.243-7.681-5.042-8.279" fill="#fff"/>
            </g>
          </g>
        </g>
        <g id="Group_665" data-name="Group 665" opacity="0.2" style="mix-blend-mode: overlay;isolation: isolate">
          <g id="Group_664" data-name="Group 664">
            <g id="Group_663" data-name="Group 663" clip-path="url(#clip-path-29)">
              <path id="Path_645" data-name="Path 645" d="M93.073,201.82a1.411,1.411,0,0,0-.409-.409.841.841,0,0,0-.441-.1c-.1-.005-.115.055-.232-.029a.068.068,0,0,0-.106.077c.043.142-.155.212-.222.365a1.937,1.937,0,0,0-.116.473,1.415,1.415,0,0,0,.277,1.1.753.753,0,0,0,1.183.035,1.245,1.245,0,0,0,.066-1.51" fill="#fff"/>
            </g>
          </g>
        </g>
        <g id="Group_668" data-name="Group 668" opacity="0.2" style="mix-blend-mode: overlay;isolation: isolate">
          <g id="Group_667" data-name="Group 667">
            <g id="Group_666" data-name="Group 666" clip-path="url(#clip-path-30)">
              <path id="Path_646" data-name="Path 646" d="M88.866,208.231c-.491-2.214-1.018-3.607-2.923-4.845-.088-.057-.227.043-.147.138,1.2,1.427,1.194,4.547,1.667,6.318.539,2.013.823,4.233,1.858,6.061.109.193.412.088.441-.108.351-2.367-.381-5.241-.9-7.564" fill="#fff"/>
            </g>
          </g>
        </g>
        <g id="Group_671" data-name="Group 671" opacity="0.2" style="mix-blend-mode: overlay;isolation: isolate">
          <g id="Group_670" data-name="Group 670">
            <g id="Group_669" data-name="Group 669" clip-path="url(#clip-path-31)">
              <path id="Path_647" data-name="Path 647" d="M119.554,132.048c-1.573-8.969-3.739-20.164-9.248-27.615-.029-.039-.108-.033-.1.027.417,4.228,1.927,8.283,2.906,12.406a153.555,153.555,0,0,1,2.861,15.667c1.181,9.083.545,18.46,2.441,27.4.143.677,1.091.586,1.281,0,2.856-8.81,1.437-18.9-.139-27.889" fill="#fff"/>
            </g>
          </g>
        </g>
        <g id="Group_674" data-name="Group 674" opacity="0.2" style="mix-blend-mode: overlay;isolation: isolate">
          <g id="Group_673" data-name="Group 673">
            <g id="Group_672" data-name="Group 672" clip-path="url(#clip-path-32)">
              <path id="Path_648" data-name="Path 648" d="M118.362,166.7c-.253-.3-.8-.75-1.236-.461-1.018.679-.932,2.148-1.061,3.245a16.07,16.07,0,0,0-.265,4.14.722.722,0,0,0,1.056.43,5.892,5.892,0,0,0,2.117-4.8,4.058,4.058,0,0,0-.611-2.557" fill="#fff"/>
            </g>
          </g>
        </g>
        <path id="Path_649" data-name="Path 649" d="M111.967,78s3.081-12.578,16.111-23.553,12.483-13.338,12.483-13.338S140.315,80.217,111.967,78" fill="#ceb500"/>
        <g id="Group_677" data-name="Group 677" opacity="0.2" style="mix-blend-mode: overlay;isolation: isolate">
          <g id="Group_676" data-name="Group 676">
            <g id="Group_675" data-name="Group 675" clip-path="url(#clip-path-33)">
              <path id="Path_650" data-name="Path 650" d="M113.208,74.434A28.348,28.348,0,0,0,111.967,78c.527.041,1.025.04,1.533.053a39.535,39.535,0,0,1,3.459-3.778c2.8-2.721,5.847-5.21,8.336-8.22a42.979,42.979,0,0,0,6.819-12.486c-5.289,7.761-13.419,13.342-18.906,20.865"/>
            </g>
          </g>
        </g>
        <g id="Group_680" data-name="Group 680" opacity="0.2" style="mix-blend-mode: overlay;isolation: isolate">
          <g id="Group_679" data-name="Group 679">
            <g id="Group_678" data-name="Group 678" clip-path="url(#clip-path-34)">
              <path id="Path_651" data-name="Path 651" d="M136.944,51.772a.716.716,0,0,0-1.349-.249c-1.727,3.8-2.444,7.9-4.411,11.644-1.957,3.724-4.924,6.572-7.1,10.109-.128.208.157.386.331.285,3.611-2.085,6.149-6.181,8.207-9.7s4.316-7.922,4.322-12.085" fill="#fff"/>
            </g>
          </g>
        </g>
        <path id="Path_652" data-name="Path 652" d="M199.9,142.8s5.52-10.145,19.254-16.642,13.8-8.659,13.8-8.659-9.115,33.666-33.054,25.3" fill="#ceb500"/>
        <g id="Group_683" data-name="Group 683" opacity="0.2" style="mix-blend-mode: overlay;isolation: isolate">
          <g id="Group_682" data-name="Group 682">
            <g id="Group_681" data-name="Group 681" clip-path="url(#clip-path-35)">
              <path id="Path_653" data-name="Path 653" d="M201.781,140.01A25.461,25.461,0,0,0,199.9,142.8c.445.156.875.268,1.31.4a35.4,35.4,0,0,1,3.842-2.471,95.714,95.714,0,0,0,9.06-5.19,38.292,38.292,0,0,0,8.722-9.214c-6.327,5.488-14.608,8.45-21.052,13.688"/>
            </g>
          </g>
        </g>
        <g id="Group_686" data-name="Group 686" opacity="0.2" style="mix-blend-mode: overlay;isolation: isolate">
          <g id="Group_685" data-name="Group 685">
            <g id="Group_684" data-name="Group 684" clip-path="url(#clip-path-36)">
              <path id="Path_654" data-name="Path 654" d="M227.407,125.872c.164-.619-.725-.988-1.106-.521-2.354,2.882-3.906,6.255-6.455,9.036-2.535,2.765-5.742,4.546-8.423,7.1-.158.15.047.368.22.321,3.589-.976,6.709-3.93,9.286-6.5s5.525-5.849,6.478-9.437" fill="#fff"/>
            </g>
          </g>
        </g>
        <path id="Path_655" data-name="Path 655" d="M68.316,115.907s-11.325-2.264-21.6-13.454S34.352,91.842,34.352,91.842s34.855-1.278,33.964,24.065" fill="#ceb500"/>
        <g id="Group_689" data-name="Group 689" opacity="0.2" style="mix-blend-mode: overlay;isolation: isolate">
          <g id="Group_688" data-name="Group 688">
            <g id="Group_687" data-name="Group 687" clip-path="url(#clip-path-37)">
              <path id="Path_656" data-name="Path 656" d="M65.091,114.937a25.189,25.189,0,0,0,3.225.969c.016-.471,0-.915-.011-1.368a35.076,35.076,0,0,1-3.5-2.937,95.908,95.908,0,0,0-7.643-7.113,38.286,38.286,0,0,0-11.386-5.6c7.118,4.415,12.4,11.445,19.315,16.046"/>
            </g>
          </g>
        </g>
        <g id="Group_692" data-name="Group 692" opacity="0.2" style="mix-blend-mode: overlay;isolation: isolate">
          <g id="Group_691" data-name="Group 691">
            <g id="Group_690" data-name="Group 690" clip-path="url(#clip-path-38)">
              <path id="Path_657" data-name="Path 657" d="M43.99,94.656a.639.639,0,0,0-.17,1.212c3.451,1.394,7.133,1.875,10.544,3.485,3.393,1.6,6.044,4.135,9.278,5.939.191.106.338-.155.242-.306-2-3.138-5.743-5.243-8.961-6.942S47.7,94.5,43.99,94.656" fill="#fff"/>
            </g>
          </g>
        </g>
        <path id="Path_658" data-name="Path 658" d="M72.378,109.376s16.429-8.824,10.249-32.437c0,0-19.122,12.7-10.249,32.437" fill="#ceb500"/>
        <g id="Group_695" data-name="Group 695" opacity="0.2" style="mix-blend-mode: overlay;isolation: isolate">
          <g id="Group_694" data-name="Group 694">
            <g id="Group_693" data-name="Group 693" clip-path="url(#clip-path-39)">
              <path id="Path_659" data-name="Path 659" d="M72.5,109.307a11.415,11.415,0,0,0,1.859-2.358A46.41,46.41,0,0,0,81.44,85.4a87.08,87.08,0,0,1-7.051,18.057,21.4,21.4,0,0,1-2.721,4.19c.214.571.448,1.147.71,1.73l.12-.069"/>
            </g>
          </g>
        </g>
        <g id="Group_698" data-name="Group 698" opacity="0.2" style="mix-blend-mode: overlay;isolation: isolate">
          <g id="Group_697" data-name="Group 697">
            <g id="Group_696" data-name="Group 696" clip-path="url(#clip-path-40)">
              <path id="Path_660" data-name="Path 660" d="M73.544,96.906c2.179-5.24,3.817-11.237,7.689-15.539.021-.023-.008-.053-.034-.04-4.895,2.587-8.622,9.947-8.473,15.4a.437.437,0,0,0,.818.176" fill="#fff"/>
            </g>
          </g>
        </g>
        <path id="Path_661" data-name="Path 661" d="M43.721,192.987s-9.1-16.279-32.6-9.7c0,0,13.018,18.906,32.6,9.7" fill="#ceb500"/>
        <g id="Group_701" data-name="Group 701" opacity="0.2" style="mix-blend-mode: overlay;isolation: isolate">
          <g id="Group_700" data-name="Group 700">
            <g id="Group_699" data-name="Group 699" clip-path="url(#clip-path-41)">
              <path id="Path_662" data-name="Path 662" d="M43.651,192.868a11.392,11.392,0,0,0-2.389-1.819A46.414,46.414,0,0,0,19.6,184.328a87.048,87.048,0,0,1,18.173,6.747A21.428,21.428,0,0,1,42,193.726c.567-.224,1.139-.467,1.717-.739,0,0-.027-.048-.07-.119"/>
            </g>
          </g>
        </g>
        <g id="Group_704" data-name="Group 704" opacity="0.2" style="mix-blend-mode: overlay;isolation: isolate">
          <g id="Group_703" data-name="Group 703">
            <g id="Group_702" data-name="Group 702" clip-path="url(#clip-path-42)">
              <path id="Path_663" data-name="Path 663" d="M31.234,192.03c-5.276-2.091-11.3-3.628-15.665-7.427a.027.027,0,0,0-.04.034c2.669,4.851,10.09,8.454,15.542,8.213a.437.437,0,0,0,.163-.82" fill="#fff"/>
            </g>
          </g>
        </g>
        <path id="Path_664" data-name="Path 664" d="M65.721,155.6s-8.472-9.794-23.535-2.024c0,0,11.507,11.031,23.535,2.024" fill="#ceb500"/>
        <g id="Group_707" data-name="Group 707" opacity="0.2" style="mix-blend-mode: overlay;isolation: isolate">
          <g id="Group_706" data-name="Group 706">
            <g id="Group_705" data-name="Group 705" clip-path="url(#clip-path-43)">
              <path id="Path_665" data-name="Path 665" d="M65.657,155.528a7.924,7.924,0,0,0-1.88-.9A32.235,32.235,0,0,0,48.1,153.1,60.492,60.492,0,0,1,61.4,155.134a14.86,14.86,0,0,1,3.252,1.209c.355-.232.709-.478,1.065-.744l-.065-.071"/>
            </g>
          </g>
        </g>
        <g id="Group_710" data-name="Group 710" opacity="0.2" style="mix-blend-mode: overlay;isolation: isolate">
          <g id="Group_709" data-name="Group 709">
            <g id="Group_708" data-name="Group 708" clip-path="url(#clip-path-44)">
              <path id="Path_666" data-name="Path 666" d="M57.1,156.7c-3.882-.682-8.193-.881-11.7-2.853a.018.018,0,0,0-.022.029c2.5,2.925,8.048,4.334,11.723,3.4a.3.3,0,0,0,0-.581" fill="#fff"/>
            </g>
          </g>
        </g>
        <path id="Path_667" data-name="Path 667" d="M19.747,160.614S26.249,125.147,0,122.36c0,0,5.021,4.008,4.085,14.576s6.472,25.132,15.662,23.678" fill="#ceb500"/>
        <g id="Group_713" data-name="Group 713" opacity="0.2" style="mix-blend-mode: overlay;isolation: isolate">
          <g id="Group_712" data-name="Group 712">
            <g id="Group_711" data-name="Group 711" clip-path="url(#clip-path-45)">
              <path id="Path_668" data-name="Path 668" d="M9.628,127.875c3.156,6.255,4.774,12.668,6.449,19.47,1.068,4.338,2.1,8.989,1.437,13.3a8.118,8.118,0,0,0,2.232-.034s.093-.512.21-1.4A49.383,49.383,0,0,0,9.628,127.875"/>
            </g>
          </g>
        </g>
        <g id="Group_716" data-name="Group 716" opacity="0.2" style="mix-blend-mode: overlay;isolation: isolate">
          <g id="Group_715" data-name="Group 715">
            <g id="Group_714" data-name="Group 714" clip-path="url(#clip-path-46)">
              <path id="Path_669" data-name="Path 669" d="M12.567,154.055c-.132-2.255-1.285-4.3-1.833-6.474-.577-2.288-.832-4.646-1.226-6.969-.691-4.07-1.573-7.977-3.912-11.44a.026.026,0,0,0-.046.021c1.223,4.78,1.173,9.671,1.775,14.536.437,3.528,1.01,8.9,4.454,10.812a.511.511,0,0,0,.788-.486" fill="#fff"/>
            </g>
          </g>
        </g>
        <g id="Group_719" data-name="Group 719" opacity="0.2" style="mix-blend-mode: overlay;isolation: isolate">
          <g id="Group_718" data-name="Group 718">
            <g id="Group_717" data-name="Group 717" clip-path="url(#clip-path-47)">
              <path id="Path_670" data-name="Path 670" d="M15.959,157.85c.219-1.1-1.281-1.952-2.171-2.094a.468.468,0,0,0-.51.534c.277.972,1.272,2.284,2.422,1.918a.445.445,0,0,0,.259-.358" fill="#fff"/>
            </g>
          </g>
        </g>
        <path id="Path_671" data-name="Path 671" d="M151.215,140.508s31.55-7.2,24.552-29.832c0,0-1.527,5.561-10.573,8.532s-18.432,14.237-13.979,21.3" fill="#ceb500"/>
        <g id="Group_722" data-name="Group 722" opacity="0.2" style="mix-blend-mode: overlay;isolation: isolate">
          <g id="Group_721" data-name="Group 721">
            <g id="Group_720" data-name="Group 720" clip-path="url(#clip-path-48)">
              <path id="Path_672" data-name="Path 672" d="M174.628,120.569c-4.04,4.818-8.755,8.423-13.771,12.214-3.2,2.417-6.669,4.916-10.461,5.9a7.281,7.281,0,0,0,.819,1.829s.455-.1,1.225-.322a44.322,44.322,0,0,0,22.188-19.617"/>
            </g>
          </g>
        </g>
        <g id="Group_725" data-name="Group 725" opacity="0.2" style="mix-blend-mode: overlay;isolation: isolate">
          <g id="Group_724" data-name="Group 724">
            <g id="Group_723" data-name="Group 723" clip-path="url(#clip-path-49)">
              <path id="Path_673" data-name="Path 673" d="M154.081,132.264c1.813-.907,3.092-2.583,4.689-3.8,1.683-1.286,3.537-2.332,5.313-3.48,3.111-2.011,6.021-4.122,8.048-7.277.013-.019-.015-.045-.033-.031-3.509,2.7-7.56,4.393-11.359,6.613-2.754,1.609-6.979,3.984-7.338,7.5a.458.458,0,0,0,.68.478" fill="#fff"/>
            </g>
          </g>
        </g>
        <g id="Group_728" data-name="Group 728" opacity="0.2" style="mix-blend-mode: overlay;isolation: isolate">
          <g id="Group_727" data-name="Group 727">
            <g id="Group_726" data-name="Group 726" clip-path="url(#clip-path-50)">
              <path id="Path_674" data-name="Path 674" d="M152.153,136.406c.984-.208,1.156-1.748.958-2.532a.42.42,0,0,0-.621-.231c-.7.573-1.433,1.858-.724,2.676a.4.4,0,0,0,.387.087" fill="#fff"/>
            </g>
          </g>
        </g>
        <path id="Path_675" data-name="Path 675" d="M121.381,228.4s31.084,9,35.935-14.19c0,0-4.031,4.123-13.383,2.336s-23.023,3.518-22.552,11.854" fill="#ceb500"/>
        <g id="Group_731" data-name="Group 731" opacity="0.2" style="mix-blend-mode: overlay;isolation: isolate">
          <g id="Group_730" data-name="Group 730">
            <g id="Group_729" data-name="Group 729" clip-path="url(#clip-path-51)">
              <path id="Path_676" data-name="Path 676" d="M151.525,222.309c-5.869,2.255-11.741,3.123-17.966,4.006-3.969.564-8.215,1.068-12.007.087a7.223,7.223,0,0,0-.171,2s.449.129,1.228.313a44.322,44.322,0,0,0,28.916-6.4"/>
            </g>
          </g>
        </g>
        <g id="Group_734" data-name="Group 734" opacity="0.2" style="mix-blend-mode: overlay;isolation: isolate">
          <g id="Group_733" data-name="Group 733">
            <g id="Group_732" data-name="Group 732" clip-path="url(#clip-path-52)">
              <path id="Path_677" data-name="Path 677" d="M127.884,222.578c2.025.085,3.957-.761,5.946-1.054,2.1-.309,4.223-.325,6.333-.468,3.7-.251,7.265-.687,10.567-2.463a.024.024,0,0,0-.014-.043c-4.379.662-8.741.177-13.14.277-3.19.072-8.036.1-10.055,3a.459.459,0,0,0,.363.748" fill="#fff"/>
            </g>
          </g>
        </g>
        <g id="Group_737" data-name="Group 737" opacity="0.2" style="mix-blend-mode: overlay;isolation: isolate">
          <g id="Group_736" data-name="Group 736">
            <g id="Group_735" data-name="Group 735" clip-path="url(#clip-path-53)">
              <path id="Path_678" data-name="Path 678" d="M124.19,225.265c.962.295,1.858-.969,2.065-1.75a.419.419,0,0,0-.431-.5c-.892.16-2.154.93-1.93,1.989a.4.4,0,0,0,.3.264" fill="#fff"/>
            </g>
          </g>
        </g>
        <g id="Group_740" data-name="Group 740" opacity="0.2" style="mix-blend-mode: overlay;isolation: isolate">
          <g id="Group_739" data-name="Group 739">
            <g id="Group_738" data-name="Group 738" clip-path="url(#clip-path-54)">
              <path id="Path_679" data-name="Path 679" d="M104.435,202.317a.079.079,0,0,0-.131-.035c-7.527,6.689-10.241,20.209-12.447,29.6-2.217,9.437-4.726,20.136-.733,29.328a1.335,1.335,0,0,0,2.295,0c4.33-9.413,4.343-20.857,6.614-30.944,1.974-8.767,6.433-18.974,4.4-27.949" fill="#fff"/>
            </g>
          </g>
        </g>
        <g id="Group_743" data-name="Group 743" opacity="0.2" style="mix-blend-mode: overlay;isolation: isolate">
          <g id="Group_742" data-name="Group 742">
            <g id="Group_741" data-name="Group 741" clip-path="url(#clip-path-55)">
              <path id="Path_680" data-name="Path 680" d="M96.9,272.386a7.013,7.013,0,0,0-1.982-3.413,1.349,1.349,0,0,0-2.223.587c-.641,2.427.434,5.546,2.74,6.6a.784.784,0,0,0,1.048-.275,4.1,4.1,0,0,0,.417-3.494" fill="#fff"/>
            </g>
          </g>
        </g>
        <path id="Path_681" data-name="Path 681" d="M208.2,106.024s-7.375-10.916,5.673-27.435c0,0,9.581,17.29-5.673,27.435" fill="#ceb500"/>
        <g id="Group_746" data-name="Group 746" opacity="0.2" style="mix-blend-mode: overlay;isolation: isolate">
          <g id="Group_745" data-name="Group 745">
            <g id="Group_744" data-name="Group 744" clip-path="url(#clip-path-56)">
              <path id="Path_682" data-name="Path 682" d="M212.82,84.077c-.3,3.777-2.149,7.227-3.366,10.815-.628,1.851-2.455,8.8.061,10.194.47-.359.91-.726,1.326-1.1,0-.933-.253-2.106-.271-2.609a22.414,22.414,0,0,1,.641-6.148c.917-3.705,2.79-7.523,1.609-11.153"/>
            </g>
          </g>
        </g>
        <path id="Path_683" data-name="Path 683" d="M176.587,163.35s-7.375-10.916,5.673-27.435c0,0,9.581,17.29-5.673,27.435" fill="#ceb500"/>
        <g id="Group_749" data-name="Group 749" opacity="0.2" style="mix-blend-mode: overlay;isolation: isolate">
          <g id="Group_748" data-name="Group 748">
            <g id="Group_747" data-name="Group 747" clip-path="url(#clip-path-57)">
              <path id="Path_684" data-name="Path 684" d="M181.2,141.4c-.3,3.777-2.149,7.227-3.366,10.815-.628,1.851-2.455,8.8.061,10.195.47-.36.91-.727,1.326-1.1,0-.933-.253-2.106-.271-2.608a22.418,22.418,0,0,1,.641-6.149c.917-3.705,2.789-7.523,1.609-11.153"/>
            </g>
          </g>
        </g>
        <path id="Path_685" data-name="Path 685" d="M46.11,135.936s-12.934-2.506-15.385-23.413c0,0,19,5.454,15.385,23.413" fill="#ceb500"/>
        <g id="Group_752" data-name="Group 752" opacity="0.2" style="mix-blend-mode: overlay;isolation: isolate">
          <g id="Group_751" data-name="Group 751">
            <g id="Group_750" data-name="Group 750" clip-path="url(#clip-path-58)">
              <path id="Path_686" data-name="Path 686" d="M33.858,117.15c2.455,2.886,3.59,6.63,5.266,10.028.864,1.753,4.488,7.962,7.251,7.167q.115-.879.16-1.715c-.663-.658-1.669-1.311-2.036-1.654a22.421,22.421,0,0,1-3.894-4.8c-1.971-3.269-3.346-7.292-6.747-9.025"/>
            </g>
          </g>
        </g>
        <path id="Path_687" data-name="Path 687" d="M61.5,202.461s-7.927-10.522,4.254-27.691c0,0,10.458,16.775-4.254,27.691" fill="#ceb500"/>
        <g id="Group_755" data-name="Group 755" opacity="0.2" style="mix-blend-mode: overlay;isolation: isolate">
          <g id="Group_754" data-name="Group 754">
            <g id="Group_753" data-name="Group 753" clip-path="url(#clip-path-59)">
              <path id="Path_688" data-name="Path 688" d="M64.982,180.3c-.109,3.787-1.774,7.328-2.805,10.974-.532,1.88-2,8.918.586,10.178q.675-.574,1.267-1.167c-.052-.931-.361-2.09-.4-2.591a22.385,22.385,0,0,1,.323-6.173c.726-3.748,2.4-7.657,1.033-11.221"/>
            </g>
          </g>
        </g>
        <path id="Path_689" data-name="Path 689" d="M135.221,17.2S136.687,4.112,157.332,0c0,0-3.921,19.375-22.111,17.2" fill="#ceb500"/>
        <g id="Group_758" data-name="Group 758" opacity="0.2" style="mix-blend-mode: overlay;isolation: isolate">
          <g id="Group_757" data-name="Group 757">
            <g id="Group_756" data-name="Group 756" clip-path="url(#clip-path-60)">
              <path id="Path_690" data-name="Path 690" d="M152.969,3.492c-2.681,2.677-6.323,4.108-9.576,6.049-1.679,1-7.578,5.109-6.565,7.8.59.031,1.163.037,1.722.022.6-.712,1.173-1.767,1.486-2.161a22.42,22.42,0,0,1,4.475-4.264c3.1-2.226,7-3.917,8.458-7.446"/>
            </g>
          </g>
        </g>
        <path id="Path_691" data-name="Path 691" d="M19.7,155.078c-.514.056-.584-7.27,6.111-9.422,0,0,1.936,8.552-6.111,9.422" fill="#9b8500"/>
        <path id="Path_692" data-name="Path 692" d="M17.76,150.658a4.279,4.279,0,0,0-1.937-1.557,1.167,1.167,0,0,0-.615-.084.523.523,0,0,0-.431.4c-.047.338.317.568.6.753a6.656,6.656,0,0,1,2.057,2.716c.643,1.252.982,2.977,1.73,4.093,1.566-1.37-.554-5.148-1.408-6.324" fill="#7c6700"/>
        <path id="Path_693" data-name="Path 693" d="M12.764,155.218c-4.277,2.208-4.859,8.529-3.321,12.584a10.985,10.985,0,0,0,11.9,7.248c7.454-1.088,12.533-13.016,7.121-18.839-2.127-2.288-4.962-2.042-7.774-1.712-2.52.3-5.657-.453-7.928.719" fill="#87bfff"/>
        <g id="Group_761" data-name="Group 761" opacity="0.2" style="mix-blend-mode: overlay;isolation: isolate">
          <g id="Group_760" data-name="Group 760">
            <g id="Group_759" data-name="Group 759" clip-path="url(#clip-path-61)">
              <path id="Path_694" data-name="Path 694" d="M28.465,156.212a5.968,5.968,0,0,0-4.083-1.887,9.8,9.8,0,0,1,1.82,6.048,12.467,12.467,0,0,1-3.388,7.841,7.227,7.227,0,0,1-3.027,2.132,5.71,5.71,0,0,1-2.666.149,7.987,7.987,0,0,1-5.944-5.04,9.889,9.889,0,0,1,.565-7.9,8.017,8.017,0,0,1,2.28-2.769l0,0a5.425,5.425,0,0,0-1.263.437c-4.277,2.209-4.858,8.53-3.32,12.585a10.983,10.983,0,0,0,11.9,7.247c7.454-1.088,12.533-13.015,7.121-18.838"/>
            </g>
          </g>
        </g>
        <g id="Group_764" data-name="Group 764" opacity="0.2" style="mix-blend-mode: overlay;isolation: isolate">
          <g id="Group_763" data-name="Group 763">
            <g id="Group_762" data-name="Group 762" clip-path="url(#clip-path-62)">
              <path id="Path_695" data-name="Path 695" d="M12.225,162.954c1.853,4.214,8.434-.313,5.677-4.008-2.815-3.773-7.372.154-5.677,4.008" fill="#fffefa"/>
            </g>
          </g>
        </g>
        <path id="Path_696" data-name="Path 696" d="M101.951,86.485c-.561.061-.637-7.935,6.67-10.284,0,0,2.113,9.334-6.67,10.284" fill="#9b8500"/>
        <path id="Path_697" data-name="Path 697" d="M99.837,81.661a4.669,4.669,0,0,0-2.114-1.7,1.268,1.268,0,0,0-.672-.092.568.568,0,0,0-.469.44c-.052.369.345.619.658.822A7.261,7.261,0,0,1,99.486,84.1c.7,1.366,1.071,3.249,1.888,4.467,1.709-1.5-.6-5.62-1.537-6.9" fill="#7c6700"/>
        <path id="Path_698" data-name="Path 698" d="M94.383,86.638c-4.668,2.41-5.3,9.309-3.624,13.736a11.988,11.988,0,0,0,12.99,7.91c8.136-1.188,13.68-14.206,7.772-20.562-2.321-2.5-5.415-2.229-8.485-1.868-2.75.323-6.175-.5-8.653.784" fill="#87bfff"/>
        <g id="Group_767" data-name="Group 767" opacity="0.2" style="mix-blend-mode: overlay;isolation: isolate">
          <g id="Group_766" data-name="Group 766">
            <g id="Group_765" data-name="Group 765" clip-path="url(#clip-path-63)">
              <path id="Path_699" data-name="Path 699" d="M111.522,87.722a6.506,6.506,0,0,0-4.456-2.059,10.694,10.694,0,0,1,1.986,6.6,13.611,13.611,0,0,1-3.7,8.558,7.883,7.883,0,0,1-3.3,2.327,6.239,6.239,0,0,1-2.91.163,8.721,8.721,0,0,1-6.488-5.5,10.8,10.8,0,0,1,.617-8.625,8.752,8.752,0,0,1,2.489-3.023l0,0a5.932,5.932,0,0,0-1.378.478c-4.668,2.41-5.3,9.309-3.625,13.735a11.99,11.99,0,0,0,12.99,7.911c8.136-1.188,13.68-14.207,7.773-20.562"/>
            </g>
          </g>
        </g>
        <g id="Group_770" data-name="Group 770" opacity="0.2" style="mix-blend-mode: overlay;isolation: isolate">
          <g id="Group_769" data-name="Group 769">
            <g id="Group_768" data-name="Group 768" clip-path="url(#clip-path-64)">
              <path id="Path_700" data-name="Path 700" d="M93.795,95.082c2.023,4.6,9.205-.342,6.2-4.375-3.072-4.118-8.046.168-6.2,4.375" fill="#fffefa"/>
            </g>
          </g>
        </g>
        <path id="Path_701" data-name="Path 701" d="M91.006,196.174c-.456.049-.518-6.443,5.416-8.35,0,0,1.715,7.579-5.416,8.35" fill="#9b8500"/>
        <path id="Path_702" data-name="Path 702" d="M89.289,192.258a3.791,3.791,0,0,0-1.717-1.38,1.035,1.035,0,0,0-.545-.074.462.462,0,0,0-.381.357c-.042.3.28.5.534.667A5.9,5.9,0,0,1,89,194.236a38.923,38.923,0,0,0,1.533,3.626c1.388-1.214-.491-4.562-1.248-5.6" fill="#7c6700"/>
        <path id="Path_703" data-name="Path 703" d="M84.861,196.3c-3.79,1.957-4.306,7.559-2.943,11.153a9.735,9.735,0,0,0,10.547,6.423c6.606-.965,11.108-11.535,6.311-16.7-1.885-2.027-4.4-1.81-6.889-1.517-2.233.263-5.014-.4-7.026.637" fill="#87bfff"/>
        <g id="Group_773" data-name="Group 773" opacity="0.2" style="mix-blend-mode: overlay;isolation: isolate">
          <g id="Group_772" data-name="Group 772">
            <g id="Group_771" data-name="Group 771" clip-path="url(#clip-path-65)">
              <path id="Path_704" data-name="Path 704" d="M98.776,197.179a5.289,5.289,0,0,0-3.618-1.672,8.677,8.677,0,0,1,1.612,5.36,11.05,11.05,0,0,1-3,6.949,6.405,6.405,0,0,1-2.683,1.889,5.059,5.059,0,0,1-2.362.132,7.078,7.078,0,0,1-5.268-4.466,8.765,8.765,0,0,1,.5-7,7.1,7.1,0,0,1,2.02-2.455l0,0a4.783,4.783,0,0,0-1.119.388c-3.791,1.956-4.306,7.558-2.943,11.152a9.735,9.735,0,0,0,10.547,6.423c6.606-.964,11.107-11.535,6.311-16.695"/>
            </g>
          </g>
        </g>
        <g id="Group_776" data-name="Group 776" opacity="0.2" style="mix-blend-mode: overlay;isolation: isolate">
          <g id="Group_775" data-name="Group 775">
            <g id="Group_774" data-name="Group 774" clip-path="url(#clip-path-66)">
              <path id="Path_705" data-name="Path 705" d="M84.383,203.155c1.642,3.735,7.474-.278,5.031-3.552-2.5-3.344-6.533.136-5.031,3.552" fill="#fffefa"/>
            </g>
          </g>
        </g>
      </g>
    </g>
  </g>
</svg>
