<svg id="Group_1006" data-name="Group 1006" xmlns="http://www.w3.org/2000/svg" xmlns:xlink="http://www.w3.org/1999/xlink" width="232.953" height="353.828" viewBox="0 0 232.953 353.828">
  <defs>
    <clipPath id="clip-path">
      <rect id="Rectangle_336" data-name="Rectangle 336" width="232.953" height="353.828" fill="none"/>
    </clipPath>
    <clipPath id="clip-path-3">
      <rect id="Rectangle_261" data-name="Rectangle 261" width="59.777" height="45.839" transform="translate(19.697 292.848)" fill="none"/>
    </clipPath>
    <clipPath id="clip-path-4">
      <rect id="Rectangle_262" data-name="Rectangle 262" width="38.225" height="30.763" transform="translate(111.825 291.048)" fill="none"/>
    </clipPath>
    <clipPath id="clip-path-5">
      <rect id="Rectangle_263" data-name="Rectangle 263" width="129.5" height="27.469" transform="translate(66.873 326.359)" fill="none"/>
    </clipPath>
    <clipPath id="clip-path-6">
      <rect id="Rectangle_264" data-name="Rectangle 264" width="231.698" height="160.065" transform="translate(0 89.333)" fill="none"/>
    </clipPath>
    <clipPath id="clip-path-7">
      <rect id="Rectangle_265" data-name="Rectangle 265" width="142.201" height="172.67" transform="translate(47.606 46.052)" fill="none"/>
    </clipPath>
    <clipPath id="clip-path-8">
      <rect id="Rectangle_266" data-name="Rectangle 266" width="17.74" height="13.035" transform="translate(81.999 33.875)" fill="none"/>
    </clipPath>
    <clipPath id="clip-path-9">
      <rect id="Rectangle_267" data-name="Rectangle 267" width="5.423" height="2.92" transform="translate(74.312 33.105)" fill="none"/>
    </clipPath>
    <clipPath id="clip-path-10">
      <rect id="Rectangle_268" data-name="Rectangle 268" width="10.916" height="13.718" transform="translate(153.657 94.095)" fill="none"/>
    </clipPath>
    <clipPath id="clip-path-11">
      <rect id="Rectangle_269" data-name="Rectangle 269" width="2.36" height="4.316" transform="translate(163.14 87.991)" fill="none"/>
    </clipPath>
    <clipPath id="clip-path-12">
      <rect id="Rectangle_270" data-name="Rectangle 270" width="16.595" height="5.006" transform="translate(171.124 187.415)" fill="none"/>
    </clipPath>
    <clipPath id="clip-path-13">
      <rect id="Rectangle_271" data-name="Rectangle 271" width="3.524" height="3.341" transform="translate(188.936 183.518)" fill="none"/>
    </clipPath>
    <clipPath id="clip-path-14">
      <rect id="Rectangle_272" data-name="Rectangle 272" width="72.182" height="121.297" transform="translate(18.493 161.514)" fill="none"/>
    </clipPath>
    <clipPath id="clip-path-15">
      <rect id="Rectangle_273" data-name="Rectangle 273" width="97.295" height="113.226" transform="translate(103.551 141.537)" fill="none"/>
    </clipPath>
    <clipPath id="clip-path-16">
      <rect id="Rectangle_274" data-name="Rectangle 274" width="42.778" height="106.344" transform="translate(65.823 89.8)" fill="none"/>
    </clipPath>
    <clipPath id="clip-path-17">
      <rect id="Rectangle_275" data-name="Rectangle 275" width="30.52" height="77.782" transform="translate(119.553 54.266)" fill="none"/>
    </clipPath>
    <clipPath id="clip-path-18">
      <rect id="Rectangle_276" data-name="Rectangle 276" width="44.493" height="294.411" transform="translate(90.61 23.142)" fill="none"/>
    </clipPath>
    <clipPath id="clip-path-19">
      <rect id="Rectangle_277" data-name="Rectangle 277" width="26.09" height="29.975" transform="translate(88.38 128.456)" fill="none"/>
    </clipPath>
    <clipPath id="clip-path-20">
      <rect id="Rectangle_278" data-name="Rectangle 278" width="11.131" height="7.55" transform="translate(93.377 123.834)" fill="none"/>
    </clipPath>
    <clipPath id="clip-path-21">
      <rect id="Rectangle_279" data-name="Rectangle 279" width="2.428" height="2.736" transform="translate(105.57 131.977)" fill="none"/>
    </clipPath>
    <clipPath id="clip-path-22">
      <rect id="Rectangle_280" data-name="Rectangle 280" width="10.92" height="12.789" transform="translate(99.649 137.696)" fill="none"/>
    </clipPath>
    <clipPath id="clip-path-23">
      <rect id="Rectangle_281" data-name="Rectangle 281" width="11.506" height="29.993" transform="translate(56.264 44.604)" fill="none"/>
    </clipPath>
    <clipPath id="clip-path-24">
      <rect id="Rectangle_282" data-name="Rectangle 282" width="6.837" height="8.482" transform="translate(60.808 43.227)" fill="none"/>
    </clipPath>
    <clipPath id="clip-path-25">
      <rect id="Rectangle_283" data-name="Rectangle 283" width="1.768" height="2.337" transform="translate(67.174 52.832)" fill="none"/>
    </clipPath>
    <clipPath id="clip-path-26">
      <rect id="Rectangle_284" data-name="Rectangle 284" width="4.082" height="12.636" transform="translate(61.417 54.939)" fill="none"/>
    </clipPath>
    <clipPath id="clip-path-27">
      <rect id="Rectangle_285" data-name="Rectangle 285" width="11.506" height="29.993" transform="translate(80.618 193.035)" fill="none"/>
    </clipPath>
    <clipPath id="clip-path-28">
      <rect id="Rectangle_286" data-name="Rectangle 286" width="6.838" height="8.482" transform="translate(85.163 191.657)" fill="none"/>
    </clipPath>
    <clipPath id="clip-path-29">
      <rect id="Rectangle_287" data-name="Rectangle 287" width="1.768" height="2.337" transform="translate(91.529 201.263)" fill="none"/>
    </clipPath>
    <clipPath id="clip-path-30">
      <rect id="Rectangle_288" data-name="Rectangle 288" width="4.081" height="12.636" transform="translate(85.772 203.369)" fill="none"/>
    </clipPath>
    <clipPath id="clip-path-31">
      <rect id="Rectangle_289" data-name="Rectangle 289" width="11.131" height="56.003" transform="translate(110.203 104.409)" fill="none"/>
    </clipPath>
    <clipPath id="clip-path-32">
      <rect id="Rectangle_290" data-name="Rectangle 290" width="3.24" height="8.007" transform="translate(115.735 166.144)" fill="none"/>
    </clipPath>
    <clipPath id="clip-path-33">
      <rect id="Rectangle_291" data-name="Rectangle 291" width="20.147" height="24.484" transform="translate(111.967 53.569)" fill="none"/>
    </clipPath>
    <clipPath id="clip-path-34">
      <rect id="Rectangle_292" data-name="Rectangle 292" width="12.893" height="22.453" transform="translate(124.051 51.137)" fill="none"/>
    </clipPath>
    <clipPath id="clip-path-35">
      <rect id="Rectangle_293" data-name="Rectangle 293" width="22.934" height="16.875" transform="translate(199.899 126.322)" fill="none"/>
    </clipPath>
    <clipPath id="clip-path-36">
      <rect id="Rectangle_294" data-name="Rectangle 294" width="16.061" height="16.674" transform="translate(211.366 125.14)" fill="none"/>
    </clipPath>
    <clipPath id="clip-path-37">
      <rect id="Rectangle_295" data-name="Rectangle 295" width="22.546" height="17.016" transform="translate(45.776 98.891)" fill="none"/>
    </clipPath>
    <clipPath id="clip-path-38">
      <rect id="Rectangle_296" data-name="Rectangle 296" width="20.464" height="10.67" transform="translate(43.451 94.647)" fill="none"/>
    </clipPath>
    <clipPath id="clip-path-39">
      <rect id="Rectangle_297" data-name="Rectangle 297" width="9.772" height="23.977" transform="translate(71.668 85.399)" fill="none"/>
    </clipPath>
    <clipPath id="clip-path-40">
      <rect id="Rectangle_298" data-name="Rectangle 298" width="8.518" height="15.812" transform="translate(72.722 81.324)" fill="none"/>
    </clipPath>
    <clipPath id="clip-path-41">
      <rect id="Rectangle_299" data-name="Rectangle 299" width="24.125" height="9.398" transform="translate(19.596 184.328)" fill="none"/>
    </clipPath>
    <clipPath id="clip-path-42">
      <rect id="Rectangle_300" data-name="Rectangle 300" width="15.944" height="8.266" transform="translate(15.526 184.595)" fill="none"/>
    </clipPath>
    <clipPath id="clip-path-43">
      <rect id="Rectangle_301" data-name="Rectangle 301" width="17.622" height="3.607" transform="translate(48.099 152.736)" fill="none"/>
    </clipPath>
    <clipPath id="clip-path-44">
      <rect id="Rectangle_302" data-name="Rectangle 302" width="11.94" height="3.719" transform="translate(45.372 153.846)" fill="none"/>
    </clipPath>
    <clipPath id="clip-path-45">
      <rect id="Rectangle_303" data-name="Rectangle 303" width="10.338" height="32.834" transform="translate(9.628 127.875)" fill="none"/>
    </clipPath>
    <clipPath id="clip-path-46">
      <rect id="Rectangle_304" data-name="Rectangle 304" width="7.019" height="25.458" transform="translate(5.549 129.162)" fill="none"/>
    </clipPath>
    <clipPath id="clip-path-47">
      <rect id="Rectangle_305" data-name="Rectangle 305" width="2.715" height="2.52" transform="translate(13.266 155.751)" fill="none"/>
    </clipPath>
    <clipPath id="clip-path-48">
      <rect id="Rectangle_306" data-name="Rectangle 306" width="24.232" height="19.939" transform="translate(150.396 120.569)" fill="none"/>
    </clipPath>
    <clipPath id="clip-path-49">
      <rect id="Rectangle_307" data-name="Rectangle 307" width="18.737" height="14.654" transform="translate(153.398 117.669)" fill="none"/>
    </clipPath>
    <clipPath id="clip-path-50">
      <rect id="Rectangle_308" data-name="Rectangle 308" width="1.708" height="2.846" transform="translate(151.476 133.574)" fill="none"/>
    </clipPath>
    <clipPath id="clip-path-51">
      <rect id="Rectangle_309" data-name="Rectangle 309" width="30.155" height="6.726" transform="translate(121.37 222.309)" fill="none"/>
    </clipPath>
    <clipPath id="clip-path-52">
      <rect id="Rectangle_310" data-name="Rectangle 310" width="23.319" height="4.035" transform="translate(127.422 218.549)" fill="none"/>
    </clipPath>
    <clipPath id="clip-path-53">
      <rect id="Rectangle_311" data-name="Rectangle 311" width="2.399" height="2.302" transform="translate(123.867 223.007)" fill="none"/>
    </clipPath>
    <clipPath id="clip-path-54">
      <rect id="Rectangle_312" data-name="Rectangle 312" width="15.938" height="59.601" transform="translate(89.015 202.262)" fill="none"/>
    </clipPath>
    <clipPath id="clip-path-55">
      <rect id="Rectangle_313" data-name="Rectangle 313" width="4.602" height="7.628" transform="translate(92.51 268.617)" fill="none"/>
    </clipPath>
    <clipPath id="clip-path-56">
      <rect id="Rectangle_314" data-name="Rectangle 314" width="4.975" height="21.01" transform="translate(208.224 84.077)" fill="none"/>
    </clipPath>
    <clipPath id="clip-path-57">
      <rect id="Rectangle_315" data-name="Rectangle 315" width="4.975" height="21.01" transform="translate(176.608 141.403)" fill="none"/>
    </clipPath>
    <clipPath id="clip-path-58">
      <rect id="Rectangle_316" data-name="Rectangle 316" width="12.677" height="17.265" transform="translate(33.858 117.15)" fill="none"/>
    </clipPath>
    <clipPath id="clip-path-59">
      <rect id="Rectangle_317" data-name="Rectangle 317" width="4.223" height="21.152" transform="translate(61.279 180.305)" fill="none"/>
    </clipPath>
    <clipPath id="clip-path-60">
      <rect id="Rectangle_318" data-name="Rectangle 318" width="16.257" height="13.879" transform="translate(136.712 3.492)" fill="none"/>
    </clipPath>
    <clipPath id="clip-path-61">
      <rect id="Rectangle_319" data-name="Rectangle 319" width="31.223" height="29.506" transform="translate(109.455 31.568)" fill="none"/>
    </clipPath>
    <clipPath id="clip-path-62">
      <rect id="Rectangle_320" data-name="Rectangle 320" width="9.499" height="10.239" transform="translate(113.968 35.944)" fill="none"/>
    </clipPath>
    <clipPath id="clip-path-63">
      <rect id="Rectangle_321" data-name="Rectangle 321" width="22.056" height="20.843" transform="translate(8.669 154.325)" fill="none"/>
    </clipPath>
    <clipPath id="clip-path-64">
      <rect id="Rectangle_322" data-name="Rectangle 322" width="6.71" height="7.233" transform="translate(11.857 157.416)" fill="none"/>
    </clipPath>
    <clipPath id="clip-path-65">
      <rect id="Rectangle_323" data-name="Rectangle 323" width="24.074" height="22.75" transform="translate(89.914 85.663)" fill="none"/>
    </clipPath>
    <clipPath id="clip-path-66">
      <rect id="Rectangle_324" data-name="Rectangle 324" width="7.324" height="7.895" transform="translate(93.394 89.037)" fill="none"/>
    </clipPath>
    <clipPath id="clip-path-67">
      <rect id="Rectangle_325" data-name="Rectangle 325" width="31.223" height="29.506" transform="translate(156.999 78.731)" fill="none"/>
    </clipPath>
    <clipPath id="clip-path-68">
      <rect id="Rectangle_326" data-name="Rectangle 326" width="9.499" height="10.238" transform="translate(161.512 83.108)" fill="none"/>
    </clipPath>
    <clipPath id="clip-path-69">
      <rect id="Rectangle_327" data-name="Rectangle 327" width="31.224" height="29.506" transform="translate(184.287 138.699)" fill="none"/>
    </clipPath>
    <clipPath id="clip-path-70">
      <rect id="Rectangle_328" data-name="Rectangle 328" width="9.499" height="10.238" transform="translate(188.8 143.076)" fill="none"/>
    </clipPath>
    <clipPath id="clip-path-71">
      <rect id="Rectangle_329" data-name="Rectangle 329" width="31.224" height="29.506" transform="translate(64.122 136.324)" fill="none"/>
    </clipPath>
    <clipPath id="clip-path-72">
      <rect id="Rectangle_330" data-name="Rectangle 330" width="9.499" height="10.239" transform="translate(68.635 140.7)" fill="none"/>
    </clipPath>
    <clipPath id="clip-path-73">
      <rect id="Rectangle_331" data-name="Rectangle 331" width="24.617" height="23.263" transform="translate(145.024 194.663)" fill="none"/>
    </clipPath>
    <clipPath id="clip-path-74">
      <rect id="Rectangle_332" data-name="Rectangle 332" width="7.489" height="8.072" transform="translate(148.582 198.114)" fill="none"/>
    </clipPath>
    <clipPath id="clip-path-75">
      <rect id="Rectangle_333" data-name="Rectangle 333" width="19.547" height="18.472" transform="translate(81.232 195.507)" fill="none"/>
    </clipPath>
    <clipPath id="clip-path-76">
      <rect id="Rectangle_334" data-name="Rectangle 334" width="5.947" height="6.41" transform="translate(84.058 198.247)" fill="none"/>
    </clipPath>
  </defs>
  <g id="Group_1005" data-name="Group 1005" clip-path="url(#clip-path)">
    <g id="Group_1004" data-name="Group 1004">
      <g id="Group_1003" data-name="Group 1003" clip-path="url(#clip-path)">
        <path id="Path_706" data-name="Path 706" d="M149.592,308.531a7.154,7.154,0,0,0-5.7-4.845,11.387,11.387,0,0,0-7.565,1.618,1.566,1.566,0,0,0-.245.181c1.03-5.089-.418-10.827-4.492-14.01-4.347-3.4-11.672-2.7-14.484,2.047-.816-2.815-2.482-5.638-5.225-6.672s-6.5.693-6.6,3.622c-.189-4.2-5.321-7.327-9.141-5.564.482-2.476-2.189-4.665-4.711-4.627s-3.86,2.116-5.812,3.712c-1.736-4.9-3.77-10.185-8.216-12.885a12.116,12.116,0,0,0-13.221.749,13.038,13.038,0,0,0-4.807,12.461,5.4,5.4,0,0,0-7.241,4.154,4.616,4.616,0,0,0-8.938.3,11.618,11.618,0,0,0,.215,3.619,13.718,13.718,0,0,0-9.576,23.439,3.115,3.115,0,0,0,1.006.707,5.612,5.612,0,0,0-5.138,4.378,5.3,5.3,0,0,0-5.016.746,3.143,3.143,0,0,0,.038,4.5,3.684,3.684,0,0,0-4.451,1.583,4.816,4.816,0,0,0,.218,4.907,3.92,3.92,0,0,0,1.432,1.4,4.07,4.07,0,0,0,3.927-.342,12,12,0,0,0,2.93-2.874,8.919,8.919,0,0,0,7.68,7.751,11.037,11.037,0,0,0,9.938-4.451,4.45,4.45,0,0,0,8.092.347A12.525,12.525,0,0,0,75.135,331.6c3.63-7.547,15.546-8.775,23.9-9.355s16.8-.076,25.064-1.434c7.959-1.308,15.526-4.306,23.022-7.284a6.308,6.308,0,0,0,2.345-1.351c.989-1.044.5-2.256.125-3.643" fill="#3c96d3"/>
        <g id="Group_783" data-name="Group 783" opacity="0.2" style="mix-blend-mode: overlay;isolation: isolate">
          <g id="Group_782" data-name="Group 782">
            <g id="Group_781" data-name="Group 781" clip-path="url(#clip-path-3)">
              <path id="Path_707" data-name="Path 707" d="M75.134,331.6a11.7,11.7,0,0,1,4.34-4.723c-.162-.067-.326-.128-.485-.2a8.336,8.336,0,0,1-8.688,2.559,7.947,7.947,0,0,0-2.833-.694c-.977.067-1.982,1-1.658,1.921a7.463,7.463,0,0,1-7.993-3.892,3.1,3.1,0,0,1-4.9.739c-.8-.9-1.041-2.285-2.058-2.932-.961-.61-2.206-.318-3.342-.386-3.022-.183-5.3-3.139-5.692-6.141s.675-5.993,1.89-8.766c-3.925,1.182-7.7-3.24-7.526-7.336.153-3.732,2.477-5.8,3.96-8.9a13.682,13.682,0,0,0-6.323,22.987,3.156,3.156,0,0,0,1.006.707,5.609,5.609,0,0,0-5.138,4.377,5.3,5.3,0,0,0-5.016.747,3.144,3.144,0,0,0,.038,4.5,3.683,3.683,0,0,0-4.451,1.583,4.816,4.816,0,0,0,.218,4.906,3.935,3.935,0,0,0,1.432,1.4,4.069,4.069,0,0,0,3.928-.342,12.013,12.013,0,0,0,2.929-2.873,8.917,8.917,0,0,0,7.68,7.75,11.037,11.037,0,0,0,9.938-4.45,4.45,4.45,0,0,0,8.092.347A12.524,12.524,0,0,0,75.134,331.6"/>
            </g>
          </g>
        </g>
        <g id="Group_786" data-name="Group 786" opacity="0.2" style="mix-blend-mode: overlay;isolation: isolate">
          <g id="Group_785" data-name="Group 785">
            <g id="Group_784" data-name="Group 784" clip-path="url(#clip-path-4)">
              <path id="Path_708" data-name="Path 708" d="M149.467,312.174c.988-1.044.5-2.256.124-3.643a7.149,7.149,0,0,0-5.7-4.845,11.388,11.388,0,0,0-7.565,1.618,1.565,1.565,0,0,0-.245.181c1.031-5.089-.416-10.827-4.491-14.01-.2-.154-.407-.29-.615-.427.792,3.232-.774,7.151-3.964,8.367,2.6,3.112,4.084,7.448,2.823,11.3s-5.856,6.605-9.585,5.012a20.008,20.008,0,0,1-8.422,6.081,91.739,91.739,0,0,0,12.275-1c7.959-1.308,15.527-4.306,23.023-7.284a6.3,6.3,0,0,0,2.345-1.351"/>
            </g>
          </g>
        </g>
        <path id="Path_709" data-name="Path 709" d="M143.889,303.686a11.383,11.383,0,0,0-7.565,1.619,1.5,1.5,0,0,0-.245.18c1.03-5.089-.417-10.827-4.491-14.01a10.805,10.805,0,0,0-10.61-1.272c2.5,4.4,1.477,10.848-2.836,13.717,1.99,2.452,1.04,6.336-1.222,8.54s-5.44,3.137-8.491,3.951c-8,2.135-16.973,3.876-24.193-.177a8.562,8.562,0,0,1-8.7,3.527c-1.474-.317-2.958-1.036-4.42-.667a12.805,12.805,0,0,0-2.927,1.666,6.23,6.23,0,0,1-7.632-1.444c-.035,2.651-2.889,4.667-5.528,4.419s-4.858-2.242-6.1-4.585a24.161,24.161,0,0,1-2.083-7.635c-4.464,1.518-9.341-2.279-10.668-6.8-1.047-3.57.484-7.263.938-10.656a13.91,13.91,0,0,0-6.307,6.869,14.06,14.06,0,0,0,3.02,14.91,3.145,3.145,0,0,0,1.006.707,5.609,5.609,0,0,0-5.138,4.377,5.3,5.3,0,0,0-5.016.747,3.142,3.142,0,0,0,.038,4.5,3.686,3.686,0,0,0-4.452,1.584,4.816,4.816,0,0,0,.219,4.906,3.925,3.925,0,0,0,1.431,1.4,4.069,4.069,0,0,0,3.928-.342,12.017,12.017,0,0,0,2.93-2.873,8.916,8.916,0,0,0,7.68,7.75,11.039,11.039,0,0,0,9.938-4.45,4.45,4.45,0,0,0,8.092.347A12.523,12.523,0,0,0,75.134,331.6c3.63-7.547,15.547-8.775,23.9-9.354s16.8-.076,25.065-1.435c7.959-1.308,15.527-4.306,23.023-7.284a6.318,6.318,0,0,0,2.345-1.351c.988-1.043.5-2.256.124-3.643a7.151,7.151,0,0,0-5.7-4.845" fill="#3682c1"/>
        <path id="Path_710" data-name="Path 710" d="M71.822,303.514c-1.725-2.142-1.174-5.381.244-7.738,2.232-3.713,6.63-6.2,10.919-5.586s7.98,4.679,7.627,9a5.968,5.968,0,0,1,10.8,2.031,3.353,3.353,0,0,1,5.157.13,4.1,4.1,0,0,1-.825,5.379,5.3,5.3,0,0,1-5.655.448,8.735,8.735,0,0,1-11.262-.168,9.026,9.026,0,0,1-5.346,5.518,18.283,18.283,0,0,1-7.81,1.071,10.315,10.315,0,0,1-4.519-.988,4.625,4.625,0,0,1-2.436-3.569c-2.27,4.8-5.142-.5-4.854-3.395.469-4.721,5.194-5.561,7.959-2.129" fill="#287faf"/>
        <path id="Path_711" data-name="Path 711" d="M190.179,331.218c.481-3.341.9-7.042-.562-9.895a5.545,5.545,0,0,0-4.394-3.16c-1.762-.111-3.564,1.433-4.673,3.138a9.979,9.979,0,0,0-2.594-7.618,6.172,6.172,0,0,0-6.583-1.538c-1.639.632-2.755,2.721-3.027,4.813a18.332,18.332,0,0,0-1.43-5.514c-.814-1.659-2.167-3.016-3.735-3.191a3.859,3.859,0,0,0-3.946,3.063c-1.254-1.512-2.618-3.1-4.349-3.47s-3.933,2.795-3.865,4.964a28.46,28.46,0,0,0-3.527-5.551,7.158,7.158,0,0,0-5.144-2.745c-1.531.011-3.466.768-3.616,2.651-1.485-1.819-3.077-3.714-5.115-4.313s-4.494,1.215-4.864,3.769a5.783,5.783,0,0,0-5.654-2.234,6.978,6.978,0,0,0-4.756,4.45c.467.032-.01.92.229.421a4.334,4.334,0,0,0-5.75-1.937c-1.976,1.074-3.012,3.9-2.578,6.5a20.693,20.693,0,0,0-3.454-5.94c-1.5-1.6-3.621-2.531-5.524-1.79-.772.3-1.779.46-1.228,1.183a7.064,7.064,0,0,0-3.864-1.765,3.805,3.805,0,0,0-2.731.609,2.891,2.891,0,0,0-1.331,2.643,9.651,9.651,0,0,0-8.631,2.521,14.917,14.917,0,0,0-4.4,9.527c-.1,1.087-.374,2.937.421,2.452a4.677,4.677,0,0,0-5.292,1.4c-1.312,1.7-1.27,4.908.365,6.071Z" fill="#26779b"/>
        <path id="Path_712" data-name="Path 712" d="M189.617,321.324a5.54,5.54,0,0,0-4.394-3.16c-1.762-.112-3.564,1.432-4.673,3.137a9.981,9.981,0,0,0-2.594-7.617,6.577,6.577,0,0,0-2.833-1.674c-.036.072-.063.149-.1.219a11.368,11.368,0,0,1-5.859,4.828,10.071,10.071,0,0,1-5.994.7,5.7,5.7,0,0,1-4.3-3.929,6.9,6.9,0,0,1-10.205.69c-2.442,1.568-5.506,1.7-8.407,1.776l-5.8.159c-2.728.074-6.183-.336-7-2.939a6,6,0,0,1-9.376-.55c-2.7,4.192-9.755,4.433-12.732.435a4.646,4.646,0,0,1-4.985,2.835,7.853,7.853,0,0,1-5.082-3.288c-2.249-2.992-1.186-5.069-.475-7.4a3.274,3.274,0,0,0-1.359.571,2.892,2.892,0,0,0-1.33,2.644,9.648,9.648,0,0,0-8.631,2.521,14.914,14.914,0,0,0-4.4,9.527,7.555,7.555,0,0,0-.042,2.329,4.589,4.589,0,0,0-4.83,1.527c-1.311,1.7-1.269,4.908.366,6.07l115.6.483c.481-3.342.9-7.042-.562-9.895" fill="#287faf"/>
        <path id="Path_713" data-name="Path 713" d="M94.992,318.133a9.217,9.217,0,0,1-7.941-7.921,8.128,8.128,0,0,1-.036-1.08,10.409,10.409,0,0,0-3.532,2.15,14.925,14.925,0,0,0-4.4,9.528,7.555,7.555,0,0,0-.042,2.329,4.586,4.586,0,0,0-4.829,1.527c-1.311,1.7-1.27,4.908.366,6.07l23.389.1c5.18-4.035-3.625-7.146-2.977-12.7" fill="#3c96d3"/>
        <path id="Path_714" data-name="Path 714" d="M101.6,327.322a6.583,6.583,0,0,1,8.681-3.227,6.738,6.738,0,0,1,8.808-2.946,4.931,4.931,0,0,0,1.7.714c1.015.1,1.885-.649,2.7-1.263,2.906-2.188,7.731-2.735,9.709.319a4.977,4.977,0,0,1,8-.6c1.3-2.806,5.844-3.247,7.661-.743a5.624,5.624,0,0,1,8.627,1.629c2.454-1.653,6.392.273,6.593,3.225,2.407-1.5,5.792-.072,7.293,2.335s1.571,5.423,1.377,8.254c-1.851-1-4.1-.723-6.18-.387-11.552,1.871-22.971,4.671-34.627,5.705s-23.793.194-34.333-4.888c-2.653-1.279-6.837-2.86-4.22-6.13,1.093-1.367,8.408-2.456,8.217-1.994" fill="#287faf"/>
        <path id="Path_715" data-name="Path 715" d="M171.362,326.762c-1.5-2.407-4.886-3.837-7.293-2.335-.2-2.952-4.139-4.879-6.593-3.225a4.583,4.583,0,0,0-1-1.4,4.018,4.018,0,0,1-1.2.664c1.632,2.078.565,5.424-1.677,6.824s-5.165,1.208-7.649.308a5.644,5.644,0,0,1-7.6-1.26A6.947,6.947,0,0,1,129.5,326c-.557,1.567-2.534,2.232-4.158,1.877a10.421,10.421,0,0,1-4.242-2.523c-.028,1.992-2.39,3.369-4.323,2.888a5.888,5.888,0,0,1-3.868-4.2,4.838,4.838,0,0,1,.017-2.672,6.238,6.238,0,0,0-2.654,2.725,6.582,6.582,0,0,0-8.68,3.227c.191-.463-7.124.626-8.218,1.993-2.616,3.271,1.568,4.852,4.22,6.13,10.541,5.082,22.677,5.922,34.334,4.888,4.787-.424,9.534-1.153,14.266-1.986q10.058-2.4,20.022-5.163c2.27-.631,4.657-1.367,6.391-2.9a9.457,9.457,0,0,0-1.249-3.524" fill="#3c96d3"/>
        <path id="Path_716" data-name="Path 716" d="M196.371,331.444a11.152,11.152,0,0,1-.495-2.333,2.676,2.676,0,0,0-1.119-1.855c-.6-.292-1.205-.013-1.119.781-.792-1.665-1.74-3.478-3.263-3.928-1.5-.443-3.021.613-4.223,1.819a8.609,8.609,0,0,0-2.047,2.935c-.061.158-.114.323-.162.49-.757-2.787-1.9-5.38-4.013-6.5s-4.658-.338-6.615,1.216a8.674,8.674,0,0,0-3.438,6.6c-.9-1.575-2.076-3.07-3.608-3.442a2.945,2.945,0,0,0-3.454,2.813c-.773-2.356-2.084-4.674-4.06-5.389s-4.946.745-4.851,3.289a7.025,7.025,0,0,0-8.21-4.194c-3.128.792-5.769,3.415-7.876,6.387a8.412,8.412,0,0,0-1.525,3.085,4.561,4.561,0,0,0-.08,1.29,7.567,7.567,0,0,0-4.369-3.674,6.566,6.566,0,0,0-6.724,2.324,3.813,3.813,0,0,0-5.331-2.677c-2.009,1.015-3.281,3.233-3.725,5.854a22.787,22.787,0,0,0-8.347-7.051,9.067,9.067,0,0,0-5.07-1.082,5.483,5.483,0,0,0-4.266,3.249,9.317,9.317,0,0,0-1.231-3.692,5.746,5.746,0,0,0-4.3-2.52c-1.628-.17-3.12.862-4.73,1.233A20.61,20.61,0,0,0,85,322.741a5.335,5.335,0,0,0-4.091-1.494,6.992,6.992,0,0,0-3.84,2.415,8.887,8.887,0,0,0-1.988,3c-1.088.307-2.657-.283-3.772-.3-2.111-.04-4.2,2.012-4.417,4.607s1.739,5.2,3.835,4.868c2.692,5.566,9.031,8.435,14.109,6.67,1.378-.479,2.892-1.688,2.96-3.368a8.813,8.813,0,0,0,6.194,8.059c3.259.917,6.661-.042,9.924-1a6.721,6.721,0,0,0,3.8,4.868,4.848,4.848,0,0,0,5.4-.8,2.153,2.153,0,0,1,.837-.573c.543-.126,1.04.348,1.479.757a13.694,13.694,0,0,0,11.027,3.276c3.859-.426,7.572-2,11.24-3.567a8.624,8.624,0,0,0,8.879,2.951c2.992-.95,5.626-3.118,8.194-5.249a8.676,8.676,0,0,0,3.281-4.261,9.647,9.647,0,0,0,13.424.444,9.712,9.712,0,0,0,10.542,3.833c3.776-.984,7.079-3.9,9.709-7.4.563.415,1.477-.32,2.035-.753a4.833,4.833,0,0,0,1.283-1.827,14.967,14.967,0,0,0,1.325-6.446" fill="#87bfff"/>
        <g id="Group_789" data-name="Group 789" opacity="0.2" style="mix-blend-mode: overlay;isolation: isolate">
          <g id="Group_788" data-name="Group 788">
            <g id="Group_787" data-name="Group 787" clip-path="url(#clip-path-5)">
              <path id="Path_717" data-name="Path 717" d="M193.764,339.717a4.854,4.854,0,0,0,1.282-1.827,14.966,14.966,0,0,0,1.325-6.446,11.089,11.089,0,0,1-.495-2.333c-.022-.093-.054-.183-.08-.275a14.607,14.607,0,0,1-3.517,4.551c-1.674,1.431-3.864,2.534-6.022,2.1a5.373,5.373,0,0,0-2-.287,4.125,4.125,0,0,0-1.989,1.462,11.008,11.008,0,0,1-14.83.36c-2.42,3.7-8.92,3.4-11-.5-.306,2.3-.929,4.7-2.586,6.321s-4.614,2.1-6.253.458c-2.284,3.493-8.543,2.955-10.2-.877a7.329,7.329,0,0,1-13.519.579,11.195,11.195,0,0,1-17.608-3.315,7.13,7.13,0,0,1-12.36-2.116,7.344,7.344,0,0,1-9.619-2.657A7.6,7.6,0,0,1,75.37,332.8c-1.054-1.338-.979-3.811-.917-6.061-1.011.028-2.23-.366-3.146-.383-2.111-.04-4.2,2.011-4.417,4.607s1.739,5.2,3.835,4.868c2.691,5.566,9.031,8.435,14.109,6.67,1.378-.479,2.892-1.688,2.96-3.368a8.811,8.811,0,0,0,6.194,8.058c3.259.918,6.661-.041,9.924-1a6.721,6.721,0,0,0,3.8,4.868,4.846,4.846,0,0,0,5.4-.8,2.167,2.167,0,0,1,.837-.573c.544-.126,1.04.348,1.48.756a13.69,13.69,0,0,0,11.026,3.277c3.859-.426,7.572-2,11.24-3.567a8.624,8.624,0,0,0,8.879,2.951c2.992-.95,5.626-3.118,8.194-5.249a8.676,8.676,0,0,0,3.281-4.261,9.647,9.647,0,0,0,13.424.444,9.712,9.712,0,0,0,10.543,3.833c3.776-.984,7.078-3.9,9.709-7.4.563.415,1.475-.32,2.035-.753"/>
            </g>
          </g>
        </g>
        <path id="Path_718" data-name="Path 718" d="M142.254,329.3c-.021.022-.041.045-.061.067-1.843,2.048-2.73,5.423-1.082,7.817,3.682,5.348,15.471-3.006,11.374-8.357-2.491-3.252-7.735-2.223-10.231.473" fill="#65a8ea"/>
        <path id="Path_719" data-name="Path 719" d="M148.315,337.2c.049-.037.1-.081.163-.127l-.059.034-.1.093" fill="#603526"/>
        <path id="Path_720" data-name="Path 720" d="M156.332,329.818a3.162,3.162,0,0,0-.173,3.961,3.084,3.084,0,0,0,4.382,1.012,3.522,3.522,0,0,0,.441-5.175,3.218,3.218,0,0,0-4.65.2" fill="#65a8ea"/>
        <path id="Path_721" data-name="Path 721" d="M181.109,327.9c-1.928-2.673-7.286-3.141-8.475,1.568-1.243,4.927,4.709,7.49,7.817,3.753,1.729-2.079,1.627-3.978.658-5.321" fill="#65a8ea"/>
        <path id="Path_722" data-name="Path 722" d="M120.545,333.445a3.464,3.464,0,0,0-3.5,3.755,3.223,3.223,0,0,0,2.964,2.921,3.454,3.454,0,0,0,3.586-2.585,3.258,3.258,0,0,0-3.054-4.091" fill="#65a8ea"/>
        <path id="Path_723" data-name="Path 723" d="M104.534,329.6a4.663,4.663,0,0,0-6,3.652,3.459,3.459,0,0,0,1.028,3.1c1.267,1.1,2.883.706,4.384.49l-.234.031a3.917,3.917,0,0,0,3.484-3.137,3.835,3.835,0,0,0-2.663-4.131" fill="#65a8ea"/>
        <path id="Path_724" data-name="Path 724" d="M110.271,335.891c-2.847.921-1.9,5.418,1.135,4.919,3.271-.538,1.973-5.925-1.135-4.919" fill="#65a8ea"/>
        <path id="Path_725" data-name="Path 725" d="M132.079,339.06a2.324,2.324,0,0,0-3.408.994,2.477,2.477,0,0,0,1.066,3.267c2.794,1.565,5.007-2.816,2.342-4.261" fill="#65a8ea"/>
        <path id="Path_726" data-name="Path 726" d="M129.213,346.162c-2.354-1.406-4.584,2.094-2.107,3.37,2.148,1.106,4.287-2.068,2.107-3.37" fill="#65a8ea"/>
        <path id="Path_727" data-name="Path 727" d="M145.658,343.053c-2.562-1.5-5.191,2.139-2.633,3.8,2.436,1.581,5.472-2.139,2.633-3.8" fill="#65a8ea"/>
        <path id="Path_728" data-name="Path 728" d="M231.291,121.1a20.025,20.025,0,0,0-5.86-18.488,11.942,11.942,0,0,0-23.68-3.085c-4.5-3.428-11.2-2.993-15.923.119a18.5,18.5,0,0,0-3.135,2.561,29.334,29.334,0,0,0,1.862-15.261c-1.495-8.606-9.777-16.446-18.328-14.662a42.775,42.775,0,0,0,7.557-27.523c-.258-3.4-1.01-6.94-3.26-9.5s-6.368-3.723-9.171-1.785a38.068,38.068,0,0,0-4.2-21.579c-1.839-3.471-4.439-6.819-8.137-8.144s-8.586.178-9.823,3.907a10.173,10.173,0,0,0-19.781,3.469c-1.226-5.384-8.559-7.369-13.534-4.971A20.616,20.616,0,0,0,95.234,16.752C95.522,12,91.628,7.667,87.038,6.4s-9.572.038-13.7,2.406A29.143,29.143,0,0,0,59.689,39.232C56,34.757,47.958,37.1,45.347,42.281s-1.21,11.477,1.13,16.781c-4.387-.572-8.6,2.557-10.63,6.488s-2.318,8.508-2.4,12.931A14.22,14.22,0,0,0,19.287,87.42c-2.092,5.619.618,13.906,5.48,17.413a10.855,10.855,0,0,0-2.776,8.7c-3.988,2.153-8.1,4.412-10.84,8.021s-3.718,8.976-1.049,12.638c-6.755-1.058-10.9,7.755-9.974,14.53a27.039,27.039,0,0,0,10.284,17.648c-3.251-1.256-7.087,1.046-8.422,4.266s-.663,6.952.739,10.143c4.509,10.267,16.936,16.331,27.8,13.567-4.474,2.948-3.172,10.445,1.1,13.684s10.036,3.439,15.4,3.5a9.987,9.987,0,1,0,12.2,15.766c-.528,6.8,4.328,11.611,10.883,13.486a15.411,15.411,0,0,0,17.354-7.469c.287,4.878,2.911,7.934,7.8,8.084s7.856-1.1,8.442-5.954c.377,6.963,6.6,12.825,13.507,13.786s13.985-2.425,18.481-7.755c3.064-3.633,4.937-9.369,1.795-12.935,3.1,2.925,8.119,1.062,11.881-.934,3.284-1.742,6.65-3.55,9.059-6.381s3.667-6.965,2.118-10.344c1.1,4.21,7.229,4.333,11.094,2.334,8.765-4.534,16.051-14.255,13.571-23.807,1.458,3.735,6.08,5.437,10.034,4.771s7.344-3.139,10.426-5.7c3.5-2.915,6.951-6.234,8.4-10.554s.234-9.85-3.8-11.969c6.844-1.9,13.419-6.341,15.832-13.02s-.84-15.456-7.687-17.335a20.026,20.026,0,0,0,12.878-14.5" fill="#e5d100"/>
        <g id="Group_792" data-name="Group 792" opacity="0.2" style="mix-blend-mode: overlay;isolation: isolate">
          <g id="Group_791" data-name="Group 791">
            <g id="Group_790" data-name="Group 790" clip-path="url(#clip-path-6)">
              <path id="Path_729" data-name="Path 729" d="M231.291,121.1a20.025,20.025,0,0,0-5.86-18.488,11.879,11.879,0,0,0-22.059-7.386c6.278,8.316,11.87,17.23,13.557,27.4,2.09,12.6-4.044,27.527-16.374,30.866,4.716,14.324-4.449,31.651-18.944,35.813-2.868.824-5.955,1.229-8.406,2.931-2.37,1.644-3.817,4.275-5.313,6.741-3.167,5.224-7.065,10.249-12.427,13.177s-12.455,3.327-17.335-.349a23.282,23.282,0,0,1-43.1,3.083c-8.049,5.284-19.517,1.3-25.64-6.129s-8.243-17.278-10.171-26.711c-7.807.179-14.548-6.207-17.327-13.5s-2.46-15.356-2.1-23.157c-17.031-.5-23.009-12.317-27.185-25.489a17.155,17.155,0,0,0-1.457,1.655c-2.74,3.61-3.718,8.976-1.049,12.638-6.755-1.058-10.9,7.755-9.974,14.53a27.039,27.039,0,0,0,10.284,17.648c-3.251-1.256-7.087,1.046-8.422,4.266s-.663,6.952.739,10.143c4.509,10.267,16.936,16.331,27.8,13.567-4.474,2.948-3.172,10.445,1.1,13.684s10.036,3.439,15.4,3.5a9.987,9.987,0,1,0,12.2,15.766c-.528,6.8,4.328,11.611,10.883,13.486a15.411,15.411,0,0,0,17.354-7.469c.287,4.878,2.911,7.934,7.8,8.084s7.856-1.1,8.442-5.954c.377,6.963,6.6,12.825,13.507,13.786s13.985-2.425,18.481-7.755c3.064-3.633,4.937-9.369,1.795-12.935,3.1,2.925,8.119,1.062,11.881-.934,3.284-1.742,6.65-3.55,9.059-6.381s3.667-6.965,2.118-10.344c1.1,4.21,7.229,4.333,11.094,2.334,8.765-4.534,16.051-14.255,13.571-23.807,1.458,3.735,6.08,5.437,10.034,4.771s7.344-3.139,10.426-5.7c3.5-2.915,6.951-6.234,8.4-10.554s.234-9.85-3.8-11.969c6.844-1.9,13.419-6.341,15.832-13.02s-.84-15.456-7.687-17.335a20.026,20.026,0,0,0,12.878-14.5"/>
            </g>
          </g>
        </g>
        <g id="Group_795" data-name="Group 795" opacity="0.2" style="mix-blend-mode: overlay;isolation: isolate">
          <g id="Group_794" data-name="Group 794">
            <g id="Group_793" data-name="Group 793" clip-path="url(#clip-path-7)">
              <path id="Path_730" data-name="Path 730" d="M65.267,198.451c-3.146-3.2-5.332-7.607-4.909-12.072s3.966-8.726,8.44-9.054c-6.678-.71-9.543-11.074-4.178-15.113-4.552-2.344-9.444-5.045-11.425-9.766s1.267-11.63,6.346-10.988c-5.491-5.644-10.69-12.21-11.776-20.009s3.494-16.847,11.268-18.1A23.049,23.049,0,0,1,79.666,68.6c-1.191-4,.536-8.437,3.452-11.419s6.849-4.742,10.788-6.116c2.285-.8,4.731-1.494,7.1-.982s4.548,2.637,4.3,5.043c1.2-6.726,9.444-10.2,16.121-8.752s12.024,6.28,17.027,10.932c4.3-3.349,10.953-2.39,15.016,1.246s5.814,9.31,5.879,14.763c.02,1.7-.079,3.51.775,4.981.882,1.519,2.578,2.328,4.088,3.227a24.329,24.329,0,0,1,10.433,27.395c9.932,2.549,15.028,16.114,9.23,24.572,2.986,4.056,5.768,8.6,5.933,13.639s-3.223,10.5-8.239,10.942a15.088,15.088,0,0,1-15,22.1c4.4,6.458-.119,15.907-7.07,19.477s-15.22,2.953-23,2.248a22.884,22.884,0,0,1-36.616,11.658c-9.691.97-10.964-2.077-17.86-6.745-5.34-3.615-11.819-3.345-16.75-8.357" fill="#fff"/>
            </g>
          </g>
        </g>
        <path id="Path_731" data-name="Path 731" d="M105.879,75.69s2.359-11.593-2.045-17.411-16.812-1.44-32.938-16.5S60.264,29.833,60.264,29.833L92.371,42.556,105.133,54.17s5.609,10.638.746,21.52" fill="#bfa800"/>
        <path id="Path_732" data-name="Path 732" d="M108.064,62.269A29.209,29.209,0,0,0,97.6,39.387C86.048,29.4,60.264,29.833,60.264,29.833s18.09,15.437,35.75,21.189,9.865,24.668,9.865,24.668,3.244-5.162,2.185-13.421" fill="#ceb500"/>
        <g id="Group_798" data-name="Group 798" opacity="0.2" style="mix-blend-mode: overlay;isolation: isolate">
          <g id="Group_797" data-name="Group 797">
            <g id="Group_796" data-name="Group 796" clip-path="url(#clip-path-8)">
              <path id="Path_733" data-name="Path 733" d="M82.276,34.394c3.883-2.011,9.066,2.312,11.937,4.637.55.446,7.528,6.634,4.961,7.717s-5.954-3.529-7.634-4.791c-2.832-2.128-8-3.423-9.477-6.784a.583.583,0,0,1,.213-.779" fill="#fff"/>
            </g>
          </g>
        </g>
        <g id="Group_801" data-name="Group 801" opacity="0.2" style="mix-blend-mode: overlay;isolation: isolate">
          <g id="Group_800" data-name="Group 800">
            <g id="Group_799" data-name="Group 799" clip-path="url(#clip-path-9)">
              <path id="Path_734" data-name="Path 734" d="M74.585,33.672a2.87,2.87,0,0,1,2.62-.467,7,7,0,0,1,1.294.243,4.125,4.125,0,0,1,1.1.789.273.273,0,0,1,.092.369,3.315,3.315,0,0,1-.93,1.048,4.014,4.014,0,0,1-1.588.36c-1.011.069-2.305-.15-2.751-1.185a1,1,0,0,1,.162-1.157" fill="#fff"/>
            </g>
          </g>
        </g>
        <path id="Path_735" data-name="Path 735" d="M130.447,111.578s9.146,2.317,13.948-.971,1.782-13.34,14.388-25.618S168.7,76.97,168.7,76.97l-11.35,25.1-9.735,9.729s-8.687,4.066-17.172-.219" fill="#bfa800"/>
        <path id="Path_736" data-name="Path 736" d="M141.056,113.826a23.3,23.3,0,0,0,18.626-7.474c8.392-8.824,9.022-29.382,9.022-29.382S155.722,90.8,150.472,104.651s-20.026,6.927-20.026,6.927a17.231,17.231,0,0,0,10.61,2.248" fill="#ceb500"/>
        <g id="Group_804" data-name="Group 804" opacity="0.2" style="mix-blend-mode: overlay;isolation: isolate">
          <g id="Group_803" data-name="Group 803">
            <g id="Group_802" data-name="Group 802" clip-path="url(#clip-path-10)">
              <path id="Path_737" data-name="Path 737" d="M164.238,94.335c1.455,3.169-2.184,7.135-4.146,9.335-.376.421-5.569,5.746-6.335,3.66s3.036-4.61,4.106-5.9c1.8-2.176,3.029-6.245,5.762-7.294a.465.465,0,0,1,.613.2" fill="#fff"/>
            </g>
          </g>
        </g>
        <g id="Group_807" data-name="Group 807" opacity="0.2" style="mix-blend-mode: overlay;isolation: isolate">
          <g id="Group_806" data-name="Group 806">
            <g id="Group_805" data-name="Group 805" clip-path="url(#clip-path-11)">
              <path id="Path_738" data-name="Path 738" d="M165.1,88.235a2.29,2.29,0,0,1,.273,2.1,5.566,5.566,0,0,1-.242,1.022,3.276,3.276,0,0,1-.671.847.216.216,0,0,1-.3.059,2.645,2.645,0,0,1-.8-.78,3.176,3.176,0,0,1-.226-1.279,2.112,2.112,0,0,1,1.047-2.147.794.794,0,0,1,.916.173" fill="#fff"/>
            </g>
          </g>
        </g>
        <path id="Path_739" data-name="Path 739" d="M189.994,177.7c-17.588.53-22.157,9.978-27.918,9.156a10.16,10.16,0,0,1-3.981-1.611l-.846,1.079a22.474,22.474,0,0,0,6.4,3.589l13.75-.591,25.328-10.827s4.856-1.324-12.732-.795" fill="#bfa800"/>
        <path id="Path_740" data-name="Path 740" d="M170.58,186.571c-5.637,2.838-9.995,1.723-13.146-.486l-.419.534c.142.116.276.234.424.35a23.3,23.3,0,0,0,18.779,7.08c12.149-.831,26.508-15.557,26.508-15.557s-18.914,1.418-32.146,8.079" fill="#ceb500"/>
        <g id="Group_810" data-name="Group 810" opacity="0.2" style="mix-blend-mode: overlay;isolation: isolate">
          <g id="Group_809" data-name="Group 809">
            <g id="Group_808" data-name="Group 808" clip-path="url(#clip-path-12)">
              <path id="Path_741" data-name="Path 741" d="M187.7,188.271c-1.069,3.32-6.433,3.782-9.366,4.078-.562.057-7.988.471-7.143-1.584s5.354-1.346,7.014-1.574c2.8-.386,6.454-2.555,9.178-1.481a.465.465,0,0,1,.317.561" fill="#fff"/>
            </g>
          </g>
        </g>
        <g id="Group_813" data-name="Group 813" opacity="0.2" style="mix-blend-mode: overlay;isolation: isolate">
          <g id="Group_812" data-name="Group 812">
            <g id="Group_811" data-name="Group 811" clip-path="url(#clip-path-13)">
              <path id="Path_742" data-name="Path 742" d="M192.46,184.361c-.021.828-.612,1.279-1.221,1.736a5.542,5.542,0,0,1-.87.589,3.246,3.246,0,0,1-1.066.171.218.218,0,0,1-.26-.157,2.658,2.658,0,0,1-.062-1.115,3.191,3.191,0,0,1,.7-1.1,2.11,2.11,0,0,1,2.223-.874.8.8,0,0,1,.558.746" fill="#fff"/>
            </g>
          </g>
        </g>
        <path id="Path_743" data-name="Path 743" d="M92.51,241.928s-29.278-45.31-78.594-85.66c0,0,68.057,75.257,75.1,130.035Z" fill="#bfa800"/>
        <g id="Group_816" data-name="Group 816" opacity="0.2" style="mix-blend-mode: overlay;isolation: isolate">
          <g id="Group_815" data-name="Group 815">
            <g id="Group_814" data-name="Group 814" clip-path="url(#clip-path-14)">
              <path id="Path_744" data-name="Path 744" d="M88.48,282.811a7.809,7.809,0,0,0,.829-.243l1.365-17.329C81.963,239.465,65.65,216.826,49.6,194.732A157.869,157.869,0,0,0,36.322,178.07a158.046,158.046,0,0,0-11.943-10.9c-1.568-1.337-3.645-3.573-5.886-5.657,14.994,17.541,62.14,75.639,69.987,121.3"/>
            </g>
          </g>
        </g>
        <path id="Path_745" data-name="Path 745" d="M138.676,190.414s-3.727-23.612,15.493-57c0,0-12,46.112-3.746,51.841Z" fill="#bfa800"/>
        <path id="Path_746" data-name="Path 746" d="M95.341,242.293c-7.583-1.352,28.6-46.1,67.3-68.68,41.479-24.194,46.617-76.336,46.617-76.336s8.386,45.242-44.366,88.492c-60.485,49.589-70.071,88.578-70.071,88.578Z" fill="#bfa800"/>
        <g id="Group_819" data-name="Group 819" opacity="0.2" style="mix-blend-mode: overlay;isolation: isolate">
          <g id="Group_818" data-name="Group 818">
            <g id="Group_817" data-name="Group 817" clip-path="url(#clip-path-15)">
              <path id="Path_747" data-name="Path 747" d="M164.9,185.768c18.516-15.18,29.493-30.6,35.951-44.232a136.311,136.311,0,0,1-32.166,36.308c-11.132,8.777-23.481,15.945-34.39,25-10.025,8.319-20.25,19.878-26.094,31.7a49.021,49.021,0,0,0-4.645,20.225c9.089-16.126,27.012-40.847,61.344-68.995"/>
            </g>
          </g>
        </g>
        <path id="Path_748" data-name="Path 748" d="M108.779,181.412S61.01,118.356,68.605,54.266c0,0-18.488,93.034,39.687,142.652Z" fill="#bfa800"/>
        <g id="Group_822" data-name="Group 822" opacity="0.2" style="mix-blend-mode: overlay;isolation: isolate">
          <g id="Group_821" data-name="Group 821">
            <g id="Group_820" data-name="Group 820" clip-path="url(#clip-path-16)">
              <path id="Path_749" data-name="Path 749" d="M93.406,166.172c-11.276-19.366-22.772-39.341-26.042-61.51a114.428,114.428,0,0,1-1.1-14.843,3.4,3.4,0,0,1-.44-.019c.2,31.3,7.306,76.437,41.593,106.344q.462-.249.918-.508l.268-8.549c-6.273-5.77-10.852-13.457-15.195-20.915"/>
            </g>
          </g>
        </g>
        <path id="Path_750" data-name="Path 750" d="M121.763,112.539s22.744-24.874,28.309-58.273c0,0,.719,62.776-30.518,77.782Z" fill="#bfa800"/>
        <g id="Group_825" data-name="Group 825" opacity="0.2" style="mix-blend-mode: overlay;isolation: isolate">
          <g id="Group_824" data-name="Group 824">
            <g id="Group_823" data-name="Group 823" clip-path="url(#clip-path-17)">
              <path id="Path_751" data-name="Path 751" d="M119.553,132.048c31.237-15.006,30.518-77.782,30.518-77.782a101.8,101.8,0,0,1-3.925,15.582c-1.106,14.069-4.036,27.755-11.528,39.547a46,46,0,0,1-7.791,9.436c-1.744,1.583-4.424,2.876-6.293,4.555Z"/>
            </g>
          </g>
        </g>
        <path id="Path_752" data-name="Path 752" d="M76.189,150.235s-17.5-1.787-32.667-18.187c0,0,14.148,27.167,40.552,35.169Z" fill="#bfa800"/>
        <path id="Path_753" data-name="Path 753" d="M118.373,104.355c-16.1-34.167,4.045-63.128,4.654-63.99,1.963-2.8,4.128-5.659,6.457-8.415,3.473-6.367,8.079-12.092,12.45-18.054l.6-.823c-9.5,5.558-15.129,11.954-26.768,26.747-19.709,25.052-8.4,69.129-6.242,76a68.925,68.925,0,0,1,2.513,10.774c2.159,14.936,4.564,49.074-12.708,74.951,0,0-33.476,50.63.564,116.875L127.9,316.29s-29.1-54.908-6.8-112.405H121.1c8.552-12.944,14.765-62.046-2.727-99.53" fill="#bfa800"/>
        <g id="Group_828" data-name="Group 828" opacity="0.2" style="mix-blend-mode: overlay;isolation: isolate">
          <g id="Group_827" data-name="Group 827">
            <g id="Group_826" data-name="Group 826" clip-path="url(#clip-path-18)">
              <path id="Path_754" data-name="Path 754" d="M120.441,205.908a114.07,114.07,0,0,0,9.081-43.728c.273-16.775-1.982-33.84-7.759-49.641q-1.518-4.147-3.38-8.16l-.156.076.146-.1c-16.1-34.168,4.045-63.129,4.654-63.991,1.963-2.8,4.128-5.659,6.457-8.415a85.832,85.832,0,0,1,5.618-8.808c-.875.681-1.761,1.35-2.606,2.071a67.678,67.678,0,0,0-17.147,80.643s11.813,29.374,7.85,68.568a62.506,62.506,0,0,1-5.479,20.108c-4.33,9.291-11.05,26.509-11.365,44.418-.467,26.516,4.44,50.532-4.268,55.034-3.38,1.748-7.588,2.132-11.477,1.956q1.135,3.586,2.535,7.259c7.767,22.21,17.992,11.3,23.718,13.931l5.7-.434a56.943,56.943,0,0,0,2.5-6.564c.317-.955-1.96-4.868-2.339-5.883q-1.462-3.922-2.715-7.92a162.951,162.951,0,0,1-5.009-20.5,139.316,139.316,0,0,1,.648-53.806,92.96,92.96,0,0,1,4.793-16.115"/>
            </g>
          </g>
        </g>
        <path id="Path_755" data-name="Path 755" d="M114.271,158.431s-9.435-16.1-20.1-20.115-14.711-11.962-14.711-11.962,17.587-9.46,26.4,1.6c10.873,13.639,8.411,30.48,8.411,30.48" fill="#ceb500"/>
        <g id="Group_831" data-name="Group 831" opacity="0.2" style="mix-blend-mode: overlay;isolation: isolate">
          <g id="Group_830" data-name="Group 830">
            <g id="Group_829" data-name="Group 829" clip-path="url(#clip-path-19)">
              <path id="Path_756" data-name="Path 756" d="M110.295,142.117a24.087,24.087,0,0,0-4.709-7.2c-4.477-4.422-11.007-5.382-17.206-6.458,7.507,1.246,14.067,6.189,18.444,12.415a50.5,50.5,0,0,1,7.4,17.489l.043.071s.131-.918.2-2.485a52.951,52.951,0,0,0-4.175-13.829"/>
            </g>
          </g>
        </g>
        <g id="Group_834" data-name="Group 834" opacity="0.2" style="mix-blend-mode: overlay;isolation: isolate">
          <g id="Group_833" data-name="Group 833">
            <g id="Group_832" data-name="Group 832" clip-path="url(#clip-path-20)">
              <path id="Path_757" data-name="Path 757" d="M94.381,123.938a1.435,1.435,0,0,0-.339,2.592c1.631,1.125,3.56,1.681,5.245,2.737,1.457.912,2.75,2.123,4.548,2.116a.626.626,0,0,0,.6-.454c.9-4.458-6.512-7.729-10.051-6.991" fill="#fff"/>
            </g>
          </g>
        </g>
        <g id="Group_837" data-name="Group 837" opacity="0.2" style="mix-blend-mode: overlay;isolation: isolate">
          <g id="Group_836" data-name="Group 836">
            <g id="Group_835" data-name="Group 835" clip-path="url(#clip-path-21)">
              <path id="Path_758" data-name="Path 758" d="M107.252,132.249a1.792,1.792,0,0,0-.681-.264,1.069,1.069,0,0,0-.563.1c-.116.044-.106.122-.283.085a.086.086,0,0,0-.083.143c.122.142-.071.324-.071.535a2.49,2.49,0,0,0,.108.606,1.781,1.781,0,0,0,.884,1.132.949.949,0,0,0,1.383-.563,1.57,1.57,0,0,0-.694-1.778" fill="#fff"/>
            </g>
          </g>
        </g>
        <g id="Group_840" data-name="Group 840" opacity="0.2" style="mix-blend-mode: overlay;isolation: isolate">
          <g id="Group_839" data-name="Group 839">
            <g id="Group_838" data-name="Group 838" clip-path="url(#clip-path-22)">
              <path id="Path_759" data-name="Path 759" d="M105.664,141.8c-1.7-2.308-3.017-3.648-5.85-4.1-.131-.021-.24.165-.1.234,2.119,1.034,3.7,4.644,5.151,6.448,1.649,2.051,3.111,4.471,5.239,6.054.225.167.52-.109.454-.35-.8-2.913-3.115-5.86-4.895-8.281" fill="#fff"/>
            </g>
          </g>
        </g>
        <path id="Path_760" data-name="Path 760" d="M65.424,74.6s-1.683-14.676-8.123-21a22.237,22.237,0,0,1-6.826-13.371s15.763-1.224,18.61,9.6C72.6,63.188,65.424,74.6,65.424,74.6" fill="#ceb500"/>
        <g id="Group_843" data-name="Group 843" opacity="0.2" style="mix-blend-mode: overlay;isolation: isolate">
          <g id="Group_842" data-name="Group 842">
            <g id="Group_841" data-name="Group 841" clip-path="url(#clip-path-23)">
              <path id="Path_761" data-name="Path 761" d="M67.765,61.51a19.139,19.139,0,0,0-1.1-6.724c-1.829-4.634-6.25-7.419-10.4-10.182,5.039,3.3,8.207,8.984,9.385,14.893a40.017,40.017,0,0,1-.233,15.035l.008.065s.389-.622.94-1.736a41.971,41.971,0,0,0,1.4-11.351"/>
            </g>
          </g>
        </g>
        <g id="Group_846" data-name="Group 846" opacity="0.2" style="mix-blend-mode: overlay;isolation: isolate">
          <g id="Group_845" data-name="Group 845">
            <g id="Group_844" data-name="Group 844" clip-path="url(#clip-path-24)">
              <path id="Path_762" data-name="Path 762" d="M62.056,43.252c-1.018-.217-1.542,1.009-1.075,1.769.822,1.337,2.041,2.357,2.923,3.66.763,1.127,1.312,2.418,2.617,2.988a.5.5,0,0,0,.577-.138c2.082-2.939-2.243-7.681-5.042-8.279" fill="#fff"/>
            </g>
          </g>
        </g>
        <g id="Group_849" data-name="Group 849" opacity="0.2" style="mix-blend-mode: overlay;isolation: isolate">
          <g id="Group_848" data-name="Group 848">
            <g id="Group_847" data-name="Group 847" clip-path="url(#clip-path-25)">
              <path id="Path_763" data-name="Path 763" d="M68.718,53.389a1.411,1.411,0,0,0-.409-.409.841.841,0,0,0-.441-.1c-.1-.005-.115.055-.232-.029a.068.068,0,0,0-.106.077c.043.142-.155.212-.222.365a1.937,1.937,0,0,0-.116.473,1.415,1.415,0,0,0,.277,1.1.753.753,0,0,0,1.183.035,1.245,1.245,0,0,0,.066-1.51" fill="#fff"/>
            </g>
          </g>
        </g>
        <g id="Group_852" data-name="Group 852" opacity="0.2" style="mix-blend-mode: overlay;isolation: isolate">
          <g id="Group_851" data-name="Group 851">
            <g id="Group_850" data-name="Group 850" clip-path="url(#clip-path-26)">
              <path id="Path_764" data-name="Path 764" d="M64.511,59.8c-.491-2.214-1.018-3.607-2.923-4.845-.088-.057-.227.043-.147.138,1.2,1.427,1.194,4.548,1.667,6.318.539,2.013.823,4.234,1.858,6.061.109.193.411.087.441-.108.351-2.366-.381-5.241-.9-7.564" fill="#fff"/>
            </g>
          </g>
        </g>
        <path id="Path_765" data-name="Path 765" d="M89.779,223.028s-1.683-14.676-8.123-21a22.237,22.237,0,0,1-6.826-13.371s15.764-1.224,18.61,9.6c3.511,13.357-3.661,24.766-3.661,24.766" fill="#ceb500"/>
        <g id="Group_855" data-name="Group 855" opacity="0.2" style="mix-blend-mode: overlay;isolation: isolate">
          <g id="Group_854" data-name="Group 854">
            <g id="Group_853" data-name="Group 853" clip-path="url(#clip-path-27)">
              <path id="Path_766" data-name="Path 766" d="M92.119,209.941a19.117,19.117,0,0,0-1.105-6.724c-1.828-4.634-6.25-7.419-10.4-10.182,5.039,3.3,8.208,8.984,9.386,14.893a40,40,0,0,1-.233,15.035l.007.065s.39-.623.94-1.736a41.931,41.931,0,0,0,1.4-11.351"/>
            </g>
          </g>
        </g>
        <g id="Group_858" data-name="Group 858" opacity="0.2" style="mix-blend-mode: overlay;isolation: isolate">
          <g id="Group_857" data-name="Group 857">
            <g id="Group_856" data-name="Group 856" clip-path="url(#clip-path-28)">
              <path id="Path_767" data-name="Path 767" d="M86.41,191.683c-1.018-.217-1.542,1.009-1.075,1.769.822,1.337,2.041,2.356,2.923,3.66.763,1.127,1.312,2.418,2.617,2.988a.494.494,0,0,0,.577-.138c2.083-2.939-2.243-7.681-5.042-8.279" fill="#fff"/>
            </g>
          </g>
        </g>
        <g id="Group_861" data-name="Group 861" opacity="0.2" style="mix-blend-mode: overlay;isolation: isolate">
          <g id="Group_860" data-name="Group 860">
            <g id="Group_859" data-name="Group 859" clip-path="url(#clip-path-29)">
              <path id="Path_768" data-name="Path 768" d="M93.073,201.82a1.411,1.411,0,0,0-.409-.409.841.841,0,0,0-.441-.1c-.1-.005-.115.055-.232-.029a.068.068,0,0,0-.106.077c.043.142-.155.212-.222.365a1.937,1.937,0,0,0-.116.473,1.415,1.415,0,0,0,.277,1.1.753.753,0,0,0,1.183.035,1.245,1.245,0,0,0,.066-1.51" fill="#fff"/>
            </g>
          </g>
        </g>
        <g id="Group_864" data-name="Group 864" opacity="0.2" style="mix-blend-mode: overlay;isolation: isolate">
          <g id="Group_863" data-name="Group 863">
            <g id="Group_862" data-name="Group 862" clip-path="url(#clip-path-30)">
              <path id="Path_769" data-name="Path 769" d="M88.866,208.231c-.491-2.214-1.018-3.607-2.923-4.845-.088-.057-.227.043-.147.138,1.2,1.427,1.194,4.547,1.667,6.318.539,2.013.823,4.233,1.858,6.061.109.193.412.088.441-.108.351-2.367-.381-5.241-.9-7.564" fill="#fff"/>
            </g>
          </g>
        </g>
        <g id="Group_867" data-name="Group 867" opacity="0.2" style="mix-blend-mode: overlay;isolation: isolate">
          <g id="Group_866" data-name="Group 866">
            <g id="Group_865" data-name="Group 865" clip-path="url(#clip-path-31)">
              <path id="Path_770" data-name="Path 770" d="M119.554,132.048c-1.573-8.969-3.739-20.164-9.248-27.615-.029-.039-.108-.033-.1.027.417,4.228,1.927,8.283,2.906,12.406a153.555,153.555,0,0,1,2.861,15.667c1.181,9.083.545,18.46,2.441,27.4.143.677,1.091.586,1.281,0,2.856-8.81,1.437-18.9-.139-27.889" fill="#fff"/>
            </g>
          </g>
        </g>
        <g id="Group_870" data-name="Group 870" opacity="0.2" style="mix-blend-mode: overlay;isolation: isolate">
          <g id="Group_869" data-name="Group 869">
            <g id="Group_868" data-name="Group 868" clip-path="url(#clip-path-32)">
              <path id="Path_771" data-name="Path 771" d="M118.362,166.7c-.253-.3-.8-.75-1.236-.461-1.018.679-.932,2.148-1.061,3.245a16.07,16.07,0,0,0-.265,4.14.722.722,0,0,0,1.056.43,5.892,5.892,0,0,0,2.117-4.8,4.058,4.058,0,0,0-.611-2.557" fill="#fff"/>
            </g>
          </g>
        </g>
        <path id="Path_772" data-name="Path 772" d="M111.967,78s3.081-12.578,16.111-23.553,12.483-13.338,12.483-13.338S140.315,80.217,111.967,78" fill="#ceb500"/>
        <g id="Group_873" data-name="Group 873" opacity="0.2" style="mix-blend-mode: overlay;isolation: isolate">
          <g id="Group_872" data-name="Group 872">
            <g id="Group_871" data-name="Group 871" clip-path="url(#clip-path-33)">
              <path id="Path_773" data-name="Path 773" d="M113.208,74.434A28.348,28.348,0,0,0,111.967,78c.527.041,1.025.04,1.533.053a39.535,39.535,0,0,1,3.459-3.778c2.8-2.721,5.847-5.21,8.336-8.22a42.979,42.979,0,0,0,6.819-12.486c-5.289,7.761-13.419,13.342-18.906,20.865"/>
            </g>
          </g>
        </g>
        <g id="Group_876" data-name="Group 876" opacity="0.2" style="mix-blend-mode: overlay;isolation: isolate">
          <g id="Group_875" data-name="Group 875">
            <g id="Group_874" data-name="Group 874" clip-path="url(#clip-path-34)">
              <path id="Path_774" data-name="Path 774" d="M136.944,51.772a.716.716,0,0,0-1.349-.249c-1.727,3.8-2.444,7.9-4.411,11.644-1.957,3.724-4.924,6.572-7.1,10.109-.128.208.157.386.331.285,3.611-2.085,6.149-6.181,8.207-9.7s4.316-7.922,4.322-12.085" fill="#fff"/>
            </g>
          </g>
        </g>
        <path id="Path_775" data-name="Path 775" d="M199.9,142.8s5.52-10.145,19.254-16.642,13.8-8.659,13.8-8.659-9.115,33.666-33.054,25.3" fill="#ceb500"/>
        <g id="Group_879" data-name="Group 879" opacity="0.2" style="mix-blend-mode: overlay;isolation: isolate">
          <g id="Group_878" data-name="Group 878">
            <g id="Group_877" data-name="Group 877" clip-path="url(#clip-path-35)">
              <path id="Path_776" data-name="Path 776" d="M201.781,140.01A25.461,25.461,0,0,0,199.9,142.8c.445.156.875.268,1.31.4a35.4,35.4,0,0,1,3.842-2.471,95.714,95.714,0,0,0,9.06-5.19,38.292,38.292,0,0,0,8.722-9.214c-6.327,5.488-14.608,8.45-21.052,13.688"/>
            </g>
          </g>
        </g>
        <g id="Group_882" data-name="Group 882" opacity="0.2" style="mix-blend-mode: overlay;isolation: isolate">
          <g id="Group_881" data-name="Group 881">
            <g id="Group_880" data-name="Group 880" clip-path="url(#clip-path-36)">
              <path id="Path_777" data-name="Path 777" d="M227.407,125.872c.164-.619-.725-.988-1.106-.521-2.354,2.882-3.906,6.255-6.455,9.036-2.535,2.765-5.742,4.546-8.423,7.1-.158.15.047.368.22.321,3.589-.976,6.709-3.93,9.286-6.5s5.525-5.849,6.478-9.437" fill="#fff"/>
            </g>
          </g>
        </g>
        <path id="Path_778" data-name="Path 778" d="M68.316,115.907s-11.325-2.264-21.6-13.454S34.352,91.842,34.352,91.842s34.855-1.278,33.964,24.065" fill="#ceb500"/>
        <g id="Group_885" data-name="Group 885" opacity="0.2" style="mix-blend-mode: overlay;isolation: isolate">
          <g id="Group_884" data-name="Group 884">
            <g id="Group_883" data-name="Group 883" clip-path="url(#clip-path-37)">
              <path id="Path_779" data-name="Path 779" d="M65.091,114.937a25.189,25.189,0,0,0,3.225.969c.016-.471,0-.915-.011-1.368a35.076,35.076,0,0,1-3.5-2.937,95.908,95.908,0,0,0-7.643-7.113,38.286,38.286,0,0,0-11.386-5.6c7.118,4.415,12.4,11.445,19.315,16.046"/>
            </g>
          </g>
        </g>
        <g id="Group_888" data-name="Group 888" opacity="0.2" style="mix-blend-mode: overlay;isolation: isolate">
          <g id="Group_887" data-name="Group 887">
            <g id="Group_886" data-name="Group 886" clip-path="url(#clip-path-38)">
              <path id="Path_780" data-name="Path 780" d="M43.99,94.656a.639.639,0,0,0-.17,1.212c3.451,1.394,7.133,1.875,10.544,3.485,3.393,1.6,6.044,4.135,9.278,5.939.191.106.338-.155.242-.306-2-3.138-5.743-5.243-8.961-6.942S47.7,94.5,43.99,94.656" fill="#fff"/>
            </g>
          </g>
        </g>
        <path id="Path_781" data-name="Path 781" d="M72.378,109.376s16.429-8.824,10.249-32.437c0,0-19.122,12.7-10.249,32.437" fill="#ceb500"/>
        <g id="Group_891" data-name="Group 891" opacity="0.2" style="mix-blend-mode: overlay;isolation: isolate">
          <g id="Group_890" data-name="Group 890">
            <g id="Group_889" data-name="Group 889" clip-path="url(#clip-path-39)">
              <path id="Path_782" data-name="Path 782" d="M72.5,109.307a11.415,11.415,0,0,0,1.859-2.358A46.41,46.41,0,0,0,81.44,85.4a87.08,87.08,0,0,1-7.051,18.057,21.4,21.4,0,0,1-2.721,4.19c.214.571.448,1.147.71,1.73l.12-.069"/>
            </g>
          </g>
        </g>
        <g id="Group_894" data-name="Group 894" opacity="0.2" style="mix-blend-mode: overlay;isolation: isolate">
          <g id="Group_893" data-name="Group 893">
            <g id="Group_892" data-name="Group 892" clip-path="url(#clip-path-40)">
              <path id="Path_783" data-name="Path 783" d="M73.544,96.906c2.179-5.24,3.817-11.237,7.689-15.539.021-.023-.008-.053-.034-.04-4.895,2.587-8.622,9.947-8.473,15.4a.437.437,0,0,0,.818.176" fill="#fff"/>
            </g>
          </g>
        </g>
        <path id="Path_784" data-name="Path 784" d="M43.721,192.987s-9.1-16.279-32.6-9.7c0,0,13.018,18.906,32.6,9.7" fill="#ceb500"/>
        <g id="Group_897" data-name="Group 897" opacity="0.2" style="mix-blend-mode: overlay;isolation: isolate">
          <g id="Group_896" data-name="Group 896">
            <g id="Group_895" data-name="Group 895" clip-path="url(#clip-path-41)">
              <path id="Path_785" data-name="Path 785" d="M43.651,192.868a11.392,11.392,0,0,0-2.389-1.819A46.414,46.414,0,0,0,19.6,184.328a87.048,87.048,0,0,1,18.173,6.747A21.428,21.428,0,0,1,42,193.726c.567-.224,1.139-.467,1.717-.739,0,0-.027-.048-.07-.119"/>
            </g>
          </g>
        </g>
        <g id="Group_900" data-name="Group 900" opacity="0.2" style="mix-blend-mode: overlay;isolation: isolate">
          <g id="Group_899" data-name="Group 899">
            <g id="Group_898" data-name="Group 898" clip-path="url(#clip-path-42)">
              <path id="Path_786" data-name="Path 786" d="M31.234,192.03c-5.276-2.091-11.3-3.628-15.665-7.427a.027.027,0,0,0-.04.034c2.669,4.851,10.09,8.454,15.542,8.213a.437.437,0,0,0,.163-.82" fill="#fff"/>
            </g>
          </g>
        </g>
        <path id="Path_787" data-name="Path 787" d="M65.721,155.6s-8.472-9.794-23.535-2.024c0,0,11.507,11.031,23.535,2.024" fill="#ceb500"/>
        <g id="Group_903" data-name="Group 903" opacity="0.2" style="mix-blend-mode: overlay;isolation: isolate">
          <g id="Group_902" data-name="Group 902">
            <g id="Group_901" data-name="Group 901" clip-path="url(#clip-path-43)">
              <path id="Path_788" data-name="Path 788" d="M65.657,155.528a7.924,7.924,0,0,0-1.88-.9A32.235,32.235,0,0,0,48.1,153.1,60.492,60.492,0,0,1,61.4,155.134a14.86,14.86,0,0,1,3.252,1.209c.355-.232.709-.478,1.065-.744l-.065-.071"/>
            </g>
          </g>
        </g>
        <g id="Group_906" data-name="Group 906" opacity="0.2" style="mix-blend-mode: overlay;isolation: isolate">
          <g id="Group_905" data-name="Group 905">
            <g id="Group_904" data-name="Group 904" clip-path="url(#clip-path-44)">
              <path id="Path_789" data-name="Path 789" d="M57.1,156.7c-3.882-.682-8.193-.881-11.7-2.853a.018.018,0,0,0-.022.029c2.5,2.925,8.048,4.334,11.723,3.4a.3.3,0,0,0,0-.581" fill="#fff"/>
            </g>
          </g>
        </g>
        <path id="Path_790" data-name="Path 790" d="M19.747,160.614S26.249,125.147,0,122.36c0,0,5.021,4.008,4.085,14.576s6.472,25.132,15.662,23.678" fill="#ceb500"/>
        <g id="Group_909" data-name="Group 909" opacity="0.2" style="mix-blend-mode: overlay;isolation: isolate">
          <g id="Group_908" data-name="Group 908">
            <g id="Group_907" data-name="Group 907" clip-path="url(#clip-path-45)">
              <path id="Path_791" data-name="Path 791" d="M9.628,127.875c3.156,6.255,4.774,12.668,6.449,19.47,1.068,4.338,2.1,8.989,1.437,13.3a8.118,8.118,0,0,0,2.232-.034s.093-.512.21-1.4A49.383,49.383,0,0,0,9.628,127.875"/>
            </g>
          </g>
        </g>
        <g id="Group_912" data-name="Group 912" opacity="0.2" style="mix-blend-mode: overlay;isolation: isolate">
          <g id="Group_911" data-name="Group 911">
            <g id="Group_910" data-name="Group 910" clip-path="url(#clip-path-46)">
              <path id="Path_792" data-name="Path 792" d="M12.567,154.055c-.132-2.255-1.285-4.3-1.833-6.474-.577-2.288-.832-4.646-1.226-6.969-.691-4.07-1.573-7.977-3.912-11.44a.026.026,0,0,0-.046.021c1.223,4.78,1.173,9.671,1.775,14.536.437,3.528,1.01,8.9,4.454,10.812a.511.511,0,0,0,.788-.486" fill="#fff"/>
            </g>
          </g>
        </g>
        <g id="Group_915" data-name="Group 915" opacity="0.2" style="mix-blend-mode: overlay;isolation: isolate">
          <g id="Group_914" data-name="Group 914">
            <g id="Group_913" data-name="Group 913" clip-path="url(#clip-path-47)">
              <path id="Path_793" data-name="Path 793" d="M15.959,157.85c.219-1.1-1.281-1.952-2.171-2.094a.468.468,0,0,0-.51.534c.277.972,1.272,2.284,2.422,1.918a.445.445,0,0,0,.259-.358" fill="#fff"/>
            </g>
          </g>
        </g>
        <path id="Path_794" data-name="Path 794" d="M151.215,140.508s31.55-7.2,24.552-29.832c0,0-1.527,5.561-10.573,8.532s-18.432,14.237-13.979,21.3" fill="#ceb500"/>
        <g id="Group_918" data-name="Group 918" opacity="0.2" style="mix-blend-mode: overlay;isolation: isolate">
          <g id="Group_917" data-name="Group 917">
            <g id="Group_916" data-name="Group 916" clip-path="url(#clip-path-48)">
              <path id="Path_795" data-name="Path 795" d="M174.628,120.569c-4.04,4.818-8.755,8.423-13.771,12.214-3.2,2.417-6.669,4.916-10.461,5.9a7.281,7.281,0,0,0,.819,1.829s.455-.1,1.225-.322a44.322,44.322,0,0,0,22.188-19.617"/>
            </g>
          </g>
        </g>
        <g id="Group_921" data-name="Group 921" opacity="0.2" style="mix-blend-mode: overlay;isolation: isolate">
          <g id="Group_920" data-name="Group 920">
            <g id="Group_919" data-name="Group 919" clip-path="url(#clip-path-49)">
              <path id="Path_796" data-name="Path 796" d="M154.081,132.264c1.813-.907,3.092-2.583,4.689-3.8,1.683-1.286,3.537-2.332,5.313-3.48,3.111-2.011,6.021-4.122,8.048-7.277.013-.019-.015-.045-.033-.031-3.509,2.7-7.56,4.393-11.359,6.613-2.754,1.609-6.979,3.984-7.338,7.5a.458.458,0,0,0,.68.478" fill="#fff"/>
            </g>
          </g>
        </g>
        <g id="Group_924" data-name="Group 924" opacity="0.2" style="mix-blend-mode: overlay;isolation: isolate">
          <g id="Group_923" data-name="Group 923">
            <g id="Group_922" data-name="Group 922" clip-path="url(#clip-path-50)">
              <path id="Path_797" data-name="Path 797" d="M152.153,136.406c.984-.208,1.156-1.748.958-2.532a.42.42,0,0,0-.621-.231c-.7.573-1.433,1.858-.724,2.676a.4.4,0,0,0,.387.087" fill="#fff"/>
            </g>
          </g>
        </g>
        <path id="Path_798" data-name="Path 798" d="M121.381,228.4s31.084,9,35.935-14.19c0,0-4.031,4.123-13.383,2.336s-23.023,3.518-22.552,11.854" fill="#ceb500"/>
        <g id="Group_927" data-name="Group 927" opacity="0.2" style="mix-blend-mode: overlay;isolation: isolate">
          <g id="Group_926" data-name="Group 926">
            <g id="Group_925" data-name="Group 925" clip-path="url(#clip-path-51)">
              <path id="Path_799" data-name="Path 799" d="M151.525,222.309c-5.869,2.255-11.741,3.123-17.966,4.006-3.969.564-8.215,1.068-12.007.087a7.223,7.223,0,0,0-.171,2s.449.129,1.228.313a44.322,44.322,0,0,0,28.916-6.4"/>
            </g>
          </g>
        </g>
        <g id="Group_930" data-name="Group 930" opacity="0.2" style="mix-blend-mode: overlay;isolation: isolate">
          <g id="Group_929" data-name="Group 929">
            <g id="Group_928" data-name="Group 928" clip-path="url(#clip-path-52)">
              <path id="Path_800" data-name="Path 800" d="M127.884,222.578c2.025.085,3.957-.761,5.946-1.054,2.1-.309,4.223-.325,6.333-.468,3.7-.251,7.265-.687,10.567-2.463a.024.024,0,0,0-.014-.043c-4.379.662-8.741.177-13.14.277-3.19.072-8.036.1-10.055,3a.459.459,0,0,0,.363.748" fill="#fff"/>
            </g>
          </g>
        </g>
        <g id="Group_933" data-name="Group 933" opacity="0.2" style="mix-blend-mode: overlay;isolation: isolate">
          <g id="Group_932" data-name="Group 932">
            <g id="Group_931" data-name="Group 931" clip-path="url(#clip-path-53)">
              <path id="Path_801" data-name="Path 801" d="M124.19,225.265c.962.295,1.858-.969,2.065-1.75a.419.419,0,0,0-.431-.5c-.892.16-2.154.93-1.93,1.989a.4.4,0,0,0,.3.264" fill="#fff"/>
            </g>
          </g>
        </g>
        <g id="Group_936" data-name="Group 936" opacity="0.2" style="mix-blend-mode: overlay;isolation: isolate">
          <g id="Group_935" data-name="Group 935">
            <g id="Group_934" data-name="Group 934" clip-path="url(#clip-path-54)">
              <path id="Path_802" data-name="Path 802" d="M104.435,202.317a.079.079,0,0,0-.131-.035c-7.527,6.689-10.241,20.209-12.447,29.6-2.217,9.437-4.726,20.136-.733,29.328a1.335,1.335,0,0,0,2.295,0c4.33-9.413,4.343-20.857,6.614-30.944,1.974-8.767,6.433-18.974,4.4-27.949" fill="#fff"/>
            </g>
          </g>
        </g>
        <g id="Group_939" data-name="Group 939" opacity="0.2" style="mix-blend-mode: overlay;isolation: isolate">
          <g id="Group_938" data-name="Group 938">
            <g id="Group_937" data-name="Group 937" clip-path="url(#clip-path-55)">
              <path id="Path_803" data-name="Path 803" d="M96.9,272.386a7.013,7.013,0,0,0-1.982-3.413,1.349,1.349,0,0,0-2.223.587c-.641,2.427.434,5.546,2.74,6.6a.784.784,0,0,0,1.048-.275,4.1,4.1,0,0,0,.417-3.494" fill="#fff"/>
            </g>
          </g>
        </g>
        <path id="Path_804" data-name="Path 804" d="M208.2,106.024s-7.375-10.916,5.673-27.435c0,0,9.581,17.29-5.673,27.435" fill="#ceb500"/>
        <g id="Group_942" data-name="Group 942" opacity="0.2" style="mix-blend-mode: overlay;isolation: isolate">
          <g id="Group_941" data-name="Group 941">
            <g id="Group_940" data-name="Group 940" clip-path="url(#clip-path-56)">
              <path id="Path_805" data-name="Path 805" d="M212.82,84.077c-.3,3.777-2.149,7.227-3.366,10.815-.628,1.851-2.455,8.8.061,10.194.47-.359.91-.726,1.326-1.1,0-.933-.253-2.106-.271-2.609a22.414,22.414,0,0,1,.641-6.148c.917-3.705,2.79-7.523,1.609-11.153"/>
            </g>
          </g>
        </g>
        <path id="Path_806" data-name="Path 806" d="M176.587,163.35s-7.375-10.916,5.673-27.435c0,0,9.581,17.29-5.673,27.435" fill="#ceb500"/>
        <g id="Group_945" data-name="Group 945" opacity="0.2" style="mix-blend-mode: overlay;isolation: isolate">
          <g id="Group_944" data-name="Group 944">
            <g id="Group_943" data-name="Group 943" clip-path="url(#clip-path-57)">
              <path id="Path_807" data-name="Path 807" d="M181.2,141.4c-.3,3.777-2.149,7.227-3.366,10.815-.628,1.851-2.455,8.8.061,10.195.47-.36.91-.727,1.326-1.1,0-.933-.253-2.106-.271-2.608a22.418,22.418,0,0,1,.641-6.149c.917-3.705,2.789-7.523,1.609-11.153"/>
            </g>
          </g>
        </g>
        <path id="Path_808" data-name="Path 808" d="M46.11,135.936s-12.934-2.506-15.385-23.413c0,0,19,5.454,15.385,23.413" fill="#ceb500"/>
        <g id="Group_948" data-name="Group 948" opacity="0.2" style="mix-blend-mode: overlay;isolation: isolate">
          <g id="Group_947" data-name="Group 947">
            <g id="Group_946" data-name="Group 946" clip-path="url(#clip-path-58)">
              <path id="Path_809" data-name="Path 809" d="M33.858,117.15c2.455,2.886,3.59,6.63,5.266,10.028.864,1.753,4.488,7.962,7.251,7.167q.115-.879.16-1.715c-.663-.658-1.669-1.311-2.036-1.654a22.421,22.421,0,0,1-3.894-4.8c-1.971-3.269-3.346-7.292-6.747-9.025"/>
            </g>
          </g>
        </g>
        <path id="Path_810" data-name="Path 810" d="M61.5,202.461s-7.927-10.522,4.254-27.691c0,0,10.458,16.775-4.254,27.691" fill="#ceb500"/>
        <g id="Group_951" data-name="Group 951" opacity="0.2" style="mix-blend-mode: overlay;isolation: isolate">
          <g id="Group_950" data-name="Group 950">
            <g id="Group_949" data-name="Group 949" clip-path="url(#clip-path-59)">
              <path id="Path_811" data-name="Path 811" d="M64.982,180.3c-.109,3.787-1.774,7.328-2.805,10.974-.532,1.88-2,8.918.586,10.178q.675-.574,1.267-1.167c-.052-.931-.361-2.09-.4-2.591a22.385,22.385,0,0,1,.323-6.173c.726-3.748,2.4-7.657,1.033-11.221"/>
            </g>
          </g>
        </g>
        <path id="Path_812" data-name="Path 812" d="M135.221,17.2S136.687,4.112,157.332,0c0,0-3.921,19.375-22.111,17.2" fill="#ceb500"/>
        <g id="Group_954" data-name="Group 954" opacity="0.2" style="mix-blend-mode: overlay;isolation: isolate">
          <g id="Group_953" data-name="Group 953">
            <g id="Group_952" data-name="Group 952" clip-path="url(#clip-path-60)">
              <path id="Path_813" data-name="Path 813" d="M152.969,3.492c-2.681,2.677-6.323,4.108-9.576,6.049-1.679,1-7.578,5.109-6.565,7.8.59.031,1.163.037,1.722.022.6-.712,1.173-1.767,1.486-2.161a22.42,22.42,0,0,1,4.475-4.264c3.1-2.226,7-3.917,8.458-7.446"/>
            </g>
          </g>
        </g>
        <path id="Path_814" data-name="Path 814" d="M125.067,32.634c-.728.079-.827-10.292,8.651-13.338,0,0,2.741,12.106-8.651,13.338" fill="#9b8500"/>
        <path id="Path_815" data-name="Path 815" d="M122.324,26.378a6.064,6.064,0,0,0-2.742-2.2,1.648,1.648,0,0,0-.871-.119.739.739,0,0,0-.609.571c-.067.478.448.8.854,1.065a9.433,9.433,0,0,1,2.913,3.846c.91,1.772,1.389,4.214,2.449,5.794,2.216-1.94-.784-7.289-1.994-8.953" fill="#7c6700"/>
        <path id="Path_816" data-name="Path 816" d="M115.251,32.833c-6.055,3.126-6.878,12.074-4.7,17.815A15.55,15.55,0,0,0,127.4,60.908c10.553-1.541,17.743-18.426,10.081-26.669-3.011-3.239-7.023-2.891-11.005-2.423-3.567.419-8.008-.643-11.223,1.017" fill="#87bfff"/>
        <g id="Group_957" data-name="Group 957" opacity="0.2" style="mix-blend-mode: overlay;isolation: isolate">
          <g id="Group_956" data-name="Group 956">
            <g id="Group_955" data-name="Group 955" clip-path="url(#clip-path-61)">
              <path id="Path_817" data-name="Path 817" d="M137.48,34.239a8.444,8.444,0,0,0-5.781-2.671,13.847,13.847,0,0,1,2.576,8.562,17.644,17.644,0,0,1-4.795,11.1,10.241,10.241,0,0,1-4.285,3.018,8.1,8.1,0,0,1-3.774.211,11.3,11.3,0,0,1-8.415-7.135,14,14,0,0,1,.8-11.186,11.344,11.344,0,0,1,3.228-3.921l.006,0a7.678,7.678,0,0,0-1.788.62c-6.055,3.125-6.879,12.074-4.7,17.815A15.55,15.55,0,0,0,127.4,60.908c10.552-1.541,17.742-18.426,10.081-26.669"/>
            </g>
          </g>
        </g>
        <g id="Group_960" data-name="Group 960" opacity="0.2" style="mix-blend-mode: overlay;isolation: isolate">
          <g id="Group_959" data-name="Group 959">
            <g id="Group_958" data-name="Group 958" clip-path="url(#clip-path-62)">
              <path id="Path_818" data-name="Path 818" d="M114.488,43.784c2.624,5.966,11.939-.443,8.036-5.674-3.985-5.342-10.435.218-8.036,5.674" fill="#fffefa"/>
            </g>
          </g>
        </g>
        <path id="Path_819" data-name="Path 819" d="M19.7,155.078c-.514.056-.584-7.27,6.111-9.422,0,0,1.936,8.552-6.111,9.422" fill="#9b8500"/>
        <path id="Path_820" data-name="Path 820" d="M17.76,150.658a4.279,4.279,0,0,0-1.937-1.557,1.167,1.167,0,0,0-.615-.084.523.523,0,0,0-.431.4c-.047.338.317.568.6.753a6.656,6.656,0,0,1,2.057,2.716c.643,1.252.982,2.977,1.73,4.093,1.566-1.37-.554-5.148-1.408-6.324" fill="#7c6700"/>
        <path id="Path_821" data-name="Path 821" d="M12.764,155.218c-4.277,2.208-4.859,8.529-3.321,12.584a10.985,10.985,0,0,0,11.9,7.248c7.454-1.088,12.533-13.016,7.121-18.839-2.127-2.288-4.962-2.042-7.774-1.712-2.52.3-5.657-.453-7.928.719" fill="#87bfff"/>
        <g id="Group_963" data-name="Group 963" opacity="0.2" style="mix-blend-mode: overlay;isolation: isolate">
          <g id="Group_962" data-name="Group 962">
            <g id="Group_961" data-name="Group 961" clip-path="url(#clip-path-63)">
              <path id="Path_822" data-name="Path 822" d="M28.465,156.212a5.968,5.968,0,0,0-4.083-1.887,9.8,9.8,0,0,1,1.82,6.048,12.467,12.467,0,0,1-3.388,7.841,7.227,7.227,0,0,1-3.027,2.132,5.71,5.71,0,0,1-2.666.149,7.987,7.987,0,0,1-5.944-5.04,9.889,9.889,0,0,1,.565-7.9,8.017,8.017,0,0,1,2.28-2.769l0,0a5.425,5.425,0,0,0-1.263.437c-4.277,2.209-4.858,8.53-3.32,12.585a10.983,10.983,0,0,0,11.9,7.247c7.454-1.088,12.533-13.015,7.121-18.838"/>
            </g>
          </g>
        </g>
        <g id="Group_966" data-name="Group 966" opacity="0.2" style="mix-blend-mode: overlay;isolation: isolate">
          <g id="Group_965" data-name="Group 965">
            <g id="Group_964" data-name="Group 964" clip-path="url(#clip-path-64)">
              <path id="Path_823" data-name="Path 823" d="M12.225,162.954c1.853,4.214,8.434-.313,5.677-4.008-2.815-3.773-7.372.154-5.677,4.008" fill="#fffefa"/>
            </g>
          </g>
        </g>
        <path id="Path_824" data-name="Path 824" d="M101.951,86.485c-.561.061-.637-7.935,6.67-10.284,0,0,2.113,9.334-6.67,10.284" fill="#9b8500"/>
        <path id="Path_825" data-name="Path 825" d="M99.837,81.661a4.669,4.669,0,0,0-2.114-1.7,1.268,1.268,0,0,0-.672-.092.568.568,0,0,0-.469.44c-.052.369.345.619.658.822A7.261,7.261,0,0,1,99.486,84.1c.7,1.366,1.071,3.249,1.888,4.467,1.709-1.5-.6-5.62-1.537-6.9" fill="#7c6700"/>
        <path id="Path_826" data-name="Path 826" d="M94.383,86.638c-4.668,2.41-5.3,9.309-3.624,13.736a11.988,11.988,0,0,0,12.99,7.91c8.136-1.188,13.68-14.206,7.772-20.562-2.321-2.5-5.415-2.229-8.485-1.868-2.75.323-6.175-.5-8.653.784" fill="#87bfff"/>
        <g id="Group_969" data-name="Group 969" opacity="0.2" style="mix-blend-mode: overlay;isolation: isolate">
          <g id="Group_968" data-name="Group 968">
            <g id="Group_967" data-name="Group 967" clip-path="url(#clip-path-65)">
              <path id="Path_827" data-name="Path 827" d="M111.522,87.722a6.506,6.506,0,0,0-4.456-2.059,10.694,10.694,0,0,1,1.986,6.6,13.611,13.611,0,0,1-3.7,8.558,7.883,7.883,0,0,1-3.3,2.327,6.239,6.239,0,0,1-2.91.163,8.721,8.721,0,0,1-6.488-5.5,10.8,10.8,0,0,1,.617-8.625,8.752,8.752,0,0,1,2.489-3.023l0,0a5.932,5.932,0,0,0-1.378.478c-4.668,2.41-5.3,9.309-3.625,13.735a11.99,11.99,0,0,0,12.99,7.911c8.136-1.188,13.68-14.207,7.773-20.562"/>
            </g>
          </g>
        </g>
        <g id="Group_972" data-name="Group 972" opacity="0.2" style="mix-blend-mode: overlay;isolation: isolate">
          <g id="Group_971" data-name="Group 971">
            <g id="Group_970" data-name="Group 970" clip-path="url(#clip-path-66)">
              <path id="Path_828" data-name="Path 828" d="M93.795,95.082c2.023,4.6,9.205-.342,6.2-4.375-3.072-4.118-8.046.168-6.2,4.375" fill="#fffefa"/>
            </g>
          </g>
        </g>
        <path id="Path_829" data-name="Path 829" d="M172.611,79.8c-.728.079-.827-10.292,8.651-13.338,0,0,2.741,12.106-8.651,13.338" fill="#9b8500"/>
        <path id="Path_830" data-name="Path 830" d="M169.868,73.541a6.064,6.064,0,0,0-2.742-2.2,1.648,1.648,0,0,0-.871-.119.739.739,0,0,0-.609.571c-.067.478.448.8.854,1.065a9.433,9.433,0,0,1,2.913,3.846c.91,1.772,1.389,4.214,2.449,5.794,2.216-1.94-.784-7.289-1.994-8.953" fill="#7c6700"/>
        <path id="Path_831" data-name="Path 831" d="M162.795,80c-6.055,3.126-6.878,12.074-4.7,17.815a15.55,15.55,0,0,0,16.848,10.26c10.553-1.54,17.743-18.426,10.081-26.669-3.011-3.239-7.023-2.891-11-2.423-3.567.419-8.009-.643-11.223,1.017" fill="#87bfff"/>
        <g id="Group_975" data-name="Group 975" opacity="0.2" style="mix-blend-mode: overlay;isolation: isolate">
          <g id="Group_974" data-name="Group 974">
            <g id="Group_973" data-name="Group 973" clip-path="url(#clip-path-67)">
              <path id="Path_832" data-name="Path 832" d="M185.024,81.4a8.442,8.442,0,0,0-5.78-2.671,13.859,13.859,0,0,1,2.576,8.562,17.65,17.65,0,0,1-4.8,11.1,10.235,10.235,0,0,1-4.285,3.018,8.1,8.1,0,0,1-3.774.211,11.3,11.3,0,0,1-8.415-7.135,14,14,0,0,1,.8-11.186,11.343,11.343,0,0,1,3.228-3.921l.006,0A7.678,7.678,0,0,0,162.8,80c-6.055,3.125-6.879,12.074-4.7,17.815a15.55,15.55,0,0,0,16.848,10.26c10.552-1.541,17.743-18.426,10.081-26.669"/>
            </g>
          </g>
        </g>
        <g id="Group_978" data-name="Group 978" opacity="0.2" style="mix-blend-mode: overlay;isolation: isolate">
          <g id="Group_977" data-name="Group 977">
            <g id="Group_976" data-name="Group 976" clip-path="url(#clip-path-68)">
              <path id="Path_833" data-name="Path 833" d="M162.033,90.947c2.623,5.966,11.938-.443,8.035-5.674-3.985-5.342-10.435.218-8.035,5.674" fill="#fffefa"/>
            </g>
          </g>
        </g>
        <path id="Path_834" data-name="Path 834" d="M199.9,139.765c-.728.079-.827-10.292,8.651-13.338,0,0,2.741,12.106-8.651,13.338" fill="#9b8500"/>
        <path id="Path_835" data-name="Path 835" d="M197.156,133.509a6.064,6.064,0,0,0-2.742-2.2,1.648,1.648,0,0,0-.871-.119.737.737,0,0,0-.609.571c-.067.478.448.8.854,1.065a9.433,9.433,0,0,1,2.913,3.846c.91,1.772,1.389,4.214,2.449,5.794,2.216-1.94-.784-7.289-1.994-8.953" fill="#7c6700"/>
        <path id="Path_836" data-name="Path 836" d="M190.084,139.964c-6.055,3.126-6.878,12.074-4.7,17.815a15.55,15.55,0,0,0,16.848,10.26c10.553-1.54,17.743-18.426,10.081-26.669-3.011-3.239-7.023-2.891-11-2.423-3.567.419-8.009-.643-11.223,1.017" fill="#87bfff"/>
        <g id="Group_981" data-name="Group 981" opacity="0.2" style="mix-blend-mode: overlay;isolation: isolate">
          <g id="Group_980" data-name="Group 980">
            <g id="Group_979" data-name="Group 979" clip-path="url(#clip-path-69)">
              <path id="Path_837" data-name="Path 837" d="M212.312,141.37a8.442,8.442,0,0,0-5.78-2.671,13.859,13.859,0,0,1,2.576,8.562,17.65,17.65,0,0,1-4.8,11.1,10.234,10.234,0,0,1-4.285,3.018,8.1,8.1,0,0,1-3.774.211,11.3,11.3,0,0,1-8.415-7.135,14,14,0,0,1,.8-11.186,11.344,11.344,0,0,1,3.228-3.921l.006,0a7.723,7.723,0,0,0-1.788.619c-6.055,3.126-6.879,12.075-4.7,17.816a15.55,15.55,0,0,0,16.848,10.26c10.552-1.541,17.743-18.426,10.081-26.669"/>
            </g>
          </g>
        </g>
        <g id="Group_984" data-name="Group 984" opacity="0.2" style="mix-blend-mode: overlay;isolation: isolate">
          <g id="Group_983" data-name="Group 983">
            <g id="Group_982" data-name="Group 982" clip-path="url(#clip-path-70)">
              <path id="Path_838" data-name="Path 838" d="M189.321,150.915c2.624,5.966,11.939-.443,8.036-5.674-3.985-5.342-10.435.218-8.036,5.674" fill="#fffefa"/>
            </g>
          </g>
        </g>
        <path id="Path_839" data-name="Path 839" d="M79.734,137.39c-.728.079-.827-10.292,8.651-13.338,0,0,2.741,12.106-8.651,13.338" fill="#9b8500"/>
        <path id="Path_840" data-name="Path 840" d="M76.992,131.133a6.064,6.064,0,0,0-2.742-2.2,1.648,1.648,0,0,0-.871-.119.737.737,0,0,0-.609.571c-.067.478.448.8.854,1.065a9.433,9.433,0,0,1,2.913,3.846c.91,1.772,1.389,4.214,2.449,5.794,2.216-1.94-.784-7.289-1.994-8.953" fill="#7c6700"/>
        <path id="Path_841" data-name="Path 841" d="M69.919,137.589c-6.055,3.126-6.878,12.074-4.7,17.815a15.55,15.55,0,0,0,16.848,10.26c10.553-1.54,17.743-18.426,10.081-26.669-3.011-3.239-7.023-2.891-11.005-2.423-3.567.419-8.009-.643-11.223,1.017" fill="#87bfff"/>
        <g id="Group_987" data-name="Group 987" opacity="0.2" style="mix-blend-mode: overlay;isolation: isolate">
          <g id="Group_986" data-name="Group 986">
            <g id="Group_985" data-name="Group 985" clip-path="url(#clip-path-71)">
              <path id="Path_842" data-name="Path 842" d="M92.147,138.995a8.442,8.442,0,0,0-5.78-2.671,13.859,13.859,0,0,1,2.576,8.562,17.65,17.65,0,0,1-4.8,11.1A10.234,10.234,0,0,1,79.862,159a8.1,8.1,0,0,1-3.774.211,11.3,11.3,0,0,1-8.415-7.135,14,14,0,0,1,.8-11.186,11.343,11.343,0,0,1,3.228-3.921l.006,0a7.678,7.678,0,0,0-1.788.62c-6.055,3.125-6.879,12.074-4.7,17.815a15.55,15.55,0,0,0,16.848,10.26c10.552-1.541,17.743-18.426,10.081-26.669"/>
            </g>
          </g>
        </g>
        <g id="Group_990" data-name="Group 990" opacity="0.2" style="mix-blend-mode: overlay;isolation: isolate">
          <g id="Group_989" data-name="Group 989">
            <g id="Group_988" data-name="Group 988" clip-path="url(#clip-path-72)">
              <path id="Path_843" data-name="Path 843" d="M69.156,148.54c2.624,5.966,11.939-.443,8.036-5.674-3.985-5.342-10.435.218-8.036,5.674" fill="#fffefa"/>
            </g>
          </g>
        </g>
        <path id="Path_844" data-name="Path 844" d="M157.333,195.5c-.574.062-.652-8.114,6.821-10.516,0,0,2.16,9.545-6.821,10.516" fill="#9b8500"/>
        <path id="Path_845" data-name="Path 845" d="M155.17,190.571a4.782,4.782,0,0,0-2.162-1.738,1.3,1.3,0,0,0-.687-.094.584.584,0,0,0-.48.45c-.053.378.353.634.673.841a7.427,7.427,0,0,1,2.3,3.031c.718,1.4,1.1,3.323,1.931,4.568,1.747-1.529-.618-5.746-1.572-7.058" fill="#7c6700"/>
        <path id="Path_846" data-name="Path 846" d="M149.594,195.66c-4.773,2.464-5.423,9.519-3.706,14.045a12.257,12.257,0,0,0,13.283,8.089c8.319-1.214,13.988-14.527,7.948-21.025-2.374-2.554-5.538-2.28-8.676-1.911-2.813.33-6.315-.506-8.849.8" fill="#87bfff"/>
        <g id="Group_993" data-name="Group 993" opacity="0.2" style="mix-blend-mode: overlay;isolation: isolate">
          <g id="Group_992" data-name="Group 992">
            <g id="Group_991" data-name="Group 991" clip-path="url(#clip-path-73)">
              <path id="Path_847" data-name="Path 847" d="M167.119,196.769a6.66,6.66,0,0,0-4.557-2.106,10.928,10.928,0,0,1,2.031,6.75,13.918,13.918,0,0,1-3.781,8.752,8.08,8.08,0,0,1-3.378,2.379,6.4,6.4,0,0,1-2.976.167,8.913,8.913,0,0,1-6.634-5.626,11.036,11.036,0,0,1,.63-8.819A8.945,8.945,0,0,1,151,195.175l.005,0a6.05,6.05,0,0,0-1.41.488c-4.773,2.465-5.423,9.52-3.706,14.046a12.26,12.26,0,0,0,13.283,8.089c8.32-1.215,13.989-14.527,7.948-21.026"/>
            </g>
          </g>
        </g>
        <g id="Group_996" data-name="Group 996" opacity="0.2" style="mix-blend-mode: overlay;isolation: isolate">
          <g id="Group_995" data-name="Group 995">
            <g id="Group_994" data-name="Group 994" clip-path="url(#clip-path-74)">
              <path id="Path_848" data-name="Path 848" d="M148.993,204.295c2.068,4.7,9.413-.35,6.336-4.474-3.142-4.211-8.228.172-6.336,4.474" fill="#fffefa"/>
            </g>
          </g>
        </g>
        <path id="Path_849" data-name="Path 849" d="M91.006,196.174c-.456.049-.518-6.443,5.416-8.35,0,0,1.715,7.579-5.416,8.35" fill="#9b8500"/>
        <path id="Path_850" data-name="Path 850" d="M89.289,192.258a3.791,3.791,0,0,0-1.717-1.38,1.035,1.035,0,0,0-.545-.074.462.462,0,0,0-.381.357c-.042.3.28.5.534.667A5.9,5.9,0,0,1,89,194.236a38.923,38.923,0,0,0,1.533,3.626c1.388-1.214-.491-4.562-1.248-5.6" fill="#7c6700"/>
        <path id="Path_851" data-name="Path 851" d="M84.861,196.3c-3.79,1.957-4.306,7.559-2.943,11.153a9.735,9.735,0,0,0,10.547,6.423c6.606-.965,11.108-11.535,6.311-16.7-1.885-2.027-4.4-1.81-6.889-1.517-2.233.263-5.014-.4-7.026.637" fill="#87bfff"/>
        <g id="Group_999" data-name="Group 999" opacity="0.2" style="mix-blend-mode: overlay;isolation: isolate">
          <g id="Group_998" data-name="Group 998">
            <g id="Group_997" data-name="Group 997" clip-path="url(#clip-path-75)">
              <path id="Path_852" data-name="Path 852" d="M98.776,197.179a5.289,5.289,0,0,0-3.618-1.672,8.677,8.677,0,0,1,1.612,5.36,11.05,11.05,0,0,1-3,6.949,6.405,6.405,0,0,1-2.683,1.889,5.059,5.059,0,0,1-2.362.132,7.078,7.078,0,0,1-5.268-4.466,8.765,8.765,0,0,1,.5-7,7.1,7.1,0,0,1,2.02-2.455l0,0a4.783,4.783,0,0,0-1.119.388c-3.791,1.956-4.306,7.558-2.943,11.152a9.735,9.735,0,0,0,10.547,6.423c6.606-.964,11.107-11.535,6.311-16.695"/>
            </g>
          </g>
        </g>
        <g id="Group_1002" data-name="Group 1002" opacity="0.2" style="mix-blend-mode: overlay;isolation: isolate">
          <g id="Group_1001" data-name="Group 1001">
            <g id="Group_1000" data-name="Group 1000" clip-path="url(#clip-path-76)">
              <path id="Path_853" data-name="Path 853" d="M84.383,203.155c1.642,3.735,7.474-.278,5.031-3.552-2.5-3.344-6.533.136-5.031,3.552" fill="#fffefa"/>
            </g>
          </g>
        </g>
      </g>
    </g>
  </g>
</svg>
