<svg id="Group_31" data-name="Group 31" xmlns="http://www.w3.org/2000/svg" width="21.194" height="21.235" viewBox="0 0 21.194 21.235">
  <path id="Path_41" data-name="Path 41" d="M294.963,17.088c1.348,0,2.7.018,4.044-.005a6.82,6.82,0,0,1,3.534.9,5.386,5.386,0,0,1,2.192,2.427,7.371,7.371,0,0,1,.6,3.092c.079,2.708.069,5.418.005,8.126a7.12,7.12,0,0,1-.83,3.669,5.714,5.714,0,0,1-2.663,2.365,10.33,10.33,0,0,1-4.079.635c-2.041.035-4.082.021-6.124.008a9.569,9.569,0,0,1-4.142-.713,5.523,5.523,0,0,1-2.1-1.771A7.2,7.2,0,0,1,284.22,31.5c-.047-2.512-.024-5.025-.006-7.538a9.437,9.437,0,0,1,.5-3.125,5.313,5.313,0,0,1,1.7-2.351,6.67,6.67,0,0,1,4.273-1.393c1.426-.021,2.853,0,4.28,0v0m-8.688,10.654h0q0,2.081,0,4.161a5.1,5.1,0,0,0,.236,1.584,3.442,3.442,0,0,0,2.917,2.559,21.676,21.676,0,0,0,3.286.194c2.341-.006,4.681.036,7.021-.136a3.611,3.611,0,0,0,3.354-2.733,10.9,10.9,0,0,0,.259-2.174c.025-2.368.03-4.737,0-7.1a7.2,7.2,0,0,0-.432-2.7,3.293,3.293,0,0,0-2.136-1.972,6.675,6.675,0,0,0-1.938-.267c-.875-.009-1.751-.01-2.625-.043-1.806-.069-3.609.036-5.412.078a9.4,9.4,0,0,0-1.52.156,3.352,3.352,0,0,0-2.518,1.914,5,5,0,0,0-.486,2.2c-.016,1.426,0,2.853,0,4.279" transform="translate(-284.193 -17.082)" fill="#0959b5"/>
  <path id="Path_42" data-name="Path 42" d="M354.951,82.085a5.493,5.493,0,1,1-5.53,5.448,5.5,5.5,0,0,1,5.53-5.448m-3.473,5.456a3.435,3.435,0,1,0,3.425-3.4,3.446,3.446,0,0,0-3.425,3.4" transform="translate(-344.298 -76.978)" fill="#0959b5"/>
  <path id="Path_43" data-name="Path 43" d="M476.889,64.611a1.352,1.352,0,0,1-1.274,1.366,1.338,1.338,0,0,1-1.345-1.333,1.31,1.31,0,1,1,2.619-.033" transform="translate(-459.34 -59.685)" fill="#0959b5"/>
</svg>
