<svg id="Group_1080" data-name="Group 1080" xmlns="http://www.w3.org/2000/svg" xmlns:xlink="http://www.w3.org/1999/xlink" width="361.017" height="150.598" viewBox="0 0 361.017 150.598">
  <defs>
    <clipPath id="clip-path">
      <rect id="Rectangle_349" data-name="Rectangle 349" width="361.017" height="150.598" fill="none"/>
    </clipPath>
  </defs>
  <g id="Group_1079" data-name="Group 1079" clip-path="url(#clip-path)">
    <path id="Path_902" data-name="Path 902" d="M63.2,39.6C28.729,39.574.378,67.695,0,102.284c-.374,34.377,27.9,63.053,62.374,63.24,35.393.2,63.938-28.009,63.769-63.034C125.991,67.975,97.627,39.636,63.2,39.6m21.329,88.214q0,10.823-5.284,16.618t-15.6,5.795q-10.309,0-15.6-5.795t-5.284-16.618v-7.39H56v8.281q0,4.842,1.975,6.748a7.251,7.251,0,0,0,5.284,1.913,7.261,7.261,0,0,0,5.284-1.913q1.972-1.907,1.975-6.748V109.095q0-4.832-1.975-6.811a7.146,7.146,0,0,0-5.284-1.975,7.136,7.136,0,0,0-5.284,1.975Q56,104.256,56,109.095v2.673H42.756L45.3,60.062H82.236V72.8H57.91l-1.14,21.267q3.944-6.5,12.225-6.493,7.767,0,11.652,5.222t3.882,15.154Z" transform="translate(0 -14.927)" fill="#f23342"/>
    <path id="Path_903" data-name="Path 903" d="M250.053,83.525,242.177,108h-.1l-8.325-24.476H222.736v35.592h7.328V94.143h.1l8.724,24.974h6.032l8.724-25.224h.1v25.224h7.328V83.525Z" transform="translate(-83.946 -31.48)" fill="#1a1818"/>
    <path id="Path_904" data-name="Path 904" d="M320.32,90.105v-6.58H295.3v35.592h7.826V104.412h14.9V98.33h-14.9V90.105Z" transform="translate(-111.293 -31.48)" fill="#1a1818"/>
    <rect id="Rectangle_347" data-name="Rectangle 347" width="7.826" height="35.592" transform="translate(213.563 52.045)" fill="#1a1818"/>
    <rect id="Rectangle_348" data-name="Rectangle 348" width="7.826" height="35.592" transform="translate(138.79 95.663)" fill="#1a1818"/>
    <path id="Path_905" data-name="Path 905" d="M268.889,174.421a8.306,8.306,0,0,0-1.471-3.34,6.9,6.9,0,0,0-2.866-2.144,11.969,11.969,0,0,0-4.661-.773,10.134,10.134,0,0,0-4.387,1.022,8.121,8.121,0,0,0-3.489,3.265h-.15v-3.589h-6.73v25.772h7.079V181.126c0-2.623.436-4.511,1.3-5.658a4.909,4.909,0,0,1,4.187-1.72,3.857,3.857,0,0,1,3.539,1.57,9.017,9.017,0,0,1,1,4.761v14.556h7.079V178.783a20.513,20.513,0,0,0-.424-4.362" transform="translate(-92.389 -63.379)" fill="#1a1818"/>
    <path id="Path_906" data-name="Path 906" d="M307.05,169.285l-5.434,17.6h-.1l-5.434-17.6h-7.427l8.823,25.772h7.876l8.724-25.772Z" transform="translate(-108.791 -63.801)" fill="#1a1818"/>
    <path id="Path_907" data-name="Path 907" d="M357.35,177.736a14.122,14.122,0,0,0-2.268-4.885,11.481,11.481,0,0,0-4.013-3.415,12.249,12.249,0,0,0-5.733-1.271,13.348,13.348,0,0,0-5.359,1.047,12.459,12.459,0,0,0-6.854,7.178,15.093,15.093,0,0,0-.947,5.384,15.628,15.628,0,0,0,.922,5.483,12.5,12.5,0,0,0,2.617,4.287,11.4,11.4,0,0,0,4.137,2.767,14.72,14.72,0,0,0,5.483.972,13.475,13.475,0,0,0,7.477-1.994,11.811,11.811,0,0,0,4.586-6.63h-6.231a4.43,4.43,0,0,1-1.894,2.268,7.257,7.257,0,0,1-8.275-.474q-1.6-1.542-1.745-4.985h18.594a18.2,18.2,0,0,0-.5-5.733m-18.1,1.246a8.173,8.173,0,0,1,.324-1.695,5.206,5.206,0,0,1,.947-1.795,5.467,5.467,0,0,1,1.795-1.421,6.191,6.191,0,0,1,2.816-.573,4.982,4.982,0,0,1,3.863,1.4,8.18,8.18,0,0,1,1.77,4.088Z" transform="translate(-125.193 -63.379)" fill="#1a1818"/>
    <path id="Path_908" data-name="Path 908" d="M401.276,183.344a6.432,6.432,0,0,0-1.844-2.044,10.113,10.113,0,0,0-2.617-1.321c-.978-.33-1.988-.611-3.016-.847-1-.231-1.975-.449-2.941-.648a22.629,22.629,0,0,1-2.567-.673,5.4,5.4,0,0,1-1.819-.972,1.929,1.929,0,0,1-.7-1.545,1.906,1.906,0,0,1,.4-1.271,2.722,2.722,0,0,1,.972-.723,4.23,4.23,0,0,1,1.271-.324,12.249,12.249,0,0,1,1.3-.075,7.078,7.078,0,0,1,3.29.723,3.111,3.111,0,0,1,1.545,2.767h6.73a8.456,8.456,0,0,0-1.221-3.963,8.111,8.111,0,0,0-2.567-2.517,10.8,10.8,0,0,0-3.514-1.346,20.281,20.281,0,0,0-4.063-.4,22.119,22.119,0,0,0-4.088.374,11.242,11.242,0,0,0-3.589,1.3,7.2,7.2,0,0,0-2.567,2.517,7.769,7.769,0,0,0-.972,4.088,5.473,5.473,0,0,0,.7,2.866,5.977,5.977,0,0,0,1.844,1.944,10.165,10.165,0,0,0,2.617,1.246c.978.318,1.988.592,3.016.823a43.374,43.374,0,0,1,5.907,1.6q2.122.8,2.119,2.393a2.6,2.6,0,0,1-.449,1.57,3.377,3.377,0,0,1-1.122,1,5.216,5.216,0,0,1-1.5.548,7.433,7.433,0,0,1-1.57.174,8,8,0,0,1-2.019-.249,5.152,5.152,0,0,1-1.72-.773,4.161,4.161,0,0,1-1.221-1.346,3.856,3.856,0,0,1-.474-1.969H378.1a8.653,8.653,0,0,0,1.171,4.312,8.553,8.553,0,0,0,2.742,2.767,11.614,11.614,0,0,0,3.813,1.5,21.34,21.34,0,0,0,4.387.449,21.622,21.622,0,0,0,4.312-.424,10.874,10.874,0,0,0,3.764-1.471,7.828,7.828,0,0,0,3.689-7.029,5.982,5.982,0,0,0-.7-3.016" transform="translate(-142.5 -63.379)" fill="#1a1818"/>
    <path id="Path_909" data-name="Path 909" d="M435.766,169.347v-4.736h-5.184v-7.727H423.5v7.727h-4.287v4.736H423.5v15.2a6.61,6.61,0,0,0,.648,3.14,4.591,4.591,0,0,0,1.77,1.844,7.279,7.279,0,0,0,2.592.872,20.644,20.644,0,0,0,3.116.224c.7,0,1.414-.012,2.143-.05a16.463,16.463,0,0,0,1.994-.2V184.9a8.817,8.817,0,0,1-1.047.15,11.346,11.346,0,0,1-1.147.05,2.4,2.4,0,0,1-2.991-2.991V169.347Z" transform="translate(-157.997 -59.128)" fill="#1a1818"/>
    <path id="Path_910" data-name="Path 910" d="M474.39,177.736a14.123,14.123,0,0,0-2.268-4.885,11.481,11.481,0,0,0-4.013-3.415,12.267,12.267,0,0,0-5.733-1.271,13.327,13.327,0,0,0-5.359,1.047,12.459,12.459,0,0,0-6.854,7.178,14.956,14.956,0,0,0-.947,5.384,15.628,15.628,0,0,0,.922,5.483,12.308,12.308,0,0,0,2.617,4.287,11.349,11.349,0,0,0,4.138,2.767,14.7,14.7,0,0,0,5.483.972,13.475,13.475,0,0,0,7.477-1.994,11.812,11.812,0,0,0,4.586-6.63h-6.231a4.43,4.43,0,0,1-1.894,2.268,7.257,7.257,0,0,1-8.275-.474q-1.6-1.542-1.745-4.985h18.594a18.207,18.207,0,0,0-.5-5.733m-18.1,1.246a7.785,7.785,0,0,1,.324-1.695,5.2,5.2,0,0,1,.947-1.795,5.467,5.467,0,0,1,1.795-1.421,6.173,6.173,0,0,1,2.816-.573,4.982,4.982,0,0,1,3.863,1.4,8.235,8.235,0,0,1,1.77,4.088Z" transform="translate(-169.304 -63.379)" fill="#1a1818"/>
    <path id="Path_911" data-name="Path 911" d="M520.31,177.736a14.123,14.123,0,0,0-2.268-4.885,11.481,11.481,0,0,0-4.013-3.415,12.266,12.266,0,0,0-5.733-1.271,13.326,13.326,0,0,0-5.359,1.047,12.459,12.459,0,0,0-6.854,7.178,14.956,14.956,0,0,0-.947,5.384,15.628,15.628,0,0,0,.922,5.483,12.308,12.308,0,0,0,2.617,4.287,11.349,11.349,0,0,0,4.138,2.767,14.7,14.7,0,0,0,5.483.972,13.475,13.475,0,0,0,7.477-1.994,11.812,11.812,0,0,0,4.586-6.63h-6.231a4.43,4.43,0,0,1-1.894,2.268,7.257,7.257,0,0,1-8.275-.474q-1.6-1.542-1.745-4.985h18.594a18.2,18.2,0,0,0-.5-5.733m-18.1,1.246a7.781,7.781,0,0,1,.324-1.695,5.2,5.2,0,0,1,.947-1.795,5.467,5.467,0,0,1,1.794-1.421,6.173,6.173,0,0,1,2.816-.573,4.982,4.982,0,0,1,3.863,1.4,8.235,8.235,0,0,1,1.77,4.088Z" transform="translate(-186.61 -63.379)" fill="#1a1818"/>
    <path id="Path_912" data-name="Path 912" d="M564.236,183.344a6.506,6.506,0,0,0-1.844-2.044,10.114,10.114,0,0,0-2.617-1.321q-1.477-.5-3.016-.847c-1-.231-1.981-.449-2.941-.648a22.633,22.633,0,0,1-2.567-.673,5.34,5.34,0,0,1-1.819-.972,1.929,1.929,0,0,1-.7-1.545,1.906,1.906,0,0,1,.4-1.271,2.618,2.618,0,0,1,.972-.723,4.23,4.23,0,0,1,1.271-.324,12.158,12.158,0,0,1,1.3-.075,7.114,7.114,0,0,1,3.29.723,3.111,3.111,0,0,1,1.545,2.767h6.73a8.526,8.526,0,0,0-1.221-3.963,8.175,8.175,0,0,0-2.567-2.517,10.913,10.913,0,0,0-3.514-1.346,20.281,20.281,0,0,0-4.063-.4,22.119,22.119,0,0,0-4.088.374,11.133,11.133,0,0,0-3.589,1.3,7.2,7.2,0,0,0-2.567,2.517,7.77,7.77,0,0,0-.972,4.088,5.474,5.474,0,0,0,.7,2.866,5.912,5.912,0,0,0,1.844,1.944,9.971,9.971,0,0,0,2.617,1.246q1.467.477,3.016.823a43.374,43.374,0,0,1,5.907,1.6c1.408.536,2.119,1.333,2.119,2.393a2.6,2.6,0,0,1-.449,1.57,3.377,3.377,0,0,1-1.122,1,5.215,5.215,0,0,1-1.5.548,7.433,7.433,0,0,1-1.57.174,8,8,0,0,1-2.019-.249,5.152,5.152,0,0,1-1.72-.773,4.093,4.093,0,0,1-1.221-1.346,3.856,3.856,0,0,1-.474-1.969h-6.73a8.589,8.589,0,0,0,1.171,4.312,8.493,8.493,0,0,0,2.742,2.767,11.508,11.508,0,0,0,3.813,1.5,21.34,21.34,0,0,0,4.387.449,21.668,21.668,0,0,0,4.312-.424,10.923,10.923,0,0,0,3.764-1.471,7.828,7.828,0,0,0,3.689-7.029,6.047,6.047,0,0,0-.7-3.016" transform="translate(-203.917 -63.379)" fill="#1a1818"/>
    <path id="Path_913" data-name="Path 913" d="M562.712,99.076h-23.94c-1.147-5.791,1.36-11.892-2.095-17.251,3.1-2.041,1.889-3.612.094-7.867-.82-1.944-2.255-3.713-.635-5.908.187-.253.045-.771.011-1.161-.371-4.226,1.829-6.968,5.342-8.716,3.386-1.686,6.219-.593,9.136,1.738a6.908,6.908,0,0,1,2.742,6.364,28.509,28.509,0,0,1,.046,3.936,11.009,11.009,0,0,1-1.56,4.328c-2.133,2.982-1.714,5.729,1.307,7.53a53.589,53.589,0,0,1,7.3,4.886,7.088,7.088,0,0,1,2.161,4.148,60.745,60.745,0,0,1,.1,7.973" transform="translate(-201.785 -21.617)" fill="#1a1818"/>
    <path id="Path_914" data-name="Path 914" d="M402.9,78.587c-3.329,5.462-1.186,11.466-2.158,17.278H377.116c0-3.227-.09-6.509.072-9.779.035-.7.869-1.524,1.544-1.989a91.406,91.406,0,0,1,8.586-5.549,2.867,2.867,0,0,0,1.566-3.88,43.966,43.966,0,0,0-1.893-4.324c-.724-1.668-1.6-3.312-.439-5.176a2.554,2.554,0,0,0,.085-1.388c-.307-4.229,1.915-6.908,5.443-8.685,3.451-1.738,6.209-.546,9.115,1.762A6.585,6.585,0,0,1,403.854,63c-.057,1.242.351,2.537.136,3.734a12.088,12.088,0,0,1-1.549,4.584c-1.828,2.7-1.858,5.6.46,7.272" transform="translate(-142.121 -20.452)" fill="#1a1818"/>
    <path id="Path_915" data-name="Path 915" d="M492.134,64.391c-.11-2.026-1.886-4.528-3.634-5.795-5.584-4.046-11.544-7.57-17.282-11.409-1.107-.741-2.7-2.046-2.64-3.005.184-3.082.006-7.095,1.812-9.01,7.178-7.614,2.547-16.383,3.046-24.533C473.66,6.986,463.173,0,459.25,0c-4.637.006-9.274,0-13.184,0-1.046,2.373-1.376,4.025-2.335,5.133-3.183,3.68-4.042,7.937-3.739,12.592.077,1.183.692,2.755.156,3.484-3.2,4.357-.443,7.841,1.241,11.594a61.163,61.163,0,0,1,3.284,8.768c.753,2.744-.432,4.53-3.123,6.072A195.717,195.717,0,0,0,424.578,58.7c-1.669,1.2-3.478,3.5-3.572,5.374-.4,7.911-.168,15.854-.168,24.042a40.851,40.851,0,0,0,7.871,0h55.41a35.69,35.69,0,0,0,7.161,0h1.024l-.062-.052.062,0c0-8.084.25-15.894-.171-23.668" transform="translate(-158.584 0)" fill="#1a1818"/>
  </g>
</svg>
