<?xml version="1.0" encoding="utf-8"?>
<!-- Generator: Adobe Illustrator 21.0.0, SVG Export Plug-In . SVG Version: 6.00 Build 0)  -->
<svg version="1.1" id="Group_30" xmlns="http://www.w3.org/2000/svg" xmlns:xlink="http://www.w3.org/1999/xlink" x="0px" y="0px"
	 viewBox="0 0 28.3 28.3" style="enable-background:new 0 0 28.3 28.3;" xml:space="preserve">
<style type="text/css">
	.st0{fill:#0959B5;}
</style>
<path id="Path_38" class="st0" d="M15.9,12c1-1.5,2.7-2.4,4.5-2.5c1.4-0.1,2.7,0.2,3.9,0.8c0.9,0.5,1.6,1.3,2,2.2
	c0.5,1.4,0.8,2.8,0.8,4.3c0,3.1,0,6.2,0,9.3c0,0.6,0,0.6-0.6,0.6c-1.4,0-2.8,0-4.2,0c-0.5,0-0.6-0.1-0.6-0.6c0-2.9,0-5.8,0-8.7
	c0-0.7-0.2-1.4-0.5-2c-0.3-0.6-0.8-1-1.4-1.1c-0.9-0.2-1.8-0.1-2.5,0.4c-0.6,0.5-1,1.2-1.1,2.1c-0.2,1.8-0.1,3.6-0.1,5.4
	c0,1.3,0,2.7,0,4c0,0.4-0.1,0.6-0.6,0.6c-1.4,0-2.9,0-4.3,0c-0.4,0-0.5-0.1-0.5-0.5c0-4.1,0-8.1,0-12.2c0-1.2,0-2.4,0-3.6
	c0-0.4,0.2-0.6,0.6-0.6c1.3,0,2.7,0,4,0c0.4,0,0.6,0.1,0.6,0.6C15.8,10.9,15.9,11.4,15.9,12"/>
<path id="Path_39" class="st0" d="M7.5,18.3c0,2.6,0,5.2,0,7.8c0,0.6,0,0.6-0.6,0.6c-1.4,0-2.7,0-4.1,0c-0.4,0-0.6-0.1-0.6-0.6
	c0-5.2,0-10.5,0-15.7c0-0.4,0.1-0.6,0.5-0.5c1.5,0,3,0,4.5,0c0.4,0,0.4,0.3,0.4,0.6C7.5,13.1,7.5,15.7,7.5,18.3L7.5,18.3z"/>
<path id="Path_40" class="st0" d="M1.3,5.3C2,4.9,1.8,4,2.1,3.4C2.4,2.7,3,2.1,3.7,1.8c1.3-0.5,2.8-0.1,3.6,1c1,1.4,0.7,3.3-0.6,4.3
	C5.9,7.8,4.7,8,3.7,7.5C2.8,7.2,2.1,6.4,1.9,5.5C1.8,5,1.8,5,1.4,5.3C1.4,5.3,1.3,5.3,1.3,5.3"/>
</svg>
