<svg xmlns="http://www.w3.org/2000/svg" width="273.211" height="89.61" viewBox="0 0 273.211 89.61">
  <defs>
    <style>
      .cls-1 {
        fill: #fff;
      }
    </style>
  </defs>
  <g id="Group_1" data-name="Group 1" transform="translate(-160.464 -19.584)">
    <g id="Group_22" data-name="Group 22">
      <path id="Path_18" data-name="Path 18" class="cls-1" d="M251.381,30.281c.057.255-.123.378-.219.525q-8.55,13-17.109,25.987-3.646,5.537-7.285,11.079a.668.668,0,0,1-.663.354c-2.962-.118-5.926-.206-8.89-.179a46.656,46.656,0,0,0-5.414.262,3.1,3.1,0,0,0-1.906.922,29.552,29.552,0,0,0-3.729,5C202.821,79.48,199.89,84.969,197,90.478q-4.78,9.1-9.222,18.38a.5.5,0,0,1-.538.336q-10.37-.027-20.738-.04c-1.809,0-3.618-.032-5.427-.048-.167,0-.333,0-.609,0,1.013-1.2,1.959-2.33,2.908-3.453q8.153-9.645,16.308-19.288,5.907-6.979,11.828-13.946,4.813-5.671,9.628-11.342a7.726,7.726,0,0,1,4.611-2.989,12.844,12.844,0,0,1,4.472.095c1.483.268,2.98.4,4.473.585,1.857.229,3.733.258,5.591.459,1.02.11,2.039.094,3.055.18a.843.843,0,0,0,.756-.3q7.218-7.649,14.452-15.279,5.344-5.649,10.686-11.3C249.941,31.779,250.657,31.037,251.381,30.281Z"/>
      <path id="Path_19" data-name="Path 19" class="cls-1" d="M203.116,109.174q-5.25,0-10.5,0c-.151,0-.352.072-.44-.06-.114-.171.074-.307.159-.449a26.449,26.449,0,0,0,1.164-2.749c.521-1.155.942-2.355,1.436-3.523.613-1.453,1.254-2.894,1.887-4.338.722-1.648,1.425-3.3,2.176-4.938q1.385-3.012,2.839-5.992c.9-1.845,1.875-3.656,2.849-5.466,1.125-2.088,2.366-4.1,3.648-6.088a20.662,20.662,0,0,1,3.453-4.183,4.476,4.476,0,0,1,3.007-1.241c2.871-.074,5.743-.243,8.615-.156,1.446.044,2.891.034,4.334.093a1.066,1.066,0,0,0,1.137-.623c.89-1.583,1.86-3.122,2.8-4.677.933-1.537,1.875-3.067,2.8-4.607,1.1-1.832,2.184-3.676,3.292-5.505,1.233-2.036,2.495-4.056,3.728-6.093Q243.792,44.8,246.052,41c1.258-2.1,2.506-4.2,3.768-6.3.609-1.012,1.238-2.011,1.863-3.012a1.018,1.018,0,0,1,.266-.311.722.722,0,0,1,.817-.1c.287.174.171.469.139.7a7.888,7.888,0,0,1-.759,2.065c-.738,1.681-1.542,3.332-2.269,5.018-1.062,2.464-2.209,4.889-3.322,7.33-1.01,2.217-2.042,4.424-3.057,6.639-1.221,2.666-2.422,5.34-3.653,8-.866,1.87-1.776,3.72-2.651,5.586-.639,1.361-1.251,2.735-1.881,4.1a14.434,14.434,0,0,1-2.9,4.777,9.3,9.3,0,0,1-3.467,2.147,17.515,17.515,0,0,1-3.948.61c-2.034.195-4.076.235-6.111.387-.3.022-.378.191-.412.429-.14,1-.272,2-.415,3-.267,1.864-.553,3.725-.805,5.591-.312,2.307-.617,4.618-.988,6.915-.385,2.383-.605,4.789-1.064,7.163-.314,1.628-.433,3.294-.667,4.938a19.64,19.64,0,0,0-.307,2.238.225.225,0,0,1-.254.252c-.121,0-.242,0-.362,0Z"/>
      <path id="Path_20" data-name="Path 20" class="cls-1" d="M224.341,52.562a8.524,8.524,0,0,1-5.069,3.786,8.285,8.285,0,0,1-10.417-7.925,8.122,8.122,0,0,1,3.854-7.158c.171-.114.343-.226.515-.339a9.355,9.355,0,0,1,5-.88,8.391,8.391,0,0,1,7.236,8.69A9.769,9.769,0,0,1,224.341,52.562Z"/>
      <path id="Path_21" data-name="Path 21" class="cls-1" d="M259.975,24.4a4.8,4.8,0,0,1-9.607.074,4.8,4.8,0,1,1,9.607-.074Z"/>
      <path id="Path_22" data-name="Path 22" class="cls-1" d="M224.341,52.562a9.769,9.769,0,0,0,1.123-3.826,8.391,8.391,0,0,0-7.236-8.69,9.355,9.355,0,0,0-5,.88c.069-.6.553-.941.93-1.306a8.146,8.146,0,0,1,6.621-2.323,8.372,8.372,0,0,1,7.513,8.553,8.312,8.312,0,0,1-3.517,6.575A.517.517,0,0,1,224.341,52.562Z"/>
    </g>
    <g id="Group_23" data-name="Group 23">
      <path id="Path_23" data-name="Path 23" class="cls-1" d="M235.126,99.683c0,3.974,0,6.117.652,6.676.528.465,1.335.683,3.757.683,1.646,0,2.857-.031,3.633-.87a3.886,3.886,0,0,0,.807-1.863c.031-.279.094-.466.342-.466.217,0,.248.156.248.529a24.444,24.444,0,0,1-.466,3.571c-.186.683-.341.838-1.956.838-2.856,0-5.713-.187-9.036-.187-1.242,0-2.515.093-3.912.093-.4,0-.621-.093-.621-.31,0-.155.124-.248.5-.248a5.018,5.018,0,0,0,1.118-.125c.621-.124.776-.807.9-1.707.155-1.305.155-3.757.155-6.614V94.218c0-4.72,0-5.589-.062-6.583-.062-1.056-.31-1.553-1.335-1.77a4.615,4.615,0,0,0-1.025-.093c-.341,0-.527-.062-.527-.279s.217-.28.683-.28c1.459,0,3.415.093,4.254.093.745,0,3.012-.093,4.223-.093.434,0,.652.062.652.28s-.187.279-.559.279a8.269,8.269,0,0,0-1.211.093c-.839.155-1.087.683-1.149,1.77-.062.994-.062,1.863-.062,6.583Z"/>
      <path id="Path_24" data-name="Path 24" class="cls-1" d="M247.081,98.72c0-4.658,3.106-10.371,11.272-10.371,6.831,0,10.992,4.192,10.992,9.874,0,6.055-4.254,10.806-11.24,10.806C250.311,109.029,247.081,103.409,247.081,98.72Zm18.227.5c0-5.62-3.229-9.47-7.762-9.47-3.044,0-6.459,1.552-6.459,8.073,0,5.4,2.95,9.75,8.1,9.75C261.085,107.57,265.308,106.794,265.308,99.217Z"/>
      <path id="Path_25" data-name="Path 25" class="cls-1" d="M278.786,98.006c1.3-1.149,4.347-4.409,5.745-5.962,1.18-1.335,1.614-1.925,1.614-2.266,0-.187-.031-.342-.621-.5-.279-.031-.435-.156-.435-.311,0-.124.125-.248.4-.248,1.024,0,1.521.093,2.794.093,1.242,0,3.043-.093,3.447-.093.435,0,.528.093.528.248,0,.093-.093.28-.435.311a7.545,7.545,0,0,0-1.366.279,6.753,6.753,0,0,0-3.168,2.05c-1.242,1.273-4.688,4.813-5.4,5.557,1.367,1.833,6.055,6.77,7.391,8.043,2.266,2.08,2.949,2.484,3.788,2.733a4.181,4.181,0,0,0,1.118.186c.4.031.528.124.528.279,0,.186-.124.279-.5.279h-2.454c-3.166,0-4.191-.31-5.713-1.832-1.987-1.987-5.03-5.5-7.266-8.228v2.391c0,2.36,0,4.5.062,5.62.063.746.311,1.273,1.056,1.4.373.062.963.062,1.3.093a.317.317,0,0,1,.342.279c0,.186-.186.279-.5.279-1.584,0-3.54-.093-4.13-.093-.527,0-2.515.093-3.571.093-.372,0-.559-.093-.559-.279,0-.124.125-.279.466-.279a6.24,6.24,0,0,0,.87-.093c.714-.125.807-.652.9-1.429a52.272,52.272,0,0,0,.155-5.589V96.36c0-4.036,0-4.657-.062-5.527-.062-.838-.279-1.273-1.148-1.428-.373-.062-.684-.093-1.056-.124-.311,0-.466-.124-.466-.311s.186-.248.621-.248c1.4,0,3.291.093,3.881.093.559,0,2.608-.093,3.54-.093.4,0,.559.062.559.248s-.186.311-.435.311c-.248.031-.4.031-.745.093-.776.124-.994.621-1.055,1.521-.032.839-.032,1.429-.032,5.465Z"/>
      <path id="Path_26" data-name="Path 26" class="cls-1" d="M307.479,105.738a12.3,12.3,0,0,1-.218-17.668c2.236-2.05,5.186-3.292,9.812-3.292a30.73,30.73,0,0,1,4.5.311c1.18.155,2.267.434,3.2.528.342.031.372.186.372.372,0,.249-.093.621-.155,1.708-.062,1.025-.03,2.733-.093,3.354-.031.465-.093.745-.372.745-.249,0-.311-.28-.311-.715A4.432,4.432,0,0,0,323,88.225c-1.024-1.087-3.446-1.925-6.3-1.925a8.1,8.1,0,0,0-5.838,1.925c-2.267,2.08-2.857,5.03-2.857,8.042,0,7.39,5.621,11.054,9.781,11.054,2.764,0,4.441-.31,5.683-1.739a5.176,5.176,0,0,0,1.056-2.049c.093-.5.155-.621.4-.621.217,0,.28.217.28.466a29.6,29.6,0,0,1-.683,4.13,1.1,1.1,0,0,1-.808.9,17.981,17.981,0,0,1-5.589.714C313.875,109.122,310.3,108.191,307.479,105.738Z"/>
      <path id="Path_27" data-name="Path 27" class="cls-1" d="M334.121,102.136c-.124,0-.186.062-.248.217l-1.366,3.385a5.7,5.7,0,0,0-.4,1.615c0,.776.963.807,1.553.807.372,0,.465.124.465.248,0,.218-.217.279-.5.279-.963,0-2.08-.093-3.043-.093-.311,0-1.863.093-3.291.093-.342,0-.5-.061-.5-.279,0-.155.156-.279.373-.279,1.956-.186,2.391-.559,3.105-2.36l6.583-15.557c.559-1.459.869-2.049,1.211-2.049.248,0,.4.279.714.962.528,1.522,5.124,12.11,6.862,16.085.994,2.329,1.771,2.733,2.422,2.857a5.7,5.7,0,0,0,1.025.062c.342,0,.466.124.466.279,0,.186-.124.279-.528.279-1.3,0-4.564.063-6.521-.061-.279-.032-.465-.094-.465-.249,0-.124.124-.186.279-.248.28-.093.5-.186.311-.559l-2.112-5.248a.236.236,0,0,0-.248-.186Zm5.559-1.553c.155,0,.155-.062.124-.155l-2.422-6.334c-.093-.249-.186-.311-.31,0l-2.454,6.334c-.031.093,0,.155.125.155Z"/>
      <path id="Path_28" data-name="Path 28" class="cls-1" d="M352.97,96.36c0-3.788,0-4.657-.062-5.527-.062-.838-.31-1.273-1.117-1.428a8.191,8.191,0,0,0-1.087-.124c-.28,0-.466-.094-.466-.28s.186-.279.621-.279c1.4,0,3.291.093,4.006.093,1.148,0,2.732-.093,4.005-.093,3.447,0,4.689.962,5.4,1.645a4.538,4.538,0,0,1,1.335,3.447c0,3.416-3.043,6.055-6.893,6.055a4.379,4.379,0,0,1-.621-.031c-.124-.062-.342-.124-.342-.31s.218-.249.745-.249a4.022,4.022,0,0,0,3.6-4.285,4.983,4.983,0,0,0-1.459-4.037,4.212,4.212,0,0,0-2.8-.962,4.132,4.132,0,0,0-.993.093c-.156.031-.249.186-.249.528v10.4a52.547,52.547,0,0,0,.156,5.558c.062.777.248,1.335,1.055,1.428a10.036,10.036,0,0,0,1.336.125c.341,0,.465.124.465.248,0,.186-.217.31-.5.31-1.831,0-3.788-.093-4.409-.093-.528,0-2.484.093-3.571.093-.341,0-.527-.093-.527-.279,0-.124.124-.279.465-.279a7.81,7.81,0,0,0,.963-.093c.528-.125.683-.652.776-1.491a50.979,50.979,0,0,0,.155-5.527Z"/>
      <path id="Path_29" data-name="Path 29" class="cls-1" d="M370.732,96.36c0-4.036,0-4.657-.061-5.527s-.342-1.3-.932-1.428a8.119,8.119,0,0,0-.963-.124c-.279,0-.434-.094-.434-.311,0-.155.186-.248.621-.248,1.086,0,2.95.093,3.633.093.621,0,2.453-.093,3.508-.093.373,0,.528.093.528.248,0,.217-.155.311-.434.311a6.428,6.428,0,0,0-.714.093c-.746.124-.963.59-1.025,1.49-.093.839-.093,1.46-.093,5.5v4.658c0,2.484.03,4.5.155,5.62.062.715.28,1.273,1.087,1.366a7.49,7.49,0,0,0,1.18.125c.341,0,.465.155.465.279,0,.186-.217.279-.528.279-1.832,0-3.6-.093-4.254-.093-.527,0-2.39.093-3.477.093q-.559,0-.559-.279c0-.124.124-.279.466-.279a5.275,5.275,0,0,0,.838-.093c.528-.125.776-.59.838-1.336a53.31,53.31,0,0,0,.155-5.682Z"/>
      <path id="Path_30" data-name="Path 30" class="cls-1" d="M390.544,101.018c0,2.36,0,4.44.124,5.589.093.714.249,1.3,1.087,1.4.373.063.932.094,1.335.125.311,0,.466.124.466.248,0,.186-.186.31-.559.31-1.8,0-3.7-.093-4.378-.093-.621,0-2.516.093-3.572.093-.372,0-.558-.124-.558-.31,0-.124.124-.248.465-.248a6.7,6.7,0,0,0,.932-.093c.59-.125.745-.683.839-1.46.124-1.118.124-3.1.124-5.558V90.274c-1.025,0-3.075,0-4.317.093-1.583.125-2.049.249-2.422.932a6.6,6.6,0,0,0-.372.87c-.062.186-.155.31-.311.31-.186,0-.248-.155-.248-.466.031-.559.528-2.763.59-3.105.062-.372.155-.559.31-.559a7.018,7.018,0,0,0,1.149.311,25.283,25.283,0,0,0,2.8.155h10.992a11.216,11.216,0,0,0,1.863-.155c.4-.062.622-.124.777-.124.186,0,.217.155.217.621,0,.527-.124,2.453-.124,3.136-.031.279-.093.434-.28.434-.217,0-.248-.155-.279-.527,0-.094-.031-.218-.031-.342-.062-.714-.714-1.428-3.012-1.46-.745-.061-1.894-.093-3.6-.124Z"/>
      <path id="Path_31" data-name="Path 31" class="cls-1" d="M402.748,102.136c-.124,0-.186.062-.249.217l-1.366,3.385a5.694,5.694,0,0,0-.4,1.615c0,.776.962.807,1.552.807.373,0,.466.124.466.248,0,.218-.217.279-.5.279-.962,0-2.08-.093-3.043-.093-.31,0-1.863.093-3.291.093-.342,0-.5-.061-.5-.279,0-.155.155-.279.372-.279,1.957-.186,2.392-.559,3.106-2.36l6.582-15.557c.559-1.459.87-2.049,1.212-2.049.248,0,.4.279.714.962.527,1.522,5.123,12.11,6.862,16.085.993,2.329,1.77,2.733,2.422,2.857a5.686,5.686,0,0,0,1.025.062c.341,0,.465.124.465.279,0,.186-.124.279-.528.279-1.3,0-4.564.063-6.521-.061-.279-.032-.465-.094-.465-.249,0-.124.124-.186.28-.248.279-.093.5-.186.31-.559l-2.112-5.248a.235.235,0,0,0-.248-.186Zm5.558-1.553c.155,0,.155-.062.124-.155l-2.422-6.334c-.093-.249-.186-.311-.31,0l-2.453,6.334c-.031.093,0,.155.124.155Z"/>
      <path id="Path_32" data-name="Path 32" class="cls-1" d="M425.26,101.018c0,3.26,0,5.093.56,5.558.434.435,1.118.621,3.291.621,1.428,0,2.484-.031,3.2-.683a3.146,3.146,0,0,0,.808-1.708c.062-.248.093-.5.31-.5s.248.218.248.528a22.045,22.045,0,0,1-.465,3.2c-.186.621-.311.714-1.677.714-2.763,0-5.279-.156-8.2-.156-1.118,0-2.267.093-3.54.093-.373,0-.59-.093-.59-.279,0-.124.155-.248.466-.279a5.746,5.746,0,0,0,.869-.093c.652-.156.838-.652.931-1.677.125-1.087.125-3.074.125-5.341V96.36c0-4.036,0-4.657-.062-5.5-.063-.869-.28-1.273-1.118-1.459a6.211,6.211,0,0,0-.932-.124c-.31,0-.5-.094-.5-.28s.217-.279.651-.279c1.3,0,2.981.093,3.789.093.59,0,2.825-.093,3.881-.093.435,0,.59.093.59.279s-.155.28-.528.28a6.139,6.139,0,0,0-1.024.124c-.746.124-.963.559-1.025,1.49-.063.839-.063,1.429-.063,5.528Z"/>
    </g>
  </g>
</svg>
