<svg id="Group_1059" data-name="Group 1059" xmlns="http://www.w3.org/2000/svg" width="174.751" height="57.316" viewBox="0 0 174.751 57.316">
  <defs>
    <style>
      .cls-1 {
        fill: #221f20;
      }

      .cls-2 {
        fill: #bfd8f0;
      }
    </style>
  </defs>
  <g id="Group_22" data-name="Group 22" transform="translate(0 0)">
    <path id="Path_18" data-name="Path 18" class="cls-1" d="M218.616,30.281c.036.163-.079.242-.14.336q-5.469,8.312-10.943,16.622-2.332,3.541-4.66,7.086a.427.427,0,0,1-.424.226c-1.895-.075-3.79-.132-5.686-.114a29.842,29.842,0,0,0-3.463.168,1.984,1.984,0,0,0-1.219.59,18.9,18.9,0,0,0-2.385,3.2c-2.139,3.36-4.014,6.871-5.864,10.394q-3.058,5.824-5.9,11.756a.318.318,0,0,1-.344.215q-6.633-.017-13.264-.026c-1.157,0-2.314-.02-3.471-.031-.107,0-.213,0-.39,0,.648-.77,1.253-1.49,1.86-2.209q5.215-6.169,10.431-12.337,3.778-4.464,7.565-8.92,3.079-3.628,6.158-7.255a4.942,4.942,0,0,1,2.949-1.912,8.215,8.215,0,0,1,2.86.061c.949.171,1.906.256,2.861.374,1.188.146,2.388.165,3.576.294.652.07,1.3.06,1.954.115a.539.539,0,0,0,.484-.191q4.617-4.892,9.244-9.773,3.418-3.613,6.835-7.228C217.7,31.239,218.153,30.765,218.616,30.281Z" transform="translate(-160.464 -23.439)"/>
    <path id="Path_19" data-name="Path 19" class="cls-2" d="M199.161,81.071q-3.358,0-6.715,0c-.1,0-.225.046-.281-.038-.073-.109.047-.2.1-.287a16.918,16.918,0,0,0,.745-1.758c.333-.739.6-1.506.918-2.253.392-.929.8-1.851,1.207-2.775.462-1.054.911-2.113,1.392-3.158q.886-1.927,1.816-3.833c.579-1.18,1.2-2.338,1.822-3.5.72-1.336,1.513-2.622,2.333-3.894a13.216,13.216,0,0,1,2.209-2.676,2.863,2.863,0,0,1,1.923-.794c1.836-.047,3.673-.155,5.51-.1.925.028,1.849.022,2.772.059a.682.682,0,0,0,.727-.4c.569-1.013,1.19-2,1.792-2.991s1.2-1.962,1.793-2.947c.7-1.172,1.4-2.351,2.106-3.521.789-1.3,1.6-2.594,2.385-3.9q1.462-2.417,2.908-4.844c.8-1.343,1.6-2.689,2.41-4.03.39-.647.792-1.286,1.192-1.927a.65.65,0,0,1,.17-.2.462.462,0,0,1,.523-.063c.184.111.109.3.089.448a5.043,5.043,0,0,1-.485,1.321c-.472,1.075-.986,2.131-1.451,3.21-.679,1.576-1.413,3.127-2.125,4.688-.646,1.418-1.306,2.83-1.955,4.246-.781,1.705-1.549,3.416-2.337,5.118-.554,1.2-1.136,2.379-1.7,3.573-.409.871-.8,1.749-1.2,2.622a9.233,9.233,0,0,1-1.853,3.055,5.95,5.95,0,0,1-2.218,1.373,11.2,11.2,0,0,1-2.525.39c-1.3.125-2.607.15-3.909.248-.191.014-.242.122-.264.274-.09.64-.174,1.28-.265,1.919-.171,1.192-.354,2.383-.515,3.576-.2,1.476-.395,2.954-.632,4.423-.246,1.524-.387,3.063-.681,4.582-.2,1.041-.277,2.107-.427,3.158a12.563,12.563,0,0,0-.2,1.431.144.144,0,0,1-.162.161l-.232,0Z" transform="translate(-171.88 -23.767)"/>
    <path id="Path_20" data-name="Path 20" class="cls-1" d="M218.76,48.033a5.452,5.452,0,0,1-3.242,2.422,5.3,5.3,0,0,1-6.663-5.069,5.2,5.2,0,0,1,2.465-4.578l.329-.217a5.983,5.983,0,0,1,3.2-.563,5.367,5.367,0,0,1,4.628,5.558A6.248,6.248,0,0,1,218.76,48.033Z" transform="translate(-177.903 -26.939)"/>
    <path id="Path_21" data-name="Path 21" class="cls-1" d="M256.513,22.666a3.073,3.073,0,0,1-6.145.047,3.073,3.073,0,1,1,6.145-.047Z" transform="translate(-192.864 -19.584)"/>
    <path id="Path_22" data-name="Path 22" class="cls-2" d="M220.335,47.047a6.248,6.248,0,0,0,.718-2.447,5.367,5.367,0,0,0-4.628-5.558,5.983,5.983,0,0,0-3.2.563c.044-.387.354-.6.595-.835a5.211,5.211,0,0,1,4.235-1.486,5.355,5.355,0,0,1,4.805,5.471,5.316,5.316,0,0,1-2.25,4.205A.331.331,0,0,1,220.335,47.047Z" transform="translate(-179.478 -25.954)"/>
  </g>
  <g id="Group_23" data-name="Group 23" transform="translate(43.386 41.699)">
    <path id="Path_23" data-name="Path 23" d="M232.664,94.468c0,2.542,0,3.913.417,4.27.338.3.854.437,2.4.437,1.053,0,1.827-.02,2.324-.556a2.486,2.486,0,0,0,.516-1.192c.02-.178.06-.3.219-.3.139,0,.159.1.159.338a15.639,15.639,0,0,1-.3,2.284c-.119.437-.218.536-1.251.536-1.827,0-3.654-.12-5.78-.12-.794,0-1.609.059-2.5.059-.258,0-.4-.059-.4-.2,0-.1.079-.159.318-.159a3.209,3.209,0,0,0,.715-.08c.4-.079.5-.516.576-1.092.1-.835.1-2.4.1-4.23v-3.5c0-3.019,0-3.575-.04-4.211-.04-.675-.2-.993-.854-1.132a2.952,2.952,0,0,0-.656-.059c-.218,0-.337-.04-.337-.178s.139-.179.437-.179c.933,0,2.184.059,2.721.059.477,0,1.927-.059,2.7-.059.278,0,.417.04.417.179s-.12.178-.358.178a5.289,5.289,0,0,0-.775.059c-.537.1-.7.437-.735,1.132-.04.636-.04,1.192-.04,4.211Z" transform="translate(-228.295 -84.935)"/>
    <path id="Path_24" data-name="Path 24" d="M247.081,94.982c0-2.979,1.987-6.633,7.21-6.633,4.369,0,7.031,2.681,7.031,6.316,0,3.873-2.721,6.912-7.189,6.912C249.147,101.576,247.081,97.982,247.081,94.982Zm11.658.318c0-3.595-2.065-6.057-4.965-6.057-1.947,0-4.131.993-4.131,5.164,0,3.456,1.887,6.236,5.183,6.236C256.038,100.643,258.739,100.147,258.739,95.3Z" transform="translate(-235.065 -86.065)"/>
    <path id="Path_25" data-name="Path 25" d="M276.5,94.66c.835-.735,2.78-2.82,3.675-3.813.755-.854,1.032-1.231,1.032-1.449,0-.12-.02-.219-.4-.318-.178-.02-.278-.1-.278-.2,0-.079.08-.159.259-.159.655,0,.973.059,1.787.059.794,0,1.946-.059,2.2-.059.278,0,.338.059.338.159,0,.059-.059.179-.278.2a4.825,4.825,0,0,0-.874.178,4.319,4.319,0,0,0-2.026,1.311c-.794.814-3,3.078-3.456,3.554.874,1.172,3.873,4.33,4.727,5.144,1.449,1.33,1.886,1.589,2.423,1.748a2.673,2.673,0,0,0,.715.119c.258.02.338.079.338.178,0,.119-.079.178-.318.178H284.8c-2.025,0-2.681-.2-3.654-1.172-1.271-1.271-3.217-3.515-4.647-5.263v1.529c0,1.509,0,2.88.04,3.595.04.477.2.814.675.894.239.04.616.04.834.059a.2.2,0,0,1,.219.178c0,.119-.119.178-.318.178-1.013,0-2.264-.059-2.642-.059-.337,0-1.609.059-2.284.059-.238,0-.358-.059-.358-.178,0-.079.08-.178.3-.178a3.989,3.989,0,0,0,.556-.059c.457-.08.516-.417.576-.914a33.43,33.43,0,0,0,.1-3.575V93.607c0-2.582,0-2.979-.04-3.535-.04-.536-.178-.814-.734-.913-.239-.04-.437-.059-.675-.079-.2,0-.3-.079-.3-.2s.119-.159.4-.159c.894,0,2.105.059,2.482.059.358,0,1.668-.059,2.264-.059.258,0,.358.04.358.159s-.119.2-.278.2c-.159.02-.258.02-.477.059-.5.079-.636.4-.675.973-.02.537-.02.914-.02,3.5Z" transform="translate(-244.208 -86.199)"/>
    <path id="Path_26" data-name="Path 26" d="M306.091,98.184a7.865,7.865,0,0,1-.139-11.3,8.664,8.664,0,0,1,6.276-2.106,19.655,19.655,0,0,1,2.88.2c.755.1,1.45.278,2.045.338.219.02.238.119.238.238,0,.159-.059.4-.1,1.092-.04.656-.019,1.748-.059,2.145-.02.3-.059.477-.238.477-.159,0-.2-.179-.2-.457a2.835,2.835,0,0,0-.775-1.827,5.922,5.922,0,0,0-4.032-1.231,5.18,5.18,0,0,0-3.734,1.231,6.636,6.636,0,0,0-1.827,5.144c0,4.727,3.6,7.07,6.256,7.07,1.768,0,2.841-.2,3.635-1.112a3.311,3.311,0,0,0,.675-1.311c.059-.318.1-.4.258-.4.139,0,.179.139.179.3a18.934,18.934,0,0,1-.437,2.642.7.7,0,0,1-.517.576,11.5,11.5,0,0,1-3.575.457A9.926,9.926,0,0,1,306.091,98.184Z" transform="translate(-255.444 -84.778)"/>
    <path id="Path_27" data-name="Path 27" d="M331.48,97.1c-.079,0-.119.04-.159.139l-.874,2.165a3.647,3.647,0,0,0-.258,1.033c0,.5.616.516.993.516.238,0,.3.079.3.159,0,.139-.139.178-.317.178-.616,0-1.33-.059-1.946-.059-.2,0-1.192.059-2.105.059-.219,0-.319-.039-.319-.178,0-.1.1-.178.239-.178,1.251-.119,1.529-.358,1.986-1.51l4.211-9.951c.358-.933.556-1.311.775-1.311.159,0,.258.178.457.615.338.974,3.277,7.746,4.389,10.288.636,1.49,1.133,1.748,1.549,1.827a3.645,3.645,0,0,0,.656.04c.219,0,.3.079.3.178,0,.119-.079.178-.338.178-.834,0-2.919.04-4.171-.039-.178-.02-.3-.06-.3-.159,0-.079.079-.119.178-.159.179-.059.318-.119.2-.358l-1.351-3.357a.151.151,0,0,0-.159-.119Zm3.556-.993c.1,0,.1-.04.079-.1l-1.549-4.051c-.059-.159-.119-.2-.2,0l-1.57,4.051c-.02.059,0,.1.08.1Z" transform="translate(-263.792 -85.998)"/>
    <path id="Path_28" data-name="Path 28" d="M351.985,93.607c0-2.423,0-2.979-.04-3.535-.04-.536-.2-.814-.714-.913a5.238,5.238,0,0,0-.7-.079c-.179,0-.3-.06-.3-.179s.119-.178.4-.178c.894,0,2.1.059,2.562.059.734,0,1.747-.059,2.562-.059,2.2,0,3,.615,3.456,1.052a2.9,2.9,0,0,1,.854,2.2,4.12,4.12,0,0,1-4.409,3.873,2.8,2.8,0,0,1-.4-.02c-.079-.04-.219-.079-.219-.2s.139-.159.477-.159a2.572,2.572,0,0,0,2.3-2.741,3.187,3.187,0,0,0-.933-2.582,2.694,2.694,0,0,0-1.788-.615,2.643,2.643,0,0,0-.635.059c-.1.02-.159.119-.159.338v6.653a33.607,33.607,0,0,0,.1,3.555c.04.5.159.854.675.913a6.418,6.418,0,0,0,.855.08c.218,0,.3.079.3.159,0,.119-.139.2-.318.2-1.171,0-2.423-.059-2.82-.059-.338,0-1.589.059-2.284.059-.218,0-.337-.059-.337-.178,0-.079.079-.178.3-.178a4.993,4.993,0,0,0,.616-.059c.338-.08.437-.417.5-.954a32.6,32.6,0,0,0,.1-3.535Z" transform="translate(-272.241 -86.199)"/>
    <path id="Path_29" data-name="Path 29" d="M369.871,93.607c0-2.582,0-2.979-.039-3.535s-.219-.834-.6-.913a5.192,5.192,0,0,0-.616-.079c-.178,0-.278-.06-.278-.2,0-.1.119-.159.4-.159.695,0,1.887.059,2.324.059.4,0,1.569-.059,2.244-.059.239,0,.338.059.338.159,0,.139-.1.2-.278.2a4.111,4.111,0,0,0-.457.059c-.477.079-.616.377-.656.953-.06.537-.06.934-.06,3.515v2.979c0,1.589.019,2.88.1,3.595.04.457.179.814.7.874a4.789,4.789,0,0,0,.755.08c.218,0,.3.1.3.178,0,.119-.139.178-.338.178-1.172,0-2.3-.059-2.721-.059-.337,0-1.529.059-2.224.059q-.358,0-.358-.178c0-.079.079-.178.3-.178a3.373,3.373,0,0,0,.536-.059c.338-.08.5-.377.536-.855a34.084,34.084,0,0,0,.1-3.634Z" transform="translate(-278.765 -86.199)"/>
    <path id="Path_30" data-name="Path 30" d="M386.448,96.452c0,1.509,0,2.84.079,3.575.059.457.159.834.7.894.239.04.6.06.854.08.2,0,.3.079.3.159,0,.119-.119.2-.357.2-1.152,0-2.363-.059-2.8-.059-.4,0-1.609.059-2.285.059-.238,0-.357-.079-.357-.2,0-.079.079-.159.3-.159a4.288,4.288,0,0,0,.6-.059c.377-.08.477-.437.537-.934.079-.715.079-1.986.079-3.555V89.58c-.656,0-1.967,0-2.761.059-1.013.08-1.311.159-1.549.6a4.221,4.221,0,0,0-.238.556c-.04.119-.1.2-.2.2-.119,0-.159-.1-.159-.3.02-.358.338-1.767.377-1.986.04-.238.1-.358.2-.358a4.488,4.488,0,0,0,.735.2,16.174,16.174,0,0,0,1.788.1h7.031a7.175,7.175,0,0,0,1.192-.1c.258-.04.4-.079.5-.079.119,0,.139.1.139.4,0,.337-.079,1.569-.079,2.006-.02.178-.059.278-.179.278-.139,0-.159-.1-.178-.337,0-.06-.02-.139-.02-.219-.04-.457-.457-.913-1.927-.934-.477-.039-1.211-.059-2.3-.079Z" transform="translate(-282.671 -86.065)"/>
    <path id="Path_31" data-name="Path 31" d="M400.107,97.1c-.079,0-.119.04-.159.139l-.874,2.165a3.641,3.641,0,0,0-.258,1.033c0,.5.615.516.993.516.239,0,.3.079.3.159,0,.139-.139.178-.318.178-.615,0-1.33-.059-1.946-.059-.2,0-1.192.059-2.1.059-.219,0-.318-.039-.318-.178,0-.1.1-.178.238-.178,1.252-.119,1.53-.358,1.987-1.51l4.21-9.951c.358-.933.556-1.311.775-1.311.159,0,.258.178.457.615.337.974,3.277,7.746,4.389,10.288.635,1.49,1.132,1.748,1.549,1.827a3.638,3.638,0,0,0,.656.04c.218,0,.3.079.3.178,0,.119-.079.178-.338.178-.834,0-2.919.04-4.171-.039-.178-.02-.3-.06-.3-.159,0-.079.079-.119.179-.159.178-.059.317-.119.2-.358L404.2,97.219a.15.15,0,0,0-.159-.119Zm3.555-.993c.1,0,.1-.04.079-.1l-1.549-4.051c-.059-.159-.119-.2-.2,0l-1.569,4.051c-.02.059,0,.1.079.1Z" transform="translate(-288.524 -85.998)"/>
    <path id="Path_32" data-name="Path 32" d="M423,96.587c0,2.085,0,3.258.358,3.555.278.278.715.4,2.1.4a2.947,2.947,0,0,0,2.046-.437,2.012,2.012,0,0,0,.517-1.092c.04-.159.059-.318.2-.318s.159.139.159.338a14.1,14.1,0,0,1-.3,2.046c-.119.4-.2.457-1.073.457-1.767,0-3.377-.1-5.243-.1-.715,0-1.45.059-2.264.059-.239,0-.377-.059-.377-.178,0-.079.1-.159.3-.178a3.675,3.675,0,0,0,.556-.059c.417-.1.536-.417.6-1.073.08-.7.08-1.966.08-3.416V93.607c0-2.582,0-2.979-.04-3.515-.04-.556-.179-.814-.715-.933a3.972,3.972,0,0,0-.6-.079c-.2,0-.317-.06-.317-.179s.139-.178.416-.178c.835,0,1.907.059,2.423.059.377,0,1.807-.059,2.482-.059.278,0,.377.059.377.178s-.1.179-.338.179a3.926,3.926,0,0,0-.655.079c-.477.079-.616.358-.656.953-.04.537-.04.914-.04,3.536Z" transform="translate(-297.018 -86.199)"/>
  </g>
</svg>
