<svg xmlns="http://www.w3.org/2000/svg" width="45.674" height="45.667" viewBox="0 0 45.674 45.667">
  <g id="Group_1140" data-name="Group 1140" transform="translate(0)">
    <path id="Path_964" data-name="Path 964" d="M22.873,0a22.834,22.834,0,1,0,22.8,22.843A22.79,22.79,0,0,0,22.873,0M33.99,24.522Q26.4,29.4,18.807,34.266c-.7.449-1.4.856-2.236.38-.785-.446-.828-1.222-.826-2.009q0-4.942,0-9.884c0-3.258.007-6.514,0-9.772a2.018,2.018,0,0,1,.941-2.064c.778-.412,1.4,0,2.018.4q7.645,4.9,15.282,9.8c1.774,1.144,1.774,2.264.007,3.4" transform="translate(0 0)" fill="#0959b5"/>
    <path id="Path_965" data-name="Path 965" d="M93.226,75.236q-5.1,3.227-10.163,6.507c-.709.458-1,.4-.985-.515.03-2.184.011-4.367.011-6.553,0-2.144.016-4.291-.009-6.435-.012-.847.124-1.176,1-.607q5.056,3.293,10.161,6.509c.69.435.633.686-.016,1.1" transform="translate(-63.193 -51.852)" fill="#0959b5"/>
  </g>
</svg>
