<svg xmlns="http://www.w3.org/2000/svg" xmlns:xlink="http://www.w3.org/1999/xlink" width="851.687" height="212.923" viewBox="0 0 851.687 212.923">
  <defs>
    <clipPath id="clip-path">
      <rect id="Rectangle_64" data-name="Rectangle 64" width="851.687" height="212.923" fill="none"/>
    </clipPath>
  </defs>
  <g id="Group_196" data-name="Group 196" transform="translate(0 0)">
    <g id="Group_195" data-name="Group 195" transform="translate(0 0)" clip-path="url(#clip-path)">
      <path id="Path_311" data-name="Path 311" d="M260.41,106.459H153.951A106.457,106.457,0,0,1,260.41,0Z" transform="translate(484.818 0.001)" fill="#e86023"/>
      <path id="Path_312" data-name="Path 312" d="M260.41,132.118H153.951A106.457,106.457,0,0,1,260.41,25.659Z" transform="translate(484.818 80.806)" fill="#3b2675"/>
      <path id="Path_313" data-name="Path 313" d="M286.068,106.459H179.609A106.457,106.457,0,0,1,286.068,0Z" transform="translate(565.619 0.001)" fill="#3b2675"/>
      <path id="Path_314" data-name="Path 314" d="M286.068,132.118H179.609A106.457,106.457,0,0,1,286.068,25.659Z" transform="translate(565.619 80.806)" fill="#ea9e24"/>
      <path id="Path_315" data-name="Path 315" d="M106.459,0H212.923V212.923H106.459A106.461,106.461,0,0,1,106.459,0" transform="translate(0 0.001)" fill="#f23342"/>
      <path id="Path_316" data-name="Path 316" d="M264.239,106.459A106.461,106.461,0,1,1,157.779,0,106.46,106.46,0,0,1,264.239,106.459" transform="translate(161.603 0.001)" fill="#0b1347"/>
      <path id="Path_317" data-name="Path 317" d="M132.13,71.6A60.53,60.53,0,1,1,71.6,11.069,60.534,60.534,0,0,1,132.13,71.6" transform="translate(34.861 34.859)" fill="#fff"/>
      <path id="Path_318" data-name="Path 318" d="M315.556,0H209.1L102.633,212.923H209.1Z" transform="translate(323.21 0.001)" fill="#05c4ce"/>
    </g>
  </g>
</svg>
