<?xml version="1.0" encoding="utf-8"?>
<!-- Generator: Adobe Illustrator 21.0.0, SVG Export Plug-In . SVG Version: 6.00 Build 0)  -->
<svg version="1.1" id="Layer_1" xmlns="http://www.w3.org/2000/svg" xmlns:xlink="http://www.w3.org/1999/xlink" x="0px" y="0px"
	 viewBox="0 0 28.3 28.3" style="enable-background:new 0 0 28.3 28.3;" xml:space="preserve">
<style type="text/css">
	.st0{fill:#FFFFFF;}
</style>
<path id="Path_36" class="st0" d="M8.7,20.2c-0.6-0.1-1.2-0.3-1.7-0.5c-0.6-0.3-1.1-0.6-1.6-1.1c-0.4-0.4-0.7-0.8-1-1.2
	c-0.1-0.1-0.2-0.3-0.2-0.4c-0.2-0.6-0.2-0.6,0.4-0.6c0.5,0.1,1,0,1.5-0.1c-1-0.3-1.9-0.8-2.6-1.6c-0.8-0.9-1.3-2.1-1.4-3.3
	c0-0.1,0-0.3,0.1-0.4c0.1-0.1,0.3,0,0.4,0.1c0.5,0.3,1,0.4,1.6,0.5c0-0.1-0.1-0.3-0.2-0.4C2.3,9.8,1.7,7.6,2.4,5.6
	C2.5,5.3,2.6,5,2.7,4.7c0.1-0.2,0.2-0.2,0.4,0c0.5,0.6,1.1,1.2,1.7,1.7c0.6,0.6,1.3,1.1,2,1.5c1,0.6,2,1.1,3,1.4
	c1.2,0.4,2.3,0.6,3.6,0.8c0.2,0,0.3,0,0.3-0.3c-0.3-1.8,0.4-3.7,1.8-4.9c0.6-0.6,1.4-1,2.2-1.2c1.4-0.4,2.8-0.2,4,0.6
	c0.3,0.2,0.6,0.4,0.9,0.6c0.4,0.4,0.7,0.3,1.2,0.1c0.1-0.1,0.3,0,0.5-0.1c0.6-0.2,1.2-0.5,1.8-0.8c0.1,0,0.2-0.1,0.2,0
	c0.1,0.1,0,0.2,0,0.3c-0.4,1-1.1,1.9-2,2.5c0.8-0.1,1.5-0.3,2.2-0.6c0.2-0.1,0.4-0.4,0.7-0.1C26.7,6.6,26.4,7,26,7.5
	c-0.4,0.4-0.8,0.8-1.3,1.2c-0.2,0.1-0.3,0.3-0.2,0.5c0,1.7-0.2,3.4-0.7,5c-0.3,0.9-0.7,1.8-1.2,2.7c-0.3,0.5-0.6,1.1-1,1.6
	c-0.8,1-1.6,2-2.6,2.9c-0.8,0.7-1.7,1.3-2.6,1.8c-1,0.5-2.1,0.9-3.1,1.2C10.6,25,7.8,25,5.2,24.2c-1.3-0.4-2.6-1-3.8-1.7
	c-0.1,0-0.2-0.1-0.1-0.2c0-0.1,0.1-0.1,0.2-0.1c0.3,0,0.6,0.1,0.9,0.1c1.1,0,2.2-0.2,3.3-0.5C6.7,21.5,7.8,20.9,8.7,20.2"/>
</svg>
