<?xml version="1.0" encoding="utf-8"?>
<!-- Generator: Adobe Illustrator 24.3.0, SVG Export Plug-In . SVG Version: 6.00 Build 0)  -->
<svg version="1.1" id="Layer_1" xmlns="http://www.w3.org/2000/svg" xmlns:xlink="http://www.w3.org/1999/xlink" x="0px" y="0px"
	 viewBox="0 0 600 110" style="enable-background:new 0 0 600 110;" xml:space="preserve">
<style type="text/css">
	.st0{clip-path:url(#SVGID_2_);}
	.st1{clip-path:url(#SVGID_4_);}
	.st2{fill:#4B84BC;}
	.st3{fill:#2675C4;}
	.st4{fill:#0959B5;}
	.st5{fill:#FFFFFF;}
	.st6{opacity:0.2;}
	.st7{clip-path:url(#SVGID_6_);}
	.st8{clip-path:url(#SVGID_8_);}
	.st9{clip-path:url(#SVGID_10_);}
	.st10{clip-path:url(#SVGID_12_);}
</style>
<g>
	<defs>
		<rect id="SVGID_1_" x="2.4" y="0.5" width="596" height="108.3"/>
	</defs>
	<clipPath id="SVGID_2_">
		<use xlink:href="#SVGID_1_"  style="overflow:visible;"/>
	</clipPath>
	<g id="Group_1315" class="st0">
		<g id="Group_1314">
			<g>
				<defs>
					<rect id="SVGID_3_" x="2.4" y="0.5" width="596" height="108.3"/>
				</defs>
				<clipPath id="SVGID_4_">
					<use xlink:href="#SVGID_3_"  style="overflow:visible;"/>
				</clipPath>
				<g id="Group_1313" class="st1">
					<path id="Path_1106" class="st2" d="M146.6,24.4c-14,17.6-14,42.6,0,60.3H32.5c-16.6,0-30.1-13.5-30.1-30.1
						c0-16.6,13.5-30.1,30.1-30.1c0,0,0,0,0,0L146.6,24.4z"/>
					<path id="Path_1107" class="st3" d="M359.1,24.4c-14,17.6-14,42.6,0,60.3H222.4c14-17.6,14-42.6,0-60.3L359.1,24.4z"/>
					<path id="Path_1108" class="st4" d="M598.4,54.5L598.4,54.5c0,16.6-13.5,30.1-30.1,30.1H434.9c14-17.6,14-42.6,0-60.3h133.3
						C584.9,24.4,598.4,37.9,598.4,54.5"/>
					<path id="Path_1109" class="st5" d="M33.7,39.3l5.7,26.1l5.7-26.1H47l-6.1,28.3h-2.7l-6.2-28.3L33.7,39.3z"/>
					<path id="Path_1110" class="st5" d="M49.9,61.4l-1.4,6.3h-1.7l6.2-28.3h2.7L62,67.6h-1.9l-1.4-6.3H49.9z M50.2,59.8h8.2
						l-4.2-18.3L50.2,59.8z"/>
					<path id="Path_1111" class="st5" d="M63.2,67.6V39.3H65v26.6h8.9v1.7H63.2z"/>
					<path id="Path_1112" class="st5" d="M76.9,60.8c0,0.7,0.1,1.4,0.2,2.1c0.1,0.6,0.4,1.2,0.7,1.7c0.3,0.5,0.8,0.9,1.3,1.1
						c1.3,0.5,2.7,0.5,4,0c0.5-0.3,1-0.6,1.3-1.1c0.4-0.5,0.6-1.1,0.7-1.7c0.2-0.7,0.2-1.4,0.2-2.1V39.3h1.7v21.4
						c0,1-0.1,1.9-0.3,2.8c-0.2,0.8-0.6,1.6-1.1,2.3c-0.5,0.7-1.1,1.2-1.9,1.5c-1.8,0.7-3.8,0.7-5.5,0c-0.7-0.3-1.4-0.9-1.9-1.5
						c-0.5-0.7-0.9-1.4-1.1-2.3c-0.2-0.9-0.4-1.9-0.3-2.8V39.3h1.9L76.9,60.8z"/>
					<path id="Path_1113" class="st5" d="M98.2,52.4v1.7h-7.7v11.8h9.3v1.7H88.7V39.3h11.2V41h-9.3v11.4L98.2,52.4z"/>
					<path id="Path_1114" class="st5" d="M107.1,39.1c0.9,0,1.9,0.2,2.7,0.5c0.7,0.3,1.4,0.8,1.9,1.5c0.5,0.7,0.9,1.4,1.1,2.2
						c0.2,0.9,0.4,1.9,0.3,2.8v0.6h-1.8v-0.7c0-0.7-0.1-1.4-0.2-2.1c-0.1-0.6-0.4-1.2-0.7-1.7c-0.3-0.5-0.8-0.9-1.3-1.1
						c-0.6-0.3-1.3-0.4-1.9-0.4c-1.3-0.1-2.5,0.4-3.3,1.5c-0.7,1.1-1,2.4-0.9,3.7c0,1,0.2,2.1,0.7,3c0.5,0.8,1.2,1.6,1.9,2.2
						c0.8,0.7,1.6,1.3,2.5,1.9c0.9,0.6,1.7,1.3,2.5,2c0.8,0.7,1.4,1.5,1.9,2.4c0.5,1,0.8,2.2,0.7,3.3c0,1-0.1,1.9-0.3,2.8
						c-0.2,0.8-0.6,1.6-1.1,2.2c-0.5,0.6-1.2,1.1-1.9,1.5c-1.8,0.7-3.8,0.7-5.5,0c-0.7-0.3-1.4-0.8-1.9-1.5
						c-0.5-0.7-0.9-1.4-1.1-2.2c-0.2-0.9-0.4-1.9-0.3-2.8v-1.5h1.8v1.6c-0.1,1.3,0.3,2.6,1,3.7c1.6,1.8,4.5,2,6.3,0.3
						c0.1-0.1,0.2-0.2,0.3-0.3c0.7-1.1,1-2.4,1-3.7c0-1-0.2-2-0.7-2.9c-0.5-0.8-1.2-1.6-1.9-2.2c-0.8-0.7-1.6-1.3-2.5-1.9
						c-0.9-0.6-1.7-1.2-2.5-2c-0.8-0.7-1.4-1.5-1.9-2.5c-0.5-1-0.8-2.2-0.7-3.4c-0.1-1.8,0.4-3.6,1.4-5.1
						C103.5,39.8,105,39.1,107.1,39.1"/>
					<path id="Path_1115" class="st5" d="M259.4,39.3l5.7,26.1l5.7-26.1h1.7l-6.1,28.3h-2.7l-6.2-28.3L259.4,39.3z"/>
					<path id="Path_1116" class="st5" d="M275.5,61.4l-1.4,6.3h-1.7l6.2-28.3h2.7l6.3,28.3h-1.9l-1.4-6.3H275.5z M275.8,59.8h8.2
						l-4.2-18.3L275.8,59.8z"/>
					<path id="Path_1117" class="st5" d="M288.8,67.6V39.3h1.9v26.6h8.9v1.7H288.8z"/>
					<path id="Path_1118" class="st5" d="M302.5,60.8c0,0.7,0.1,1.4,0.2,2.1c0.1,0.6,0.4,1.2,0.7,1.7c0.3,0.5,0.8,0.9,1.3,1.1
						c1.3,0.5,2.7,0.5,4,0c0.5-0.3,1-0.6,1.3-1.1c0.4-0.5,0.6-1.1,0.7-1.7c0.2-0.7,0.2-1.4,0.2-2.1V39.3h1.7v21.4
						c0,1-0.1,1.9-0.3,2.8c-0.2,0.8-0.6,1.6-1.1,2.3c-0.5,0.7-1.1,1.2-1.9,1.5c-1.8,0.7-3.8,0.7-5.5,0c-0.7-0.3-1.4-0.9-1.9-1.5
						c-0.5-0.7-0.9-1.4-1.1-2.3c-0.2-0.9-0.4-1.9-0.3-2.8V39.3h1.9L302.5,60.8z"/>
					<path id="Path_1119" class="st5" d="M323.9,52.4v1.7h-7.7v11.8h9.3v1.7h-11.2V39.3h11.2V41h-9.3v11.4L323.9,52.4z"/>
					<path id="Path_1120" class="st5" d="M462.9,39.3l5.7,26.1l5.7-26.1h1.7l-6.1,28.3h-2.7L461,39.3L462.9,39.3z"/>
					<path id="Path_1121" class="st5" d="M479,61.4l-1.4,6.3h-1.7l6.2-28.3h2.7l6.3,28.3h-1.9l-1.4-6.3H479z M479.3,59.8h8.2
						l-4.2-18.3L479.3,59.8z"/>
					<path id="Path_1122" class="st5" d="M492.3,67.6V39.3h1.9v26.6h8.9v1.7H492.3z"/>
					<path id="Path_1123" class="st5" d="M506,60.8c0,0.7,0.1,1.4,0.2,2.1c0.1,0.6,0.4,1.2,0.7,1.7c0.3,0.5,0.8,0.9,1.3,1.1
						c1.3,0.5,2.7,0.5,4,0c0.5-0.3,1-0.6,1.3-1.1c0.4-0.5,0.6-1.1,0.7-1.7c0.2-0.7,0.2-1.4,0.2-2.1V39.3h1.7v21.4
						c0,1-0.1,1.9-0.3,2.8c-0.2,0.8-0.6,1.6-1.1,2.3c-0.5,0.7-1.1,1.2-1.9,1.5c-1.8,0.7-3.8,0.7-5.5,0c-0.7-0.3-1.4-0.9-1.9-1.5
						c-0.5-0.7-0.9-1.4-1.1-2.3c-0.2-0.9-0.4-1.9-0.3-2.8V39.3h1.9L506,60.8z"/>
					<path id="Path_1124" class="st5" d="M520.5,61.4l-1.4,6.3h-1.7l6.2-28.3h2.7l6.3,28.3h-1.9l-1.4-6.3H520.5z M520.8,59.8h8.2
						l-4.2-18.3L520.8,59.8z"/>
					<path id="Path_1125" class="st5" d="M537,67.6V41h-5.7v-1.7h13.4V41h-5.8v26.6L537,67.6z"/>
					<rect id="Rectangle_446" x="545.3" y="39.3" class="st5" width="1.9" height="28.3"/>
					<path id="Path_1126" class="st5" d="M548.7,46.3c0-1,0.1-1.9,0.4-2.8c0.2-0.8,0.6-1.6,1.1-2.3c0.5-0.6,1.2-1.2,1.9-1.5
						c0.9-0.4,1.8-0.6,2.8-0.5c1,0,1.9,0.2,2.8,0.5c0.8,0.3,1.4,0.9,2,1.5c0.5,0.7,0.9,1.4,1.1,2.3c0.2,0.9,0.4,1.9,0.4,2.8v14.5
						c0,1-0.1,1.9-0.4,2.8c-0.2,0.8-0.6,1.6-1.1,2.3c-0.5,0.6-1.2,1.2-2,1.5c-0.9,0.4-1.8,0.6-2.8,0.5c-1,0-1.9-0.2-2.8-0.5
						c-0.7-0.3-1.4-0.8-1.9-1.5c-0.5-0.7-0.9-1.4-1.1-2.3c-0.2-0.9-0.4-1.9-0.4-2.8V46.3z M550.5,60.8c-0.1,1.3,0.3,2.7,1,3.8
						c0.8,1.1,2,1.6,3.3,1.5c1.3,0.1,2.6-0.5,3.4-1.5c0.7-1.1,1.1-2.5,1-3.8V46.1c0.1-1.3-0.3-2.7-1-3.8c-0.8-1.1-2.1-1.6-3.4-1.5
						c-1.3-0.1-2.6,0.5-3.3,1.5c-0.7,1.1-1,2.5-1,3.8V60.8z"/>
					<path id="Path_1127" class="st5" d="M564.3,67.6h-1.7V39.3h2.4l8.5,23.9V39.3h1.7v28.3h-2.1l-8.9-25.2V67.6z"/>
					<g id="Group_1307" class="st6">
						<g id="Group_1306">
							<g>
								<defs>
									<rect id="SVGID_5_" x="130.6" y="0.5" width="108.3" height="108.3"/>
								</defs>
								<clipPath id="SVGID_6_">
									<use xlink:href="#SVGID_5_"  style="overflow:visible;"/>
								</clipPath>
								<g id="Group_1305" class="st7">
									<g id="Group_1304">
										<g>
											<defs>
												<rect id="SVGID_7_" x="130.6" y="0.5" width="108.3" height="108.3"/>
											</defs>
											<clipPath id="SVGID_8_">
												<use xlink:href="#SVGID_7_"  style="overflow:visible;"/>
											</clipPath>
											<g id="Group_1303" class="st8">
												
													<image style="overflow:visible;enable-background:new    ;" width="134" height="134" id="Rectangle_447" xlink:href="CFF19F35.png"  transform="matrix(0.8083 0 0 0.8083 130.5883 0.5348)">
												</image>
											</g>
										</g>
									</g>
								</g>
							</g>
						</g>
					</g>
					<path id="Path_1128" class="st5" d="M226.1,54.5c0,23-18.6,41.6-41.6,41.6s-41.6-18.6-41.6-41.6s18.6-41.6,41.6-41.6l0,0
						C207.5,12.9,226.1,31.5,226.1,54.5"/>
					<path id="Path_1129" class="st4" d="M198.1,56.3l-20.4,20.4c-1,1-2.6,1-3.6,0c-0.8-0.8-1-2.1-0.4-3.1c0.1-0.2,0.2-0.4,0.4-0.5
						l16.9-16.9c1-1,1-2.6,0-3.6c0,0,0,0,0,0l-16.8-16.9c-0.2-0.2-0.3-0.3-0.4-0.5c-0.6-1-0.4-2.2,0.4-3.1h0c1-1,2.6-1,3.6,0
						c0,0,0,0,0,0l3.1,3.1l14.5,14.5l2.9,2.9C199.1,53.7,199.1,55.3,198.1,56.3C198.1,56.3,198.1,56.3,198.1,56.3"/>
					<g id="Group_1312" class="st6">
						<g id="Group_1311">
							<g>
								<defs>
									<rect id="SVGID_9_" x="343.2" y="0.5" width="108.3" height="108.3"/>
								</defs>
								<clipPath id="SVGID_10_">
									<use xlink:href="#SVGID_9_"  style="overflow:visible;"/>
								</clipPath>
								<g id="Group_1310" class="st9">
									<g id="Group_1309">
										<g>
											<defs>
												<rect id="SVGID_11_" x="343.2" y="0.5" width="108.3" height="108.3"/>
											</defs>
											<clipPath id="SVGID_12_">
												<use xlink:href="#SVGID_11_"  style="overflow:visible;"/>
											</clipPath>
											<g id="Group_1308" class="st10">
												
													<image style="overflow:visible;enable-background:new    ;" width="134" height="134" id="Rectangle_450" xlink:href="CFF19F3B.png"  transform="matrix(0.8083 0 0 0.8083 343.1654 0.5348)">
												</image>
											</g>
										</g>
									</g>
								</g>
							</g>
						</g>
					</g>
					<path id="Path_1130" class="st5" d="M438.7,54.5c0,23-18.6,41.6-41.6,41.6c-23,0-41.6-18.6-41.6-41.6c0-23,18.6-41.6,41.6-41.6
						c0,0,0,0,0,0C420,12.9,438.7,31.5,438.7,54.5"/>
					<path id="Path_1131" class="st4" d="M410.7,56.3l-20.4,20.4c-1,1-2.6,1-3.6,0c-0.8-0.8-1-2.1-0.4-3.1c0.1-0.2,0.2-0.4,0.4-0.5
						l16.9-16.9c1-1,1-2.6,0-3.6c0,0,0,0,0,0l-16.8-16.9c-0.2-0.2-0.3-0.3-0.4-0.5c-0.6-1-0.4-2.2,0.4-3.1h0c1-1,2.6-1,3.6,0
						c0,0,0,0,0,0l3.1,3.1l14.5,14.5l2.9,2.9C411.7,53.7,411.7,55.3,410.7,56.3C410.7,56.3,410.7,56.3,410.7,56.3"/>
				</g>
			</g>
		</g>
	</g>
</g>
</svg>
