<svg id="Group_25" data-name="Group 25" xmlns="http://www.w3.org/2000/svg" xmlns:xlink="http://www.w3.org/1999/xlink" width="66.045" height="69.125" viewBox="0 0 66.045 69.125">
  <defs>
    <clipPath id="clip-path">
      <rect id="Rectangle_2" data-name="Rectangle 2" width="66.045" height="69.125" fill="#87bfff"/>
    </clipPath>
  </defs>
  <g id="Group_24" data-name="Group 24" clip-path="url(#clip-path)">
    <path id="Path_33" data-name="Path 33" d="M.027,34.717A34.526,34.526,0,0,1,65.375,18.953a4.158,4.158,0,0,1,.579,2.957,3.539,3.539,0,0,1-3.009,2.706A3.417,3.417,0,0,1,59.4,22.686a30.014,30.014,0,0,0-4.33-6.45,27.117,27.117,0,0,0-18.3-9.079C22.3,5.9,10.359,16.161,7.6,28.743,4.2,44.2,15.145,59.871,30.861,61.849A27.558,27.558,0,0,0,59,47.106a4.932,4.932,0,0,1,1.626-2.094,3.5,3.5,0,0,1,4.238.339,3.458,3.458,0,0,1,.743,4.291,33.756,33.756,0,0,1-12.99,14.341A34.568,34.568,0,0,1,.386,40.038a24.974,24.974,0,0,1-.359-5.321" transform="translate(66.045 69.125) rotate(180)" fill="#87bfff"/>
    <path id="Path_34" data-name="Path 34" d="M91.311,85.986c-1.459-1.376-2.954-2.716-4.365-4.14a3.444,3.444,0,0,1-.745-3.861,3.227,3.227,0,0,1,2.873-2.11,3.349,3.349,0,0,1,2.82.979c2.887,2.874,5.817,5.707,8.624,8.657a6.541,6.541,0,0,1-.081,9.123c-2.763,2.87-5.6,5.67-8.444,8.457a3.45,3.45,0,0,1-5.046.1,3.494,3.494,0,0,1,.138-5.04c1.367-1.417,2.767-2.8,4.15-4.2.028-.028.03-.083.071-.207a2.289,2.289,0,0,0-1.374-.155c-5.6-.012-11.191.02-16.786-.023-2.894-.022-4.6-2.658-3.363-5.085a3.826,3.826,0,0,1,3.807-2q7.99.013,15.981,0h1.444l.3-.491" transform="translate(-52.83 -55.465)" fill="#87bfff"/>
  </g>
</svg>
