<svg xmlns="http://www.w3.org/2000/svg" width="1068.694" height="582.612" viewBox="0 0 1068.694 582.612">
  <g id="Group_1038" data-name="Group 1038" transform="translate(-896.658 -119.979)">
    <path id="Path_879" data-name="Path 879" d="M1210.968,30.281c.659,1.883-1.421,2.791-2.53,3.876q-98.791,95.949-197.687,191.861-42.133,40.876-84.175,81.8c-1.965,1.912-3.986,2.7-7.661,2.614-34.225-.871-68.472-1.521-102.72-1.322-20.867.118-41.769.266-62.556,1.934-8.712.7-15.911,2.835-22.023,6.807-17,11.037-30.169,23.913-43.087,36.885C649.88,393.515,616.013,434.04,582.6,474.713c-36.824,44.815-72.193,90.094-106.556,135.7-1.444,1.935-3,2.488-6.216,2.481q-119.815-.2-239.618-.3c-20.9-.029-41.8-.236-62.707-.354-1.929-.015-3.847,0-7.037,0,11.7-8.889,22.636-17.2,33.6-25.493q94.2-71.209,188.432-142.4,68.253-51.53,136.667-102.963,55.617-41.872,111.247-83.738c14.328-10.823,30.539-19.609,53.278-22.068a231.124,231.124,0,0,1,51.672.7c17.135,1.979,34.433,2.953,51.683,4.319,21.457,1.691,43.133,1.9,64.6,3.389,11.785.812,23.56.694,35.3,1.329a12.986,12.986,0,0,0,8.735-2.208q83.4-56.469,166.986-112.8Q1124.419,88.6,1186.138,46.87C1194.33,41.341,1202.6,35.862,1210.968,30.281Z" transform="translate(736.194 89.698)" fill="#221f20"/>
    <path id="Path_880" data-name="Path 880" d="M318.949,606.929q-60.662-.011-121.311-.022c-1.745,0-4.067.532-5.084-.443-1.317-1.262.855-2.267,1.837-3.315,5.916-6.372,8.724-13.592,13.45-20.3,6.02-8.527,10.884-17.387,16.592-26.01,7.083-10.727,14.49-21.366,21.8-32.027,8.343-12.167,16.465-24.393,25.143-36.457q16-22.237,32.8-44.239c10.457-13.622,21.665-26.992,32.919-40.355,13-15.416,27.338-30.263,42.151-44.947a194.756,194.756,0,0,1,39.9-30.883c9.764-5.641,20.764-8.926,34.745-9.162,33.173-.546,66.358-1.794,99.543-1.152,16.708.325,33.4.251,50.077.687,6.228.155,9.833-.849,13.138-4.6,10.284-11.687,21.492-23.05,32.376-34.53,10.781-11.348,21.665-22.643,32.388-34.013,12.733-13.526,25.235-27.14,38.037-40.643,14.247-15.032,28.829-29.945,43.075-44.984,17.609-18.6,35.045-37.262,52.527-55.911,14.536-15.5,28.956-31.038,43.538-46.513,7.037-7.472,14.3-14.847,21.526-22.238a9.806,9.806,0,0,1,3.074-2.3c2.877-1.226,6.1-2.016,9.44-.724,3.316,1.285,1.976,3.463,1.606,5.175-1.155,5.456-5.372,10.292-8.77,15.246-8.527,12.411-17.817,24.6-26.217,37.048-12.271,18.192-25.524,36.1-38.385,54.117-11.67,16.368-23.594,32.662-35.322,49.015-14.108,19.683-27.985,39.425-42.208,59.071-10.006,13.806-20.521,27.465-30.631,41.241-7.384,10.048-14.455,20.192-21.734,30.27-9.07,12.558-17.2,25.486-33.473,35.268a127.759,127.759,0,0,1-40.06,15.851c-14.906,3.167-30.238,3.566-45.617,4.5-23.5,1.44-47.1,1.735-70.61,2.857-3.455.162-4.368,1.41-4.76,3.167-1.618,7.383-3.143,14.773-4.8,22.156-3.085,13.762-6.39,27.5-9.3,41.278-3.605,17.032-7.129,34.095-11.416,51.053-4.449,17.594-6.991,35.357-12.294,52.884-3.628,12.02-5,24.32-7.706,36.457-1.236,5.508-3.3,10.934-3.547,16.523-.058,1.255-.982,1.861-2.935,1.861-1.4.007-2.8.03-4.182.03Z" transform="translate(1070.533 95.514)" fill="#bfd8f0"/>
  </g>
</svg>
