<svg xmlns="http://www.w3.org/2000/svg" width="149.797" height="49.706" viewBox="0 0 149.797 49.706">
  <g id="Group_37036" data-name="Group 37036" transform="translate(-976.873 -1244.6)">
    <g id="Group_37034" data-name="Group 37034" transform="translate(978.383 1246.529)">
      <path id="Path_9748" data-name="Path 9748" d="M1008.979,1276.909a2.408,2.408,0,0,0-2.039-2.039c-.408-.059-.641-.233-.641-.583l.176-2.68.757-7.924c.058-.525.117-.991.175-1.515a21.153,21.153,0,0,0,.233-3.321l-.058-1.107a3.472,3.472,0,0,0-2.156-3.38,2.224,2.224,0,0,0-.99-.233,2.1,2.1,0,0,0-1.282.408,6.231,6.231,0,0,0-1.107,1.049,32.713,32.713,0,0,0-2.8,3.438c-.058.058-.058.117-.117.175a63.8,63.8,0,0,0-8.565,19.169,1.813,1.813,0,0,1-1.165,1.341,13.679,13.679,0,0,0-4.195,2.388,2.085,2.085,0,0,0-.875,1.515,1.9,1.9,0,0,0,1.107,1.515,2.7,2.7,0,0,0,1.457.466,3.231,3.231,0,0,0,.99-.174c.058-.059.175-.059.291-.117a.849.849,0,0,1,.408-.117l.234.059a1.271,1.271,0,0,1-.059.466,60.639,60.639,0,0,0-.99,9.788c-.058.874-.058,1.748-.117,2.622v.058a2.248,2.248,0,0,0,1.982,1.923,1.687,1.687,0,0,0,1.224-.7,4.358,4.358,0,0,0,.582-2.331,76.163,76.163,0,0,1,1.4-11.478.214.214,0,0,1,.058-.174,8.828,8.828,0,0,1,.408-1.981,1.768,1.768,0,0,1,.758-.991,14.993,14.993,0,0,1,1.864-.874l4.719-1.923.059.7c0,4.953.175,9.905.466,14.916a16.709,16.709,0,0,0,.758,4.2,1.605,1.605,0,0,0,1.69,1.165h.233a2.5,2.5,0,0,0,1.456-.408,1.557,1.557,0,0,0,.758-.874,2.879,2.879,0,0,0,.058-.641c-.117-.757-.233-1.515-.291-2.214l-.058-6.759c0-3.2.058-6.351.174-9.555l-.059-1.165a.932.932,0,0,1,.233-.7.966.966,0,0,1,.7-.291,2.169,2.169,0,0,1,.641.059,1.993,1.993,0,0,0,.582.058c.641-.058.99-.349.99-.874Zm-8.1-7.69c-.117,1.515-.175,2.971-.175,4.486v1.166a1.166,1.166,0,0,1-.117.524.839.839,0,0,1-.583.35c-1.224.349-2.505.757-3.788,1.224-.466.175-.932.291-1.456.466a65.106,65.106,0,0,1,7.108-15.44C1001.463,1264.383,1001.113,1266.83,1000.88,1269.219Z" transform="translate(-984.333 -1254.128)" fill="#ea5297"/>
      <path id="Path_9749" data-name="Path 9749" d="M1152.06,1290.943a34.705,34.705,0,0,0,6.531-2.359q-.135,2.863-.24,5.8l-.321,6.19c0,.757,0,1.573.058,2.447.059.175.117.408.176.583a.8.8,0,0,0,.291.466,2.055,2.055,0,0,0,1.224.408,3.119,3.119,0,0,0,1.165-.291,1.551,1.551,0,0,0,.758-1.457v-1.282c.349-4.078,1.02-12.25,1.428-16.387.116-.932.175-1.864.291-2.739.291-2.854.583-5.709.99-8.565a.678.678,0,0,1,.117-.408,2.89,2.89,0,0,1,.408-.175c.64-.058,1.281-.117,1.923-.117a14.462,14.462,0,0,1,1.515.117l.349.059c.525,0,.758-.292.816-.875l-.117-.64a2.27,2.27,0,0,0-1.573-1.865c-.292-.058-.7-.117-1.166-.175-.349-.059-.7-.117-.99-.175a1.275,1.275,0,0,1-.524-.175,1.7,1.7,0,0,1-.117-.525,4.036,4.036,0,0,1,.117-.757,1.6,1.6,0,0,0,.059-.525v-.291a2.759,2.759,0,0,0-2.156-2.971,1.6,1.6,0,0,0-.525-.059c-.64,0-1.107.408-1.456,1.224a19.318,19.318,0,0,0-.932,3.612,1.338,1.338,0,0,1-.583,1.049,3.111,3.111,0,0,1-1.166.291,4.537,4.537,0,0,0-.816.117l-.7.175a7.185,7.185,0,0,0-2.155.7,1.484,1.484,0,0,0-.874,1.281,2,2,0,0,0,.232.932,2.222,2.222,0,0,0,2.04,1.4l.408-.058a7.673,7.673,0,0,0,2.214-.525l.349-.058c.292,0,.408.175.408.466l-.058.291a.747.747,0,0,1-.058.35q-.362,4.7-.63,9.606a12.461,12.461,0,0,1-2.283,1.173,31.608,31.608,0,0,1-6.875,2.214h-.35a1.14,1.14,0,0,1-1.165-.816l-.758-1.865c-.932-1.923-2.214-2.913-3.845-2.913a5.445,5.445,0,0,0-2.622.816,16.8,16.8,0,0,0-2.972,2.272l.583-1.922a2.943,2.943,0,0,0,.117-.758,1.893,1.893,0,0,0-.582-1.4,1.975,1.975,0,0,0-1.515-.583h-.175a1.377,1.377,0,0,0-.875.525,16.969,16.969,0,0,0-1.048,2.505c-.045.128-.089.26-.134.389a2.983,2.983,0,0,0-.74.542,59.988,59.988,0,0,1-5.477,4.72,2.683,2.683,0,0,1-1.223.7c-.35,0-.583-.467-.7-1.457a17.827,17.827,0,0,1-.349-3.5v-1.166a1.818,1.818,0,0,0-1.224-1.806,3.6,3.6,0,0,0-1.515-.349,3.263,3.263,0,0,0-2.389,1.107,30.294,30.294,0,0,0-2.913,3.846,2.086,2.086,0,0,1-.291.466l-1.224,1.806c.058-.525.175-1.224.291-2.156s.233-1.922.408-2.913a15.119,15.119,0,0,1,.583-2.447,1.937,1.937,0,0,0,.291-.932,1.421,1.421,0,0,0-.64-1.166,2.827,2.827,0,0,0-1.515-.407,2.151,2.151,0,0,0-1.34.407,2.273,2.273,0,0,0-.874,1.34c-.292,1.281-.525,2.564-.758,3.845a18.693,18.693,0,0,0-.583,4.719,11.366,11.366,0,0,0,.175,1.981,2.645,2.645,0,0,0,2.8,2.389h.176a4.157,4.157,0,0,0,2.272-.641,7.1,7.1,0,0,0,1.748-1.515,13.044,13.044,0,0,0,1.689-2.214c.408-.525.816-1.048,1.224-1.632a10.889,10.889,0,0,0,.583,2.622,3.943,3.943,0,0,0,3.5,2.681h.291a4.791,4.791,0,0,0,2.622-.816,32.058,32.058,0,0,0,3.56-2.619,6,6,0,0,0-.064.813l.059.466a2.653,2.653,0,0,0,1.864,1.631l.7.117a2.326,2.326,0,0,0,1.865-.99,30.53,30.53,0,0,1,5.593-5.711c.525-.408.874-.64,1.107-.64a.37.37,0,0,1,.35.291q.087.262.349.874c1.224,2.8,3.088,4.194,5.652,4.194A7.124,7.124,0,0,0,1152.06,1290.943Z" transform="translate(-1086.222 -1262.161)" fill="#ea5297"/>
      <path id="Path_9750" data-name="Path 9750" d="M1503.184,1460.88a1.648,1.648,0,0,0-1.387.925,3.323,3.323,0,0,0-.694,2v.155a2.155,2.155,0,0,0,.848,1.7,2.958,2.958,0,0,0,1.926.848c1.31,0,2-.848,2-2.62a2.77,2.77,0,0,0-2.7-3.005Z" transform="translate(-1396.466 -1419.016)" fill="#ea5297"/>
      <path id="Path_9751" data-name="Path 9751" d="M1414.74,1276.967a15.437,15.437,0,0,0-1.632-.117,19.048,19.048,0,0,0-4.079.466l-.466.058c-.291,0-.408-.117-.408-.408l.058-.408q.875-4.807,1.923-9.613l1.049-5.011c.058-.175.117-.349.233-.408a1.285,1.285,0,0,1,.466-.175c3.03-.408,6.117-.7,9.206-.816a5.364,5.364,0,0,0,.99-.058c1.107-.059,2.272-.059,3.379-.059a30.575,30.575,0,0,1,6.06.641,1.292,1.292,0,0,0,.466.058,1.1,1.1,0,0,0,1.049-.757,3.416,3.416,0,0,0,.291-1.281,2.56,2.56,0,0,0-1.806-2.447,22.484,22.484,0,0,0-5.593-.932c-1.107-.058-2.214-.058-3.321-.058a98,98,0,0,0-10.08.525h-.233a1.052,1.052,0,0,1-.932-.525,3.379,3.379,0,0,0-2.505-1.515c-.99,0-1.806.641-2.564,1.864l-.175.408c-1.71,2.013-2.272,6.584-2.272,6.584l-.059.233c-.291,2.1-.525,4.137-.816,6.059-.466,2.971-.816,5.943-1.107,8.914a1.3,1.3,0,0,1-.99,1.4,4.332,4.332,0,0,0-2.388,1.631,2.667,2.667,0,0,0-.466,1.4,3,3,0,0,0,.523,1.631,1.7,1.7,0,0,0,1.341.816,2.352,2.352,0,0,0,.874-.175l.292-.059c.116,0,.175,0,.233.059v.524q-.262,3.933-.524,7.866a1.29,1.29,0,0,0-.058.467v.058q-.175,2.011-.174,4.02l.116,2.331a1.633,1.633,0,0,0,1.4,1.631,4.532,4.532,0,0,0,.874.117,3.327,3.327,0,0,0,1.049-.175,1.742,1.742,0,0,0,1.4-1.69c.058-1.573.232-3.2.408-4.777v-.234l1.4-11.187a1.5,1.5,0,0,1,1.4-1.573l1.632-.35a14.248,14.248,0,0,1,4.137-.641,11.383,11.383,0,0,1,1.4.117l.408.059q1.136,0,1.224-1.4v-.117Q1417.362,1277.578,1414.74,1276.967Z" transform="translate(-1314.254 -1254.128)" fill="#ea5297"/>
      <path id="Path_9752" data-name="Path 9752" d="M1506.2,1297.475a1.654,1.654,0,0,0-1.573,1.1,20.922,20.922,0,0,0-1.108,4.21c-.233,1.6-.466,3.056-.582,4.409-.466,5.211-.874,10.623-1.048,16.285v1.8c0,.7.058,1.4.117,2.155a1.027,1.027,0,0,0,.407.852,2.24,2.24,0,0,0,1.166.351,2.728,2.728,0,0,0,1.107-.25,1.264,1.264,0,0,0,.816-1.253v-.752c.291-3.658.64-7.316,1.107-10.924.291-3.257.7-6.464,1.224-9.721.117-.651.232-1.253.291-1.854a23,23,0,0,0,.525-3.508v-.2a2.6,2.6,0,0,0-.816-1.953A2.429,2.429,0,0,0,1506.2,1297.475Z" transform="translate(-1397.093 -1288.698)" fill="#ea5297"/>
      <path id="Path_9753" data-name="Path 9753" d="M1547.06,1365.339a3.032,3.032,0,0,0-2.855-2.155,4.03,4.03,0,0,0-1.165.175,1.623,1.623,0,0,1-.524.058,3.106,3.106,0,0,1-.758-.058,1.7,1.7,0,0,0-.523-.117.877.877,0,0,0-.641.233,4.152,4.152,0,0,0-.641.99,21.67,21.67,0,0,0-2.1,8.1v.408a3.9,3.9,0,0,0,.35,1.631,2.1,2.1,0,0,0,1.224,1.224,2.964,2.964,0,0,0,1.515.408,3.788,3.788,0,0,0,2.854-1.573,19,19,0,0,0,2.39-3.671,9.263,9.263,0,0,0,1.048-4.137A6.713,6.713,0,0,0,1547.06,1365.339Zm-3.177,4.841a6.971,6.971,0,0,1-.879,1.35,1.392,1.392,0,0,1-1.049.578,1.091,1.091,0,0,1-.557-.15.772.772,0,0,1-.45-.45,1.434,1.434,0,0,1-.129-.6v-.15a7.97,7.97,0,0,1,.771-2.978,1.527,1.527,0,0,1,.236-.364.323.323,0,0,1,.236-.086.631.631,0,0,1,.193.043,1.137,1.137,0,0,0,.279.021.6.6,0,0,0,.193-.021,1.482,1.482,0,0,1,.428-.064,1.115,1.115,0,0,1,1.05.793,2.469,2.469,0,0,1,.064.557A3.406,3.406,0,0,1,1543.883,1370.181Z" transform="translate(-1425.775 -1341.102)" fill="#ea5297"/>
      <path id="Path_9754" data-name="Path 9754" d="M1615.8,1313.421a2.392,2.392,0,0,0-2.913-.059,46.823,46.823,0,0,1-5.943,2.913,1.69,1.69,0,0,1-.524.117c-.292,0-.525-.233-.583-.641-.059-.175-.175-.407-.233-.641-.291-.758-.583-1.574-.874-2.389a3.826,3.826,0,0,0-1.748-2.1,3.987,3.987,0,0,0-1.923-.524,4.223,4.223,0,0,0-2.505.874,10.554,10.554,0,0,0-1.748,1.456c-.292.292-.583.525-.874.816v-.874l.466-3.146c.176-1.573.408-3.088.7-4.6.059-.466.1-1.573.217-2.1.175-1.573.5-4.661.5-5.011a2.241,2.241,0,0,0-.525-1.456,1.608,1.608,0,0,0-1.224-.641,2.1,2.1,0,0,0-1.457.758,6.941,6.941,0,0,0-1.456,2.739c-1.457,4.894-1.473,9.846-2,14.857a39.624,39.624,0,0,0-.232,4.545v1.4a1.875,1.875,0,0,0,.874,1.632,3.618,3.618,0,0,0,1.806.466,3.4,3.4,0,0,0,1.282-.291,2.162,2.162,0,0,0,.991-.932c.64-1.107,1.34-2.156,2.039-3.205a17.806,17.806,0,0,1,3.03-3.553c.175-.175.291-.292.408-.292s.175.176.233.467c.117.757.291,1.515.466,2.214.875,2.155,2.214,3.263,4.137,3.263a6.472,6.472,0,0,0,1.049-.117,23.953,23.953,0,0,0,8.681-4.37.991.991,0,0,0,.466-.757A.966.966,0,0,0,1615.8,1313.421Z" transform="translate(-1468.101 -1287.057)" fill="#ea5297"/>
    </g>
    <g id="Group_37035" data-name="Group 37035" transform="translate(976.873 1244.6)">
      <path id="Path_9755" data-name="Path 9755" d="M1001.519,1267.381a2.408,2.408,0,0,0-2.039-2.039c-.408-.059-.641-.233-.641-.583l.175-2.68.757-7.924c.058-.525.117-.991.174-1.515a21.145,21.145,0,0,0,.233-3.321l-.058-1.107a3.472,3.472,0,0,0-2.156-3.38,2.224,2.224,0,0,0-.99-.233,2.1,2.1,0,0,0-1.282.408,6.215,6.215,0,0,0-1.107,1.049,32.664,32.664,0,0,0-2.8,3.438c-.058.058-.058.117-.117.175a63.8,63.8,0,0,0-8.565,19.169,1.812,1.812,0,0,1-1.165,1.34,13.678,13.678,0,0,0-4.195,2.389,2.085,2.085,0,0,0-.875,1.515,1.9,1.9,0,0,0,1.107,1.515,2.7,2.7,0,0,0,1.457.466,3.23,3.23,0,0,0,.99-.174c.058-.059.175-.059.291-.117a.848.848,0,0,1,.408-.117l.233.059a1.27,1.27,0,0,1-.059.466,60.65,60.65,0,0,0-.99,9.789c-.058.874-.058,1.748-.117,2.622v.058a2.247,2.247,0,0,0,1.981,1.923,1.686,1.686,0,0,0,1.224-.7,4.355,4.355,0,0,0,.583-2.331,76.143,76.143,0,0,1,1.4-11.478.214.214,0,0,1,.058-.174,8.839,8.839,0,0,1,.408-1.981,1.77,1.77,0,0,1,.758-.991,15.063,15.063,0,0,1,1.864-.874l4.719-1.923.059.7c0,4.953.175,9.905.466,14.916a16.694,16.694,0,0,0,.758,4.2,1.605,1.605,0,0,0,1.689,1.165h.233a2.5,2.5,0,0,0,1.456-.408,1.557,1.557,0,0,0,.758-.874,2.881,2.881,0,0,0,.058-.641c-.117-.757-.233-1.515-.291-2.214l-.058-6.759c0-3.2.058-6.351.175-9.555l-.059-1.165a.932.932,0,0,1,.233-.7.965.965,0,0,1,.7-.291,2.163,2.163,0,0,1,.641.059,2,2,0,0,0,.583.058c.641-.058.99-.349.99-.874Zm-8.1-7.69c-.117,1.515-.175,2.971-.175,4.486v1.166a1.168,1.168,0,0,1-.117.524.839.839,0,0,1-.582.35c-1.224.349-2.505.757-3.788,1.224-.466.174-.932.291-1.456.466a65.107,65.107,0,0,1,7.108-15.44C994,1254.855,993.654,1257.3,993.42,1259.691Z" transform="translate(-976.873 -1244.6)" fill="#fff"/>
      <path id="Path_9756" data-name="Path 9756" d="M1144.6,1281.416a34.668,34.668,0,0,0,6.531-2.359q-.135,2.863-.24,5.8l-.321,6.19c0,.757,0,1.573.058,2.447.059.175.117.408.175.583a.8.8,0,0,0,.291.466,2.052,2.052,0,0,0,1.224.408,3.112,3.112,0,0,0,1.165-.291,1.551,1.551,0,0,0,.758-1.457v-1.281c.349-4.078,1.02-12.25,1.427-16.387.116-.932.175-1.864.292-2.738.291-2.854.582-5.71.99-8.565a.677.677,0,0,1,.117-.408,2.958,2.958,0,0,1,.408-.174c.641-.058,1.281-.117,1.923-.117a14.468,14.468,0,0,1,1.515.117l.349.059c.524,0,.758-.292.816-.875l-.117-.641a2.271,2.271,0,0,0-1.573-1.865c-.291-.058-.7-.117-1.166-.174-.349-.059-.7-.117-.99-.175a1.271,1.271,0,0,1-.525-.176,1.707,1.707,0,0,1-.117-.524,4.044,4.044,0,0,1,.117-.757,1.6,1.6,0,0,0,.059-.525v-.291a2.759,2.759,0,0,0-2.156-2.971,1.6,1.6,0,0,0-.525-.059c-.64,0-1.107.408-1.456,1.224a19.33,19.33,0,0,0-.932,3.612,1.339,1.339,0,0,1-.583,1.049,3.116,3.116,0,0,1-1.166.291,4.529,4.529,0,0,0-.816.117l-.7.174a7.184,7.184,0,0,0-2.155.7,1.484,1.484,0,0,0-.874,1.282,2,2,0,0,0,.232.932,2.221,2.221,0,0,0,2.039,1.4l.408-.058a7.673,7.673,0,0,0,2.214-.524l.349-.058c.292,0,.408.175.408.466l-.058.291a.744.744,0,0,1-.058.35q-.362,4.7-.63,9.606a12.472,12.472,0,0,1-2.282,1.173,31.622,31.622,0,0,1-6.875,2.214h-.35a1.14,1.14,0,0,1-1.165-.816l-.758-1.865c-.932-1.923-2.214-2.913-3.845-2.913a5.446,5.446,0,0,0-2.622.816,16.825,16.825,0,0,0-2.972,2.272l.582-1.922a2.928,2.928,0,0,0,.117-.758,1.893,1.893,0,0,0-.582-1.4,1.977,1.977,0,0,0-1.515-.582h-.174a1.38,1.38,0,0,0-.875.524,17.062,17.062,0,0,0-1.048,2.505c-.045.128-.089.26-.134.389a2.974,2.974,0,0,0-.74.542,59.974,59.974,0,0,1-5.477,4.72,2.685,2.685,0,0,1-1.223.7c-.35,0-.583-.467-.7-1.457a17.84,17.84,0,0,1-.349-3.5v-1.166a1.819,1.819,0,0,0-1.224-1.806,3.6,3.6,0,0,0-1.515-.349,3.264,3.264,0,0,0-2.389,1.107,30.29,30.29,0,0,0-2.913,3.845,2.086,2.086,0,0,1-.291.466l-1.224,1.806c.058-.525.175-1.224.291-2.156s.233-1.922.408-2.913a15.127,15.127,0,0,1,.582-2.447,1.938,1.938,0,0,0,.291-.932,1.421,1.421,0,0,0-.64-1.166,2.828,2.828,0,0,0-1.515-.407,2.152,2.152,0,0,0-1.34.407,2.273,2.273,0,0,0-.874,1.34c-.292,1.282-.524,2.564-.758,3.845a18.69,18.69,0,0,0-.582,4.719,11.382,11.382,0,0,0,.174,1.982,2.645,2.645,0,0,0,2.8,2.389h.175a4.156,4.156,0,0,0,2.272-.641,7.1,7.1,0,0,0,1.748-1.515,13.053,13.053,0,0,0,1.689-2.214c.408-.525.816-1.048,1.224-1.631a10.876,10.876,0,0,0,.582,2.622,3.942,3.942,0,0,0,3.5,2.681h.291a4.79,4.79,0,0,0,2.622-.816,32.03,32.03,0,0,0,3.56-2.619,5.98,5.98,0,0,0-.064.813l.059.466a2.653,2.653,0,0,0,1.864,1.632l.7.117a2.326,2.326,0,0,0,1.865-.99,30.552,30.552,0,0,1,5.593-5.71c.524-.408.874-.641,1.107-.641a.369.369,0,0,1,.35.292q.087.262.349.874c1.224,2.8,3.089,4.195,5.651,4.195A7.112,7.112,0,0,0,1144.6,1281.416Z" transform="translate(-1078.763 -1252.632)" fill="#fff"/>
      <path id="Path_9757" data-name="Path 9757" d="M1495.724,1451.352a1.648,1.648,0,0,0-1.387.925,3.326,3.326,0,0,0-.694,2v.155a2.155,2.155,0,0,0,.848,1.7,2.957,2.957,0,0,0,1.926.848c1.31,0,2-.848,2-2.62a2.77,2.77,0,0,0-2.7-3.005Z" transform="translate(-1389.005 -1409.488)" fill="#fff"/>
      <path id="Path_9758" data-name="Path 9758" d="M1407.28,1267.439a15.464,15.464,0,0,0-1.631-.117,19.034,19.034,0,0,0-4.079.467l-.466.058c-.291,0-.408-.117-.408-.408l.058-.408q.875-4.807,1.923-9.613l1.049-5.011c.058-.175.117-.349.233-.408a1.291,1.291,0,0,1,.466-.175c3.03-.408,6.117-.7,9.206-.816a5.358,5.358,0,0,0,.99-.058c1.107-.059,2.272-.059,3.379-.059a30.59,30.59,0,0,1,6.06.641,1.29,1.29,0,0,0,.466.058,1.094,1.094,0,0,0,1.049-.757,3.409,3.409,0,0,0,.291-1.281,2.56,2.56,0,0,0-1.806-2.448,22.488,22.488,0,0,0-5.593-.932c-1.107-.058-2.214-.058-3.321-.058a98.105,98.105,0,0,0-10.08.524h-.233a1.051,1.051,0,0,1-.932-.524,3.38,3.38,0,0,0-2.505-1.515c-.99,0-1.806.641-2.564,1.864l-.175.408c-1.71,2.013-2.272,6.584-2.272,6.584l-.059.233c-.291,2.1-.525,4.137-.816,6.06-.465,2.971-.816,5.943-1.107,8.914a1.3,1.3,0,0,1-.99,1.4,4.33,4.33,0,0,0-2.389,1.632,2.667,2.667,0,0,0-.466,1.4,3,3,0,0,0,.524,1.632,1.7,1.7,0,0,0,1.34.816,2.35,2.35,0,0,0,.874-.175l.291-.059c.117,0,.175,0,.233.059v.524q-.262,3.933-.524,7.866a1.293,1.293,0,0,0-.058.467v.058q-.175,2.011-.174,4.02l.116,2.331a1.633,1.633,0,0,0,1.4,1.632,4.545,4.545,0,0,0,.874.117,3.332,3.332,0,0,0,1.049-.174,1.742,1.742,0,0,0,1.4-1.69c.058-1.573.232-3.2.408-4.777v-.233l1.4-11.187a1.5,1.5,0,0,1,1.4-1.573l1.631-.35a14.259,14.259,0,0,1,4.137-.641,11.4,11.4,0,0,1,1.4.117l.408.059q1.136,0,1.224-1.4v-.117Q1409.9,1268.051,1407.28,1267.439Z" transform="translate(-1306.793 -1244.6)" fill="#fff"/>
      <path id="Path_9759" data-name="Path 9759" d="M1498.74,1287.947a1.655,1.655,0,0,0-1.573,1.1,20.918,20.918,0,0,0-1.108,4.21c-.232,1.6-.466,3.056-.583,4.41-.466,5.211-.874,10.623-1.048,16.285v1.8c0,.7.058,1.4.116,2.155a1.026,1.026,0,0,0,.407.852,2.238,2.238,0,0,0,1.166.351,2.731,2.731,0,0,0,1.107-.25,1.264,1.264,0,0,0,.816-1.253v-.752c.291-3.658.64-7.316,1.107-10.924.291-3.257.7-6.464,1.224-9.721.117-.651.232-1.253.291-1.854a22.981,22.981,0,0,0,.525-3.508v-.2a2.6,2.6,0,0,0-.816-1.953A2.429,2.429,0,0,0,1498.74,1287.947Z" transform="translate(-1389.632 -1279.17)" fill="#fff"/>
      <path id="Path_9760" data-name="Path 9760" d="M1539.6,1355.812a3.032,3.032,0,0,0-2.855-2.155,4.027,4.027,0,0,0-1.165.174,1.623,1.623,0,0,1-.525.058,3.1,3.1,0,0,1-.758-.058,1.71,1.71,0,0,0-.524-.117.878.878,0,0,0-.641.233,4.146,4.146,0,0,0-.641.99,21.672,21.672,0,0,0-2.1,8.1v.408a3.9,3.9,0,0,0,.35,1.631,2.1,2.1,0,0,0,1.224,1.224,2.965,2.965,0,0,0,1.515.408,3.788,3.788,0,0,0,2.854-1.573,18.979,18.979,0,0,0,2.389-3.671,9.259,9.259,0,0,0,1.048-4.137A6.711,6.711,0,0,0,1539.6,1355.812Zm-3.177,4.841a6.977,6.977,0,0,1-.878,1.35,1.393,1.393,0,0,1-1.049.578,1.09,1.09,0,0,1-.557-.15.773.773,0,0,1-.45-.45,1.435,1.435,0,0,1-.129-.6v-.15a7.968,7.968,0,0,1,.771-2.978,1.524,1.524,0,0,1,.236-.364.322.322,0,0,1,.236-.086.624.624,0,0,1,.193.043,1.137,1.137,0,0,0,.279.021.594.594,0,0,0,.193-.021,1.489,1.489,0,0,1,.428-.064,1.115,1.115,0,0,1,1.05.792,2.472,2.472,0,0,1,.064.557A3.4,3.4,0,0,1,1536.423,1360.653Z" transform="translate(-1418.315 -1331.575)" fill="#fff"/>
      <path id="Path_9761" data-name="Path 9761" d="M1608.345,1303.893a2.391,2.391,0,0,0-2.913-.059,46.837,46.837,0,0,1-5.943,2.913,1.694,1.694,0,0,1-.525.117c-.291,0-.525-.233-.583-.641-.059-.175-.176-.407-.233-.64-.291-.758-.582-1.574-.874-2.389a3.824,3.824,0,0,0-1.748-2.1,3.989,3.989,0,0,0-1.923-.524,4.225,4.225,0,0,0-2.505.874,10.588,10.588,0,0,0-1.748,1.456c-.291.292-.582.525-.874.816v-.874l.466-3.147c.175-1.573.408-3.088.7-4.6.059-.466.1-1.573.217-2.1.176-1.573.5-4.661.5-5.011a2.241,2.241,0,0,0-.524-1.456,1.608,1.608,0,0,0-1.224-.641,2.1,2.1,0,0,0-1.457.758,6.934,6.934,0,0,0-1.456,2.738c-1.457,4.894-1.473,9.847-2,14.857a39.683,39.683,0,0,0-.232,4.545v1.4a1.876,1.876,0,0,0,.874,1.631,3.618,3.618,0,0,0,1.806.466,3.4,3.4,0,0,0,1.281-.291,2.16,2.16,0,0,0,.991-.932c.64-1.107,1.34-2.156,2.039-3.205a17.8,17.8,0,0,1,3.03-3.554c.176-.175.292-.292.408-.292s.175.175.233.467c.117.757.291,1.515.466,2.214.875,2.155,2.214,3.263,4.137,3.263a6.469,6.469,0,0,0,1.049-.117,23.955,23.955,0,0,0,8.682-4.37.992.992,0,0,0,.466-.757A.967.967,0,0,0,1608.345,1303.893Z" transform="translate(-1460.641 -1277.529)" fill="#fff"/>
    </g>
  </g>
</svg>
