<svg xmlns="http://www.w3.org/2000/svg" viewBox="0 0 100.97 105.69"><defs><style>.cls-1{fill:#acea41;}.cls-1,.cls-2{stroke:#70a82d;stroke-miterlimit:10;stroke-width:2px;}.cls-2{fill:#acee42;}</style></defs><title>flower</title><g id="Layer_2" data-name="Layer 2"><g id="Layer_1-2" data-name="Layer 1"><path class="cls-1" d="M45.25,22.76a35.21,35.21,0,0,0,6.66,21.09,35.27,35.27,0,0,0,6.65-21.09A35.27,35.27,0,0,0,51.91,1.67,35.21,35.21,0,0,0,45.25,22.76Z"/><path class="cls-1" d="M59.2,23.45a35.25,35.25,0,0,0-3.7,21.8A35.23,35.23,0,0,0,71,29.52,35.22,35.22,0,0,0,74.75,7.71,35.22,35.22,0,0,0,59.2,23.45Z"/><path class="cls-1" d="M78.21,44.38A35.22,35.22,0,0,0,57.12,51a35.22,35.22,0,0,0,21.09,6.65A35.23,35.23,0,0,0,99.31,51,35.23,35.23,0,0,0,78.21,44.38Z"/><path class="cls-1" d="M78.29,60.38a35.29,35.29,0,0,0-21.51-5.14A35.26,35.26,0,0,0,71.45,71.79,35.24,35.24,0,0,0,93,76.94,35.28,35.28,0,0,0,78.29,60.38Z"/><path class="cls-1" d="M32.62,31.45a35.25,35.25,0,0,0-21.07-6.74,35.19,35.19,0,0,0,13.39,17.6A35.24,35.24,0,0,0,46,49.06,35.21,35.21,0,0,0,32.62,31.45Z"/><path class="cls-1" d="M45.73,23.28A35.26,35.26,0,0,0,31,6.78a35.16,35.16,0,0,0,2.59,22A35.13,35.13,0,0,0,48.32,45.25,35.34,35.34,0,0,0,45.73,23.28Z"/><path class="cls-1" d="M70.81,73.64A35.29,35.29,0,0,0,54.17,59.07a35.22,35.22,0,0,0,5.27,21.48A35.19,35.19,0,0,0,76.08,95.12,35.25,35.25,0,0,0,70.81,73.64Z"/><path class="cls-1" d="M44.17,80a35.17,35.17,0,0,0,3.91-21.77A36.75,36.75,0,0,0,28.49,95.62,35.19,35.19,0,0,0,44.17,80Z"/><path class="cls-1" d="M80.44,41a35.25,35.25,0,0,0,14.09-17A36.77,36.77,0,0,0,59.12,46.84,35.24,35.24,0,0,0,80.44,41Z"/><path class="cls-1" d="M32,72.11A35.21,35.21,0,0,0,45.29,54.47a35.25,35.25,0,0,0-21,6.8A35.23,35.23,0,0,0,10.9,78.91,35.23,35.23,0,0,0,32,72.11Z"/><path class="cls-1" d="M22.76,45A35.2,35.2,0,0,0,1.67,51.61a35.2,35.2,0,0,0,21.09,6.65,35.2,35.2,0,0,0,21.09-6.65A35.2,35.2,0,0,0,22.76,45Z"/><path class="cls-1" d="M44.64,82.93A35.2,35.2,0,0,0,51.29,104a35.2,35.2,0,0,0,6.65-21.09,35.2,35.2,0,0,0-6.65-21.09A35.2,35.2,0,0,0,44.64,82.93Z"/><circle class="cls-2" cx="51.91" cy="51.9" r="14.19"/></g></g></svg>