<svg id="logo" xmlns="http://www.w3.org/2000/svg" width="135.082" height="45" viewBox="0 0 135.082 45">
  <g id="Layer_1" data-name="Layer 1">
    <g id="Group_2800" data-name="Group 2800">
      <g id="Group_2798" data-name="Group 2798">
        <path id="Path_7307" data-name="Path 7307" d="M17.231,104.418l3.716,2.093L4.21,115.94v-6.867L0,111.447v11.7l29.528-16.632L21.518,102Z" transform="translate(0 -78.143)" fill="#27e090"/>
        <path id="Path_7308" data-name="Path 7308" d="M20.947,16.629,0,28.429V33.3l4.21-2.374,10.637-6,4.287-2.418,10.394-5.885L0,0V16.531l8.518,4.818L12.8,18.936,4.21,14.08V7.2Z" fill="blue"/>
      </g>
      <g id="Group_2799" data-name="Group 2799" transform="translate(36.889 10.338)">
        <path id="Path_7309" data-name="Path 7309" d="M182.608,73.519H176.4V60.379l-5.924,9.793h-.629l-5.889-9.758v13.1h-6.24V49.12h6.24l6.205,10.422L176.4,49.12h6.205Z" transform="translate(-157.72 -47.969)" fill="#020251"/>
        <path id="Path_7310" data-name="Path 7310" d="M277.69,47.547a3.347,3.347,0,1,1,3.347,3.347A3.347,3.347,0,0,1,277.69,47.547Zm.454,4.776h5.786V69.75h-5.786Z" transform="translate(-249.63 -44.2)" fill="#020251"/>
        <path id="Path_7311" data-name="Path 7311" d="M335.723,84.334V94.756h-5.786V85.063a2.457,2.457,0,0,0-2.613-2.753c-1.778,0-2.858,1.081-2.858,3.172v9.271H318.68V77.329h5.786v1.742a5.664,5.664,0,0,1,4.844-2.231C332.9,76.84,335.723,79.315,335.723,84.334Z" transform="translate(-281.033 -69.206)" fill="#020251"/>
        <path id="Path_7312" data-name="Path 7312" d="M408.151,68.482v5.054c0,1.637,1.289,1.742,3.625,1.6v5.227c-7.113.872-9.412-1.324-9.412-6.692V68.482H399.75V62.941h2.615V59.8l5.786-1.742v4.881h3.625v5.541Z" transform="translate(-343.142 -54.818)" fill="#020251"/>
        <path id="Path_7313" data-name="Path 7313" d="M460.71,47.547a3.347,3.347,0,1,1,3.342,3.347A3.347,3.347,0,0,1,460.71,47.547Zm.451,4.776h5.786V69.75h-5.786Z" transform="translate(-389.844 -44.2)" fill="#020251"/>
        <path id="Path_7314" data-name="Path 7314" d="M504.753,54.285h3v5.541h-3V71.712h-5.786V59.826h-2.2V54.285h2.2c0-4.881,2.858-7.845,8.785-7.5v5.368C505.9,52.019,504.753,52.681,504.753,54.285Z" transform="translate(-417.47 -46.162)" fill="#020251"/>
        <path id="Path_7315" data-name="Path 7315" d="M548.93,47.547a3.347,3.347,0,1,1,3.347,3.347A3.347,3.347,0,0,1,548.93,47.547Zm.454,4.776h5.786V69.75h-5.786Z" transform="translate(-457.431 -44.2)" fill="#020251"/>
      </g>
    </g>
  </g>
</svg>
