<svg width="135" height="43" viewBox="0 0 135 43" fill="none" xmlns="http://www.w3.org/2000/svg">
<path d="M29.9374 9.06619C30.2266 9.28864 30.4984 9.51108 30.766 9.73353C30.8998 9.84698 31.0292 9.95598 31.1608 10.0805L31.5471 10.4365C32.0563 10.9147 32.5418 11.413 33.0165 11.918C33.2516 12.1738 33.4868 12.4296 33.7134 12.6898L33.7997 12.7877L33.8213 12.8122L33.8321 12.8233H33.8472C33.8664 12.8356 33.8845 12.8497 33.9011 12.8656C33.9205 12.8789 33.9399 12.8856 33.9572 12.899L33.9809 12.9167H34.009C34.077 12.9536 34.1496 12.9805 34.2248 12.9968C34.3009 13.0168 34.3792 13.0272 34.4578 13.028C34.5441 13.0304 34.6302 13.0176 34.7124 12.9902C34.8013 12.9635 34.8857 12.923 34.9627 12.87C34.9814 12.8532 35.0016 12.8383 35.0231 12.8255C35.0425 12.8122 35.0598 12.79 35.0792 12.7744L35.1094 12.7499L35.1439 12.7143L35.1785 12.6765H35.1892L35.2022 12.6587L35.2324 12.6231L35.2907 12.5542C35.3101 12.5297 35.3273 12.5119 35.3511 12.4807L35.487 12.3072C35.5302 12.2539 35.5819 12.1849 35.6294 12.1226L35.774 11.9313C36.1688 11.3997 36.5809 10.8191 37.0125 10.2607C37.444 9.70239 37.8864 9.11736 38.3459 8.55457C38.8055 7.99178 39.2888 7.44233 39.7808 6.88843C40.0332 6.61705 40.2835 6.34789 40.5468 6.08318C40.81 5.81847 41.0711 5.55821 41.3408 5.30017C42.4349 4.25102 43.6217 3.30968 44.8859 2.48844C46.1952 1.64781 47.6082 0.992402 49.0869 0.53981L49.6522 0.388541L49.937 0.317363L50.2262 0.261751L50.8022 0.150528C50.9964 0.123834 51.1906 0.103812 51.3848 0.0793431C51.7711 0.0237315 52.1638 0.0215032 52.5521 0.00593191C52.7463 -0.00741489 52.9427 0.00593191 53.1369 0.00593191C53.3311 0.00593191 53.5252 0.0237334 53.7173 0.0326312C54.1242 0.0542114 54.5085 0.232647 54.7938 0.532566C55.0791 0.832486 55.2447 1.23199 55.2577 1.65187C55.2708 2.07175 55.1303 2.48135 54.8641 2.79946C54.598 3.11757 54.2256 3.32097 53.8208 3.36933L53.7173 3.38045C52.5553 3.52489 51.4195 3.84104 50.3448 4.31918C50.211 4.37479 50.0794 4.44597 49.9478 4.50826L49.7493 4.60391C49.6824 4.63283 49.6177 4.66842 49.5529 4.70401C49.2919 4.8486 49.0308 4.98207 48.7805 5.14891C48.2675 5.46306 47.7712 5.80538 47.2939 6.17438C46.8148 6.55699 46.3445 6.9485 45.8914 7.37782C45.6605 7.5847 45.4404 7.81159 45.216 8.02959C45.1038 8.13859 45.0002 8.25204 44.888 8.37216C44.7758 8.49228 44.6723 8.59461 44.5622 8.71473C43.6894 9.66539 42.8654 10.6626 42.0938 11.7022C41.6983 12.2272 41.3077 12.764 40.9222 13.3127C40.5338 13.8666 40.1454 14.4249 39.7225 15.0144L39.5586 15.2369C39.5025 15.3125 39.4528 15.3859 39.3903 15.4593L39.209 15.6973C39.181 15.7374 39.1421 15.7841 39.1076 15.8263L39.0019 15.9576L38.9501 16.0243L38.922 16.0577L38.8897 16.0955L38.7516 16.2512C38.7041 16.3024 38.661 16.3535 38.6092 16.4047L38.4495 16.5582C38.3416 16.6561 38.2337 16.7584 38.1237 16.8518C38.0137 16.9453 37.8907 17.032 37.772 17.1188C36.7921 17.8126 35.6315 18.1848 34.4427 18.1865C33.2235 18.189 32.0386 17.7708 31.0767 16.9986C31.0163 16.9519 30.958 16.903 30.8998 16.8541L30.7336 16.6961C30.6257 16.5893 30.5179 16.4848 30.4165 16.3713C30.315 16.2579 30.2244 16.1489 30.1338 16.0199L30.0647 15.9309L30.0475 15.9087L30.0367 15.8953L30.0194 15.8686L29.9461 15.7596C29.754 15.4704 29.5642 15.1768 29.3786 14.8832C29.0096 14.2892 28.6493 13.6886 28.317 13.068L28.0689 12.5986C27.9912 12.4407 27.9071 12.285 27.8315 12.1226C27.6762 11.8023 27.5273 11.4775 27.4 11.1394C27.2647 10.7898 27.2425 10.4045 27.3366 10.0408C27.4308 9.67706 27.6363 9.3544 27.9225 9.12075C28.2088 8.8871 28.5606 8.75493 28.9255 8.7439C29.2905 8.73287 29.6492 8.84356 29.9482 9.05952L29.9374 9.06619Z" fill="#5AB0E5"/>
<path d="M5.29716 35.9806C5.55751 36.4981 5.93704 36.9464 6.40452 37.2885C6.89327 37.6337 7.44275 37.8837 8.02415 38.0253C8.65206 38.1877 9.29819 38.269 9.94676 38.2672C10.4299 38.2639 10.9121 38.226 11.3898 38.1539C11.8904 38.0834 12.3771 37.9364 12.8329 37.7179C13.269 37.5173 13.6532 37.2189 13.9555 36.846C14.266 36.4364 14.4247 35.9317 14.4045 35.4182C14.4155 35.1397 14.3685 34.862 14.2664 34.6027C14.1644 34.3434 14.0095 34.1081 13.8116 33.9119C13.3614 33.4919 12.8324 33.1652 12.2552 32.9506C11.5464 32.6721 10.8177 32.447 10.0754 32.277C9.26229 32.083 8.4405 31.8716 7.60562 31.634C6.75709 31.4232 5.92213 31.1611 5.10534 30.8492C4.32426 30.5568 3.58994 30.1522 2.9255 29.6481C2.28117 29.1514 1.75051 28.5226 1.36909 27.804C0.9495 26.9672 0.745687 26.0388 0.776172 25.1032C0.750777 24.0368 1.01119 22.9831 1.5304 22.0514C2.02225 21.1946 2.69557 20.4558 3.50315 19.8868C4.33861 19.2982 5.27242 18.8634 6.26065 18.6029C7.26374 18.3287 8.29873 18.1887 9.33859 18.1865C10.5006 18.1809 11.6592 18.3148 12.7893 18.5854C13.8408 18.8331 14.8362 19.2768 15.7233 19.8933C16.5734 20.4855 17.2711 21.2706 17.7593 22.1843C18.2885 23.2316 18.5478 24.3945 18.5135 25.5675H13.6351C13.6153 24.9764 13.4665 24.3968 13.1991 23.8694C12.9698 23.4383 12.6335 23.0735 12.2225 22.81C11.7941 22.5459 11.3215 22.3612 10.8274 22.265C10.2623 22.1548 9.68761 22.1014 9.11189 22.1059C8.70243 22.1057 8.29406 22.1481 7.89336 22.2323C7.49992 22.3131 7.1246 22.4653 6.78599 22.6814C6.46137 22.8898 6.18312 23.1629 5.96855 23.4835C5.74278 23.8487 5.63121 24.273 5.64812 24.7021C5.63064 25.0822 5.71973 25.4597 5.90534 25.792C6.16156 26.1394 6.51172 26.4064 6.9146 26.5615C7.58779 26.856 8.28499 27.0923 8.99853 27.2677C9.88645 27.5032 11.049 27.8025 12.4863 28.1658C12.9222 28.2508 13.5086 28.4056 14.2672 28.6301C15.0695 28.8753 15.8312 29.2374 16.5277 29.7048C17.3021 30.2233 17.9623 30.8947 18.4678 31.6776C19.0127 32.4986 19.2852 33.5508 19.2852 34.834C19.2936 35.8373 19.0854 36.8307 18.6749 37.7462C18.2628 38.6535 17.6421 39.4504 16.8634 40.0721C15.9779 40.7696 14.9651 41.2879 13.8814 41.598C12.5426 41.9826 11.1542 42.1663 9.76148 42.143C8.52046 42.1437 7.28452 41.9847 6.08408 41.67C4.95356 41.3869 3.88696 40.892 2.94076 40.2116C2.03138 39.5479 1.29007 38.6804 0.776172 37.6787C0.218077 36.5436 -0.0464854 35.2868 0.00668828 34.0231H4.88081C4.86021 34.6996 5.00303 35.371 5.29716 35.9806Z" fill="#21516B"/>
<path d="M26.2047 25.0466V27.2832H26.2679C26.8279 26.4637 27.5684 25.7836 28.4325 25.2951C29.3231 24.8128 30.3234 24.5695 31.336 24.5889C32.3255 24.5766 33.3053 24.7843 34.2047 25.197C35.0766 25.604 35.7342 26.3204 36.1774 27.3464C36.7113 26.5792 37.3923 25.9257 38.1807 25.4238C39.0753 24.8534 40.1196 24.5627 41.1802 24.5889C42.0035 24.5819 42.8237 24.6897 43.6172 24.9093C44.3272 25.1027 44.9843 25.4536 45.5399 25.936C46.0979 26.4423 46.5268 27.0746 46.7911 27.7802C47.1085 28.6608 47.2579 29.5932 47.2314 30.5289V41.6243H42.6865V32.2292C42.6865 31.6741 42.6654 31.1502 42.6232 30.6576C42.592 30.2111 42.4719 29.7753 42.2701 29.3758C42.0767 29.0093 41.7815 28.7065 41.42 28.5039C40.9472 28.268 40.4218 28.1576 39.8941 28.1834C39.3517 28.1585 38.8133 28.2861 38.3398 28.5518C37.9531 28.7882 37.6329 29.119 37.4091 29.5131C37.1772 29.9305 37.025 30.3873 36.96 30.8603C36.8856 31.3655 36.8484 31.8755 36.8488 32.3862V41.62H32.2973V32.3251C32.2973 31.8347 32.2864 31.3464 32.2646 30.8668C32.2487 30.4108 32.1566 29.9606 31.9922 29.5349C31.835 29.1326 31.5541 28.7907 31.19 28.5584C30.8172 28.312 30.2657 28.19 29.5398 28.19C29.2515 28.202 28.9659 28.2503 28.6897 28.3338C28.3131 28.4417 27.9634 28.6274 27.663 28.8788C27.2962 29.1935 27.0061 29.588 26.815 30.0319C26.5554 30.6561 26.4349 31.3293 26.4619 32.0047V41.6243H21.9082V25.0575L26.2047 25.0466Z" fill="#21516B"/>
<path d="M50.959 22.4878V18.7298H55.5148V22.4878H50.959ZM55.5148 25.047V41.6138H50.959V25.047H55.5148Z" fill="#21516B"/>
<path d="M63.7842 18.7298V41.6181H59.2305V18.7298H63.7842Z" fill="#21516B"/>
<path d="M72.2491 37.6485C72.9336 38.3112 73.9174 38.6426 75.2006 38.6426C76.0423 38.6682 76.8712 38.4313 77.5723 37.9646C78.2349 37.5054 78.6411 37.0186 78.7908 36.5041H82.7995C82.1586 38.4921 81.1755 39.9141 79.8502 40.7701C78.5248 41.626 76.9212 42.0533 75.0393 42.0518C73.8344 42.0706 72.6372 41.8582 71.5123 41.4262C70.5046 41.0372 69.5956 40.4297 68.8507 39.6475C68.1066 38.8476 67.5339 37.904 67.1679 36.8747C66.7613 35.7439 66.5604 34.5493 66.575 33.3477C66.5666 32.1708 66.7727 31.0022 67.1831 29.8992C67.5633 28.869 68.1509 27.9277 68.9094 27.1335C69.6679 26.3394 70.5812 25.7093 71.593 25.2823C72.683 24.8224 73.8563 24.5931 75.0393 24.6087C76.3168 24.5786 77.5824 24.8592 78.7276 25.4262C79.747 25.9479 80.6308 26.7003 81.3085 27.6234C81.9902 28.5635 82.4839 29.6264 82.7625 30.7537C83.0635 31.9585 83.1717 33.2034 83.0829 34.442H71.1286C71.1911 35.9185 71.5646 36.9873 72.2491 37.6485ZM77.3957 28.9292C76.8507 28.3304 76.0224 28.0311 74.9107 28.0311C74.2863 28.0103 73.6658 28.1365 73.0992 28.3995C72.6541 28.6181 72.2609 28.9296 71.9461 29.3128C71.6687 29.6541 71.4613 30.0467 71.3357 30.4681C71.2235 30.8224 71.1504 31.1879 71.1177 31.5581H78.5292C78.3185 30.4042 77.9406 29.5272 77.3957 28.927V28.9292Z" fill="#21516B"/>
<path d="M89.6129 37.5048C89.8061 37.8504 90.0742 38.1483 90.3976 38.3768C90.7334 38.6084 91.1087 38.7768 91.505 38.8737C91.9288 38.9819 92.3646 39.0361 92.802 39.0351C93.1422 39.0333 93.4813 38.9953 93.8134 38.9217C94.15 38.8537 94.4742 38.7346 94.7747 38.5686C95.0604 38.412 95.307 38.1929 95.4963 37.9277C95.6969 37.6304 95.7977 37.2769 95.784 36.9184C95.784 36.234 95.3299 35.721 94.4216 35.3795C93.1815 34.9461 91.9117 34.603 90.6221 34.3528C89.9595 34.2074 89.3128 34.0309 88.6821 33.8231C88.0857 33.6374 87.519 33.3673 86.9992 33.0209C86.5155 32.6985 86.1102 32.2717 85.8134 31.7718C85.4984 31.2095 85.3432 30.5718 85.3644 29.9277C85.3644 28.8596 85.5729 27.9833 85.99 27.2988C86.3927 26.6269 86.9608 26.0693 87.6401 25.6792C88.3581 25.2685 89.141 24.984 89.9551 24.8377C90.8222 24.6772 91.7022 24.5969 92.584 24.598C93.4624 24.5954 94.3388 24.6816 95.1998 24.8552C95.9989 25.0101 96.7642 25.3053 97.4603 25.7271C98.1261 26.1356 98.6909 26.6893 99.1126 27.3467C99.582 28.1177 99.8517 28.9935 99.8974 29.895H95.5595C95.4955 29.023 95.1642 28.4301 94.5655 28.1162C93.9086 27.7926 93.1831 27.6325 92.451 27.6497C92.172 27.6514 91.8933 27.6681 91.6161 27.6999C91.3346 27.7264 91.0589 27.7962 90.7987 27.907C90.5567 28.0116 90.3424 28.1713 90.1731 28.3734C89.9767 28.6465 89.8876 28.9823 89.923 29.3169C89.9584 29.6514 90.1157 29.9611 90.3649 30.1871C90.7116 30.4678 91.109 30.6795 91.5355 30.8105C92.0772 30.9882 92.6289 31.1338 93.1878 31.2465C93.8069 31.3751 94.439 31.5146 95.0799 31.6628C95.7355 31.8111 96.3831 31.993 97.02 32.2078C97.6199 32.4064 98.187 32.6929 98.7028 33.0579C99.1879 33.4032 99.5924 33.8494 99.8887 34.3658C100.206 34.9619 100.361 35.631 100.338 36.3059C100.382 37.2026 100.185 38.0947 99.7682 38.8897C99.3512 39.6847 98.7289 40.3536 97.966 40.8269C97.2247 41.2903 96.4034 41.6111 95.5442 41.7729C94.6312 41.9546 93.7024 42.0459 92.7715 42.0454C91.8251 42.045 90.8814 41.9471 89.9551 41.7533C89.085 41.5847 88.2522 41.2613 87.4962 40.7986C86.7793 40.3484 86.1759 39.7389 85.7327 39.0176C85.2433 38.1752 84.9833 37.2191 84.9785 36.2449H89.3011C89.2915 36.6851 89.3991 37.1199 89.6129 37.5048Z" fill="#21516B"/>
<path d="M108.227 36.687V41.6243H103.191V36.687H108.227Z" fill="#21516B"/>
<path d="M111.72 30.1456C111.746 29.2028 112.023 28.2841 112.523 27.484C112.983 26.7871 113.598 26.2053 114.319 25.7837C115.078 25.3437 115.905 25.0349 116.767 24.8704C117.67 24.6897 118.588 24.5984 119.509 24.5979C120.356 24.5989 121.203 24.6579 122.042 24.7745C122.858 24.8778 123.653 25.1103 124.396 25.4633C125.082 25.7896 125.676 26.28 126.127 26.8911C126.576 27.5015 126.794 28.308 126.794 29.3107V37.9364C126.791 38.6548 126.834 39.3727 126.923 40.0857C126.962 40.6245 127.115 41.1489 127.372 41.6246H122.75C122.661 41.3679 122.589 41.1058 122.532 40.8399C122.478 40.57 122.44 40.297 122.419 40.0225C121.713 40.7575 120.829 41.2981 119.853 41.592C118.877 41.8909 117.862 42.0423 116.841 42.041C116.094 42.0469 115.349 41.9501 114.628 41.7533C113.976 41.5769 113.365 41.2715 112.832 40.8552C112.316 40.4437 111.904 39.9165 111.629 39.3162C111.324 38.6193 111.175 37.8641 111.193 37.1037C111.163 36.2991 111.333 35.4997 111.69 34.7778C111.997 34.1976 112.436 33.698 112.972 33.3194C113.519 32.9457 114.127 32.6691 114.768 32.502C115.438 32.3213 116.118 32.1757 116.804 32.066C117.488 31.9585 118.162 31.8735 118.824 31.811C119.419 31.7573 120.008 31.6604 120.588 31.5211C121.031 31.427 121.447 31.2356 121.807 30.9609C121.959 30.832 122.078 30.6681 122.153 30.4832C122.228 30.2983 122.257 30.0979 122.238 29.8993C122.257 29.4952 122.174 29.093 121.998 28.7287C121.844 28.4499 121.618 28.2174 121.344 28.0551C121.059 27.8891 120.743 27.7802 120.416 27.7347C120.039 27.6799 119.659 27.653 119.278 27.654C118.38 27.654 117.674 27.8466 117.161 28.2317C116.648 28.6168 116.349 29.2584 116.263 30.1565L111.72 30.1456ZM122.238 33.5113C122.028 33.6931 121.782 33.8297 121.517 33.9124C121.212 34.0126 120.901 34.0934 120.586 34.1543C120.254 34.2175 119.908 34.272 119.544 34.3135C119.18 34.3549 118.818 34.4094 118.454 34.4748C118.112 34.5379 117.775 34.6231 117.445 34.7298C117.132 34.8272 116.838 34.9744 116.573 35.1658C116.326 35.3478 116.123 35.5833 115.98 35.8546C115.821 36.1843 115.746 36.5483 115.762 36.914C115.748 37.2684 115.823 37.6206 115.98 37.9385C116.121 38.2067 116.331 38.4324 116.588 38.5925C116.864 38.7595 117.168 38.8734 117.486 38.9282C117.835 38.9942 118.189 39.0271 118.543 39.0263C119.441 39.0263 120.136 38.8766 120.627 38.5772C121.077 38.3186 121.452 37.9485 121.717 37.5026C121.944 37.113 122.092 36.6827 122.153 36.2361C122.201 35.8958 122.228 35.5529 122.234 35.2094L122.238 33.5113Z" fill="#21516B"/>
<path d="M130.448 22.4878V18.7298H135V22.4878H130.448ZM135 25.0535V41.6203H130.448V25.0535H135Z" fill="#21516B"/>
</svg>
